<svg width="320" height="150" viewBox="0 0 320 150" fill="none" xmlns="http://www.w3.org/2000/svg">
<path d="M162.522 129.926C248.853 129.926 318.838 125.883 318.838 120.897C318.838 115.91 248.853 111.868 162.522 111.868C76.1912 111.868 6.20624 115.91 6.20624 120.897C6.20624 125.883 76.1912 129.926 162.522 129.926Z" fill="#F5F5F5"/>
<path d="M246.286 84.1686L121.021 84.1598L110.309 52.4135C106.545 41.2361 94.4574 32.2078 83.3128 32.207L40.5316 32.204C29.3951 32.2032 23.4166 41.2626 27.1805 52.4077L37.9083 84.2025C39.58 89.1711 42.764 93.4887 47.0116 96.5468C51.2592 99.605 56.3562 101.25 61.5846 101.249L246.287 101.262C247.856 101.262 249.361 100.637 250.47 99.5245C251.579 98.4121 252.202 96.9033 252.202 95.33L252.201 90.1092C252.202 89.3295 252.05 88.5572 251.753 87.8365C251.457 87.1159 251.021 86.4609 250.472 85.9092C249.922 85.3575 249.27 84.9197 248.552 84.6211C247.834 84.3224 247.064 84.1686 246.286 84.1686Z" fill="#3867D6"/>
<path opacity="0.2" d="M110.324 52.4266C106.552 41.2388 94.4383 32.2028 83.2691 32.2028L54.3891 32.2028C43.22 32.2028 37.2356 41.2712 41.0071 52.4266L51.7483 84.2508L121.049 84.2023L110.324 52.4266Z" fill="white"/>
<path opacity="0.2" d="M175.157 101.246L246.297 101.246C249.556 101.246 252.198 98.6057 252.198 95.3483L252.198 90.1493C252.198 86.8918 249.556 84.2511 246.297 84.2511L175.157 84.2511C171.898 84.2511 169.255 86.8918 169.255 90.1493L169.255 95.3483C169.255 98.6057 171.898 101.246 175.157 101.246Z" fill="white"/>
<path d="M178.628 116.825L174.925 116.825L174.925 101.246L180.951 101.246L178.628 116.825Z" fill="#263238"/>
<path d="M242.475 116.825L246.173 116.825L246.173 101.246L240.148 101.246L242.475 116.825Z" fill="#263238"/>
<path d="M69.8118 116.825L66.1086 116.825L66.1086 101.246L72.1344 101.246L69.8118 116.825Z" fill="#263238"/>
<path d="M133.65 116.825L137.353 116.825L137.353 101.246L131.327 101.246L133.65 116.825Z" fill="#263238"/>
<rect width="11.7004" height="7.10939" transform="matrix(-0.966523 -0.25647 -0.257012 0.966437 233.777 78.8058)" fill="#FFBE9D"/>
<rect opacity="0.1" width="11.7004" height="7.10939" transform="matrix(-0.966506 -0.256537 -0.256946 0.966455 233.671 78.8495)" fill="black"/>
<rect width="11.6931" height="6.70324" transform="matrix(-0.623207 -0.782057 -0.782724 0.622369 199.179 86.5887)" fill="#FFBE9D"/>
<path d="M97.3428 84.5138C143.452 80.4022 170.057 77.6197 224.968 84.5138L226.386 75.1391L225.886 75.0532C179.493 67.0787 152.294 62.4034 100.021 65.4023L97.3428 84.5138Z" fill="black"/>
<path d="M83.2137 84.7765C89.3952 85.2202 93.9267 84.8611 99.2653 82.9765L98.3781 60.8549L78.9056 65.8663L83.2137 84.7765Z" fill="#263238"/>
<path d="M100.599 65.0918C110.921 57.0302 110.883 53.4943 86.3609 40.1014L79.2717 47.5368C99.3468 58.2149 103.353 55.5322 96.4628 62.0536L100.599 65.0918Z" fill="#FFBE9D"/>
<path opacity="0.1" d="M100.599 65.0918C110.921 57.0302 110.883 53.4943 86.3609 40.1014L79.2717 47.5368C99.3468 58.2149 103.353 55.5322 96.4628 62.0536L100.599 65.0918Z" fill="black"/>
<path d="M89.3857 42.3882C89.0579 51.594 94.2611 53.1645 96.3959 61.5744C75.773 67.5645 81.6847 81.1936 84.6005 85.4074C57.8345 73.5733 53.0538 50.7088 59.7885 43.4504C51.8132 40.7949 89.6181 35.8615 89.3857 42.3882Z" fill="#3362CC"/>
<path opacity="0.1" d="M83.0035 80.6275C71.2846 75.2551 66.1447 69.2759 62.7994 54.6035L57.1281 56.0198C62.2677 73.3691 75.2055 81.6897 85.4847 85.4074L83.0035 80.6275Z" fill="black"/>
<path d="M78.3974 66.4518C84.1188 62.7369 89.1227 60.9951 96.1203 60.9768L91.8346 64.1535L78.3974 66.4518Z" fill="black" fill-opacity="0.1"/>
<path d="M198.461 86.0113L191.874 88.3262C191.763 88.3602 191.67 88.4392 191.617 88.546C191.563 88.6529 191.552 88.7791 191.587 88.8974L193.205 94.5256C193.254 94.67 193.33 94.8037 193.429 94.9191C193.527 95.0346 193.645 95.1295 193.776 95.1986C193.908 95.2676 194.05 95.3093 194.195 95.3214C194.34 95.3334 194.485 95.3156 194.622 95.2689C196.9 94.4212 197.949 93.8927 200.843 92.8756C202.623 92.2503 210.269 89.789 212.728 88.9247C215.187 88.0605 214.193 85.5138 213.09 85.638C208.048 86.2344 201.736 86.807 199.598 86.035C199.228 85.8962 198.828 85.8879 198.461 86.0113Z" fill="#263238"/>
<path d="M231.433 79.0633L230.318 85.3558C230.29 85.4626 230.299 85.5765 230.343 85.6792C230.387 85.7818 230.463 85.8671 230.559 85.9212L235.85 88.1167C235.962 88.1557 236.081 88.1691 236.198 88.1562C236.315 88.1432 236.427 88.1041 236.526 88.0416C236.625 87.9791 236.709 87.8948 236.772 87.7946C236.835 87.6944 236.876 87.5808 236.89 87.4619C237.896 83.3183 238.7 80.2953 239.888 77.6712C241.285 74.6317 241.136 73.3752 239.076 68.5489C238.123 66.315 235.759 65.8307 235.866 66.8604C236.83 75.9504 234.835 74.2578 232.053 77.7564C231.742 78.1302 231.529 78.5793 231.433 79.0633Z" fill="#263238"/>
<path d="M65.5145 35.5963C65.7929 37.8536 65.4152 39.4446 64.8229 39.9575C66.7869 41.5339 74.2183 46.7788 75.402 44.0028C76.6275 41.1288 76.433 38.6977 75.5152 36.9677C71.8199 35.5698 65.2207 33.2141 65.5145 35.5963Z" fill="#FFBE9D"/>
<path d="M77.333 40.9717C79.2275 40.8345 77.9397 45.4774 76.5632 46.0957C73.4157 47.1786 68.0361 46.2499 63.2516 42.7649C63.4422 41.6115 64.6429 37.9621 65.5779 39.4791C69.0033 43.4502 75.3003 42.2966 77.333 40.9717Z" fill="#264A99"/>
<path opacity="0.1" d="M65.6163 37.7761C65.6196 37.0114 65.7485 36.1024 65.4305 35.3069L75.2814 36.2908C75.6288 37.2052 76.1337 38.1972 76.1636 39.2224C72.6542 39.5603 69.4114 39.0484 65.6163 37.7761Z" fill="black"/>
<path d="M58.5636 20.482C59.4207 28.032 62.5119 34.7266 67.5251 36.4759C72.5382 38.2253 84.0904 38.045 83.7055 28.5671C83.6355 26.8427 79.3496 18.9527 77.5128 15.18C76.3143 12.7183 72.5887 13.1542 71.824 11.6882C66.8108 9.93885 58.6285 13.7728 58.5636 20.482Z" fill="#FFBE9D"/>
<path d="M77.7454 8.59537C76.6576 8.84794 75.5088 8.787 74.4747 8.42186C73.4284 8.11549 72.4453 7.66281 71.3917 7.38696C69.154 6.79383 66.7235 6.99108 64.6293 7.93576C63.4893 8.45004 62.4991 9.16315 61.7148 10.0184C61.0583 10.7341 60.5459 11.5494 60.2103 12.4309C59.4265 12.3019 58.6126 12.3816 57.8759 12.6595C57.1392 12.9373 56.5144 13.4003 56.0838 13.9873C55.2489 15.1911 54.7443 17.574 54.8276 19.9048C54.8792 21.3489 55.182 22.0293 55.7582 23.5551C57.6432 28.5472 60.3436 29.5436 61.9853 29.4829C65.761 28.7865 60.0954 23.4782 60.0954 23.4782C63.5327 22.1499 62.5528 17.4995 63.3939 16.774C63.5364 16.6511 63.7053 16.5013 63.9238 16.3514C64.6185 15.8748 65.8144 15.396 68.2578 15.7686C69.5822 15.9705 71.273 16.4226 73.4492 17.2606C86.3406 21.56 85.4882 7.93576 77.7454 8.59537Z" fill="#263238"/>
<path d="M68.2578 15.7686C64.7524 13.7087 65.1965 15.8962 63.9238 16.3514C64.6185 15.8748 65.8144 15.396 68.2578 15.7686Z" fill="#263238"/>
<path d="M61.7148 10.0184C61.0583 10.7341 60.5459 11.5494 60.2103 12.4309C62.8942 14.2272 63.0131 8.40951 61.7148 10.0184Z" fill="#263238"/>
<ellipse rx="2.48473" ry="3.50886" transform="matrix(0.368983 -0.929159 -0.929916 -0.368472 59.3992 28.7792)" fill="#FFBE9D"/>
<ellipse rx="1.09628" ry="0.791074" transform="matrix(-0.941137 0.338079 0.338726 0.940865 68.712 25.259)" fill="#263238"/>
<ellipse rx="1.09628" ry="0.791074" transform="matrix(-0.941065 0.338279 0.338527 0.940937 78.6449 23.5015)" fill="#263238"/>
<path d="M64.333 24.136C64.2412 24.1764 64.1407 24.1977 64.0419 24.1976C63.9431 24.1976 63.8497 24.1761 63.7713 24.1356C63.7106 24.1058 63.6596 24.0657 63.6213 24.0176C63.583 23.9696 63.5582 23.9146 63.5482 23.8558C63.5383 23.7971 63.5434 23.7358 63.5634 23.6755C63.5833 23.6151 63.6176 23.557 63.6644 23.5045C64.2061 22.8641 64.917 22.3182 65.7367 21.9133C66.5563 21.5084 67.4605 21.2563 68.3725 21.1786C68.5168 21.1798 68.6478 21.2256 68.7386 21.3067C68.8294 21.3877 68.8731 21.4979 68.8609 21.6146C68.8486 21.7314 68.7813 21.8459 68.6726 21.9347C68.564 22.0235 68.4223 22.08 68.2765 22.0925C67.5577 22.1691 66.8494 22.3803 66.2098 22.7085C65.5702 23.0368 65.0177 23.4729 64.5978 23.9807C64.526 24.0493 64.4343 24.103 64.333 24.136Z" fill="#263238"/>
<path d="M76.1673 21.2301C76.0672 21.2255 75.9674 21.2011 75.8782 21.1596C75.7891 21.1181 75.7139 21.0609 75.6604 20.994C75.6183 20.9435 75.5894 20.8884 75.5753 20.832C75.5612 20.7756 75.5622 20.719 75.5782 20.6655C75.5942 20.612 75.625 20.5627 75.6687 20.5204C75.7124 20.4781 75.7681 20.4437 75.8327 20.4192C76.5945 20.1089 77.4687 19.9489 78.3811 19.9529C79.2935 19.9569 80.2171 20.1247 81.0735 20.4421C81.2033 20.5037 81.302 20.5971 81.3494 20.7033C81.3968 20.8094 81.3894 20.9203 81.3286 21.0131C81.2678 21.106 81.1583 21.1739 81.0224 21.2029C80.8865 21.2319 80.7345 21.2198 80.5975 21.1691C79.9161 20.9318 79.1867 20.8119 78.4695 20.8191C77.7523 20.8263 77.0679 20.9606 76.4725 21.2108C76.3784 21.2382 76.2728 21.2449 76.1673 21.2301Z" fill="#263238"/>
<path d="M75.5045 24.6742C76.3958 25.0635 76.83 25.471 77.6094 26.4112C77.38 26.5553 77.102 26.6632 76.7949 26.7273C76.4878 26.7914 76.159 26.8101 75.8317 26.7821L75.5045 24.6742Z" fill="#C96557"/>
<path d="M75.0756 30.4282C74.7859 30.5073 73.8415 30.3661 73.4501 30.0979" stroke="#37474F" stroke-width="2" stroke-linecap="round"/>
<line x1="1" y1="-1" x2="0.459758" y2="-1" transform="matrix(-0.253407 -0.96736 -0.967496 0.252886 79.5617 34.5615)" stroke="black" stroke-opacity="0.1" stroke-width="2" stroke-linecap="round"/>
<path d="M102.049 57.1044L107.747 56.5006C107.863 56.4882 107.922 56.4821 107.942 56.4807C108.995 56.4131 109.423 57.8086 108.513 58.3412C108.495 58.3516 108.444 58.3791 108.34 58.434L90.36 67.9855L90.349 67.9914C90.23 68.0536 90.0997 68.0913 89.9659 68.1021L89.9534 68.103L82.608 68.6514C82.4894 68.6603 82.4301 68.6647 82.4093 68.6654C81.352 68.7003 80.9704 67.2847 81.9025 66.785C81.9207 66.7752 81.9743 66.7493 82.0813 66.6976L101.709 57.2015L101.718 57.197C101.819 57.1488 101.928 57.1179 102.039 57.1055L102.049 57.1044Z" fill="black"/>
<path d="M101.699 56.8966L107.399 56.3072C107.515 56.2952 107.573 56.2892 107.594 56.2879C108.646 56.2229 109.071 57.6195 108.16 58.1498C108.142 58.1602 108.09 58.1875 107.987 58.2421L89.9823 67.7479L89.9712 67.7538C89.8521 67.8157 89.7217 67.853 89.5879 67.8635L89.5754 67.8644L82.2286 68.3941C82.11 68.4027 82.0506 68.407 82.0299 68.4076C80.9725 68.4399 80.5945 67.0233 81.5278 66.526C81.5461 66.5162 81.5997 66.4905 81.7069 66.4389L101.359 56.9928L101.368 56.9883C101.469 56.9404 101.578 56.9098 101.689 56.8977L101.699 56.8966Z" fill="#37474F"/>
<path d="M99.7214 59.2402L100.073 59.2038C100.189 59.1918 100.247 59.1858 100.268 59.1845C101.32 59.1195 101.745 60.5161 100.834 61.0464C100.816 61.0568 100.764 61.0841 100.661 61.1387L93.622 64.8551L93.611 64.8609C93.4919 64.9228 93.3615 64.9602 93.2276 64.9707L93.2152 64.9716L92.076 65.0537L92.0759 65.0537C91.9573 65.0623 91.898 65.0665 91.8773 65.0672C90.8198 65.0994 90.4419 63.6828 91.3752 63.1855C91.3935 63.1758 91.4471 63.15 91.5542 63.0985L91.5543 63.0985L99.3811 59.3364L99.3904 59.3319C99.4915 59.284 99.5998 59.2533 99.711 59.2412L99.7214 59.2402Z" fill="black"/>
<path d="M116.574 41.7423C116.817 40.8953 115.925 40.1704 115.146 40.5817L93.3782 52.07C93.1068 52.2132 92.9162 52.4732 92.8612 52.7751L90.568 65.3703C90.4186 66.1912 91.281 66.8235 92.0189 66.434L112.226 55.7664C112.466 55.6393 112.645 55.4198 112.72 55.1583L116.574 41.7423Z" fill="#455A64"/>
<path d="M116.82 42.0765C117.063 41.2295 116.171 40.5045 115.392 40.9158L93.6244 52.403C93.353 52.5462 93.1625 52.8061 93.1075 53.108L90.8149 65.703C90.6655 66.5239 91.5279 67.1562 92.2658 66.7667L112.472 56.1002C112.713 55.9732 112.891 55.7536 112.967 55.4921L116.82 42.0765Z" fill="#B0B0B0"/>
<path d="M98.6036 85.23C146.81 60.7993 150.112 47.1219 187.927 86.6462L196.149 81.2976C166.486 37.4639 133.163 39.5552 91.5144 66.6414C75.5637 70.7132 76.2295 91.3669 98.6036 85.23Z" fill="#263238"/>
<path d="M81.7636 64.1635C80.1266 64.6018 79.7365 65.0571 76.2297 70.1772L79.2823 74.0774C80.2255 73.9911 82.5975 72.9746 83.0041 71.2449C84.422 68.0583 86.3714 66.7079 89.0299 65.0487C91.6884 63.3895 85.9938 63.031 81.7636 64.1635Z" fill="#FFBE9D"/>
<path d="M76.5871 69.6745C51.9083 79.2385 56.365 68.191 66.65 47.4813L54.6475 46.1062C40.292 83.2833 52.0759 85.5885 79.3602 73.9974L76.5871 69.6745Z" fill="#FFBE9D"/>
<path d="M50.7526 55.8428C51.7542 49.7585 53.9432 42.5523 60.1498 41.3905C63.7072 41.7263 65.2097 42.5506 67.1461 44.9805C68.988 47.3621 64.5573 54.0886 63.1586 59.2064C63.1586 59.2064 58.651 54.276 50.7526 55.8428Z" fill="#3362CC"/>
</svg>
