<svg width="300" height="300" viewBox="0 0 300 300" fill="none" xmlns="http://www.w3.org/2000/svg">
<path d="M150.001 256.536C214.25 256.536 266.335 253.495 266.335 249.744C266.335 245.993 214.25 242.952 150.001 242.952C85.751 242.952 33.6665 245.993 33.6665 249.744C33.6665 253.495 85.751 256.536 150.001 256.536Z" fill="#F5F5F5"/>
<path d="M141.486 242.28H71.3279V250.284H141.486V242.28Z" fill="#407BFF"/>
<path opacity="0.3" d="M141.486 242.28H71.3279V250.284H141.486V242.28Z" fill="black"/>
<path d="M74.9108 243.42H73.1528V249.15H74.9108V243.42Z" fill="#263238"/>
<path d="M77.9943 243.42H76.2363V249.15H77.9943V243.42Z" fill="#263238"/>
<path d="M81.0844 243.42H79.3264V249.15H81.0844V243.42Z" fill="#263238"/>
<path d="M84.1689 243.42H82.4109V249.15H84.1689V243.42Z" fill="#263238"/>
<path d="M87.2524 243.42H85.4944V249.15H87.2524V243.42Z" fill="#263238"/>
<path d="M90.3359 243.42H88.5779V249.15H90.3359V243.42Z" fill="#263238"/>
<path d="M93.4269 243.42H91.6689V249.15H93.4269V243.42Z" fill="#263238"/>
<path d="M96.5104 243.42H94.7524V249.15H96.5104V243.42Z" fill="#263238"/>
<path d="M99.5942 243.42H97.8362V249.15H99.5942V243.42Z" fill="#263238"/>
<path d="M102.679 243.42H100.921V249.15H102.679V243.42Z" fill="#263238"/>
<path d="M105.762 243.42H104.004V249.15H105.762V243.42Z" fill="#263238"/>
<path d="M108.852 243.42H107.094V249.15H108.852V243.42Z" fill="#263238"/>
<path d="M111.937 243.42H110.179V249.15H111.937V243.42Z" fill="#263238"/>
<path d="M115.02 243.42H113.262V249.15H115.02V243.42Z" fill="#263238"/>
<path d="M118.104 243.42H116.346V249.15H118.104V243.42Z" fill="#263238"/>
<path d="M121.195 243.42H119.437V249.15H121.195V243.42Z" fill="#263238"/>
<path d="M124.279 243.42H122.521V249.15H124.279V243.42Z" fill="#263238"/>
<path d="M127.362 243.42H125.604V249.15H127.362V243.42Z" fill="#263238"/>
<path d="M130.446 243.42H128.688V249.15H130.446V243.42Z" fill="#263238"/>
<path d="M133.537 243.42H131.779V249.15H133.537V243.42Z" fill="#263238"/>
<path d="M136.62 243.42H134.862V249.15H136.62V243.42Z" fill="#263238"/>
<path d="M139.705 243.42H137.947V249.15H139.705V243.42Z" fill="#263238"/>
<path d="M141.493 250.29H152.437V242.286H141.493V250.29Z" fill="#263238"/>
<path d="M141.493 100.83H67.6812V242.28H141.493V100.83Z" fill="#407BFF"/>
<path opacity="0.3" d="M141.493 100.83H67.6812V242.28H141.493V100.83Z" fill="white"/>
<path d="M151.242 99.6182H72.5164V100.83H151.242V99.6182Z" fill="#263238"/>
<path d="M65.3524 166.74H64.7524V172.698H65.3524V166.74Z" fill="#407BFF"/>
<path d="M65.3524 174.702H64.7524V190.2H65.3524V174.702Z" fill="#407BFF"/>
<path d="M141.486 242.28H156.084L156.084 100.83H141.486L141.486 242.28Z" fill="#407BFF"/>
<g style="mix-blend-mode:multiply" opacity="0.6">
<path d="M137.808 138.246H71.3582C70.2747 138.246 69.3962 139.125 69.3962 140.208V150.324C69.3962 151.408 70.2747 152.286 71.3582 152.286H137.808C138.892 152.286 139.77 151.408 139.77 150.324V140.208C139.77 139.125 138.892 138.246 137.808 138.246Z" fill="#407BFF"/>
</g>
<path opacity="0.2" d="M137.808 138.246H71.3582C70.2747 138.246 69.3962 139.125 69.3962 140.208V150.324C69.3962 151.408 70.2747 152.286 71.3582 152.286H137.808C138.892 152.286 139.77 151.408 139.77 150.324V140.208C139.77 139.125 138.892 138.246 137.808 138.246Z" fill="black"/>
<path d="M133.849 143.4L131.011 137.544V153H139.801V145.266H136.861C136.234 145.268 135.62 145.095 135.087 144.765C134.555 144.435 134.125 143.962 133.849 143.4Z" fill="#407BFF"/>
<path d="M139.77 102.522H69.3962V118.02H139.77V102.522Z" fill="#407BFF"/>
<path opacity="0.2" d="M139.77 102.522H69.3962V118.02H139.77V102.522Z" fill="white"/>
<path d="M139.77 225H69.3962V240.498H139.77V225Z" fill="#407BFF"/>
<path opacity="0.2" d="M139.77 225H69.3962V240.498H139.77V225Z" fill="white"/>
<path d="M139.77 207.504H69.3962V223.002H139.77V207.504Z" fill="#407BFF"/>
<path opacity="0.2" d="M139.77 207.504H69.3962V223.002H139.77V207.504Z" fill="white"/>
<path d="M139.77 190.008H69.3962V205.506H139.77V190.008Z" fill="#407BFF"/>
<path opacity="0.2" d="M139.77 190.008H69.3962V205.506H139.77V190.008Z" fill="white"/>
<path d="M139.77 172.512H69.3962V188.01H139.77V172.512Z" fill="#407BFF"/>
<path opacity="0.2" d="M139.77 172.512H69.3962V188.01H139.77V172.512Z" fill="white"/>
<path d="M139.77 155.017H69.3962V170.515H139.77V155.017Z" fill="#407BFF"/>
<path opacity="0.2" d="M139.77 155.017H69.3962V170.515H139.77V155.017Z" fill="white"/>
<path d="M131.01 137.521H60.6365V153.019H131.01V137.521Z" fill="#407BFF"/>
<path opacity="0.2" d="M131.01 137.521H60.6365V153.019H131.01V137.521Z" fill="white"/>
<path d="M139.77 120.019H69.3962V135.517H139.77V120.019Z" fill="#407BFF"/>
<path opacity="0.2" d="M139.77 120.019H69.3962V135.517H139.77V120.019Z" fill="white"/>
<path d="M135.39 104.736H108.636C107.387 104.736 106.374 105.749 106.374 106.998V113.544C106.374 114.794 107.387 115.806 108.636 115.806H135.39C136.64 115.806 137.652 114.794 137.652 113.544V106.998C137.652 105.749 136.64 104.736 135.39 104.736Z" fill="#407BFF"/>
<path opacity="0.2" d="M133.531 110.73V109.818C133.531 109.288 133.101 108.858 132.571 108.858H123.901C123.371 108.858 122.941 109.288 122.941 109.818V110.73C122.941 111.261 123.371 111.69 123.901 111.69H132.571C133.101 111.69 133.531 111.261 133.531 110.73Z" fill="white"/>
<path d="M135.39 122.232H108.636C107.387 122.232 106.374 123.245 106.374 124.494V131.04C106.374 132.29 107.387 133.302 108.636 133.302H135.39C136.64 133.302 137.652 132.29 137.652 131.04V124.494C137.652 123.245 136.64 122.232 135.39 122.232Z" fill="#407BFF"/>
<path opacity="0.2" d="M133.531 128.226V127.314C133.531 126.784 133.101 126.354 132.571 126.354H123.901C123.371 126.354 122.941 126.784 122.941 127.314V128.226C122.941 128.757 123.371 129.186 123.901 129.186H132.571C133.101 129.186 133.531 128.757 133.531 128.226Z" fill="white"/>
<path d="M126.631 139.734H99.8765C98.6272 139.734 97.6145 140.747 97.6145 141.996V148.542C97.6145 149.792 98.6272 150.804 99.8765 150.804H126.631C127.88 150.804 128.893 149.792 128.893 148.542V141.996C128.893 140.747 127.88 139.734 126.631 139.734Z" fill="#407BFF"/>
<path opacity="0.2" d="M124.771 145.723V144.811C124.771 144.28 124.341 143.851 123.811 143.851H115.141C114.61 143.851 114.181 144.28 114.181 144.811V145.723C114.181 146.253 114.61 146.683 115.141 146.683H123.811C124.341 146.683 124.771 146.253 124.771 145.723Z" fill="white"/>
<path d="M135.39 157.23H108.636C107.387 157.23 106.374 158.243 106.374 159.492V166.038C106.374 167.288 107.387 168.3 108.636 168.3H135.39C136.64 168.3 137.652 167.288 137.652 166.038V159.492C137.652 158.243 136.64 157.23 135.39 157.23Z" fill="#407BFF"/>
<path opacity="0.2" d="M133.531 163.218V162.306C133.531 161.776 133.101 161.346 132.571 161.346H123.901C123.371 161.346 122.941 161.776 122.941 162.306V163.218C122.941 163.748 123.371 164.178 123.901 164.178H132.571C133.101 164.178 133.531 163.748 133.531 163.218Z" fill="white"/>
<path d="M135.39 174.727H108.636C107.387 174.727 106.374 175.739 106.374 176.989V183.535C106.374 184.784 107.387 185.797 108.636 185.797H135.39C136.64 185.797 137.652 184.784 137.652 183.535V176.989C137.652 175.739 136.64 174.727 135.39 174.727Z" fill="#407BFF"/>
<path opacity="0.2" d="M133.531 180.714V179.802C133.531 179.272 133.101 178.842 132.571 178.842H123.901C123.371 178.842 122.941 179.272 122.941 179.802V180.714C122.941 181.244 123.371 181.674 123.901 181.674H132.571C133.101 181.674 133.531 181.244 133.531 180.714Z" fill="white"/>
<path d="M135.39 192.222H108.636C107.387 192.222 106.374 193.234 106.374 194.484V201.03C106.374 202.279 107.387 203.292 108.636 203.292H135.39C136.64 203.292 137.652 202.279 137.652 201.03V194.484C137.652 193.234 136.64 192.222 135.39 192.222Z" fill="#407BFF"/>
<path opacity="0.2" d="M133.531 198.21V197.298C133.531 196.768 133.101 196.338 132.571 196.338H123.901C123.371 196.338 122.941 196.768 122.941 197.298V198.21C122.941 198.74 123.371 199.17 123.901 199.17H132.571C133.101 199.17 133.531 198.74 133.531 198.21Z" fill="white"/>
<path d="M135.39 209.718H108.636C107.387 209.718 106.374 210.73 106.374 211.98V218.526C106.374 219.775 107.387 220.788 108.636 220.788H135.39C136.64 220.788 137.652 219.775 137.652 218.526V211.98C137.652 210.73 136.64 209.718 135.39 209.718Z" fill="#407BFF"/>
<path opacity="0.2" d="M133.531 215.712V214.8C133.531 214.27 133.101 213.84 132.571 213.84H123.901C123.371 213.84 122.941 214.27 122.941 214.8V215.712C122.941 216.242 123.371 216.672 123.901 216.672H132.571C133.101 216.672 133.531 216.242 133.531 215.712Z" fill="white"/>
<path d="M135.39 227.214H108.636C107.387 227.214 106.374 228.227 106.374 229.476V236.022C106.374 237.271 107.387 238.284 108.636 238.284H135.39C136.64 238.284 137.652 237.271 137.652 236.022V229.476C137.652 228.227 136.64 227.214 135.39 227.214Z" fill="#407BFF"/>
<path opacity="0.2" d="M133.537 233.208V232.296C133.537 231.766 133.107 231.336 132.577 231.336H123.907C123.376 231.336 122.947 231.766 122.947 232.296V233.208C122.947 233.738 123.376 234.168 123.907 234.168H132.577C133.107 234.168 133.537 233.738 133.537 233.208Z" fill="white"/>
<path d="M100.933 112.062C101.92 112.062 102.721 111.262 102.721 110.274C102.721 109.287 101.92 108.486 100.933 108.486C99.945 108.486 99.1445 109.287 99.1445 110.274C99.1445 111.262 99.945 112.062 100.933 112.062Z" fill="#407BFF"/>
<path d="M95.8207 112.062C96.8082 112.062 97.6087 111.262 97.6087 110.274C97.6087 109.287 96.8082 108.486 95.8207 108.486C94.8332 108.486 94.0327 109.287 94.0327 110.274C94.0327 111.262 94.8332 112.062 95.8207 112.062Z" fill="#407BFF"/>
<path d="M90.715 112.062C91.7025 112.062 92.503 111.262 92.503 110.274C92.503 109.287 91.7025 108.486 90.715 108.486C89.7275 108.486 88.927 109.287 88.927 110.274C88.927 111.262 89.7275 112.062 90.715 112.062Z" fill="#407BFF"/>
<path opacity="0.4" d="M90.715 112.062C91.7025 112.062 92.503 111.262 92.503 110.274C92.503 109.287 91.7025 108.486 90.715 108.486C89.7275 108.486 88.927 109.287 88.927 110.274C88.927 111.262 89.7275 112.062 90.715 112.062Z" fill="white"/>
<path d="M87.3908 110.275C87.3908 110.631 87.2852 110.979 87.0874 111.275C86.8896 111.571 86.6085 111.801 86.2796 111.938C85.9507 112.074 85.5888 112.109 85.2396 112.04C84.8904 111.971 84.5697 111.799 84.318 111.547C84.0663 111.296 83.8948 110.975 83.8254 110.626C83.7559 110.277 83.7916 109.915 83.9278 109.586C84.064 109.257 84.2947 108.976 84.5907 108.778C84.8868 108.58 85.2348 108.475 85.5908 108.475C86.0682 108.475 86.526 108.664 86.8636 109.002C87.2011 109.339 87.3908 109.797 87.3908 110.275Z" fill="#407BFF"/>
<path d="M100.933 129.558C101.92 129.558 102.721 128.758 102.721 127.77C102.721 126.783 101.92 125.982 100.933 125.982C99.945 125.982 99.1445 126.783 99.1445 127.77C99.1445 128.758 99.945 129.558 100.933 129.558Z" fill="#407BFF"/>
<path d="M95.8207 129.558C96.8082 129.558 97.6087 128.758 97.6087 127.77C97.6087 126.783 96.8082 125.982 95.8207 125.982C94.8332 125.982 94.0327 126.783 94.0327 127.77C94.0327 128.758 94.8332 129.558 95.8207 129.558Z" fill="#407BFF"/>
<path d="M90.715 129.558C91.7025 129.558 92.503 128.758 92.503 127.77C92.503 126.783 91.7025 125.982 90.715 125.982C89.7275 125.982 88.927 126.783 88.927 127.77C88.927 128.758 89.7275 129.558 90.715 129.558Z" fill="#407BFF"/>
<path d="M87.3908 127.8C87.3908 128.156 87.2852 128.504 87.0874 128.8C86.8896 129.096 86.6085 129.327 86.2796 129.463C85.9507 129.599 85.5888 129.635 85.2396 129.565C84.8904 129.496 84.5697 129.325 84.318 129.073C84.0663 128.821 83.8948 128.5 83.8254 128.151C83.7559 127.802 83.7916 127.44 83.9278 127.111C84.064 126.782 84.2947 126.501 84.5907 126.303C84.8868 126.106 85.2348 126 85.5908 126C86.0682 126 86.526 126.19 86.8636 126.527C87.2011 126.865 87.3908 127.323 87.3908 127.8Z" fill="#407BFF"/>
<path opacity="0.4" d="M87.3908 127.8C87.3908 128.156 87.2852 128.504 87.0874 128.8C86.8896 129.096 86.6085 129.327 86.2796 129.463C85.9507 129.599 85.5888 129.635 85.2396 129.565C84.8904 129.496 84.5697 129.325 84.318 129.073C84.0663 128.821 83.8948 128.5 83.8254 128.151C83.7559 127.802 83.7916 127.44 83.9278 127.111C84.064 126.782 84.2947 126.501 84.5907 126.303C84.8868 126.106 85.2348 126 85.5908 126C86.0682 126 86.526 126.19 86.8636 126.527C87.2011 126.865 87.3908 127.323 87.3908 127.8Z" fill="white"/>
<path d="M92.1728 147.055C93.1602 147.055 93.9608 146.254 93.9608 145.267C93.9608 144.279 93.1602 143.479 92.1728 143.479C91.1853 143.479 90.3848 144.279 90.3848 145.267C90.3848 146.254 91.1853 147.055 92.1728 147.055Z" fill="#407BFF"/>
<path opacity="0.4" d="M92.1728 147.055C93.1602 147.055 93.9608 146.254 93.9608 145.267C93.9608 144.279 93.1602 143.479 92.1728 143.479C91.1853 143.479 90.3848 144.279 90.3848 145.267C90.3848 146.254 91.1853 147.055 92.1728 147.055Z" fill="white"/>
<path d="M87.061 147.055C88.0484 147.055 88.849 146.254 88.849 145.267C88.849 144.279 88.0484 143.479 87.061 143.479C86.0735 143.479 85.2729 144.279 85.2729 145.267C85.2729 146.254 86.0735 147.055 87.061 147.055Z" fill="#407BFF"/>
<path d="M81.9545 147.055C82.942 147.055 83.7425 146.254 83.7425 145.267C83.7425 144.279 82.942 143.479 81.9545 143.479C80.967 143.479 80.1665 144.279 80.1665 145.267C80.1665 146.254 80.967 147.055 81.9545 147.055Z" fill="#407BFF"/>
<path opacity="0.4" d="M81.9545 147.055C82.942 147.055 83.7425 146.254 83.7425 145.267C83.7425 144.279 82.942 143.479 81.9545 143.479C80.967 143.479 80.1665 144.279 80.1665 145.267C80.1665 146.254 80.967 147.055 81.9545 147.055Z" fill="white"/>
<path d="M76.8425 147.055C77.8299 147.055 78.6304 146.254 78.6304 145.267C78.6304 144.279 77.8299 143.479 76.8425 143.479C75.855 143.479 75.0544 144.279 75.0544 145.267C75.0544 146.254 75.855 147.055 76.8425 147.055Z" fill="#407BFF"/>
<path d="M100.933 164.551C101.92 164.551 102.721 163.75 102.721 162.763C102.721 161.775 101.92 160.975 100.933 160.975C99.945 160.975 99.1445 161.775 99.1445 162.763C99.1445 163.75 99.945 164.551 100.933 164.551Z" fill="#407BFF"/>
<path opacity="0.4" d="M100.933 164.551C101.92 164.551 102.721 163.75 102.721 162.763C102.721 161.775 101.92 160.975 100.933 160.975C99.945 160.975 99.1445 161.775 99.1445 162.763C99.1445 163.75 99.945 164.551 100.933 164.551Z" fill="white"/>
<path d="M95.8207 164.551C96.8082 164.551 97.6087 163.75 97.6087 162.763C97.6087 161.775 96.8082 160.975 95.8207 160.975C94.8332 160.975 94.0327 161.775 94.0327 162.763C94.0327 163.75 94.8332 164.551 95.8207 164.551Z" fill="#407BFF"/>
<path opacity="0.4" d="M95.8207 164.551C96.8082 164.551 97.6087 163.75 97.6087 162.763C97.6087 161.775 96.8082 160.975 95.8207 160.975C94.8332 160.975 94.0327 161.775 94.0327 162.763C94.0327 163.75 94.8332 164.551 95.8207 164.551Z" fill="white"/>
<path d="M90.715 164.551C91.7025 164.551 92.503 163.75 92.503 162.763C92.503 161.775 91.7025 160.975 90.715 160.975C89.7275 160.975 88.927 161.775 88.927 162.763C88.927 163.75 89.7275 164.551 90.715 164.551Z" fill="#407BFF"/>
<path d="M87.3908 162.762C87.3908 163.118 87.2852 163.466 87.0874 163.762C86.8896 164.058 86.6085 164.289 86.2796 164.425C85.9507 164.561 85.5888 164.597 85.2396 164.527C84.8904 164.458 84.5697 164.286 84.318 164.035C84.0663 163.783 83.8948 163.462 83.8254 163.113C83.7559 162.764 83.7916 162.402 83.9278 162.073C84.064 161.744 84.2947 161.463 84.5907 161.265C84.8868 161.067 85.2348 160.962 85.5908 160.962C86.0682 160.962 86.526 161.152 86.8636 161.489C87.2011 161.827 87.3908 162.285 87.3908 162.762Z" fill="#407BFF"/>
<path d="M100.933 182.046C101.92 182.046 102.721 181.245 102.721 180.258C102.721 179.27 101.92 178.47 100.933 178.47C99.945 178.47 99.1445 179.27 99.1445 180.258C99.1445 181.245 99.945 182.046 100.933 182.046Z" fill="#407BFF"/>
<path d="M95.8207 182.046C96.8082 182.046 97.6087 181.245 97.6087 180.258C97.6087 179.27 96.8082 178.47 95.8207 178.47C94.8332 178.47 94.0327 179.27 94.0327 180.258C94.0327 181.245 94.8332 182.046 95.8207 182.046Z" fill="#407BFF"/>
<path opacity="0.4" d="M95.8207 182.046C96.8082 182.046 97.6087 181.245 97.6087 180.258C97.6087 179.27 96.8082 178.47 95.8207 178.47C94.8332 178.47 94.0327 179.27 94.0327 180.258C94.0327 181.245 94.8332 182.046 95.8207 182.046Z" fill="white"/>
<path d="M90.715 182.046C91.7025 182.046 92.503 181.245 92.503 180.258C92.503 179.27 91.7025 178.47 90.715 178.47C89.7275 178.47 88.927 179.27 88.927 180.258C88.927 181.245 89.7275 182.046 90.715 182.046Z" fill="#407BFF"/>
<path d="M87.3908 180.258C87.3908 180.614 87.2852 180.962 87.0874 181.258C86.8896 181.554 86.6085 181.785 86.2796 181.921C85.9507 182.057 85.5888 182.093 85.2396 182.023C84.8904 181.954 84.5697 181.783 84.318 181.531C84.0663 181.279 83.8948 180.958 83.8254 180.609C83.7559 180.26 83.7916 179.898 83.9278 179.569C84.064 179.24 84.2947 178.959 84.5907 178.761C84.8868 178.564 85.2348 178.458 85.5908 178.458C86.0682 178.458 86.526 178.648 86.8636 178.985C87.2011 179.323 87.3908 179.781 87.3908 180.258Z" fill="#407BFF"/>
<path d="M100.933 199.542C101.92 199.542 102.721 198.741 102.721 197.754C102.721 196.766 101.92 195.966 100.933 195.966C99.945 195.966 99.1445 196.766 99.1445 197.754C99.1445 198.741 99.945 199.542 100.933 199.542Z" fill="#407BFF"/>
<path d="M95.8207 199.542C96.8082 199.542 97.6087 198.741 97.6087 197.754C97.6087 196.766 96.8082 195.966 95.8207 195.966C94.8332 195.966 94.0327 196.766 94.0327 197.754C94.0327 198.741 94.8332 199.542 95.8207 199.542Z" fill="#407BFF"/>
<path d="M90.715 199.542C91.7025 199.542 92.503 198.741 92.503 197.754C92.503 196.766 91.7025 195.966 90.715 195.966C89.7275 195.966 88.927 196.766 88.927 197.754C88.927 198.741 89.7275 199.542 90.715 199.542Z" fill="#407BFF"/>
<path opacity="0.4" d="M90.715 199.542C91.7025 199.542 92.503 198.741 92.503 197.754C92.503 196.766 91.7025 195.966 90.715 195.966C89.7275 195.966 88.927 196.766 88.927 197.754C88.927 198.741 89.7275 199.542 90.715 199.542Z" fill="white"/>
<path d="M87.3908 197.754C87.3908 198.11 87.2852 198.458 87.0874 198.754C86.8896 199.05 86.6085 199.281 86.2796 199.417C85.9507 199.553 85.5888 199.589 85.2396 199.52C84.8904 199.45 84.5697 199.279 84.318 199.027C84.0663 198.775 83.8948 198.454 83.8254 198.105C83.7559 197.756 83.7916 197.394 83.9278 197.065C84.064 196.736 84.2947 196.455 84.5907 196.257C84.8868 196.06 85.2348 195.954 85.5908 195.954C86.0682 195.954 86.526 196.144 86.8636 196.481C87.2011 196.819 87.3908 197.277 87.3908 197.754Z" fill="#407BFF"/>
<path opacity="0.4" d="M87.3908 197.754C87.3908 198.11 87.2852 198.458 87.0874 198.754C86.8896 199.05 86.6085 199.281 86.2796 199.417C85.9507 199.553 85.5888 199.589 85.2396 199.52C84.8904 199.45 84.5697 199.279 84.318 199.027C84.0663 198.775 83.8948 198.454 83.8254 198.105C83.7559 197.756 83.7916 197.394 83.9278 197.065C84.064 196.736 84.2947 196.455 84.5907 196.257C84.8868 196.06 85.2348 195.954 85.5908 195.954C86.0682 195.954 86.526 196.144 86.8636 196.481C87.2011 196.819 87.3908 197.277 87.3908 197.754Z" fill="white"/>
<path d="M102.72 215.256C102.72 215.612 102.615 215.96 102.417 216.256C102.219 216.552 101.938 216.783 101.609 216.919C101.28 217.055 100.918 217.091 100.569 217.021C100.22 216.952 99.8991 216.781 99.6473 216.529C99.3956 216.277 99.2242 215.956 99.1547 215.607C99.0853 215.258 99.1209 214.896 99.2571 214.567C99.3934 214.238 99.6241 213.957 99.9201 213.759C100.216 213.562 100.564 213.456 100.92 213.456C101.398 213.456 101.855 213.646 102.193 213.983C102.53 214.321 102.72 214.779 102.72 215.256Z" fill="#407BFF"/>
<path opacity="0.4" d="M102.72 215.256C102.72 215.612 102.615 215.96 102.417 216.256C102.219 216.552 101.938 216.783 101.609 216.919C101.28 217.055 100.918 217.091 100.569 217.021C100.22 216.952 99.8991 216.781 99.6473 216.529C99.3956 216.277 99.2242 215.956 99.1547 215.607C99.0853 215.258 99.1209 214.896 99.2571 214.567C99.3934 214.238 99.6241 213.957 99.9201 213.759C100.216 213.562 100.564 213.456 100.92 213.456C101.398 213.456 101.855 213.646 102.193 213.983C102.53 214.321 102.72 214.779 102.72 215.256Z" fill="white"/>
<path d="M97.6147 215.256C97.6147 215.612 97.5091 215.96 97.3113 216.256C97.1135 216.552 96.8324 216.783 96.5035 216.919C96.1746 217.055 95.8127 217.091 95.4635 217.021C95.1143 216.952 94.7936 216.781 94.5419 216.529C94.2901 216.277 94.1187 215.956 94.0492 215.607C93.9798 215.258 94.0154 214.896 94.1517 214.567C94.2879 214.238 94.5186 213.957 94.8146 213.759C95.1106 213.562 95.4586 213.456 95.8147 213.456C96.292 213.456 96.7499 213.646 97.0874 213.983C97.425 214.321 97.6147 214.779 97.6147 215.256Z" fill="#407BFF"/>
<path d="M92.5028 215.256C92.5028 215.612 92.3973 215.96 92.1995 216.256C92.0017 216.552 91.7206 216.783 91.3917 216.919C91.0628 217.055 90.7008 217.091 90.3517 217.021C90.0025 216.952 89.6818 216.781 89.43 216.529C89.1783 216.277 89.0069 215.956 88.9374 215.607C88.868 215.258 88.9036 214.896 89.0398 214.567C89.1761 214.238 89.4068 213.957 89.7028 213.759C89.9988 213.562 90.3468 213.456 90.7028 213.456C91.1802 213.456 91.6381 213.646 91.9756 213.983C92.3132 214.321 92.5028 214.779 92.5028 215.256Z" fill="#407BFF"/>
<path d="M87.3908 215.256C87.3908 215.612 87.2852 215.96 87.0874 216.256C86.8896 216.552 86.6085 216.783 86.2796 216.919C85.9507 217.055 85.5888 217.091 85.2396 217.021C84.8904 216.952 84.5697 216.781 84.318 216.529C84.0663 216.277 83.8948 215.956 83.8254 215.607C83.7559 215.258 83.7916 214.896 83.9278 214.567C84.064 214.238 84.2947 213.957 84.5907 213.759C84.8868 213.562 85.2348 213.456 85.5908 213.456C86.0682 213.456 86.526 213.646 86.8636 213.983C87.2011 214.321 87.3908 214.779 87.3908 215.256Z" fill="#407BFF"/>
<path d="M100.933 234.54C101.92 234.54 102.721 233.739 102.721 232.752C102.721 231.764 101.92 230.964 100.933 230.964C99.945 230.964 99.1445 231.764 99.1445 232.752C99.1445 233.739 99.945 234.54 100.933 234.54Z" fill="#407BFF"/>
<path d="M95.8207 234.54C96.8082 234.54 97.6087 233.739 97.6087 232.752C97.6087 231.764 96.8082 230.964 95.8207 230.964C94.8332 230.964 94.0327 231.764 94.0327 232.752C94.0327 233.739 94.8332 234.54 95.8207 234.54Z" fill="#407BFF"/>
<path d="M90.715 234.54C91.7025 234.54 92.503 233.739 92.503 232.752C92.503 231.764 91.7025 230.964 90.715 230.964C89.7275 230.964 88.927 231.764 88.927 232.752C88.927 233.739 89.7275 234.54 90.715 234.54Z" fill="#407BFF"/>
<path opacity="0.4" d="M90.715 234.54C91.7025 234.54 92.503 233.739 92.503 232.752C92.503 231.764 91.7025 230.964 90.715 230.964C89.7275 230.964 88.927 231.764 88.927 232.752C88.927 233.739 89.7275 234.54 90.715 234.54Z" fill="white"/>
<path d="M87.3908 232.752C87.3908 233.108 87.2852 233.456 87.0874 233.752C86.8896 234.048 86.6085 234.279 86.2796 234.415C85.9507 234.551 85.5888 234.587 85.2396 234.518C84.8904 234.448 84.5697 234.277 84.318 234.025C84.0663 233.773 83.8948 233.452 83.8254 233.103C83.7559 232.754 83.7916 232.392 83.9278 232.063C84.064 231.734 84.2947 231.453 84.5907 231.256C84.8868 231.058 85.2348 230.952 85.5908 230.952C86.0682 230.952 86.526 231.142 86.8636 231.479C87.2011 231.817 87.3908 232.275 87.3908 232.752Z" fill="#407BFF"/>
<path d="M80.2439 110.274C80.2439 111.041 80.0165 111.791 79.5903 112.428C79.1641 113.066 78.5584 113.563 77.8498 113.856C77.1412 114.149 76.3616 114.226 75.6096 114.076C74.8575 113.925 74.1669 113.556 73.6251 113.013C73.0832 112.47 72.7146 111.779 72.5657 111.027C72.4168 110.275 72.4944 109.495 72.7887 108.787C73.083 108.079 73.5807 107.474 74.2189 107.049C74.8571 106.624 75.6071 106.397 76.3739 106.398C77.4009 106.4 78.3852 106.809 79.1108 107.536C79.8364 108.263 80.2439 109.248 80.2439 110.274Z" fill="#407BFF"/>
<path opacity="0.4" d="M80.2439 110.274C80.2439 111.041 80.0165 111.791 79.5903 112.428C79.1641 113.066 78.5584 113.563 77.8498 113.856C77.1412 114.149 76.3616 114.226 75.6096 114.076C74.8575 113.925 74.1669 113.556 73.6251 113.013C73.0832 112.47 72.7146 111.779 72.5657 111.027C72.4168 110.275 72.4944 109.495 72.7887 108.787C73.083 108.079 73.5807 107.474 74.2189 107.049C74.8571 106.624 75.6071 106.397 76.3739 106.398C77.4009 106.4 78.3852 106.809 79.1108 107.536C79.8364 108.263 80.2439 109.248 80.2439 110.274Z" fill="white"/>
<path d="M80.2439 127.8C80.2439 128.567 80.0165 129.316 79.5903 129.954C79.1641 130.591 78.5584 131.088 77.8498 131.381C77.1412 131.675 76.3616 131.751 75.6096 131.601C74.8575 131.451 74.1669 131.081 73.6251 130.538C73.0832 129.996 72.7146 129.305 72.5657 128.552C72.4168 127.8 72.4944 127.021 72.7887 126.312C73.083 125.604 73.5807 124.999 74.2189 124.574C74.8571 124.149 75.6071 123.923 76.3739 123.924C77.4009 123.925 78.3852 124.334 79.1108 125.061C79.8364 125.788 80.2439 126.773 80.2439 127.8Z" fill="#407BFF"/>
<path opacity="0.4" d="M80.2439 127.8C80.2439 128.567 80.0165 129.316 79.5903 129.954C79.1641 130.591 78.5584 131.088 77.8498 131.381C77.1412 131.675 76.3616 131.751 75.6096 131.601C74.8575 131.451 74.1669 131.081 73.6251 130.538C73.0832 129.996 72.7146 129.305 72.5657 128.552C72.4168 127.8 72.4944 127.021 72.7887 126.312C73.083 125.604 73.5807 124.999 74.2189 124.574C74.8571 124.149 75.6071 123.923 76.3739 123.924C77.4009 123.925 78.3852 124.334 79.1108 125.061C79.8364 125.788 80.2439 126.773 80.2439 127.8Z" fill="white"/>
<path d="M71.4842 145.267C71.4842 146.033 71.2567 146.783 70.8305 147.421C70.4044 148.058 69.7987 148.555 69.0901 148.848C68.3815 149.141 67.6018 149.218 66.8498 149.068C66.0978 148.918 65.4071 148.548 64.8653 148.005C64.3235 147.463 63.9548 146.771 63.8059 146.019C63.657 145.267 63.7347 144.487 64.0289 143.779C64.3232 143.071 64.821 142.466 65.4592 142.041C66.0974 141.616 66.8473 141.389 67.6142 141.391C68.6411 141.392 69.6255 141.801 70.351 142.528C71.0766 143.255 71.4842 144.24 71.4842 145.267Z" fill="#407BFF"/>
<path opacity="0.4" d="M71.4842 145.267C71.4842 146.033 71.2567 146.783 70.8305 147.421C70.4044 148.058 69.7987 148.555 69.0901 148.848C68.3815 149.141 67.6018 149.218 66.8498 149.068C66.0978 148.918 65.4071 148.548 64.8653 148.005C64.3235 147.463 63.9548 146.771 63.8059 146.019C63.657 145.267 63.7347 144.487 64.0289 143.779C64.3232 143.071 64.821 142.466 65.4592 142.041C66.0974 141.616 66.8473 141.389 67.6142 141.391C68.6411 141.392 69.6255 141.801 70.351 142.528C71.0766 143.255 71.4842 144.24 71.4842 145.267Z" fill="white"/>
<path d="M80.2439 162.762C80.2439 163.529 80.0165 164.278 79.5903 164.916C79.1641 165.553 78.5584 166.05 77.8498 166.343C77.1412 166.636 76.3616 166.713 75.6096 166.563C74.8575 166.413 74.1669 166.043 73.6251 165.5C73.0832 164.958 72.7146 164.267 72.5657 163.514C72.4168 162.762 72.4944 161.982 72.7887 161.274C73.083 160.566 73.5807 159.961 74.2189 159.536C74.8571 159.111 75.6071 158.885 76.3739 158.886C77.4009 158.887 78.3852 159.296 79.1108 160.023C79.8364 160.75 80.2439 161.735 80.2439 162.762Z" fill="#407BFF"/>
<path opacity="0.4" d="M80.2439 162.762C80.2439 163.529 80.0165 164.278 79.5903 164.916C79.1641 165.553 78.5584 166.05 77.8498 166.343C77.1412 166.636 76.3616 166.713 75.6096 166.563C74.8575 166.413 74.1669 166.043 73.6251 165.5C73.0832 164.958 72.7146 164.267 72.5657 163.514C72.4168 162.762 72.4944 161.982 72.7887 161.274C73.083 160.566 73.5807 159.961 74.2189 159.536C74.8571 159.111 75.6071 158.885 76.3739 158.886C77.4009 158.887 78.3852 159.296 79.1108 160.023C79.8364 160.75 80.2439 161.735 80.2439 162.762Z" fill="white"/>
<path d="M80.2439 180.258C80.2451 181.025 80.0187 181.775 79.5932 182.413C79.1678 183.052 78.5625 183.549 77.854 183.843C77.1455 184.138 76.3657 184.215 75.6132 184.065C74.8608 183.916 74.1696 183.547 73.6272 183.004C73.0848 182.462 72.7155 181.771 72.5661 181.018C72.4168 180.266 72.494 179.486 72.7881 178.778C73.0822 178.069 73.58 177.464 74.2183 177.038C74.8566 176.613 75.6068 176.387 76.3739 176.388C77.3998 176.389 78.3833 176.798 79.1087 177.523C79.8341 178.248 80.2424 179.232 80.2439 180.258Z" fill="#407BFF"/>
<path opacity="0.4" d="M80.2439 180.258C80.2451 181.025 80.0187 181.775 79.5932 182.413C79.1678 183.052 78.5625 183.549 77.854 183.843C77.1455 184.138 76.3657 184.215 75.6132 184.065C74.8608 183.916 74.1696 183.547 73.6272 183.004C73.0848 182.462 72.7155 181.771 72.5661 181.018C72.4168 180.266 72.494 179.486 72.7881 178.778C73.0822 178.069 73.58 177.464 74.2183 177.038C74.8566 176.613 75.6068 176.387 76.3739 176.388C77.3998 176.389 78.3833 176.798 79.1087 177.523C79.8341 178.248 80.2424 179.232 80.2439 180.258Z" fill="white"/>
<path d="M80.2439 197.754C80.2451 198.521 80.0187 199.271 79.5932 199.909C79.1678 200.548 78.5625 201.045 77.854 201.34C77.1455 201.634 76.3657 201.711 75.6132 201.562C74.8608 201.412 74.1696 201.043 73.6272 200.501C73.0848 199.958 72.7155 199.267 72.5661 198.514C72.4168 197.762 72.494 196.982 72.7881 196.274C73.0822 195.565 73.58 194.96 74.2183 194.535C74.8566 194.109 75.6068 193.883 76.3739 193.884C77.3998 193.885 78.3833 194.294 79.1087 195.019C79.8341 195.744 80.2424 196.728 80.2439 197.754Z" fill="#407BFF"/>
<path opacity="0.4" d="M80.2439 197.754C80.2451 198.521 80.0187 199.271 79.5932 199.909C79.1678 200.548 78.5625 201.045 77.854 201.34C77.1455 201.634 76.3657 201.711 75.6132 201.562C74.8608 201.412 74.1696 201.043 73.6272 200.501C73.0848 199.958 72.7155 199.267 72.5661 198.514C72.4168 197.762 72.494 196.982 72.7881 196.274C73.0822 195.565 73.58 194.96 74.2183 194.535C74.8566 194.109 75.6068 193.883 76.3739 193.884C77.3998 193.885 78.3833 194.294 79.1087 195.019C79.8341 195.744 80.2424 196.728 80.2439 197.754Z" fill="white"/>
<path d="M80.2439 215.256C80.2439 216.023 80.0165 216.772 79.5903 217.41C79.1641 218.047 78.5584 218.544 77.8498 218.837C77.1412 219.131 76.3616 219.207 75.6096 219.057C74.8575 218.907 74.1669 218.537 73.6251 217.995C73.0832 217.452 72.7146 216.761 72.5657 216.008C72.4168 215.256 72.4944 214.477 72.7887 213.768C73.083 213.06 73.5807 212.455 74.2189 212.03C74.8571 211.605 75.6071 211.379 76.3739 211.38C76.8827 211.38 77.3864 211.48 77.8563 211.675C78.3262 211.87 78.7531 212.156 79.1126 212.516C79.472 212.876 79.7569 213.303 79.9511 213.773C80.1452 214.243 80.2447 214.747 80.2439 215.256Z" fill="#407BFF"/>
<path opacity="0.4" d="M80.2439 215.256C80.2439 216.023 80.0165 216.772 79.5903 217.41C79.1641 218.047 78.5584 218.544 77.8498 218.837C77.1412 219.131 76.3616 219.207 75.6096 219.057C74.8575 218.907 74.1669 218.537 73.6251 217.995C73.0832 217.452 72.7146 216.761 72.5657 216.008C72.4168 215.256 72.4944 214.477 72.7887 213.768C73.083 213.06 73.5807 212.455 74.2189 212.03C74.8571 211.605 75.6071 211.379 76.3739 211.38C76.8827 211.38 77.3864 211.48 77.8563 211.675C78.3262 211.87 78.7531 212.156 79.1126 212.516C79.472 212.876 79.7569 213.303 79.9511 213.773C80.1452 214.243 80.2447 214.747 80.2439 215.256Z" fill="white"/>
<path d="M80.2439 232.752C80.2439 233.519 80.0165 234.268 79.5903 234.906C79.1641 235.544 78.5584 236.04 77.8498 236.334C77.1412 236.627 76.3616 236.703 75.6096 236.553C74.8575 236.403 74.1669 236.033 73.6251 235.491C73.0832 234.948 72.7146 234.257 72.5657 233.504C72.4168 232.752 72.4944 231.973 72.7887 231.265C73.083 230.556 73.5807 229.951 74.2189 229.526C74.8571 229.101 75.6071 228.875 76.3739 228.876C76.8827 228.876 77.3864 228.976 77.8563 229.171C78.3262 229.366 78.7531 229.652 79.1126 230.012C79.472 230.372 79.7569 230.799 79.9511 231.269C80.1452 231.739 80.2447 232.243 80.2439 232.752Z" fill="#407BFF"/>
<path opacity="0.4" d="M80.2439 232.752C80.2439 233.519 80.0165 234.268 79.5903 234.906C79.1641 235.544 78.5584 236.04 77.8498 236.334C77.1412 236.627 76.3616 236.703 75.6096 236.553C74.8575 236.403 74.1669 236.033 73.6251 235.491C73.0832 234.948 72.7146 234.257 72.5657 233.504C72.4168 232.752 72.4944 231.973 72.7887 231.265C73.083 230.556 73.5807 229.951 74.2189 229.526C74.8571 229.101 75.6071 228.875 76.3739 228.876C76.8827 228.876 77.3864 228.976 77.8563 229.171C78.3262 229.366 78.7531 229.652 79.1126 230.012C79.472 230.372 79.7569 230.799 79.9511 231.269C80.1452 231.739 80.2447 232.243 80.2439 232.752Z" fill="white"/>
<path d="M133.53 87.2883C133.271 85.8428 132.697 84.4722 131.847 83.2742C130.998 82.0763 129.894 81.0807 128.616 80.3583C128.616 80.2803 128.616 80.2023 128.616 80.1243C128.616 77.4685 127.561 74.9214 125.683 73.0434C123.805 71.1654 121.258 70.1104 118.602 70.1104H114.762V70.8724C113.494 71.4025 112.348 72.1872 111.395 73.1779C110.443 74.1687 109.704 75.3444 109.224 76.6324C108.895 76.5754 108.562 76.5453 108.228 76.5424C107.03 76.5443 105.86 76.9048 104.869 77.5774C103.878 78.25 103.11 79.2039 102.666 80.3164C101.292 79.9835 99.8479 80.0905 98.5379 80.6223C97.2144 81.1372 96.0702 82.0277 95.2462 83.1843C94.4221 84.341 93.9542 85.7132 93.8999 87.1324C93.8791 88.0862 94.0491 89.0346 94.3998 89.9218C94.7505 90.8091 95.2749 91.6174 95.9422 92.2992C96.6095 92.9811 97.4063 93.5228 98.2858 93.8925C99.1653 94.2622 100.11 94.4526 101.064 94.4523H128.19C129.622 94.4669 131.002 93.9164 132.031 92.9201C133.06 91.9238 133.654 90.5622 133.686 89.1304V89.0703C133.689 88.4728 133.637 87.8762 133.53 87.2883Z" fill="#407BFF"/>
<path d="M129.696 87.2885C129.439 85.8445 128.868 84.4749 128.021 83.2771C127.175 82.0793 126.075 81.0828 124.8 80.3585C124.8 80.2805 124.8 80.2025 124.8 80.1245C124.799 77.7769 123.974 75.5044 122.468 73.7037C120.961 71.903 118.871 70.6886 116.56 70.2727C114.25 69.8568 111.867 70.2658 109.827 71.4282C107.788 72.5906 106.222 74.4326 105.402 76.6325C104.052 76.3945 102.662 76.6316 101.468 77.3032C100.273 77.9749 99.3481 79.0397 98.8501 80.3165C97.476 79.9836 96.0321 80.0907 94.7221 80.6225C93.3986 81.1373 92.2544 82.0278 91.4304 83.1844C90.6064 84.3411 90.1384 85.7134 90.0841 87.1325C90.0625 88.086 90.2317 89.0342 90.5818 89.9215C90.9318 90.8087 91.4557 91.617 92.1225 92.299C92.7893 92.9809 93.5857 93.5227 94.4649 93.8925C95.3441 94.2623 96.2883 94.4527 97.2421 94.4524H124.374C125.806 94.4654 127.185 93.9144 128.213 92.9184C129.242 91.9225 129.837 90.5618 129.87 89.1305V89.0705C129.868 88.4723 129.809 87.8758 129.696 87.2885Z" fill="#407BFF"/>
<path opacity="0.3" d="M129.696 87.2885C129.439 85.8445 128.868 84.4749 128.021 83.2771C127.175 82.0793 126.075 81.0828 124.8 80.3585C124.8 80.2805 124.8 80.2025 124.8 80.1245C124.799 77.7769 123.974 75.5044 122.468 73.7037C120.961 71.903 118.871 70.6886 116.56 70.2727C114.25 69.8568 111.867 70.2658 109.827 71.4282C107.788 72.5906 106.222 74.4326 105.402 76.6325C104.052 76.3945 102.662 76.6316 101.468 77.3032C100.273 77.9749 99.3481 79.0397 98.8501 80.3165C97.476 79.9836 96.0321 80.0907 94.7221 80.6225C93.3986 81.1373 92.2544 82.0278 91.4304 83.1844C90.6064 84.3411 90.1384 85.7134 90.0841 87.1325C90.0625 88.086 90.2317 89.0342 90.5818 89.9215C90.9318 90.8087 91.4557 91.617 92.1225 92.299C92.7893 92.9809 93.5857 93.5227 94.4649 93.8925C95.3441 94.2623 96.2883 94.4527 97.2421 94.4524H124.374C125.806 94.4654 127.185 93.9144 128.213 92.9184C129.242 91.9225 129.837 90.5618 129.87 89.1305V89.0705C129.868 88.4723 129.809 87.8758 129.696 87.2885Z" fill="white"/>
<path d="M115.506 63.792H115.002V65.298H115.506V63.792Z" fill="#407BFF"/>
<path opacity="0.2" d="M115.506 63.792H115.002V65.298H115.506V63.792Z" fill="black"/>
<path d="M212.028 98.0041H211.524V95.0041H212.028V98.0041ZM212.028 92.0041H211.524V89.0041H212.028V92.0041ZM212.028 86.0041H211.524V83.0041H212.028V86.0041ZM212.028 80.0041H211.524V77.0041H212.028V80.0041ZM212.028 74.0041H211.524V71.0041H212.028V74.0041ZM212.028 68.0041H211.524V65.0041H212.028V68.0041ZM212.028 62.0041H211.524V59.0041H212.028V62.0041ZM115.506 60.7561H115.002V58.7341C115.002 58.4133 115.02 58.0928 115.056 57.7741L115.554 57.8341C115.523 58.1331 115.507 58.4335 115.506 58.7341V60.7561ZM211.086 56.1481C210.763 55.2345 210.268 54.3912 209.628 53.6641L210 53.4001C210.685 54.1757 211.215 55.0761 211.56 56.0521L211.086 56.1481ZM116.43 55.0861L115.992 54.8461C116.485 53.9289 117.149 53.1143 117.948 52.4461L118.272 52.8361C117.518 53.4595 116.892 54.2237 116.43 55.0861ZM207.342 51.9421C206.487 51.5055 205.556 51.2386 204.6 51.1561L204.642 50.6521C205.672 50.7396 206.677 51.0248 207.6 51.4921L207.342 51.9421ZM120.798 51.4801L120.648 51.0061C121.445 50.7517 122.277 50.6222 123.114 50.6221H123.684V51.1261H123.114C122.328 51.1255 121.547 51.2449 120.798 51.4801ZM201.6 51.1261H198.6V50.6221H201.6V51.1261ZM195.6 51.1261H192.6V50.6221H195.6V51.1261ZM189.6 51.1261H186.6V50.6221H189.6V51.1261ZM183.6 51.1261H180.6V50.6221H183.6V51.1261ZM177.6 51.1261H174.6V50.6221H177.6V51.1261ZM171.6 51.1261H168.6V50.6221H171.6V51.1261ZM165.6 51.1261H162.6V50.6221H165.6V51.1261ZM159.6 51.1261H156.6V50.6221H159.6V51.1261ZM153.6 51.1261H150.6V50.6221H153.6V51.1261ZM147.6 51.1261H144.6V50.6221H147.6V51.1261ZM141.6 51.1261H138.6V50.6221H141.6V51.1261ZM135.6 51.1261H132.6V50.6221H135.6V51.1261ZM129.6 51.1261H126.6V50.6221H129.6V51.1261Z" fill="#407BFF"/>
<path opacity="0.2" d="M212.028 98.0041H211.524V95.0041H212.028V98.0041ZM212.028 92.0041H211.524V89.0041H212.028V92.0041ZM212.028 86.0041H211.524V83.0041H212.028V86.0041ZM212.028 80.0041H211.524V77.0041H212.028V80.0041ZM212.028 74.0041H211.524V71.0041H212.028V74.0041ZM212.028 68.0041H211.524V65.0041H212.028V68.0041ZM212.028 62.0041H211.524V59.0041H212.028V62.0041ZM115.506 60.7561H115.002V58.7341C115.002 58.4133 115.02 58.0928 115.056 57.7741L115.554 57.8341C115.523 58.1331 115.507 58.4335 115.506 58.7341V60.7561ZM211.086 56.1481C210.763 55.2345 210.268 54.3912 209.628 53.6641L210 53.4001C210.685 54.1757 211.215 55.0761 211.56 56.0521L211.086 56.1481ZM116.43 55.0861L115.992 54.8461C116.485 53.9289 117.149 53.1143 117.948 52.4461L118.272 52.8361C117.518 53.4595 116.892 54.2237 116.43 55.0861ZM207.342 51.9421C206.487 51.5055 205.556 51.2386 204.6 51.1561L204.642 50.6521C205.672 50.7396 206.677 51.0248 207.6 51.4921L207.342 51.9421ZM120.798 51.4801L120.648 51.0061C121.445 50.7517 122.277 50.6222 123.114 50.6221H123.684V51.1261H123.114C122.328 51.1255 121.547 51.2449 120.798 51.4801ZM201.6 51.1261H198.6V50.6221H201.6V51.1261ZM195.6 51.1261H192.6V50.6221H195.6V51.1261ZM189.6 51.1261H186.6V50.6221H189.6V51.1261ZM183.6 51.1261H180.6V50.6221H183.6V51.1261ZM177.6 51.1261H174.6V50.6221H177.6V51.1261ZM171.6 51.1261H168.6V50.6221H171.6V51.1261ZM165.6 51.1261H162.6V50.6221H165.6V51.1261ZM159.6 51.1261H156.6V50.6221H159.6V51.1261ZM153.6 51.1261H150.6V50.6221H153.6V51.1261ZM147.6 51.1261H144.6V50.6221H147.6V51.1261ZM141.6 51.1261H138.6V50.6221H141.6V51.1261ZM135.6 51.1261H132.6V50.6221H135.6V51.1261ZM129.6 51.1261H126.6V50.6221H129.6V51.1261Z" fill="black"/>
<path d="M212.028 101.016H211.524V102.522H212.028V101.016Z" fill="#407BFF"/>
<path opacity="0.2" d="M212.028 101.016H211.524V102.522H212.028V101.016Z" fill="black"/>
<path d="M171.72 245.784H176.13L176.604 235.578H172.194L171.72 245.784Z" fill="#E4897B"/>
<path d="M176.28 245.274H171.48C171.393 245.274 171.308 245.305 171.241 245.361C171.174 245.417 171.129 245.495 171.114 245.58L170.4 249.498C170.383 249.594 170.388 249.693 170.413 249.787C170.439 249.881 170.485 249.968 170.547 250.043C170.61 250.117 170.689 250.177 170.777 250.217C170.866 250.258 170.962 250.279 171.06 250.278C172.794 250.248 175.302 250.146 177.486 250.146C180.036 250.146 180.396 250.29 183.384 250.29C185.184 250.29 185.634 248.49 184.872 248.292C181.392 247.536 180.426 247.458 177.378 245.622C177.052 245.404 176.671 245.284 176.28 245.274Z" fill="#263238"/>
<path d="M176.598 235.584L176.358 240.84H171.948L172.194 235.584H176.598Z" fill="#CE6F64"/>
<path d="M201.264 99.0721C201.18 100.458 201.084 101.976 201.042 103.428C201 104.88 200.97 106.356 200.988 107.802C201.006 109.248 201.06 110.688 201.186 112.068C201.283 113.37 201.494 114.661 201.816 115.926C201.939 116.408 202.114 116.874 202.338 117.318C202.404 117.452 202.48 117.58 202.566 117.702L202.836 118.14C203.01 118.428 203.22 118.74 203.436 119.016C204.222 120.186 205.092 121.35 205.992 122.52C207.792 124.83 209.754 127.164 211.68 129.45L209.382 132.132C206.725 130.406 204.221 128.452 201.9 126.294C200.71 125.195 199.58 124.031 198.516 122.808C198.246 122.49 197.97 122.208 197.718 121.848L197.328 121.344C197.176 121.154 197.038 120.954 196.914 120.744C196.347 119.879 195.888 118.948 195.546 117.972C194.979 116.31 194.577 114.595 194.346 112.854C194.1 111.204 193.992 109.578 193.908 107.97C193.824 106.362 193.83 104.76 193.908 103.17C193.986 101.58 194.034 100.026 194.214 98.3701L201.264 99.0721Z" fill="#E4897B"/>
<path d="M202.8 108.108L200.928 108.858L197.778 110.112L192.186 112.35C192.186 112.35 189.636 99.084 190.986 95.052C192.498 90.624 197.838 90.726 200.724 95.772C203.58 100.692 202.8 108.108 202.8 108.108Z" fill="#407BFF"/>
<path opacity="0.6" d="M202.8 108.108L200.928 108.858L197.778 110.112L192.186 112.35C192.186 112.35 189.636 99.084 190.986 95.052C192.498 90.624 197.838 90.726 200.724 95.772C203.58 100.692 202.8 108.108 202.8 108.108Z" fill="white"/>
<path d="M200.675 108.967L197.801 110.113C197.321 108.031 196.877 104.545 198.299 101.935C200.243 103.561 200.543 106.843 200.675 108.967Z" fill="#407BFF"/>
<path opacity="0.4" d="M200.675 108.967L197.801 110.113C197.321 108.031 196.877 104.545 198.299 101.935C200.243 103.561 200.543 106.843 200.675 108.967Z" fill="white"/>
<path d="M197.82 127.398H173.694C173.52 125.232 174.066 119.364 173.694 111.372C173.61 109.53 173.478 107.58 173.28 105.534C172.84 100.886 172.074 96.2747 170.988 91.734C173.642 91.2173 176.328 90.8765 179.028 90.714C182.445 90.5159 185.871 90.5159 189.288 90.714C191.651 90.9533 193.99 91.3827 196.284 91.998C196.284 91.998 201.966 102.036 197.82 127.398Z" fill="#407BFF"/>
<path opacity="0.6" d="M197.82 127.398H173.694C173.52 125.232 174.066 119.364 173.694 111.372C173.61 109.53 173.478 107.58 173.28 105.534C172.84 100.886 172.074 96.2747 170.988 91.734C173.642 91.2173 176.328 90.8765 179.028 90.714C182.445 90.5159 185.871 90.5159 189.288 90.714C191.651 90.9533 193.99 91.3827 196.284 91.998C196.284 91.998 201.966 102.036 197.82 127.398Z" fill="white"/>
<path d="M173.706 111.373C173.622 109.531 173.49 107.581 173.292 105.535C174.072 105.049 175.092 105.019 175.302 107.875C175.494 110.515 174.6 111.247 173.706 111.373Z" fill="#407BFF"/>
<path opacity="0.4" d="M173.706 111.373C173.622 109.531 173.49 107.581 173.292 105.535C174.072 105.049 175.092 105.019 175.302 107.875C175.494 110.515 174.6 111.247 173.706 111.373Z" fill="white"/>
<path d="M218.502 132.667L215.022 134.833L210.726 133.915L214.146 129.673L218.502 132.667Z" fill="#E4897B"/>
<path d="M210.126 129L214.146 129.648L210.726 133.89C210.726 133.89 208.578 133.674 207.996 130.77L210.126 129Z" fill="#E4897B"/>
<path d="M179.646 79.1641C180.408 82.4641 181.272 88.5121 179.046 90.7141C179.046 90.7141 180.168 92.9281 186.3 92.9281C191.898 92.9281 189.3 90.7141 189.3 90.7141C185.586 89.8321 185.586 87.1141 186.132 84.5401L179.646 79.1641Z" fill="#E4897B"/>
<path d="M182.292 81.3604L186.132 84.5403C185.994 85.1315 185.91 85.734 185.88 86.3403C184.71 87.4803 182.478 84.5943 182.28 83.1243C182.179 82.5403 182.183 81.943 182.292 81.3604Z" fill="#CE6F64"/>
<path d="M192.744 70.8006C194.28 72.7086 192.486 78.7206 189.306 78.6006C186.126 78.4806 189.828 67.1526 192.744 70.8006Z" fill="#263238"/>
<path d="M180.3 73.6801C179.952 78.1321 179.526 80.7061 181.446 83.3581C182.063 84.2266 182.903 84.9118 183.878 85.341C184.853 85.7702 185.926 85.9272 186.983 85.7956C188.041 85.6639 189.042 85.2484 189.882 84.5931C190.722 83.9379 191.369 83.0674 191.754 82.0741C193.26 78.2881 193.554 71.6521 189.48 69.1441C188.615 68.5734 187.617 68.2391 186.583 68.1746C185.549 68.1101 184.516 68.3176 183.588 68.7765C182.659 69.2353 181.867 69.9295 181.29 70.7899C180.713 71.6503 180.372 72.6468 180.3 73.6801Z" fill="#E4897B"/>
<path d="M178.692 68.082L183.492 69.786C181.386 72.6 184.446 79.236 180.726 77.994C179.022 77.43 173.466 71.286 178.692 68.082Z" fill="#263238"/>
<path d="M181.02 69.2344C182.82 70.5664 190.206 72.1504 194.424 69.7984C193.556 69.5692 192.713 69.2516 191.91 68.8504C191.91 68.8504 195.066 68.7004 196.464 66.3664C194.502 66.6988 192.486 66.4442 190.668 65.6344C191.366 65.4283 192.013 65.0783 192.568 64.6072C193.123 64.136 193.573 63.5539 193.89 62.8984C188.064 62.9704 175.518 64.1524 177.69 68.2504C179.862 72.3484 181.02 69.2344 181.02 69.2344Z" fill="#263238"/>
<path d="M178.5 68.6941C177.616 68.2729 176.813 67.698 176.13 66.9961C175.854 67.6861 175.854 69.5521 178.5 68.6941Z" fill="#263238"/>
<path d="M177.6 78.1807C178.074 79.2304 178.933 80.0576 180 80.4907C181.398 81.0607 182.22 79.8907 181.932 78.4747C181.674 77.2207 180.636 75.4147 179.184 75.4387C177.732 75.4627 177.06 76.9027 177.6 78.1807Z" fill="#E4897B"/>
<path d="M185.25 245.784H189.654L190.566 235.578H186.162L185.25 245.784Z" fill="#E4897B"/>
<path d="M189.858 245.274H185.058C184.97 245.273 184.885 245.303 184.818 245.36C184.751 245.416 184.706 245.494 184.692 245.58L183.96 249.498C183.943 249.594 183.948 249.693 183.973 249.787C183.999 249.881 184.045 249.968 184.108 250.043C184.17 250.117 184.249 250.177 184.337 250.217C184.426 250.258 184.522 250.279 184.62 250.278C186.36 250.248 188.862 250.146 191.046 250.146C193.596 250.146 195.81 250.29 198.798 250.29C200.598 250.29 201.048 248.49 200.28 248.292C196.806 247.536 193.986 247.458 190.944 245.622C190.621 245.407 190.245 245.287 189.858 245.274Z" fill="#263238"/>
<path d="M190.566 235.584L190.098 240.84H185.688L186.156 235.584H190.566Z" fill="#CE6F64"/>
<path d="M191.7 245.952C191.997 246.025 192.311 245.993 192.588 245.862C192.678 245.807 192.752 245.73 192.803 245.637C192.853 245.544 192.878 245.44 192.876 245.334C192.883 245.272 192.873 245.21 192.848 245.153C192.823 245.096 192.782 245.047 192.732 245.01C192.27 244.68 190.716 245.334 190.536 245.412C190.518 245.421 190.503 245.435 190.492 245.452C190.481 245.469 190.476 245.488 190.476 245.508C190.478 245.53 190.485 245.551 190.498 245.569C190.511 245.587 190.528 245.601 190.548 245.61C190.918 245.765 191.305 245.879 191.7 245.952ZM192.48 245.136C192.527 245.141 192.572 245.158 192.612 245.184C192.642 245.184 192.666 245.232 192.666 245.316C192.667 245.388 192.65 245.458 192.616 245.521C192.583 245.584 192.534 245.638 192.474 245.676C191.938 245.826 191.365 245.766 190.872 245.508C191.378 245.28 191.924 245.154 192.48 245.136Z" fill="#407BFF"/>
<path d="M190.572 245.616H190.626C191.118 245.436 192.132 244.602 192.102 244.092C192.096 244.011 192.062 243.934 192.006 243.875C191.951 243.815 191.877 243.775 191.796 243.762C191.718 243.739 191.636 243.732 191.555 243.744C191.474 243.755 191.397 243.784 191.328 243.828C190.728 244.17 190.488 245.436 190.482 245.49C190.479 245.519 190.486 245.549 190.502 245.573C190.519 245.598 190.544 245.615 190.572 245.622V245.616ZM191.694 243.948H191.742C191.88 243.99 191.886 244.05 191.886 244.08C191.886 244.38 191.244 245.028 190.74 245.28C190.836 244.781 191.081 244.323 191.442 243.966C191.522 243.932 191.611 243.926 191.694 243.948Z" fill="#407BFF"/>
<path d="M184.026 239.58H191.226C191.226 239.58 202.272 197.388 202.062 183.078C201.852 169.314 197.862 127.398 197.862 127.398H181.962C181.962 127.398 183.192 136.722 184.596 148.224C185.85 158.376 187.23 170.238 188.022 178.878C188.25 181.446 188.436 183.726 188.544 185.598C189.366 199.65 184.026 239.58 184.026 239.58Z" fill="#407BFF"/>
<path opacity="0.3" d="M184.026 239.58H191.226C191.226 239.58 202.272 197.388 202.062 183.078C201.852 169.314 197.862 127.398 197.862 127.398H181.962C181.962 127.398 183.192 136.722 184.596 148.224C185.85 158.376 187.23 170.238 188.022 178.878C188.25 181.446 188.436 183.726 188.544 185.598C189.366 199.65 184.026 239.58 184.026 239.58Z" fill="black"/>
<path d="M184.596 148.201C185.85 158.353 187.23 170.215 188.022 178.855C189.696 171.313 193.782 149.389 187.65 138.301C186.114 140.515 185.178 144.301 184.596 148.201Z" fill="#407BFF"/>
<path opacity="0.4" d="M184.596 148.201C185.85 158.353 187.23 170.215 188.022 178.855C189.696 171.313 193.782 149.389 187.65 138.301C186.114 140.515 185.178 144.301 184.596 148.201Z" fill="black"/>
<path d="M189.264 127.398C189.264 127.398 188.664 167.82 186.318 180.732C183.75 194.874 178.638 239.58 178.638 239.58H170.4C170.4 239.58 171.6 196.014 172.86 182.016C174.216 166.818 173.718 127.416 173.718 127.416L189.264 127.398Z" fill="#407BFF"/>
<path opacity="0.3" d="M189.264 127.398C189.264 127.398 188.664 167.82 186.318 180.732C183.75 194.874 178.638 239.58 178.638 239.58H170.4C170.4 239.58 171.6 196.014 172.86 182.016C174.216 166.818 173.718 127.416 173.718 127.416L189.264 127.398Z" fill="black"/>
<path d="M170.064 239.76H178.962L179.616 236.4L169.758 236.124L170.064 239.76Z" fill="#263238"/>
<path d="M183.618 239.76H192.516L193.176 236.4L183.348 236.574L183.618 239.76Z" fill="#263238"/>
<path d="M173.532 234.702C173.522 234.702 173.512 234.699 173.503 234.694C173.495 234.689 173.487 234.683 173.48 234.675C173.474 234.667 173.47 234.658 173.467 234.648C173.465 234.638 173.464 234.628 173.466 234.618C173.52 234.198 174.138 195.102 175.266 182.526C176.466 168.876 175.722 132.66 175.746 132.354C175.749 132.335 175.759 132.317 175.775 132.305C175.791 132.292 175.81 132.287 175.83 132.288C175.85 132.291 175.869 132.301 175.882 132.317C175.895 132.332 175.902 132.352 175.902 132.372C175.902 132.678 176.64 168.894 175.416 182.544C174.294 195.144 173.676 234.222 173.616 234.642C173.612 234.661 173.601 234.677 173.585 234.688C173.57 234.699 173.551 234.704 173.532 234.702Z" fill="#407BFF"/>
<path opacity="0.3" d="M173.532 234.702C173.522 234.702 173.512 234.699 173.503 234.694C173.495 234.689 173.487 234.683 173.48 234.675C173.474 234.667 173.47 234.658 173.467 234.648C173.465 234.638 173.464 234.628 173.466 234.618C173.52 234.198 174.138 195.102 175.266 182.526C176.466 168.876 175.722 132.66 175.746 132.354C175.749 132.335 175.759 132.317 175.775 132.305C175.791 132.292 175.81 132.287 175.83 132.288C175.85 132.291 175.869 132.301 175.882 132.317C175.895 132.332 175.902 132.352 175.902 132.372C175.902 132.678 176.64 168.894 175.416 182.544C174.294 195.144 173.676 234.222 173.616 234.642C173.612 234.661 173.601 234.677 173.585 234.688C173.57 234.699 173.551 234.704 173.532 234.702Z" fill="white"/>
<path d="M186.846 76.1286C186.792 76.4826 186.942 76.8066 187.182 76.8486C187.422 76.8906 187.65 76.6326 187.698 76.2486C187.746 75.8646 187.596 75.5646 187.362 75.5226C187.128 75.4806 186.894 75.7686 186.846 76.1286Z" fill="#263238"/>
<path d="M191.004 76.6267C190.956 76.9867 191.106 77.3047 191.34 77.3467C191.574 77.3887 191.808 77.1307 191.856 76.7467C191.904 76.3627 191.754 76.0627 191.52 76.0207C191.286 75.9787 191.052 76.2667 191.004 76.6267Z" fill="#263238"/>
<path d="M189.6 76.752C189.88 77.9265 190.316 79.0585 190.896 80.118C190.618 80.2464 190.316 80.3129 190.011 80.3129C189.705 80.3129 189.403 80.2464 189.126 80.118L189.6 76.752Z" fill="#DE5753"/>
<path d="M188.4 81.6007C188.414 81.6033 188.428 81.6029 188.442 81.5997C188.455 81.5965 188.468 81.5905 188.479 81.582C188.491 81.5736 188.5 81.5628 188.507 81.5506C188.514 81.5383 188.518 81.5247 188.52 81.5107C188.522 81.4823 188.513 81.4543 188.495 81.4321C188.477 81.4099 188.452 81.3951 188.424 81.3907C187.967 81.3395 187.529 81.1841 187.142 80.9365C186.755 80.6889 186.43 80.3558 186.192 79.9627C186.186 79.9496 186.178 79.9378 186.167 79.9281C186.157 79.9185 186.144 79.9111 186.13 79.9066C186.117 79.9021 186.103 79.9005 186.088 79.9019C186.074 79.9033 186.06 79.9076 186.048 79.9147C186.035 79.9205 186.024 79.9287 186.015 79.9388C186.006 79.9489 185.999 79.9607 185.995 79.9736C185.99 79.9865 185.988 80.0001 185.989 80.0137C185.99 80.0273 185.994 80.0405 186 80.0527C186.252 80.4794 186.6 80.8414 187.017 81.1101C187.434 81.3788 187.907 81.5468 188.4 81.6007Z" fill="#263238"/>
<path d="M185.748 73.536C185.779 73.545 185.813 73.5464 185.845 73.5402C185.877 73.5339 185.908 73.5202 185.934 73.5C186.138 73.3294 186.381 73.2103 186.641 73.1529C186.901 73.0954 187.171 73.1013 187.428 73.17C187.454 73.1794 187.482 73.1835 187.51 73.1819C187.538 73.1803 187.565 73.1732 187.591 73.1609C187.616 73.1486 187.638 73.1314 187.657 73.1103C187.675 73.0892 187.689 73.0646 187.698 73.038C187.713 72.9823 187.707 72.9229 187.68 72.8716C187.653 72.8204 187.608 72.7812 187.554 72.762C187.23 72.6718 186.889 72.6612 186.559 72.7312C186.23 72.8012 185.923 72.9497 185.664 73.164C185.641 73.181 185.622 73.2024 185.608 73.2271C185.594 73.2518 185.585 73.2792 185.583 73.3074C185.58 73.3356 185.583 73.3641 185.592 73.3911C185.6 73.4181 185.615 73.4429 185.634 73.464C185.664 73.4987 185.704 73.5237 185.748 73.536Z" fill="#263238"/>
<path d="M174.552 90.9186L175.686 90.8166C175.742 90.8146 175.796 90.8312 175.841 90.8639C175.885 90.8965 175.918 90.9433 175.932 90.9966C179.712 108.019 178.578 126.091 178.578 126.091H177.324C177.587 114.388 176.593 102.691 174.36 91.2006C174.348 91.1693 174.343 91.1353 174.346 91.1016C174.35 91.068 174.361 91.0357 174.38 91.0077C174.399 90.9798 174.425 90.957 174.455 90.9414C174.485 90.9258 174.519 90.918 174.552 90.9186Z" fill="#407BFF"/>
<path opacity="0.1" d="M174.552 90.9186L175.686 90.8166C175.742 90.8146 175.796 90.8312 175.841 90.8639C175.885 90.8965 175.918 90.9433 175.932 90.9966C179.712 108.019 178.578 126.091 178.578 126.091H177.324C177.587 114.388 176.593 102.691 174.36 91.2006C174.348 91.1693 174.343 91.1353 174.346 91.1016C174.35 91.068 174.361 91.0357 174.38 91.0077C174.399 90.9798 174.425 90.957 174.455 90.9414C174.485 90.9258 174.519 90.918 174.552 90.9186Z" fill="white"/>
<path d="M177.558 126.493H178.428C178.481 126.493 178.533 126.484 178.582 126.464C178.631 126.444 178.675 126.414 178.712 126.376C178.749 126.339 178.778 126.294 178.797 126.245C178.816 126.196 178.825 126.143 178.824 126.091C178.818 125.981 178.77 125.878 178.691 125.803C178.612 125.727 178.507 125.684 178.398 125.683H177.534C177.481 125.683 177.428 125.693 177.38 125.714C177.331 125.735 177.286 125.765 177.25 125.803C177.213 125.841 177.184 125.886 177.165 125.935C177.145 125.985 177.136 126.038 177.138 126.091C177.144 126.198 177.191 126.3 177.269 126.374C177.347 126.449 177.45 126.491 177.558 126.493Z" fill="#263238"/>
<path d="M178.566 127.555L178.524 126.415C178.518 126.273 178.457 126.138 178.354 126.04C178.251 125.941 178.115 125.887 177.972 125.887C177.903 125.886 177.835 125.899 177.772 125.925C177.708 125.952 177.651 125.991 177.603 126.041C177.555 126.09 177.518 126.149 177.494 126.213C177.47 126.277 177.459 126.346 177.462 126.415L177.504 127.555C177.51 127.696 177.57 127.829 177.672 127.928C177.774 128.026 177.909 128.081 178.05 128.083C178.119 128.083 178.187 128.069 178.251 128.042C178.314 128.016 178.371 127.977 178.419 127.927C178.467 127.878 178.505 127.82 178.53 127.756C178.556 127.692 178.568 127.624 178.566 127.555Z" fill="#263238"/>
<path d="M192.882 74.4665C192.913 74.4755 192.947 74.4755 192.978 74.4665C193.005 74.459 193.03 74.4461 193.052 74.4286C193.073 74.411 193.091 74.3892 193.104 74.3644C193.117 74.3397 193.125 74.3125 193.127 74.2847C193.129 74.2568 193.125 74.2289 193.116 74.2025C193.022 73.8713 192.851 73.5669 192.617 73.3137C192.384 73.0604 192.094 72.8655 191.772 72.7445C191.746 72.7363 191.718 72.7336 191.69 72.7365C191.663 72.7393 191.636 72.7478 191.612 72.7612C191.588 72.7747 191.567 72.7929 191.55 72.8148C191.533 72.8367 191.521 72.8618 191.514 72.8885C191.499 72.9442 191.506 73.0035 191.534 73.0539C191.562 73.1043 191.609 73.1418 191.664 73.1585C191.917 73.2581 192.144 73.415 192.326 73.617C192.508 73.819 192.641 74.0605 192.714 74.3225C192.725 74.3601 192.747 74.3937 192.777 74.4193C192.807 74.4448 192.843 74.4612 192.882 74.4665Z" fill="#263238"/>
<path d="M173.718 98.8565C173.028 101.683 172.332 104.623 171.72 107.485C171.42 108.919 171.12 110.347 170.91 111.751C170.683 113.049 170.557 114.363 170.532 115.681C170.612 118.112 171.468 120.454 172.974 122.365C173.785 123.437 174.706 124.42 175.722 125.299C176.238 125.761 176.778 126.205 177.342 126.619C177.624 126.823 177.912 127.027 178.2 127.219C178.488 127.411 178.8 127.621 179.034 127.765L177.726 131.047C177.246 130.903 176.886 130.777 176.478 130.627C176.07 130.477 175.71 130.315 175.326 130.147C174.57 129.805 173.826 129.427 173.094 129.007C171.613 128.138 170.243 127.092 169.014 125.893C167.719 124.624 166.633 123.158 165.798 121.549C164.936 119.861 164.388 118.032 164.178 116.149C164.022 114.42 164.022 112.681 164.178 110.953C164.316 109.333 164.514 107.749 164.778 106.183C165.285 103.079 165.966 100.006 166.818 96.9785L173.718 98.8565Z" fill="#E4897B"/>
<path d="M171 91.7345C166.23 92.5865 163.53 105.336 163.53 105.336L175.326 109.536C175.873 106.326 175.873 103.045 175.326 99.8345C174.474 94.4225 175.53 90.9245 171 91.7345Z" fill="#407BFF"/>
<path opacity="0.6" d="M171 91.7345C166.23 92.5865 163.53 105.336 163.53 105.336L175.326 109.536C175.873 106.326 175.873 103.045 175.326 99.8345C174.474 94.4225 175.53 90.9245 171 91.7345Z" fill="white"/>
<path d="M193.655 91.1467L194.789 91.3567C194.836 91.3651 194.88 91.3881 194.913 91.4226C194.947 91.4571 194.968 91.5012 194.975 91.5487C197.975 108.577 195.989 126.091 195.989 126.091H194.729C195.929 107.557 193.775 93.5887 193.403 91.3927C193.396 91.3584 193.398 91.3229 193.409 91.2895C193.419 91.2561 193.437 91.2258 193.462 91.2013C193.488 91.1769 193.518 91.1591 193.552 91.1496C193.586 91.14 193.621 91.139 193.655 91.1467Z" fill="#407BFF"/>
<path opacity="0.1" d="M193.655 91.1467L194.789 91.3567C194.836 91.3651 194.88 91.3881 194.913 91.4226C194.947 91.4571 194.968 91.5012 194.975 91.5487C197.975 108.577 195.989 126.091 195.989 126.091H194.729C195.929 107.557 193.775 93.5887 193.403 91.3927C193.396 91.3584 193.398 91.3229 193.409 91.2895C193.419 91.2561 193.437 91.2258 193.462 91.2013C193.488 91.1769 193.518 91.1591 193.552 91.1496C193.586 91.14 193.621 91.139 193.655 91.1467Z" fill="white"/>
<path d="M194.952 126.493H195.822C195.93 126.493 196.032 126.45 196.109 126.375C196.185 126.3 196.229 126.198 196.23 126.091C196.23 125.983 196.188 125.881 196.113 125.804C196.038 125.728 195.936 125.684 195.828 125.683H194.958C194.851 125.684 194.748 125.728 194.672 125.804C194.595 125.88 194.552 125.983 194.55 126.091C194.55 126.144 194.559 126.196 194.579 126.245C194.599 126.295 194.629 126.339 194.666 126.377C194.704 126.414 194.748 126.444 194.798 126.464C194.847 126.484 194.899 126.493 194.952 126.493Z" fill="#263238"/>
<path d="M195.906 127.555V126.415C195.907 126.345 195.894 126.276 195.868 126.212C195.841 126.147 195.803 126.089 195.753 126.04C195.704 125.99 195.646 125.952 195.581 125.925C195.517 125.899 195.448 125.886 195.378 125.887C195.238 125.887 195.103 125.942 195.003 126.041C194.903 126.14 194.846 126.274 194.844 126.415V127.555C194.843 127.624 194.856 127.692 194.882 127.756C194.908 127.82 194.946 127.879 194.995 127.928C195.044 127.977 195.101 128.016 195.165 128.042C195.229 128.069 195.297 128.083 195.366 128.083C195.507 128.081 195.642 128.026 195.742 127.927C195.843 127.829 195.902 127.695 195.906 127.555Z" fill="#263238"/>
<path d="M178.122 245.952C178.422 246.025 178.737 245.993 179.016 245.862C179.106 245.808 179.18 245.73 179.231 245.637C179.282 245.544 179.307 245.44 179.304 245.334C179.311 245.272 179.302 245.21 179.276 245.153C179.251 245.096 179.211 245.047 179.16 245.01C178.698 244.68 177.138 245.334 176.964 245.412C176.945 245.42 176.929 245.433 176.918 245.451C176.908 245.468 176.903 245.488 176.904 245.508C176.905 245.53 176.912 245.55 176.923 245.568C176.935 245.586 176.951 245.601 176.97 245.61C177.341 245.764 177.727 245.878 178.122 245.952ZM178.902 245.136C178.951 245.141 178.999 245.158 179.04 245.184C179.06 245.2 179.075 245.22 179.083 245.243C179.092 245.267 179.093 245.292 179.088 245.316C179.09 245.388 179.074 245.459 179.04 245.522C179.007 245.585 178.957 245.639 178.896 245.676C178.362 245.826 177.791 245.766 177.3 245.508C177.804 245.28 178.349 245.154 178.902 245.136Z" fill="#407BFF"/>
<path d="M177.001 245.616H177.055C177.553 245.436 178.567 244.602 178.531 244.092C178.524 244.011 178.49 243.934 178.434 243.875C178.379 243.815 178.305 243.775 178.225 243.762C178.146 243.739 178.064 243.732 177.983 243.744C177.902 243.755 177.825 243.784 177.757 243.828C177.187 244.17 176.923 245.436 176.911 245.49C176.907 245.509 176.909 245.528 176.915 245.546C176.921 245.564 176.932 245.58 176.947 245.592C176.962 245.605 176.981 245.613 177.001 245.616ZM178.129 243.948H178.177C178.309 243.99 178.315 244.05 178.315 244.08C178.315 244.38 177.679 245.028 177.175 245.28C177.266 244.781 177.509 244.322 177.871 243.966C177.95 243.933 178.039 243.927 178.123 243.948H178.129Z" fill="#407BFF"/>
<path d="M175.47 130.2L176.85 127.692L180.636 127.824L183.582 129.024L185.586 131.976L180.438 131.664C180.438 131.664 177.282 132.558 175.47 130.2Z" fill="#E4897B"/>
<path d="M185.922 92.9221L185.016 92.2861L183.21 94.0861L185.922 92.9221Z" fill="#407BFF"/>
<path opacity="0.4" d="M185.922 92.9221L185.016 92.2861L183.21 94.0861L185.922 92.9221Z" fill="white"/>
<path d="M185.016 92.2867C185.016 92.2867 183.546 94.4527 183.3 96.0187C181.422 95.2507 177.858 93.3307 177.3 90.6187C177.966 90.4058 178.6 90.103 179.184 89.7188C179.184 89.7188 181.098 91.3027 185.016 92.2867Z" fill="#407BFF"/>
<path opacity="0.2" d="M185.016 92.2867C185.016 92.2867 183.546 94.4527 183.3 96.0187C181.422 95.2507 177.858 93.3307 177.3 90.6187C177.966 90.4058 178.6 90.103 179.184 89.7188C179.184 89.7188 181.098 91.3027 185.016 92.2867Z" fill="white"/>
<path d="M185.922 92.9226L186.258 92.1846L188.748 94.0866L185.922 92.9226Z" fill="#407BFF"/>
<path opacity="0.4" d="M185.922 92.9226L186.258 92.1846L188.748 94.0866L185.922 92.9226Z" fill="white"/>
<path d="M186.258 92.1844C187.247 93.1033 187.915 94.3143 188.166 95.6404C189.966 94.8724 190.62 92.3644 190.08 90.7024C189.368 90.3842 188.624 90.1429 187.86 89.9824C187.91 90.4821 187.774 90.9826 187.479 91.3886C187.183 91.7947 186.749 92.0779 186.258 92.1844Z" fill="#407BFF"/>
<path opacity="0.2" d="M186.258 92.1844C187.247 93.1033 187.915 94.3143 188.166 95.6404C189.966 94.8724 190.62 92.3644 190.08 90.7024C189.368 90.3842 188.624 90.1429 187.86 89.9824C187.91 90.4821 187.774 90.9826 187.479 91.3886C187.183 91.7947 186.749 92.0779 186.258 92.1844Z" fill="white"/>
<path d="M229.469 110.065L191.687 108.727L186.221 130.813L224.003 132.151L229.469 110.065Z" fill="#407BFF"/>
<path opacity="0.1" d="M229.469 110.065L191.687 108.727L186.221 130.813L224.003 132.151L229.469 110.065Z" fill="white"/>
<path d="M230.628 110.101L192.852 108.769L187.385 130.855L225.167 132.193L230.628 110.101Z" fill="#263238"/>
<path d="M225.168 132.192L225.012 133.416L187.23 132.078L187.386 130.854L225.168 132.192Z" fill="#263238"/>
<path d="M187.386 130.854L187.23 132.078L172.404 131.556L172.554 130.332L187.386 130.854Z" fill="#407BFF"/>
<path opacity="0.1" d="M187.386 130.854L187.23 132.078L172.404 131.556L172.554 130.332L187.386 130.854Z" fill="white"/>
</svg>
