<svg width="300" height="300" viewBox="0 0 300 300" fill="none" xmlns="http://www.w3.org/2000/svg">
<path d="M150.001 256.536C214.25 256.536 266.335 253.495 266.335 249.744C266.335 245.993 214.25 242.952 150.001 242.952C85.751 242.952 33.6665 245.993 33.6665 249.744C33.6665 253.495 85.751 256.536 150.001 256.536Z" fill="#F5F5F5"/>
<path d="M144.354 143.634H90.3064C88.6139 143.601 86.9924 142.948 85.7493 141.799C84.5063 140.65 83.7281 139.085 83.5624 137.4L80.8564 104.172C80.7778 103.376 80.868 102.573 81.1212 101.815C81.3744 101.056 81.7849 100.36 82.3257 99.7705C82.8665 99.1815 83.5256 98.7134 84.2598 98.3966C84.994 98.0798 85.7868 97.9215 86.5864 97.9321H140.628C142.322 97.9653 143.944 98.6191 145.187 99.7694C146.43 100.92 147.208 102.486 147.372 104.172L150.078 137.4C150.157 138.195 150.067 138.998 149.814 139.755C149.561 140.513 149.151 141.209 148.611 141.798C148.071 142.386 147.412 142.854 146.679 143.17C145.945 143.487 145.153 143.645 144.354 143.634Z" fill="white"/>
<path d="M144.354 143.892H90.3059C88.5444 143.861 86.8561 143.182 85.5642 141.984C84.2723 140.786 83.4675 139.154 83.3039 137.4L80.5979 104.166C80.5167 103.334 80.6121 102.494 80.8779 101.701C81.1437 100.909 81.5738 100.181 82.1402 99.5658C82.7065 98.9507 83.3963 98.4621 84.1645 98.132C84.9327 97.8019 85.7619 97.6377 86.5979 97.6501H140.64C142.399 97.6804 144.084 98.3572 145.376 99.5513C146.667 100.745 147.474 102.373 147.642 104.124L150.336 137.4C150.417 138.232 150.322 139.072 150.056 139.865C149.79 140.658 149.36 141.385 148.794 142C148.227 142.615 147.537 143.104 146.769 143.434C146.001 143.764 145.172 143.928 144.336 143.916L144.354 143.892ZM86.5859 98.1901C85.8218 98.1759 85.0634 98.324 84.3608 98.6247C83.6582 98.9254 83.0274 99.3718 82.5102 99.9344C81.993 100.497 81.601 101.163 81.3603 101.888C81.1196 102.614 81.0356 103.382 81.1139 104.142L83.8199 137.4C83.9758 139.022 84.723 140.53 85.9191 141.636C87.1153 142.743 88.6767 143.371 90.3059 143.4H144.354C145.122 143.414 145.884 143.264 146.59 142.96C147.295 142.656 147.928 142.205 148.445 141.638C148.963 141.07 149.353 140.398 149.59 139.667C149.827 138.936 149.905 138.164 149.82 137.4L147.114 104.166C146.958 102.544 146.211 101.036 145.015 99.9297C143.818 98.8232 142.257 98.1954 140.628 98.1661L86.5859 98.1901Z" fill="#407BFF"/>
<path d="M129.684 133.932C127.539 136.247 124.786 137.91 121.74 138.732L120.846 136.2C127.5 134.4 132.006 128.172 131.406 120.798C131.019 116.476 129.026 112.455 125.82 109.53L127.542 107.652C135.342 114.846 136.308 126.714 129.684 133.932Z" fill="#E0E0E0"/>
<path d="M127.542 107.633L125.82 109.511C122.661 106.546 118.501 104.879 114.168 104.843C112.128 104.819 110.105 105.222 108.231 106.027C106.356 106.832 104.671 108.021 103.284 109.517L101.25 107.633C102.872 105.893 104.84 104.509 107.027 103.571C109.214 102.633 111.572 102.161 113.952 102.185C119.005 102.234 123.855 104.179 127.542 107.633Z" fill="#263238"/>
<path d="M121.739 138.744C115.469 140.454 108.461 138.618 103.391 133.944C95.5913 126.744 94.6253 114.858 101.249 107.646L103.283 109.53C101.909 111.042 100.866 112.826 100.22 114.765C99.5743 116.704 99.3404 118.757 99.5333 120.792C100.247 129.594 107.963 136.728 116.765 136.728C118.143 136.73 119.515 136.551 120.845 136.194L121.739 138.744Z" fill="#407BFF"/>
<path d="M70.7338 44.2139H66.4019V44.7359H70.7338V44.2139Z" fill="#407BFF"/>
<path d="M62.1958 44.2139H52.3318V44.7359H62.1958V44.2139Z" fill="#407BFF"/>
<path d="M108.085 91.9741H54.0425C52.3496 91.9424 50.7274 91.2899 49.4841 90.1406C48.2407 88.9912 47.463 87.4252 47.2985 85.7401L44.5925 52.5061C44.5138 51.7106 44.6041 50.9075 44.8573 50.1493C45.1106 49.3911 45.5211 48.6949 46.062 48.1064C46.603 47.5179 47.2621 47.0503 47.9963 46.7342C48.7305 46.4181 49.5232 46.2606 50.3225 46.2721H104.365C106.057 46.3051 107.678 46.958 108.922 48.1071C110.165 49.2561 110.943 50.8214 111.108 52.5061L113.815 85.7401C113.893 86.5355 113.803 87.3387 113.55 88.0969C113.296 88.8551 112.886 89.5512 112.345 90.1397C111.804 90.7282 111.145 91.1959 110.411 91.512C109.676 91.8281 108.884 91.9856 108.085 91.9741Z" fill="white"/>
<path d="M108.084 92.2383H54.042C52.2833 92.208 50.5974 91.5312 49.3059 90.3371C48.0144 89.143 47.2078 87.5152 47.04 85.7643L44.334 52.5303C44.2528 51.6982 44.3482 50.8583 44.614 50.0655C44.8798 49.2728 45.3099 48.5451 45.8762 47.93C46.4426 47.315 47.1324 46.8264 47.9006 46.4963C48.6688 46.1662 49.498 46.0019 50.334 46.0143H104.376C106.135 46.0446 107.821 46.7214 109.112 47.9155C110.404 49.1096 111.21 50.7374 111.378 52.4883L114.084 85.7223C114.165 86.5545 114.07 87.3944 113.804 88.1871C113.538 88.9798 113.108 89.7075 112.542 90.3226C111.975 90.9377 111.286 91.4262 110.517 91.7564C109.749 92.0865 108.92 92.2507 108.084 92.2383ZM50.322 46.5303C49.5573 46.516 48.7983 46.6643 48.0953 46.9654C47.3922 47.2664 46.7612 47.7134 46.2438 48.2767C45.7265 48.8399 45.3347 49.5067 45.0944 50.2327C44.8541 50.9588 44.7708 51.7276 44.85 52.4883L47.556 85.7223C47.7119 87.3443 48.4591 88.8522 49.6552 89.9587C50.8514 91.0652 52.4128 91.693 54.042 91.7223H108.084C108.848 91.7365 109.606 91.5884 110.309 91.2877C111.012 90.987 111.642 90.5406 112.16 89.978C112.677 89.4154 113.069 88.7494 113.31 88.024C113.55 87.2987 113.634 86.5305 113.556 85.7703L110.85 52.5363C110.693 50.9148 109.945 49.4077 108.749 48.3014C107.553 47.1952 105.993 46.567 104.364 46.5363L50.322 46.5303Z" fill="#407BFF"/>
<path d="M49.4816 55.8055H78.1196L77.8856 52.9795H49.2476L49.4816 55.8055Z" fill="#E0E0E0"/>
<path d="M106.758 55.8055H78.1202L77.8862 52.9795H106.53L106.758 55.8055Z" fill="#407BFF"/>
<path d="M50.0814 63.1738H58.2474L58.0194 60.3418H49.8474L50.0814 63.1738Z" fill="#E0E0E0"/>
<path d="M107.358 63.1738H58.2483L58.0203 60.3418H107.13L107.358 63.1738Z" fill="#407BFF"/>
<path d="M50.6822 70.536H76.1702L75.9422 67.71H50.4482L50.6822 70.536Z" fill="#E0E0E0"/>
<path d="M107.958 70.536H76.1704L75.9424 67.71H107.73L107.958 70.536Z" fill="#407BFF"/>
<path d="M51.2819 77.9041H94.7878L94.5538 75.0781H51.0479L51.2819 77.9041Z" fill="#E0E0E0"/>
<path d="M108.558 77.9041H94.7884L94.5544 75.0781H108.324L108.558 77.9041Z" fill="#407BFF"/>
<path d="M51.8757 85.2715H71.9997L71.7717 82.4395H51.6477L51.8757 85.2715Z" fill="#E0E0E0"/>
<path d="M109.158 85.2715H72L71.772 82.4395H108.924L109.158 85.2715Z" fill="#407BFF"/>
<path d="M181.968 91.9738H127.926C126.237 91.9377 124.619 91.2833 123.379 90.1344C122.14 88.9855 121.364 87.4219 121.2 85.7398L118.494 52.5058C118.416 51.7123 118.506 50.9113 118.757 50.1548C119.009 49.3983 119.418 48.7033 119.956 48.1152C120.494 47.527 121.15 47.0589 121.882 46.7413C122.613 46.4237 123.403 46.2637 124.2 46.2718H178.248C179.941 46.3048 181.562 46.9577 182.805 48.1068C184.048 49.2558 184.827 50.8211 184.992 52.5058L187.698 85.7398C187.777 86.5353 187.687 87.3384 187.434 88.0966C187.18 88.8548 186.77 89.5509 186.229 90.1394C185.688 90.7279 185.029 91.1956 184.294 91.5117C183.56 91.8278 182.768 91.9853 181.968 91.9738Z" fill="white"/>
<path d="M181.968 92.2383H127.926C126.169 92.2004 124.487 91.5212 123.196 90.3287C121.905 89.1362 121.095 87.5128 120.918 85.7643L118.2 52.5303C118.119 51.6982 118.214 50.8583 118.48 50.0655C118.746 49.2728 119.176 48.5451 119.742 47.93C120.309 47.315 120.998 46.8264 121.767 46.4963C122.535 46.1662 123.364 46.0019 124.2 46.0143H178.248C180.007 46.0446 181.693 46.7214 182.984 47.9155C184.275 49.1096 185.082 50.7374 185.25 52.4883L187.956 85.7223C188.037 86.5545 187.942 87.3944 187.676 88.1871C187.41 88.9798 186.98 89.7075 186.414 90.3226C185.847 90.9377 185.157 91.4262 184.389 91.7564C183.621 92.0865 182.792 92.2507 181.956 92.2383H181.968ZM124.2 46.5303C123.436 46.5169 122.677 46.6658 121.975 46.9672C121.273 47.2687 120.642 47.7158 120.126 48.2789C119.609 48.8421 119.218 49.5086 118.978 50.2342C118.738 50.9598 118.655 51.7281 118.734 52.4883L121.44 85.7223C121.596 87.3443 122.343 88.8522 123.539 89.9587C124.735 91.0652 126.297 91.693 127.926 91.7223H181.968C182.732 91.7365 183.49 91.5884 184.193 91.2877C184.896 90.987 185.526 90.5406 186.044 89.978C186.561 89.4154 186.953 88.7494 187.193 88.024C187.434 87.2987 187.518 86.5305 187.44 85.7703L184.734 52.5363C184.577 50.9148 183.829 49.4077 182.633 48.3014C181.437 47.1952 179.877 46.567 178.248 46.5363L124.2 46.5303Z" fill="#407BFF"/>
<path d="M154.878 85.2715H153.924L151.296 52.9795H152.25L154.878 85.2715Z" fill="#E0E0E0"/>
<path d="M156.318 71.8503H150.3L149.268 59.2383H155.292L156.318 71.8503Z" fill="#407BFF"/>
<path d="M143.029 85.2715H142.075L139.447 52.9795H140.401L143.029 85.2715Z" fill="#E0E0E0"/>
<path d="M144.702 74.6518H138.678L137.778 63.5938H143.796L144.702 74.6518Z" fill="#407BFF"/>
<path d="M131.183 85.2715H130.229L127.601 52.9795H128.555L131.183 85.2715Z" fill="#E0E0E0"/>
<path d="M132.114 65.5558H126.096L125.478 57.9658H131.496L132.114 65.5558Z" fill="#263238"/>
<path d="M166.722 85.2715H165.768L163.14 52.9795H164.094L166.722 85.2715Z" fill="#E0E0E0"/>
<path d="M168.744 79.0143H162.726L161.118 59.2383H167.136L168.744 79.0143Z" fill="#263238"/>
<path d="M178.572 85.2715H177.612L174.984 52.9795H175.938L178.572 85.2715Z" fill="#E0E0E0"/>
<path d="M180.786 81.384H174.768L173.478 65.5439H179.496L180.786 81.384Z" fill="#407BFF"/>
<path d="M124.134 194.862H70.0858C68.3937 194.827 66.7729 194.174 65.5301 193.025C64.2873 191.876 63.5088 190.312 63.3418 188.628L60.6418 155.4C60.5632 154.605 60.6533 153.802 60.9062 153.044C61.1591 152.286 61.5691 151.591 62.1093 151.002C62.6496 150.414 63.308 149.946 64.0415 149.629C64.775 149.313 65.567 149.155 66.3658 149.166H120.414C122.106 149.2 123.727 149.853 124.969 151.002C126.212 152.151 126.991 153.715 127.158 155.4L129.864 188.634C129.941 189.428 129.849 190.23 129.595 190.987C129.341 191.745 128.93 192.44 128.39 193.027C127.849 193.615 127.191 194.082 126.457 194.398C125.724 194.714 124.932 194.872 124.134 194.862Z" fill="white"/>
<path d="M124.135 195.119H70.0866C68.3284 195.088 66.6432 194.411 65.3519 193.217C64.0607 192.023 63.2537 190.396 63.0846 188.645L60.3786 155.399C60.2975 154.567 60.3929 153.727 60.6587 152.935C60.9244 152.142 61.3546 151.414 61.9209 150.799C62.4873 150.184 63.1771 149.696 63.9453 149.365C64.7134 149.035 65.5426 148.871 66.3786 148.883H120.427C122.189 148.919 123.877 149.604 125.167 150.806C126.456 152.008 127.258 153.644 127.417 155.399L130.123 188.627C130.204 189.46 130.108 190.3 129.843 191.092C129.577 191.885 129.147 192.613 128.58 193.228C128.014 193.843 127.324 194.331 126.556 194.662C125.788 194.992 124.959 195.156 124.123 195.143L124.135 195.119ZM66.3666 149.399C65.5985 149.385 64.8363 149.535 64.1307 149.839C63.4252 150.143 62.7926 150.594 62.2752 151.162C61.7579 151.73 61.3676 152.402 61.1306 153.132C60.8935 153.863 60.8152 154.636 60.9006 155.399L63.6006 188.603C63.7564 190.224 64.5028 191.732 65.6977 192.838C66.8925 193.944 68.4525 194.573 70.0806 194.603H124.129C124.893 194.617 125.651 194.468 126.353 194.167C127.056 193.865 127.686 193.418 128.203 192.855C128.719 192.292 129.111 191.625 129.351 190.9C129.591 190.174 129.674 189.406 129.595 188.645L126.901 155.399C126.743 153.778 125.996 152.271 124.8 151.165C123.604 150.058 122.043 149.43 120.415 149.399H66.3666Z" fill="#407BFF"/>
<path d="M73.6793 171.215L85.3253 184.673L98.6873 164.069L106.943 174.719L108.959 171.611L122.465 187.793L70.6013 187.775L73.6793 171.215Z" fill="#407BFF"/>
<path d="M112.566 172.056L107.154 183.648L89.8859 156.228L81.7559 173.64L79.1459 169.506L70.6079 187.794L122.46 187.764L112.566 172.056Z" fill="#E0E0E0"/>
<path d="M223.728 95.4359C225.174 98.1479 226.416 100.836 227.586 103.62C228.758 106.435 229.76 109.318 230.586 112.254C230.796 112.998 230.976 113.766 231.15 114.534C231.284 115.066 231.365 115.611 231.39 116.16C231.41 116.706 231.38 117.252 231.3 117.792C230.983 119.537 230.375 121.217 229.5 122.76C227.987 125.499 226.099 128.014 223.89 130.23C223.606 130.523 223.226 130.703 222.819 130.739C222.413 130.775 222.007 130.663 221.677 130.424C221.346 130.185 221.112 129.835 221.018 129.438C220.925 129.041 220.977 128.624 221.166 128.262L221.208 128.184C222.535 125.74 223.69 123.205 224.664 120.6C225.075 119.502 225.324 118.35 225.402 117.18C225.404 116.989 225.388 116.798 225.354 116.61C225.345 116.55 225.329 116.492 225.306 116.436L225.192 116.082C224.994 115.434 224.79 114.786 224.55 114.138C223.638 111.534 222.516 108.918 221.346 106.338C220.176 103.758 218.946 101.124 217.698 98.6219V98.5679C217.285 97.7651 217.209 96.8315 217.485 95.9724C217.762 95.1133 218.368 94.3991 219.171 93.9869C219.973 93.5748 220.907 93.4984 221.766 93.7747C222.625 94.0509 223.339 94.6571 223.752 95.4599L223.728 95.4359Z" fill="#407BFF"/>
<path d="M221.85 127.926L219 128.832L222.372 132.774C223.189 132.005 223.796 131.041 224.136 129.972C224.21 129.698 224.198 129.407 224.101 129.14C224.005 128.873 223.828 128.642 223.596 128.478L223.116 128.13C222.936 127.999 222.727 127.912 222.507 127.876C222.287 127.841 222.062 127.858 221.85 127.926Z" fill="#7F3E3B"/>
<path d="M215.041 131.262L218.653 134.13L222.361 132.774L218.989 128.832L215.041 131.262Z" fill="#7F3E3B"/>
<path d="M202.71 75.3664C202.638 75.7204 202.392 75.9664 202.158 75.9244C201.924 75.8824 201.798 75.5524 201.87 75.1984C201.942 74.8444 202.188 74.5984 202.422 74.6404C202.656 74.6824 202.8 75.0004 202.71 75.3664Z" fill="#263238"/>
<path d="M202.422 75.9785C201.778 76.9772 201.001 77.8835 200.112 78.6725C200.319 78.895 200.573 79.0695 200.855 79.1835C201.137 79.2975 201.44 79.3484 201.744 79.3325L202.422 75.9785Z" fill="#630F0F"/>
<path d="M204.408 73.6624C204.449 73.6615 204.489 73.6487 204.523 73.6257C204.558 73.6026 204.585 73.5702 204.601 73.5323C204.617 73.4945 204.623 73.4527 204.616 73.4119C204.61 73.3712 204.591 73.3332 204.564 73.3024C204.342 73.0502 204.062 72.8549 203.749 72.7328C203.436 72.6107 203.098 72.5653 202.764 72.6004C202.732 72.6005 202.701 72.6075 202.673 72.6208C202.645 72.6342 202.62 72.6535 202.599 72.6775C202.579 72.7016 202.565 72.7297 202.556 72.76C202.548 72.7903 202.547 72.822 202.552 72.8529C202.557 72.8838 202.569 72.9132 202.587 72.939C202.605 72.9648 202.628 72.9865 202.655 73.0024C202.682 73.0184 202.712 73.0282 202.743 73.0313C202.775 73.0344 202.806 73.0307 202.836 73.0204C203.103 73 203.372 73.0438 203.62 73.1481C203.867 73.2525 204.086 73.4144 204.258 73.6204C204.301 73.6531 204.354 73.6681 204.408 73.6624Z" fill="#263238"/>
<path d="M212.568 81.8281C211.926 85.1161 211.536 89.6641 213.834 91.8601C213.834 91.8601 212.934 95.1901 206.832 95.1901C200.118 95.1901 203.604 92.2681 203.604 92.2681C206.394 91.3981 206.37 88.2241 205.728 85.6681L212.568 81.8281Z" fill="#7F3E3B"/>
<path d="M202.422 91.7516C202.422 91.7516 203.406 89.4356 204.402 89.0336C205.398 88.6316 211.77 87.5876 213.234 88.5116C214.698 89.4356 215.694 92.3996 215.694 92.3996L202.422 91.7516Z" fill="#407BFF"/>
<path d="M209.154 245.401C208.554 245.401 208.02 245.323 207.834 245.059C207.786 244.991 207.76 244.91 207.76 244.828C207.76 244.745 207.786 244.664 207.834 244.597C207.871 244.534 207.92 244.479 207.979 244.437C208.038 244.394 208.105 244.365 208.176 244.351C208.92 244.147 210.492 245.041 210.576 245.077C210.595 245.087 210.609 245.104 210.618 245.123C210.626 245.142 210.629 245.164 210.624 245.185C210.622 245.207 210.613 245.227 210.597 245.244C210.582 245.26 210.562 245.271 210.54 245.275C210.083 245.356 209.619 245.398 209.154 245.401ZM208.44 244.531C208.373 244.521 208.304 244.521 208.236 244.531C208.192 244.538 208.15 244.555 208.114 244.581C208.078 244.607 208.048 244.641 208.026 244.681C207.954 244.813 207.978 244.873 208.026 244.915C208.236 245.203 209.37 245.209 210.204 245.095C209.659 244.79 209.06 244.594 208.44 244.519V244.531Z" fill="#407BFF"/>
<path d="M210.51 245.262H210.468C209.922 245.016 208.848 244.062 208.932 243.54C208.932 243.42 209.034 243.27 209.328 243.24C209.435 243.227 209.544 243.237 209.647 243.268C209.75 243.298 209.846 243.35 209.928 243.42C210.528 243.894 210.624 245.1 210.63 245.154C210.63 245.172 210.625 245.191 210.617 245.207C210.609 245.224 210.597 245.238 210.582 245.25C210.56 245.263 210.535 245.267 210.51 245.262ZM209.412 243.462H209.352C209.16 243.462 209.148 243.558 209.142 243.582C209.094 243.888 209.82 244.65 210.378 244.986C210.324 244.474 210.114 243.99 209.778 243.6C209.677 243.501 209.541 243.446 209.4 243.444L209.412 243.462Z" fill="#407BFF"/>
<path d="M215.448 245.154H210.96L210.51 234.756H214.998L215.448 245.154Z" fill="#7F3E3B"/>
<path d="M210.984 244.638H215.892C215.981 244.638 216.067 244.668 216.137 244.724C216.207 244.78 216.255 244.857 216.276 244.944L217.158 248.934C217.181 249.03 217.181 249.13 217.159 249.226C217.138 249.323 217.094 249.413 217.032 249.49C216.97 249.567 216.892 249.629 216.802 249.671C216.712 249.713 216.615 249.733 216.516 249.732C214.746 249.702 212.19 249.6 209.964 249.6C207.366 249.6 207.048 249.744 204 249.744C202.158 249.744 201.648 247.878 202.416 247.71C205.932 246.942 206.868 246.858 209.904 244.986C210.224 244.772 210.598 244.651 210.984 244.638Z" fill="#263238"/>
<path d="M221.874 91.8723C226.074 92.8383 228.858 104.196 228.858 104.196L221.832 109.476C219.214 107.604 217.357 104.852 216.6 101.724C215.172 96.0963 217.572 90.8883 221.874 91.8723Z" fill="#263238"/>
<path opacity="0.2" d="M218.268 99.7744C220.554 102.036 222.03 105.606 222.21 109.188L221.838 109.476C219.225 107.602 217.372 104.851 216.618 101.724C216.534 101.388 216.456 101.052 216.396 100.722L218.268 99.7744Z" fill="black"/>
<path d="M237.006 108.794L202.907 122.419L213.039 147.776L247.138 134.151L237.006 108.794Z" fill="#407BFF"/>
<path opacity="0.5" d="M236.511 108.991L202.913 122.415L213.045 147.772L246.642 134.347L236.511 108.991Z" fill="white"/>
<g opacity="0.5">
<path opacity="0.5" d="M209.063 122.557L205.881 123.828L206.783 126.085L209.964 124.813L209.063 122.557Z" fill="#407BFF"/>
<path opacity="0.5" d="M214.317 120.459L211.135 121.73L212.037 123.987L215.219 122.716L214.317 120.459Z" fill="#407BFF"/>
<path opacity="0.5" d="M219.567 118.361L216.386 119.632L217.288 121.888L220.469 120.617L219.567 118.361Z" fill="#407BFF"/>
<path opacity="0.5" d="M224.821 116.26L221.639 117.531L222.541 119.788L225.722 118.517L224.821 116.26Z" fill="#407BFF"/>
<path opacity="0.5" d="M230.068 114.162L226.887 115.434L227.789 117.69L230.97 116.419L230.068 114.162Z" fill="#407BFF"/>
<path opacity="0.5" d="M235.323 112.071L232.142 113.342L233.043 115.598L236.225 114.327L235.323 112.071Z" fill="#407BFF"/>
<path opacity="0.5" d="M210.555 126.282L207.374 127.553L208.275 129.809L211.457 128.538L210.555 126.282Z" fill="#407BFF"/>
<path opacity="0.5" d="M215.803 124.183L212.621 125.454L213.523 127.711L216.704 126.439L215.803 124.183Z" fill="#407BFF"/>
<path opacity="0.5" d="M221.051 122.085L217.87 123.356L218.772 125.613L221.953 124.342L221.051 122.085Z" fill="#407BFF"/>
<path opacity="0.5" d="M226.311 119.985L223.13 121.256L224.032 123.512L227.213 122.241L226.311 119.985Z" fill="#407BFF"/>
<path opacity="0.5" d="M231.562 117.886L228.38 119.157L229.282 121.414L232.463 120.143L231.562 117.886Z" fill="#407BFF"/>
<path opacity="0.5" d="M236.809 115.788L233.628 117.06L234.529 119.316L237.711 118.045L236.809 115.788Z" fill="#407BFF"/>
<path opacity="0.5" d="M212.039 129.999L208.857 131.271L209.759 133.527L212.94 132.256L212.039 129.999Z" fill="#407BFF"/>
<path opacity="0.5" d="M217.287 127.902L214.106 129.173L215.008 131.429L218.189 130.158L217.287 127.902Z" fill="#407BFF"/>
<path opacity="0.5" d="M222.544 125.809L219.362 127.08L220.264 129.337L223.445 128.065L222.544 125.809Z" fill="#407BFF"/>
<path opacity="0.5" d="M227.797 123.708L224.615 124.979L225.517 127.236L228.699 125.965L227.797 123.708Z" fill="#407BFF"/>
<path opacity="0.5" d="M233.045 121.611L229.864 122.882L230.766 125.138L233.947 123.867L233.045 121.611Z" fill="#407BFF"/>
<path opacity="0.5" d="M238.3 119.513L235.118 120.784L236.02 123.041L239.201 121.77L238.3 119.513Z" fill="#407BFF"/>
<path opacity="0.5" d="M213.532 133.73L210.35 135.001L211.252 137.258L214.433 135.986L213.532 133.73Z" fill="#407BFF"/>
<path opacity="0.5" d="M218.779 131.631L215.597 132.902L216.499 135.159L219.681 133.888L218.779 131.631Z" fill="#407BFF"/>
<path opacity="0.5" d="M224.027 129.528L220.846 130.799L221.748 133.055L224.929 131.784L224.027 129.528Z" fill="#407BFF"/>
<path opacity="0.5" d="M229.287 127.427L226.106 128.698L227.008 130.955L230.189 129.684L229.287 127.427Z" fill="#407BFF"/>
<path opacity="0.5" d="M234.535 125.329L231.354 126.601L232.255 128.857L235.437 127.586L234.535 125.329Z" fill="#407BFF"/>
<path opacity="0.5" d="M239.785 123.237L236.604 124.508L237.506 126.764L240.687 125.493L239.785 123.237Z" fill="#407BFF"/>
<path opacity="0.5" d="M215.015 137.448L211.834 138.719L212.735 140.975L215.917 139.704L215.015 137.448Z" fill="#407BFF"/>
<path opacity="0.5" d="M220.264 135.35L217.082 136.621L217.984 138.878L221.165 137.606L220.264 135.35Z" fill="#407BFF"/>
<path opacity="0.5" d="M225.518 133.251L222.336 134.522L223.238 136.779L226.42 135.508L225.518 133.251Z" fill="#407BFF"/>
<path opacity="0.5" d="M230.767 131.159L227.586 132.431L228.488 134.687L231.669 133.416L230.767 131.159Z" fill="#407BFF"/>
<path opacity="0.5" d="M236.022 129.059L232.84 130.33L233.742 132.587L236.923 131.315L236.022 129.059Z" fill="#407BFF"/>
<path opacity="0.5" d="M241.276 126.954L238.094 128.226L238.996 130.482L242.178 129.211L241.276 126.954Z" fill="#407BFF"/>
<path opacity="0.5" d="M216.508 141.172L213.326 142.443L214.228 144.7L217.409 143.429L216.508 141.172Z" fill="#407BFF"/>
<path opacity="0.5" d="M221.756 139.074L218.575 140.345L219.476 142.601L222.658 141.33L221.756 139.074Z" fill="#407BFF"/>
<path opacity="0.5" d="M227.004 136.976L223.822 138.247L224.724 140.504L227.905 139.232L227.004 136.976Z" fill="#407BFF"/>
<path opacity="0.5" d="M232.252 134.877L229.071 136.148L229.972 138.405L233.154 137.134L232.252 134.877Z" fill="#407BFF"/>
<path opacity="0.5" d="M237.511 132.771L234.33 134.042L235.231 136.299L238.413 135.027L237.511 132.771Z" fill="#407BFF"/>
<path opacity="0.5" d="M242.76 130.679L239.578 131.95L240.48 134.207L243.661 132.936L242.76 130.679Z" fill="#407BFF"/>
</g>
<path d="M234.186 116.82C234.105 116.588 234.116 116.333 234.217 116.109C234.319 115.885 234.503 115.708 234.732 115.617C234.96 115.526 235.215 115.526 235.444 115.618C235.672 115.711 235.855 115.887 235.956 116.112C236.009 116.229 236.037 116.356 236.04 116.485C236.042 116.613 236.019 116.741 235.971 116.86C235.922 116.98 235.851 117.088 235.759 117.179C235.668 117.269 235.56 117.341 235.44 117.389C235.321 117.436 235.193 117.459 235.065 117.457C234.936 117.454 234.809 117.425 234.692 117.372C234.575 117.319 234.47 117.242 234.383 117.148C234.296 117.053 234.229 116.941 234.186 116.82Z" fill="white"/>
<path d="M233.4 130.086C233.332 129.911 233.317 129.721 233.356 129.538C233.396 129.355 233.489 129.188 233.624 129.058C233.759 128.928 233.929 128.841 234.113 128.807C234.297 128.774 234.487 128.796 234.659 128.87C234.831 128.944 234.976 129.067 235.078 129.224C235.18 129.381 235.233 129.565 235.231 129.752C235.228 129.939 235.17 130.122 235.065 130.276C234.959 130.43 234.81 130.55 234.636 130.62C234.52 130.666 234.396 130.69 234.27 130.688C234.145 130.686 234.022 130.66 233.907 130.61C233.792 130.561 233.688 130.489 233.601 130.399C233.514 130.309 233.446 130.202 233.4 130.086Z" fill="white"/>
<path d="M221.4 130.56C221.33 130.385 221.314 130.193 221.353 130.008C221.393 129.823 221.486 129.655 221.621 129.523C221.757 129.391 221.928 129.303 222.114 129.269C222.3 129.235 222.491 129.256 222.665 129.331C222.838 129.406 222.985 129.531 223.088 129.689C223.19 129.848 223.243 130.033 223.24 130.222C223.237 130.411 223.178 130.595 223.071 130.75C222.963 130.905 222.812 131.025 222.636 131.094C222.52 131.141 222.396 131.164 222.271 131.163C222.145 131.161 222.022 131.135 221.907 131.085C221.792 131.035 221.688 130.963 221.601 130.873C221.514 130.783 221.446 130.677 221.4 130.56Z" fill="white"/>
<path d="M213.876 142.2C213.805 142.025 213.788 141.833 213.826 141.648C213.864 141.463 213.957 141.293 214.092 141.161C214.227 141.029 214.398 140.939 214.583 140.904C214.769 140.869 214.961 140.89 215.135 140.964C215.309 141.039 215.457 141.163 215.56 141.321C215.663 141.48 215.716 141.665 215.714 141.854C215.712 142.043 215.653 142.227 215.546 142.383C215.439 142.538 215.288 142.659 215.112 142.728C214.878 142.821 214.617 142.818 214.385 142.719C214.154 142.62 213.971 142.434 213.876 142.2Z" fill="white"/>
<path d="M214.764 142.2C214.695 142.202 214.628 142.181 214.572 142.14C214.533 142.116 214.499 142.084 214.472 142.046C214.445 142.008 214.426 141.965 214.416 141.92C214.406 141.875 214.405 141.828 214.413 141.782C214.421 141.737 214.439 141.693 214.464 141.654L222 130.02C222.031 129.973 222.072 129.933 222.121 129.905C222.17 129.877 222.226 129.861 222.282 129.858L233.952 129.396L234.726 116.448C234.741 116.363 234.787 116.286 234.855 116.232C234.924 116.179 235.009 116.152 235.096 116.157C235.182 116.162 235.264 116.199 235.325 116.26C235.387 116.322 235.423 116.404 235.428 116.49L234.642 129.756C234.636 129.844 234.598 129.926 234.535 129.987C234.471 130.048 234.388 130.084 234.3 130.086L222.492 130.554L215.064 142.044C215.031 142.093 214.986 142.133 214.934 142.161C214.882 142.188 214.823 142.201 214.764 142.2Z" fill="white"/>
<path d="M195.276 96.3782C194.358 101.226 193.782 111.192 196.476 130.92H220.476C220.044 127.5 218.322 109.248 221.88 91.8722C219.224 91.363 216.539 91.0243 213.84 90.8582C210.443 90.6605 207.037 90.6605 203.64 90.8582C202.512 90.9602 201.408 91.1222 200.424 91.2962C199.151 91.5208 197.977 92.1272 197.058 93.035C196.138 93.9427 195.517 95.1088 195.276 96.3782Z" fill="#263238"/>
<path opacity="0.2" d="M199.056 103.848L194.544 104.208C194.382 110.046 194.784 118.566 196.452 130.92H196.668C199.374 122.022 202.962 109.302 199.056 103.848Z" fill="black"/>
<path opacity="0.2" d="M210.51 234.762L210.738 240.12H215.232L215.004 234.762H210.51Z" fill="black"/>
<path d="M214.704 77.0223C213.552 81.3303 213.09 83.9043 210.438 85.6983C206.442 88.3863 201.438 85.2963 201.306 80.7363C201.168 76.6263 203.076 70.2783 207.696 69.4083C208.714 69.2125 209.765 69.2801 210.749 69.6046C211.734 69.9292 212.619 70.4999 213.321 71.2626C214.023 72.0254 214.519 72.9549 214.761 73.9629C215.003 74.9709 214.983 76.024 214.704 77.0223Z" fill="#7F3E3B"/>
<path d="M204.6 77.0521L202.266 77.6521L204.438 72.0181C203.864 70.6383 203.794 69.1004 204.24 67.6741C204.323 67.4207 204.484 67.1999 204.699 67.0427C204.914 66.8855 205.174 66.7999 205.44 66.7981C210.276 66.7081 215.334 69.4201 217.878 71.4721C218.116 71.6634 218.275 71.9345 218.327 72.2349C218.379 72.5353 218.32 72.8442 218.16 73.1041C217.533 74.0338 216.798 74.8858 215.97 75.6421C215.922 77.2201 213.348 84.3421 211.926 85.1461C210.504 85.9501 207.774 85.6201 207.048 84.3181C206.322 83.0161 203.886 81.3001 204.6 77.0521Z" fill="#263238"/>
<path d="M206.784 77.1424C206.518 78.2164 205.906 79.1734 205.044 79.8664C203.898 80.7664 203.004 79.9384 203.052 78.6124C203.094 77.4124 203.742 75.5164 205.02 75.1264C206.298 74.7364 207.084 75.8404 206.784 77.1424Z" fill="#7F3E3B"/>
<path d="M247.847 243.84C247.847 243.24 247.919 242.706 248.177 242.514C248.246 242.465 248.327 242.438 248.411 242.438C248.495 242.438 248.577 242.465 248.645 242.514C248.768 242.589 248.856 242.71 248.891 242.85C249.101 243.594 248.219 245.172 248.177 245.25C248.168 245.27 248.153 245.286 248.133 245.296C248.113 245.306 248.091 245.308 248.069 245.304C248.048 245.3 248.029 245.29 248.014 245.275C247.999 245.26 247.989 245.241 247.985 245.22C247.9 244.764 247.853 244.303 247.847 243.84ZM248.717 243.12C248.727 243.052 248.727 242.983 248.717 242.916C248.71 242.871 248.693 242.83 248.667 242.793C248.641 242.757 248.607 242.727 248.567 242.706C248.435 242.634 248.369 242.658 248.333 242.706C248.045 242.916 248.045 244.05 248.171 244.884C248.464 244.336 248.65 243.737 248.717 243.12Z" fill="#407BFF"/>
<path d="M247.98 245.191C247.978 245.177 247.978 245.162 247.98 245.149C248.22 244.609 249.18 243.529 249.69 243.607C249.81 243.607 249.96 243.709 249.99 243.997C250.003 244.104 249.995 244.212 249.964 244.316C249.933 244.419 249.88 244.515 249.81 244.597C249.348 245.197 248.136 245.299 248.088 245.305C248.069 245.308 248.05 245.305 248.033 245.298C248.016 245.29 248.002 245.278 247.992 245.263C247.985 245.252 247.98 245.24 247.978 245.228C247.976 245.215 247.977 245.203 247.98 245.191ZM249.78 244.087C249.78 244.087 249.78 244.045 249.78 244.021C249.78 243.829 249.684 243.817 249.66 243.817C249.354 243.769 248.598 244.501 248.268 245.059C248.778 245.003 249.259 244.794 249.648 244.459C249.739 244.355 249.792 244.224 249.798 244.087H249.78Z" fill="#407BFF"/>
<path d="M248.051 245.22L243.665 245.532L241.205 235.05L245.585 234.738L248.051 245.22Z" fill="#7F3E3B"/>
<path d="M248.033 244.2L243.149 243.768C243.06 243.758 242.971 243.78 242.897 243.829C242.822 243.879 242.767 243.952 242.741 244.038L241.505 247.938C241.475 248.034 241.467 248.136 241.482 248.236C241.497 248.335 241.536 248.43 241.594 248.513C241.652 248.595 241.728 248.663 241.817 248.711C241.906 248.759 242.004 248.786 242.105 248.79C243.869 248.916 246.425 249.036 248.639 249.234C251.225 249.462 249.551 249.456 252.587 249.726C254.423 249.888 255.101 248.076 254.345 247.842C250.913 246.762 250.289 246.042 249.107 244.644C248.966 244.503 248.799 244.391 248.615 244.314C248.43 244.238 248.233 244.199 248.033 244.2Z" fill="#263238"/>
<path opacity="0.2" d="M241.205 235.05L242.477 240.456L246.857 240.144L245.591 234.744L241.205 235.05Z" fill="black"/>
<path d="M204.972 130.92C204.972 130.92 215.298 165.42 219.222 178.224C223.512 192.246 239.844 238.764 239.844 238.764L247.764 237.024C247.764 237.024 236.574 197.058 231.936 177.498C228.372 162.498 220.47 130.92 220.47 130.92H204.972Z" fill="#407BFF"/>
<path d="M238.452 236.316C238.416 236.316 239.232 239.406 239.232 239.406L248.754 238.386L248.712 235.554L238.452 236.316Z" fill="#263238"/>
<path opacity="0.3" d="M210.691 146.91C216.409 147.66 218.683 167.586 219.541 179.274C219.433 178.902 219.319 178.554 219.217 178.218C217.081 171.228 213.031 157.758 209.791 146.976C210.081 146.884 210.39 146.861 210.691 146.91Z" fill="black"/>
<path d="M196.451 130.92C196.451 130.92 199.913 164.52 201.407 178.194C202.955 192.42 208.799 239.082 208.799 239.082H216.407C216.407 239.082 215.483 193.272 215.177 179.28C214.841 164.028 212.249 130.92 212.249 130.92H196.451Z" fill="#407BFF"/>
<path d="M207.6 236.052C207.564 236.052 208.026 239.208 208.026 239.208H217.278L217.53 236.394L207.6 236.052Z" fill="#263238"/>
<path d="M163.962 162.528C165.383 164.781 167.44 166.561 169.873 167.644C172.306 168.727 175.005 169.064 177.63 168.613C180.254 168.162 182.686 166.943 184.618 165.11C186.549 163.276 187.894 160.911 188.481 158.314C189.069 155.717 188.873 153.003 187.918 150.517C186.963 148.031 185.293 145.884 183.118 144.347C180.943 142.811 178.361 141.954 175.699 141.884C173.037 141.815 170.414 142.537 168.162 143.958C166.666 144.902 165.371 146.13 164.351 147.574C163.33 149.018 162.604 150.649 162.214 152.373C161.824 154.098 161.778 155.882 162.078 157.625C162.377 159.367 163.018 161.034 163.962 162.528ZM184.962 149.328C186.157 151.224 186.764 153.432 186.705 155.673C186.645 157.914 185.923 160.087 184.629 161.917C183.335 163.747 181.527 165.152 179.435 165.955C177.342 166.758 175.058 166.923 172.872 166.428C170.686 165.933 168.695 164.801 167.153 163.175C165.61 161.549 164.584 159.502 164.204 157.293C163.825 155.084 164.109 152.811 165.02 150.764C165.932 148.716 167.43 146.985 169.326 145.788C171.864 144.189 174.932 143.661 177.858 144.32C180.785 144.979 183.331 146.772 184.938 149.304L184.962 149.328Z" fill="#263238"/>
<path opacity="0.2" d="M185.478 157.644C185.02 159.645 183.98 161.466 182.488 162.877C180.996 164.287 179.12 165.224 177.096 165.569C175.072 165.914 172.991 165.651 171.117 164.813C169.242 163.976 167.658 162.602 166.564 160.865C165.47 159.127 164.915 157.105 164.97 155.052C165.025 153 165.687 151.01 166.873 149.334C168.058 147.657 169.714 146.37 171.63 145.634C173.547 144.898 175.639 144.747 177.642 145.2C178.973 145.502 180.232 146.064 181.347 146.853C182.461 147.642 183.409 148.643 184.137 149.799C184.865 150.954 185.358 152.242 185.588 153.588C185.818 154.934 185.78 156.312 185.478 157.644Z" fill="#407BFF"/>
<path d="M187.104 146.538L188.37 148.542C188.415 148.614 188.446 148.695 188.46 148.779C188.475 148.863 188.472 148.949 188.453 149.032C188.434 149.115 188.399 149.193 188.35 149.263C188.301 149.332 188.238 149.391 188.166 149.436C188.019 149.528 187.843 149.558 187.674 149.52C187.505 149.482 187.359 149.378 187.266 149.232L186.006 147.234C185.914 147.088 185.884 146.911 185.922 146.742C185.96 146.574 186.064 146.427 186.21 146.334C186.282 146.288 186.362 146.257 186.446 146.242C186.53 146.227 186.617 146.23 186.7 146.249C186.783 146.268 186.862 146.303 186.931 146.353C187.001 146.402 187.059 146.466 187.104 146.538Z" fill="#263238"/>
<path d="M195.27 140.844C193.81 141.844 192.366 142.862 190.938 143.898C189.504 144.942 188.088 146.004 186.738 147.132C186.575 147.273 186.468 147.468 186.436 147.681C186.404 147.893 186.45 148.111 186.565 148.293C186.679 148.475 186.855 148.61 187.061 148.673C187.267 148.737 187.488 148.724 187.686 148.638C189.294 147.882 190.866 147.06 192.426 146.238C193.986 145.416 195.522 144.528 197.046 143.646C198.346 142.89 199.638 142.118 200.922 141.33C201.009 141.277 201.084 141.206 201.144 141.123C201.204 141.04 201.247 140.945 201.27 140.846C201.294 140.746 201.297 140.643 201.281 140.541C201.264 140.44 201.228 140.344 201.174 140.256L200.106 138.6C200.051 138.514 199.979 138.438 199.895 138.379C199.811 138.32 199.716 138.278 199.616 138.256C199.515 138.234 199.411 138.231 199.31 138.249C199.209 138.267 199.112 138.305 199.026 138.36C197.766 139.2 196.512 139.998 195.27 140.844Z" fill="#263238"/>
<path d="M201.961 98.058C201.229 101.658 200.449 105.248 199.621 108.828L197.137 119.544C196.327 123.036 195.637 126.576 195.007 130.17L193.123 140.97C193.053 141.385 192.831 141.758 192.501 142.019C192.171 142.279 191.756 142.407 191.336 142.378C190.917 142.348 190.523 142.164 190.232 141.861C189.942 141.557 189.774 141.156 189.762 140.736C189.63 136.986 189.691 133.278 189.901 129.546C190.108 125.792 190.508 122.051 191.101 118.338C191.701 114.666 192.343 111.036 193.051 107.412C193.759 103.788 194.509 100.176 195.343 96.612C195.544 95.7403 196.081 94.9829 196.836 94.504C197.592 94.0251 198.506 93.8632 199.38 94.0533C200.255 94.2435 201.019 94.7704 201.507 95.52C201.996 96.2695 202.169 97.1814 201.991 98.058H201.961Z" fill="#407BFF"/>
<path d="M192.6 139.998C192.448 139.838 192.258 139.722 192.047 139.659C191.836 139.597 191.613 139.592 191.4 139.644L190.428 139.878C190.183 139.935 189.962 140.066 189.794 140.253C189.625 140.439 189.518 140.672 189.486 140.922L189.204 143.088C189.116 143.713 189.247 144.349 189.576 144.888L190.92 147.108C191.092 147.336 191.325 147.51 191.593 147.61C191.861 147.71 192.152 147.731 192.432 147.672L193.83 147.378C194.036 147.333 194.232 147.246 194.403 147.122C194.574 146.997 194.717 146.838 194.823 146.655C194.928 146.472 194.994 146.268 195.017 146.058C195.039 145.848 195.017 145.635 194.952 145.434L194.586 144.306C194.45 142.681 193.747 141.156 192.6 139.998Z" fill="#7F3E3B"/>
<path d="M206.634 95.9999C208.818 101.79 201.27 110.052 201.27 110.052L191.712 106.89C191.712 106.89 192.444 98.9879 195.762 94.5299C199.854 89.0039 204.972 91.5659 206.634 95.9999Z" fill="#263238"/>
</svg>
