<svg width="300" height="300" viewBox="0 0 300 300" fill="none" xmlns="http://www.w3.org/2000/svg">
<path d="M150.001 256.536C214.25 256.536 266.335 253.495 266.335 249.744C266.335 245.993 214.25 242.952 150.001 242.952C85.751 242.952 33.6665 245.993 33.6665 249.744C33.6665 253.495 85.751 256.536 150.001 256.536Z" fill="#F5F5F5"/>
<path d="M218.484 249.744H140.928C139.791 249.751 138.665 249.525 137.618 249.082C136.572 248.638 135.627 247.986 134.841 247.165C134.055 246.344 133.444 245.372 133.046 244.307C132.649 243.242 132.472 242.108 132.528 240.972L139.578 75.6364C139.702 73.2863 140.717 71.0718 142.415 69.4426C144.114 67.8134 146.368 66.8916 148.722 66.8644H226.278C227.414 66.8573 228.541 67.0822 229.588 67.5253C230.635 67.9685 231.58 68.6205 232.366 69.4416C233.153 70.2628 233.763 71.2356 234.161 72.3008C234.558 73.3659 234.734 74.501 234.678 75.6364L227.628 240.972C227.501 243.322 226.486 245.536 224.788 247.165C223.09 248.794 220.836 249.716 218.484 249.744Z" fill="#407BFF"/>
<path d="M231.372 132.703H230.838C230.583 132.704 230.33 132.653 230.096 132.553C229.861 132.454 229.649 132.307 229.473 132.123C229.297 131.939 229.16 131.721 229.071 131.482C228.981 131.244 228.942 130.989 228.954 130.735L230.28 99.6545C230.309 99.1275 230.537 98.6311 230.918 98.2657C231.299 97.9004 231.804 97.6934 232.332 97.6865H232.866C233.12 97.6854 233.373 97.7362 233.607 97.8359C233.841 97.9355 234.053 98.0819 234.229 98.2662C234.404 98.4504 234.541 98.6685 234.629 98.9072C234.718 99.146 234.757 99.4002 234.744 99.6545L233.424 130.735C233.395 131.262 233.167 131.758 232.786 132.123C232.405 132.489 231.9 132.696 231.372 132.703Z" fill="#407BFF"/>
<path d="M137.676 109.675H136.326C136.124 109.676 135.925 109.637 135.739 109.559C135.553 109.481 135.385 109.365 135.246 109.219C135.106 109.074 134.998 108.901 134.928 108.712C134.858 108.523 134.827 108.322 134.838 108.121L135.216 99.2465C135.237 98.8294 135.417 98.4359 135.718 98.1462C136.018 97.8564 136.418 97.6921 136.836 97.6865H138.186C138.388 97.6855 138.588 97.7256 138.774 97.8045C138.961 97.8834 139.129 97.9994 139.268 98.1453C139.408 98.2913 139.517 98.4642 139.588 98.6536C139.658 98.8429 139.69 99.0447 139.68 99.2465L139.302 108.121C139.279 108.538 139.098 108.93 138.796 109.219C138.494 109.508 138.094 109.671 137.676 109.675Z" fill="#263238"/>
<path d="M137.003 125.526H135.647C135.446 125.527 135.247 125.487 135.061 125.409C134.876 125.33 134.709 125.214 134.569 125.069C134.43 124.924 134.322 124.751 134.251 124.563C134.181 124.374 134.15 124.173 134.159 123.972L134.537 115.092C134.56 114.676 134.74 114.284 135.041 113.996C135.342 113.707 135.741 113.544 136.157 113.538H137.513C137.715 113.537 137.914 113.577 138.1 113.656C138.285 113.734 138.452 113.85 138.592 113.995C138.731 114.141 138.839 114.313 138.909 114.501C138.98 114.69 139.011 114.891 139.001 115.092L138.623 123.972C138.601 124.388 138.421 124.78 138.12 125.069C137.819 125.357 137.42 125.521 137.003 125.526Z" fill="#263238"/>
<path d="M216.396 249.744H138.84C137.703 249.752 136.576 249.528 135.529 249.085C134.481 248.642 133.535 247.99 132.749 247.169C131.962 246.348 131.352 245.375 130.955 244.309C130.558 243.244 130.383 242.108 130.44 240.972L137.484 75.6364C137.609 73.2863 138.623 71.0718 140.322 69.4426C142.02 67.8134 144.275 66.8916 146.628 66.8644H224.19C225.327 66.8573 226.453 67.0822 227.5 67.5253C228.547 67.9685 229.492 68.6205 230.279 69.4416C231.065 70.2627 231.675 71.2356 232.073 72.3008C232.47 73.3659 232.646 74.501 232.59 75.6364L225.54 240.972C225.415 243.323 224.4 245.537 222.702 247.166C221.004 248.795 218.749 249.717 216.396 249.744Z" fill="#263238"/>
<path opacity="0.6" d="M216.396 249.744H138.84C137.703 249.752 136.576 249.528 135.529 249.085C134.481 248.642 133.535 247.99 132.749 247.169C131.962 246.348 131.352 245.375 130.955 244.309C130.558 243.244 130.383 242.108 130.44 240.972L137.484 75.6364C137.609 73.2863 138.623 71.0718 140.322 69.4426C142.02 67.8134 144.275 66.8916 146.628 66.8644H224.19C225.327 66.8573 226.453 67.0822 227.5 67.5253C228.547 67.9685 229.492 68.6205 230.279 69.4416C231.065 70.2627 231.675 71.2356 232.073 72.3008C232.47 73.3659 232.646 74.501 232.59 75.6364L225.54 240.972C225.415 243.323 224.4 245.537 222.702 247.166C221.004 248.795 218.749 249.717 216.396 249.744Z" fill="#407BFF"/>
<path opacity="0.5" d="M183.996 238.591C183.915 240.174 183.233 241.666 182.088 242.763C180.944 243.861 179.425 244.48 177.84 244.495C177.074 244.501 176.316 244.351 175.61 244.054C174.905 243.756 174.268 243.317 173.739 242.764C173.21 242.211 172.8 241.555 172.534 240.837C172.269 240.12 172.153 239.355 172.194 238.591C172.273 237.009 172.954 235.517 174.097 234.42C175.241 233.324 176.76 232.706 178.344 232.693C179.109 232.686 179.867 232.836 180.572 233.133C181.277 233.43 181.914 233.868 182.443 234.421C182.973 234.973 183.384 235.628 183.651 236.345C183.917 237.062 184.035 237.826 183.996 238.591Z" fill="#407BFF"/>
<path opacity="0.8" d="M221.958 228.276H135.102C134.838 228.278 134.577 228.227 134.335 228.124C134.092 228.021 133.873 227.87 133.691 227.679C133.509 227.489 133.367 227.263 133.276 227.016C133.184 226.769 133.144 226.506 133.158 226.242L139.2 84.6005C139.226 84.055 139.46 83.5401 139.854 83.1618C140.248 82.7835 140.772 82.5705 141.318 82.5665H228.168C228.432 82.5637 228.694 82.615 228.937 82.7173C229.181 82.8196 229.401 82.9708 229.583 83.1614C229.766 83.352 229.908 83.578 230 83.8256C230.092 84.0731 230.132 84.3368 230.118 84.6005L224.082 226.242C224.054 226.789 223.819 227.303 223.424 227.682C223.029 228.06 222.505 228.273 221.958 228.276Z" fill="white"/>
<path opacity="0.5" d="M168.198 74.6403C168.229 73.9982 168.504 73.392 168.967 72.9458C169.429 72.4996 170.045 72.2473 170.688 72.2403C170.999 72.2373 171.307 72.2983 171.593 72.4193C171.88 72.5404 172.138 72.7189 172.352 72.944C172.567 73.169 172.732 73.4358 172.839 73.7276C172.946 74.0194 172.992 74.3301 172.974 74.6403C172.945 75.283 172.671 75.8901 172.207 76.3365C171.744 76.783 171.127 77.0348 170.484 77.0403C170.173 77.0433 169.865 76.9824 169.579 76.8614C169.293 76.7403 169.034 76.5617 168.82 76.3367C168.606 76.1116 168.44 75.8449 168.333 75.5531C168.226 75.2613 168.18 74.9506 168.198 74.6403Z" fill="#407BFF"/>
<path opacity="0.5" d="M178.944 72.2461H198.804C199.114 72.2449 199.421 72.307 199.707 72.4286C199.992 72.5503 200.25 72.7289 200.464 72.9536C200.678 73.1783 200.844 73.4443 200.951 73.7353C201.059 74.0263 201.106 74.3363 201.09 74.6461C201.059 75.2883 200.784 75.8945 200.321 76.3407C199.858 76.7868 199.243 77.0392 198.6 77.0461H178.74C178.429 77.0482 178.121 76.9867 177.836 76.8654C177.55 76.744 177.292 76.5654 177.078 76.3405C176.863 76.1157 176.698 75.8493 176.59 75.5579C176.483 75.2665 176.436 74.9562 176.454 74.6461C176.486 74.0044 176.761 73.399 177.224 72.9532C177.686 72.5073 178.301 72.2545 178.944 72.2461Z" fill="#407BFF"/>
<path d="M206.2 189.01C221.029 174.494 221.774 151.209 207.866 137.001C193.957 122.793 170.662 123.043 155.834 137.559C141.005 152.074 140.26 175.359 154.168 189.567C168.077 203.775 191.372 203.525 206.2 189.01Z" fill="white"/>
<path d="M187.338 157.35H187.908L189.216 156.69H190.236L191.112 157.098H192.072L192.438 156.888L192.462 156.294L191.934 156.048L191.19 155.274L191.22 154.53H190.626L190.122 155.016L189.456 154.314H188.682L187.416 156.408L187.692 156.912L187.272 157.188L187.338 157.35Z" fill="#407BFF"/>
<path d="M195.024 157.915L194.994 158.641L195.636 159.319H196.962L197.016 157.933H196.722L196.776 156.631L196.23 156.061L196.266 155.161H196.836L196.872 154.369L196.044 154.255L194.646 155.599L194.616 156.343L195.384 157.153L195.366 157.585L195.024 157.915Z" fill="#407BFF"/>
<path d="M149.43 177.6L147.03 175.092L147.108 173.244L149.1 171.336L149.142 170.382L148.134 169.326H146.142L146.184 168.306L144.3 167.4C144.719 173.664 146.808 179.701 150.348 184.884L151.116 180.408L149.388 178.608L149.43 177.6Z" fill="#407BFF"/>
<path d="M217.763 163.801L215.771 164.689H215.069L214.325 165.403V166.039L215.321 167.077L215.267 168.367L213.713 169.357V168.967L212.603 167.803H211.925L211.859 169.273L213.059 170.911L213.017 171.841L213.317 172.153H212.891L212.051 171.073L212.081 170.281L211.517 169.555L211.589 167.869L211.229 166.183H211.025L210.641 166.555H210.287L210.335 165.463L209.543 164.635V164.035H209.399L208.943 164.473H208.019L205.517 166.873L205.457 168.229L204.713 169.531L204.221 169.309L203.477 167.479L203.063 165.121L202.253 164.809L200.909 162.721H197.837L197.561 162.403H196.361L195.449 161.773L195.197 160.957H194.597L194.315 161.167L194.873 162.709L195.839 163.909L196.877 162.913H197.147L197.297 163.363L198.233 164.191L197.513 165.037L197.387 165.547L195.521 166.909L192.281 167.977L192.107 166.141L191.009 164.737L190.409 163.069L189.209 161.407V161.797L190.283 165.889L192.239 168.937L194.399 168.601L194.339 169.927L193.199 171.661L190.067 174.523L190.007 175.933L190.547 178.375L188.549 180.529L188.483 182.017L186.623 184.303V184.819L184.139 186.229H182.969L182.609 185.593L181.199 179.401L181.259 177.973L181.571 177.535L181.625 176.245L180.317 173.149L180.353 172.327L180.653 172.135V171.355L180.431 170.983H179.279L178.745 170.269H177.287L175.361 170.611H173.033L171.101 167.401L171.239 164.179L175.469 158.983L178.061 158.269H180.857L181.049 159.649L183.851 160.849L184.499 160.249H185.999L186.449 160.717H189.089L189.959 159.211L189.995 158.497L189.797 158.287H189.503L189.287 158.491H188.825L188.597 158.257H188.195L187.955 158.491H187.643L187.391 158.221L186.827 157.621L186.875 156.421H185.999L185.603 156.625L185.747 157.561L185.363 157.729V158.179L185.087 158.035L184.409 156.601V155.923L183.521 155.323L182.447 154.201H182.003V154.723L182.603 155.233L182.651 155.629L183.989 156.649L183.857 156.931L183.797 156.649H183.455L183.509 157.087L182.861 157.753L182.663 158.233L182.099 157.633H182.819L183.137 157.333V156.769L181.337 155.365L181.187 154.879H180.557L179.903 155.377H179.399L179.033 155.209L178.433 155.581V155.953L177.455 156.895V157.381L176.669 158.203H175.919L175.607 158.401H175.229L175.061 158.131L174.221 157.963L174.269 156.853L174.785 156.361V155.401H177.119L177.251 153.967L176.273 153.043L180.065 150.547L181.055 150.133L181.115 148.819L181.643 148.309L181.571 149.989L183.545 149.719H185.273L185.327 148.435L185.735 148.045L185.987 148.309H186.329L186.371 147.277H187.697L188.189 146.809H185.999L185.555 146.347L185.609 145.207L186.869 144.007V143.407H185.999L183.719 145.591L183.599 148.681L182.549 149.071L181.949 147.517L180.593 148.051L180.083 147.517L180.143 146.059L184.055 141.445L188.333 140.185L191.999 142.201L191.315 142.855H189.059L190.859 144.751L192.947 143.551L200.303 141.271L208.547 137.797C205.234 134.218 201.212 131.37 196.737 129.433C192.261 127.496 187.432 126.513 182.555 126.547C176.843 126.551 171.206 127.856 166.073 130.363L167.783 130.183L173.183 131.773L170.183 140.773L166.193 142.393L163.487 143.719L162.509 146.827L160.343 146.017L158.837 142.651L159.269 141.619L158.069 136.501L157.193 136.315C155.663 137.676 154.24 139.155 152.939 140.737L154.931 142.537L153.827 145.621L151.325 143.971L151.871 142.843L151.547 142.507C149.852 144.829 148.422 147.332 147.281 149.971L148.481 150.685L149.969 149.263L150.119 145.621L154.919 147.775L157.427 150.913L156.293 151.999H154.013L154.649 154.117L148.049 160.333L148.817 162.253L148.349 162.703L146.945 161.233H144.407C144.341 161.917 144.287 162.613 144.257 163.309C144.227 164.005 144.221 164.827 144.257 165.577H144.353L145.115 164.851H146.231L145.631 165.451L145.565 167.005H146.921L147.353 168.685H148.439L149.501 169.801L150.653 168.673L157.475 171.229L158.213 172.879L160.715 174.079L162.299 174.175L164.015 175.663L162.347 178.315L161.411 181.357L158.909 182.329L153.449 188.791C158.401 194.186 164.929 197.881 172.103 199.351L172.655 199.087L177.839 198.721L181.355 198.427L182.483 197.827L185.387 197.929L187.553 198.529L187.037 198.721L187.895 199.147C194.289 197.641 200.199 194.547 205.079 190.15C209.959 185.754 213.651 180.197 215.813 173.995L215.093 172.663L216.545 171.715C217.237 169.129 217.645 166.475 217.763 163.801ZM198.233 136.981L201.389 135.865H202.799L198.641 137.707L197.753 139.201L198.605 140.245L197.495 140.101L196.895 139.105L198.233 136.981ZM187.763 133.231L186.809 133.657L184.823 132.997L187.763 133.231ZM183.953 133.231L186.071 134.167L187.109 134.845L185.909 135.037L185.651 134.359L184.979 134.191L184.061 135.769L182.699 134.041L182.531 133.441L183.953 133.231ZM150.197 165.349L149.597 165.211L147.137 164.209L147.683 163.975L150.239 164.851L150.197 165.349ZM151.865 165.991H150.557L150.923 165.349L152.381 165.499L151.865 165.991ZM175.709 148.093L176.417 147.751L177.017 148.981L178.121 151.099L175.919 151.975L176.381 149.863L175.601 149.095L175.709 148.093ZM174.353 149.707H175.553L175.277 151.063H174.185L174.353 149.707ZM171.743 144.529L171.215 144.691L170.249 144.493L170.045 143.935L170.285 143.671L172.283 143.209L173.285 143.671L173.087 144.043L172.025 144.181L171.743 144.529ZM193.679 180.691L192.653 182.521H191.957L191.663 182.215L191.723 180.871L192.077 180.529L191.861 180.301L191.921 179.101L193.289 178.399L193.835 177.559L193.979 178.483L193.679 180.691ZM213.761 174.877H213.053L211.409 172.477L210.383 170.899L211.229 170.971L213.803 173.863L213.761 174.877Z" fill="#407BFF"/>
<path opacity="0.3" d="M194.61 185.515L190.866 198.277C192.481 197.768 194.059 197.147 195.588 196.417L194.61 185.515Z" fill="#263238"/>
<path opacity="0.9" d="M175.278 100.542C175.494 95.3822 179.568 91.2002 184.374 91.2002C189.18 91.2002 192.894 95.4002 192.678 100.542C192.276 109.95 183.354 115.194 183.354 115.194C183.354 115.194 174.876 109.95 175.278 100.542Z" fill="#407BFF"/>
<path d="M213.09 204.817L194.61 185.509L193.41 212.809L199.938 206.551L201.858 211.711C201.966 211.984 202.128 212.232 202.334 212.441C202.541 212.65 202.787 212.816 203.058 212.928C203.33 213.04 203.621 213.096 203.915 213.093C204.208 213.09 204.498 213.028 204.768 212.911C205.332 212.686 205.788 212.253 206.04 211.701C206.293 211.149 206.323 210.52 206.124 209.947L204.204 204.787L213.09 204.817Z" fill="white"/>
<path d="M94.944 90.7792C93.834 93.8452 92.712 96.9712 91.644 100.061C91.098 101.609 90.582 103.157 90.084 104.699C89.586 106.241 89.124 107.777 88.746 109.265C88.554 110.003 88.392 110.735 88.29 111.377C88.236 111.701 88.218 111.977 88.194 112.193C88.17 112.409 88.194 112.793 88.194 113.105C88.3288 114.596 88.5776 116.074 88.938 117.527C89.664 120.611 90.6 123.797 91.524 126.935L88.32 128.441C86.4585 125.521 84.8698 122.436 83.574 119.225C82.8706 117.515 82.3341 115.741 81.972 113.927C81.8754 113.406 81.8093 112.879 81.774 112.349C81.7459 111.789 81.758 111.228 81.81 110.669C81.9 109.649 82.044 108.737 82.206 107.849C82.9106 104.453 83.8019 101.098 84.876 97.7992C85.908 94.5592 87.018 91.3972 88.272 88.1992L94.944 90.7792Z" fill="#B55B52"/>
<path d="M90.5401 125.399L93.2101 128.843L88.2901 131.171C88.2901 131.171 86.8861 128.903 87.7321 126.779L90.5401 125.399Z" fill="#B55B52"/>
<path d="M94.842 131.814L91.254 134.052L88.29 131.166L93.21 128.838L94.842 131.814Z" fill="#B55B52"/>
<path d="M112.003 68.19C111.961 68.568 112.123 68.892 112.375 68.922C112.627 68.952 112.855 68.664 112.897 68.286C112.939 67.908 112.771 67.584 112.525 67.554C112.279 67.524 112.045 67.8 112.003 68.19Z" fill="#263238"/>
<path d="M112.093 68.8916C112.415 70.0946 112.902 71.2474 113.539 72.3176C113.261 72.4744 112.952 72.5685 112.634 72.5934C112.316 72.6182 111.996 72.5733 111.697 72.4616L112.093 68.8916Z" fill="#A02724"/>
<path d="M110.85 65.9397C110.796 65.9234 110.751 65.8868 110.724 65.8377C110.709 65.8122 110.7 65.7839 110.696 65.7546C110.692 65.7253 110.694 65.6955 110.702 65.667C110.71 65.6385 110.723 65.6119 110.741 65.5886C110.76 65.5654 110.782 65.5461 110.808 65.5317C111.113 65.3507 111.456 65.2449 111.81 65.223C112.164 65.2011 112.517 65.2637 112.842 65.4057C112.894 65.4349 112.933 65.4828 112.951 65.5397C112.969 65.5965 112.964 65.6581 112.938 65.7117C112.91 65.7632 112.863 65.802 112.807 65.8198C112.751 65.8377 112.691 65.8334 112.638 65.8077C112.38 65.6966 112.098 65.6489 111.817 65.6687C111.536 65.6886 111.265 65.7753 111.024 65.9217C110.998 65.9363 110.969 65.9455 110.939 65.9486C110.909 65.9517 110.879 65.9486 110.85 65.9397Z" fill="#263238"/>
<path d="M99.8828 70.9854C100.561 74.4294 101.233 80.7474 98.8208 83.0454C98.8208 83.0454 99.7688 86.5434 106.171 86.5434C113.215 86.5434 109.537 83.0454 109.537 83.0454C105.691 82.1274 105.793 79.2774 106.459 76.5954L99.8828 70.9854Z" fill="#B55B52"/>
<path d="M96.7865 84.8213C96.1505 84.4013 96.9785 82.1993 97.6145 81.8213C99.3005 80.8013 106.777 80.4593 109.891 82.4213C110.177 82.7805 110.379 83.1991 110.483 83.6465C110.587 84.0939 110.589 84.5588 110.491 85.0073L96.7865 84.8213Z" fill="#263238"/>
<path d="M79.386 244.571C79.5785 244.63 79.7808 244.649 79.9809 244.627C80.181 244.606 80.3746 244.544 80.55 244.445C80.6173 244.378 80.6617 244.292 80.6767 244.198C80.6918 244.104 80.6769 244.008 80.634 243.923C80.6107 243.852 80.5716 243.787 80.5197 243.733C80.4677 243.679 80.4043 243.637 80.334 243.611C79.68 243.341 78.252 244.007 78.192 244.037C78.172 244.046 78.1551 244.06 78.1433 244.078C78.1315 244.096 78.1255 244.118 78.126 244.139C78.1269 244.161 78.1335 244.181 78.1451 244.199C78.1567 244.217 78.1729 244.232 78.192 244.241C78.5774 244.392 78.9776 244.503 79.386 244.571ZM80.112 243.779L80.244 243.815C80.2852 243.832 80.3224 243.857 80.3534 243.889C80.3844 243.921 80.4084 243.959 80.424 244.001C80.496 244.199 80.424 244.265 80.424 244.283C80.184 244.511 79.224 244.361 78.558 244.127C79.0449 243.901 79.575 243.782 80.112 243.779Z" fill="#407BFF"/>
<path d="M78.2218 244.247H78.2758C78.7978 244.067 79.8958 243.204 79.8838 242.67C79.882 242.585 79.8502 242.503 79.7943 242.44C79.7383 242.376 79.6616 242.334 79.5778 242.321C79.4959 242.297 79.4095 242.29 79.3247 242.301C79.2398 242.313 79.1584 242.342 79.0858 242.388C78.4858 242.736 78.1438 244.061 78.1318 244.115C78.1257 244.134 78.1253 244.155 78.1307 244.174C78.136 244.193 78.1468 244.21 78.1618 244.223C78.1791 244.237 78.1999 244.245 78.2218 244.247ZM79.4698 242.52H79.5178C79.6558 242.556 79.6618 242.628 79.6618 242.652C79.6618 242.97 78.9478 243.641 78.4078 243.923C78.5288 243.4 78.8048 242.925 79.1998 242.561C79.2812 242.514 79.3778 242.499 79.4698 242.52Z" fill="#407BFF"/>
<path d="M111.355 245.172C111.955 245.172 112.555 245.088 112.741 244.818C112.79 244.746 112.817 244.662 112.817 244.575C112.817 244.488 112.79 244.403 112.741 244.332C112.703 244.266 112.652 244.209 112.591 244.163C112.53 244.118 112.46 244.085 112.387 244.068C111.607 243.858 109.987 244.794 109.891 244.836C109.87 244.846 109.854 244.863 109.844 244.883C109.834 244.904 109.831 244.927 109.837 244.95C109.839 244.972 109.848 244.993 109.863 245.009C109.879 245.025 109.899 245.036 109.921 245.04C110.394 245.125 110.874 245.17 111.355 245.172ZM112.105 244.26C112.176 244.25 112.249 244.25 112.321 244.26C112.365 244.269 112.408 244.288 112.445 244.315C112.482 244.342 112.513 244.376 112.537 244.416C112.615 244.554 112.585 244.626 112.537 244.662C112.315 244.968 111.127 244.974 110.251 244.854C110.823 244.536 111.453 244.334 112.105 244.26Z" fill="#407BFF"/>
<path d="M109.932 245.046H109.98C110.544 244.788 111.672 243.774 111.588 243.246C111.588 243.12 111.48 242.964 111.168 242.934C111.061 242.924 110.952 242.937 110.849 242.969C110.746 243.002 110.651 243.056 110.568 243.126C109.968 243.618 109.842 244.884 109.836 244.926C109.836 244.945 109.84 244.965 109.848 244.982C109.857 245 109.869 245.016 109.884 245.028C109.899 245.037 109.915 245.043 109.932 245.046ZM111.084 243.132H111.15C111.348 243.132 111.36 243.228 111.366 243.258C111.42 243.576 110.652 244.374 110.07 244.728C110.116 244.192 110.325 243.682 110.67 243.27C110.786 243.173 110.934 243.124 111.084 243.132Z" fill="#407BFF"/>
<path d="M104.748 244.932H109.464L109.932 234.018H105.222L104.748 244.932Z" fill="#B55B52"/>
<path d="M72.9604 243.258L77.6645 244.026L81.0064 233.646L76.2965 232.878L72.9604 243.258Z" fill="#B55B52"/>
<path d="M78.0003 243.54L72.7743 242.682C72.6818 242.666 72.5865 242.682 72.5045 242.728C72.4225 242.774 72.3589 242.847 72.3243 242.934L70.7283 246.912C70.6902 247.009 70.6744 247.113 70.682 247.217C70.6897 247.321 70.7205 247.422 70.7724 247.512C70.8242 247.603 70.8957 247.681 70.9815 247.74C71.0674 247.799 71.1654 247.838 71.2683 247.854C73.0683 248.118 74.0043 248.16 76.2963 248.538C77.7123 248.772 81.3123 249.612 83.2863 249.738C85.2603 249.864 85.6443 247.938 84.8463 247.698C81.2763 246.672 79.6803 245.172 78.7023 243.954C78.5277 243.734 78.2776 243.586 78.0003 243.54Z" fill="#263238"/>
<path d="M109.434 244.386H104.286C104.192 244.385 104.101 244.417 104.027 244.476C103.954 244.535 103.904 244.618 103.884 244.71L102.954 248.91C102.931 249.011 102.932 249.115 102.956 249.216C102.979 249.317 103.025 249.411 103.091 249.491C103.156 249.572 103.239 249.636 103.332 249.68C103.426 249.723 103.529 249.745 103.632 249.744C105.486 249.714 108.168 249.606 110.502 249.606C113.232 249.606 114.384 249.756 117.582 249.756C119.514 249.756 120.054 247.8 119.244 247.62C115.554 246.816 113.754 246.732 110.568 244.764C110.232 244.537 109.84 244.406 109.434 244.386Z" fill="#263238"/>
<path d="M90.3839 84.1138C86.082 85.5298 83.502 97.0918 83.502 97.0918L92.9519 103.002C95.0122 100.353 96.3498 97.2145 96.8339 93.8938C97.7999 87.8698 94.7999 82.6618 90.3839 84.1138Z" fill="#407BFF"/>
<g opacity="0.4">
<path opacity="0.4" d="M90.3839 84.1138C86.082 85.5298 83.502 97.0918 83.502 97.0918L92.9519 103.002C95.0122 100.353 96.3498 97.2145 96.8339 93.8938C97.7999 87.8698 94.7999 82.6618 90.3839 84.1138Z" fill="white"/>
</g>
<path opacity="0.2" d="M92.9642 96.2333C91.8898 97.8905 91.182 99.7583 90.8882 101.711L92.9522 103.001C94.7302 100.723 95.9618 98.0666 96.5522 95.2373L92.9642 96.2333Z" fill="black"/>
<path d="M116.784 84.354C116.784 84.354 121.8 90.018 117.06 125.082H91.8603C91.6863 121.212 94.1163 102.342 90.3843 84.114C93.1701 83.5754 95.9881 83.2186 98.8203 83.046C102.389 82.8388 105.967 82.8388 109.536 83.046C111.982 83.2937 114.406 83.731 116.784 84.354Z" fill="#407BFF"/>
<g opacity="0.4">
<path opacity="0.4" d="M116.784 84.354C116.784 84.354 121.8 90.018 117.06 125.082H91.8603C91.6863 121.212 94.1163 102.342 90.3843 84.114C93.1701 83.5754 95.9881 83.2186 98.8203 83.046C102.389 82.8388 105.967 82.8388 109.536 83.046C111.982 83.2937 114.406 83.731 116.784 84.354Z" fill="white"/>
</g>
<path opacity="0.2" d="M118.986 95.0694L118.89 94.9854L113.16 96.3594C112.836 100.235 116.82 104.861 118.872 106.979C119.126 103.014 119.164 99.0385 118.986 95.0694Z" fill="black"/>
<path opacity="0.2" d="M109.933 234.023L109.693 239.645H104.977L105.217 234.023H109.933Z" fill="black"/>
<path opacity="0.2" d="M76.2962 232.878L81.0062 233.652L79.2782 238.998L74.5742 238.23L76.2962 232.878Z" fill="black"/>
<path d="M99.4857 65.9998C99.2637 70.6678 98.8857 73.3918 100.974 76.0318C104.1 80.0038 110.064 78.5098 111.678 73.9978C113.136 69.9418 113.262 62.9818 108.924 60.6358C107.97 60.1131 106.898 59.8432 105.81 59.8518C104.722 59.8603 103.654 60.147 102.708 60.6845C101.762 61.2221 100.97 61.9927 100.406 62.9231C99.8416 63.8534 99.5249 64.9126 99.4857 65.9998Z" fill="#B55B52"/>
<path d="M108.162 70.0976C106.266 73.0016 107.328 73.9676 106.266 75.2996C105.204 76.6316 98.0942 78.5336 98.0282 75.1676C98.0614 73.9655 97.8172 72.7718 97.3146 71.6793C96.8121 70.5867 96.0646 69.6246 95.1302 68.8676C94.7216 68.4649 94.4133 67.972 94.2299 67.4285C94.0466 66.885 93.9933 66.306 94.0744 65.7382C94.1556 65.1704 94.3688 64.6295 94.697 64.159C95.0252 63.6886 95.4592 63.3018 95.9642 63.0296C98.4962 61.6316 94.8902 60.9476 96.4382 58.6976C98.7422 55.3616 101.892 54.2636 104.526 56.5676C107.16 58.8716 111.432 60.1676 114.498 57.2336C117.564 54.2996 117.03 65.7416 109.398 65.2196C112.68 68.5016 107.196 66.8996 108.162 70.0976Z" fill="#263238"/>
<path d="M97.5656 61.8715C96.3236 62.7415 94.5056 59.8495 94.9376 58.2715C93.3656 60.0715 93.7376 63.0235 96.9536 63.0715C100.17 63.1195 97.5656 61.8715 97.5656 61.8715Z" fill="#263238"/>
<path d="M106.644 67.8953C106.519 69.0505 106.778 70.2148 107.382 71.2073C108.192 72.5093 109.374 72.0053 109.782 70.6853C110.166 69.4853 110.208 67.3793 109.086 66.5393C107.964 65.6993 106.8 66.5093 106.644 67.8953Z" fill="#B55B52"/>
<path d="M108.121 125.082C108.121 125.082 102.775 161.082 99.8405 174.576C96.6005 189.348 81.7325 238.2 81.7325 238.2L73.3325 236.4C73.3325 236.4 83.0345 196.572 85.7345 175.92C87.8045 160.056 91.8905 125.082 91.8905 125.082H108.121Z" fill="#263238"/>
<path d="M83.7544 235.41C83.7904 235.41 82.1824 238.458 82.1824 238.458L72.6904 236.4L73.4944 233.544L83.7544 235.41Z" fill="#407BFF"/>
<path opacity="0.3" d="M104.743 137.909C98.5626 139.109 99.2166 162.179 99.9426 174.035C101.743 165.635 104.335 149.525 106.117 138.077C105.69 137.869 105.206 137.81 104.743 137.909Z" fill="black"/>
<path d="M117.06 125.082C117.06 125.082 119.022 160.308 118.506 174.678C117.972 189.6 111.444 238.56 111.444 238.56H103.464C103.464 238.56 104.478 190.494 104.124 175.818C103.734 159.816 98.9404 125.082 98.9404 125.082H117.06Z" fill="#263238"/>
<path d="M112.981 235.38C113.017 235.38 112.531 238.692 112.531 238.692H102.823L102.559 235.734L112.981 235.38Z" fill="#407BFF"/>
<path d="M119.347 89.1299C120.697 92.2619 122.167 95.4899 123.691 98.5919C125.153 101.665 126.804 104.645 128.635 107.514C129.085 108.198 129.547 108.852 130.021 109.464L130.381 109.908C130.501 110.046 130.537 110.106 130.657 110.232C130.861 110.46 131.143 110.712 131.419 110.97C132.571 112.014 133.975 113.04 135.367 114.066C138.175 116.1 141.121 118.116 144.007 120.162L142.381 123.306C138.958 122.037 135.622 120.544 132.397 118.836C130.705 117.958 129.074 116.97 127.513 115.878C127.072 115.562 126.647 115.223 126.241 114.864C126.037 114.684 125.773 114.42 125.587 114.234L125.065 113.664C124.393 112.908 123.775 112.146 123.187 111.372C120.993 108.34 119.035 105.145 117.331 101.814C116.491 100.182 115.669 98.5499 114.931 96.8819C114.193 95.2139 113.401 93.5999 112.729 91.7999L119.347 89.1299Z" fill="#B55B52"/>
<path d="M109.908 89.0638C106.272 94.4638 114.786 104.262 114.786 104.262L124.308 97.6618C123.645 94.3136 122.558 91.0635 121.074 87.9898C117.972 81.4678 112.68 84.9658 109.908 89.0638Z" fill="#407BFF"/>
<g opacity="0.4">
<path opacity="0.4" d="M109.908 89.0638C106.272 94.4638 114.786 104.262 114.786 104.262L124.308 97.6618C123.645 94.3136 122.558 91.0635 121.074 87.9898C117.972 81.4678 112.68 84.9658 109.908 89.0638Z" fill="white"/>
</g>
<path d="M141.145 119.531L147.001 120.359L145.471 125.279C145.471 125.279 141.313 125.279 140.071 122.075L141.145 119.531Z" fill="#B55B52"/>
<path d="M148.819 121.931L147.553 125.963L145.453 125.279L146.983 120.359L148.819 121.931Z" fill="#B55B52"/>
</svg>
