<svg width="300" height="300" viewBox="0 0 300 300" fill="none" xmlns="http://www.w3.org/2000/svg">
<path d="M211.8 159.978C198.852 165.324 201.192 174.816 192.834 183.036C181.902 193.782 166.434 188.67 152.232 192.264C140.778 195.168 136.098 202.506 126.366 207.486C113.004 214.326 102.3 210.27 88.4941 205.386C63.1381 196.416 40.7581 192.786 49.1881 164.946C51.0361 158.826 54.6421 154.536 54.0721 147.744C53.5621 141.69 49.0141 136.266 48.4381 130.296C46.9981 115.404 60.9481 110.226 65.2741 98.004C68.9941 87.498 63.3961 81.966 78.6301 76.674C90.4741 72.558 105.516 74.088 118.074 70.842C131.46 67.386 142.074 61.344 156.06 67.698C166.476 72.432 172.998 80.796 184.494 84.828C200.886 90.576 242.346 87.078 237.96 109.428C237.042 114.132 230.16 117.432 228.96 122.562C227.898 127.11 230.046 131.808 229.71 136.362C228.888 147.342 223.746 155.028 211.8 159.978Z" fill="#407BFF"/>
<path opacity="0.9" d="M211.8 159.978C198.852 165.324 201.192 174.816 192.834 183.036C181.902 193.782 166.434 188.67 152.232 192.264C140.778 195.168 136.098 202.506 126.366 207.486C113.004 214.326 102.3 210.27 88.4941 205.386C63.1381 196.416 40.7581 192.786 49.1881 164.946C51.0361 158.826 54.6421 154.536 54.0721 147.744C53.5621 141.69 49.0141 136.266 48.4381 130.296C46.9981 115.404 60.9481 110.226 65.2741 98.004C68.9941 87.498 63.3961 81.966 78.6301 76.674C90.4741 72.558 105.516 74.088 118.074 70.842C131.46 67.386 142.074 61.344 156.06 67.698C166.476 72.432 172.998 80.796 184.494 84.828C200.886 90.576 242.346 87.078 237.96 109.428C237.042 114.132 230.16 117.432 228.96 122.562C227.898 127.11 230.046 131.808 229.71 136.362C228.888 147.342 223.746 155.028 211.8 159.978Z" fill="white"/>
<path d="M150 256.536C214.25 256.536 266.334 253.495 266.334 249.744C266.334 245.993 214.25 242.952 150 242.952C85.7505 242.952 33.666 245.993 33.666 249.744C33.666 253.495 85.7505 256.536 150 256.536Z" fill="#F5F5F5"/>
<path d="M186.768 239.989L182.208 238.873L183.57 228.013L188.136 229.129L186.768 239.989Z" fill="#FFB573"/>
<path d="M226.512 244.95H221.814L218.16 234.072H222.852L226.512 244.95Z" fill="#FFB573"/>
<path d="M221.19 244.404H226.914C227.007 244.404 227.098 244.436 227.17 244.494C227.243 244.551 227.295 244.632 227.316 244.722L228.246 248.922C228.268 249.024 228.267 249.13 228.242 249.231C228.217 249.332 228.17 249.426 228.103 249.506C228.037 249.587 227.953 249.651 227.858 249.694C227.764 249.737 227.66 249.759 227.556 249.756C225.714 249.726 224.37 249.618 222.048 249.618C220.62 249.618 216.318 249.768 214.344 249.768C212.37 249.768 212.118 247.818 212.922 247.638C216.522 246.852 219.27 245.76 220.428 244.716C220.635 244.521 220.906 244.41 221.19 244.404Z" fill="#263238"/>
<path d="M182.399 238.357L187.379 239.557C187.47 239.58 187.549 239.632 187.606 239.707C187.663 239.781 187.693 239.872 187.691 239.965L187.601 244.243C187.6 244.346 187.575 244.448 187.529 244.54C187.483 244.632 187.416 244.713 187.334 244.775C187.251 244.838 187.156 244.881 187.055 244.901C186.954 244.921 186.849 244.917 186.749 244.891C184.949 244.423 182.387 243.691 180.149 243.133C177.509 242.485 175.193 242.071 172.097 241.333C170.225 240.877 170.165 238.855 170.993 238.879C174.749 238.969 177.689 239.599 181.235 238.447C181.608 238.311 182.01 238.28 182.399 238.357Z" fill="#263238"/>
<path d="M205.134 103.765C204.81 104.737 204.498 105.565 204.144 106.459C203.79 107.353 203.436 108.193 203.058 109.051C202.308 110.767 201.474 112.447 200.562 114.115C199.639 115.801 198.617 117.432 197.502 118.999C196.337 120.658 194.997 122.189 193.506 123.565C193.104 123.919 192.702 124.273 192.252 124.603C192.012 124.777 191.838 124.921 191.544 125.107C191.266 125.294 190.977 125.466 190.68 125.623C189.435 126.285 188.041 126.621 186.63 126.601C185.336 126.572 184.06 126.283 182.88 125.749C181.862 125.284 180.904 124.7 180.024 124.009C178.465 122.75 177.073 121.296 175.884 119.683C175.284 118.915 174.78 118.111 174.276 117.283C173.765 116.468 173.298 115.627 172.878 114.763L175.878 112.903C176.394 113.503 176.988 114.175 177.564 114.787C178.14 115.399 178.764 115.987 179.364 116.587C180.516 117.692 181.786 118.668 183.15 119.497C184.416 120.247 185.706 120.619 186.504 120.493C186.893 120.434 187.263 120.286 187.584 120.061C187.679 119.998 187.769 119.93 187.854 119.857C187.932 119.797 188.1 119.647 188.214 119.545C188.49 119.311 188.752 119.063 189 118.801C191.04 116.665 192.798 113.755 194.328 110.767C195.102 109.261 195.816 107.707 196.512 106.147C196.854 105.361 197.19 104.569 197.508 103.777C197.826 102.985 198.15 102.157 198.42 101.437L205.134 103.765Z" fill="#FFB573"/>
<path d="M207.042 101.454C208.044 105.828 198.45 117.024 198.45 117.024L189.822 110.712C191.731 107.076 194.026 103.657 196.668 100.512C200.622 96.0782 205.932 96.6542 207.042 101.454Z" fill="#407BFF"/>
<path opacity="0.2" d="M197.4 108.792C196.47 110.639 195.668 112.548 195 114.504L198.45 117.024C198.45 117.024 204.15 110.382 206.298 105.324C203.706 103.098 199.656 104.364 197.4 108.792Z" fill="black"/>
<path d="M176.339 113.569L174.149 110.635L170.435 115.015C170.435 115.015 172.685 117.271 175.469 116.389L176.339 113.569Z" fill="#FFB573"/>
<path d="M169.26 109.021L168.03 114.049L170.436 115.015L174.15 110.635L169.26 109.021Z" fill="#FFB573"/>
<path opacity="0.2" d="M183.57 228.013L182.868 233.617L187.434 234.727L188.136 229.129L183.57 228.013Z" fill="black"/>
<path opacity="0.2" d="M222.858 234.072H218.16L220.044 239.682H224.742L222.858 234.072Z" fill="black"/>
<path d="M228.054 100.8C226.352 105.77 225.025 110.86 224.082 116.028C223.404 119.628 222.882 123.078 222.546 126.228C221.682 133.572 221.484 139.2 221.142 141.09L196.248 137.736C194.562 110.856 201.948 97.5361 201.948 97.5361C203.948 97.2916 205.962 97.1734 207.978 97.1821C208.404 97.1821 208.836 97.1821 209.274 97.2121C212.826 97.4826 216.36 97.9574 219.858 98.6341C220.524 98.7601 221.196 98.8981 221.844 99.0481C225.156 99.7981 228.054 100.8 228.054 100.8Z" fill="#407BFF"/>
<path opacity="0.2" d="M209.645 104.232C205.085 103.632 203.045 104.952 202.679 106.632C201.215 113.184 206.279 119.286 206.279 119.286C206.279 119.286 213.713 114.78 215.177 108.228C215.555 106.548 214.199 104.814 209.645 104.232Z" fill="black"/>
<path d="M206.789 117.001C205.541 115.075 203.369 111.001 204.293 106.801C204.467 106.039 206.231 105.469 209.273 105.859C212.315 106.249 213.731 107.227 213.563 107.989C212.633 112.201 208.799 115.507 206.789 117.001Z" fill="white"/>
<path opacity="0.2" d="M224.082 116.028C223.404 119.628 222.882 123.078 222.546 126.228L219.18 118.44L224.082 116.028Z" fill="black"/>
<path d="M220.415 86.5684C219.287 89.8804 217.781 96.0304 219.857 98.6224C218.664 99.5809 217.279 100.271 215.795 100.647C214.312 101.023 212.765 101.075 211.259 100.8C208.337 100.344 208.469 98.2744 209.273 97.2304C213.191 96.8344 213.473 94.0024 213.173 91.2664L220.415 86.5684Z" fill="#FFB573"/>
<path opacity="0.2" d="M217.464 88.4766L213.174 91.2366C213.255 91.8732 213.279 92.5157 213.246 93.1566C214.728 93.1566 216.936 91.8186 217.29 90.3246C217.458 89.7238 217.517 89.098 217.464 88.4766Z" fill="black"/>
<path d="M211.799 73.2602C208.163 72.9662 206.903 81.7262 209.171 83.4062C211.439 85.0862 218.609 73.8002 211.799 73.2602Z" fill="#263238"/>
<path d="M221.513 81.4982C220.607 86.0702 220.313 88.7942 217.661 90.8462C213.677 93.9302 208.271 91.0562 207.791 86.3042C207.359 82.0262 208.913 75.2703 213.671 74.0403C214.72 73.7644 215.822 73.7613 216.872 74.0312C217.922 74.3011 218.886 74.8351 219.672 75.5824C220.458 76.3297 221.039 77.2656 221.362 78.301C221.684 79.3364 221.736 80.437 221.513 81.4982Z" fill="#FFB573"/>
<path d="M220.577 85.9747C218.327 87.3787 216.425 73.3387 222.407 75.1747C232.121 78.1807 223.259 84.3067 220.577 85.9747Z" fill="#263238"/>
<path d="M220.59 77.7784C219.228 76.0984 210.948 77.1124 207.132 74.6104C203.316 72.1084 205.734 66.6064 212.718 67.4944C209.466 67.8724 210.06 70.5844 212.292 70.5604C214.524 70.5364 219.66 67.7704 221.892 70.1284C225.006 73.4044 226.566 71.4604 228.12 73.3204C230.4 75.9964 223.542 81.4324 220.59 77.7784Z" fill="#263238"/>
<path d="M222.905 86.8622C222.533 87.3079 222.076 87.6756 221.561 87.9444C221.047 88.2131 220.484 88.3775 219.905 88.4282C218.357 88.5602 217.871 87.1022 218.549 85.7942C219.149 84.5942 220.697 83.1302 222.149 83.6162C223.601 84.1022 223.799 85.7462 222.905 86.8622Z" fill="#FFB573"/>
<path d="M181.416 232.141L189.144 234.001C189.144 234.001 194.124 207.679 196.434 193.201C197.136 188.803 198.702 182.719 200.598 176.221C202.998 168.037 205.896 159.205 208.254 152.299C210.744 145.021 212.61 139.873 212.61 139.873L196.248 137.671C196.248 137.671 183.78 175.945 182.4 190.201C180.912 205.039 181.416 232.141 181.416 232.141Z" fill="#263238"/>
<path opacity="0.2" d="M200.598 176.269C202.998 168.085 205.896 159.253 208.254 152.347L206.784 148.561C202.392 153.145 200.334 168.073 200.598 176.269Z" fill="black"/>
<path d="M205.074 138.906C205.074 138.906 204.264 179.148 205.368 192.864C206.568 207.864 217.836 238.596 217.836 238.596H226.44C226.44 238.596 220.698 210.486 218.94 195.9C216.936 179.28 221.136 141.072 221.136 141.072L205.074 138.906Z" fill="#263238"/>
<path d="M216.81 238.783H226.938V235.759L215.616 235.561L216.81 238.783Z" fill="#407BFF"/>
<path d="M180.402 232.086L189.606 234.336L190.332 231.36L180.084 228.69L180.402 232.086Z" fill="#407BFF"/>
<path d="M214.344 81.8462C214.296 82.2182 214.056 82.4942 213.81 82.4462C213.564 82.3982 213.402 82.0802 213.456 81.7082C213.51 81.3362 213.744 81.0542 213.99 81.1082C214.236 81.1622 214.392 81.4682 214.344 81.8462Z" fill="#263238"/>
<path d="M210.102 81.2703C210.048 81.6483 209.808 81.9243 209.562 81.8703C209.316 81.8163 209.16 81.5043 209.214 81.1263C209.268 80.7483 209.502 80.4723 209.748 80.5263C209.994 80.5803 210.15 80.8983 210.102 81.2703Z" fill="#263238"/>
<path d="M211.422 81.6426C210.823 82.7409 210.074 83.7506 209.196 84.6426C209.427 84.8645 209.703 85.0332 210.006 85.1369C210.308 85.2405 210.63 85.2766 210.948 85.2426L211.422 81.6426Z" fill="#ED893E"/>
<path d="M212.399 86.4002C212.235 86.3997 212.07 86.3877 211.907 86.3642C211.892 86.3628 211.878 86.3583 211.865 86.3511C211.852 86.3438 211.841 86.334 211.832 86.3221C211.823 86.3103 211.816 86.2968 211.813 86.2823C211.809 86.2679 211.809 86.2528 211.811 86.2382C211.813 86.2239 211.818 86.2102 211.826 86.1979C211.833 86.1856 211.843 86.175 211.855 86.1666C211.867 86.1582 211.88 86.1522 211.894 86.1491C211.908 86.1459 211.923 86.1456 211.937 86.1482C212.403 86.2207 212.879 86.1825 213.328 86.0365C213.776 85.8906 214.183 85.6411 214.517 85.3082C214.538 85.2884 214.566 85.2773 214.595 85.2773C214.624 85.2773 214.652 85.2884 214.673 85.3082C214.684 85.3183 214.692 85.3304 214.698 85.3438C214.704 85.3572 214.706 85.3716 214.706 85.3862C214.706 85.4008 214.704 85.4152 214.698 85.4286C214.692 85.442 214.684 85.4541 214.673 85.4642C214.377 85.7661 214.023 86.0048 213.632 86.1657C213.241 86.3266 212.822 86.4064 212.399 86.4002Z" fill="#263238"/>
<path d="M215.837 80.6522C215.798 80.6525 215.759 80.642 215.726 80.6219C215.692 80.6018 215.664 80.5729 215.645 80.5382C215.514 80.2918 215.326 80.0795 215.098 79.9181C214.87 79.7567 214.608 79.6506 214.331 79.6082C214.302 79.6066 214.274 79.5993 214.247 79.5868C214.221 79.5742 214.197 79.5565 214.178 79.5347C214.158 79.513 214.143 79.4876 214.134 79.4601C214.124 79.4325 214.12 79.4033 214.121 79.3742C214.126 79.3158 214.153 79.2615 214.196 79.2224C214.24 79.1833 214.297 79.1624 214.355 79.1642C214.706 79.2095 215.04 79.3377 215.332 79.538C215.623 79.7383 215.862 80.0051 216.029 80.3162C216.044 80.3417 216.054 80.3699 216.058 80.3992C216.062 80.4285 216.06 80.4583 216.052 80.4868C216.044 80.5153 216.031 80.542 216.012 80.5652C215.994 80.5885 215.971 80.6078 215.945 80.6222C215.912 80.6403 215.875 80.6506 215.837 80.6522Z" fill="#263238"/>
<path d="M208.47 79.5664C208.426 79.5657 208.382 79.5533 208.344 79.5304C208.295 79.4964 208.262 79.4448 208.251 79.3865C208.239 79.3283 208.251 79.268 208.284 79.2184C208.473 78.9203 208.731 78.6718 209.036 78.4934C209.341 78.3149 209.683 78.2117 210.036 78.1924C210.095 78.1924 210.151 78.2158 210.193 78.2574C210.235 78.299 210.258 78.3555 210.258 78.4144C210.258 78.4733 210.235 78.5297 210.193 78.5714C210.151 78.613 210.095 78.6364 210.036 78.6364C209.756 78.6526 209.484 78.7364 209.244 78.8806C209.004 79.0248 208.802 79.2251 208.656 79.4644C208.636 79.4956 208.608 79.5212 208.576 79.539C208.543 79.5568 208.507 79.5662 208.47 79.5664Z" fill="#263238"/>
<path d="M219.636 245.226C219.316 245.25 218.997 245.166 218.73 244.986C218.645 244.913 218.58 244.82 218.54 244.715C218.5 244.611 218.487 244.498 218.502 244.386C218.502 244.321 218.519 244.256 218.553 244.2C218.587 244.144 218.636 244.098 218.694 244.068C219.21 243.804 220.728 244.734 220.896 244.842C220.916 244.853 220.932 244.87 220.942 244.891C220.951 244.911 220.954 244.934 220.95 244.956C220.946 244.978 220.936 244.998 220.921 245.014C220.906 245.03 220.887 245.041 220.866 245.046C220.464 245.152 220.052 245.213 219.636 245.226ZM218.94 244.254C218.893 244.244 218.844 244.244 218.796 244.254C218.773 244.268 218.754 244.287 218.742 244.31C218.729 244.334 218.723 244.36 218.724 244.386C218.713 244.461 218.72 244.537 218.747 244.607C218.773 244.677 218.817 244.74 218.874 244.788C219.399 245.029 219.996 245.059 220.542 244.872C220.053 244.565 219.509 244.355 218.94 244.254Z" fill="#407BFF"/>
<path d="M220.842 245.059H220.788C220.302 244.795 219.36 243.763 219.462 243.259C219.477 243.176 219.521 243.101 219.586 243.048C219.65 242.994 219.732 242.965 219.816 242.965C219.9 242.955 219.986 242.963 220.068 242.988C220.149 243.013 220.225 243.054 220.29 243.109C220.836 243.559 220.944 244.909 220.95 244.969C220.951 244.988 220.948 245.008 220.939 245.026C220.931 245.044 220.918 245.059 220.902 245.071C220.881 245.072 220.86 245.068 220.842 245.059ZM219.894 243.157H219.84C219.696 243.157 219.684 243.241 219.678 243.271C219.618 243.583 220.218 244.357 220.704 244.723C220.671 244.187 220.476 243.675 220.146 243.253C220.076 243.191 219.987 243.157 219.894 243.157Z" fill="#407BFF"/>
<path d="M181.764 238.872C180.99 238.842 179.64 238.704 179.244 238.134C179.187 238.051 179.151 237.957 179.139 237.858C179.126 237.758 179.137 237.658 179.172 237.564C179.189 237.505 179.221 237.451 179.265 237.408C179.31 237.365 179.364 237.334 179.424 237.318C180.054 237.138 181.656 238.518 181.824 238.68C181.839 238.697 181.85 238.717 181.855 238.739C181.86 238.761 181.86 238.784 181.854 238.806C181.845 238.824 181.833 238.839 181.817 238.851C181.801 238.862 181.783 238.87 181.764 238.872ZM179.514 237.522H179.466C179.442 237.528 179.421 237.54 179.404 237.557C179.387 237.574 179.375 237.595 179.37 237.618C179.347 237.68 179.339 237.747 179.347 237.813C179.356 237.879 179.38 237.941 179.418 237.996C179.64 238.314 180.378 238.542 181.428 238.596C180.786 238.11 179.886 237.492 179.514 237.522Z" fill="#407BFF"/>
<path d="M181.765 238.873C181.739 238.882 181.712 238.882 181.687 238.873C181.195 238.489 180.349 237.235 180.553 236.743C180.607 236.623 180.727 236.497 181.033 236.539C181.143 236.551 181.249 236.587 181.344 236.644C181.439 236.701 181.521 236.777 181.585 236.869C182.053 237.469 181.873 238.747 181.867 238.801C181.863 238.819 181.854 238.837 181.842 238.852C181.829 238.867 181.813 238.878 181.795 238.885L181.765 238.873ZM180.883 236.737C180.787 236.737 180.769 236.791 180.763 236.809C180.637 237.109 181.189 238.063 181.669 238.537C181.74 238.004 181.65 237.463 181.411 236.983C181.363 236.916 181.302 236.86 181.232 236.817C181.162 236.775 181.084 236.747 181.003 236.737H180.883Z" fill="#407BFF"/>
<path d="M230.652 106.266C230.574 107.154 230.49 107.916 230.376 108.726C230.262 109.536 230.142 110.322 230.01 111.126C229.74 112.716 229.41 114.294 229.026 115.866C228.642 117.438 228.204 119.01 227.67 120.57C227.149 122.158 226.532 123.713 225.822 125.226L225.264 126.372L225.228 126.444L225.15 126.588L224.988 126.876C224.872 127.063 224.746 127.243 224.61 127.416C224.35 127.746 224.057 128.048 223.734 128.316C223.184 128.768 222.564 129.127 221.898 129.378C221.357 129.579 220.798 129.732 220.23 129.834C218.404 130.102 216.546 130.078 214.728 129.762C211.496 129.227 208.342 128.296 205.338 126.99L206.34 123.6C207.798 123.792 209.34 123.984 210.804 124.104C212.268 124.224 213.756 124.332 215.166 124.32C216.427 124.354 217.687 124.213 218.91 123.9C219.378 123.762 219.672 123.522 219.594 123.528C219.562 123.537 219.534 123.554 219.51 123.576L219.456 123.636L219.426 123.672V123.612L219.804 122.64C220.782 119.919 221.551 117.127 222.102 114.288C222.414 112.842 222.66 111.378 222.912 109.92C223.036 109.188 223.15 108.456 223.254 107.724L223.548 105.576L230.652 106.266Z" fill="#FFB573"/>
<path d="M231.516 103.465C234.138 107.107 231.108 118.333 231.108 118.333L218.784 118.729C218.784 118.729 219.786 111.331 221.61 105.817C223.59 99.8165 228.33 99.0545 231.516 103.465Z" fill="#407BFF"/>
<path d="M206.915 123.738L202.589 121.734V127.734C202.589 127.734 206.651 128.628 207.359 126.534L206.915 123.738Z" fill="#FFB573"/>
<path d="M198.762 122.598L198.978 127.56L202.566 127.728L202.59 121.734L198.762 122.598Z" fill="#FFB573"/>
<path d="M182.112 161.958H67.4402C65.9451 161.932 64.5127 161.353 63.4199 160.332C62.3271 159.311 61.6517 157.922 61.5242 156.432L56.4002 83.3037C56.3399 82.5958 56.4284 81.8831 56.6599 81.2114C56.8914 80.5397 57.2609 79.9238 57.7446 79.4034C58.2283 78.883 58.8155 78.4695 59.4685 78.1895C60.1214 77.9096 60.8258 77.7693 61.5362 77.7777H176.184C177.679 77.8048 179.111 78.3845 180.203 79.4049C181.296 80.4254 181.971 81.8143 182.1 83.3037L187.248 156.432C187.309 157.14 187.22 157.852 186.989 158.524C186.757 159.196 186.388 159.812 185.904 160.332C185.42 160.852 184.833 161.266 184.18 161.546C183.527 161.826 182.823 161.966 182.112 161.958Z" fill="#263238"/>
<path d="M214.914 221.64H85.7039C82.2779 221.64 78.8219 219.426 78.0359 216.744L63.0719 165.888C62.4299 163.716 64.4039 161.958 67.4399 161.958H182.112C185.154 161.958 188.628 163.716 189.846 165.888L218.4 216.744C219.9 219.426 218.34 221.64 214.914 221.64Z" fill="#263238"/>
<path d="M183.492 161.958H68.8261C67.3306 161.933 65.8974 161.354 64.8044 160.333C63.7113 159.312 63.0363 157.922 62.9101 156.432L57.7561 83.3036C57.6968 82.5959 57.7859 81.8836 58.0177 81.2123C58.2496 80.541 58.6191 79.9255 59.1026 79.4053C59.5861 78.8851 60.1729 78.4716 60.8255 78.1913C61.4781 77.911 62.182 77.7701 62.8921 77.7776H177.564C179.059 77.8034 180.492 78.3826 181.584 79.4033C182.677 80.4241 183.353 81.8137 183.48 83.3036L188.634 156.432C188.694 157.14 188.604 157.853 188.372 158.524C188.14 159.196 187.77 159.812 187.286 160.332C186.801 160.852 186.214 161.266 185.561 161.546C184.907 161.826 184.203 161.966 183.492 161.958Z" fill="#407BFF"/>
<path d="M69.7629 157.356C69.1725 157.344 68.6074 157.114 68.1757 156.711C67.744 156.308 67.476 155.76 67.4229 155.172L62.4489 84.5639C62.4255 84.2846 62.4607 84.0036 62.5523 83.7387C62.6439 83.4739 62.7899 83.2311 62.9809 83.026C63.1718 82.8209 63.4036 82.658 63.6612 82.5478C63.9189 82.4376 64.1967 82.3824 64.4769 82.3859H176.629C177.217 82.3996 177.78 82.629 178.211 83.0306C178.641 83.4321 178.909 83.9778 178.963 84.5639L183.937 155.172C183.96 155.451 183.925 155.733 183.834 155.998C183.742 156.263 183.596 156.506 183.405 156.712C183.214 156.917 182.983 157.081 182.725 157.192C182.467 157.303 182.189 157.359 181.909 157.356H69.7629Z" fill="white"/>
<path opacity="0.2" d="M121.036 80.8287C121.351 80.5022 121.323 79.9632 120.972 79.6247C120.622 79.2863 120.082 79.2766 119.767 79.6031C119.451 79.9297 119.48 80.4687 119.83 80.8071C120.18 81.1456 120.72 81.1552 121.036 80.8287Z" fill="black"/>
<path d="M216.301 221.64H87.0849C83.6589 221.64 80.2089 219.426 79.4169 216.744L64.4529 165.888C63.8169 163.716 65.7849 161.958 68.8269 161.958H183.493C186.535 161.958 190.009 163.716 191.227 165.888L219.775 216.744C221.281 219.426 219.727 221.64 216.301 221.64Z" fill="#407BFF"/>
<path opacity="0.2" d="M80.1235 194.477C78.8395 194.477 77.5495 193.685 77.2555 192.725L69.3715 166.799C69.1075 165.941 69.8815 165.239 71.0935 165.239H184.02C184.617 165.239 185.205 165.38 185.737 165.651C186.269 165.922 186.729 166.316 187.079 166.799L201.39 192.737C201.918 193.697 201.306 194.489 200.021 194.489L80.1235 194.477Z" fill="black"/>
<path opacity="0.2" d="M131.856 217.115C131.474 217.116 131.099 217.013 130.771 216.816C130.443 216.62 130.175 216.337 129.996 215.999L123.396 199.103C123.174 198.533 123.606 198.065 124.362 198.065H158.862C159.234 198.065 159.6 198.16 159.925 198.342C160.249 198.524 160.522 198.786 160.716 199.103L168.558 215.999C168.846 216.599 168.438 217.115 167.658 217.115H131.856Z" fill="black"/>
<path d="M66.8458 146.958L69.6778 141.342H79.0318L81.6658 145.398L84.2998 149.448L82.2538 153.498L80.3098 157.356H80.5198L82.4218 153.588L84.4678 149.538H93.8218L96.4558 153.594L98.8978 157.356H99.1258L96.5998 153.492L93.9658 149.436L96.0118 145.392L98.0578 141.342H107.4L110.034 145.398L112.668 149.448L110.628 153.498L108.678 157.356H108.888L110.796 153.588L112.836 149.538H122.19L124.824 153.594L127.266 157.356H127.494L124.986 153.492L122.4 149.436L124.44 145.392L126.486 141.342H135.834L138.468 145.398L141.102 149.448L139.062 153.498L137.112 157.356H137.322L139.2 153.6L141.24 149.55H150.6L153.234 153.606L155.676 157.368H155.904L153.396 153.504L150.762 149.448L152.802 145.404L154.848 141.354H164.202L166.836 145.41L169.47 149.46L167.4 153.498L165.45 157.356H165.666L167.568 153.588L169.608 149.538H178.98L181.614 153.594L183.534 156.546L183.654 156.384L181.8 153.492L179.166 149.436L181.206 145.392L183.006 141.792V141.426L181.056 145.29L179.01 149.34H169.62L166.986 145.284L164.352 141.234L166.398 137.184L168.438 133.14H177.792L182.946 141.066L182.916 140.676L177.954 133.038L181.836 125.346V124.974L177.81 132.948H168.432L165.798 128.898L163.164 124.842L165.21 120.798L167.256 116.748H176.604L181.8 124.746L181.77 124.356L176.772 116.658L180.684 108.912V108.546L176.628 116.574H167.25L164.616 112.518L162 108.468L164.04 104.418L166.086 100.374H175.44L180.66 108.408V108.018L175.62 100.272L179.562 92.4717V92.1057L175.41 100.2H166.062L163.428 96.1437L160.8 92.0757L162.84 88.0257L164.88 83.9997H174.234L176.868 88.0497L179.49 92.0937V91.7037L177 87.9357L174.366 83.8797L175.122 82.3857H174.912L174.204 83.7897H164.874L163.956 82.3857H163.734L164.712 83.8917L162.666 87.9417L160.626 91.9857H151.272L148.638 87.9357L146.004 83.8797L146.76 82.3857H146.55L145.836 83.7897H136.488L135.6 82.3857H135.378L136.356 83.8917L134.31 87.9417L132.27 91.9857H122.886L120.252 87.9357L117.6 83.8797L118.356 82.3857H118.146L117.432 83.7897H108.096L107.184 82.3857H106.956L107.94 83.8917L105.894 87.9417L103.854 91.9857H94.4998L91.8658 87.9357L89.2318 83.8797L89.9878 82.3857H89.7778L89.0638 83.7897H79.7098L78.7978 82.3857H78.5998L79.5838 83.8917L77.5378 87.9417L75.4918 91.9857H66.1138L62.5918 86.5857V86.9757L65.9278 92.1057L63.3178 97.2717L63.3478 97.6377L66.0958 92.1957H75.4498L78.0778 96.2457L80.7118 100.302L78.6718 104.346L76.6258 108.396H67.2958L64.6678 104.34L63.7438 102.918V103.308L64.4818 104.442L67.1158 108.492L65.0698 112.542L64.4698 113.742V114.108L65.2018 112.656L67.2478 108.606H76.5958L79.2298 112.662L81.8638 116.712L79.8238 120.762L77.7778 124.806H68.4838L65.8498 120.756L64.8898 119.28V119.664L65.6638 120.864L68.2978 124.914L66.2518 128.958L65.6518 130.194V130.56L66.4138 129.048L68.4598 125.004H77.8078L80.4418 129.054L83.0758 133.11L81.0358 137.154L78.9898 141.204H69.6718L66.0418 135.6L66.0718 135.99L69.5158 141.288L66.8218 146.622L66.8458 146.958ZM107.4 141.156H98.0578L95.3998 137.1L92.7718 133.05L94.8118 129L96.8578 124.956H106.206L108.84 129.006L111.474 133.062L109.434 137.106L107.4 141.156ZM148.2 116.556H138.858L136.2 112.518L133.566 108.468L135.612 104.418L137.658 100.374H147.006L149.64 104.424L152.274 108.474L150.234 112.524L148.2 116.556ZM148.2 116.742L150.834 120.798L153.468 124.848L151.428 128.892L149.4 132.96H140.046L137.4 128.91L134.766 124.854L136.812 120.81L138.852 116.76L148.2 116.742ZM136.05 112.602L138.684 116.652L136.638 120.702L134.592 124.746H125.262L122.628 120.696L120 116.658L122.04 112.614L124.086 108.564H133.44L136.05 112.602ZM125.1 124.866L123.054 128.91L121.014 132.96H111.66L109.026 128.91L106.392 124.854L108.438 120.81L110.478 116.76H119.832L122.466 120.816L125.1 124.866ZM121.872 112.524L119.826 116.574H110.472L107.838 112.518L105.204 108.468L107.25 104.418L109.29 100.374H118.644L121.278 104.424L123.912 108.474L121.872 112.524ZM107.682 112.62L110.31 116.67L108.27 120.72L106.2 124.764H96.8758L94.2418 120.714L91.6078 116.658L93.6478 112.614L95.6938 108.564H105.048L107.682 112.62ZM124.242 145.302L122.202 149.352H112.848L110.214 145.296L107.58 141.246L109.626 137.196L111.666 133.152H121.02L123.654 137.202L126.288 141.258L124.242 145.302ZM135.798 141.156H126.45L123.816 137.1L121.2 133.05L123.24 129L125.286 124.956H134.64L137.274 129.006L139.902 133.062L137.862 137.106L135.798 141.156ZM152.598 145.302L150.558 149.352H141.234L138.6 145.296L135.966 141.246L138.012 137.196L140.052 133.152H149.4L152.034 137.202L154.668 141.258L152.598 145.302ZM165.642 129L168.276 133.056L166.23 137.1L164.184 141.15H154.836L152.202 137.094L149.568 133.044L151.608 128.994L153.654 124.95H163.008L165.642 129ZM164.442 112.614L167.076 116.664L165.03 120.714L162.99 124.758H153.648L151.014 120.708L148.38 116.652L150.426 112.608L152.466 108.558H161.82L164.442 112.614ZM151.242 92.1717H160.596L163.23 96.2217L165.864 100.278L163.818 104.322L161.778 108.372H152.46L149.826 104.316L147.192 100.266L149.238 96.2157L151.242 92.1717ZM134.442 88.0197L136.488 83.9757H145.842L148.47 88.0257L151.104 92.0817L149.064 96.1257L147 100.2H137.67L135.042 96.1437L132.408 92.0937L134.442 88.0197ZM122.886 92.1717H132.24L134.874 96.2217L137.508 100.278L135.462 104.322L133.422 108.372H124.074L121.44 104.316L118.8 100.272L120.84 96.2217L122.886 92.1717ZM106.086 88.0197L108.132 83.9757H117.48L120.114 88.0257L122.748 92.0817L120.708 96.1257L118.638 100.2H109.284L106.65 96.1437L104.016 92.0937L106.086 88.0197ZM94.5298 92.1717H103.86L106.494 96.2217L109.128 100.278L107.082 104.322L105.036 108.372H95.6878L93.0538 104.316L90.4198 100.266L92.4598 96.2157L94.5298 92.1717ZM78.2878 96.1197L75.6538 92.0697L77.6998 88.0197L79.7398 83.9757H89.0938L91.7278 88.0257L94.3618 92.0817L92.3158 96.1257L90.2758 100.176H80.8978L78.2878 96.1197ZM79.4878 112.512L76.7998 108.468L78.8458 104.418L80.8858 100.374H90.2398L92.8738 104.424L95.5078 108.474L93.4618 112.524L91.4218 116.574H82.0858L79.4878 112.512ZM80.6878 128.904L77.9998 124.854L80.0458 120.81L82.0858 116.76H91.4398L94.0738 120.816L96.7078 124.866L94.6618 128.91L92.6218 132.96H83.2738L80.6878 128.904ZM81.2878 137.19L83.3338 133.146H92.6878L95.3218 137.196L97.9558 141.252L95.9098 145.296L93.8698 149.346H84.4618L81.8278 145.29L79.1998 141.246L81.2878 137.19Z" fill="#E0E0E0"/>
<path d="M70.7408 157.355L67.1948 151.901L67.2188 152.291L70.5128 157.355H70.7408Z" fill="#E0E0E0"/>
<path d="M147.095 149.91H105.599C104.765 149.898 103.966 149.574 103.36 149C102.754 148.427 102.386 147.646 102.329 146.814L100.739 118.266C100.713 117.867 100.769 117.467 100.904 117.091C101.039 116.715 101.251 116.371 101.525 116.081C101.799 115.79 102.131 115.559 102.498 115.403C102.866 115.246 103.262 115.167 103.661 115.17H145.169C146.003 115.182 146.801 115.507 147.406 116.08C148.011 116.654 148.378 117.434 148.433 118.266L149.999 146.814C150.026 147.211 149.97 147.61 149.836 147.984C149.702 148.359 149.492 148.702 149.22 148.993C148.947 149.283 148.618 149.514 148.253 149.672C147.887 149.83 147.493 149.911 147.095 149.91Z" fill="#407BFF"/>
<path opacity="0.2" d="M103.656 115.199C103.257 115.196 102.861 115.275 102.493 115.432C102.126 115.589 101.794 115.819 101.52 116.11C101.246 116.401 101.034 116.745 100.899 117.121C100.764 117.497 100.708 117.897 100.734 118.295L102.324 146.843C102.382 147.676 102.749 148.456 103.355 149.029C103.961 149.603 104.76 149.928 105.594 149.939H126.342L124.41 115.199H103.656Z" fill="black"/>
<path opacity="0.2" d="M122.131 141.719L122.611 132.647C121.89 132.195 121.286 131.579 120.848 130.849C120.41 130.12 120.151 129.296 120.091 128.447C120.046 127.793 120.138 127.137 120.36 126.52C120.581 125.903 120.929 125.339 121.38 124.864C121.831 124.388 122.377 124.012 122.981 123.758C123.585 123.504 124.236 123.379 124.891 123.389C126.243 123.408 127.538 123.933 128.521 124.861C129.504 125.789 130.104 127.051 130.201 128.399C130.253 129.217 130.092 130.033 129.733 130.77C129.375 131.506 128.831 132.136 128.155 132.599L129.637 141.671L122.131 141.719Z" fill="black"/>
<path d="M129.419 128.399C129.344 127.25 128.837 126.171 128 125.379C127.164 124.587 126.059 124.14 124.907 124.127C124.355 124.121 123.808 124.229 123.3 124.445C122.792 124.66 122.334 124.979 121.956 125.38C121.577 125.782 121.285 126.257 121.099 126.777C120.913 127.296 120.837 127.849 120.875 128.399C120.928 129.2 121.19 129.973 121.637 130.64C122.084 131.307 122.698 131.844 123.419 132.197L122.963 140.909H128.723L127.301 132.197C127.984 131.837 128.547 131.286 128.923 130.612C129.299 129.938 129.471 129.169 129.419 128.399Z" fill="#263238"/>
<path d="M144.091 113.123H138.601L138.265 107.165C138.007 103.32 136.311 99.7128 133.513 97.062C130.716 94.4113 127.022 92.9115 123.169 92.8613C121.322 92.843 119.491 93.2068 117.791 93.9297C116.091 94.6527 114.559 95.7192 113.291 97.0623C112.022 98.4054 111.045 99.9962 110.421 101.735C109.797 103.473 109.539 105.322 109.663 107.165L109.993 113.123H104.503L104.173 107.165C103.999 104.614 104.355 102.054 105.218 99.6472C106.081 97.24 107.432 95.0374 109.188 93.1779C110.943 91.3183 113.064 89.8419 115.417 88.8416C117.771 87.8413 120.306 87.3387 122.863 87.3653C133.777 87.3653 143.149 96.2453 143.761 107.165L144.091 113.123Z" fill="#407BFF"/>
</svg>
