<svg width="450" height="450" viewBox="0 0 450 450" fill="none" xmlns="http://www.w3.org/2000/svg">
<path fill-rule="evenodd" clip-rule="evenodd" d="M359.08 132.805C372.862 155.563 370.48 186.319 359.116 214.12C348.72 239.555 321.459 256.549 300.059 277.2C278.514 297.992 262.606 327.217 233.664 335.184C204.631 343.175 180.729 326.083 155.66 316.948C131.195 308.032 104.873 301.464 89.7021 282.723C73.0075 262.1 58.6503 235.959 67.5097 208.052C76.2312 180.578 109.379 163.703 133.989 143.216C156.164 124.756 176.267 103.301 203.74 94.6444C232.283 85.6507 260.741 88.5605 286.984 95.0074C315.354 101.977 345.455 110.307 359.08 132.805Z" fill="#ECF2FF"/>
<path d="M234.249 413.34C322.464 413.34 393.977 409.165 393.977 404.014C393.977 398.864 322.464 394.689 234.249 394.689C146.034 394.689 74.5215 398.864 74.5215 404.014C74.5215 409.165 146.034 413.34 234.249 413.34Z" fill="#F5F5F5"/>
<path d="M357.974 245.869L363.74 312.663C364.202 318.1 360.882 322.87 356.326 323.257L229.575 334.131C225.044 334.527 220.95 330.391 220.514 324.962L214.747 258.16C214.632 256.906 214.73 255.642 215.035 254.42C215.941 250.688 218.693 247.829 222.136 247.574L348.887 236.692C352.322 236.395 355.477 238.71 357.051 242.219C357.558 243.376 357.87 244.61 357.974 245.869Z" fill="#407BFF"/>
<path opacity="0.1" d="M357.974 245.869L363.74 312.663C364.202 318.1 360.882 322.87 356.326 323.257L229.575 334.131C225.044 334.527 220.95 330.391 220.514 324.962L214.747 258.16C214.632 256.906 214.73 255.642 215.035 254.42C215.941 250.688 218.693 247.829 222.136 247.574L348.887 236.692C352.322 236.395 355.477 238.71 357.051 242.219C357.558 243.376 357.87 244.61 357.974 245.869Z" fill="black"/>
<path d="M363.652 233.924L371.94 302.431C372.607 308 369.361 313.025 364.715 313.586L234.727 329.312C230.08 329.872 225.722 325.77 225.047 320.193L216.759 251.693C216.602 250.405 216.657 249.1 216.924 247.829C217.748 243.966 220.45 240.959 223.984 240.531L353.972 224.812C357.507 224.384 360.868 226.649 362.573 230.208C363.135 231.379 363.499 232.634 363.652 233.924Z" fill="#407BFF"/>
<path opacity="0.1" d="M362.575 230.208L303.616 269.907C300.73 271.88 297.412 273.129 293.942 273.549C290.472 273.969 286.952 273.548 283.679 272.321L216.951 247.829C217.775 243.966 220.477 240.959 224.011 240.531L353.999 224.812C357.509 224.384 360.87 226.649 362.575 230.208Z" fill="black"/>
<path d="M340.579 245.012L323.642 256.413L318.097 260.153L303.615 269.907C300.804 271.836 297.578 273.075 294.199 273.525C290.82 273.974 287.382 273.621 284.165 272.494L283.646 272.321L275.523 269.339L257.235 262.625L248.684 259.486L238.996 255.927L238.295 238.8L236.722 200.741L311.136 197.717L339.5 219.21L339.796 226.517L340.579 245.012Z" fill="#407BFF"/>
<path opacity="0.7" d="M340.579 245.012L323.642 256.413L318.097 260.153L303.615 269.907C300.804 271.836 297.578 273.075 294.199 273.525C290.82 273.974 287.382 273.621 284.165 272.494L283.646 272.321L275.523 269.339L257.235 262.625L248.684 259.486L238.996 255.927L238.295 238.8L236.722 200.741L311.136 197.717L339.5 219.21L339.796 226.517L340.579 245.012Z" fill="#FAFAFA"/>
<path opacity="0.9" d="M330.09 226.781L247.71 230.125C247.25 230.143 246.802 229.981 246.46 229.673C246.118 229.366 245.91 228.937 245.881 228.478C245.865 228.019 246.028 227.573 246.335 227.233C246.643 226.893 247.071 226.687 247.528 226.657L329.909 223.312C330.368 223.294 330.817 223.456 331.158 223.764C331.5 224.072 331.708 224.501 331.738 224.96C331.756 225.419 331.593 225.866 331.285 226.206C330.977 226.547 330.548 226.753 330.09 226.781Z" fill="white"/>
<path opacity="0.9" d="M330.529 237.73L248.148 241.074C247.689 241.092 247.24 240.93 246.899 240.622C246.557 240.315 246.349 239.886 246.319 239.427C246.303 238.968 246.466 238.52 246.774 238.179C247.081 237.838 247.509 237.63 247.967 237.598L330.348 234.253C330.807 234.237 331.254 234.4 331.595 234.707C331.936 235.015 332.145 235.443 332.176 235.901C332.19 236.359 332.027 236.805 331.72 237.146C331.413 237.487 330.986 237.696 330.529 237.73Z" fill="white"/>
<path opacity="0.9" d="M330.973 248.67L248.592 252.014C248.133 252.033 247.684 251.87 247.343 251.563C247.001 251.255 246.793 250.826 246.763 250.367C246.745 249.908 246.908 249.461 247.216 249.12C247.524 248.78 247.953 248.574 248.411 248.546L330.791 245.201C331.25 245.183 331.698 245.346 332.038 245.654C332.378 245.962 332.584 246.391 332.612 246.849C332.63 247.306 332.469 247.753 332.163 248.093C331.856 248.433 331.429 248.64 330.973 248.67Z" fill="white"/>
<path opacity="0.9" d="M323.638 256.413L318.094 260.153L257.231 262.625L248.68 259.486C248.751 259.478 248.823 259.478 248.894 259.486L323.638 256.413Z" fill="white"/>
<path opacity="0.9" d="M301.093 270.047V270.113C301.094 270.561 300.925 270.993 300.618 271.321C300.312 271.648 299.893 271.847 299.446 271.876L284.197 272.494L283.678 272.321L275.555 269.339L299.306 268.367C299.764 268.36 300.206 268.531 300.54 268.845C300.874 269.159 301.072 269.59 301.093 270.047Z" fill="white"/>
<path opacity="0.1" d="M339.533 219.21L319.827 218.362L311.169 197.717L339.533 219.21Z" fill="#263238"/>
<path d="M339.533 219.21L320.412 215.94L311.169 197.717L339.533 219.21Z" fill="#407BFF"/>
<path d="M377.434 139.318C377.434 156.074 359.071 172.542 356.32 172.542C353.568 172.542 335.206 156.066 335.206 139.318C335.206 128.089 344.655 118.978 356.32 118.978C367.985 118.978 377.434 128.089 377.434 139.318Z" fill="#407BFF"/>
<path opacity="0.1" d="M352.4 135.14C348.577 139.334 343.387 140.833 340.809 138.436C338.23 136.038 339.235 130.782 343.05 126.589C346.864 122.396 352.062 120.897 354.649 123.245C357.235 125.592 356.222 130.947 352.4 135.14Z" fill="white"/>
<path opacity="0.1" d="M341.14 152.021C340.637 150.769 340.769 149.549 341.437 149.269C342.104 148.989 343.084 149.796 343.554 151.049C344.023 152.301 343.924 153.52 343.257 153.792C342.59 154.064 341.642 153.265 341.14 152.021Z" fill="white"/>
<path d="M355.412 225.265C355.323 225.263 355.238 225.227 355.175 225.164C355.112 225.101 355.076 225.016 355.074 224.927C355.05 223.816 355.385 222.727 356.03 221.822C356.582 221.011 356.878 220.052 356.878 219.07C356.878 218.089 356.582 217.13 356.03 216.319C355.407 215.402 355.075 214.32 355.075 213.213C355.075 212.105 355.407 211.023 356.03 210.107C356.583 209.298 356.879 208.34 356.879 207.36C356.879 206.379 356.583 205.422 356.03 204.612C355.407 203.698 355.074 202.617 355.074 201.511C355.074 200.404 355.407 199.324 356.03 198.409C356.583 197.6 356.879 196.642 356.879 195.662C356.879 194.681 356.583 193.724 356.03 192.914C355.407 192 355.074 190.919 355.074 189.813C355.074 188.706 355.407 187.626 356.03 186.711C356.583 185.902 356.879 184.944 356.879 183.964C356.879 182.983 356.583 182.026 356.03 181.216C355.407 180.302 355.074 179.221 355.074 178.115C355.074 177.008 355.407 175.928 356.03 175.013C356.594 174.212 356.883 173.249 356.853 172.27C356.866 172.188 356.908 172.114 356.97 172.06C357.033 172.007 357.113 171.977 357.195 171.977C357.278 171.977 357.358 172.007 357.42 172.06C357.483 172.114 357.525 172.188 357.537 172.27C357.56 173.378 357.225 174.465 356.582 175.367C356.019 176.172 355.73 177.137 355.758 178.119C355.729 179.098 356.018 180.061 356.582 180.862C357.204 181.777 357.537 182.857 357.537 183.964C357.537 185.07 357.204 186.151 356.582 187.065C356.024 187.873 355.725 188.831 355.725 189.813C355.725 190.794 356.024 191.752 356.582 192.56C357.204 193.475 357.537 194.555 357.537 195.662C357.537 196.768 357.204 197.849 356.582 198.763C356.024 199.571 355.725 200.529 355.725 201.511C355.725 202.492 356.024 203.45 356.582 204.258C357.204 205.173 357.537 206.253 357.537 207.36C357.537 208.466 357.204 209.547 356.582 210.461C356.023 211.27 355.724 212.23 355.724 213.213C355.724 214.196 356.023 215.155 356.582 215.964C357.204 216.881 357.537 217.963 357.537 219.07C357.537 220.178 357.204 221.26 356.582 222.176C356.016 222.98 355.727 223.945 355.758 224.927C355.758 224.972 355.749 225.017 355.731 225.059C355.714 225.1 355.688 225.138 355.656 225.169C355.624 225.201 355.585 225.225 355.544 225.242C355.502 225.258 355.457 225.266 355.412 225.265Z" fill="#263238"/>
<path d="M356.318 171.751C355.668 171.751 351.375 175.623 351.375 179.561H361.278C361.278 175.623 356.994 171.751 356.318 171.751Z" fill="#407BFF"/>
<path d="M357.29 171.882H355.346C355.187 171.882 355.058 172.012 355.058 172.171V172.377C355.058 172.536 355.187 172.665 355.346 172.665H357.29C357.45 172.665 357.579 172.536 357.579 172.377V172.171C357.579 172.012 357.45 171.882 357.29 171.882Z" fill="#263238"/>
<path d="M244.956 154.978C244.956 171.726 226.594 188.194 223.842 188.194C221.091 188.194 202.728 171.718 202.728 154.978C202.728 143.741 212.177 134.63 223.842 134.63C235.507 134.63 244.956 143.741 244.956 154.978Z" fill="#263238"/>
<path opacity="0.1" d="M220.419 151.48C224.24 147.286 225.246 141.98 222.666 139.63C220.086 137.28 214.897 138.776 211.077 142.97C207.256 147.164 206.251 152.469 208.83 154.819C211.41 157.169 216.599 155.674 220.419 151.48Z" fill="white"/>
<path opacity="0.1" d="M209.154 168.356C208.652 167.104 208.784 165.885 209.451 165.605C210.118 165.325 211.099 166.132 211.568 167.384C212.038 168.636 211.939 169.856 211.272 170.136C210.604 170.416 209.657 169.608 209.154 168.356Z" fill="white"/>
<path d="M222.905 240.917C222.816 240.917 222.73 240.882 222.667 240.818C222.603 240.755 222.568 240.669 222.568 240.58C222.543 239.468 222.878 238.379 223.523 237.474C224.076 236.663 224.372 235.704 224.372 234.722C224.372 233.741 224.076 232.782 223.523 231.971C222.901 231.055 222.568 229.973 222.568 228.865C222.568 227.758 222.901 226.676 223.523 225.759C224.087 224.958 224.376 223.996 224.347 223.016C224.375 222.034 224.086 221.07 223.523 220.265C222.901 219.35 222.568 218.269 222.568 217.163C222.568 216.057 222.901 214.976 223.523 214.061C224.087 213.26 224.376 212.298 224.347 211.318C224.375 210.336 224.086 209.372 223.523 208.567C222.901 207.652 222.568 206.571 222.568 205.465C222.568 204.359 222.901 203.278 223.523 202.363C224.076 201.555 224.371 200.599 224.371 199.62C224.371 198.641 224.076 197.685 223.523 196.877C222.901 195.962 222.568 194.881 222.568 193.775C222.568 192.669 222.901 191.588 223.523 190.673C224.086 189.868 224.375 188.904 224.347 187.922C224.349 187.833 224.385 187.748 224.448 187.685C224.511 187.623 224.596 187.586 224.685 187.584C224.774 187.584 224.86 187.62 224.924 187.683C224.987 187.746 225.023 187.832 225.023 187.922C225.048 189.032 224.716 190.121 224.075 191.028C223.517 191.834 223.218 192.791 223.218 193.771C223.218 194.751 223.517 195.708 224.075 196.514C224.693 197.431 225.022 198.511 225.022 199.616C225.022 200.721 224.693 201.801 224.075 202.718C223.513 203.523 223.224 204.487 223.251 205.469C223.222 206.448 223.511 207.411 224.075 208.212C224.693 209.129 225.022 210.209 225.022 211.314C225.022 212.419 224.693 213.499 224.075 214.416C223.513 215.221 223.224 216.185 223.251 217.167C223.222 218.147 223.511 219.109 224.075 219.91C224.693 220.827 225.022 221.907 225.022 223.012C225.022 224.117 224.693 225.197 224.075 226.114C223.517 226.923 223.218 227.882 223.218 228.865C223.218 229.848 223.517 230.808 224.075 231.617C224.693 232.534 225.023 233.616 225.023 234.722C225.023 235.829 224.693 236.91 224.075 237.828C223.512 238.633 223.223 239.598 223.251 240.58C223.251 240.625 223.242 240.669 223.225 240.711C223.207 240.752 223.182 240.79 223.15 240.821C223.117 240.853 223.079 240.878 223.037 240.894C222.995 240.911 222.95 240.918 222.905 240.917Z" fill="#407BFF"/>
<path d="M223.812 187.411C223.162 187.411 218.87 191.275 218.87 195.213H228.755C228.772 191.275 224.455 187.411 223.812 187.411Z" fill="#263238"/>
<path d="M224.784 187.535H222.84C222.681 187.535 222.552 187.664 222.552 187.824V188.03C222.552 188.189 222.681 188.318 222.84 188.318H224.784C224.944 188.318 225.073 188.189 225.073 188.03V187.824C225.073 187.664 224.944 187.535 224.784 187.535Z" fill="#407BFF"/>
<path d="M367.75 240.56C372.74 235.978 373.071 228.218 368.489 223.228C363.906 218.238 356.147 217.907 351.157 222.489C346.167 227.071 345.836 234.831 350.418 239.821C355 244.811 362.76 245.142 367.75 240.56Z" fill="#DE5753"/>
<path d="M361.889 225.603V237.961H358.479V229.871C357.975 230.259 357.438 230.601 356.872 230.892C356.245 231.191 355.595 231.438 354.928 231.634V228.874C355.895 228.597 356.803 228.145 357.606 227.539C358.239 227.018 358.748 226.363 359.097 225.62L361.889 225.603Z" fill="white"/>
<path d="M203.448 232.842C195.719 235.282 195.094 232.913 191.118 236.501C189.756 238.564 189.128 242.583 189.128 242.583C194.288 245.396 198.301 246.008 202.11 244.85C205.92 243.692 209.147 241.363 210.171 235.042C206.63 233.883 203.228 237.579 198.327 236.937C198.327 236.937 205.022 234.239 203.448 232.842Z" fill="#FFBE9D"/>
<path d="M190.713 236.067C170.703 234.248 160.603 233.885 155.183 240.618C152.613 243.838 154.313 248.819 158.232 250.71C169.246 253.052 178.014 249.3 192.69 243.888L190.713 236.067Z" fill="#407BFF"/>
<path d="M96.4186 394.581L91.1828 391.378L96.4719 380.045L101.71 383.256L96.4186 394.581Z" fill="#FFBE9D"/>
<path d="M151.72 399.949L145.746 398.541L147.232 386.123L153.211 387.537L151.72 399.949Z" fill="#FFBE9D"/>
<path d="M92.876 387.675L98.9142 389.363L101.701 384.02L95.6655 382.339L92.876 387.675Z" fill="black" fill-opacity="0.1"/>
<path d="M146.202 394.495L152.465 394.212L153.444 388.267L147.186 388.554L146.202 394.495Z" fill="black" fill-opacity="0.1"/>
<path d="M88.4312 385.665C117.931 319.193 111.996 330.726 119.196 249.172H148.822C161.971 301.683 162.512 333.888 158.127 393.492H139.516C142.461 353.238 145.631 322.918 137.427 280.506C131.591 344.178 118.247 369.722 103.061 391.148L88.4312 385.665Z" fill="#263238"/>
<path d="M128.234 199.835C130.47 196.691 129.166 186.297 128.234 181.493C131.028 183.053 137.145 186.846 139.256 189.541C141.367 192.236 140.135 199.149 139.256 202.268C134.651 202.767 125.999 202.979 128.234 199.835Z" fill="#FFBE9D"/>
<path d="M129.406 194.577C129.595 193.12 129.595 190.57 129.217 189.113C129.974 191.845 140.204 191.663 140.204 192.209C140.204 192.755 140.694 194.577 140.204 196.034C139.654 197.669 129.205 196.121 129.406 194.577Z" fill="black" fill-opacity="0.1"/>
<path d="M148.137 177.233C148.122 187.673 144.406 195.25 138.022 194.101C130.414 192.732 124.131 188.833 124.143 180.268C123.565 172.125 127.843 165.114 134.93 164.61C142.017 164.107 148.148 169.219 148.137 177.233Z" fill="#FFBE9D"/>
<path d="M142.052 181.645C140.475 180.972 140.092 180.924 139.378 179.751C139.294 181.469 139.435 182.365 140.178 183.782C141.737 183.555 143.289 182.172 142.052 181.645Z" fill="#E4897B"/>
<path d="M137.542 187.266C137.813 187.265 138.08 187.235 138.34 187.175C138.364 187.177 138.388 187.17 138.408 187.156C138.429 187.141 138.446 187.119 138.458 187.091C138.47 187.063 138.477 187.03 138.478 186.994C138.48 186.958 138.476 186.92 138.466 186.883C138.457 186.846 138.442 186.811 138.423 186.78C138.405 186.75 138.382 186.724 138.358 186.705C138.334 186.687 138.309 186.676 138.284 186.673C138.259 186.67 138.235 186.676 138.214 186.689C137.566 186.868 136.667 186.908 135.966 186.597C135.265 186.285 134.783 185.631 134.184 184.898C134.148 184.851 134.104 184.822 134.061 184.818C134.018 184.814 133.98 184.835 133.954 184.877C133.941 184.898 133.931 184.924 133.926 184.953C133.921 184.982 133.92 185.014 133.924 185.046C133.927 185.078 133.935 185.111 133.947 185.141C133.959 185.172 133.974 185.2 133.992 185.224C134.515 185.875 134.869 186.545 135.478 186.895C136.088 187.246 136.941 187.271 137.542 187.266Z" fill="#263238"/>
<path d="M133.458 177.231C133.214 177.951 133.427 178.753 134.008 179.018C134.59 179.284 135.16 178.876 135.404 178.156C135.647 177.436 135.435 176.634 134.846 176.379C134.257 176.124 133.701 176.511 133.458 177.231Z" fill="#263238"/>
<path d="M144.083 175.843C143.66 176.338 143.594 177.171 144.003 177.745C144.411 178.319 145.004 178.297 145.428 177.802C145.852 177.308 145.925 176.489 145.509 175.9C145.093 175.311 144.53 175.393 144.083 175.843Z" fill="#263238"/>
<path d="M130.978 174.614C131.047 174.654 131.13 174.666 131.215 174.648C131.301 174.629 131.386 174.582 131.458 174.512C131.919 174.063 132.442 173.73 132.985 173.539C133.528 173.348 134.074 173.306 134.577 173.416C134.629 173.434 134.686 173.439 134.744 173.43C134.802 173.421 134.861 173.398 134.917 173.364C134.973 173.329 135.024 173.284 135.069 173.229C135.113 173.174 135.15 173.112 135.176 173.046C135.228 172.913 135.236 172.773 135.201 172.656C135.165 172.538 135.087 172.451 134.984 172.414C134.352 172.257 133.661 172.295 132.972 172.524C132.283 172.753 131.615 173.167 131.028 173.73C130.977 173.775 130.933 173.831 130.898 173.892C130.863 173.954 130.837 174.02 130.823 174.088C130.809 174.156 130.807 174.223 130.816 174.286C130.826 174.349 130.847 174.406 130.878 174.453C130.899 174.517 130.933 174.572 130.978 174.614Z" fill="#263238"/>
<path d="M146.468 173.642C146.557 173.646 146.645 173.614 146.717 173.551C146.8 173.477 146.854 173.369 146.869 173.25C146.883 173.131 146.857 173.01 146.795 172.913C146.421 172.332 145.937 171.859 145.378 171.528C144.82 171.197 144.203 171.018 143.575 171.005C143.523 171.007 143.472 171.022 143.426 171.047C143.379 171.072 143.337 171.107 143.302 171.151C143.267 171.195 143.24 171.246 143.223 171.302C143.205 171.357 143.198 171.417 143.2 171.476C143.201 171.536 143.212 171.595 143.234 171.649C143.255 171.704 143.286 171.753 143.324 171.793C143.362 171.833 143.408 171.864 143.457 171.883C143.506 171.903 143.558 171.91 143.61 171.906C144.112 171.923 144.605 172.072 145.049 172.342C145.493 172.611 145.877 172.995 146.172 173.462C146.206 173.516 146.25 173.56 146.302 173.592C146.353 173.623 146.41 173.64 146.468 173.642Z" fill="#263238"/>
<path d="M125.747 175.738C126.815 177.508 126.556 179.622 125.168 180.459C123.78 181.297 121.788 180.542 120.72 178.773C119.652 177.003 119.911 174.89 121.299 174.052C122.687 173.214 124.678 173.969 125.747 175.738Z" fill="#FFBE9D"/>
<path d="M126.993 198.976L126.976 198.973C126.218 200.932 126.4 202.392 125.944 204.351C132.094 205.321 136.203 205.368 140.87 204.351C141.332 202.251 141.355 201.073 140.87 198.973C136.452 200.825 131.738 199.904 126.993 198.976Z" fill="#407BFF"/>
<path d="M85.5886 233.899C98.5395 216.613 103.74 211.361 111.575 205.103C117.765 203.711 117.905 216.341 117.007 218.289C112.23 228.651 101.641 235.923 92.9403 241.854C86.2257 243.231 83.8409 242.394 85.5886 233.899Z" fill="#407BFF"/>
<path d="M166.815 246.155C164.945 225.357 163.101 218.067 159.253 208.123L145.244 212.236C145.244 212.236 149.322 235.107 154.255 245.51C160.133 251.529 163.078 252.834 166.815 246.155Z" fill="#407BFF"/>
<path d="M145.353 249.171L154.765 207.489C157.063 208.617 158.296 210.126 160.368 214.66C160.419 234.14 155.829 240.375 145.353 249.171Z" fill="black" fill-opacity="0.1"/>
<path d="M109.682 207.222C112.525 200.571 152.902 200.903 158.589 205.393C164.276 209.882 157.265 235.661 149.984 253.186C136.066 255.756 129.535 256.893 115.617 254.343C116.281 236.468 106.839 213.873 109.682 207.222Z" fill="#407BFF"/>
<path d="M125.82 250.796C119.05 252.842 116.807 252.212 116.807 252.212L113 257.149L117.037 258.283C121.344 258.195 119.574 261.313 122.625 262.17C126.931 263.379 132.023 262.134 134.483 258.55C132.569 254.117 130.618 250.943 125.82 250.796Z" fill="#FFBE9D"/>
<path d="M118.277 251.803C103.43 237.426 95.7011 230.634 88.621 232.775C85.2521 233.813 84.4708 239.066 86.7289 243.163C94.334 252.197 102.765 254.697 116.51 259.606L118.277 251.803Z" fill="#407BFF"/>
<path d="M152.58 395.733H143.849C143.689 395.733 143.534 395.79 143.408 395.896C143.282 396.002 143.192 396.151 143.153 396.319L141.357 404.038C141.312 404.222 141.307 404.414 141.342 404.6C141.377 404.786 141.451 404.961 141.559 405.11C141.666 405.26 141.805 405.38 141.962 405.462C142.12 405.544 142.293 405.585 142.468 405.582C145.582 405.515 150.171 405.323 154.137 405.323C158.757 405.323 159.266 405.594 164.695 405.594C167.976 405.594 168.983 401.987 167.623 401.661C161.394 400.184 159.795 400.027 154.49 396.409C153.925 395.992 153.263 395.757 152.58 395.733Z" fill="#263238"/>
<path d="M98.4083 392.044L90.4667 388.265C90.3217 388.196 90.1568 388.179 89.9981 388.217C89.8394 388.256 89.6959 388.347 89.5905 388.476L84.7485 394.442C84.6314 394.582 84.5468 394.748 84.5013 394.926C84.4559 395.103 84.4508 395.288 84.4866 395.465C84.5223 395.642 84.5978 395.807 84.7073 395.947C84.8167 396.087 84.957 396.198 85.1172 396.271C87.9783 397.56 92.2317 399.379 95.839 401.095C100.041 403.094 100.391 403.551 105.33 405.901C108.314 407.321 110.729 404.607 109.628 403.733C104.575 399.747 103.187 398.917 99.8648 393.462C99.5246 392.853 99.0195 392.361 98.4083 392.044Z" fill="#263238"/>
<path d="M156.795 397.854C157.649 397.854 158.452 397.747 158.743 397.376C158.811 397.28 158.847 397.166 158.847 397.05C158.847 396.934 158.811 396.821 158.743 396.725C158.692 396.636 158.623 396.558 158.539 396.497C158.455 396.436 158.358 396.393 158.256 396.37C157.171 396.082 154.839 397.343 154.737 397.401C154.708 397.415 154.684 397.438 154.669 397.466C154.654 397.494 154.647 397.526 154.651 397.557C154.657 397.587 154.671 397.614 154.692 397.636C154.713 397.658 154.741 397.673 154.771 397.681C155.44 397.792 156.117 397.85 156.795 397.854ZM157.871 396.626C157.973 396.613 158.077 396.613 158.179 396.626C158.241 396.639 158.298 396.665 158.349 396.702C158.399 396.739 158.44 396.786 158.469 396.84C158.58 397.021 158.538 397.12 158.469 397.17C158.145 397.582 156.488 397.59 155.266 397.425C156.076 397.009 156.96 396.746 157.871 396.651V396.626Z" fill="#264A99"/>
<path d="M154.796 397.457H154.86C155.708 397.143 157.424 395.863 157.316 395.197C157.316 395.043 157.171 394.844 156.72 394.806C156.394 394.781 156.069 394.866 155.817 395.044C154.914 395.664 154.661 397.25 154.652 397.342C154.648 397.367 154.651 397.392 154.662 397.415C154.674 397.437 154.692 397.457 154.715 397.472C154.743 397.473 154.771 397.467 154.796 397.457ZM156.603 395.066H156.702C157 395.066 157.009 395.197 157.018 395.227C157.081 395.626 155.916 396.63 155.04 397.066C155.144 396.39 155.487 395.757 156.025 395.25C156.186 395.133 156.39 395.068 156.603 395.066Z" fill="#264A99"/>
<path d="M101.975 396.588C102.75 396.946 103.524 397.186 103.943 396.972C104.045 396.913 104.126 396.825 104.175 396.72C104.223 396.614 104.238 396.496 104.217 396.381C104.208 396.279 104.178 396.179 104.127 396.088C104.076 395.998 104.007 395.918 103.924 395.855C103.06 395.137 100.414 395.303 100.297 395.312C100.265 395.313 100.234 395.324 100.208 395.343C100.182 395.362 100.164 395.388 100.154 395.418C100.146 395.448 100.148 395.478 100.158 395.507C100.168 395.536 100.186 395.562 100.21 395.581C100.771 395.963 101.361 396.3 101.975 396.588ZM103.467 395.925C103.566 395.956 103.659 396 103.747 396.054C103.797 396.092 103.838 396.14 103.868 396.195C103.898 396.249 103.916 396.309 103.92 396.371C103.945 396.582 103.865 396.654 103.782 396.67C103.314 396.908 101.807 396.219 100.767 395.557C101.677 395.519 102.589 395.652 103.457 395.948L103.467 395.925Z" fill="#264A99"/>
<path d="M100.327 395.389L100.385 395.415C101.287 395.486 103.382 395.045 103.563 394.395C103.627 394.256 103.58 394.014 103.186 393.79C102.901 393.63 102.57 393.571 102.267 393.626C101.187 393.811 100.291 395.144 100.244 395.224C100.23 395.244 100.223 395.268 100.224 395.294C100.224 395.319 100.232 395.345 100.247 395.368C100.273 395.38 100.3 395.387 100.327 395.389ZM102.97 393.977L103.06 394.019C103.331 394.144 103.284 394.266 103.28 394.298C103.17 394.686 101.691 395.108 100.713 395.136C101.091 394.566 101.668 394.136 102.368 393.901C102.564 393.863 102.777 393.89 102.97 393.977Z" fill="#264A99"/>
<path d="M130.321 171.584C133.601 173.017 136.376 171.329 137.122 169.602C139.726 171.068 143.238 171.456 144.481 169.858C146.718 169.996 148.771 170.368 150.23 168.592C152.13 166.279 151.071 160.785 147.669 158.79C146.678 160.496 145.112 160.16 143.481 158.755C142.558 158.103 141.48 157.76 140.376 157.766C139.272 157.773 138.19 158.128 137.26 158.79C133.667 157.523 129.806 158.92 127.541 161.428C124.112 160.417 118.806 165.401 122.357 171.288C121.712 175.925 126.547 172.716 126.306 178.576C126.772 180.119 129.487 173.097 130.321 171.584Z" fill="#263238"/>
<path opacity="0.1" d="M138.421 269.791L137.429 280.366L139.247 290.692L138.421 269.791Z" fill="black"/>
<path opacity="0.1" d="M115.783 221.051L111.735 226.338L112.644 230.303L115.783 221.051Z" fill="black"/>
</svg>
