<svg width="384" height="378" viewBox="0 0 384 378" fill="none" xmlns="http://www.w3.org/2000/svg">
<path fill-rule="evenodd" clip-rule="evenodd" d="M326.08 96.8053C339.862 119.563 337.48 150.319 326.117 178.12C315.72 203.555 288.459 220.549 267.059 241.2C245.514 261.992 229.606 291.217 200.664 299.184C171.631 307.175 147.73 290.083 122.66 280.948C98.195 272.032 71.8731 265.464 56.7023 246.723C40.0077 226.1 25.6506 199.959 34.5099 172.052C43.2315 144.578 76.3796 127.703 100.989 107.216C123.164 88.7563 143.267 67.3015 170.741 58.6444C199.283 49.6507 227.741 52.5605 253.984 59.0074C282.354 65.977 312.455 74.3068 326.08 96.8053Z" fill="#ECF2FF"/>
<path d="M201.249 377.34C289.464 377.34 360.977 373.165 360.977 368.014C360.977 362.864 289.464 358.689 201.249 358.689C113.034 358.689 41.5215 362.864 41.5215 368.014C41.5215 373.165 113.034 377.34 201.249 377.34Z" fill="#F5F5F5"/>
<path d="M170.449 196.842C162.719 199.282 162.094 196.913 158.119 200.501C156.756 202.564 156.128 206.583 156.128 206.583C161.288 209.396 165.301 210.008 169.11 208.85C172.92 207.692 176.148 205.363 177.172 199.042C173.63 197.883 170.228 201.579 165.328 200.937C165.328 200.937 172.022 198.239 170.449 196.842Z" fill="#FFBE9D"/>
<path d="M157.713 200.067C137.703 198.248 127.604 197.885 122.183 204.618C119.613 207.838 121.313 212.819 125.232 214.71C136.246 217.052 145.014 213.3 159.691 207.888L157.713 200.067Z" fill="#407BFF"/>
<path d="M63.4189 358.581L58.1831 355.378L63.4722 344.045L68.7106 347.256L63.4189 358.581Z" fill="#FFBE9D"/>
<path d="M118.72 363.949L112.746 362.541L114.232 350.123L120.211 351.537L118.72 363.949Z" fill="#FFBE9D"/>
<path d="M59.8763 351.675L65.9144 353.363L68.7009 348.02L62.6657 346.339L59.8763 351.675Z" fill="black" fill-opacity="0.1"/>
<path d="M113.202 358.495L119.465 358.212L120.444 352.267L114.186 352.554L113.202 358.495Z" fill="black" fill-opacity="0.1"/>
<path d="M55.4314 349.665C84.9312 283.193 78.9966 294.726 86.1965 213.172H115.822C128.971 265.683 129.512 297.888 125.128 357.492H106.517C109.462 317.238 112.631 286.918 104.428 244.506C98.5914 308.178 85.2476 333.722 70.061 355.148L55.4314 349.665Z" fill="#263238"/>
<path d="M95.2345 163.835C97.4698 160.691 96.1659 150.297 95.2345 145.493C98.0287 147.053 104.145 150.846 106.256 153.541C108.367 156.236 107.136 163.149 106.256 166.268C101.651 166.767 92.9991 166.979 95.2345 163.835Z" fill="#FFBE9D"/>
<path d="M96.4062 158.577C96.5957 157.12 96.5957 154.57 96.2168 153.113C96.9746 155.845 107.204 155.663 107.204 156.209C107.204 156.755 107.694 158.577 107.204 160.034C106.655 161.669 96.2055 160.121 96.4062 158.577Z" fill="black" fill-opacity="0.1"/>
<path d="M115.137 141.233C115.123 151.673 111.406 159.25 105.022 158.101C97.4146 156.732 91.1311 152.833 91.143 144.268C90.565 136.125 94.8433 129.114 101.93 128.61C109.017 128.107 115.148 133.219 115.137 141.233Z" fill="#FFBE9D"/>
<path d="M109.052 145.645C107.475 144.972 107.092 144.924 106.378 143.751C106.294 145.469 106.436 146.365 107.178 147.782C108.737 147.555 110.29 146.172 109.052 145.645Z" fill="#E4897B"/>
<path d="M104.542 151.266C104.814 151.265 105.08 151.235 105.34 151.175C105.365 151.177 105.388 151.17 105.409 151.156C105.429 151.141 105.446 151.119 105.458 151.091C105.47 151.063 105.477 151.03 105.479 150.994C105.48 150.958 105.476 150.92 105.466 150.883C105.457 150.846 105.442 150.811 105.423 150.78C105.405 150.75 105.383 150.724 105.358 150.705C105.334 150.687 105.309 150.676 105.284 150.673C105.259 150.67 105.235 150.676 105.214 150.689C104.567 150.868 103.667 150.908 102.966 150.597C102.265 150.285 101.783 149.631 101.185 148.898C101.149 148.851 101.105 148.822 101.062 148.818C101.019 148.814 100.98 148.835 100.954 148.877C100.941 148.898 100.932 148.924 100.926 148.953C100.921 148.982 100.921 149.014 100.924 149.046C100.928 149.078 100.936 149.111 100.947 149.141C100.959 149.172 100.975 149.2 100.993 149.224C101.515 149.875 101.869 150.545 102.479 150.895C103.088 151.246 103.941 151.271 104.542 151.266Z" fill="#263238"/>
<path d="M100.458 141.231C100.214 141.951 100.427 142.753 101.009 143.018C101.59 143.284 102.16 142.876 102.404 142.156C102.648 141.436 102.435 140.634 101.846 140.379C101.257 140.124 100.702 140.511 100.458 141.231Z" fill="#263238"/>
<path d="M111.083 139.843C110.66 140.338 110.595 141.171 111.003 141.745C111.411 142.319 112.005 142.297 112.428 141.802C112.852 141.308 112.925 140.489 112.509 139.9C112.093 139.311 111.53 139.393 111.083 139.843Z" fill="#263238"/>
<path d="M97.9779 138.614C98.047 138.654 98.1299 138.666 98.2156 138.648C98.3014 138.629 98.3861 138.582 98.4587 138.512C98.9189 138.063 99.4425 137.73 99.9854 137.539C100.528 137.348 101.074 137.306 101.577 137.416C101.629 137.434 101.686 137.439 101.744 137.43C101.803 137.421 101.861 137.398 101.917 137.364C101.973 137.329 102.024 137.284 102.069 137.229C102.113 137.174 102.15 137.112 102.176 137.046C102.228 136.913 102.237 136.773 102.201 136.656C102.165 136.538 102.087 136.451 101.984 136.414C101.352 136.257 100.662 136.295 99.9722 136.524C99.2828 136.753 98.6155 137.167 98.0282 137.73C97.9776 137.775 97.9333 137.831 97.8981 137.892C97.8629 137.954 97.8375 138.02 97.8235 138.088C97.8094 138.156 97.807 138.223 97.8164 138.286C97.8258 138.349 97.8468 138.406 97.8781 138.453C97.899 138.517 97.9331 138.572 97.9779 138.614Z" fill="#263238"/>
<path d="M113.468 137.642C113.558 137.646 113.646 137.614 113.717 137.551C113.8 137.477 113.855 137.369 113.869 137.25C113.884 137.131 113.857 137.01 113.795 136.913C113.422 136.332 112.937 135.859 112.378 135.528C111.82 135.197 111.203 135.018 110.575 135.005C110.523 135.007 110.473 135.022 110.426 135.047C110.379 135.072 110.337 135.107 110.302 135.151C110.268 135.195 110.241 135.246 110.223 135.302C110.206 135.357 110.198 135.417 110.201 135.476C110.201 135.536 110.212 135.595 110.234 135.649C110.255 135.704 110.286 135.753 110.324 135.793C110.363 135.833 110.408 135.864 110.457 135.883C110.506 135.903 110.559 135.91 110.61 135.906C111.113 135.923 111.605 136.072 112.049 136.342C112.493 136.611 112.877 136.995 113.172 137.462C113.206 137.516 113.251 137.56 113.302 137.592C113.353 137.623 113.41 137.64 113.468 137.642Z" fill="#263238"/>
<path d="M92.7469 139.738C93.8151 141.508 93.5559 143.622 92.1679 144.459C90.7799 145.297 88.7887 144.542 87.7205 142.773C86.6523 141.003 86.9116 138.89 88.2996 138.052C89.6876 137.214 91.6787 137.969 92.7469 139.738Z" fill="#FFBE9D"/>
<path d="M93.9933 162.976L93.976 162.973C93.2178 164.932 93.4003 166.392 92.9438 168.351C99.0945 169.321 103.203 169.368 107.87 168.351C108.332 166.251 108.355 165.073 107.87 162.973C103.453 164.825 98.7381 163.904 93.9933 162.976Z" fill="#407BFF"/>
<path d="M52.5888 197.899C65.5398 180.613 70.7405 175.361 78.5748 169.103C84.7652 167.711 84.9051 180.341 84.0072 182.289C79.2302 192.651 68.6414 199.923 59.9405 205.854C53.2259 207.231 50.8412 206.394 52.5888 197.899Z" fill="#407BFF"/>
<path d="M133.815 210.155C131.945 189.357 130.101 182.067 126.253 172.123L112.244 176.236C112.244 176.236 116.322 199.107 121.255 209.51C127.133 215.529 130.079 216.834 133.815 210.155Z" fill="#407BFF"/>
<path d="M112.354 213.171L121.766 171.489C124.064 172.617 125.296 174.126 127.368 178.66C127.419 198.14 122.829 204.375 112.354 213.171Z" fill="black" fill-opacity="0.1"/>
<path d="M76.6823 171.222C79.5257 164.571 119.903 164.903 125.589 169.393C131.276 173.882 124.265 199.661 116.984 217.186C103.067 219.756 96.5349 220.893 82.6175 218.343C83.2813 200.468 73.8388 177.873 76.6823 171.222Z" fill="#407BFF"/>
<path d="M92.8198 214.796C86.0501 216.842 83.8071 216.212 83.8071 216.212L80.0002 221.149L84.0376 222.283C88.3442 222.195 86.5745 225.313 89.625 226.17C93.9316 227.379 99.0233 226.134 101.483 222.55C99.5689 218.117 97.6186 214.943 92.8198 214.796Z" fill="#FFBE9D"/>
<path d="M85.2776 215.803C70.4298 201.426 62.7013 194.634 55.6212 196.775C52.2524 197.813 51.471 203.066 53.7292 207.163C61.3342 216.197 69.7655 218.697 83.5106 223.606L85.2776 215.803Z" fill="#407BFF"/>
<path d="M119.58 359.733H110.849C110.689 359.733 110.534 359.79 110.408 359.896C110.282 360.002 110.193 360.151 110.153 360.319L108.357 368.038C108.312 368.222 108.307 368.414 108.342 368.6C108.377 368.786 108.451 368.961 108.559 369.11C108.667 369.26 108.805 369.38 108.963 369.462C109.12 369.544 109.293 369.585 109.468 369.582C112.583 369.515 117.171 369.323 121.137 369.323C125.757 369.323 126.266 369.594 131.695 369.594C134.976 369.594 135.983 365.987 134.623 365.661C128.394 364.184 126.795 364.027 121.49 360.409C120.925 359.992 120.263 359.757 119.58 359.733Z" fill="#263238"/>
<path d="M65.4086 356.044L57.4669 352.265C57.322 352.196 57.1571 352.179 56.9984 352.217C56.8396 352.256 56.6962 352.347 56.5907 352.476L51.7487 358.442C51.6316 358.582 51.547 358.748 51.5016 358.926C51.4561 359.103 51.4511 359.288 51.4868 359.465C51.5225 359.642 51.5981 359.807 51.7075 359.947C51.8169 360.087 51.9573 360.198 52.1175 360.271C54.9785 361.56 59.232 363.379 62.8392 365.095C67.0414 367.094 67.3917 367.551 72.3304 369.901C75.3145 371.321 77.7292 368.607 76.628 367.733C71.5757 363.747 70.187 362.917 66.8651 357.462C66.5249 356.853 66.0197 356.361 65.4086 356.044Z" fill="#263238"/>
<path d="M123.795 361.854C124.65 361.854 125.453 361.747 125.743 361.376C125.811 361.28 125.847 361.166 125.847 361.05C125.847 360.934 125.811 360.821 125.743 360.725C125.692 360.636 125.623 360.558 125.539 360.497C125.455 360.436 125.359 360.393 125.256 360.37C124.171 360.082 121.839 361.343 121.737 361.401C121.708 361.415 121.684 361.438 121.669 361.466C121.654 361.494 121.648 361.526 121.651 361.557C121.657 361.587 121.671 361.614 121.692 361.636C121.714 361.658 121.741 361.673 121.771 361.681C122.44 361.792 123.117 361.85 123.795 361.854ZM124.872 360.626C124.974 360.613 125.077 360.613 125.179 360.626C125.241 360.639 125.299 360.665 125.349 360.702C125.399 360.739 125.44 360.786 125.47 360.84C125.581 361.021 125.538 361.12 125.47 361.17C125.145 361.582 123.488 361.59 122.266 361.425C123.076 361.009 123.96 360.746 124.872 360.651V360.626Z" fill="#264A99"/>
<path d="M121.797 361.457H121.86C122.709 361.143 124.425 359.863 124.316 359.197C124.316 359.043 124.172 358.844 123.72 358.806C123.394 358.781 123.069 358.866 122.817 359.044C121.914 359.664 121.661 361.25 121.652 361.342C121.648 361.367 121.652 361.392 121.663 361.415C121.674 361.437 121.692 361.457 121.715 361.472C121.743 361.473 121.771 361.467 121.797 361.457ZM123.603 359.066H123.702C124 359.066 124.009 359.197 124.018 359.227C124.081 359.626 122.916 360.63 122.04 361.066C122.144 360.39 122.487 359.757 123.025 359.25C123.186 359.133 123.391 359.068 123.603 359.066Z" fill="#264A99"/>
<path d="M68.9752 360.588C69.7504 360.946 70.5241 361.186 70.9434 360.972C71.0453 360.913 71.1259 360.825 71.1747 360.72C71.2234 360.614 71.2381 360.496 71.2167 360.381C71.2081 360.279 71.1776 360.179 71.127 360.088C71.0765 359.998 71.0071 359.918 70.9235 359.855C70.06 359.137 67.4143 359.303 67.2971 359.312C67.2646 359.313 67.2336 359.324 67.208 359.343C67.1824 359.362 67.1635 359.388 67.1538 359.418C67.1465 359.448 67.1479 359.478 67.158 359.507C67.168 359.536 67.1862 359.562 67.2105 359.581C67.7706 359.963 68.3608 360.3 68.9752 360.588ZM70.4674 359.925C70.5655 359.956 70.6594 360 70.7465 360.054C70.7968 360.092 70.8385 360.14 70.8684 360.195C70.8984 360.249 70.9161 360.309 70.9202 360.371C70.9448 360.582 70.8645 360.654 70.7818 360.67C70.3142 360.908 68.8068 360.219 67.7673 359.557C68.6765 359.519 69.5895 359.652 70.457 359.948L70.4674 359.925Z" fill="#264A99"/>
<path d="M67.3276 359.389L67.3849 359.415C68.2873 359.486 70.3817 359.045 70.5632 358.395C70.6275 358.256 70.58 358.014 70.1863 357.79C69.9009 357.63 69.5702 357.571 69.2669 357.626C68.1867 357.811 67.2914 359.144 67.2447 359.224C67.2305 359.244 67.2233 359.268 67.2238 359.294C67.2243 359.319 67.2324 359.345 67.2474 359.368C67.2728 359.38 67.3002 359.387 67.3276 359.389ZM69.9704 357.977L70.0605 358.019C70.331 358.144 70.2845 358.266 70.2799 358.298C70.17 358.686 68.6913 359.108 67.7129 359.136C68.0907 358.566 68.6681 358.136 69.3686 357.901C69.564 357.863 69.7771 357.89 69.9704 357.977Z" fill="#264A99"/>
<path d="M97.3214 135.584C100.601 137.017 103.376 135.329 104.122 133.602C106.726 135.068 110.238 135.456 111.482 133.858C113.718 133.996 115.771 134.368 117.23 132.592C119.13 130.279 118.071 124.785 114.669 122.79C113.678 124.496 112.112 124.16 110.481 122.755C109.558 122.103 108.48 121.76 107.376 121.766C106.273 121.773 105.19 122.128 104.26 122.79C100.667 121.523 96.8061 122.92 94.5414 125.428C91.1126 124.417 85.8062 129.401 89.3574 135.288C88.7118 139.925 93.5469 136.716 93.3062 142.576C93.7726 144.119 96.4875 137.097 97.3214 135.584Z" fill="#263238"/>
<path opacity="0.1" d="M105.421 233.791L104.43 244.366L106.247 254.692L105.421 233.791Z" fill="black"/>
<path opacity="0.1" d="M82.7833 185.051L78.7354 190.338L79.6441 194.303L82.7833 185.051Z" fill="black"/>
</svg>
