<svg width="176" height="217" viewBox="0 0 176 217" fill="none" xmlns="http://www.w3.org/2000/svg">
<path d="M155.974 127.869L161.74 194.663C162.202 200.1 158.882 204.87 154.326 205.257L27.5756 216.131C23.0447 216.527 18.9504 212.391 18.5138 206.962L12.7471 140.16C12.6327 138.906 12.7301 137.642 13.0354 136.42C13.9416 132.688 16.6931 129.829 20.1367 129.574L146.887 118.692C150.323 118.395 153.478 120.71 155.051 124.219C155.558 125.376 155.87 126.61 155.974 127.869V127.869Z" fill="#407BFF"/>
<path opacity="0.1" d="M155.974 127.869L161.74 194.663C162.202 200.1 158.882 204.87 154.326 205.257L27.5756 216.131C23.0447 216.527 18.9504 212.391 18.5138 206.962L12.7471 140.16C12.6327 138.906 12.7301 137.642 13.0354 136.42C13.9416 132.688 16.6931 129.829 20.1367 129.574L146.887 118.692C150.323 118.395 153.478 120.71 155.051 124.219C155.558 125.376 155.87 126.61 155.974 127.869V127.869Z" fill="black"/>
<path d="M161.652 115.924L169.94 184.431C170.607 190 167.361 195.025 162.715 195.586L32.7268 211.312C28.0806 211.872 23.7226 207.77 23.0471 202.193L14.7596 133.693C14.602 132.405 14.6576 131.1 14.9244 129.829C15.7482 125.966 18.4503 122.959 21.9844 122.531L151.973 106.812C155.507 106.384 158.868 108.649 160.573 112.208C161.135 113.379 161.5 114.634 161.652 115.924V115.924Z" fill="#407BFF"/>
<path opacity="0.1" d="M160.575 112.208L101.616 151.907C98.7302 153.88 95.4124 155.129 91.9425 155.549C88.4726 155.969 84.9525 155.548 81.6796 154.321L14.9514 129.829C15.7752 125.966 18.4773 122.959 22.0114 122.531L152 106.812C155.509 106.384 158.87 108.649 160.575 112.208Z" fill="black"/>
<path d="M138.579 127.012L121.642 138.413L116.098 142.153L101.615 151.907C98.8042 153.836 95.5784 155.075 92.1992 155.525C88.82 155.974 85.3824 155.621 82.1651 154.494L81.6461 154.321L73.5234 151.339L55.2349 144.625L46.6838 141.486L36.9959 137.927L36.2956 120.8L34.7222 82.7406L109.136 79.7172L137.5 101.21L137.797 108.517L138.579 127.012Z" fill="#407BFF"/>
<path opacity="0.7" d="M138.579 127.012L121.642 138.413L116.098 142.153L101.615 151.907C98.8042 153.836 95.5784 155.075 92.1992 155.525C88.82 155.974 85.3824 155.621 82.1651 154.494L81.6461 154.321L73.5234 151.339L55.2349 144.625L46.6838 141.486L36.9959 137.927L36.2956 120.8L34.7222 82.7406L109.136 79.7172L137.5 101.21L137.797 108.517L138.579 127.012Z" fill="#FAFAFA"/>
<path opacity="0.9" d="M128.09 108.781L45.7098 112.125C45.2503 112.143 44.8019 111.981 44.4602 111.673C44.1186 111.366 43.9107 110.937 43.881 110.478C43.865 110.019 44.0281 109.573 44.3357 109.233C44.6433 108.893 45.0711 108.687 45.5286 108.657L127.909 105.312C128.369 105.294 128.817 105.456 129.159 105.764C129.5 106.072 129.708 106.501 129.738 106.96V106.96C129.756 107.419 129.594 107.866 129.286 108.206C128.978 108.547 128.548 108.753 128.09 108.781V108.781Z" fill="white"/>
<path opacity="0.9" d="M128.529 119.73L46.1485 123.074C45.689 123.092 45.2406 122.93 44.8989 122.622C44.5573 122.315 44.3494 121.886 44.3197 121.427C44.3036 120.968 44.4665 120.52 44.7739 120.179C45.0813 119.838 45.5092 119.63 45.9673 119.598L128.348 116.253C128.807 116.237 129.254 116.4 129.595 116.707C129.936 117.015 130.145 117.443 130.177 117.901V117.901C130.191 118.359 130.027 118.805 129.72 119.146C129.413 119.487 128.986 119.696 128.529 119.73Z" fill="white"/>
<path opacity="0.9" d="M128.973 130.67L46.5924 134.014C46.1329 134.033 45.6845 133.87 45.3428 133.563C45.0012 133.255 44.7933 132.826 44.7636 132.367V132.367C44.7455 131.908 44.9079 131.461 45.2159 131.12C45.5239 130.78 45.953 130.574 46.4112 130.546L128.792 127.201C129.25 127.183 129.698 127.346 130.038 127.654C130.379 127.962 130.585 128.391 130.612 128.849V128.849C130.63 129.306 130.469 129.753 130.163 130.093C129.857 130.433 129.43 130.64 128.973 130.67Z" fill="white"/>
<path opacity="0.9" d="M121.638 138.413L116.094 142.153L55.2313 144.625L46.6802 141.486C46.7513 141.478 46.8232 141.478 46.8944 141.486L121.638 138.413Z" fill="white"/>
<path opacity="0.9" d="M99.0937 152.047V152.113C99.0946 152.561 98.9248 152.993 98.6187 153.321C98.3126 153.648 97.8933 153.847 97.446 153.876L82.1974 154.494L81.6784 154.321L73.5557 151.339L97.306 150.367C97.7639 150.36 98.2065 150.531 98.5401 150.845C98.8738 151.159 99.0723 151.59 99.0937 152.047Z" fill="white"/>
<path opacity="0.1" d="M137.533 101.21L117.827 100.362L109.169 79.7172L137.533 101.21Z" fill="#263238"/>
<path d="M137.533 101.21L118.412 97.9398L109.169 79.7172L137.533 101.21Z" fill="#407BFF"/>
<path d="M175.434 21.3175C175.434 38.0737 157.071 54.5416 154.32 54.5416C151.568 54.5416 133.206 38.0655 133.206 21.3175C133.206 10.0891 142.655 0.977783 154.32 0.977783C165.985 0.977783 175.434 10.0891 175.434 21.3175Z" fill="#407BFF"/>
<path opacity="0.1" d="M150.4 17.1404C146.577 21.3335 141.388 22.8329 138.809 20.4356C136.23 18.0383 137.236 12.7825 141.05 8.58929C144.864 4.39612 150.062 2.8968 152.649 5.24464C155.236 7.59248 154.222 12.9472 150.4 17.1404Z" fill="white"/>
<path opacity="0.1" d="M139.14 34.0207C138.638 32.7685 138.77 31.5493 139.437 31.2692C140.104 30.9891 141.084 31.7964 141.554 33.0486C142.023 34.3008 141.925 35.52 141.257 35.7919C140.59 36.0637 139.643 35.2646 139.14 34.0207Z" fill="white"/>
<path d="M153.412 107.265C153.323 107.263 153.238 107.227 153.175 107.164C153.113 107.101 153.076 107.016 153.074 106.927C153.05 105.816 153.385 104.727 154.03 103.822C154.583 103.011 154.878 102.052 154.878 101.07C154.878 100.089 154.583 99.1298 154.03 98.3187C153.408 97.4025 153.075 96.3205 153.075 95.2129C153.075 94.1054 153.408 93.0234 154.03 92.1072C154.583 91.2978 154.879 90.3402 154.879 89.3598C154.879 88.3794 154.583 87.4218 154.03 86.6124C153.407 85.6979 153.074 84.6171 153.074 83.5108C153.074 82.4044 153.407 81.3237 154.03 80.4092C154.583 79.5998 154.879 78.6422 154.879 77.6618C154.879 76.6813 154.583 75.7238 154.03 74.9144C153.407 73.9999 153.074 72.9191 153.074 71.8128C153.074 70.7064 153.407 69.6256 154.03 68.7111C154.583 67.9017 154.879 66.9441 154.879 65.9637C154.879 64.9833 154.583 64.0257 154.03 63.2163C153.407 62.3018 153.074 61.2211 153.074 60.1147C153.074 59.0084 153.407 57.9276 154.03 57.0131C154.594 56.2118 154.883 55.2493 154.854 54.2698C154.866 54.1883 154.908 54.1139 154.971 54.0602C155.033 54.0066 155.113 53.9771 155.196 53.9771C155.278 53.9771 155.358 54.0066 155.421 54.0602C155.483 54.1139 155.525 54.1883 155.537 54.2698C155.561 55.3783 155.226 56.4646 154.582 57.3673C154.019 58.1725 153.731 59.1371 153.758 60.1188C153.729 61.0983 154.018 62.0608 154.582 62.8621C155.204 63.7766 155.537 64.8574 155.537 65.9637C155.537 67.0701 155.204 68.1508 154.582 69.0654C154.024 69.873 153.726 70.8313 153.726 71.8128C153.726 72.7942 154.024 73.7525 154.582 74.5601C155.204 75.4747 155.537 76.5554 155.537 77.6618C155.537 78.7681 155.204 79.8489 154.582 80.7634C154.024 81.5711 153.726 82.5293 153.726 83.5108C153.726 84.4922 154.024 85.4505 154.582 86.2582C155.204 87.1727 155.537 88.2534 155.537 89.3598C155.537 90.4661 155.204 91.5469 154.582 92.4614C154.024 93.2704 153.724 94.23 153.724 95.2129C153.724 96.1958 154.024 97.1555 154.582 97.9644C155.204 98.8806 155.537 99.9626 155.537 101.07C155.537 102.178 155.204 103.26 154.582 104.176C154.017 104.98 153.728 105.945 153.758 106.927C153.758 106.972 153.749 107.017 153.732 107.059C153.714 107.1 153.688 107.138 153.656 107.169C153.624 107.201 153.586 107.225 153.544 107.242C153.502 107.258 153.457 107.266 153.412 107.265V107.265Z" fill="#263238"/>
<path d="M154.319 53.7511C153.668 53.7511 149.376 57.623 149.376 61.5608H159.278C159.278 57.623 154.994 53.7511 154.319 53.7511Z" fill="#407BFF"/>
<path d="M155.291 53.8824H153.346C153.187 53.8824 153.058 54.0115 153.058 54.1708V54.3767C153.058 54.536 153.187 54.6651 153.346 54.6651H155.291C155.45 54.6651 155.579 54.536 155.579 54.3767V54.1708C155.579 54.0115 155.45 53.8824 155.291 53.8824Z" fill="#263238"/>
<path d="M42.9568 36.9781C42.9568 53.7261 24.5941 70.1939 21.8426 70.1939C19.0911 70.1939 0.728516 53.7178 0.728516 36.9781C0.728516 25.7414 10.1775 16.6301 21.8426 16.6301C33.5077 16.6301 42.9568 25.7414 42.9568 36.9781Z" fill="#263238"/>
<path opacity="0.1" d="M18.4195 33.4798C22.2401 29.2855 23.2459 23.9803 20.6661 21.6304C18.0862 19.2805 12.8977 20.7756 9.07715 24.97C5.25659 29.1643 4.25079 34.4695 6.83062 36.8194C9.41044 39.1693 14.599 37.6742 18.4195 33.4798Z" fill="white"/>
<path opacity="0.1" d="M7.15464 50.3563C6.65211 49.1041 6.78392 47.8849 7.45121 47.6048C8.1185 47.3247 9.09884 48.132 9.56841 49.3842C10.038 50.6364 9.93913 51.8556 9.27184 52.1357C8.60455 52.4158 7.65716 51.6085 7.15464 50.3563Z" fill="white"/>
<path d="M20.9057 122.917C20.8161 122.917 20.7302 122.882 20.6668 122.818C20.6035 122.755 20.5679 122.669 20.5679 122.58C20.5434 121.468 20.8786 120.379 21.5235 119.474C22.0764 118.663 22.3721 117.704 22.3721 116.722C22.3721 115.741 22.0764 114.782 21.5235 113.971C20.9012 113.055 20.5685 111.973 20.5685 110.865C20.5685 109.758 20.9012 108.676 21.5235 107.759C22.0875 106.958 22.3766 105.996 22.3473 105.016C22.3748 104.034 22.086 103.07 21.5235 102.265C20.9009 101.35 20.5679 100.269 20.5679 99.163C20.5679 98.0566 20.9009 96.9759 21.5235 96.0613C22.0875 95.26 22.3766 94.2975 22.3473 93.3181C22.3748 92.3363 22.086 91.3717 21.5235 90.5666C20.9009 89.652 20.5679 88.5713 20.5679 87.4649C20.5679 86.3586 20.9009 85.2778 21.5235 84.3633C22.076 83.5552 22.3717 82.599 22.3717 81.62C22.3717 80.6411 22.076 79.6849 21.5235 78.8768C20.9009 77.9622 20.5679 76.8815 20.5679 75.7751C20.5679 74.6688 20.9009 73.588 21.5235 72.6735C22.086 71.8684 22.3748 70.9038 22.3473 69.922C22.3494 69.8331 22.3857 69.7484 22.4486 69.6855C22.5115 69.6226 22.5961 69.5863 22.6851 69.5842C22.7746 69.5842 22.8606 69.6198 22.9239 69.6832C22.9872 69.7465 23.0228 69.8324 23.0228 69.922C23.0485 71.0321 22.7164 72.121 22.0754 73.0277C21.5174 73.8337 21.2185 74.7907 21.2185 75.771C21.2185 76.7513 21.5174 77.7083 22.0754 78.5143C22.6928 79.4309 23.0225 80.5108 23.0225 81.6159C23.0225 82.721 22.6928 83.8009 22.0754 84.7175C21.513 85.5227 21.2241 86.4873 21.2516 87.469C21.2224 88.4485 21.5114 89.411 22.0754 90.2123C22.6928 91.1289 23.0225 92.2089 23.0225 93.3139C23.0225 94.419 22.6928 95.499 22.0754 96.4156C21.513 97.2207 21.2241 98.1853 21.2516 99.1671C21.2224 100.147 21.5114 101.109 22.0754 101.91C22.6928 102.827 23.0225 103.907 23.0225 105.012C23.0225 106.117 22.6928 107.197 22.0754 108.114C21.5171 108.923 21.2181 109.882 21.2181 110.865C21.2181 111.848 21.5171 112.808 22.0754 113.617C22.6935 114.534 23.0236 115.616 23.0236 116.722C23.0236 117.829 22.6935 118.91 22.0754 119.828C21.5119 120.633 21.223 121.598 21.2516 122.58C21.2517 122.625 21.2427 122.669 21.2252 122.711C21.2077 122.752 21.1821 122.79 21.1498 122.821C21.1176 122.853 21.0794 122.878 21.0374 122.894C20.9955 122.911 20.9507 122.918 20.9057 122.917V122.917Z" fill="#407BFF"/>
<path d="M21.8127 69.4113C21.1619 69.4113 16.8699 73.2749 16.8699 77.2127H26.7555C26.772 73.2749 22.4553 69.4113 21.8127 69.4113Z" fill="#263238"/>
<path d="M22.7847 69.5354H20.8406C20.6813 69.5354 20.5522 69.6645 20.5522 69.8237V70.0297C20.5522 70.1889 20.6813 70.318 20.8406 70.318H22.7847C22.944 70.318 23.0731 70.1889 23.0731 70.0297V69.8237C23.0731 69.6645 22.944 69.5354 22.7847 69.5354Z" fill="#407BFF"/>
<path d="M165.75 122.56C170.74 117.978 171.071 110.218 166.489 105.228C161.907 100.238 154.147 99.9073 149.157 104.489C144.167 109.071 143.837 116.831 148.419 121.821C153.001 126.811 160.76 127.142 165.75 122.56Z" fill="#DE5753"/>
<path d="M159.889 107.603V119.961H156.479V111.871C155.975 112.259 155.438 112.601 154.872 112.892C154.245 113.191 153.595 113.438 152.928 113.634V110.874C153.895 110.597 154.803 110.145 155.606 109.539C156.239 109.018 156.748 108.363 157.097 107.62L159.889 107.603Z" fill="white"/>
</svg>
