<svg width="204" height="196" viewBox="0 0 204 196" fill="none" xmlns="http://www.w3.org/2000/svg">
<path d="M23.1327 152.599C22.7793 152.971 21.3675 154.01 20.9006 154.223C20.3241 154.413 18.0828 152.074 16.8287 151.074C15.0357 149.798 12.9637 148.97 10.7855 148.659C8.46842 148.345 5.96075 147.184 3.63125 143.896C1.30175 140.607 1.58646 138.439 1.7502 137.859C1.91393 137.28 2.98562 136.716 2.98562 136.716L23.1327 152.599Z" fill="#263238"/>
<path d="M31.0736 145.664C28.1069 147.066 27.1905 148.638 25.9991 150.263C25.1133 151.577 23.7612 152.505 22.2168 152.859C19.888 152.169 17.307 148.917 14.2835 147.882C12.6684 147.324 8.96245 147.21 7.4816 144.562C6.00075 141.915 7.68415 137.183 7.68415 137.183C9.9755 138.388 12.4416 139.225 14.9925 139.665C19.5074 140.385 24.4471 140.348 27.8931 138.897L31.0736 145.664Z" fill="#455A64"/>
<path d="M13.7431 146.764C16.5781 147.535 20.0259 149.585 21.1107 148.669C22.1956 147.754 24.9609 148.147 24.9609 148.147C24.9609 148.147 27.0788 148.211 24.7785 144.054C23.5372 141.813 23.5667 140.696 23.8551 140.141C24.485 139.866 27.1747 139.326 27.7115 138.897L31.078 145.66C28.1113 147.062 27.195 148.634 26.0035 150.259C25.1177 151.573 23.7657 152.501 22.2212 152.855C19.8924 152.165 17.3114 148.913 14.2879 147.878C13.602 147.655 12.4926 147.477 11.3531 147.157C12.0848 146.767 12.9249 146.629 13.7431 146.764Z" fill="#37474F"/>
<path d="M17.6332 149.824C16.07 147.94 15.417 147.174 12.9343 145.988C10.4515 144.803 12.5321 141.198 10.2596 138.239C9.04932 137.248 7.70287 136.435 6.26151 135.826C5.16927 135.423 4.29008 135.608 3.01493 136.716C2.80395 137.566 2.7714 138.45 2.91935 139.313C3.0673 140.175 3.39253 140.998 3.8745 141.729C6.46507 146.113 9.6289 147.005 12.2092 147.659C14.7896 148.312 15.983 148.608 17.6332 149.824Z" fill="#D9E5FF"/>
<path opacity="0.1" d="M6.66388 142.368C9.64718 146.344 12.9443 146.764 15.4019 147.455C16.226 148.164 16.9735 148.959 17.632 149.824C15.9818 148.608 14.7546 148.315 12.179 147.658C9.60336 147.002 6.43481 146.112 3.84424 141.728C3.36227 140.998 3.03703 140.175 2.88908 139.312C2.74114 138.449 2.77369 137.565 2.98468 136.716C4.26994 135.622 5.14912 135.437 6.23127 135.826C4.08995 135.629 3.68394 138.396 6.66388 142.368Z" fill="black"/>
<path d="M24.9723 148.953C25.4271 150.146 25.2199 151.387 24.071 151.662C23.4826 151.763 22.8517 151.646 22.3141 151.335C21.7765 151.024 21.3753 150.545 21.1967 150C20.7419 148.808 21.2779 147.626 22.4228 147.353C23.5676 147.08 24.5111 147.758 24.9723 148.953Z" fill="#407BFF"/>
<path opacity="0.15" d="M24.9716 148.953C24.638 148.083 24.0438 147.491 23.3122 147.326C24.2838 147.873 24.8535 149.646 23.4001 150.31C22.0865 150.892 21.2673 150.067 21.0684 149.475C21.0946 149.646 21.139 149.817 21.201 149.984C21.3796 150.528 21.7808 151.007 22.3184 151.318C22.8559 151.629 23.4869 151.746 24.0753 151.645C25.2192 151.387 25.4264 150.146 24.9716 148.953Z" fill="black"/>
<path d="M27.5178 102.542C27.1169 102.764 25.7965 102.848 25.3414 102.904C24.7987 102.912 23.4838 100.716 22.6815 99.5238C21.493 97.9518 19.9468 96.687 18.172 95.8349C16.2793 94.9434 14.4505 93.2772 13.3426 89.8411C12.2348 86.4051 13.0575 84.6295 13.3522 84.1784C13.6468 83.7274 14.712 83.5336 14.712 83.5336L27.5178 102.542Z" fill="#263238"/>
<path d="M36.2796 98.7346C33.3738 99.1344 32.1717 100.23 30.7207 101.298C29.6138 102.182 28.2122 102.611 26.8 102.498C24.9979 101.282 23.6657 97.8101 21.3633 96.1123C20.1346 95.2012 17.0038 94.1064 16.4485 91.4465C15.8932 88.7865 18.5945 85.1974 18.5945 85.1974C20.2271 86.8427 22.107 88.2215 24.1654 89.2836C27.8244 91.1133 30.6897 92.8158 34.2837 91.6637L36.2796 98.7346Z" fill="#455A64"/>
<path d="M21.2009 95.0123C23.4133 96.4335 25.8062 99.1124 26.9765 98.6221C28.1468 98.1319 30.4007 99.2117 30.4007 99.2117C30.4007 99.2117 32.1902 99.8364 31.3395 95.6666C30.8799 93.418 31.2039 92.4712 31.5982 92.0751C32.2091 92.0098 34.1992 91.7004 34.7719 91.4783L36.2841 98.733C33.3782 99.1328 32.1762 100.229 30.7252 101.297C29.6182 102.181 28.2167 102.61 26.8045 102.497C25.0023 101.281 23.6702 97.8085 21.3678 96.1107C20.8422 95.7355 19.9435 95.2852 19.0569 94.7052C19.7856 94.5685 20.5391 94.6765 21.2009 95.0123Z" fill="#37474F"/>
<path d="M23.7018 98.6731C22.872 96.6433 22.5198 95.8129 20.719 94.1321C18.9181 92.4513 21.657 89.9316 20.5096 86.7925C19.7423 85.6199 18.811 84.5635 17.7441 83.6558C16.9203 83.0172 16.1208 82.9388 14.7367 83.5424C14.3295 84.2114 14.0653 84.9578 13.9608 85.7347C13.8563 86.5115 13.9137 87.3019 14.1295 88.0558C15.167 92.4981 17.6273 94.1117 19.6538 95.3639C21.6803 96.6161 22.6193 97.1899 23.7018 98.6731Z" fill="#D9E5FF"/>
<path opacity="0.1" d="M16.3383 89.3519C17.82 93.5513 20.5204 94.7972 22.4321 96.0485C22.9453 96.8766 23.3705 97.7562 23.7008 98.6729C22.6184 97.1897 21.6499 96.6091 19.6283 95.3553C17.6067 94.1015 15.1415 92.4895 14.1039 88.0472C13.8882 87.2933 13.8308 86.5029 13.9353 85.7261C14.0398 84.9492 14.304 84.2028 14.7111 83.5338C16.1001 82.945 16.8996 83.0234 17.7186 83.6472C15.9446 82.9027 14.8583 85.1575 16.3383 89.3519Z" fill="black"/>
<path d="M30.9324 98.9698C31.1944 99.9711 30.7184 100.978 29.3994 101.143C28.7316 101.196 28.0609 101.067 27.5315 100.784C27.002 100.502 26.6563 100.088 26.5687 99.6323C26.3066 98.631 27.1325 97.69 28.4467 97.5259C29.7609 97.3619 30.6637 97.9664 30.9324 98.9698Z" fill="#407BFF"/>
<path opacity="0.15" d="M30.9319 98.9695C30.7386 98.2392 30.2033 97.7224 29.4312 97.5492C30.3908 98.0487 30.6634 99.5316 28.9316 100C27.3697 100.409 26.6334 99.69 26.5328 99.1945C26.5274 99.3365 26.5422 99.4785 26.577 99.6185C26.6647 100.074 27.0104 100.488 27.5398 100.77C28.0693 101.053 28.74 101.182 29.4078 101.13C30.7179 100.978 31.1939 99.9709 30.9319 98.9695Z" fill="black"/>
<path d="M78.7806 90.3778C79.275 92.2631 76.9073 93.8962 69.9013 95.5734C63.6478 97.0718 38.1628 98.9927 36.2771 99.0186C34.8367 99.0377 33.3891 91.5281 35.1123 91.0773C37.9756 90.3203 68.0263 80.9942 71.4756 79.9982C74.925 79.0023 75.6593 78.6784 76.5806 80.3566C77.502 82.0349 78.7806 90.3778 78.7806 90.3778Z" fill="#D9E5FF"/>
<path opacity="0.1" d="M76.5596 80.361C77.4768 82.0456 78.7829 90.3885 78.7829 90.3885C79.2773 92.2737 76.9096 93.9069 69.9036 95.584C63.65 97.0825 38.165 99.0034 36.2794 99.0292C35.8395 99.0349 35.3949 98.3304 35.0422 97.3428C40.6043 96.6833 53.9753 95.0509 58.8397 94.074C65.0553 92.8257 76.5916 89.0969 72.8604 86.2189C70.2221 82.4334 71.256 81.3188 72.8604 79.5082C73.3807 79.3541 73.6985 79.5805 73.9486 79.5082C77.38 78.5048 75.6382 78.6827 76.5596 80.361Z" fill="black"/>
<path d="M78.8708 93.6555L74.026 89.7488C73.21 89.19 72.7949 86.515 75.3398 82.9321C77.5307 79.8471 79.8228 80.2113 79.8228 80.2113L87.673 84.1388L78.8708 93.6555Z" fill="#37474F"/>
<path d="M130.081 112.731C128.579 110.084 126.005 106.783 110.435 96.1934C94.8641 85.6041 84.8169 81.7379 84.8169 81.7379C81.3388 80.6664 74.8117 90.7061 76.8464 92.8525L103.959 119.991C110.8 125.717 137.707 126.16 130.081 112.731Z" fill="#D9E5FF"/>
<path opacity="0.1" d="M103.959 119.991L76.8463 92.853C75.3281 91.2436 78.6296 85.1591 81.8352 82.6968C81.8841 82.7388 81.9292 82.785 81.9699 82.8349C84.1305 85.4671 79.3442 86.5262 79.8071 87.5243C80.2699 88.5225 94.8114 99.4093 99.5126 103.277C105.723 108.394 111.944 106.254 119.327 109.141C123.481 110.849 127.458 112.957 131.202 115.437C133.894 126.065 110.306 125.301 103.959 119.991Z" fill="black"/>
<path d="M129.779 117.247C130.571 115.248 128.435 110.962 123.518 108.061C118.601 105.159 110.098 102.979 107.706 109.352C105.314 115.725 126.495 126.586 129.779 117.247Z" fill="#407BFF"/>
<path d="M125.022 115.018C125.694 113.31 125.806 110.688 120.399 108.578C115.871 106.82 113.161 106.713 111.708 110.337C109.546 115.714 122.227 122.956 125.022 115.018Z" fill="#455A64"/>
<path d="M77.6525 86.0559C74.6665 85.4391 72.234 83.4102 72.7819 80.7584C73.3299 78.1065 76.1881 76.4511 79.1742 77.0679C82.1602 77.6847 84.1346 80.3314 83.5867 82.9833C83.0388 85.6351 80.634 86.6666 77.6525 86.0559Z" fill="#407BFF"/>
<path opacity="0.15" d="M81.0936 82.5833C78.5009 85.1438 73.9998 83.386 72.7125 81.4418C72.676 83.7563 74.9313 85.4929 77.652 86.0559C80.6335 86.6666 83.0383 85.6351 83.5862 82.9833C83.7443 82.105 83.6558 81.2 83.3305 80.3689C83.0053 79.5379 82.4559 78.8133 81.7436 78.2757C82.1632 78.9543 82.3281 79.7598 82.2091 80.5488C82.09 81.3377 81.6947 82.0587 81.0936 82.5833Z" fill="black"/>
<path opacity="0.1" d="M129.779 113.446C131.291 112.413 121.818 108.89 121.818 108.89C121.818 108.89 114.824 105.313 112.95 109.208C110.564 114.165 110.995 116.847 112.553 119.368C114.787 122.989 116.947 124.358 118.574 125.289C119.98 126.07 129.087 133.501 130.946 133.078C126.297 123.446 128.267 114.478 129.779 113.446Z" fill="black"/>
<path d="M126.032 77.6474C126.032 77.6474 126.038 72.3131 126.55 70.3166C127.09 68.1989 128.936 67.3662 130.007 68.7128C131.077 70.0594 131.501 72.6114 131.501 72.6114L132.037 77.4118L126.032 77.6474Z" fill="#37474F"/>
<path d="M128.821 97.7968C126.69 98.3895 125.196 96.5617 125.167 93.2234C125.139 89.8851 125.908 75.9133 125.908 75.9133C125.923 75.3849 126.692 74.8804 128.847 74.8478C130.827 74.8154 132.103 75.4756 132.107 76.1343C132.107 76.1343 133.515 88.5186 133.816 90.014C134.363 93.0916 131.736 96.9849 128.821 97.7968Z" fill="#D9E5FF"/>
<path d="M131.824 99.0285L129.078 97.8634C129.078 97.8634 127.831 96.6288 128.92 94.2706C129.97 91.9971 131.471 91.7474 131.471 91.7474L135.368 92.6089L131.824 99.0285Z" fill="#37474F"/>
<path d="M158.386 103.472C158.991 99.9856 157.475 98.3909 154.378 97.1963C151.915 96.2527 134.576 92.1531 134.576 92.1531C132.52 91.9628 129.263 97.626 131.415 99.4371C131.415 99.4371 144.866 106.684 148.659 107.695C153.424 108.95 157.877 106.436 158.386 103.472Z" fill="#D9E5FF"/>
<path opacity="0.1" d="M131.064 95.879C130.564 97.2664 130.521 98.6836 131.415 99.4372C131.415 99.4372 144.865 106.679 148.662 107.69C148.749 107.713 148.839 107.726 148.926 107.749L149.444 106.276C149.378 106.288 149.313 106.275 149.243 106.268C146.422 106.123 143.612 104.95 145.776 101.324C145.934 101.062 146.125 100.821 146.342 100.606C143.135 100.938 133.334 96.6142 131.064 95.879Z" fill="black"/>
<path d="M157.398 103.144C158.323 101.495 157.127 99.2454 154.858 98.8406C153.728 98.6397 147.673 98.1602 145.776 101.324C143.606 104.946 146.418 106.123 149.24 106.274C152.061 106.424 156.211 106.117 157.398 103.144Z" fill="#3F7AFC"/>
<path d="M147.647 102.214C146.83 103.566 148.244 105.082 150.677 105.559C153.11 106.037 155.913 103.804 156.392 102.488C156.929 101.012 155.815 99.8117 152.597 99.8684C149.129 99.9361 147.421 101.064 147.647 102.214Z" fill="#37474F"/>
<path d="M134.134 64.9308C135.626 64.9523 133.311 69.4518 131.311 71.8226C131.237 71.6936 131.311 71.2785 130.585 69.6462C130.141 68.6464 129.316 68.558 131.022 67.692C132.728 66.826 132.642 64.9094 134.134 64.9308Z" fill="#C3CEE5"/>
<path d="M121.668 112.609C127.883 113.976 135.483 116.849 150.979 103.112C155.354 99.2333 159.645 101.644 162.896 106.32C162.746 106.478 162.616 106.632 162.507 106.786C162.024 107.501 161.989 108.306 162.395 109.179C162.967 110.191 164.255 111.344 166.205 112.881C167.069 115.324 167.589 117.805 167.643 119.949C168.045 136.075 128.312 135.581 126.875 130.872C120.528 130.017 122.161 115.46 121.668 112.609Z" fill="#455A64"/>
<path fill-rule="evenodd" clip-rule="evenodd" d="M131.311 133.126L131.311 7.92794e-08L133.125 0L133.125 133.126L131.311 133.126Z" fill="black"/>
<path d="M137.64 134.07C133.747 126.73 132.622 121.634 132.56 113.164L135.251 112.533C135.478 121.206 136.791 126.044 141.075 134.106L137.64 134.07Z" fill="black"/>
<path fill-rule="evenodd" clip-rule="evenodd" d="M127.951 142.759C129.836 142.929 131.602 143.59 132.8 144.923C134.001 146.259 134.494 148.186 134.512 150.21C134.531 152.248 134.071 154.478 133.259 156.532C132.448 158.585 131.268 160.506 129.81 161.899C128.351 163.293 126.564 164.201 124.575 164.086C120.99 163.877 118.427 162.756 116.803 160.622C115.203 158.521 114.62 155.572 114.663 151.949C114.711 147.927 118.263 144.957 122.056 143.596C123.984 142.904 126.062 142.589 127.951 142.759ZM122.546 144.962C118.961 146.248 116.151 148.86 116.114 151.967C116.072 155.472 116.649 158.025 117.957 159.743C119.24 161.429 121.334 162.444 124.659 162.637C126.124 162.722 127.538 162.063 128.808 160.85C130.079 159.636 131.155 157.908 131.91 155.999C132.664 154.092 133.078 152.047 133.062 150.223C133.045 148.386 132.593 146.864 131.721 145.893C130.845 144.918 129.476 144.353 127.821 144.204C126.172 144.056 124.307 144.33 122.546 144.962Z" fill="black"/>
<path fill-rule="evenodd" clip-rule="evenodd" d="M114.604 155.833C113.545 154.239 112.962 152.415 113.272 150.595C113.591 148.724 114.915 147.299 116.603 146.249C118.296 145.197 120.446 144.461 122.624 143.988C124.807 143.514 127.06 143.295 128.984 143.3C130.868 143.305 132.562 143.524 133.544 144.016C134.612 144.551 135.271 145.607 135.598 146.831C135.926 148.06 135.944 149.536 135.672 151.074C135.129 154.149 133.401 157.617 130.367 160.095C127.135 162.734 122.515 161.961 119.01 159.895C117.234 158.847 115.664 157.43 114.604 155.833ZM119.747 158.645C123.03 160.58 126.911 161.044 129.449 158.971C132.186 156.736 133.754 153.591 134.243 150.821C134.488 149.437 134.456 148.182 134.196 147.205C133.934 146.224 133.466 145.6 132.894 145.313C132.236 144.984 130.841 144.756 128.98 144.751C127.159 144.746 125.011 144.954 122.932 145.406C120.846 145.859 118.871 146.548 117.369 147.482C115.863 148.418 114.924 149.54 114.702 150.839C114.473 152.189 114.889 153.641 115.812 155.03C116.734 156.418 118.13 157.692 119.747 158.645Z" fill="black"/>
<path fill-rule="evenodd" clip-rule="evenodd" d="M132.033 130.283C132.533 130.318 132.91 130.751 132.875 131.25L131.871 145.735C134.307 149.619 138.872 159.857 139.242 172.412C139.362 176.492 138.638 179.465 137.457 181.748C136.278 184.029 134.678 185.553 133.174 186.777C132.776 187.102 132.335 187.443 131.919 187.764C131.606 188.006 131.308 188.237 131.055 188.44C130.407 188.958 129.862 189.44 129.434 189.948C128.628 190.906 128.197 191.997 128.515 193.736C128.605 194.229 128.278 194.701 127.785 194.791C127.293 194.881 126.82 194.554 126.73 194.061C126.311 191.763 126.91 190.13 128.047 188.78C128.591 188.134 129.246 187.564 129.921 187.024C130.251 186.76 130.556 186.525 130.862 186.289C131.236 186.001 131.61 185.712 132.029 185.371C133.446 184.218 134.83 182.88 135.846 180.915C136.86 178.954 137.542 176.297 137.429 172.465C137.061 159.99 132.413 149.89 130.185 146.465L130.02 146.211L131.066 131.125C131.1 130.625 131.534 130.248 132.033 130.283Z" fill="black"/>
<path fill-rule="evenodd" clip-rule="evenodd" d="M122.429 142.018C126.517 141.306 131.04 142.617 132.795 146.46C133.679 148.394 133.551 150.664 132.898 152.908C132.242 155.162 131.034 157.478 129.629 159.579C128.223 161.683 126.601 163.601 125.094 165.059C124.34 165.787 123.607 166.409 122.935 166.883C122.276 167.349 121.629 167.707 121.054 167.857C119.821 168.177 118.609 167.639 117.599 166.734C116.578 165.821 115.651 164.447 114.91 162.801C113.427 159.506 112.621 154.961 113.43 150.371C114.28 145.551 118.308 142.736 122.429 142.018ZM122.678 143.448C118.976 144.092 115.573 146.57 114.859 150.623C114.103 154.907 114.862 159.158 116.233 162.206C116.92 163.732 117.743 164.916 118.566 165.653C119.398 166.397 120.123 166.599 120.689 166.452C121.013 166.368 121.49 166.128 122.098 165.698C122.694 165.278 123.37 164.707 124.085 164.015C125.516 162.632 127.072 160.794 128.423 158.773C129.776 156.749 130.904 154.569 131.505 152.503C132.108 150.428 132.156 148.553 131.475 147.062C130.102 144.056 126.412 142.797 122.678 143.448Z" fill="black"/>
<path d="M123.15 136.028C124.243 128.022 122.79 124.154 116.62 118.979C123.224 122.418 124.905 127.06 125.145 135.302L123.15 136.028Z" fill="black" fill-opacity="0.1"/>
<path fill-rule="evenodd" clip-rule="evenodd" d="M122.903 159.582C125.834 160.519 129.941 158.25 131.533 153.274C133.124 148.297 131.097 144.066 128.166 143.128C125.235 142.191 121.128 144.46 119.536 149.436C117.945 154.413 119.972 158.644 122.903 159.582ZM122.35 161.309C126.617 162.674 131.502 159.324 133.26 153.826C135.019 148.329 132.985 142.766 128.719 141.401C124.452 140.036 119.568 143.386 117.809 148.884C116.05 154.381 118.084 159.944 122.35 161.309Z" fill="black"/>
<path fill-rule="evenodd" clip-rule="evenodd" d="M131.311 107.371V96.6704H133.125V107.371H131.311Z" fill="black"/>
<path d="M128.954 113.357C130.405 112.231 120.974 109.367 120.974 109.367C120.974 109.367 113.933 106.646 112.223 110.636C110.046 115.714 110.606 117.986 112.223 120.383C114.542 123.828 116.711 125.042 118.343 125.858C119.751 126.539 128.954 133.307 130.768 132.763C125.871 123.513 127.503 114.482 128.954 113.357Z" fill="#D9E5FF"/>
<path opacity="0.2" d="M166.497 121.518C151.495 131.012 142.556 134.758 127.503 121.699C128.01 125.879 128.706 128.26 130.767 132.582C139.11 135.121 158.336 133.851 168.492 126.234C168.492 120.248 166.497 121.518 166.497 121.518Z" fill="black"/>
<path opacity="0.2" d="M153.51 109.974C154.116 110.922 154.48 112.006 154.571 113.128C152.673 111.021 148.784 113.351 145.257 114.977C141.204 116.86 141.984 116.255 138.018 112.902L137.12 112.604L141.018 108.61C141.018 108.61 150.018 105.201 153.51 109.974Z" fill="black"/>
<path d="M127.82 60.0818C124.529 62.8712 126.234 71.8227 126.234 71.8227C126.415 71.0928 126.987 68.1133 128.773 68.1953C130.277 68.2643 131.312 71.4599 131.312 71.8227C131.774 66.0908 134.981 63.3216 134.981 63.3216C134.981 63.3216 136.136 60.5803 135.443 57.5897C133.769 50.3626 131.054 57.3405 127.82 60.0818Z" fill="#D9E5FF"/>
<path d="M171.418 119.738C172.888 124.544 173.352 127.071 168.687 129.139C164.022 131.208 154.349 132.46 150.25 131.969C145.988 131.46 145.57 131.871 144.811 128.905C143.85 125.153 143.523 120.214 144.419 119.169C145.315 118.124 151.635 114.8 150.604 112.935C149.573 111.069 143.132 114.497 142.001 114.588C140.87 114.679 137.457 112.596 137.43 111.75C137.404 110.903 142.336 104.813 147.828 101.558C154.382 97.6886 156.594 97.987 160.198 101.525L171.418 119.738Z" fill="#D9E5FF"/>
<path d="M171.71 125.185C171.668 123.177 170.041 122.634 166.789 123.905C164.439 124.824 161.702 127.207 162.16 128.998C162.591 130.685 164.638 130.096 167.432 129.214C168.991 128.737 171.75 127.199 171.71 125.185Z" fill="#407BFF"/>
<path d="M170.523 125.462C170.346 124.203 168.603 124.358 166.844 125.29C165.084 126.222 164.059 127.135 164.286 128.239C164.617 129.866 166.474 130.968 168.39 130.09C170.02 129.341 170.719 127.554 170.523 125.462Z" fill="#37474F"/>
<path opacity="0.1" d="M169.689 116.938L171.393 119.69C172.871 124.49 173.34 127.015 168.682 129.092C164.023 131.169 154.368 132.457 150.271 131.974C146.01 131.474 145.593 131.886 144.829 128.923C144.483 127.559 144.231 126.173 144.075 124.775C145.2 126.866 146.414 128.806 152.809 128.407C159.204 128.008 163.71 126.225 166.87 124.203C169.734 122.348 170.318 120.496 169.689 116.938Z" fill="black"/>
<path d="M139.476 156.068C138.761 156.409 137.53 156.623 135.25 156.319C132.97 156.015 129.264 155.068 127.44 153.705C125.617 152.342 125.144 151.024 125.166 149.522C125.189 148.02 125.507 147.389 125.31 146.246C125.006 144.604 125.596 144.008 126.907 144.961C128.217 145.914 130.003 147.264 131.326 147.808C132.177 148.153 133.07 148.383 133.982 148.493C136.027 147.091 135.25 145.822 135.25 145.822C136.48 146.634 138.265 148.068 139.361 148.917C140.458 149.767 141.077 150.494 140.884 153.028C140.691 155.563 140.303 155.649 139.476 156.068Z" fill="#D9E5FF"/>
<path opacity="0.1" d="M127.441 153.704C125.584 152.334 125.144 151.023 125.167 149.522C125.19 148.02 125.508 147.389 125.311 146.246C125.144 145.332 125.252 144.743 125.603 144.562C125.071 145.22 125.677 146.057 126.332 146.888C126.986 147.718 126.654 149.929 126.985 150.638C127.421 151.568 127.887 152.842 131.288 153.742C134.689 154.642 135.18 153.258 138.169 152.489L140.908 152.784L140.891 153.009C140.698 155.534 140.317 155.674 139.492 156.064C138.777 156.404 137.546 156.619 135.265 156.315C132.985 156.011 129.265 155.067 127.441 153.704Z" fill="black"/>
<path d="M143.863 156.744C143.863 156.744 138.55 156.016 136.634 155.229C134.605 154.405 134.031 152.457 135.506 151.572C136.98 150.687 139.588 150.611 139.588 150.611L144.436 150.735L143.863 156.744Z" fill="#37474F"/>
<path d="M164.29 156.697C164.605 158.894 162.582 160.132 159.241 159.714C155.9 159.295 142.12 156.732 142.12 156.732C141.646 156.628 141.322 155.5 141.529 153.545C141.736 151.589 142.745 150.548 143.141 150.55C143.141 150.55 155.701 150.77 157.22 150.693C160.36 150.542 163.879 153.682 164.29 156.697Z" fill="#D9E5FF"/>
<path opacity="0.1" d="M158.141 150.744C161.002 151.155 163.919 153.97 164.29 156.692C164.605 158.889 162.582 160.128 159.241 159.709C155.9 159.29 142.12 156.727 142.12 156.727C141.693 156.636 141.407 155.771 141.474 154.268C143.466 154.622 146.153 154.899 148.514 155.224C154.107 156.002 158.815 157.455 157.589 154.769C156.671 152.771 157.128 151.148 158.141 150.744Z" fill="black"/>
<path d="M165.527 152.982L164.697 155.864C164.697 155.864 163.616 157.251 161.116 156.447C158.718 155.654 158.307 154.217 158.307 154.217L158.69 150.218L165.527 152.982Z" fill="#37474F"/>
<path d="M171.082 126.693C168.2 125.789 161.874 128.758 161.036 131.267C160.199 133.777 158.197 151.287 158.197 151.287C158.253 153.361 164.29 155.936 165.843 153.577C165.843 153.577 170.734 139.141 172.022 135.392C173.31 131.642 173.965 127.602 171.082 126.693Z" fill="#D9E5FF"/>
<path opacity="0.1" d="M171.082 126.693C173.966 127.602 173.308 131.649 172.022 135.392C170.736 139.135 165.843 153.577 165.843 153.577C165.275 154.438 164.101 154.634 162.853 154.447C163.511 152.985 164.854 149.624 166.786 142.926C168.99 135.259 170.311 129.202 169.425 126.547C169.981 126.495 170.543 126.545 171.082 126.693Z" fill="black"/>
<path d="M134.032 54.5923C135.121 55.4992 126.959 58.0383 127.322 68.9206L126.234 72.0038C125.641 66.5864 125.465 63.7189 127.14 60.7589C132.123 54.6985 133.126 54.0482 134.032 54.5923Z" fill="#C3CEE5"/>
<path d="M116.609 120.807C117.665 120.023 122.357 122.77 124.814 125.046C128.56 128.511 129.406 131.803 128.226 133.352C127.046 134.9 122.637 132.64 121.183 131.436C118.712 129.386 114.973 123.514 116.609 120.807Z" fill="#407BFF"/>
<path d="M123.613 134.06C124.707 133.451 125.766 132.782 126.786 132.055C127.772 131.279 126.109 128.922 125.59 128.101C123.972 125.532 121.28 123.17 120.72 123.252C119.357 123.451 117.569 124.773 117.569 124.773L123.613 134.06Z" fill="#455A64"/>
<path d="M177.782 111.539C177.782 111.539 170.666 114.876 170.381 115.04C170.096 115.203 171.488 120.174 171.488 120.174C171.488 120.174 169.803 116.913 165.259 113.561C163.641 112.429 161.875 111.525 160.009 110.876C159.75 110.783 159.514 110.636 159.315 110.445C159.117 110.255 158.961 110.025 158.858 109.77C158.755 109.516 158.707 109.242 158.717 108.968C158.727 108.694 158.795 108.424 158.916 108.178C159.166 107.68 159.418 107.145 159.623 106.65C160.146 105.168 160.394 103.604 160.354 102.033C160.354 102.033 165.837 106.489 166.048 106.369L170.594 104.213L177.782 111.539Z" fill="#455A64"/>
<path d="M176.49 91.1741C181.719 86.2458 189.964 86.4809 194.905 91.699C199.847 96.9172 199.614 105.143 194.385 110.071C189.155 114.999 180.91 114.764 175.969 109.546C171.027 104.328 171.26 96.1023 176.49 91.1741Z" fill="#455A64"/>
<path opacity="0.2" d="M169.183 104.902L171.116 103.971L173.625 102.677C173.625 102.677 175.674 104.56 181.126 109.286C185.116 112.747 190.844 112.335 195.18 109.237C193.074 111.609 190.172 113.132 187.018 113.518C183.865 113.904 180.678 113.126 178.059 111.332C176.103 112.264 171.945 114.256 171.692 114.402C171.692 114.402 171.741 113.334 170.54 111.646C169.338 109.959 166.915 109.095 169.51 108.582C171.815 108.109 169.722 105.52 169.183 104.902Z" fill="black"/>
<path d="M193.913 90.8227C196.839 95.8584 195.054 100.503 190.968 104.032C188.331 106.306 181.263 110.054 176.388 109.329C173.831 108.936 167.988 103.658 167.178 100.49C166.278 96.9965 169.951 94.2402 173.763 91.6826C176.569 89.7731 179.675 88.3464 182.954 87.4619C187.617 85.9983 192.048 88.0841 193.913 90.8227Z" fill="#D9E5FF"/>
<path d="M174.055 91.5134C174.001 91.813 173.983 92.118 174.001 92.422C176.327 95.7245 179.356 95.1357 179.504 95.0905C179.753 94.947 183.787 92.9522 186.215 92.5532C186.135 92.2333 186.072 91.9095 186.024 91.5832C185.764 89.8113 186.053 88.3952 186.889 87.3891C186.993 87.2642 187.105 87.1467 187.226 87.0374C187.337 87.0486 187.442 87.0692 187.549 87.0829C187.379 87.224 187.223 87.3806 187.082 87.5507C186.294 88.4997 186.023 89.8471 186.277 91.5474C187.06 96.9036 191.465 99.9864 193.968 100.637L193.828 100.857C191.968 100.341 189.162 98.5762 187.431 95.5974C186.918 94.7161 186.527 93.7698 186.268 92.7842C183.904 93.1634 179.827 95.1946 179.617 95.3043C178.783 96.1233 177.042 99.2092 178.779 103.793C180.238 104.809 181.944 105.416 183.718 105.551L183.707 105.801C181.872 105.667 180.109 105.041 178.602 103.989C178.413 103.964 177.063 103.826 174.757 104.857C174.605 104.945 174.435 105.003 174.294 105.061C173.362 105.559 172.353 105.899 171.309 106.066L171.046 105.823C171.937 105.854 173.056 105.347 174.187 104.838C174.34 104.75 174.51 104.692 174.675 104.615C176.711 103.711 178.005 103.683 178.483 103.714C176.935 99.4567 178.312 96.4652 179.212 95.3585C178.296 95.4461 175.74 95.3957 173.756 92.5113L173.738 92.4809L173.721 92.4504C173.713 92.1885 173.726 91.9264 173.76 91.6666L173.799 91.644C173.885 91.6117 173.968 91.5638 174.055 91.5134Z" fill="#407BFF"/>
<path d="M187.437 106.73C185.98 105.475 183.322 105.309 181.505 106.359C179.687 107.41 179.399 109.278 180.856 110.533C182.313 111.788 184.975 111.922 186.788 110.874C188.601 109.826 188.911 107.974 187.437 106.73Z" fill="#407BFF"/>
<path opacity="0.15" d="M181.126 109.285C181.233 109.465 181.37 109.626 181.53 109.76C182.678 110.735 184.846 110.859 186.293 110.022C187.252 109.468 187.618 108.675 187.201 107.958C187.094 107.776 186.956 107.614 186.794 107.479C185.649 106.508 183.474 106.383 182.027 107.219C181.067 107.792 180.714 108.577 181.126 109.285Z" fill="black"/>
<path opacity="0.15" d="M186.794 107.479C186.956 107.614 187.093 107.776 187.201 107.958C187.224 107.993 187.245 108.029 187.264 108.067C187.048 108.438 186.733 108.743 186.354 108.947C184.912 109.78 182.729 109.66 181.589 108.68C181.428 108.546 181.292 108.385 181.185 108.205C181.161 108.171 181.14 108.134 181.122 108.097C181.334 107.725 181.648 107.42 182.027 107.219C183.481 106.396 185.657 106.503 186.794 107.479Z" fill="black"/>
<path d="M185.394 99.087C186.051 100.067 186.579 100.726 186.461 101.264C186.308 102.003 185.549 102.25 184 102.82C183.11 103.143 182.224 103.44 181.248 103.034C180.141 102.571 178.543 101.083 177.085 98.5743C175.438 95.739 174.626 93.0777 176.015 90.2881C177.677 89.2812 179.46 88.4885 181.322 87.9292C181.215 89.319 181.372 90.7164 181.782 92.0487C182.672 94.8922 183.579 96.3836 185.394 99.087Z" fill="#455A64"/>
<path d="M180.15 99.5931C179.934 99.0723 180.263 98.4423 180.885 98.1857C181.508 97.9292 182.187 98.1434 182.403 98.6641C182.619 99.1848 182.289 99.8149 181.667 100.071C181.045 100.328 180.366 100.114 180.15 99.5931Z" fill="#407BFF"/>
<path d="M177.664 90.6414C177.522 90.7546 177.415 90.9057 177.356 91.077C177.296 91.2484 177.287 91.4331 177.328 91.6098C177.37 91.7864 177.46 91.9477 177.59 92.0751C177.719 92.2024 177.882 92.2905 178.06 92.3292C178.238 92.3679 178.423 92.3556 178.594 92.2937C178.764 92.2319 178.914 92.1229 179.026 91.9796C179.137 91.8362 179.205 91.6643 179.223 91.4838C179.24 91.3032 179.206 91.1214 179.124 90.9594C178.972 90.7255 178.733 90.561 178.46 90.5014C178.186 90.4419 177.901 90.4922 177.664 90.6414Z" fill="#407BFF"/>
<path opacity="0.2" d="M130.767 132.763C125.319 122.687 120.954 117.418 110.998 114.626L110.454 117.347C124.001 128.941 127.684 132.763 130.767 132.763Z" fill="black"/>
<path d="M75.3081 122.401C76.3896 124.204 74.4317 126.615 67.6589 130.481C61.6326 133.924 43.3098 140.666 41.4386 141.471C40.1765 141.982 32.1558 145.804 30.7944 145.788C29.4331 145.773 26.0789 141.571 26.6229 140.347C27.3485 138.715 32.0641 135.632 32.0641 135.632C35.2457 133.115 61.3072 115.945 64.5872 113.868C67.8672 111.79 68.5204 111.237 69.9787 112.699C71.4371 114.162 75.3081 122.401 75.3081 122.401Z" fill="#D9E5FF"/>
<path opacity="0.1" d="M70.1514 122.21C70.1514 125.838 51.2634 135.257 29.3431 144.882C29.3431 144.882 29.8872 145.789 31.1568 145.789C31.5196 145.789 40.5881 141.798 40.5881 141.798C59.9947 134.362 71.6489 129.584 75.2298 124.568L70.1514 118.764L67.4309 112.054C67.4309 112.054 59.4506 117.313 70.1514 122.21Z" fill="black"/>
<path d="M78.7429 123.936L73.9116 124.58C72.8801 124.642 71.2919 123.257 70.2182 119.58C69.1444 115.904 69.8978 112.631 70.9778 112.336L77.6817 110.955L78.7429 123.936Z" fill="#37474F"/>
<path d="M129.085 137.305C130.961 134.449 122.213 122.413 117.491 118.608C112.769 114.803 110.128 111.855 96.7522 110.362C82.6345 108.766 76.0361 110.677 76.0361 110.677C73.5848 111.913 74.7772 123.983 77.8979 125.265C77.8979 125.265 95.7995 130.692 103.791 133.47C111.782 136.248 126.585 142.431 129.085 137.305Z" fill="#D9E5FF"/>
<path opacity="0.1" d="M126.154 128.914C128.48 132.534 129.975 135.95 129.085 137.305C126.585 142.431 111.79 136.246 103.791 133.47C95.7914 130.694 77.8979 125.265 77.8979 125.265C75.2005 124.157 73.9509 115 75.2365 111.735C76.3948 111.554 77.5093 111.567 78.237 112.01C80.4378 113.344 77.3851 117.855 78.3316 118.825C79.278 119.795 95.2736 124.194 107.759 128.521C120.245 132.847 127.256 133.112 126.154 128.914Z" fill="black"/>
<path d="M71.6918 118.518C68.4091 118.722 65.3028 117.293 65.1239 114.376C64.945 111.458 67.4592 108.93 70.7266 108.708C73.994 108.487 76.8111 110.711 76.9899 113.628C77.1688 116.545 74.9702 118.319 71.6918 118.518Z" fill="#407BFF"/>
<path opacity="0.15" d="M74.2271 113.797C73.1548 116.514 68.9874 118.373 65.4669 115.734C66.3735 117.729 68.9701 118.69 71.6927 118.519C74.9711 118.319 77.1851 116.563 77.0062 113.646C76.8489 111.081 74.6582 109.069 71.902 108.759C73.0078 109.458 75.291 111.079 74.2271 113.797Z" fill="black"/>
</svg>
