<svg width="250" height="250" viewBox="0 0 250 250" fill="none" xmlns="http://www.w3.org/2000/svg">
<path d="M92.1371 174.366C92.173 176.619 90.1241 178.478 87.5606 178.519C84.9972 178.56 82.89 176.767 82.854 174.514C82.818 172.262 84.867 170.402 87.4304 170.361C89.9939 170.321 92.1011 172.114 92.1371 174.366Z" fill="#3A6FE5"/>
<path d="M76.2653 172.446C76.2653 174.855 74.187 176.807 71.6232 176.807C69.0594 176.807 66.9811 174.855 66.9811 172.446C66.9811 170.038 69.0594 168.085 71.6232 168.085C74.187 168.085 76.2653 170.038 76.2653 172.446Z" fill="#3A6FE5"/>
<path d="M125.5 230.377C178.795 230.377 222 228.006 222 225.08C222 222.154 178.795 219.783 125.5 219.783C72.2045 219.783 29 222.154 29 225.08C29 228.006 72.2045 230.377 125.5 230.377Z" fill="#F5F5F5"/>
<path d="M93.0691 221.923C92.2064 217.756 88.2158 220.932 84.1136 220.393C80.0114 219.854 79.9543 222.515 80.0104 226.031C81.757 227.761 82.5475 227.655 84.2272 227.512C86.1031 225.388 94.5592 229.122 93.0691 221.923Z" fill="black"/>
<path d="M182.08 130.437C182.374 129.548 182.485 128.602 182.406 127.663C182.327 126.724 182.06 125.814 181.623 124.995C181.186 124.176 180.59 123.468 179.874 122.918C179.159 122.367 178.341 121.988 177.476 121.807L202.33 127.585C203.195 127.766 204.013 128.145 204.729 128.695C205.445 129.245 206.042 129.953 206.48 130.772C206.917 131.591 207.184 132.502 207.263 133.441C207.342 134.38 207.231 135.327 206.938 136.216L182.08 130.437Z" fill="#264A99"/>
<path d="M140.731 126.828C140.539 126.419 140.466 125.983 140.517 125.551C140.569 125.119 140.744 124.7 141.03 124.323C141.317 123.946 141.708 123.62 142.177 123.367C142.646 123.114 143.182 122.939 143.749 122.856L127.456 125.515C126.889 125.599 126.353 125.773 125.883 126.026C125.414 126.279 125.022 126.605 124.736 126.982C124.449 127.359 124.274 127.778 124.222 128.211C124.17 128.643 124.243 129.079 124.435 129.488L140.731 126.828Z" fill="#264A99"/>
<path d="M177.477 121.807L202.33 127.585C200.479 127.198 198.559 127.541 196.926 128.551C195.293 129.561 194.057 131.17 193.447 133.08L186.612 155.641C186.001 157.55 184.766 159.158 183.133 160.168C181.5 161.177 179.58 161.52 177.73 161.132L166.363 158.489C165.497 158.311 164.677 157.934 163.96 157.385C163.243 156.836 162.646 156.127 162.208 155.308C161.771 154.489 161.504 153.578 161.427 152.638C161.349 151.698 161.462 150.751 161.758 149.863L168.59 127.301C169.201 125.391 170.438 123.782 172.071 122.772C173.705 121.762 175.625 121.419 177.477 121.807Z" fill="#D9E5FF"/>
<path d="M143.749 122.855L127.456 125.515C128.67 125.337 129.928 125.495 130.999 125.96C132.069 126.425 132.88 127.165 133.28 128.044L137.761 138.429C138.161 139.308 138.971 140.048 140.042 140.513C141.112 140.977 142.37 141.135 143.584 140.956L151.035 139.74C151.603 139.658 152.14 139.484 152.61 139.232C153.08 138.979 153.472 138.653 153.759 138.276C154.045 137.899 154.22 137.479 154.271 137.047C154.322 136.614 154.248 136.178 154.054 135.769L149.575 125.384C149.174 124.505 148.364 123.765 147.293 123.3C146.222 122.835 144.963 122.677 143.749 122.855Z" fill="#D9E5FF"/>
<path d="M173.125 152.505C172.829 153.394 172.716 154.341 172.793 155.281C172.871 156.221 173.138 157.131 173.575 157.951C174.012 158.77 174.61 159.478 175.327 160.028C176.044 160.577 176.864 160.953 177.73 161.132L152.872 155.353C152.006 155.174 151.187 154.798 150.47 154.248C149.753 153.699 149.155 152.991 148.717 152.172C148.28 151.352 148.014 150.441 147.936 149.502C147.858 148.562 147.971 147.615 148.268 146.726L173.125 152.505Z" fill="#264A99"/>
<path d="M146.603 136.986C146.797 137.395 146.871 137.83 146.82 138.263C146.769 138.696 146.594 139.115 146.308 139.492C146.021 139.869 145.629 140.195 145.159 140.448C144.689 140.701 144.152 140.874 143.584 140.956L159.879 138.296C160.447 138.214 160.984 138.041 161.455 137.788C161.925 137.535 162.316 137.209 162.603 136.832C162.89 136.455 163.065 136.036 163.116 135.603C163.166 135.17 163.092 134.735 162.898 134.326L146.603 136.986Z" fill="#264A99"/>
<path d="M170.208 136.162L187.027 140.072C187.172 140.101 187.323 140.074 187.451 139.995C187.579 139.915 187.676 139.789 187.724 139.64L187.736 139.58C187.759 139.51 187.767 139.436 187.76 139.362C187.754 139.288 187.733 139.217 187.698 139.153C187.664 139.089 187.617 139.033 187.561 138.99C187.505 138.946 187.441 138.916 187.373 138.902L170.558 134.993C170.413 134.963 170.264 134.991 170.136 135.07C170.009 135.15 169.913 135.276 169.865 135.425L169.853 135.485C169.831 135.554 169.822 135.628 169.829 135.701C169.835 135.774 169.855 135.845 169.889 135.909C169.922 135.973 169.968 136.028 170.023 136.072C170.078 136.115 170.141 136.146 170.208 136.162Z" fill="#3362CC"/>
<path d="M148.514 129.463L137.489 131.263C137.393 131.276 137.295 131.264 137.211 131.227C137.127 131.191 137.063 131.133 137.032 131.064L137.024 131.037C137.009 131.004 137.003 130.97 137.008 130.936C137.012 130.902 137.026 130.869 137.048 130.84C137.071 130.81 137.102 130.785 137.138 130.765C137.175 130.745 137.217 130.731 137.262 130.724L148.285 128.925C148.38 128.912 148.478 128.924 148.561 128.961C148.645 128.997 148.708 129.055 148.739 129.124L148.747 129.152C148.762 129.184 148.767 129.217 148.763 129.251C148.759 129.285 148.745 129.317 148.723 129.347C148.702 129.376 148.671 129.402 148.635 129.422C148.599 129.442 148.558 129.456 148.514 129.463Z" fill="#3362CC"/>
<path d="M169.097 139.802L185.92 143.713C186.065 143.743 186.215 143.715 186.343 143.636C186.471 143.557 186.568 143.431 186.617 143.281L186.629 143.221C186.651 143.151 186.66 143.077 186.653 143.003C186.647 142.93 186.626 142.858 186.591 142.794C186.557 142.73 186.51 142.674 186.454 142.631C186.398 142.588 186.334 142.558 186.266 142.543L169.455 138.635C169.31 138.605 169.159 138.633 169.031 138.712C168.903 138.791 168.806 138.917 168.758 139.067L168.746 139.126C168.723 139.195 168.714 139.269 168.72 139.341C168.725 139.414 168.746 139.485 168.779 139.549C168.812 139.613 168.858 139.669 168.912 139.712C168.967 139.756 169.03 139.786 169.097 139.802Z" fill="#3362CC"/>
<path d="M149.243 131.138L138.215 132.939C138.119 132.952 138.021 132.94 137.937 132.903C137.853 132.867 137.789 132.809 137.758 132.74L137.75 132.712C137.735 132.68 137.729 132.646 137.734 132.612C137.738 132.578 137.752 132.545 137.774 132.516C137.797 132.486 137.828 132.461 137.864 132.441C137.901 132.421 137.943 132.407 137.988 132.4L149.008 130.601C149.103 130.588 149.202 130.6 149.286 130.637C149.37 130.673 149.433 130.731 149.465 130.8L149.473 130.828C149.488 130.859 149.494 130.893 149.49 130.927C149.486 130.96 149.473 130.993 149.451 131.022C149.43 131.051 149.4 131.077 149.364 131.097C149.328 131.117 149.287 131.131 149.243 131.138Z" fill="#3362CC"/>
<path d="M167.999 143.445L184.822 147.356C184.967 147.385 185.116 147.359 185.244 147.28C185.372 147.202 185.469 147.077 185.518 146.928L185.531 146.864C185.554 146.795 185.563 146.721 185.557 146.647C185.551 146.573 185.53 146.502 185.496 146.438C185.462 146.374 185.416 146.318 185.36 146.275C185.304 146.231 185.24 146.201 185.172 146.187L168.353 142.277C168.208 142.247 168.058 142.275 167.93 142.354C167.802 142.433 167.705 142.559 167.656 142.709L167.643 142.773C167.621 142.842 167.613 142.915 167.619 142.988C167.625 143.061 167.646 143.131 167.679 143.195C167.713 143.258 167.759 143.313 167.814 143.357C167.869 143.4 167.932 143.43 167.999 143.445Z" fill="#3362CC"/>
<path d="M149.963 132.815L138.934 134.615C138.84 134.629 138.741 134.617 138.658 134.58C138.574 134.544 138.51 134.487 138.478 134.419L138.469 134.389C138.454 134.357 138.448 134.323 138.452 134.289C138.456 134.255 138.47 134.222 138.492 134.193C138.515 134.163 138.545 134.138 138.582 134.118C138.619 134.098 138.66 134.084 138.705 134.077L149.73 132.277C149.826 132.264 149.924 132.276 150.008 132.313C150.092 132.349 150.156 132.407 150.187 132.476L150.196 132.506C150.211 132.538 150.216 132.571 150.212 132.605C150.208 132.638 150.194 132.671 150.172 132.7C150.15 132.729 150.12 132.755 150.084 132.775C150.048 132.794 150.006 132.808 149.963 132.815Z" fill="#3362CC"/>
<path d="M167.003 147.022L179.936 150.029C180.081 150.059 180.231 150.033 180.359 149.954C180.487 149.876 180.584 149.75 180.632 149.601L180.645 149.537C180.668 149.468 180.677 149.394 180.671 149.32C180.665 149.247 180.644 149.176 180.61 149.112C180.576 149.048 180.529 148.993 180.473 148.95C180.417 148.907 180.353 148.878 180.285 148.864L167.368 145.861C167.223 145.83 167.073 145.857 166.945 145.935C166.817 146.014 166.72 146.139 166.672 146.289L166.659 146.353C166.636 146.421 166.627 146.493 166.633 146.565C166.638 146.637 166.658 146.707 166.69 146.77C166.723 146.833 166.767 146.888 166.821 146.932C166.875 146.975 166.937 147.006 167.003 147.022Z" fill="#3362CC"/>
<path d="M150.615 134.462L142.136 135.846C142.041 135.86 141.943 135.848 141.859 135.812C141.775 135.775 141.712 135.718 141.68 135.649L141.671 135.62C141.656 135.588 141.651 135.554 141.654 135.52C141.658 135.486 141.672 135.453 141.695 135.424C141.717 135.394 141.748 135.369 141.784 135.349C141.821 135.33 141.863 135.316 141.907 135.31L150.375 133.927C150.47 133.913 150.569 133.926 150.652 133.962C150.736 133.998 150.8 134.056 150.832 134.124L150.84 134.154C150.855 134.185 150.861 134.218 150.857 134.252C150.854 134.285 150.841 134.317 150.82 134.346C150.798 134.375 150.769 134.4 150.734 134.42C150.698 134.44 150.658 134.455 150.615 134.462Z" fill="#3362CC"/>
<path d="M172.414 128.877L189.237 132.789C189.382 132.818 189.532 132.791 189.66 132.711C189.788 132.632 189.885 132.506 189.934 132.357L189.947 132.293C189.969 132.223 189.977 132.15 189.971 132.076C189.965 132.003 189.944 131.932 189.91 131.869C189.876 131.805 189.829 131.75 189.773 131.707C189.718 131.664 189.654 131.634 189.587 131.62L172.768 127.709C172.623 127.68 172.474 127.707 172.346 127.785C172.218 127.864 172.121 127.988 172.072 128.137L172.059 128.201C172.037 128.27 172.028 128.344 172.034 128.417C172.04 128.49 172.061 128.561 172.095 128.624C172.128 128.688 172.174 128.744 172.229 128.788C172.284 128.831 172.347 128.862 172.414 128.877Z" fill="#3362CC"/>
<path d="M147.068 126.11L136.04 127.91C135.944 127.924 135.846 127.911 135.762 127.875C135.678 127.838 135.614 127.78 135.583 127.711L135.574 127.682C135.559 127.65 135.554 127.616 135.558 127.582C135.562 127.549 135.576 127.516 135.598 127.487C135.621 127.458 135.651 127.432 135.688 127.412C135.724 127.393 135.766 127.379 135.81 127.372L146.836 125.572C146.931 125.559 147.029 125.571 147.112 125.607C147.196 125.643 147.26 125.701 147.292 125.769L147.301 125.799C147.315 125.831 147.321 125.864 147.317 125.898C147.313 125.932 147.299 125.964 147.277 125.994C147.255 126.023 147.225 126.049 147.189 126.069C147.153 126.089 147.112 126.103 147.068 126.11Z" fill="#3362CC"/>
<path d="M171.311 132.52L188.146 136.434C188.291 136.463 188.441 136.435 188.568 136.356C188.695 136.276 188.791 136.15 188.839 136.001L188.851 135.941C188.873 135.872 188.882 135.798 188.875 135.724C188.869 135.651 188.848 135.58 188.814 135.516C188.78 135.452 188.734 135.396 188.678 135.353C188.623 135.309 188.559 135.279 188.492 135.264L171.649 131.348C171.504 131.318 171.354 131.346 171.226 131.425C171.098 131.504 171.001 131.63 170.952 131.78L170.94 131.84C170.917 131.91 170.909 131.985 170.916 132.06C170.923 132.134 170.944 132.206 170.98 132.271C171.015 132.335 171.063 132.391 171.12 132.434C171.177 132.477 171.242 132.506 171.311 132.52Z" fill="#3362CC"/>
<path d="M147.791 127.787L136.755 129.588C136.66 129.602 136.562 129.589 136.479 129.552C136.395 129.516 136.332 129.458 136.301 129.389L136.293 129.361C136.278 129.329 136.273 129.295 136.277 129.262C136.281 129.228 136.295 129.195 136.317 129.166C136.339 129.136 136.37 129.11 136.406 129.09C136.443 129.07 136.484 129.057 136.529 129.05L147.57 127.247C147.665 127.234 147.764 127.246 147.848 127.283C147.931 127.319 147.995 127.377 148.027 127.446L148.035 127.473C148.05 127.506 148.055 127.541 148.051 127.575C148.046 127.609 148.032 127.642 148.009 127.672C147.986 127.702 147.954 127.727 147.917 127.747C147.879 127.767 147.837 127.78 147.791 127.787Z" fill="#3362CC"/>
<path d="M115.855 120.665H139.098C140.12 120.643 141.099 120.275 141.856 119.629C142.612 118.982 143.094 118.101 143.214 117.146L146.574 85.5307C146.631 85.0853 146.587 84.6335 146.443 84.2056C146.299 83.7777 146.06 83.3838 145.74 83.0503C145.421 82.7169 145.03 82.4516 144.592 82.2724C144.154 82.0933 143.681 82.0043 143.204 82.0116H119.961C118.939 82.0332 117.96 82.4012 117.204 83.0478C116.447 83.6944 115.965 84.5762 115.845 85.5307L112.491 117.146C112.431 117.591 112.475 118.043 112.617 118.472C112.76 118.9 112.999 119.294 113.318 119.628C113.637 119.962 114.029 120.227 114.467 120.406C114.904 120.585 115.378 120.673 115.855 120.665Z" fill="#407BFF"/>
<path d="M119.837 99.0174H139.72C139.949 99.0121 140.168 98.9291 140.337 98.7838C140.507 98.6385 140.614 98.4406 140.641 98.2266C140.654 98.1264 140.645 98.0247 140.613 97.9283C140.581 97.8319 140.527 97.7432 140.455 97.6681C140.383 97.593 140.295 97.5334 140.197 97.4933C140.098 97.4532 139.991 97.4335 139.884 97.4357H120.026C119.797 97.4398 119.577 97.5216 119.407 97.6661C119.236 97.8105 119.128 98.0079 119.1 98.2219C119.087 98.3207 119.096 98.421 119.126 98.5163C119.157 98.6116 119.209 98.6997 119.279 98.7748C119.348 98.8499 119.434 98.9104 119.53 98.9522C119.626 98.994 119.731 99.0162 119.837 99.0174Z" fill="white"/>
<path d="M119.314 103.945H139.197C139.426 103.94 139.645 103.857 139.815 103.711C139.984 103.566 140.092 103.368 140.118 103.154C140.131 103.054 140.121 102.953 140.088 102.857C140.056 102.761 140.002 102.673 139.93 102.599C139.859 102.524 139.771 102.465 139.672 102.425C139.574 102.385 139.468 102.366 139.361 102.368H119.453C119.225 102.372 119.005 102.454 118.836 102.599C118.667 102.743 118.559 102.94 118.532 103.154C118.519 103.256 118.53 103.36 118.564 103.457C118.597 103.555 118.653 103.645 118.728 103.72C118.802 103.795 118.893 103.854 118.994 103.893C119.096 103.932 119.205 103.95 119.314 103.945Z" fill="white"/>
<path d="M138.754 107.291H118.876C118.411 107.291 118.035 107.644 118.035 108.08C118.035 108.515 118.411 108.868 118.876 108.868H138.754C139.219 108.868 139.595 108.515 139.595 108.08C139.595 107.644 139.219 107.291 138.754 107.291Z" fill="white"/>
<path d="M118.502 113.814H133.692C133.922 113.81 134.142 113.727 134.313 113.582C134.483 113.437 134.591 113.238 134.618 113.023C134.63 112.923 134.62 112.822 134.588 112.726C134.556 112.63 134.502 112.541 134.43 112.467C134.359 112.392 134.271 112.332 134.173 112.292C134.074 112.251 133.968 112.231 133.861 112.232H118.671C118.441 112.237 118.221 112.319 118.05 112.465C117.88 112.61 117.772 112.809 117.745 113.023C117.733 113.123 117.743 113.225 117.775 113.321C117.807 113.417 117.861 113.505 117.933 113.58C118.004 113.655 118.092 113.715 118.19 113.755C118.289 113.795 118.395 113.816 118.502 113.814Z" fill="white"/>
<path d="M120.882 89.1624H140.79C141.019 89.1571 141.239 89.0741 141.408 88.9288C141.577 88.7835 141.685 88.5856 141.711 88.3716C141.72 88.2716 141.707 88.1709 141.671 88.0762C141.636 87.9816 141.579 87.8952 141.505 87.8229C141.431 87.7506 141.341 87.6941 141.242 87.6571C141.143 87.6202 141.036 87.6037 140.93 87.6088H121.051C120.822 87.6139 120.603 87.696 120.433 87.8403C120.263 87.9846 120.154 88.1814 120.125 88.395C120.116 88.4932 120.129 88.592 120.163 88.6852C120.197 88.7784 120.252 88.8639 120.323 88.9362C120.394 89.0085 120.481 89.0659 120.577 89.1049C120.673 89.1438 120.777 89.1635 120.882 89.1624Z" fill="white"/>
<path d="M120.36 94.0899H140.268C140.497 94.0845 140.716 94.0016 140.886 93.8562C141.055 93.7109 141.162 93.513 141.189 93.299C141.202 93.1992 141.192 93.098 141.159 93.0022C141.127 92.9064 141.073 92.8182 141.001 92.7437C140.93 92.6692 140.842 92.61 140.743 92.5701C140.645 92.5303 140.539 92.5108 140.432 92.5128H120.524C120.295 92.5169 120.075 92.5987 119.905 92.7432C119.735 92.8877 119.626 93.0851 119.598 93.299C119.585 93.3994 119.596 93.5012 119.628 93.5976C119.661 93.694 119.715 93.7827 119.787 93.8576C119.86 93.9326 119.948 93.9921 120.047 94.0322C120.146 94.0723 120.252 94.0919 120.36 94.0899Z" fill="white"/>
<path d="M135.629 151.14L133.755 140.912C133.706 140.609 133.592 140.318 133.42 140.059C133.248 139.8 133.023 139.578 132.76 139.409C132.496 139.24 132.201 139.128 131.892 139.079C131.584 139.03 131.271 139.047 130.973 139.128L109.906 144.507C109.27 144.685 108.727 145.085 108.376 145.633C108.025 146.18 107.891 146.84 107.997 147.489L109.872 157.717C109.92 158.02 110.034 158.311 110.205 158.571C110.377 158.831 110.602 159.052 110.866 159.222C111.129 159.391 111.425 159.503 111.734 159.551C112.042 159.6 112.356 159.582 112.653 159.501L133.721 154.122C134.357 153.945 134.901 153.545 135.252 152.997C135.603 152.449 135.737 151.789 135.629 151.14Z" fill="#79A3FF"/>
<path d="M122.151 151.399C122.243 151.376 122.324 151.327 122.387 151.258L131.889 141.492C131.981 141.403 132.034 141.282 132.039 141.153C132.043 141.024 131.998 140.896 131.913 140.796C131.867 140.751 131.813 140.716 131.754 140.692C131.695 140.668 131.632 140.657 131.569 140.658C131.506 140.66 131.445 140.674 131.388 140.7C131.332 140.726 131.282 140.763 131.241 140.81L121.976 150.35L110.18 146.187C110.054 146.151 109.92 146.163 109.806 146.221C109.692 146.28 109.606 146.38 109.566 146.502C109.541 146.558 109.528 146.62 109.528 146.683C109.528 146.745 109.541 146.808 109.567 146.866C109.592 146.924 109.628 146.977 109.675 147.021C109.721 147.065 109.775 147.1 109.834 147.123L121.904 151.382C121.984 151.413 122.07 151.419 122.151 151.399Z" fill="white"/>
<path d="M196.945 103.46L198.487 88.2989C198.543 87.8515 198.5 87.3975 198.362 86.9677C198.223 86.5379 197.993 86.1421 197.686 85.8071C197.378 85.4721 197.002 85.2056 196.581 85.0256C196.159 84.8456 195.704 84.7563 195.245 84.7636H162.905C161.922 84.7872 160.981 85.1576 160.254 85.8068C159.526 86.4561 159.061 87.3408 158.944 88.2989L157.402 103.465C157.346 103.913 157.389 104.367 157.528 104.796C157.666 105.226 157.896 105.622 158.204 105.957C158.511 106.292 158.888 106.558 159.309 106.738C159.73 106.918 160.185 107.008 160.644 107H192.984C193.968 106.977 194.91 106.606 195.637 105.955C196.365 105.305 196.829 104.419 196.945 103.46Z" fill="#3362CC"/>
<path d="M177.682 99.266C177.823 99.2651 177.96 99.2266 178.079 99.1546L195.72 88.9435C195.888 88.8529 196.014 88.704 196.073 88.5266C196.133 88.3492 196.121 88.1565 196.04 87.9874C195.993 87.911 195.931 87.8446 195.857 87.7921C195.783 87.7396 195.699 87.702 195.61 87.6817C195.52 87.6613 195.428 87.6586 195.338 87.6736C195.247 87.6887 195.161 87.7212 195.084 87.7692L177.845 97.7622L162.657 87.7831C162.493 87.6867 162.296 87.6551 162.109 87.6948C161.921 87.7345 161.756 87.8425 161.648 87.9966C161.589 88.0665 161.544 88.1475 161.518 88.2346C161.492 88.3217 161.484 88.4131 161.496 88.5032C161.508 88.5932 161.538 88.68 161.586 88.7581C161.633 88.8362 161.697 88.9041 161.773 88.9574L177.31 99.1685C177.421 99.2364 177.551 99.2703 177.682 99.266Z" fill="white"/>
<path d="M93.0691 221.381C92.2064 217.213 88.2158 220.39 84.1136 219.851C80.0114 219.312 79.9543 221.973 80.0104 225.489C81.757 227.218 82.5475 227.113 84.2272 226.969C86.1031 224.846 94.5592 228.579 93.0691 221.381Z" fill="#455A64"/>
<path d="M93.069 221.361C92.2062 217.193 88.3858 220.391 84.2836 219.852C85.1841 220.274 86.8157 219.711 87.8004 219.711C86.8157 220.415 88.9258 222.384 91.1765 221.681C92.7902 226.717 87.3333 224.695 84.5882 226.652C84.4502 226.736 84.329 226.834 84.2271 226.949C84.3411 226.841 84.4618 226.742 84.5882 226.652C86.9918 225.199 94.4782 228.168 93.069 221.361Z" fill="#D9E5FF"/>
<path d="M66.1506 225.836C70.9782 223.351 63.6634 222.226 61.499 218.032C59.3347 213.838 57.4819 212.899 54.0253 217.772C51.6645 221.101 54.4535 221.29 55.7523 223.015C58.2605 226.348 56.0672 225.836 66.1506 225.836Z" fill="#455A64"/>
<path d="M121.182 105.764C118.761 105.553 115.79 109.27 115.79 109.27C115.906 109.919 116.545 111.126 117.102 111.718C117.766 111.986 118.11 111.774 118.856 111.348C121.177 109.278 122.996 109.883 122.996 109.883C122.996 109.883 124.5 109.264 125.317 107.813C127.293 104.305 123.561 105.971 121.182 105.764Z" fill="#D9E5FF"/>
<path d="M116.356 108.863C100.882 123.211 100.232 115.896 92.1609 91.5603C89.8437 90.8541 89.1997 91.2941 89.6288 94.0924C99.3351 120.679 102.571 123.774 116.752 112.239C118.971 110.434 118.628 108.798 116.356 108.863Z" fill="#37474F"/>
<path d="M67.8248 104.502C68.8717 101.975 71.5264 97.3963 72.6076 94.9363L72.1754 90.9976C68.9575 91.8416 65.5979 99.2846 64.5639 101.956C63.5298 104.627 62.5645 107.353 61.7063 110.207C61.5047 110.935 61.2901 111.64 61.1056 112.401L60.9641 112.956L60.8954 113.239V113.306L60.8611 113.456L60.801 113.761C60.6967 114.343 60.6879 114.946 60.7753 115.532C60.9018 116.332 61.2291 117.054 61.7063 117.587C62.0453 117.963 62.4436 118.237 62.8734 118.392C63.1455 118.491 63.4242 118.556 63.7058 118.587C64.1151 118.62 64.5259 118.603 64.9329 118.537C65.5878 118.431 66.235 118.257 66.8679 118.015C69.1406 117.138 75.1013 113.5 77.1688 111.996H73.5923C71.4256 112.585 67.1215 116.178 64.4487 115.615C64.1733 115.339 65.0851 113.224 64.6776 113.136C64.8802 112.647 65.0544 112.218 65.1302 111.996C66.0313 109.453 66.7779 107.029 67.8248 104.502Z" fill="#37474F"/>
<path d="M76.547 81.2915C77.0678 84.6676 77.1096 89.1691 76.547 90.1537C75.9843 91.1384 77.8548 93.2485 83.2863 94.1096C89.0337 94.1096 85.3958 90.3073 85.3958 90.3073C84.1961 88.6307 84.1439 86.211 85.1219 83.2975L76.547 81.2915Z" fill="#455A64"/>
<path opacity="0.3" d="M71.9611 97.0284C70.9657 98.3574 70.05 100.304 71.0802 104.085C71.8865 102.869 72.6778 101.624 73.3597 100.496C73.5438 97.3887 72.9117 95.9568 71.9611 97.0284Z" fill="#37474F"/>
<path opacity="0.2" d="M81.6108 85.2302C80.7668 85.3709 78.516 84.8082 78.2347 84.5269L84.7049 84.8082C84.7051 84.8081 84.7053 84.8081 84.7055 84.8082L84.7049 84.8082C84.654 84.82 83.8678 87.913 85.2682 90.1537C83.3479 89.9593 81.6108 85.2302 81.6108 85.2302Z" fill="black"/>
<path d="M78.9357 71.4411C77.9307 76.4047 77.0743 79.2618 79.0277 82.3981C85.2681 88.0438 90.6136 87.9031 91.739 80.7289C92.8644 73.5547 93.849 69.4315 90.5433 67.1155C89.5399 66.4125 88.3614 65.9624 87.1201 65.8081C85.8788 65.6538 84.6161 65.8005 83.4524 66.2342C82.2886 66.6679 81.2625 67.3741 80.4719 68.2856C79.6812 69.197 79.1524 70.2834 78.9357 71.4411Z" fill="#D9E5FF"/>
<path opacity="0.1" d="M86.7503 75.3309C86.4821 76.3408 86.5918 77.401 87.063 78.3503C87.7028 79.5917 88.9388 79.2814 89.535 78.1563C90.0657 77.1477 90.3856 75.2856 89.375 74.4127C88.3644 73.5399 87.0993 74.1218 86.7503 75.3309Z" fill="black"/>
<path fill-rule="evenodd" clip-rule="evenodd" d="M91.8887 70.2192C92.1334 70.499 92.4017 70.7245 92.6643 70.8361C92.7 70.8513 92.7167 70.8926 92.7015 70.9283C92.6863 70.9641 92.645 70.9808 92.6092 70.9656C92.319 70.8422 92.0341 70.5992 91.7828 70.3118C91.5308 70.0236 91.3084 69.6859 91.1442 69.3667C91.1264 69.3321 91.14 69.2897 91.1746 69.272C91.2091 69.2542 91.2515 69.2678 91.2693 69.3023C91.4287 69.6123 91.6449 69.9403 91.8887 70.2192Z" fill="#3A6FE5"/>
<path d="M91.1456 76.1885C89.4804 82.2877 84.2145 85.9605 78.8434 84.68C73.9722 83.9515 70.7786 77.9491 70.7785 71.5852C70.7785 65.7476 77.901 61.0879 83.5795 62.4417C89.2581 63.7954 93.2859 68.3498 91.1456 76.1885Z" fill="#455A64"/>
<path d="M62.7609 118.428C64.1676 118.799 66.8188 116.831 65.293 114.349C66.4184 112.802 71.9112 111.732 74.8305 110.129L76.9687 113.841C73.528 116.677 67.1217 121.664 62.7609 118.428Z" fill="#D9E5FF"/>
<path opacity="0.1" d="M66.8404 119.413C64.5896 119.694 62.6203 118.71 62.1982 117.725L66.2777 115.052C66.6997 115.474 66.559 116.6 66.2777 117.303C68.8831 117.121 74.0526 114.892 76.1246 113.505L76.6873 114.208C72.1859 117.584 69.6859 119.057 66.8404 119.413Z" fill="black"/>
<path d="M89.7724 93.0731C90.6572 96.5147 89.247 104.719 88.1954 123.556C81.2899 125.353 79.1801 124.985 73.7003 123.725C74.1396 120.572 74.5193 105.798 70.9678 91.2207C72.7038 90.7008 73.3107 89.591 76.2466 90.0995C79.9222 90.4134 82.586 90.3577 84.8457 90.4133C85.8695 90.4885 86.3537 90.1908 87.3672 90.4134C87.9171 90.5301 88.4342 90.8413 88.8595 91.3115C89.2847 91.7818 89.6011 92.3921 89.7724 93.0731Z" fill="#455A64"/>
<path d="M95.3965 95.6401C95.3965 98.0485 93.822 100.001 91.8797 100.001C89.9375 100.001 88.363 98.0485 88.363 95.6401C88.363 93.2317 89.9375 91.2793 91.8797 91.2793C93.822 91.2793 95.3965 93.2317 95.3965 95.6401Z" fill="#3A6FE5"/>
<path opacity="0.3" d="M126.49 101.419C125.791 101.235 125.135 100.879 124.568 100.375C124 99.8716 123.534 99.2328 123.203 98.5028C122.871 97.7728 122.682 96.969 122.647 96.1468C122.613 95.3245 122.734 94.5035 123.003 93.7403C123.566 92.0896 124.626 90.7256 125.991 89.8966C127.357 89.0676 128.936 88.8287 130.442 89.2233C131.141 89.4073 131.797 89.7631 132.365 90.2663C132.933 90.7695 133.4 91.4081 133.732 92.138C134.064 92.8679 134.254 93.6718 134.29 94.4943C134.325 95.3167 134.205 96.1383 133.937 96.9022C133.374 98.5547 132.312 99.9201 130.945 100.749C129.578 101.578 127.997 101.816 126.49 101.419Z" fill="#79A3FF"/>
<path opacity="0.5" d="M130.385 89.0641L130.283 89.0376L123.019 93.3754L122.988 93.5125C122.558 94.7631 122.527 96.1438 122.902 97.417L133.267 91.2264C132.56 90.1478 131.54 89.3828 130.385 89.0641Z" fill="#FAFAFA"/>
<path opacity="0.5" d="M133.537 91.9385L123.327 98.2185C123.506 98.6288 123.731 99.0097 123.996 99.351L133.953 93.222C133.863 92.7749 133.723 92.3434 133.537 91.9385Z" fill="#FAFAFA"/>
<path fill-rule="evenodd" clip-rule="evenodd" d="M125.709 102.396C129.095 103.533 133.221 101.437 134.77 97.3605C136.32 93.2836 134.54 89.204 131.154 88.0666C127.768 86.9291 123.642 89.0249 122.093 93.1018C120.544 97.1787 122.323 101.258 125.709 102.396ZM125.309 103.448C129.399 104.822 134.113 102.257 135.837 97.7189C137.562 93.181 135.644 88.3885 131.554 87.0146C127.464 85.6406 122.75 88.2055 121.026 92.7434C119.302 97.2813 121.219 102.074 125.309 103.448Z" fill="black"/>
<path fill-rule="evenodd" clip-rule="evenodd" d="M125.174 102.488C125.54 102.619 125.718 103.017 125.573 103.377L122.516 110.933C122.37 111.293 121.956 111.478 121.59 111.348C121.224 111.217 121.046 110.819 121.191 110.459L124.248 102.903C124.394 102.543 124.808 102.357 125.174 102.488Z" fill="black"/>
<path fill-rule="evenodd" clip-rule="evenodd" d="M125.461 102.152C126.26 102.452 126.638 103.334 126.303 104.12L126.144 104.495C125.809 105.282 124.889 105.675 124.09 105.374C123.29 105.074 122.912 104.192 123.247 103.406L123.407 103.031C123.741 102.244 124.661 101.851 125.461 102.152Z" fill="black"/>
<path d="M75.4553 113.445L75.4553 110.719L89.1662 110.224L88.875 113.276C83.5329 114.769 80.7452 114.757 75.4553 113.445Z" fill="black" fill-opacity="0.1"/>
<path d="M73.0299 101.126C73.0299 97.328 71.4825 91.7012 70.0758 90.4351C65.715 88.6064 61.2839 108.059 59.8068 115.193C59.8068 119.554 65.9953 117.163 67.6844 112.661C69.307 108.337 70.9229 105.914 73.0299 101.126Z" fill="#D9E5FF"/>
<path d="M71.2552 91.9513C70.2018 90.8199 69.0975 91.4568 68.1023 94.0853C67.3835 95.9852 67.2209 98.9522 68.3737 99.7154C69.4596 100.435 70.1945 98.9015 71.1573 96.7649C71.7028 95.5805 72.3109 93.0863 71.2552 91.9513Z" fill="#407BFF"/>
<path d="M70.7953 92.8033C70.0585 92.1821 69.254 93.2879 68.8412 94.8504C68.4283 96.4129 68.3777 97.5366 69.0608 98.0396C70.0646 98.7823 71.5728 98.3332 72.0926 96.7102C72.5336 95.3283 71.9699 93.8927 70.7953 92.8033Z" fill="#37474F"/>
<path d="M93.623 92.8232C92.9611 92.1463 92.0224 93.1798 91.4202 94.6989C90.818 96.2179 90.6313 97.3303 91.2538 97.8854C92.168 98.7046 93.7312 98.3805 94.4477 96.81C95.0562 95.4727 94.6661 94.0007 93.623 92.8232Z" fill="#37474F"/>
<path opacity="0.1" d="M67.5438 112.943C69.3981 108.58 70.235 106.781 72.3266 102.674L69.5131 97.1875C66.4945 108.931 65.2726 112.873 63.605 117.022C65.3446 116.279 66.604 114.807 67.5438 112.943Z" fill="black"/>
<path opacity="0.2" d="M74.0146 115.897L73.8739 112.661L88.785 114.068L88.2223 122.93C88.0816 122.086 86.8685 122.369 86.5343 122.508C87.0969 120.679 87.0969 116.881 87.0969 116.881C83.5244 117.881 78.3992 117.889 74.0146 115.897Z" fill="black"/>
<path opacity="0.2" d="M79.7821 93.3893C78.516 92.6859 78.7974 90.0132 75.7026 90.0132L76.406 92.6859L79.7821 93.3893Z" fill="black"/>
<path d="M93.7932 102.328C88.884 99.7958 89.2067 92.123 93.4268 91.701C90.677 90.4591 86.1372 89.7207 83.0172 90.4027C81.1895 90.8023 80.6258 93.2483 79.6411 93.2483C78.6564 93.2483 78.294 90.9167 76.9897 90.4027C74.4598 89.4059 71.0105 89.8466 70.4976 90.5756C68.6317 93.2273 68.8095 96.7651 69.3722 100.001C70.2437 105.011 71.513 109.566 72.467 112.239C74.4664 116.238 86.6746 118.006 91.3168 113.364C92.7235 110.691 95.3612 106.331 93.7932 102.328Z" fill="#D9E5FF"/>
<path opacity="0.1" d="M91.1764 113.505C90.051 114.63 87.097 116.037 84.1429 116.037C88.785 114.771 89.9104 110.832 89.9104 110.832C89.9104 110.832 91.3171 107.597 91.3171 98.3125L95.9592 102.814C93.1458 109.566 92.7238 111.114 91.1764 113.505Z" fill="black"/>
<path d="M74.956 77.7994C75.2965 78.3089 75.3357 78.8599 75.0435 79.0301C74.7514 79.2003 74.2385 78.9252 73.8981 78.4157C73.5576 77.9062 73.5184 77.3552 73.8105 77.185C74.1027 77.0148 74.6155 77.2898 74.956 77.7994Z" fill="#407BFF"/>
<path d="M91.8297 74.2579L92.955 74.1172C92.7812 75.2431 92.6679 76.1462 92.3923 77.2119L91.8297 77.0713C91.3352 76.0171 91.3322 75.4122 91.8297 74.2579Z" fill="#748790"/>
<path d="M101.976 120.54C100.362 119.831 103.091 115.45 103.76 115.021C113.702 110.777 113.502 110.089 114.483 110.004C115.464 109.92 116.247 110.577 116.522 112.37C115.093 115.458 103.59 121.248 101.976 120.54Z" fill="#D9E5FF"/>
<path d="M88.176 122.719C81.2774 124.837 79.9088 125.204 73.0984 122.472C73.0984 122.472 72.0199 124.113 72.9748 126.427C77.424 132.482 78.3137 133.94 78.6724 136.964C78.7561 137.669 82.5474 138.219 82.8293 137.003C84.2212 130.999 85.3335 128.714 89.2883 125.685C89.9361 123.512 89.0998 122.728 88.176 122.719Z" fill="#3A6FE5"/>
<path d="M55.8676 216.054C56.0973 213.938 56.7119 212.264 56.7119 212.264C58.27 213.889 59.2885 214.559 61.2563 213.814L60.1088 216.719C58.9624 217.883 56.9035 217.409 55.8676 216.054Z" fill="#37474F"/>
<path d="M74.5708 176.099C73.7677 173.645 69.1041 172.575 67.5324 173.266C61.6898 178.129 62.9413 183.541 56.9007 209.447C56.3065 211.995 55.9434 213.703 56.0507 213.724C57.2494 215.299 57.9019 215.956 60.3562 215.153C60.7469 215.231 61.6061 213.689 62.7192 211.177C74.6893 182.72 75.4513 176.274 74.5708 176.099Z" fill="#D9E5FF"/>
<path opacity="0.1" d="M74.6807 176.082C73.8834 173.626 69.2223 172.545 67.649 173.233C61.6357 177.651 71.2013 179.48 72.8387 178.101C74.4762 176.723 61.6496 212.669 58.7895 215.496C58.7895 215.496 60.0269 215.496 60.4512 215.138C60.6961 215.336 61.6267 213.641 62.7458 211.132C74.7835 182.703 75.5608 176.259 74.6807 176.082Z" fill="black"/>
<path d="M67.5767 169.463L75.3099 169.948C75.2112 172.67 74.9881 174.869 74.4104 176.693C71.1079 178.137 67.7933 177.342 66.9667 175.225C67.2653 173.118 67.4514 171.771 67.5767 169.463Z" fill="#37474F"/>
<path d="M79.4627 136.585C78.494 133.905 76.2399 124.965 71.1632 122.096C68.6746 120.689 67.7871 129.613 67.7871 130.114C66.8024 138.273 67.5058 170.064 67.5058 170.064C69.6495 173.929 73.6057 172.836 75.524 171.33C77.3978 170.343 81.6042 142.508 79.4627 136.585Z" fill="#D9E5FF"/>
<path opacity="0.1" d="M79.4623 136.585C78.4935 133.905 76.2395 124.965 71.1627 122.096C69.372 121.242 68.6424 125.04 68.6687 125.181C70.638 135.731 77.8122 138.826 77.8122 138.826C77.7312 151.386 76.2993 160.25 73.8735 172.305C73.8735 172.305 75.1395 171.743 75.5235 171.33C77.3973 170.343 81.6038 142.508 79.4623 136.585Z" fill="black"/>
<path d="M80.9074 222.243C80.6261 220.133 80.7667 217.601 80.7667 217.601C82.6672 218.808 83.8159 219.215 85.5496 218.023L85.1276 221.118C85.1276 222.665 82.2364 223.312 80.9074 222.243Z" fill="#37474F"/>
<path d="M90.8583 177.776C89.5565 175.546 84.772 175.482 83.3812 176.489C78.6933 182.473 81.0561 187.5 80.6051 214.097C80.5607 216.713 80.5653 218.459 80.6747 218.457C82.1781 219.745 82.9543 220.25 85.1846 218.948C85.5828 218.942 86.0981 217.253 86.6574 214.563C92.3681 184.224 91.7559 177.762 90.8583 177.776Z" fill="#D9E5FF"/>
<path opacity="0.1" d="M90.8588 177.678C89.557 175.447 84.9714 175.378 83.5806 176.385C80.5441 179.193 88.9261 180.042 89.7701 179.339C90.6142 178.636 86.8988 215.778 84.706 219.149C84.706 219.149 84.8467 219.149 85.2687 218.867C85.5501 219.008 86.0986 217.154 86.6579 214.464C92.3686 184.125 91.7564 177.663 90.8588 177.678Z" fill="black"/>
<path d="M83.9142 170.417L91.6568 170.716C91.6239 173.439 91.4541 175.643 90.9207 177.481C87.6541 179.004 84.3212 178.289 83.4436 176.193C83.6912 174.079 83.8447 172.728 83.9142 170.417Z" fill="#37474F"/>
<path d="M77.5087 136.538C76.526 136.812 73.8953 133.517 72.7508 131.184C71.004 127.633 71.3085 125.015 72.5942 124.222C73.88 123.43 76.4418 126.294 77.1584 127.57C78.376 129.743 79.4472 135.034 77.5087 136.538Z" fill="#407BFF"/>
<path d="M76.1313 124.995C75.1698 125.13 74.2167 125.32 73.2764 125.562C72.3461 125.849 72.894 128.018 73.0403 128.757C73.4963 131.067 74.787 133.527 75.2151 133.623C76.2569 133.859 77.9193 133.4 77.9193 133.4L76.1313 124.995Z" fill="#455A64"/>
<path d="M88.6447 121.236C82.0968 125.301 76.6865 123.621 73.7164 121.236C72.814 120.258 72.0878 123.46 72.6042 125.067C73.1206 126.674 73.171 132.355 78.7835 137.179C79.3286 137.647 82.244 138.167 82.7383 137.179C82.7383 127.292 85.5679 126.417 89.412 124.696C90.0514 123.071 89.3862 121.236 88.6447 121.236Z" fill="#D9E5FF"/>
<path opacity="0.1" d="M81.6108 137.701C81.7749 132.471 82.7649 125.435 89.4883 124.196V125.04L82.4548 137.56C82.1472 137.636 81.9676 137.671 81.6108 137.701Z" fill="black"/>
<path d="M81.8941 141.329C81.7257 130.78 86.3489 124.842 93.848 123.412C98.6869 121.969 94.4242 172.266 91.5418 172.83C89.1821 174.837 85.6233 174.396 83.7969 172.391C82.4974 171.99 81.9837 141.069 81.8941 141.329Z" fill="#D9E5FF"/>
<path opacity="0.1" d="M89.4883 173.853C91.5416 167.241 93.005 145.719 93.005 142.765C93.005 140.795 93.9897 128.979 90.3322 124.618C90.7543 124.337 91.7074 123.82 93.8479 123.412C98.6868 121.969 94.4241 172.266 91.5417 172.83C89.6289 174.134 89.4883 173.853 89.4883 173.853Z" fill="black"/>
<path d="M102.289 119.413C101.164 119.413 100.32 118.006 100.32 118.006C101.751 117.432 102.337 116.825 102.852 115.052C103.077 115.535 103.105 115.743 103.555 115.896C103.977 115.896 103.415 119.413 102.289 119.413Z" fill="#37474F"/>
<path d="M96.0074 91.8146C94.4181 90.3823 90.0279 94.8383 91.4493 100.589C93.4583 108.716 98.3063 118.446 100.029 118.802C101.752 119.159 104.014 117.47 103.622 113.95C103.012 111.358 100.353 103.97 99.1769 97.3709C98.3687 92.8345 96.3101 91.8133 96.0074 91.8146Z" fill="#D9E5FF"/>
<path opacity="0.1" d="M101.586 120.117C101.023 118.288 103.133 118.991 103.696 115.052C104.174 115.513 104.681 116.178 103.837 118.71C110.276 116.142 113.223 114.726 116.356 111.676C116.497 111.817 116.506 112.308 116.497 112.38C115.794 114.49 108.616 118.59 103.977 120.257C102.43 120.679 101.867 120.679 101.586 120.117Z" fill="black"/>
<path d="M89.8776 80.1853C90.9037 79.5006 91.5368 77.6391 91.2909 76.0307C91.045 74.4224 90.0132 73.6767 88.9872 74.3614C87.9611 75.0462 87.3456 76.9203 87.5909 78.5248C87.8362 80.1292 88.8539 80.8855 89.8776 80.1853Z" fill="#407BFF"/>
<path opacity="0.15" d="M89.6607 74.915C89.5342 74.9401 89.4129 74.9919 89.302 75.0684C88.5019 75.6123 87.9922 77.1339 88.188 78.4143C88.3177 79.2629 88.7061 79.7544 89.2087 79.6618C89.3363 79.6369 89.4586 79.5849 89.5705 79.5079C90.3676 78.9645 90.8797 77.4385 90.684 76.158C90.5439 75.3035 90.1573 74.8235 89.6607 74.915Z" fill="black"/>
<path opacity="0.15" d="M89.5696 79.5082C89.4578 79.5852 89.3355 79.6372 89.2079 79.6621C89.1828 79.6687 89.1574 79.6733 89.1317 79.6761C88.9584 79.4142 88.8442 79.1002 88.802 78.7693C88.6068 77.4927 89.1178 75.959 89.9191 75.4227C90.03 75.346 90.1513 75.2941 90.2778 75.2694C90.3029 75.2626 90.3283 75.2579 90.354 75.2554C90.5282 75.5151 90.6423 75.8282 90.6831 76.1583C90.8698 77.4405 90.3679 78.9725 89.5696 79.5082Z" fill="black"/>
<path d="M61.7925 218.827C62.0696 219.418 61.9258 220.221 61.1936 220.702C60.8189 220.925 60.4194 221.029 60.0811 220.99C59.7429 220.952 59.4928 220.775 59.3848 220.497C59.1077 219.906 59.4597 219.049 60.1893 218.57C60.919 218.09 61.5115 218.237 61.7925 218.827Z" fill="#407BFF"/>
<path opacity="0.15" d="M61.792 218.828C61.5888 218.397 61.2173 218.205 60.7544 218.308C61.3659 218.369 61.7102 219.277 60.7808 220.076C59.9409 220.787 59.4289 220.517 59.3084 220.217C59.3234 220.312 59.3499 220.403 59.3876 220.486C59.4956 220.763 59.7457 220.941 60.084 220.979C60.4223 221.017 60.8218 220.914 61.1964 220.691C61.9253 220.221 62.0691 219.419 61.792 218.828Z" fill="black"/>
<path d="M86.1528 222.52C86.4849 222.853 86.6098 223.59 86.2797 224.385C86.1045 224.773 85.8817 225.076 85.6593 225.23C85.4368 225.384 85.2325 225.375 85.0903 225.207C84.7582 224.874 84.7492 223.978 85.0783 223.186C85.4074 222.394 85.8183 222.19 86.1528 222.52Z" fill="#407BFF"/>
<path opacity="0.15" d="M86.152 222.52C85.9092 222.279 85.6248 222.325 85.362 222.662C85.7619 222.378 86.221 222.933 85.8524 224.097C85.5164 225.14 85.1229 225.199 84.9668 225.018C85.0019 225.088 85.0426 225.148 85.0885 225.195C85.2307 225.364 85.4351 225.372 85.6575 225.219C85.8799 225.065 86.1027 224.762 86.2779 224.374C86.6091 223.59 86.4841 222.853 86.152 222.52Z" fill="black"/>
<path opacity="0.1" d="M101.727 118.569C98.727 117.676 96.2744 109.153 91.7391 95.2178C91.0357 96.9058 91.0358 99.4379 91.4578 100.423C93.6888 108.801 97.0846 116.178 99.6167 118.569C100.039 118.991 100.857 118.9 101.727 118.569Z" fill="black"/>
<path d="M56.8532 220.696C55.6599 219.652 54.4618 220.134 53.3365 219.29C52.7053 220.003 52.5938 221.302 54.3212 221.822C55.5261 222.184 56.1499 224.494 57.9786 225.76C58.4412 226.081 63.9336 225.901 66.1374 225.76C66.0437 225.62 64.1681 225.76 62.058 225.76C60.792 225.76 57.9786 221.681 56.8532 220.696Z" fill="black"/>
<path fill-rule="evenodd" clip-rule="evenodd" d="M91.305 75.5953C91.3432 75.5885 91.3797 75.6141 91.3865 75.6523C91.4555 76.0434 91.5419 76.432 91.6735 76.7727C91.8053 77.1136 91.9803 77.4014 92.2234 77.5961C92.2537 77.6203 92.2586 77.6646 92.2343 77.6949C92.21 77.7253 92.1658 77.7301 92.1355 77.7059C91.8656 77.4897 91.6788 77.1767 91.5423 76.8234C91.4057 76.4698 91.3175 76.0706 91.2479 75.6768C91.2412 75.6385 91.2667 75.602 91.305 75.5953Z" fill="#3A6FE5"/>
<path d="M66.2777 225.76C67.8858 224.953 68.9504 224.072 65.5743 221.962C65.4336 221.962 65.9963 222.806 65.9963 222.806C65.715 223.228 62.7609 226.041 60.3695 224.635C60.7855 225.12 61.0537 225.38 61.7762 225.76H66.2777Z" fill="#D9E5FF"/>
<path opacity="0.2" d="M57.1356 219.852C55.9423 218.808 54.7442 219.289 53.6189 218.445C52.9877 219.159 52.8762 220.458 54.6036 220.977C55.8085 221.34 57.7278 225.618 59.9475 225.76C66.559 226.182 66.4183 225.76 67.5437 224.916C68.6691 224.072 64.4505 224.916 62.3404 224.916C61.0744 224.916 58.261 220.837 57.1356 219.852Z" fill="black"/>
</svg>
