<svg width="610" height="610" viewBox="0 0 610 610" fill="none" xmlns="http://www.w3.org/2000/svg">
<path d="M305.5 521.906C436.115 521.906 542 515.724 542 508.099C542 500.473 436.115 494.291 305.5 494.291C174.885 494.291 69 500.473 69 508.099C69 515.724 174.885 521.906 305.5 521.906Z" fill="#F5F5F5"/>
<path d="M254.741 224.764L239.795 230.825L239.516 235.288C243.829 238.94 252.871 236.597 252.871 236.597L263.937 235.38L265.359 230.144C265.546 229.489 265.561 228.807 265.402 228.146C265.243 227.486 264.914 226.863 264.44 226.322C263.965 225.781 263.355 225.335 262.654 225.016C261.953 224.697 261.177 224.513 260.382 224.476L257.291 224.345C256.414 224.31 255.539 224.453 254.741 224.764Z" fill="#E4897B"/>
<path d="M110.541 497.287H121.797C140.934 428.13 146.591 388.474 148.533 316.322L124.038 318.178C128.192 400.249 124.914 439.051 110.541 497.287Z" fill="#E4897B"/>
<path d="M159.907 499.287L171.116 498.328C183.328 427.874 185.037 387.927 179.83 315.959L155.622 319.893C167.88 401.213 168.457 440.107 159.907 499.287Z" fill="#E4897B"/>
<path d="M140.835 134.589C141.786 126.66 154.252 120.427 165.071 124.172C180.434 126.307 177.53 138.381 183.734 140.31C191.943 140.761 194.004 160.715 188.869 162.034C183.734 163.352 194.882 171.792 195.322 181.233C195.761 190.674 195.797 198.004 203.531 204.994C214.123 216.273 200.177 247.899 173.549 229.194C154.263 230.005 127.238 249.731 118.745 218.155C114.463 204.225 135.468 189.112 131.077 182.367C125.433 176.221 128.401 169.852 134.589 161.119C140.242 155.801 125.148 141.175 140.835 134.589Z" fill="#263238"/>
<path d="M190.09 200.322C193.103 206.421 196.189 212.678 199.422 218.716C201.056 221.717 202.715 224.705 204.41 227.596C206 230.356 207.781 233.001 209.741 235.512L210.143 235.988C210.214 236.08 210.301 236.159 210.4 236.22C210.717 236.437 211.067 236.602 211.436 236.708C212.626 237.042 213.861 237.186 215.096 237.135C218.224 237.004 221.329 236.53 224.354 235.72C227.562 234.939 230.782 233.915 234.002 232.792C237.222 231.67 240.455 230.426 243.553 229.133L246.383 234.268C240.313 238.294 233.817 241.636 227.013 244.234C223.382 245.63 219.592 246.573 215.73 247.039C213.469 247.302 211.181 247.211 208.948 246.771C207.606 246.481 206.312 246 205.106 245.344C204.444 244.994 203.816 244.586 203.227 244.124C202.924 243.88 202.635 243.62 202.361 243.343L201.825 242.697C199.251 239.868 196.925 236.824 194.872 233.597C192.835 230.56 190.993 227.499 189.224 224.364C185.663 218.131 182.418 211.873 179.466 205.348L190.09 200.322Z" fill="#E4897B"/>
<path d="M182.93 189.027C187.809 188.856 196.579 206.786 196.579 206.786L183.747 222.363C183.747 222.363 168.768 203.591 170.83 197.565C172.964 191.186 175.745 189.283 182.93 189.027Z" fill="#3867D6"/>
<path d="M172.769 496.913H159.742C159.633 496.908 159.525 496.925 159.423 496.962C159.322 496.999 159.228 497.057 159.149 497.13C159.069 497.204 159.005 497.293 158.961 497.392C158.916 497.491 158.891 497.597 158.888 497.706L158.449 508.013C158.458 508.559 158.68 509.079 159.067 509.464C159.455 509.849 159.977 510.068 160.522 510.074C165.048 510.001 167.207 509.733 172.94 509.733C176.465 509.733 184.576 510.099 189.443 510.099C194.31 510.099 194.078 505.281 192.017 504.854C182.734 502.89 178.099 500.194 174.769 497.633C174.2 497.178 173.497 496.925 172.769 496.913Z" fill="#263238"/>
<g opacity="0.2">
<path opacity="0.2" d="M180.479 328.449L181.772 347.909L159.372 349.975L157.129 331.105L180.479 328.449Z" fill="black"/>
<path opacity="0.2" d="M148.033 331.319L147.534 350.816H125.038L124.538 331.819L148.033 331.319Z" fill="black"/>
</g>
<path d="M187.576 195.139C185.532 199.475 183.716 203.686 182.148 207.781C185.299 216.378 181.722 226.866 175.029 229.339C172.263 242.048 174.619 248.781 178.855 259.457C178.855 259.457 123.633 266.949 131.784 258.054C135.726 253.753 140.469 242.447 141.381 229.339C141.74 224.18 139.148 216.243 138.037 210.843C136.132 201.59 134.011 194.948 125.539 187.515C132.169 186.349 138.875 185.668 145.604 185.478C152.733 185.18 159.875 185.392 166.974 186.112C172.427 186.771 178.294 187.905 182.148 188.71C183.642 189.02 184.988 189.822 185.972 190.988C186.956 192.153 187.521 193.614 187.576 195.139Z" fill="#3867D6"/>
<path d="M141.381 229.339C141.74 224.18 139.148 216.243 138.037 210.843C137.524 217.799 139.998 223.879 141.381 229.339Z" fill="#3867D6"/>
<path d="M148.434 161.119C149.581 168.035 150.544 180.635 145.604 185.124C145.604 185.124 150.178 193.662 161.925 196.773C172.768 191.272 166.974 185.795 166.974 185.795C159.363 183.734 159.729 178.049 161.217 172.756L148.434 161.119Z" fill="#E4897B"/>
<path d="M161.926 196.773L160.523 194.028L152.985 195.736L161.926 196.773Z" fill="#E0E0E0"/>
<path d="M160.523 194.028C158.083 192.931 146.898 185.624 146.459 183.355C144.547 183.54 142.664 183.949 140.848 184.575C140.848 184.575 142.275 192.821 151.07 202.311C153.338 197.163 156.351 194.907 160.523 194.028Z" fill="white"/>
<path d="M161.925 196.773L162.559 194.028L167.182 194.358L161.925 196.773Z" fill="#E0E0E0"/>
<path d="M162.559 194.028C166.291 191.588 165.376 186.356 164.998 184.087C166.9 184.352 168.78 184.759 170.621 185.307C172.394 187.764 173.395 190.693 173.497 193.721C173.6 196.749 172.798 199.739 171.195 202.31C169.389 197.431 166.303 195.675 162.559 194.028Z" fill="white"/>
<path opacity="0.2" d="M153.642 165.852L161.217 172.707C160.851 173.942 160.594 175.207 160.448 176.488C157.521 175.976 153.593 172.633 153.374 169.56C153.239 168.318 153.33 167.061 153.642 165.852Z" fill="black"/>
<path d="M144.787 146.433C145.287 157.923 145.262 162.802 150.959 168.803C160.061 176.132 174.321 172.325 176.476 163.265C179.123 152.983 177.842 135.906 166.718 131.149C164.261 130.077 161.569 129.653 158.901 129.917C156.234 130.181 153.678 131.125 151.478 132.658C149.279 134.19 147.509 136.261 146.337 138.673C145.166 141.085 144.632 143.756 144.787 146.433Z" fill="#E4897B"/>
<path d="M143.19 133.918C147.447 136.053 153.314 135.687 154.411 138.248C155.509 140.81 152.423 156.093 146.044 156.215C140.177 148.299 139.299 137.589 143.19 133.918Z" fill="#263238"/>
<path d="M143.774 135.833C153.166 141.773 184.123 147.323 174.012 133.917C166.327 123.745 146.116 128.868 143.774 135.833Z" fill="#263238"/>
<path opacity="0.2" d="M150.14 289.907C151.708 287.7 153.988 288.653 157.241 294.498C168.337 314.42 165.248 347.434 162.122 366.533C158.839 343.181 153.876 312.45 150.14 289.907Z" fill="black"/>
<path d="M160.531 150.818C160.531 152.203 161.161 153.335 161.989 153.353C162.817 153.371 163.513 152.256 163.53 150.89C163.547 149.523 162.9 148.373 162.072 148.355C161.243 148.337 160.547 149.452 160.531 150.818Z" fill="#263238"/>
<path d="M172.53 150.818C172.53 152.203 173.159 153.335 173.988 153.353C174.816 153.371 175.512 152.256 175.529 150.89C175.545 149.523 174.899 148.373 174.071 148.355C173.242 148.337 172.546 149.452 172.53 150.818Z" fill="#263238"/>
<path d="M173.529 148.59L177.528 147.355C177.528 147.355 175.453 150.86 173.529 148.59Z" fill="#263238"/>
<path d="M169.32 153.291C170.768 155.065 172.454 156.631 174.331 157.943C173.982 158.415 173.534 158.806 173.018 159.088C172.502 159.369 171.931 159.535 171.344 159.572L169.32 153.291Z" fill="#A45654"/>
<path d="M165.048 163.777C165.504 163.85 165.964 163.891 166.426 163.899C166.467 163.907 166.509 163.907 166.55 163.897C166.591 163.887 166.628 163.868 166.661 163.842C166.693 163.816 166.72 163.783 166.738 163.745C166.756 163.707 166.765 163.666 166.765 163.624C166.765 163.582 166.756 163.541 166.738 163.503C166.72 163.466 166.693 163.432 166.661 163.406C166.628 163.38 166.591 163.361 166.55 163.351C166.509 163.342 166.467 163.341 166.426 163.35C165.261 163.362 164.11 163.097 163.068 162.575C162.026 162.053 161.124 161.29 160.437 160.349C160.397 160.289 160.336 160.246 160.265 160.231C160.195 160.215 160.121 160.226 160.059 160.264C160.028 160.282 160.001 160.307 159.98 160.336C159.959 160.366 159.944 160.399 159.936 160.434C159.928 160.47 159.927 160.506 159.933 160.542C159.94 160.578 159.954 160.612 159.974 160.642C160.569 161.475 161.324 162.182 162.195 162.72C163.066 163.258 164.036 163.617 165.048 163.777Z" fill="#263238"/>
<path d="M141.493 156.91C142.236 159.006 143.78 160.722 145.787 161.68C148.458 162.9 150.275 160.655 149.934 157.874C149.629 155.435 147.873 151.775 145.055 151.641C144.421 151.623 143.793 151.766 143.229 152.056C142.665 152.345 142.183 152.773 141.827 153.298C141.472 153.823 141.256 154.43 141.197 155.061C141.139 155.693 141.24 156.329 141.493 156.91Z" fill="#E4897B"/>
<path d="M159.572 147.701C159.685 147.726 159.803 147.712 159.907 147.661C160.011 147.61 160.095 147.525 160.145 147.421C161.365 145.176 164.573 144.725 164.609 144.725C164.682 144.716 164.751 144.693 164.815 144.657C164.878 144.62 164.933 144.572 164.978 144.514C165.022 144.456 165.054 144.39 165.073 144.319C165.091 144.249 165.095 144.175 165.085 144.103C165.064 143.959 164.987 143.829 164.87 143.743C164.753 143.656 164.607 143.619 164.463 143.64C164.304 143.64 160.621 144.164 159.181 146.908C159.147 146.972 159.126 147.043 159.12 147.115C159.113 147.187 159.121 147.26 159.142 147.329C159.164 147.398 159.199 147.462 159.245 147.518C159.292 147.573 159.349 147.619 159.413 147.653C159.461 147.682 159.516 147.698 159.572 147.701Z" fill="#263238"/>
<path d="M177.598 145.286C177.692 145.304 177.789 145.296 177.879 145.264C177.969 145.232 178.049 145.176 178.11 145.103C178.158 145.048 178.195 144.984 178.217 144.915C178.24 144.845 178.249 144.772 178.243 144.7C178.238 144.627 178.218 144.556 178.184 144.491C178.151 144.427 178.105 144.369 178.049 144.322C177.394 143.741 176.609 143.327 175.759 143.115C174.91 142.902 174.022 142.898 173.17 143.102C173.039 143.151 172.931 143.247 172.868 143.373C172.806 143.498 172.794 143.642 172.834 143.776C172.875 143.91 172.965 144.024 173.086 144.094C173.208 144.163 173.351 144.184 173.487 144.151C174.162 144.008 174.861 144.028 175.527 144.208C176.193 144.388 176.807 144.724 177.317 145.188C177.4 145.246 177.497 145.28 177.598 145.286Z" fill="#263238"/>
<path d="M176.318 498.937C177.289 499.041 178.264 498.79 179.063 498.23C179.232 498.055 179.355 497.841 179.419 497.606C179.483 497.372 179.486 497.125 179.429 496.888C179.398 496.733 179.332 496.587 179.237 496.46C179.142 496.333 179.02 496.23 178.88 496.156C177.38 495.388 173.001 497.742 172.501 498.01C172.454 498.042 172.418 498.087 172.399 498.139C172.379 498.192 172.376 498.249 172.391 498.303C172.403 498.361 172.434 498.413 172.477 498.452C172.521 498.492 172.576 498.516 172.635 498.523C173.848 498.772 175.081 498.911 176.318 498.937ZM178.148 496.498C178.328 496.488 178.508 496.521 178.673 496.595C178.73 496.621 178.78 496.662 178.816 496.714C178.853 496.765 178.875 496.825 178.88 496.888C178.924 497.041 178.927 497.203 178.888 497.357C178.85 497.511 178.771 497.652 178.66 497.766C178.014 498.401 176.123 498.511 173.501 498.084C174.946 497.298 176.52 496.778 178.148 496.547V496.498Z" fill="#2859C7"/>
<path d="M172.684 498.535H172.794C174.111 497.913 176.6 495.412 176.246 494.095C176.173 493.778 175.904 493.4 175.136 493.314C174.872 493.285 174.605 493.312 174.353 493.394C174.1 493.476 173.868 493.611 173.672 493.79C172.331 495.01 172.379 498.132 172.379 498.266C172.384 498.315 172.4 498.363 172.425 498.405C172.45 498.447 172.485 498.483 172.526 498.51C172.576 498.529 172.63 498.537 172.684 498.535ZM174.977 493.826H175.136C175.648 493.826 175.697 494.083 175.722 494.144C175.929 494.936 174.27 496.9 172.94 497.803C172.94 496.9 173.184 495.022 174.063 494.229C174.183 494.104 174.326 494.003 174.486 493.934C174.645 493.865 174.816 493.829 174.99 493.826H174.977Z" fill="#2859C7"/>
<path d="M123.44 497.066L110.512 495.27C110.289 495.236 110.061 495.284 109.87 495.404C109.68 495.525 109.538 495.71 109.473 495.926L106.46 505.913C106.392 506.165 106.378 506.429 106.42 506.687C106.462 506.944 106.559 507.19 106.703 507.407C106.848 507.625 107.038 507.808 107.259 507.946C107.481 508.084 107.73 508.173 107.989 508.207C112.493 508.759 114.705 508.795 120.383 509.584C123.875 510.069 126.676 510.827 131.496 511.497C136.317 512.167 137.294 507.438 135.347 506.736C126.641 503.544 127.869 500.994 125.225 498.04C124.761 497.519 124.13 497.175 123.44 497.066Z" fill="#263238"/>
<path d="M124.368 498.937C125.365 499.029 126.362 498.779 127.198 498.23C127.384 498.063 127.527 497.854 127.616 497.621C127.705 497.388 127.738 497.136 127.711 496.888C127.704 496.736 127.658 496.589 127.577 496.46C127.496 496.332 127.382 496.227 127.247 496.156C125.844 495.388 121.148 497.742 120.66 498.01C120.61 498.039 120.568 498.082 120.542 498.134C120.516 498.187 120.506 498.245 120.514 498.303C120.519 498.359 120.544 498.412 120.584 498.452C120.624 498.492 120.677 498.517 120.733 498.523C121.93 498.774 123.146 498.913 124.368 498.937ZM126.466 496.498C126.643 496.485 126.819 496.519 126.979 496.595C127.033 496.623 127.079 496.664 127.112 496.716C127.144 496.768 127.161 496.827 127.162 496.888C127.182 497.05 127.162 497.215 127.105 497.368C127.047 497.521 126.954 497.657 126.832 497.766C126.125 498.401 124.21 498.51 121.648 498.084C123.157 497.306 124.786 496.786 126.466 496.547V496.498Z" fill="#2859C7"/>
<path d="M120.782 498.535H120.892C122.282 497.913 125.051 495.412 124.856 494.095C124.856 493.778 124.588 493.399 123.831 493.314C123.558 493.288 123.283 493.317 123.021 493.398C122.759 493.48 122.516 493.613 122.307 493.79C120.831 495.01 120.526 498.132 120.514 498.266C120.508 498.313 120.515 498.361 120.534 498.404C120.553 498.447 120.584 498.484 120.623 498.51C120.673 498.531 120.728 498.539 120.782 498.535ZM123.6 493.826H123.758C124.258 493.826 124.283 494.083 124.295 494.143C124.417 494.936 122.538 496.9 121.111 497.803C121.241 496.483 121.773 495.236 122.636 494.229C122.896 493.98 123.24 493.836 123.6 493.826Z" fill="#2859C7"/>
<path d="M161.53 148.59L164.529 147.355C164.529 147.355 162.957 150.86 161.53 148.59Z" fill="#263238"/>
<path d="M133.535 255.834C112.964 276.054 121.342 291.739 117.038 331.319L188.524 333.319C183.242 291.649 194.411 273.678 177.527 257.334C162.003 261.343 150.792 259.709 133.535 255.834Z" fill="#3867D6"/>
<path d="M134.215 255.248L130.036 259.334C129.866 259.663 130.064 259.761 130.601 259.774C149.521 262.809 160.129 263.359 179.05 261.213C179.477 261.213 179.99 260.102 180.027 259.833L178.027 257.334C178.027 257.041 177.027 256.334 177.027 256.334C174.528 256.834 153.244 258.848 134.752 255.065C137.654 255.541 138.048 255.633 134.535 255.065C134.394 255.119 134.31 255.131 134.215 255.248Z" fill="#3867D6"/>
<path d="M134.215 255.248L130.036 259.334C129.866 259.663 130.064 259.761 130.601 259.774C149.521 262.809 160.129 263.359 179.05 261.213C179.477 261.213 179.99 260.102 180.027 259.833L178.027 257.334C178.027 257.041 177.027 256.334 177.027 256.334C174.528 256.834 153.244 258.848 134.752 255.065C137.654 255.541 138.048 255.633 134.535 255.065C134.394 255.119 134.31 255.131 134.215 255.248Z" fill="url(#paint0_linear)"/>
<path d="M137.037 260.84L135.832 260.655C135.591 260.618 135.418 260.458 135.464 260.32L136.956 255.574C136.978 255.433 137.248 255.363 137.489 255.4L138.695 255.585C138.948 255.623 139.109 255.782 139.075 255.921L137.568 260.676C137.523 260.814 137.289 260.889 137.037 260.84Z" fill="#263238"/>
<path d="M128.59 267.229C86.0737 250.658 83.8189 231.694 125.332 195.348L137.501 202.821C98.5107 235.02 95.5768 240.008 130.501 260.764C138.821 259.356 146.513 260.294 147.045 260.764C150.31 262.714 151.462 264.077 152.432 266.94C151.494 269.124 150.911 270.338 145.824 271.736C144.864 269.603 143.701 268.653 140.608 267.361C136.767 268.392 134.05 268.254 128.59 267.229Z" fill="#E4897B"/>
<path d="M175.384 261.597L176.642 261.358C176.894 261.311 177.051 261.156 177.002 261.03L175.405 256.677C175.381 256.546 175.108 256.484 174.87 256.539L173.612 256.778C173.36 256.826 173.203 256.981 173.24 257.109L174.849 261.46C174.898 261.586 175.134 261.655 175.384 261.597Z" fill="#263238"/>
<path d="M156.233 262.333H154.974C154.71 262.333 154.509 262.212 154.534 262.081L155.327 257.557C155.327 257.426 155.578 257.325 155.843 257.335H157.101C157.353 257.335 157.554 257.456 157.529 257.587L156.749 262.101C156.736 262.242 156.522 262.333 156.233 262.333Z" fill="#263238"/>
<path d="M128.51 187.038C123.569 187.052 113.467 200.988 113.467 200.988L127.246 218.788C127.246 218.788 137.538 207.72 137.39 201.303C137.257 194.637 134.135 187.019 128.51 187.038Z" fill="#3867D6"/>
<path d="M489.22 234.964H191.146C185.151 234.964 180.29 239.824 180.29 245.82V422.686C180.29 428.681 185.151 433.541 191.146 433.541H489.22C495.215 433.541 500.076 428.681 500.076 422.686V245.82C500.076 239.824 495.215 234.964 489.22 234.964Z" fill="white"/>
<path d="M489.22 434.2H191.135C188.095 434.196 185.18 432.987 183.031 430.838C180.881 428.688 179.672 425.774 179.669 422.734V245.868C179.672 242.828 180.881 239.914 183.031 237.764C185.18 235.615 188.095 234.406 191.135 234.402H489.22C492.262 234.406 495.177 235.614 497.329 237.763C499.48 239.913 500.692 242.827 500.698 245.868V422.734C500.692 425.775 499.48 428.689 497.329 430.839C495.177 432.988 492.262 434.196 489.22 434.2ZM191.135 235.573C188.422 235.58 185.823 236.66 183.905 238.578C181.987 240.496 180.907 243.095 180.901 245.807V422.673C180.904 425.386 181.983 427.987 183.902 429.906C185.82 431.824 188.421 432.903 191.135 432.907H489.22C491.935 432.907 494.538 431.828 496.457 429.909C498.376 427.99 499.454 425.387 499.454 422.673V245.807C499.451 243.094 498.372 240.493 496.453 238.574C494.535 236.656 491.934 235.577 489.22 235.573H191.135Z" fill="#264A99"/>
<path d="M496.174 433.541H184.195C182.969 433.54 181.757 433.803 180.641 434.312C179.526 434.822 178.533 435.565 177.731 436.493L170.215 449.825C169.144 451.063 168.452 452.582 168.22 454.203C167.988 455.823 168.227 457.476 168.908 458.965C169.59 460.453 170.684 461.714 172.062 462.598C173.44 463.482 175.043 463.951 176.68 463.95H503.69C505.327 463.951 506.929 463.482 508.307 462.598C509.685 461.714 510.78 460.453 511.461 458.965C512.142 457.476 512.381 455.823 512.15 454.203C511.918 452.582 511.225 451.063 510.154 449.825L502.627 436.493C501.826 435.567 500.835 434.824 499.722 434.315C498.608 433.806 497.398 433.542 496.174 433.541Z" fill="white"/>
<path d="M503.689 464.56H176.679C174.925 464.559 173.207 464.054 171.731 463.106C170.254 462.157 169.082 460.805 168.352 459.209C167.622 457.613 167.366 455.841 167.614 454.104C167.862 452.367 168.604 450.738 169.751 449.41L177.266 436.09C178.127 435.096 179.19 434.298 180.386 433.751C181.581 433.204 182.88 432.92 184.195 432.919H496.161C497.478 432.918 498.78 433.201 499.977 433.749C501.175 434.296 502.24 435.095 503.102 436.09L510.617 449.41C511.764 450.738 512.506 452.367 512.754 454.104C513.002 455.841 512.746 457.613 512.016 459.209C511.287 460.805 510.114 462.157 508.638 463.106C507.161 464.054 505.444 464.559 503.689 464.56ZM184.195 434.2C183.058 434.199 181.934 434.443 180.9 434.917C179.866 435.391 178.947 436.082 178.206 436.944L170.678 450.276C169.683 451.424 169.04 452.834 168.824 454.338C168.609 455.842 168.831 457.376 169.464 458.757C170.097 460.138 171.113 461.308 172.393 462.127C173.672 462.946 175.16 463.38 176.679 463.376H503.689C505.207 463.378 506.694 462.942 507.971 462.122C509.249 461.302 510.264 460.132 510.895 458.752C511.526 457.371 511.747 455.838 511.531 454.335C511.315 452.832 510.672 451.423 509.678 450.276L502.163 436.944C501.419 436.082 500.497 435.39 499.462 434.917C498.426 434.443 497.3 434.199 496.161 434.2H184.195Z" fill="#264A99"/>
<path d="M171.3 455.296C170.525 455.294 169.768 455.544 169.133 456.01C168.498 456.477 168.016 457.138 167.752 457.903C167.488 458.668 167.455 459.5 167.658 460.286C167.861 461.071 168.29 461.772 168.886 462.292C170.392 463.601 172.289 464.31 174.244 464.294H505.688C507.765 464.311 509.774 463.516 511.323 462.063C511.86 461.516 512.228 460.812 512.381 460.043C512.534 459.274 512.465 458.475 512.182 457.748C511.899 457.02 511.416 456.398 510.794 455.961C510.172 455.525 509.441 455.293 508.693 455.296H171.3Z" fill="#264A99"/>
<path d="M493.894 422.673V245.807C493.894 243.227 491.802 241.136 489.222 241.136L191.136 241.136C188.556 241.136 186.464 243.227 186.464 245.807V422.673C186.464 425.253 188.556 427.345 191.136 427.345H489.222C491.802 427.345 493.894 425.253 493.894 422.673Z" fill="#407BFF"/>
<path d="M387.566 309.564C387.566 315.663 446.603 315.663 446.603 309.564C446.603 275.716 387.566 275.716 387.566 309.564Z" fill="#407BFF"/>
<path d="M417.085 314.761C410.273 314.82 403.464 314.437 396.702 313.614C387.92 312.394 386.944 310.723 386.944 309.564C386.944 291.67 402.594 283.522 417.121 283.522C431.661 283.522 447.298 291.67 447.298 309.564C447.262 314.504 422.122 314.761 417.085 314.761ZM388.225 309.564C388.225 311.187 398.264 313.443 417.085 313.443C435.906 313.443 445.944 311.187 445.944 309.564C445.944 292.573 430.99 284.84 417.085 284.84C403.179 284.84 388.225 292.573 388.225 309.564Z" fill="white"/>
<path d="M451.469 232.939C456.031 242.514 461.385 264.653 462.215 282.23C462.247 282.878 462.107 283.523 461.808 284.098C461.509 284.674 461.062 285.16 460.513 285.506C459.965 285.853 459.334 286.047 458.686 286.069C458.037 286.091 457.395 285.941 456.824 285.633C455.485 284.895 454.028 284.395 452.518 284.157C450.749 283.889 449.395 281.413 449.359 278.424L448.773 234.513C448.749 232.158 450.566 231.073 451.469 232.939Z" fill="#407BFF"/>
<path d="M458.545 286.731C457.842 286.729 457.151 286.553 456.532 286.218C455.256 285.517 453.87 285.039 452.434 284.803C450.336 284.486 448.775 281.827 448.775 278.473L448.201 234.561C448.108 233.91 448.232 233.247 448.554 232.673C448.876 232.1 449.378 231.649 449.982 231.39C450.425 231.324 450.877 231.416 451.258 231.65C451.64 231.885 451.926 232.246 452.068 232.671C456.593 242.173 462.021 264.385 462.875 282.193C462.898 282.773 462.804 283.351 462.599 283.894C462.394 284.437 462.082 284.933 461.681 285.353C461.281 285.773 460.8 286.108 460.268 286.338C459.735 286.569 459.162 286.69 458.581 286.694L458.545 286.731ZM450.287 232.622H450.226C449.885 232.707 449.384 233.378 449.397 234.561L449.982 278.473C449.982 281.12 451.202 283.352 452.617 283.596C454.196 283.844 455.72 284.368 457.118 285.145C457.594 285.398 458.128 285.52 458.666 285.499C459.205 285.478 459.728 285.315 460.183 285.026C460.638 284.738 461.008 284.333 461.256 283.855C461.504 283.377 461.621 282.841 461.594 282.303C460.753 264.592 455.386 242.636 450.909 233.244C450.836 233.085 450.653 232.622 450.287 232.622Z" fill="white"/>
<path d="M452.323 290.829C452.323 299.562 381.845 299.562 381.845 290.829V193.687C381.72 172.903 386.514 152.385 395.836 133.808C401.691 122.306 409.022 112.621 417.084 112.621C425.147 112.621 432.478 122.306 438.332 133.808C447.654 152.385 452.448 172.903 452.323 193.687V290.829Z" fill="white"/>
<path d="M417.085 298.001C408.923 298.085 400.767 297.534 392.69 296.354C384.932 295.074 381.163 293.268 381.163 290.829V193.687C381.081 172.803 385.92 152.193 395.288 133.528C402.606 119.245 409.925 108 417.085 108C424.245 108 431.612 119.245 438.882 133.528C448.229 152.198 453.047 172.808 452.946 193.687V290.829C452.946 297.794 420.757 298.001 417.085 298.001ZM417.085 109.244C410.401 109.244 403.436 120.257 396.349 134.089C387.091 152.586 382.319 173.003 382.419 193.687V290.829C382.419 294.159 397.63 296.757 417.048 296.757C436.467 296.757 451.678 294.159 451.678 290.829V193.687C451.781 173.022 447.022 152.623 437.784 134.138C430.734 120.257 423.818 109.244 417.085 109.244Z" fill="#407BFF"/>
<path d="M416.979 108.862C378.371 147.461 391.984 256.834 393.983 295.326C390.329 295.234 383.158 292.485 381.735 291.926C381.66 291.956 381.577 291.923 381.486 291.827C381.486 291.827 381.573 291.862 381.735 291.926C384.163 290.957 378.637 225.188 383.485 171.85C386.776 150.781 395.068 131.446 404.481 118.36C411.64 109.332 413.98 108.862 416.979 108.862Z" fill="#4B7BEC"/>
<path d="M417.084 159.534C405.716 159.534 395.262 156.435 388.407 150.995L389.176 150.02C395.713 155.179 406.155 158.253 417.084 158.253C428.013 158.253 438.454 155.179 444.992 150.02L445.76 150.995C438.905 156.435 428.452 159.534 417.084 159.534Z" fill="#264A99"/>
<path d="M384.162 232.939C376.282 242.77 367.085 265.872 366.036 283.632C365.994 284.267 366.117 284.901 366.395 285.473C366.672 286.046 367.094 286.536 367.618 286.895C368.143 287.255 368.752 287.471 369.386 287.524C370.019 287.576 370.656 287.462 371.232 287.194C374.732 285.546 378.492 284.522 382.344 284.169C383.781 284.034 385.117 283.375 386.098 282.318C387.079 281.26 387.636 279.878 387.663 278.436L388.626 234.525C388.627 234.005 388.466 233.498 388.167 233.074C387.868 232.649 387.444 232.328 386.954 232.154C386.465 231.98 385.934 231.962 385.433 232.103C384.933 232.243 384.489 232.535 384.162 232.939Z" fill="white"/>
<path d="M369.697 288.207C368.853 288.205 368.029 287.95 367.331 287.475C366.705 287.057 366.198 286.483 365.862 285.809C365.526 285.135 365.372 284.384 365.416 283.633C366.441 265.714 375.857 242.344 383.713 232.585C384.122 232.07 384.682 231.696 385.314 231.516C385.947 231.336 386.62 231.358 387.239 231.58C387.859 231.802 388.393 232.213 388.766 232.754C389.14 233.296 389.335 233.94 389.323 234.598L388.348 278.51C388.319 280.103 387.705 281.63 386.623 282.799C385.541 283.969 384.067 284.7 382.481 284.852C378.674 285.185 374.956 286.192 371.503 287.829C370.937 288.09 370.32 288.219 369.697 288.207ZM384.64 233.317C376.943 242.941 367.66 265.983 366.648 283.669C366.617 284.207 366.728 284.744 366.97 285.226C367.212 285.708 367.576 286.117 368.026 286.414C368.455 286.706 368.954 286.882 369.471 286.923C369.989 286.963 370.509 286.868 370.978 286.645C374.548 284.942 378.394 283.892 382.334 283.547C383.618 283.424 384.812 282.833 385.687 281.885C386.562 280.938 387.058 279.702 387.079 278.412L388.043 234.5C388.061 234.105 387.953 233.714 387.733 233.385C387.514 233.056 387.195 232.806 386.823 232.671C386.445 232.527 386.031 232.508 385.642 232.618C385.253 232.728 384.91 232.96 384.664 233.281L384.64 233.317Z" fill="#407BFF"/>
<path d="M431.475 230.339C441.966 230.339 450.471 218.477 450.471 203.844C450.471 189.212 441.966 177.35 431.475 177.35C420.983 177.35 412.478 189.212 412.478 203.844C412.478 218.477 420.983 230.339 431.475 230.339Z" fill="#407BFF"/>
<path d="M432.977 224.341C440.431 224.341 446.474 215.164 446.474 203.845C446.474 192.525 440.431 183.349 432.977 183.349C425.522 183.349 419.479 192.525 419.479 203.845C419.479 215.164 425.522 224.341 432.977 224.341Z" fill="white"/>
<path d="M256.236 428.298C256.065 428.298 255.902 428.227 255.78 428.099C255.658 427.971 255.588 427.798 255.585 427.616C255.585 426.958 255.585 426.136 255.585 425.213C255.384 418.094 254.97 403.299 263.503 394.864C268.698 389.692 276.438 387.618 286.51 388.706C318.144 392.133 335.766 382.763 349.353 355.31C355.389 343.119 368.478 341.4 380.041 339.933C388.881 338.782 397.225 337.707 400.988 332.131C403.284 328.729 403.782 323.823 402.515 317.146C402.498 317.057 402.498 316.965 402.514 316.876C402.53 316.787 402.563 316.703 402.611 316.627C402.658 316.552 402.719 316.487 402.79 316.437C402.861 316.388 402.941 316.353 403.024 316.337C403.106 316.318 403.19 316.317 403.272 316.334C403.354 316.351 403.432 316.385 403.501 316.435C403.571 316.484 403.63 316.548 403.676 316.622C403.722 316.697 403.754 316.78 403.77 316.868C405.119 323.949 404.551 329.197 402.03 332.927C397.935 338.984 389.319 340.11 380.195 341.286C368.36 342.816 356.205 344.397 350.489 355.954C336.607 383.989 318.63 393.562 286.38 390.097C276.687 389.047 269.278 390.995 264.367 395.888C256.272 403.956 256.674 418.334 256.863 425.251C256.863 426.187 256.922 427.021 256.922 427.691C256.905 427.868 256.823 428.03 256.695 428.144C256.566 428.257 256.402 428.313 256.236 428.298Z" fill="white"/>
<path d="M393.187 428.301C393.016 428.298 392.852 428.226 392.729 428.101C392.606 427.975 392.535 427.805 392.528 427.625V426.899C392.321 414.146 392.04 396.789 410.531 394.303C421.516 392.836 427.973 390.069 430.353 385.86C432.733 381.652 430.694 376.053 428.68 370.723C426.923 366.081 425.116 361.286 426.239 357.218C428.03 350.906 431.24 345.134 435.601 340.384C440.556 334.454 443.29 331.189 433.746 316.396C433.651 316.243 433.618 316.057 433.652 315.879C433.686 315.701 433.785 315.543 433.929 315.439C434.001 315.389 434.082 315.354 434.167 315.336C434.252 315.319 434.339 315.319 434.424 315.337C434.509 315.354 434.59 315.39 434.662 315.44C434.734 315.49 434.796 315.555 434.844 315.631C444.95 331.304 441.801 335.066 436.589 341.289C432.366 345.901 429.253 351.496 427.509 357.613C426.483 361.222 428.131 365.596 429.877 370.213C432.012 375.862 434.209 381.69 431.463 386.562C428.863 391.165 422.053 394.15 410.714 395.68C393.407 398.001 393.627 414.694 393.871 426.873V427.6C393.873 427.69 393.857 427.78 393.825 427.865C393.794 427.949 393.747 428.026 393.687 428.091C393.626 428.156 393.555 428.208 393.475 428.244C393.396 428.28 393.311 428.3 393.224 428.301H393.187Z" fill="white"/>
<path d="M255.81 285.339L255.405 285.427C254.13 283.521 252.332 282.025 250.227 281.116C248.122 280.208 245.8 279.927 243.539 280.307C242.322 280.505 241.142 280.886 240.04 281.438C238.495 279.244 236.272 277.618 233.714 276.809C231.155 276 228.402 276.052 225.876 276.959C223.351 277.865 221.192 279.575 219.732 281.827C218.272 284.078 217.591 286.747 217.794 289.422C215.409 290.025 213.349 291.522 212.038 293.603C210.727 295.683 210.268 298.189 210.754 300.599C211.24 303.01 212.636 305.141 214.65 306.551C216.665 307.961 219.145 308.541 221.577 308.172L258.623 302.027C259.718 301.845 260.767 301.449 261.71 300.862C262.652 300.274 263.469 299.507 264.115 298.603C264.761 297.7 265.223 296.678 265.474 295.596C265.725 294.514 265.76 293.394 265.578 292.298C265.396 291.203 264.999 290.154 264.412 289.211C263.824 288.269 263.057 287.451 262.154 286.806C261.25 286.16 260.228 285.698 259.146 285.447C258.065 285.196 256.944 285.161 255.848 285.343L255.81 285.339Z" fill="white"/>
<path d="M476.011 341.37H467.119V368.132H476.011V341.37Z" fill="white"/>
<path d="M476.011 369.998H467.119V375.036H476.011V369.998Z" fill="white"/>
<path d="M476.011 378.098H467.119V380.61H476.011V378.098Z" fill="white"/>
<path d="M476.011 385.209H467.119V386.465H476.011V385.209Z" fill="white"/>
<path d="M462.691 343.834L471.558 328.478L480.426 343.834H462.691Z" fill="white"/>
<path d="M354.49 292.327H348.491V308.324H354.49V292.327Z" fill="white"/>
<path d="M354.49 309.324H348.491V312.324H354.49V309.324Z" fill="white"/>
<path d="M354.49 314.323H348.491V315.323H354.49V314.323Z" fill="white"/>
<path d="M354.49 318.322H348.491V319.322H354.49V318.322Z" fill="white"/>
<path d="M346.493 293.327L351.487 284.329L356.491 293.327H346.493Z" fill="white"/>
<path d="M479.316 187.125H472.181V208.593H479.316V187.125Z" fill="#2859C7"/>
<path d="M479.316 210.093H472.181V214.13H479.316V210.093Z" fill="#2859C7"/>
<path d="M479.316 216.594H472.181V218.619H479.316V216.594Z" fill="#2859C7"/>
<path d="M479.316 222.303H472.181V223.315H479.316V222.303Z" fill="#2859C7"/>
<path d="M468.631 189.101L475.742 176.781L482.853 189.101H468.631Z" fill="#2859C7"/>
<path d="M267.796 369.902C262.639 383.89 247.119 391.05 233.131 385.892C219.142 380.735 211.983 365.215 217.14 351.227C222.297 337.238 237.818 330.079 251.806 335.236C265.794 340.393 272.953 355.914 267.796 369.902Z" fill="#407BFF" stroke="white" stroke-width="2"/>
<path d="M250.345 343.293L246.967 342.048L245.556 345.876C240.447 344.606 237.598 346.369 235.987 350.738L235.904 350.963C234.144 355.737 234.959 357.828 239.202 361.029L241.679 362.914C244.601 365.117 244.949 366.115 244.235 368.052L243.903 368.953C242.973 371.475 241.034 372.295 236.71 370.701C234.774 369.987 233.117 369.069 231.093 367.76L229.791 371.014C231.55 372.072 233.308 373.13 235.228 373.889L233.867 377.582L237.244 378.827L238.689 374.909C243.757 376.01 246.386 374.012 247.864 370.004L247.947 369.779C249.574 365.365 248.719 363.106 244.149 359.682L241.627 357.78C238.942 355.767 238.819 354.852 239.616 352.69L239.948 351.789C240.878 349.267 242.727 348.414 246.69 349.875C248.762 350.639 250.808 351.751 252.358 352.681L253.66 349.426C252.122 348.603 250.555 347.719 248.967 347.031L250.345 343.293Z" fill="white"/>
<path d="M321.498 294.827C321.498 303.938 314.112 311.323 305.001 311.323C295.89 311.323 288.505 303.938 288.505 294.827C288.505 285.716 295.89 278.33 305.001 278.33C314.112 278.33 321.498 285.716 321.498 294.827Z" fill="#407BFF" stroke="#F5F5F5" stroke-width="2"/>
<line x1="305.501" y1="281.329" x2="305.501" y2="296.326" stroke="white" stroke-width="2" stroke-linecap="round" stroke-linejoin="round"/>
<line x1="306.5" y1="296.326" x2="314.498" y2="296.326" stroke="white" stroke-width="2" stroke-linecap="round" stroke-linejoin="round"/>
<path opacity="0.1" d="M183.024 211.843C184.135 207.511 183.524 226.84 176.446 228.808C169.368 230.776 162.839 229.339 162.839 229.339C162.839 229.339 148.055 231.32 141.532 228.839C140.375 226.318 139.75 223.296 139.033 220.341C143.532 229.545 153.53 228.808 161.528 225.84C181.024 232.339 181.914 216.175 183.024 211.843Z" fill="black"/>
<defs>
<linearGradient id="paint0_linear" x1="155.115" y1="254.578" x2="155.115" y2="262.508" gradientUnits="userSpaceOnUse">
<stop offset="0.9999" stop-color="#2859C7"/>
<stop offset="1" stop-color="white" stop-opacity="0"/>
</linearGradient>
</defs>
</svg>
