<svg width="313" height="57" viewBox="0 0 313 57" fill="none" xmlns="http://www.w3.org/2000/svg">
<path fill-rule="evenodd" clip-rule="evenodd" d="M44.2383 14.4629H56.9995V57.0002H44.2383V14.4629ZM14.4609 14.4631H27.2221V29.7765H14.4609V14.4631ZM27.2222 42.5379H14.461V57.0005H27.2222L27.2222 57.0004H44.2371V44.2392H27.2222L27.2222 42.5379ZM44.2371 14.4631H27.2222V27.2243H44.2371V14.4631Z" fill="#4B7BEC"/>
<rect x="14.4609" y="42.5371" width="12.7612" height="2.55224" fill="url(#paint0_linear)"/>
<rect x="27.2227" y="29.7764" width="12.7612" height="2.55224" transform="rotate(-180 27.2227 29.7764)" fill="url(#paint1_linear)"/>
<path fill-rule="evenodd" clip-rule="evenodd" d="M42.5385 0H29.7773V14.4627H42.5385V0ZM12.7612 0.00020534H0V42.5375H12.7612L29.7761 42.5375V29.7764H12.7612V12.7614H29.7761V0.00020534H12.7612ZM29.7773 27.2236H42.5385V42.5371H29.7773V27.2236Z" fill="#2BCBBA"/>
<path fill-rule="evenodd" clip-rule="evenodd" d="M42.5385 0H29.7773V14.4627H42.5385V0ZM12.7612 0.00020534H0V42.5375H12.7612L29.7761 42.5375V29.7764H12.7612V12.7614H29.7761V0.00020534H12.7612ZM29.7773 27.2236H42.5385V42.5371H29.7773V27.2236Z" fill="#2BCBBA"/>
<path fill-rule="evenodd" clip-rule="evenodd" d="M42.5385 0H29.7773V14.4627H42.5385V0ZM12.7612 0.00020534H0V42.5375H12.7612L29.7761 42.5375V29.7764H12.7612V12.7614H29.7761V0.00020534H12.7612ZM29.7773 27.2236H42.5385V42.5371H29.7773V27.2236Z" fill="#2BCBBA"/>
<path fill-rule="evenodd" clip-rule="evenodd" d="M42.5385 0H29.7773V14.4627H42.5385V0ZM12.7612 0.00020534H0V42.5375H12.7612L29.7761 42.5375V29.7764H12.7612V12.7614H29.7761V0.00020534H12.7612ZM29.7773 27.2236H42.5385V42.5371H29.7773V27.2236Z" fill="#2BCBBA"/>
<rect x="29.7773" y="27.2236" width="12.7612" height="2.55224" fill="url(#paint2_linear)"/>
<rect x="42.5391" y="14.4629" width="12.7612" height="2.55224" transform="rotate(-180 42.5391 14.4629)" fill="url(#paint3_linear)"/>
<path d="M82.1 17.548V32.236C82.1 33.916 82.472 35.2 83.216 36.088C83.984 36.976 85.088 37.42 86.528 37.42C87.968 37.42 89.06 36.976 89.804 36.088C90.572 35.2 90.956 33.916 90.956 32.236V17.548H97.112V32.236C97.112 34.636 96.644 36.664 95.708 38.32C94.772 39.952 93.488 41.188 91.856 42.028C90.248 42.844 88.424 43.252 86.384 43.252C84.344 43.252 82.544 42.844 80.984 42.028C79.424 41.212 78.2 39.976 77.312 38.32C76.424 36.664 75.98 34.636 75.98 32.236V17.548H82.1ZM107.382 34.072V43H101.226V17.548H111.198C114.222 17.548 116.526 18.304 118.11 19.816C119.694 21.304 120.486 23.32 120.486 25.864C120.486 27.448 120.126 28.864 119.406 30.112C118.71 31.336 117.666 32.308 116.274 33.028C114.882 33.724 113.19 34.072 111.198 34.072H107.382ZM110.514 29.14C112.986 29.14 114.222 28.048 114.222 25.864C114.222 23.632 112.986 22.516 110.514 22.516H107.382V29.14H110.514ZM136.583 43L131.075 33.388H129.671V43H123.515V17.548H134.027C136.043 17.548 137.747 17.896 139.139 18.592C140.531 19.288 141.575 20.248 142.271 21.472C142.967 22.672 143.315 24.052 143.315 25.612C143.315 27.46 142.799 29.032 141.767 30.328C140.759 31.624 139.283 32.512 137.339 32.992L143.387 43H136.583ZM129.671 29.176H133.487C134.711 29.176 135.611 28.912 136.187 28.384C136.763 27.832 137.051 27.028 137.051 25.972C137.051 24.964 136.751 24.172 136.151 23.596C135.575 23.02 134.687 22.732 133.487 22.732H129.671V29.176ZM158.497 17.152C160.897 17.152 163.069 17.716 165.013 18.844C166.981 19.948 168.529 21.496 169.657 23.488C170.785 25.456 171.349 27.688 171.349 30.184C171.349 32.68 170.773 34.924 169.621 36.916C168.493 38.908 166.945 40.468 164.977 41.596C163.033 42.7 160.873 43.252 158.497 43.252C156.121 43.252 153.949 42.7 151.981 41.596C150.037 40.468 148.489 38.908 147.337 36.916C146.209 34.924 145.645 32.68 145.645 30.184C145.645 27.688 146.209 25.456 147.337 23.488C148.489 21.496 150.037 19.948 151.981 18.844C153.949 17.716 156.121 17.152 158.497 17.152ZM158.497 22.876C156.481 22.876 154.873 23.536 153.673 24.856C152.497 26.152 151.909 27.928 151.909 30.184C151.909 32.416 152.497 34.192 153.673 35.512C154.873 36.832 156.481 37.492 158.497 37.492C160.489 37.492 162.085 36.832 163.285 35.512C164.485 34.192 165.085 32.416 165.085 30.184C165.085 27.952 164.485 26.176 163.285 24.856C162.109 23.536 160.513 22.876 158.497 22.876ZM193.096 17.548V22.444H186.184V43H179.992V22.444H173.152V17.548H193.096ZM201.846 22.444V27.772H210.45V32.416H201.846V38.068H211.53V43H195.69V17.548H211.53V22.444H201.846ZM226.654 17.296C229.894 17.296 232.57 18.148 234.682 19.852C236.818 21.556 238.198 23.86 238.822 26.764H232.306C231.826 25.588 231.082 24.664 230.074 23.992C229.09 23.32 227.914 22.984 226.546 22.984C224.746 22.984 223.294 23.644 222.19 24.964C221.086 26.284 220.534 28.048 220.534 30.256C220.534 32.464 221.086 34.228 222.19 35.548C223.294 36.844 224.746 37.492 226.546 37.492C227.914 37.492 229.09 37.156 230.074 36.484C231.082 35.812 231.826 34.9 232.306 33.748H238.822C238.198 36.628 236.818 38.932 234.682 40.66C232.57 42.364 229.894 43.216 226.654 43.216C224.182 43.216 222.01 42.676 220.138 41.596C218.266 40.492 216.814 38.956 215.782 36.988C214.774 35.02 214.27 32.776 214.27 30.256C214.27 27.736 214.774 25.492 215.782 23.524C216.814 21.556 218.266 20.032 220.138 18.952C222.01 17.848 224.182 17.296 226.654 17.296ZM260.56 17.548V22.444H253.648V43H247.456V22.444H240.616V17.548H260.56ZM275.251 17.152C277.651 17.152 279.823 17.716 281.767 18.844C283.735 19.948 285.283 21.496 286.411 23.488C287.539 25.456 288.103 27.688 288.103 30.184C288.103 32.68 287.527 34.924 286.375 36.916C285.247 38.908 283.699 40.468 281.731 41.596C279.787 42.7 277.627 43.252 275.251 43.252C272.875 43.252 270.703 42.7 268.735 41.596C266.791 40.468 265.243 38.908 264.091 36.916C262.963 34.924 262.399 32.68 262.399 30.184C262.399 27.688 262.963 25.456 264.091 23.488C265.243 21.496 266.791 19.948 268.735 18.844C270.703 17.716 272.875 17.152 275.251 17.152ZM275.251 22.876C273.235 22.876 271.627 23.536 270.427 24.856C269.251 26.152 268.663 27.928 268.663 30.184C268.663 32.416 269.251 34.192 270.427 35.512C271.627 36.832 273.235 37.492 275.251 37.492C277.243 37.492 278.839 36.832 280.039 35.512C281.239 34.192 281.839 32.416 281.839 30.184C281.839 27.952 281.239 26.176 280.039 24.856C278.863 23.536 277.267 22.876 275.251 22.876ZM304.63 43L299.122 33.388H297.718V43H291.562V17.548H302.074C304.09 17.548 305.794 17.896 307.186 18.592C308.578 19.288 309.622 20.248 310.318 21.472C311.014 22.672 311.362 24.052 311.362 25.612C311.362 27.46 310.846 29.032 309.814 30.328C308.806 31.624 307.33 32.512 305.386 32.992L311.434 43H304.63ZM297.718 29.176H301.534C302.758 29.176 303.658 28.912 304.234 28.384C304.81 27.832 305.098 27.028 305.098 25.972C305.098 24.964 304.798 24.172 304.198 23.596C303.622 23.02 302.734 22.732 301.534 22.732H297.718V29.176Z" fill="#4B7BEC"/>
<defs>
<linearGradient id="paint0_linear" x1="20.8415" y1="42.5371" x2="20.8415" y2="45.0893" gradientUnits="userSpaceOnUse">
<stop stop-opacity="0.1"/>
<stop offset="1" stop-opacity="0"/>
</linearGradient>
<linearGradient id="paint1_linear" x1="33.6033" y1="29.7764" x2="33.6033" y2="32.3286" gradientUnits="userSpaceOnUse">
<stop stop-opacity="0.1"/>
<stop offset="1" stop-opacity="0"/>
</linearGradient>
<linearGradient id="paint2_linear" x1="36.1579" y1="27.2236" x2="36.1579" y2="29.7759" gradientUnits="userSpaceOnUse">
<stop stop-opacity="0.1"/>
<stop offset="1" stop-opacity="0"/>
</linearGradient>
<linearGradient id="paint3_linear" x1="48.9197" y1="14.4629" x2="48.9197" y2="17.0151" gradientUnits="userSpaceOnUse">
<stop stop-opacity="0.1"/>
<stop offset="1" stop-opacity="0"/>
</linearGradient>
</defs>
</svg>
