<svg width="250" height="250" viewBox="0 0 250 250" fill="none" xmlns="http://www.w3.org/2000/svg">
<path d="M129.079 86.7434C116.734 105.751 113.767 106.852 105.025 88.3697L101.124 91.9584C111.027 113.51 120.472 110.058 129.944 89.2355C133.903 89.8908 135.922 89.1461 139.401 87.1515C138.277 86.1551 137.544 85.6322 134.768 85.2112C132.807 85.9704 131.518 86.2789 129.079 86.7434Z" fill="#FFB573"/>
<path d="M125 211.241C185.751 211.241 235 208.932 235 206.083C235 203.235 185.751 200.926 125 200.926C64.2487 200.926 15 203.235 15 206.083C15 208.932 64.2487 211.241 125 211.241Z" fill="#F5F5F5"/>
<path d="M97.0091 66.8657C96.9116 67.3026 97.1452 67.7288 97.4935 67.9017C97.8419 68.0746 98.2537 67.7698 98.3512 67.3328C98.4486 66.8959 98.2151 66.4697 97.8667 66.2968C97.5183 66.1239 97.1152 66.433 97.0091 66.8657Z" fill="#263238"/>
<path d="M97.073 69.1074C97.9003 69.8541 98.8415 70.4839 99.8685 70.9781C99.7113 71.2307 99.4994 71.4513 99.247 71.6252C98.9946 71.7992 98.7074 71.9225 98.4045 71.987L97.073 69.1074Z" fill="#ED893E"/>
<path d="M95.4492 65.7453C95.4851 65.7455 95.5206 65.7384 95.5534 65.7245C95.5862 65.7106 95.6155 65.6902 95.6394 65.6647C95.8563 65.4315 96.127 65.2495 96.4301 65.133C96.7333 65.0164 97.0607 64.9685 97.3865 64.993C97.4545 65.0029 97.5239 64.9875 97.5803 64.95C97.6367 64.9125 97.6758 64.8557 97.6894 64.7915C97.6966 64.7601 97.6968 64.7276 97.6903 64.6961C97.6837 64.6646 97.6705 64.6347 97.6513 64.6082C97.6322 64.5818 97.6076 64.5594 97.579 64.5424C97.5504 64.5254 97.5185 64.5141 97.4851 64.5093C97.0755 64.4706 96.662 64.524 96.2778 64.6651C95.8937 64.8063 95.5496 65.0313 95.2731 65.3221C95.2494 65.3446 95.2307 65.3713 95.2179 65.4007C95.2051 65.4301 95.1985 65.4616 95.1985 65.4934C95.1985 65.5252 95.2051 65.5568 95.2179 65.5862C95.2307 65.6156 95.2494 65.6423 95.2731 65.6647C95.2948 65.6892 95.3218 65.709 95.3521 65.7229C95.3825 65.7368 95.4155 65.7444 95.4492 65.7453V65.7453Z" fill="#263238"/>
<path d="M84.9004 72.4551C86.1487 76.6679 86.7662 81.6147 83.9642 83.7372C83.9642 83.7372 84.9097 86.966 92.1354 86.966C100.079 86.966 93.7942 83.3773 93.7942 83.3773C89.4878 82.5306 90.2997 79.1404 91.1417 76.6679L84.9004 72.4551Z" fill="#FFB573"/>
<path d="M84.4643 82.4706C84.1182 81.5594 83.7495 80.5343 84.6912 80.2427C85.7351 79.9238 91.312 79.7278 93.2012 80.4432C95.0904 81.1585 94.3642 82.9581 94.3642 82.9581L84.4643 82.4706Z" fill="#3362CC"/>
<path d="M119.16 80.8728C110.069 88.8218 103.069 87.2719 90.2069 84.2948V89.4278C105.765 91.6841 113.146 91.7719 120.273 82.8949C122.49 80.9129 125.472 79.651 127.655 79.4758C126.881 78.637 124.587 78.5199 123.13 78.2275C121.24 78.4485 120.182 79.4267 119.16 80.8728Z" fill="#FFB573"/>
<path d="M47.4653 191.755L51.4877 193.026L57.456 186.091L53.4337 184.82L47.4653 191.755Z" fill="#FFB573"/>
<path d="M54.6707 196.213C55.0962 196.491 55.5671 196.714 55.8678 196.646C55.9465 196.628 56.0162 196.591 56.0671 196.539C56.118 196.488 56.1475 196.425 56.1514 196.359C56.1643 196.305 56.1628 196.248 56.1472 196.194C56.1315 196.14 56.1021 196.089 56.0607 196.045C55.6295 195.557 53.8935 195.343 53.8197 195.334C53.7986 195.33 53.7765 195.332 53.757 195.339C53.7374 195.347 53.7216 195.359 53.7119 195.375C53.7007 195.388 53.6947 195.404 53.6947 195.421C53.6947 195.437 53.7007 195.453 53.7119 195.466C54.0033 195.738 54.3241 195.988 54.6707 196.213V196.213ZM55.7486 196.027C55.8 196.061 55.8475 196.099 55.8905 196.14C55.9168 196.167 55.9355 196.198 55.9453 196.231C55.9551 196.264 55.9557 196.298 55.9472 196.332C55.9472 196.45 55.8621 196.478 55.8167 196.487C55.4763 196.56 54.6253 196.031 54.075 195.539C54.6672 195.612 55.2358 195.778 55.7486 196.027V196.027Z" fill="#2859C7"/>
<path d="M53.7345 195.481H53.7742C54.3415 195.594 55.7429 195.526 56.0038 195.18C56.0662 195.098 56.0946 194.966 55.896 194.806C55.822 194.747 55.7334 194.7 55.6357 194.669C55.538 194.639 55.4334 194.625 55.3287 194.629C54.6082 194.629 53.7515 195.317 53.7175 195.344C53.7084 195.355 53.7036 195.369 53.7036 195.383C53.7036 195.396 53.7084 195.41 53.7175 195.421C53.715 195.442 53.721 195.463 53.7345 195.481V195.481ZM55.7031 194.906L55.7485 194.938C55.879 195.043 55.8393 195.093 55.8279 195.111C55.6691 195.321 54.6422 195.43 54.0238 195.362C54.3826 195.075 54.8417 194.883 55.34 194.811C55.4719 194.804 55.6021 194.838 55.7031 194.906V194.906Z" fill="#2859C7"/>
<path d="M53.5991 193.238L48.7149 190.034C48.6254 189.978 48.5129 189.947 48.3969 189.947C48.2808 189.947 48.1684 189.978 48.0788 190.034L43.755 192.419C43.6498 192.475 43.5629 192.549 43.5009 192.635C43.4388 192.721 43.4032 192.816 43.3966 192.913C43.3901 193.011 43.4128 193.108 43.463 193.198C43.5133 193.288 43.5898 193.369 43.6868 193.433C45.4209 194.528 46.3372 194.998 48.4877 196.408C49.8053 197.274 52.4027 199.166 54.2276 200.364C56.0525 201.562 57.9229 200.335 57.3247 199.716C54.6365 196.953 54.2958 195.348 54.0913 193.903C54.0446 193.642 53.8687 193.405 53.5991 193.238V193.238Z" fill="#263238"/>
<path d="M81.0721 201.851L85.4187 202.288L86.9649 194.279L82.6183 193.842L81.0721 201.851Z" fill="#FFB573"/>
<path opacity="0.2" d="M86.9668 194.279L86.1698 198.407L81.8176 197.97L82.6202 193.842L86.9668 194.279Z" fill="black"/>
<path opacity="0.2" d="M53.9656 184.018L57.988 185.289L54.6748 189.134L50.885 187.594L53.9656 184.018Z" fill="black"/>
<path d="M82.9147 68.9898C84.1267 73.2379 84.5744 75.7879 87.6458 77.5492C92.2667 80.2086 98.2511 77.1578 98.6023 72.6565C98.9122 68.6272 96.8807 62.3357 91.4609 61.4781C90.2503 61.2929 89.0035 61.3628 87.8332 61.6813C86.6629 61.9998 85.606 62.557 84.7578 63.3025C83.9097 64.0479 83.2971 64.9583 82.9753 65.9512C82.6535 66.9442 82.6327 67.9885 82.9147 68.9898V68.9898Z" fill="#FFB573"/>
<path d="M85.6169 75.5553C80.735 72.9203 80.8055 68.2933 80.5374 66.0395C80.2693 63.7858 88.7987 60.8263 93.8005 62.4825C98.8024 64.1387 89.0315 77.3993 85.6169 75.5553Z" fill="#FFB573"/>
<path opacity="0.6" d="M85.6169 75.5553C80.735 72.9203 80.8055 68.2933 80.5374 66.0395C80.2693 63.7858 88.7987 60.8263 93.8005 62.4825C98.8024 64.1387 89.0315 77.3993 85.6169 75.5553Z" fill="#263238"/>
<path d="M89.7971 69.3324C90.3298 70.2707 91.2249 71.0026 92.3353 71.4077C93.8059 71.9289 94.6045 70.9078 94.253 69.6505C93.9369 68.5544 92.7915 66.9242 91.293 66.922C89.7944 66.9199 89.1721 68.1877 89.7971 69.3324Z" fill="#FFB573"/>
<path d="M95.4706 63.8803C99.1685 62.318 100.553 59.822 97.0292 58.0124C97.0439 59.2237 94.8923 59.3505 94.8923 59.3505C94.8923 59.3505 94.8923 55.6034 89.6779 56.6299C84.4634 57.6563 83.2227 59.473 80.0179 60.88C81.4321 60.9335 82.8493 60.6881 84.1242 60.169C84.1242 60.169 78.5227 62.6551 78.4827 64.7411C77.922 68.1517 81.1667 69.9172 81.5602 68.9171C81.3296 66.232 92.3392 64.2788 95.4706 63.8803Z" fill="#263238"/>
<path d="M87.5887 202.117C88.2874 202.117 88.9441 202.03 89.1816 201.726C89.2372 201.648 89.2669 201.555 89.2669 201.46C89.2669 201.365 89.2372 201.272 89.1816 201.194C89.1403 201.121 89.0834 201.058 89.0148 201.008C88.9461 200.958 88.8673 200.923 88.7834 200.904C87.8961 200.668 85.9888 201.7 85.905 201.747C85.8813 201.759 85.862 201.777 85.8495 201.8C85.837 201.823 85.832 201.849 85.8351 201.875C85.8397 201.899 85.8513 201.921 85.8687 201.939C85.886 201.957 85.9083 201.97 85.9329 201.976C86.4799 202.067 87.0337 202.114 87.5887 202.117ZM88.469 201.113C88.5525 201.102 88.6371 201.102 88.7205 201.113C88.7709 201.124 88.8183 201.145 88.8593 201.176C88.9003 201.206 88.934 201.244 88.9581 201.288C89.0489 201.437 89.014 201.518 88.9581 201.558C88.6926 201.895 87.3372 201.902 86.3381 201.767C87.0001 201.427 87.7234 201.212 88.469 201.133V201.113Z" fill="#264A99"/>
<path d="M85.9538 201.793H86.0055C86.6999 201.536 88.1033 200.49 88.0147 199.944C88.0147 199.819 87.8965 199.656 87.5272 199.625C87.2603 199.604 86.9947 199.674 86.7885 199.819C86.0498 200.327 85.843 201.624 85.8356 201.699C85.8322 201.719 85.8351 201.74 85.8442 201.758C85.8533 201.777 85.8682 201.793 85.8873 201.806C85.9104 201.806 85.9331 201.802 85.9538 201.793ZM87.4311 199.838H87.5124C87.7561 199.838 87.7635 199.944 87.7709 199.969C87.8226 200.295 86.8698 201.116 86.1533 201.473C86.2381 200.921 86.5188 200.403 86.9584 199.988C87.0903 199.892 87.2576 199.839 87.4311 199.838V199.838Z" fill="#264A99"/>
<path d="M86.4968 201.494H80.4178C80.3067 201.494 80.1988 201.528 80.111 201.592C80.0233 201.656 79.9608 201.746 79.9335 201.846L78.683 206.488C78.6517 206.599 78.6481 206.714 78.6725 206.826C78.6968 206.938 78.7485 207.043 78.8234 207.133C78.8984 207.223 78.9945 207.295 79.1043 207.344C79.2142 207.394 79.3347 207.418 79.4564 207.417C81.6249 207.376 84.8198 207.261 87.5811 207.261C90.7977 207.261 91.1519 207.423 94.9323 207.423C97.2165 207.423 97.9176 205.255 96.9707 205.058C92.6337 204.171 91.5205 204.076 87.8268 201.901C87.4336 201.65 86.9723 201.509 86.4968 201.494Z" fill="#263238"/>
<path d="M98.7776 112.414L79.6309 111.701C76.1565 121.552 75.1784 125.63 73.9733 132.101C69.8447 161.635 64.1042 169.9 52.9288 182.376L58.5664 188.831C73.6334 173.323 79.9783 161.347 86.5514 132.569C91.1323 148.575 80.5323 196.519 80.5323 196.519L88.0792 196.8C88.0792 196.8 105.416 131.472 98.7776 112.414Z" fill="#263238"/>
<path d="M89.4621 195.285C89.4959 195.289 88.7069 197.686 88.7069 197.686L79.7487 196.784L79.8113 194.578L89.4621 195.285Z" fill="#455A64"/>
<path d="M60.3482 188.988L57.3139 189.804L50.3104 183.167L52.3729 181.366L60.3482 188.988Z" fill="#455A64"/>
<path opacity="0.2" d="M85.8684 127.733C83.271 131.696 82.1721 141.428 82.441 148.372C84.1729 143.454 84.8066 139.319 86.6283 132.602C86.2686 132.482 85.5661 129.098 85.8684 127.733Z" fill="black"/>
<path d="M101.266 82.6032C101.266 82.6032 105.759 86.8222 100.381 112.924C89.9745 116.371 84.8155 116.493 77.0182 112.924C76.9728 110.396 79.1116 99.2559 77.6366 87.369C77.5549 86.681 77.6445 85.9869 77.9002 85.327C78.1559 84.6672 78.5726 84.0548 79.1259 83.5255C79.6793 82.9963 80.3584 82.5608 81.1234 82.2445C81.8885 81.9281 82.7243 81.7372 83.5822 81.6829C83.9339 81.6829 84.2914 81.6419 84.6431 81.6282C87.9517 81.4755 91.2685 81.4755 94.5771 81.6282C96.8351 81.8121 99.0716 82.1381 101.266 82.6032Z" fill="#407BFF"/>
<path d="M96.4856 81.6712C95.5763 82.3589 88.9782 87.4677 85.5229 93.2642C84.0453 90.6558 81.6186 85.6158 82.5677 82.1182C82.5793 82.0701 82.5755 82.0201 82.5566 81.9737C82.5378 81.9272 82.5047 81.8861 82.4608 81.8548C82.417 81.8235 82.364 81.8031 82.3078 81.7958C82.2515 81.7886 82.194 81.7947 82.1414 81.8136L80.715 82.3393C80.6774 82.3529 80.6434 82.373 80.6151 82.3983C80.5867 82.4237 80.5647 82.4537 80.5502 82.4866C80.2831 83.0859 79.2487 86.3624 83.7838 94.3154L84.6079 97.4003C84.6079 97.4003 84.4317 107.942 83.2951 115.463H85.4547C85.4547 115.463 86.9039 103.595 86.5913 97.4003L87.3812 94.9786C87.3812 94.9786 91.1662 87.0403 98.6508 82.3147C98.7064 82.2855 98.7498 82.2419 98.7748 82.19C98.7998 82.1381 98.8051 82.0807 98.7899 82.0261C98.7747 81.9715 98.7399 81.9224 98.6904 81.886C98.6409 81.8496 98.5792 81.8277 98.5144 81.8235L96.7583 81.6024C96.7098 81.5944 96.6598 81.5965 96.6124 81.6085C96.565 81.6204 96.5215 81.6419 96.4856 81.6712V81.6712Z" fill="#263238"/>
<path d="M103.932 97.4199L101.748 93.7777L106.585 91.8027L108.613 95.445L103.932 97.4199Z" fill="black" fill-opacity="0.1"/>
<path d="M95.3382 86.1478C93.7553 89.2915 100.161 97.6657 100.161 97.6657L110.316 92.8453C110.316 92.8453 106.293 89.1275 104.075 85.2138C101.08 79.8239 96.6317 83.6146 95.3382 86.1478Z" fill="#407BFF"/>
<path d="M139.967 79.0659C142.696 75.7368 148.876 73.3781 149.957 70.8002L152.076 74.5037C150.459 77.5766 148.359 77.3246 141.974 82.8623L139.967 79.0659Z" fill="#3362CC"/>
<path opacity="0.2" d="M150.067 75.8285C147.918 77.9116 145.432 78.8477 143.247 80.8108C142.896 81.1251 142.562 81.4621 142.246 81.8199L141.863 81.0098C141.68 80.6235 141.49 80.2331 141.307 79.8468L140.857 78.9954C141.164 78.6178 141.559 78.3074 141.902 77.9704C144.051 75.8873 146.538 74.9511 148.722 72.9881C149.071 72.6746 149.403 72.3385 149.718 71.9817C149.851 72.2468 149.978 72.5146 150.107 72.789C150.289 73.1754 150.474 73.5684 150.662 73.9521L151.043 74.7555C150.736 75.1331 150.41 75.4914 150.067 75.8285ZM149.853 73.0296C149.713 73.1714 149.538 73.2615 149.356 73.2864C149.174 73.3113 148.995 73.2697 148.844 73.1677C146.665 75.1508 144.177 76.0802 141.995 78.1929C142.005 78.6744 141.847 79.1556 141.553 79.5341L142.147 80.7784C142.287 80.638 142.461 80.5494 142.642 80.5262C142.824 80.503 143.002 80.5463 143.151 80.6497C145.33 78.6666 147.855 77.7209 150.007 75.6218C149.995 75.1404 150.15 74.6586 150.44 74.2767C150.244 73.8436 150.053 73.4533 149.853 73.0296Z" fill="black"/>
<path opacity="0.2" d="M147.359 76.13C147.576 76.5361 147.186 77.2029 146.531 77.6515C145.877 78.1 145.134 78.1105 144.91 77.7103C144.687 77.3101 145.077 76.6434 145.75 76.1886C146.423 75.7338 147.154 75.7236 147.359 76.13Z" fill="black"/>
<path d="M167.186 134.475C168.755 132.106 173.213 131.171 173.615 129.156L175.933 132.694C175.196 135.038 173.497 134.455 169.433 138.072L167.186 134.475Z" fill="#3362CC"/>
<path opacity="0.2" d="M174.581 133.474C173.251 134.879 171.455 135.244 170.076 136.54C169.855 136.747 169.65 136.977 169.463 137.227L169.02 136.468C168.808 136.105 168.59 135.738 168.378 135.376L167.874 134.569C168.05 134.3 168.307 134.104 168.518 133.875C169.848 132.47 171.644 132.105 173.023 130.809C173.243 130.602 173.446 130.373 173.632 130.123C173.783 130.373 173.93 130.624 174.08 130.881C174.291 131.244 174.505 131.612 174.721 131.973L175.162 132.727C174.986 132.996 174.792 133.245 174.581 133.474ZM173.922 131.043C173.836 131.139 173.714 131.186 173.575 131.175C173.436 131.165 173.287 131.098 173.151 130.984C171.78 132.298 169.981 132.657 168.631 134.082C168.723 134.495 168.683 134.879 168.518 135.151L169.203 136.319C169.289 136.224 169.411 136.179 169.55 136.191C169.689 136.202 169.837 136.271 169.973 136.385C171.343 135.071 173.168 134.704 174.497 133.286C174.403 132.873 174.441 132.488 174.603 132.212C174.372 131.807 174.154 131.44 173.922 131.043Z" fill="black"/>
<path opacity="0.2" d="M172.498 133.257C172.74 133.643 172.549 134.144 172.112 134.413C171.674 134.682 171.091 134.561 170.844 134.18C170.598 133.799 170.789 133.297 171.24 133.026C171.691 132.755 172.265 132.874 172.498 133.257Z" fill="black"/>
<path d="M148.91 94.3202C152.327 96.938 154.888 103.036 157.5 104.032L153.869 106.272C150.744 104.757 150.927 102.65 145.181 96.4509L148.91 94.3202Z" fill="#3362CC"/>
<path opacity="0.2" d="M152.479 104.305C150.326 102.226 149.308 99.7717 147.274 97.6529C146.949 97.3129 146.601 96.9898 146.233 96.6853L147.03 96.2759C147.41 96.0808 147.794 95.8774 148.174 95.6822L149.01 95.2044C149.398 95.4991 149.721 95.8835 150.069 96.2148C152.222 98.2944 153.239 100.748 155.273 102.867C155.598 103.205 155.945 103.526 156.312 103.829C156.052 103.971 155.788 104.106 155.518 104.244C155.138 104.439 154.751 104.637 154.374 104.838L153.584 105.245C153.196 104.95 152.827 104.637 152.479 104.305ZM155.269 103.999C155.123 103.863 155.027 103.692 154.996 103.511C154.965 103.33 155.001 103.149 155.098 102.995C153.044 100.883 152.033 98.4264 149.85 96.3151C149.369 96.3413 148.882 96.1989 148.495 95.9182L147.27 96.5522C147.415 96.6879 147.51 96.8589 147.539 97.0393C147.568 97.2198 147.531 97.3997 147.432 97.552C149.486 99.6642 150.515 102.157 152.684 104.238C153.164 104.21 153.651 104.35 154.042 104.627C154.469 104.416 154.852 104.213 155.269 103.999Z" fill="black"/>
<path opacity="0.2" d="M152.087 101.608C151.688 101.838 151.009 101.47 150.539 100.831C150.069 100.191 150.034 99.4494 150.426 99.2125C150.819 98.9757 151.498 99.3439 151.975 100.002C152.452 100.659 152.486 101.39 152.087 101.608Z" fill="black"/>
<path d="M178.169 139.484C180.584 141.442 182.612 145.718 184.405 146.533L182.104 147.862C179.943 146.668 179.953 145.247 175.799 140.734L178.169 139.484Z" fill="#3362CC"/>
<path opacity="0.2" d="M181.076 146.452C179.533 144.926 178.725 143.206 177.258 141.66C177.023 141.412 176.775 141.174 176.513 140.948L177.023 140.712C177.266 140.599 177.51 140.482 177.753 140.369L178.285 140.089C178.559 140.309 178.794 140.587 179.044 140.831C180.588 142.357 181.395 144.077 182.862 145.623C183.096 145.87 183.344 146.106 183.604 146.331C183.438 146.414 183.27 146.492 183.097 146.571C182.855 146.684 182.607 146.797 182.367 146.914L181.862 147.149C181.588 146.928 181.326 146.696 181.076 146.452ZM182.919 146.391C182.814 146.291 182.741 146.17 182.711 146.046C182.681 145.921 182.695 145.8 182.752 145.701C181.272 144.158 180.469 142.436 178.903 140.887C178.584 140.88 178.253 140.757 177.979 140.546L177.198 140.912C177.301 141.012 177.373 141.133 177.402 141.257C177.431 141.381 177.416 141.501 177.358 141.6C178.838 143.142 179.654 144.889 181.209 146.417C181.528 146.424 181.859 146.544 182.135 146.753C182.407 146.632 182.652 146.515 182.919 146.391Z" fill="black"/>
<path opacity="0.2" d="M180.671 144.6C180.418 144.735 179.946 144.449 179.599 143.99C179.253 143.531 179.19 143.026 179.439 142.886C179.688 142.746 180.16 143.031 180.512 143.503C180.864 143.975 180.926 144.473 180.671 144.6Z" fill="black"/>
<path d="M164.111 90.3757C160.398 87.5692 158.315 80.6001 155.306 79.6372L160.104 76.7122C163.648 78.2451 163.069 80.7378 169.008 87.5714L164.111 90.3757Z" fill="#3362CC"/>
<path opacity="0.2" d="M161.457 78.9145C163.723 81.1889 164.545 83.9945 166.661 86.3244C167 86.6983 167.368 87.0507 167.764 87.3794L166.725 87.9247C166.229 88.1846 165.728 88.4545 165.233 88.7145L164.134 89.3434C163.713 89.0277 163.385 88.6013 163.017 88.2393C160.751 85.965 159.929 83.1594 157.813 80.8295C157.475 80.4578 157.108 80.1077 156.713 79.7812C157.054 79.5937 157.397 79.4129 157.749 79.2291C158.245 78.9692 158.749 78.7062 159.242 78.4394L160.272 77.8972C160.694 78.2129 161.089 78.5526 161.457 78.9145ZM158.01 79.4983C158.165 79.6461 158.253 79.8398 158.26 80.0502C158.267 80.2607 158.193 80.4766 158.048 80.6653C160.189 82.9859 161.003 85.7946 163.301 88.1039C163.891 88.0346 164.458 88.1633 164.882 88.4625L166.479 87.6189C166.326 87.4709 166.24 87.2772 166.235 87.0673C166.23 86.8574 166.306 86.6427 166.452 86.4557C164.311 84.135 163.482 81.2853 161.196 79.0103C160.607 79.081 160.038 78.9561 159.609 78.6615C159.055 78.9431 158.554 79.213 158.01 79.4983Z" fill="black"/>
<path opacity="0.2" d="M161.48 82.0558C162.004 81.7534 162.768 82.1323 163.231 82.8468C163.695 83.5613 163.612 84.4312 163.094 84.7412C162.576 85.0512 161.812 84.6723 161.344 83.9366C160.875 83.2009 160.957 82.3446 161.48 82.0558Z" fill="black"/>
<path d="M174.945 107.584C171.871 104.414 165.921 101.447 164.457 99.1665L163.297 101.819C165.334 104.592 167.15 104.744 173.903 110.331L174.945 107.584Z" fill="#3362CC"/>
<path opacity="0.2" d="M165.344 103.238C167.66 105.297 170.051 106.48 172.375 108.447C172.748 108.763 173.111 109.093 173.462 109.438L173.644 108.844C173.731 108.561 173.824 108.276 173.911 107.993L174.144 107.377C173.798 107.017 173.386 106.698 173.016 106.366C170.7 104.307 168.308 103.124 165.985 101.156C165.614 100.842 165.253 100.512 164.904 100.169C164.837 100.362 164.777 100.558 164.716 100.759C164.629 101.043 164.542 101.331 164.449 101.611L164.267 102.2C164.614 102.559 164.973 102.906 165.344 103.238ZM164.988 100.998C165.141 101.137 165.313 101.24 165.479 101.291C165.646 101.342 165.797 101.339 165.911 101.282C168.234 103.264 170.626 104.442 172.977 106.531C173.062 106.921 173.296 107.339 173.631 107.697L173.346 108.608C173.194 108.47 173.022 108.368 172.857 108.319C172.691 108.269 172.541 108.274 172.429 108.333C170.106 106.35 167.678 105.152 165.357 103.08C165.274 102.691 165.042 102.272 164.71 101.913C164.8 101.594 164.893 101.309 164.988 100.998Z" fill="black"/>
<path opacity="0.2" d="M167.807 103.943C167.694 104.236 168.171 104.845 168.84 105.321C169.509 105.797 170.171 105.931 170.291 105.644C170.412 105.356 169.935 104.748 169.248 104.264C168.562 103.78 167.91 103.647 167.807 103.943Z" fill="black"/>
<path d="M175.774 83.339C171.766 81.4839 165.148 80.8516 162.963 79.2494L162.833 82.1411C165.729 83.9983 167.479 83.4874 175.788 86.2767L175.774 83.339Z" fill="#3362CC"/>
<path opacity="0.2" d="M165.253 82.7302C168.154 83.82 170.811 84.0656 173.686 85.067C174.147 85.2272 174.605 85.4057 175.056 85.6013L175.013 84.9817C174.992 84.6862 174.976 84.3867 174.956 84.0912L174.953 83.4324C174.5 83.2216 174.001 83.0713 173.537 82.8941C170.636 81.8043 167.979 81.5588 165.103 80.5573C164.644 80.3974 164.189 80.2192 163.74 80.0239C163.747 80.2279 163.761 80.4328 163.777 80.6426C163.797 80.9381 163.82 81.2385 163.834 81.5331L163.875 82.1477C164.328 82.3585 164.788 82.5531 165.253 82.7302ZM164.117 80.7676C164.309 80.8427 164.507 80.8768 164.68 80.8647C164.854 80.8527 164.994 80.7951 165.08 80.7007C167.96 81.7168 170.615 81.9574 173.559 83.0624C173.778 83.3957 174.148 83.7018 174.588 83.9154L174.65 84.8679C174.458 84.7937 174.262 84.7607 174.089 84.7738C173.917 84.7869 173.778 84.8455 173.695 84.9406C170.815 83.9245 168.119 83.6786 165.209 82.5781C164.991 82.2446 164.624 81.9376 164.185 81.721C164.155 81.3912 164.139 81.0916 164.117 80.7676Z" fill="black"/>
<path opacity="0.2" d="M167.807 82.5024C167.807 82.817 168.47 83.2136 169.266 83.4175C170.061 83.6214 170.727 83.5094 170.736 83.1977C170.746 82.8861 170.082 82.4895 169.267 82.2843C168.452 82.0791 167.797 82.1895 167.807 82.5024Z" fill="black"/>
<path d="M190.063 96.3989C194.588 97.4911 201.298 94.6826 203.95 96.3989L203.17 90.8344C199.737 89.0654 198.177 91.0938 189.127 90.8344L190.063 96.3989Z" fill="#3362CC"/>
<path opacity="0.2" d="M200.604 91.1805C197.408 90.8698 194.717 92.0131 191.574 91.8545C191.07 91.8298 190.564 91.7683 190.059 91.6705L190.296 92.8196C190.409 93.3676 190.519 93.9265 190.632 94.4745L190.842 95.7224C191.353 95.8482 191.891 95.8315 192.404 95.8861C195.599 96.1968 198.29 95.0536 201.433 95.2121C201.935 95.2377 202.439 95.2999 202.942 95.3985C202.871 95.0159 202.792 94.6357 202.711 94.247C202.598 93.699 202.482 93.1426 202.376 92.5922L202.142 91.4515C201.63 91.3256 201.117 91.2352 200.604 91.1805ZM202.338 94.2158C202.125 94.1896 201.92 94.2447 201.753 94.3728C201.586 94.5009 201.466 94.6951 201.411 94.9261C198.259 94.7423 195.571 95.8939 192.328 95.5807C192.008 95.081 191.549 94.7239 191.049 94.5855L190.688 92.8159C190.9 92.8407 191.104 92.7841 191.27 92.6549C191.435 92.5256 191.553 92.3306 191.605 92.0995C194.757 92.2834 197.486 91.1174 200.695 91.4425C201.014 91.9432 201.471 92.3036 201.971 92.4486C202.105 93.0558 202.214 93.6147 202.338 94.2158Z" fill="black"/>
<path opacity="0.2" d="M198.162 93.1583C198.064 92.5614 197.286 92.2108 196.44 92.3055C195.594 92.4003 194.974 93.0162 195.062 93.6131C195.151 94.21 195.928 94.5606 196.794 94.4564C197.66 94.3521 198.27 93.7457 198.162 93.1583Z" fill="black"/>
<path d="M162.388 73.0059C163.61 68.5143 160.996 61.7269 162.788 59.1248L157.203 59.7447C155.336 63.1251 157.319 64.7431 156.799 73.7817L162.388 73.0059Z" fill="#3362CC"/>
<path opacity="0.2" d="M157.476 62.3178C157.074 65.5034 158.139 68.2259 157.89 71.3631C157.851 71.8661 157.775 72.3701 157.663 72.8725L158.818 72.6685C159.369 72.5711 159.931 72.478 160.482 72.3806L161.735 72.2066C161.876 71.6991 161.875 71.1611 161.944 70.65C162.346 67.4644 161.281 64.7418 161.53 61.6047C161.57 61.104 161.646 60.6022 161.759 60.1023C161.375 60.1624 160.993 60.2295 160.602 60.2993C160.051 60.3967 159.491 60.4967 158.938 60.5872L157.791 60.7885C157.651 61.296 157.545 61.8067 157.476 62.3178ZM160.56 60.6719C160.528 60.8836 160.577 61.0904 160.7 61.2612C160.823 61.4319 161.014 61.5574 161.243 61.6186C160.969 64.7638 162.043 67.4837 161.636 70.7164C161.128 71.0221 160.758 71.4709 160.605 71.9671L158.826 72.2761C158.856 72.0652 158.806 71.8596 158.681 71.6905C158.557 71.5214 158.365 71.398 158.136 71.3391C158.41 68.1938 157.323 65.4323 157.741 62.2343C158.25 61.9298 158.624 61.4833 158.783 60.9879C159.394 60.8716 159.955 60.7785 160.56 60.6719Z" fill="black"/>
<path opacity="0.2" d="M159.383 64.8142C158.783 64.8954 158.41 65.6624 158.481 66.5111C158.551 67.3598 159.149 67.9972 159.748 67.9258C160.347 67.8544 160.72 67.0874 160.641 66.2188C160.562 65.3502 159.973 64.7229 159.383 64.8142Z" fill="black"/>
<path d="M129.019 123.147C128.754 127.725 131.369 134.195 130.482 136.956L134.18 135.78C135.02 132.239 133.478 130.833 132.701 121.815L129.019 123.147Z" fill="#3362CC"/>
<path opacity="0.2" d="M133.678 133.255C133.552 130.055 132.492 127.461 132.268 124.324C132.232 123.822 132.221 123.314 132.234 122.804L131.478 123.123C131.118 123.275 130.75 123.424 130.389 123.576L129.564 123.874C129.532 124.392 129.6 124.925 129.617 125.439C129.743 128.64 130.803 131.233 131.026 134.37C131.062 134.871 131.073 135.376 131.059 135.884C131.311 135.785 131.561 135.68 131.817 135.572C132.177 135.42 132.543 135.264 132.905 135.119L133.655 134.804C133.687 134.286 133.694 133.769 133.678 133.255ZM131.798 135.198C131.794 134.985 131.735 134.785 131.63 134.628C131.525 134.471 131.381 134.365 131.218 134.328C131.011 131.18 129.946 128.59 129.817 125.343C130.122 124.988 130.317 124.506 130.358 123.998L131.522 123.513C131.527 123.725 131.587 123.924 131.693 124.079C131.798 124.234 131.943 124.338 132.105 124.373C132.312 127.521 133.392 130.151 133.509 133.365C133.203 133.718 133.006 134.199 132.96 134.706C132.562 134.883 132.194 135.032 131.798 135.198Z" fill="black"/>
<path opacity="0.2" d="M132.076 130.97C132.471 130.829 132.627 130.031 132.474 129.196C132.32 128.361 131.837 127.789 131.441 127.92C131.044 128.051 130.888 128.849 131.05 129.703C131.212 130.557 131.688 131.12 132.076 130.97Z" fill="black"/>
<path d="M179.137 67.3492C182.083 70.8638 188.422 73.7808 189.67 76.3986L191.555 73.007C189.739 69.8535 187.653 69.8878 180.904 63.856L179.137 67.3492Z" fill="#3362CC"/>
<path opacity="0.2" d="M189.454 71.5156C187.169 69.272 184.619 68.1109 182.305 65.9806C181.934 65.6394 181.578 65.2778 181.238 64.8978L180.906 65.6477C180.748 66.0055 180.582 66.3662 180.424 66.7239L180.028 67.5073C180.36 67.9057 180.775 68.2475 181.14 68.61C183.426 70.8535 185.975 72.0146 188.289 74.1449C188.658 74.4851 189.012 74.8456 189.35 75.2245C189.466 74.9799 189.577 74.732 189.688 74.4778C189.846 74.1201 190.006 73.7561 190.17 73.4017L190.5 72.658C190.168 72.2596 189.819 71.8781 189.454 71.5156ZM189.419 74.2181C189.269 74.066 189.089 73.9608 188.905 73.9183C188.721 73.8757 188.544 73.8982 188.399 73.9823C186.091 71.8332 183.539 70.6784 181.219 68.4027C181.198 67.9351 181.009 67.4508 180.691 67.053L181.205 65.9015C181.355 66.0523 181.535 66.156 181.718 66.1969C181.901 66.2377 182.077 66.2135 182.22 66.1278C184.529 68.277 187.118 69.4513 189.407 71.7107C189.426 72.178 189.612 72.6626 189.927 73.0634C189.758 73.4652 189.592 73.8259 189.419 74.2181Z" fill="black"/>
<path opacity="0.2" d="M186.722 70.9499C186.913 70.5765 186.48 69.8882 185.796 69.3858C185.111 68.8834 184.367 68.7986 184.169 69.1656C183.97 69.5326 184.404 70.2208 185.107 70.7311C185.81 71.2414 186.543 71.3248 186.722 70.9499Z" fill="black"/>
<path d="M188.271 110.9C189.898 114.211 187.937 119.811 189.953 121.585L184.362 121.85C182.199 119.484 184.014 117.968 182.661 111.044L188.271 110.9Z" fill="#3362CC"/>
<path opacity="0.2" d="M184.396 119.823C183.702 117.413 184.505 115.164 183.968 112.77C183.882 112.387 183.76 112.007 183.603 111.633L184.766 111.637C185.322 111.639 185.887 111.636 186.442 111.638L187.7 111.605C187.886 111.979 187.935 112.396 188.051 112.782C188.745 115.193 187.941 117.441 188.479 119.835C188.565 120.217 188.687 120.595 188.846 120.966C188.459 120.971 188.074 120.97 187.68 120.968C187.125 120.966 186.561 120.964 186.005 120.967L184.85 120.964C184.663 120.591 184.512 120.209 184.396 119.823ZM187.604 120.686C187.552 120.526 187.582 120.36 187.688 120.211C187.795 120.062 187.972 119.94 188.194 119.862C187.63 117.465 188.442 115.218 187.74 112.771C187.208 112.603 186.799 112.305 186.602 111.941L184.81 111.939C184.86 112.098 184.829 112.264 184.722 112.412C184.614 112.559 184.436 112.68 184.214 112.756C184.777 115.153 183.956 117.434 184.666 119.853C185.199 120.02 185.61 120.316 185.814 120.678C186.43 120.687 186.995 120.684 187.604 120.686Z" fill="black"/>
<path opacity="0.2" d="M186.053 117.637C185.451 117.654 185.011 117.111 185.002 116.445C184.993 115.779 185.527 115.206 186.127 115.181C186.727 115.157 187.168 115.7 187.17 116.383C187.172 117.066 186.646 117.629 186.053 117.637Z" fill="black"/>
<path d="M147.312 124.855C151.837 125.313 158.547 124.135 161.199 124.855L160.419 122.522C156.986 121.781 155.426 122.631 146.376 122.522L147.312 124.855Z" fill="#3362CC"/>
<path opacity="0.2" d="M157.853 122.667C154.657 122.537 151.966 123.016 148.823 122.95C148.319 122.94 147.813 122.914 147.308 122.873L147.545 123.355C147.658 123.584 147.767 123.819 147.881 124.048L148.091 124.571C148.602 124.624 149.14 124.617 149.653 124.64C152.848 124.77 155.539 124.291 158.682 124.357C159.184 124.368 159.688 124.394 160.191 124.436C160.119 124.275 160.041 124.116 159.96 123.953C159.847 123.723 159.731 123.49 159.625 123.259L159.391 122.781C158.879 122.728 158.366 122.69 157.853 122.667ZM159.587 123.94C159.374 123.929 159.169 123.952 159.002 124.006C158.835 124.059 158.715 124.141 158.66 124.238C155.508 124.161 152.82 124.643 149.577 124.512C149.257 124.303 148.798 124.153 148.297 124.095L147.937 123.353C148.149 123.363 148.353 123.34 148.519 123.286C148.684 123.231 148.802 123.15 148.854 123.053C152.006 123.13 154.735 122.641 157.944 122.777C158.263 122.987 158.72 123.138 159.22 123.199C159.354 123.454 159.463 123.688 159.587 123.94Z" fill="black"/>
<path opacity="0.2" d="M155.411 123.496C155.312 123.246 154.535 123.099 153.689 123.139C152.842 123.178 152.222 123.436 152.311 123.687C152.4 123.937 153.177 124.084 154.043 124.04C154.909 123.997 155.519 123.742 155.411 123.496Z" fill="black"/>
<path d="M136.156 112.889C138.473 111.38 142.694 111.032 143.861 109.688L144.416 112.244C142.825 113.791 141.599 113.284 136.624 115.482L136.156 112.889Z" fill="#3362CC"/>
<path opacity="0.2" d="M142.927 112.687C141.209 113.557 139.514 113.689 137.798 114.481C137.523 114.608 137.253 114.751 136.99 114.909L136.917 114.364C136.883 114.104 136.844 113.84 136.81 113.58L136.705 112.998C136.966 112.827 137.268 112.71 137.543 112.568C139.261 111.699 140.956 111.567 142.672 110.774C142.946 110.648 143.214 110.505 143.476 110.347C143.504 110.527 143.529 110.707 143.553 110.892C143.587 111.152 143.621 111.416 143.66 111.676L143.733 112.217C143.471 112.389 143.202 112.546 142.927 112.687ZM143.351 110.991C143.237 111.052 143.114 111.075 142.998 111.059C142.883 111.043 142.782 110.988 142.711 110.902C140.994 111.707 139.299 111.835 137.555 112.716C137.466 113.003 137.275 113.262 137.021 113.436L137.136 114.275C137.249 114.216 137.372 114.193 137.487 114.21C137.602 114.227 137.702 114.283 137.772 114.369C139.488 113.564 141.209 113.433 142.931 112.554C143.02 112.267 143.209 112.008 143.461 111.831C143.427 111.54 143.389 111.277 143.351 110.991Z" fill="black"/>
<path opacity="0.2" d="M141.227 112.405C141.278 112.683 140.909 113.012 140.423 113.166C139.936 113.321 139.483 113.201 139.426 112.926C139.369 112.65 139.738 112.321 140.237 112.166C140.736 112.011 141.182 112.129 141.227 112.405Z" fill="black"/>
<path d="M143.754 108.733L139.726 109.588C142.568 111.007 141.57 112.191 137.639 114.627L142.548 113.584C145.964 111.66 146.099 110.601 143.754 108.733Z" fill="#3362CC"/>
<path d="M153.804 150.547C155.176 152.858 158.722 155.169 159.159 156.795L160.758 155.042C160.038 153.051 158.744 152.861 155.342 148.723L153.804 150.547Z" fill="#3362CC"/>
<path opacity="0.2" d="M159.645 153.975C158.519 152.459 157.091 151.537 155.933 150.083C155.747 149.85 155.573 149.606 155.412 149.354L155.111 149.751C154.967 149.94 154.819 150.13 154.675 150.319L154.33 150.728C154.485 150.99 154.698 151.227 154.877 151.472C156.003 152.988 157.431 153.911 158.589 155.365C158.774 155.597 158.947 155.839 159.107 156.09C159.21 155.962 159.31 155.831 159.411 155.697C159.555 155.507 159.7 155.315 159.847 155.128L160.146 154.736C159.992 154.474 159.825 154.22 159.645 153.975ZM159.278 155.521C159.205 155.418 159.107 155.34 158.999 155.297C158.891 155.254 158.778 155.249 158.678 155.283C157.525 153.818 156.096 152.899 154.952 151.361C154.999 151.091 154.944 150.794 154.798 150.534L155.263 149.926C155.337 150.028 155.435 150.105 155.543 150.147C155.651 150.189 155.763 150.193 155.862 150.158C157.014 151.623 158.465 152.557 159.591 154.082C159.543 154.352 159.596 154.649 159.74 154.91C159.584 155.123 159.435 155.313 159.278 155.521Z" fill="black"/>
<path opacity="0.2" d="M158.034 153.375C158.2 153.181 158.02 152.742 157.661 152.386C157.302 152.029 156.853 151.905 156.684 152.095C156.514 152.286 156.694 152.724 157.064 153.087C157.433 153.45 157.875 153.572 158.034 153.375Z" fill="black"/>
<path d="M158.647 157.497L155.491 154.878C158.598 155.126 158.239 153.709 155.856 149.887L159.702 153.079C161.857 156.248 161.514 157.151 158.647 157.497Z" fill="#3362CC"/>
<path d="M129.835 83.1275C134.36 82.6744 141.07 83.8396 143.722 83.1275L142.942 85.436C139.509 86.1699 137.949 85.3284 128.899 85.436L129.835 83.1275Z" fill="#3362CC"/>
<path opacity="0.2" d="M140.376 85.2925C137.18 85.4213 134.489 84.9471 131.346 85.0128C130.842 85.0231 130.336 85.0486 129.831 85.0892L130.068 84.6124C130.181 84.3851 130.291 84.1532 130.404 83.9259L130.614 83.4082C131.125 83.356 131.663 83.3629 132.176 83.3403C135.372 83.2114 138.062 83.6857 141.205 83.6199C141.707 83.6093 142.211 83.5835 142.714 83.5426C142.643 83.7013 142.565 83.859 142.484 84.0203C142.37 84.2476 142.254 84.4785 142.148 84.7068L141.914 85.18C141.402 85.2322 140.889 85.2698 140.376 85.2925ZM142.11 84.0332C141.897 84.0441 141.692 84.0212 141.525 83.9681C141.358 83.9149 141.238 83.8344 141.183 83.7385C138.031 83.8148 135.344 83.337 132.1 83.467C131.78 83.6743 131.321 83.8224 130.821 83.8799L130.461 84.614C130.672 84.6037 130.876 84.6272 131.042 84.6808C131.207 84.7344 131.325 84.8153 131.377 84.9112C134.529 84.8349 137.258 85.3187 140.467 85.1837C140.786 84.976 141.243 84.8265 141.743 84.7663C141.877 84.5145 141.986 84.2826 142.11 84.0332Z" fill="black"/>
<path opacity="0.2" d="M137.934 84.4719C137.836 84.7195 137.058 84.865 136.212 84.8256C135.366 84.7863 134.746 84.5308 134.834 84.2832C134.923 84.0355 135.7 83.8901 136.566 83.9333C137.432 83.9766 138.042 84.2282 137.934 84.4719Z" fill="black"/>
<path d="M128.898 85.4049C136.075 85.2489 139.976 86.029 142.941 85.4049L142.785 87.9014C136.846 88.118 133.128 87.7095 128.898 87.7454V85.4049Z" fill="#264A99"/>
<path d="M143.414 85.7172L142.79 87.9017L142.946 85.4051L143.726 83.2207L143.414 85.7172Z" fill="#3362CC"/>
</svg>
