<svg width="300" height="200" viewBox="0 0 300 200" fill="none" xmlns="http://www.w3.org/2000/svg">
<path d="M154.46 190.985C198.377 190.985 233.98 189.316 233.98 187.257C233.98 185.198 198.377 183.528 154.46 183.528C110.543 183.528 74.9407 185.198 74.9407 187.257C74.9407 189.316 110.543 190.985 154.46 190.985Z" fill="#F5F5F5"/>
<path d="M243.894 155.009H85.3263C83.7092 155.007 82.1588 154.364 81.0153 153.22C79.8719 152.077 79.2287 150.527 79.227 148.909V54.8249C79.2287 53.2078 79.8719 51.6574 81.0153 50.5139C82.1588 49.3705 83.7092 48.7273 85.3263 48.7256H243.894C245.512 48.7273 247.063 49.3702 248.208 50.5135C249.352 51.6568 249.997 53.2072 250 54.8249V148.909C249.997 150.527 249.352 152.077 248.208 153.221C247.063 154.364 245.512 155.007 243.894 155.009ZM85.3263 49.3485C83.8835 49.3519 82.5008 49.9266 81.4806 50.9468C80.4604 51.967 79.8858 53.3497 79.8823 54.7924V148.877C79.8841 150.32 80.4582 151.704 81.4787 152.725C82.4993 153.745 83.883 154.319 85.3263 154.321H243.894C245.338 154.321 246.723 153.747 247.744 152.726C248.765 151.705 249.338 150.321 249.338 148.877V54.7924C249.337 53.3491 248.763 51.9654 247.742 50.9449C246.721 49.9243 245.338 49.3502 243.894 49.3485H85.3263Z" fill="#264A99"/>
<path d="M85.3263 49.3485C83.8835 49.3519 82.5008 49.9266 81.4806 50.9468C80.4604 51.967 79.8858 53.3497 79.8823 54.7924V148.877C79.8841 150.32 80.4582 151.704 81.4787 152.725C82.4993 153.745 83.883 154.319 85.3263 154.321H243.894C245.338 154.321 246.723 153.747 247.744 152.726C248.765 151.705 249.338 150.321 249.338 148.877V54.7924C249.337 53.3491 248.763 51.9654 247.742 50.9449C246.721 49.9243 245.338 49.3502 243.894 49.3485H85.3263Z" fill="#264A99"/>
<path d="M247.038 149.24V54.3758C247.038 52.992 245.917 51.8701 244.533 51.8701L84.7064 51.8701C83.323 51.8701 82.2016 52.992 82.2016 54.3758V149.24C82.2016 150.623 83.323 151.745 84.7064 151.745H244.533C245.917 151.745 247.038 150.623 247.038 149.24Z" fill="white"/>
<path d="M100.114 90.2295H94.2654V139.941H100.114V90.2295Z" fill="#2859C7"/>
<path d="M110.557 106.939H105.126V139.941H110.557V106.939Z" fill="#2859C7"/>
<path d="M121.419 96.4961H115.988V140.359H121.419V96.4961Z" fill="#2859C7"/>
<path d="M132.28 92.3184H126.432V139.941H132.28V92.3184Z" fill="#2859C7"/>
<path d="M142.723 108.192H137.293V139.941H142.723V108.192Z" fill="#2859C7"/>
<path d="M153.584 114.459H148.154V139.941H153.584V114.459Z" fill="#2859C7"/>
<path d="M164.445 95.2422H158.597V139.941H164.445V95.2422Z" fill="#2859C7"/>
<path d="M174.89 103.598H169.459V139.941H174.89V103.598Z" fill="#2859C7"/>
<path d="M185.751 96.9131H180.32V139.941H185.751V96.9131Z" fill="#2859C7"/>
<path d="M196.194 110.699H190.763V139.941H196.194V110.699Z" fill="#2859C7"/>
<path d="M217.917 95.2422H212.069V139.941H217.917V95.2422Z" fill="#2859C7"/>
<path d="M240.475 124.701H235.044V140.158H240.475V124.701Z" fill="#2859C7"/>
<path d="M229.197 110.699H223.766V139.941H229.197V110.699Z" fill="#2859C7"/>
<path d="M207.056 105.269H201.625V139.941H207.056V105.269Z" fill="#2859C7"/>
<line x1="89.6877" y1="139.06" x2="243.744" y2="139.06" stroke="#2859C7" stroke-width="3"/>
<line x1="94.3791" y1="141.405" x2="99.8532" y2="141.405" stroke="white" stroke-width="3"/>
<line x1="105.067" y1="141.405" x2="110.541" y2="141.405" stroke="#2859C7" stroke-width="3"/>
<line x1="115.493" y1="141.405" x2="121.489" y2="141.405" stroke="#2859C7" stroke-width="3"/>
<line x1="126.702" y1="141.405" x2="132.437" y2="141.405" stroke="#2859C7" stroke-width="3"/>
<line x1="137.39" y1="141.405" x2="143.125" y2="141.405" stroke="#2859C7" stroke-width="3"/>
<line x1="148.077" y1="141.405" x2="153.551" y2="141.405" stroke="#2859C7" stroke-width="3"/>
<line x1="158.765" y1="141.405" x2="164.5" y2="141.405" stroke="#2859C7" stroke-width="3"/>
<line x1="169.453" y1="141.405" x2="175.187" y2="141.405" stroke="#2859C7" stroke-width="3"/>
<line x1="180.401" y1="141.405" x2="186.135" y2="141.405" stroke="#2859C7" stroke-width="3"/>
<line x1="190.828" y1="141.405" x2="196.563" y2="141.405" stroke="#2859C7" stroke-width="3"/>
<line x1="201.515" y1="141.405" x2="207.25" y2="141.405" stroke="#2859C7" stroke-width="3"/>
<line x1="212.203" y1="141.405" x2="217.938" y2="141.405" stroke="#2859C7" stroke-width="3"/>
<line x1="223.673" y1="141.405" x2="229.147" y2="141.405" stroke="#2859C7" stroke-width="3"/>
<line x1="234.881" y1="141.405" x2="240.877" y2="141.405" stroke="#2859C7" stroke-width="3"/>
<path d="M227.123 154.896H96.6647C96.1519 154.896 95.645 155.004 95.1786 155.214C94.7121 155.423 94.2969 155.729 93.9614 156.111M227.123 154.896L227.122 156.396C227.122 156.396 227.122 156.396 227.123 156.396M227.123 154.896V156.396M227.123 154.896C227.634 154.897 228.14 155.005 228.606 155.215C229.071 155.424 229.486 155.73 229.821 156.111M227.123 156.396H96.6647H96.6634C96.3624 156.396 96.0655 156.46 95.7933 156.582C95.5617 156.686 95.3532 156.83 95.1773 157.006M227.123 156.396C227.423 156.397 227.719 156.46 227.99 156.583C228.221 156.687 228.43 156.831 228.605 157.007M95.1773 157.006L95.263 156.857L93.9614 156.111M95.1773 157.006C95.1465 157.037 95.1167 157.069 95.0879 157.102L93.9614 156.111M95.1773 157.006L92.1203 162.342L92.0451 162.474L91.9453 162.587C91.6879 162.88 91.5237 163.237 91.4688 163.614C91.414 163.991 91.4703 164.376 91.6324 164.725C91.7946 165.074 92.0571 165.373 92.3918 165.584C92.7268 165.796 93.1187 165.909 93.5208 165.909L93.5221 165.909H230.265H230.266C230.669 165.909 231.06 165.796 231.395 165.584C231.73 165.373 231.993 165.074 232.155 164.725C232.317 164.376 232.373 163.991 232.318 163.614C232.264 163.237 232.099 162.88 231.842 162.587L231.742 162.474L231.667 162.343L228.605 157.007M93.9614 156.111L90.8188 161.597C90.3709 162.106 90.0813 162.731 89.9844 163.398C89.8876 164.065 89.9875 164.745 90.2724 165.358C90.5572 165.97 91.015 166.489 91.5912 166.853C92.1673 167.216 92.8376 167.409 93.5221 167.409H230.265C230.95 167.409 231.62 167.216 232.196 166.853C232.772 166.489 233.23 165.97 233.515 165.358C233.8 164.745 233.9 164.065 233.803 163.398C233.706 162.731 233.416 162.106 232.968 161.597L229.821 156.111M228.605 157.007C228.636 157.037 228.666 157.069 228.694 157.102L229.821 156.111M228.605 157.007L228.52 156.858L229.821 156.111" fill="#2859C7" stroke="#264A99" stroke-width="3"/>
<path d="M91.2643 164.021C90.9405 164.02 90.6243 164.121 90.359 164.31C90.0937 164.499 89.8921 164.768 89.7818 165.078C89.6715 165.388 89.6578 165.726 89.7426 166.044C89.8274 166.363 90.0066 166.647 90.2557 166.858C90.885 167.389 91.6779 167.676 92.4948 167.67H231.008C231.876 167.677 232.716 167.354 233.363 166.765C233.588 166.543 233.742 166.258 233.805 165.946C233.869 165.634 233.84 165.31 233.722 165.015C233.604 164.72 233.402 164.468 233.142 164.29C232.883 164.113 232.577 164.019 232.264 164.021H91.2643Z" fill="#264A99"/>
<path d="M64.2599 77.7901L62.3866 74.765C63.5452 73.0499 63.9581 71.0019 63.5441 69.0235C63.1301 67.0451 61.9192 65.2794 60.1493 64.0735C58.3795 62.8676 56.1788 62.3088 53.9799 62.5069C51.781 62.705 49.7429 63.6457 48.2663 65.144C46.7897 66.6424 45.9814 68.59 46.0003 70.604C46.0192 72.618 46.864 74.5527 48.3685 76.0278C49.873 77.5029 51.9284 78.4117 54.1308 78.5754C56.3331 78.7392 58.5229 78.1461 60.2699 76.9128V76.9128L64.2599 77.7901Z" fill="#79A3FF"/>
<path d="M51.796 69.5889C51.796 68.8628 52.2754 68.4023 52.9576 68.4023C53.6398 68.4023 54.1118 68.8561 54.1118 69.5889C54.1118 70.3217 53.6361 70.7788 52.9576 70.7788C52.279 70.7788 51.796 70.3183 51.796 69.5889ZM53.4443 69.5889C53.4443 69.1284 53.2489 68.9166 52.9576 68.9166C52.6663 68.9166 52.4708 69.1452 52.4708 69.5889C52.4708 70.0326 52.6699 70.2612 52.9576 70.2612C53.2452 70.2612 53.4443 70.0528 53.4443 69.5889ZM55.7381 68.4494H56.5309L53.3448 72.762H52.5519L55.7381 68.4494ZM54.971 71.6225C54.971 70.8964 55.4504 70.4326 56.1253 70.4326C56.8001 70.4326 57.2832 70.8964 57.2832 71.6225C57.2832 72.3485 56.8038 72.8124 56.1253 72.8124C55.4468 72.8124 54.971 72.3485 54.971 71.6225V71.6225ZM56.612 71.6225C56.612 71.1653 56.4166 70.9502 56.1253 70.9502C55.834 70.9502 55.6385 71.1721 55.6385 71.6225C55.6385 72.0729 55.8376 72.2947 56.1253 72.2947C56.4129 72.2947 56.612 72.0796 56.612 71.6225V71.6225Z" fill="white"/>
<line x1="87.341" y1="69.6787" x2="89.9477" y2="69.6787" stroke="#79A3FF"/>
<line x1="87.341" y1="66.29" x2="89.9477" y2="66.29" stroke="#79A3FF"/>
<line x1="87.341" y1="63.1621" x2="89.9477" y2="63.1621" stroke="#79A3FF"/>
<path d="M232.635 92.4035C232.499 92.3915 232.363 92.3697 232.23 92.3385L231.049 92.0964C230.411 91.9601 229.767 91.8576 229.119 91.7893C228.239 91.6664 227.352 91.5929 226.464 91.5689C224.027 91.4875 221.589 91.6961 219.202 92.1904C216.046 92.8675 213.011 94.0173 210.198 95.601C206.791 97.5208 203.711 99.9723 201.076 102.863C198.236 105.977 195.841 109.825 193.391 113.897C190.942 117.969 188.398 122.34 184.753 126.112C182.929 128.061 180.775 129.672 178.39 130.871C177.152 131.471 175.829 131.876 174.467 132.07C173.082 132.254 171.677 132.207 170.308 131.929C167.555 131.322 165.116 129.877 163.064 128.132C161.051 126.398 159.25 124.432 157.699 122.275C154.585 118.084 152.373 113.568 150.007 109.453C147.641 105.338 145.267 101.465 142.322 98.448C140.928 96.9791 139.328 95.7207 137.571 94.7122C136.746 94.236 135.887 93.8195 135.002 93.4657C134.147 93.1499 133.272 92.8905 132.383 92.689C129.238 91.971 125.963 92.0629 122.863 92.9563C120.522 93.626 118.312 94.6889 116.327 96.0996C115.086 97.0122 113.937 98.0431 112.895 99.1778L112.089 100.07C112.001 100.177 111.905 100.276 111.8 100.366C111.871 100.249 111.953 100.139 112.046 100.038L112.808 99.0983C113.826 97.9271 114.963 96.8652 116.201 95.9298C118.188 94.474 120.413 93.3739 122.776 92.6781C125.919 91.7342 129.251 91.6098 132.455 92.3168C136.021 93.0394 139.656 95.0771 142.622 98.1337C145.588 101.19 148.06 105.067 150.415 109.2C152.771 113.333 155.018 117.824 158.1 121.961C159.631 124.088 161.406 126.029 163.389 127.742C165.398 129.451 167.768 130.845 170.406 131.427C171.714 131.69 173.057 131.736 174.38 131.561C175.69 131.373 176.964 130.984 178.155 130.408C180.491 129.235 182.601 127.659 184.388 125.751C187.983 122.055 190.497 117.69 192.983 113.648C195.469 109.605 197.867 105.699 200.758 102.57C203.437 99.6629 206.563 97.2016 210.018 95.2794C212.87 93.697 215.948 92.5602 219.144 91.9086C221.555 91.4291 224.016 91.2471 226.471 91.3666C227.366 91.4034 228.257 91.4938 229.141 91.6376C229.791 91.7192 230.435 91.8398 231.07 91.9989L232.241 92.2915C232.375 92.3184 232.507 92.3558 232.635 92.4035V92.4035Z" fill="#263238"/>
<path d="M212.521 92.961C212.521 92.933 212.67 92.8874 212.927 92.961C213.283 93.0896 213.578 93.3386 213.758 93.6617C213.902 93.897 213.994 94.1584 214.029 94.4296C214.064 94.7008 214.041 94.976 213.961 95.2382C213.867 95.5807 213.661 95.8849 213.374 96.1063C213.088 96.3276 212.735 96.4543 212.369 96.4679C212.172 96.4592 211.979 96.4093 211.805 96.3216C211.63 96.2339 211.477 96.1105 211.357 95.9599C211.145 95.7041 210.999 95.4042 210.929 95.0841C210.859 94.8196 210.846 94.5443 210.891 94.2749C210.936 94.0056 211.038 93.748 211.19 93.5181C211.763 92.7368 212.47 92.7753 212.445 92.8174C212.477 92.8909 211.886 92.9996 211.505 93.6827C211.304 94.0779 211.263 94.532 211.393 94.9544C211.516 95.4169 211.886 95.9459 212.387 95.9494C212.643 95.9292 212.886 95.8353 213.086 95.6797C213.286 95.5242 213.433 95.3142 213.508 95.0771C213.649 94.6614 213.622 94.2093 213.431 93.8123C213.239 93.4353 212.917 93.1344 212.521 92.961V92.961Z" fill="#263238"/>
<path d="M165.205 109.497C165.205 109.403 165.878 109.637 166.091 110.553C166.227 111.081 166.167 111.642 165.92 112.129C165.755 112.45 165.468 112.692 165.124 112.802C164.751 112.906 164.351 112.859 164.012 112.67C163.706 112.498 163.454 112.244 163.286 111.936C163.118 111.628 163.04 111.278 163.063 110.928C163.083 110.652 163.161 110.384 163.292 110.141C163.424 109.898 163.605 109.686 163.825 109.518C163.969 109.4 164.137 109.316 164.318 109.272C164.498 109.228 164.686 109.225 164.868 109.262C165.124 109.339 165.209 109.463 165.192 109.488C165.175 109.514 164.638 109.318 164.102 109.85C163.807 110.141 163.636 110.535 163.625 110.949C163.623 111.189 163.684 111.424 163.803 111.632C163.922 111.84 164.094 112.013 164.302 112.133C164.395 112.191 164.498 112.229 164.606 112.246C164.714 112.263 164.824 112.257 164.93 112.23C165.036 112.203 165.135 112.155 165.222 112.088C165.309 112.022 165.381 111.939 165.435 111.843C165.638 111.473 165.719 111.048 165.665 110.63C165.592 109.85 165.158 109.569 165.205 109.497Z" fill="#263238"/>
<path d="M175.124 27.1455H65.4083V112.534H175.124V27.1455Z" fill="white"/>
<path d="M175.125 112.533C175.125 111.682 175.087 78.6744 175.023 27.1448L175.125 27.247H65.4217L65.5452 27.1235C65.5452 57.9033 65.5452 87.0135 65.5452 112.512L65.4345 112.401L175.15 112.512L65.4345 112.623H65.3237V112.512C65.3237 87.0135 65.3237 57.9033 65.3237 27.1235V27H65.46H175.163H175.265V27.1022C175.167 78.6744 175.129 111.682 175.125 112.533Z" fill="#263238"/>
<path d="M88.5219 38.3633H70.7619V39.3514H88.5219V38.3633Z" fill="#263238"/>
<path d="M79.5397 40.6758H70.7619V41.6639H79.5397V40.6758Z" fill="#263238"/>
<path d="M84.1008 100.264H80.8853V101.192H84.1008V100.264Z" fill="#263238"/>
<path d="M92.2783 105.221H88.1641V106.149H92.2783V105.221Z" fill="#263238"/>
<path d="M106.602 105.221H102.488V106.149H106.602V105.221Z" fill="#263238"/>
<path d="M120.925 105.221H116.811V106.149H120.925V105.221Z" fill="#263238"/>
<path d="M135.247 105.221H131.133V106.149H135.247V105.221Z" fill="#263238"/>
<path d="M149.57 105.221H145.456V106.149H149.57V105.221Z" fill="#263238"/>
<path d="M163.894 105.221H159.78V106.149H163.894V105.221Z" fill="#263238"/>
<path d="M84.1008 87.8828H80.8853V88.8113H84.1008V87.8828Z" fill="#263238"/>
<path d="M84.1008 64.5771H80.8853V65.5056H84.1008V64.5771Z" fill="#263238"/>
<path d="M84.1008 52.8652H80.8853V53.7937H84.1008V52.8652Z" fill="#263238"/>
<path d="M84.2671 76.2295H81.0515V77.158H84.2671V76.2295Z" fill="#263238"/>
<path d="M163.779 101.192C163.779 101.192 163.664 101.192 163.434 101.192H162.42L158.528 101.213L144.213 101.252L96.9765 101.281H85.6732V101.171C85.6732 85.374 85.703 71.4726 85.7115 61.5151C85.7115 56.5406 85.737 52.5712 85.7456 49.8029C85.7456 48.4357 85.7456 47.3752 85.7456 46.6512C85.7456 46.2934 85.7456 46.0251 85.7456 45.8335C85.7456 45.6418 85.7456 45.5566 85.7456 45.5566C85.7456 45.5566 85.7456 45.6503 85.7456 45.8335C85.7456 46.0166 85.7456 46.2934 85.7456 46.6512C85.7456 47.3752 85.7456 48.4357 85.7456 49.8029C85.7456 52.5542 85.7456 56.5406 85.7796 61.5151C85.7796 71.4726 85.8009 85.3655 85.818 101.171L85.7072 101.06H96.9765L144.213 101.094L158.528 101.128L162.42 101.149H163.434L163.779 101.192Z" fill="#263238"/>
<path d="M164.686 76.6937C164.686 76.7534 147.718 76.8045 126.781 76.8045C105.844 76.8045 88.876 76.7534 88.876 76.6937C88.876 76.6341 105.84 76.583 126.781 76.583C147.723 76.583 164.686 76.6299 164.686 76.6937Z" fill="#263238"/>
<path d="M164.686 65.0414C164.686 65.101 147.718 65.1521 126.781 65.1521C105.844 65.1521 88.876 65.101 88.876 65.0414C88.876 64.9818 105.84 64.9307 126.781 64.9307C147.723 64.9307 164.686 64.9818 164.686 65.0414Z" fill="#263238"/>
<path d="M164.686 53.3295C164.686 53.3934 147.718 53.4402 126.781 53.4402C105.844 53.4402 88.876 53.3934 88.876 53.3295C88.876 53.2656 105.84 53.2188 126.781 53.2188C147.723 53.2188 164.686 53.2699 164.686 53.3295Z" fill="#263238"/>
<path d="M164.686 88.3471C164.686 88.4067 147.718 88.4578 126.781 88.4578C105.844 88.4578 88.876 88.4067 88.876 88.3471C88.876 88.2874 105.84 88.2363 126.781 88.2363C147.723 88.2363 164.686 88.2874 164.686 88.3471Z" fill="#263238"/>
<path d="M89.6757 98.6826V88.346L96.1196 78.3331L100.494 81.6892L109.467 67.7495L114.761 71.4761L122.125 58.614L128.088 63.4905L137.095 46.4375L146.763 65.505L154.557 55.9649L163.761 53.3286V98.6826H89.6757Z" fill="#455A64"/>
<path d="M164.685 49.6583C164.631 49.6619 164.577 49.6619 164.523 49.6583H164.042H162.177L155.111 49.6881L155.158 49.6625L147.585 59.5945L147.556 59.6286H147.513H128.561L128.654 59.5775L120.686 72.84C117.973 77.3545 115.345 81.72 112.862 85.8427L112.781 85.9832L112.687 85.8512L102.415 71.7411H102.564L93.2279 86.341L90.6257 90.3785C90.3275 90.8385 90.0975 91.192 89.9357 91.4347C89.7738 91.6775 89.6929 91.7925 89.6929 91.7925C89.6929 91.7925 89.7653 91.6647 89.9144 91.422L90.5788 90.353C91.1708 89.4117 92.0354 88.0361 93.1342 86.2856L102.419 71.6475L102.491 71.5367L102.572 71.6432L112.866 85.7362H112.687L120.485 72.7378L128.463 59.4752L128.492 59.4241H128.578L147.53 59.4454L147.462 59.4795L155.081 49.6242V49.5986H155.111L162.177 49.6284H164.042H164.523L164.685 49.6583Z" fill="#263238"/>
<path d="M127.454 62.5755C127.459 62.7209 127.422 62.8647 127.345 62.9884C127.269 63.1121 127.157 63.2101 127.024 63.2697C126.892 63.3293 126.744 63.3478 126.601 63.3228C126.457 63.2978 126.325 63.2305 126.22 63.1295C126.116 63.0285 126.043 62.8985 126.013 62.7562C125.983 62.6138 125.996 62.4658 126.051 62.331C126.106 62.1963 126.2 62.081 126.321 62.0001C126.442 61.9192 126.584 61.8763 126.73 61.8771C126.823 61.8754 126.916 61.8921 127.003 61.9263C127.09 61.9605 127.169 62.0115 127.236 62.0763C127.303 62.1412 127.357 62.2187 127.395 62.3043C127.432 62.39 127.452 62.4821 127.454 62.5755V62.5755Z" fill="#263238"/>
<path d="M143.723 60.229C144.125 60.229 144.451 59.9163 144.451 59.5305C144.451 59.1447 144.125 58.832 143.723 58.832C143.321 58.832 142.995 59.1447 142.995 59.5305C142.995 59.9163 143.321 60.229 143.723 60.229Z" fill="#263238"/>
<path d="M69.9955 30.6584C69.9955 30.8269 69.9456 30.9916 69.852 31.1317C69.7584 31.2718 69.6253 31.3809 69.4697 31.4454C69.3141 31.5099 69.1428 31.5267 68.9776 31.4939C68.8123 31.461 68.6605 31.3799 68.5414 31.2608C68.4223 31.1416 68.3412 30.9899 68.3083 30.8246C68.2754 30.6594 68.2923 30.4881 68.3568 30.3325C68.4212 30.1768 68.5304 30.0438 68.6705 29.9502C68.8106 29.8566 68.9753 29.8066 69.1437 29.8066C69.3696 29.8066 69.5863 29.8964 69.746 30.0561C69.9058 30.2159 69.9955 30.4325 69.9955 30.6584Z" fill="#263238"/>
<path d="M72.4483 30.6584C72.4483 30.8269 72.3983 30.9916 72.3047 31.1317C72.2111 31.2718 72.0781 31.3809 71.9225 31.4454C71.7668 31.5099 71.5955 31.5267 71.4303 31.4939C71.2651 31.461 71.1133 31.3799 70.9942 31.2608C70.8751 31.1416 70.7939 30.9899 70.7611 30.8246C70.7282 30.6594 70.7451 30.4881 70.8095 30.3325C70.874 30.1768 70.9832 30.0438 71.1233 29.9502C71.2633 29.8566 71.428 29.8066 71.5965 29.8066C71.8224 29.8066 72.0391 29.8964 72.1988 30.0561C72.3585 30.2159 72.4483 30.4325 72.4483 30.6584Z" fill="#263238"/>
<path d="M74.9144 30.6584C74.9144 30.8269 74.8644 30.9916 74.7708 31.1317C74.6772 31.2718 74.5442 31.3809 74.3885 31.4454C74.2329 31.5099 74.0616 31.5267 73.8964 31.4939C73.7311 31.461 73.5794 31.3799 73.4602 31.2608C73.3411 31.1416 73.26 30.9899 73.2271 30.8246C73.1943 30.6594 73.2111 30.4881 73.2756 30.3325C73.3401 30.1768 73.4492 30.0438 73.5893 29.9502C73.7294 29.8566 73.8941 29.8066 74.0626 29.8066C74.2885 29.8066 74.5051 29.8964 74.6649 30.0561C74.8246 30.2159 74.9144 30.4325 74.9144 30.6584Z" fill="#263238"/>
<path d="M175.035 33.9848C175.035 34.0444 150.52 34.0955 120.286 34.0955C90.0512 34.0955 65.5449 34.0401 65.5449 33.9848C65.5449 33.9294 90.0554 33.874 120.299 33.874C150.542 33.874 175.035 33.9209 175.035 33.9848Z" fill="#263238"/>
<path d="M120.256 101.354C120.256 101.414 113.054 101.465 104.17 101.465C95.2858 101.465 88.0839 101.414 88.0839 101.354C88.0839 101.294 95.2858 101.243 104.17 101.243C113.054 101.243 120.256 101.29 120.256 101.354Z" fill="#FAFAFA"/>
<path d="M113.812 102.559C113.684 102.625 113.571 102.716 113.48 102.827C113.438 102.885 113.416 102.955 113.416 103.027C113.416 103.099 113.438 103.169 113.48 103.227C113.548 103.287 113.636 103.32 113.727 103.32C113.818 103.32 113.905 103.287 113.974 103.227C114.07 103.159 114.137 103.057 114.161 102.942C114.174 102.885 114.171 102.825 114.154 102.769C114.137 102.713 114.106 102.663 114.063 102.622C114.017 102.587 113.96 102.567 113.901 102.567C113.843 102.567 113.786 102.587 113.74 102.622" fill="#FAFAFA"/>
<path d="M70.6494 181.027L67.9741 179.391L70.6767 173.6L73.3533 175.241L70.6494 181.027Z" fill="#FFBE9D"/>
<path d="M98.9084 183.77L95.8558 183.051L96.6151 176.706L99.6702 177.429L98.9084 183.77Z" fill="#FFBE9D"/>
<path d="M68.8397 177.498L71.9251 178.36L73.3489 175.63L70.2651 174.771L68.8397 177.498Z" fill="black" fill-opacity="0.1"/>
<path d="M96.0868 180.983L99.2871 180.838L99.7873 177.8L96.5894 177.947L96.0868 180.983Z" fill="black" fill-opacity="0.1"/>
<path d="M66.5685 176.472C74.6295 163.145 78.6096 148.399 82.2885 106.728H97.4263C104.145 133.559 104.422 150.015 102.181 180.471H92.6715C94.1763 159.902 95.7957 144.41 91.6041 122.738C88.622 155.273 83.741 167.962 75.9811 178.91L66.5685 176.472Z" fill="#263238"/>
<path d="M86.9068 81.5177C88.049 79.911 87.3828 74.6001 86.9068 72.1455C88.3346 72.9425 91.4598 74.8806 92.5385 76.2578C93.6173 77.6349 92.988 81.167 92.5385 82.7609C90.1854 83.0159 85.7646 83.1243 86.9068 81.5177Z" fill="#FFBE9D"/>
<path d="M87.5054 78.8311C87.6022 78.0865 87.6022 76.7836 87.4086 76.0391C87.7958 77.4351 93.0229 77.342 93.0229 77.6212C93.0229 77.9004 93.273 78.8313 93.0229 79.5756C92.742 80.411 87.4028 79.6201 87.5054 78.8311Z" fill="black" fill-opacity="0.1"/>
<path d="M96.9278 70.6171C98.0593 75.1521 96.2324 78.7474 91.7811 78.5966C88.2299 78.8487 85.1117 75.6801 84.8163 71.5193C84.5209 67.3586 86.4118 63.7919 89.963 63.5398C93.5142 63.2877 96.6325 66.4564 96.9278 70.6171Z" fill="#FFBE9D"/>
<path d="M98.1048 63.9464C97.8984 63.5528 97.5853 63.1999 97.1893 62.9149C96.7934 62.6298 96.3252 62.4201 95.8206 62.3019C95.316 62.1837 94.7885 62.1601 94.2784 62.2329C93.7683 62.3057 93.2893 62.4729 92.878 62.7218C92.6632 62.3083 92.3284 61.9406 91.9029 61.6511C91.4774 61.3617 90.9742 61.1592 90.4375 61.0614C89.9008 60.9637 89.347 60.9737 88.8245 61.0906C88.3021 61.2075 87.827 61.4276 87.4409 61.7318C85.9585 61.6193 85.9864 62.6784 85.6444 63.4103C84.9854 63.7779 83.7422 63.4103 83.4663 64.2112C83.1903 65.0121 82.8125 64.6919 82.6349 65.0213C82.4573 65.3508 82.3967 65.7165 82.4597 66.0783C82.5227 66.4401 82.7069 66.784 82.992 67.072C83.2772 67.36 83.6521 67.581 84.0757 67.7107C83.898 67.9555 83.7845 68.2286 83.7422 68.5135C83.6999 68.7984 83.7297 69.0892 83.8297 69.3682C83.9297 69.6471 84.0978 69.9085 84.3239 70.1363C84.55 70.3641 84.8293 70.5537 85.1449 70.6935L85.4736 70.6095C86.1149 70.1019 86.5501 69.4463 86.7239 68.7257C86.8978 68.0051 86.8025 67.252 86.4502 66.5619C86.4886 66.5666 86.5272 66.5695 86.5659 66.5706C87.101 66.8627 87.7442 66.9868 88.3712 66.9188C88.9981 66.8507 89.5644 66.5955 89.9607 66.2024C90.3879 66.4892 90.9034 66.6733 91.4464 66.7328C91.9894 66.7924 92.537 66.7249 93.0247 66.5384C93.1628 66.4671 93.3189 66.4207 93.4827 66.4024C93.6864 66.4205 93.8816 66.4842 94.0464 66.5864C94.5085 66.8317 95.0463 66.9607 95.5901 66.9566C95.841 66.9507 96.084 66.8935 96.2967 66.7903C96.5095 66.6872 96.6852 66.5414 96.8076 66.3663L96.8477 66.3694C97.1599 66.3356 97.4521 66.2326 97.6923 66.0716C97.9326 65.9107 98.1118 65.6978 98.2104 65.4563C98.4087 64.966 98.371 64.4272 98.1048 63.9464Z" fill="#263238"/>
<path d="M94.2209 72.4453C93.5511 72.0745 93.2002 71.8084 92.8807 71.2002L93.2894 73.2597C93.9348 73.1736 94.7464 72.7361 94.2209 72.4453Z" fill="#E4897B"/>
<path d="M90.9562 75.0753C91.1089 75.1028 91.2633 75.118 91.418 75.1208C91.4317 75.1241 91.4458 75.1239 91.4594 75.1202C91.473 75.1166 91.4857 75.1096 91.4966 75.0998C91.5075 75.09 91.5163 75.0775 91.5223 75.0635C91.5283 75.0494 91.5314 75.034 91.5314 75.0184C91.5314 75.0028 91.5283 74.9874 91.5223 74.9733C91.5163 74.9592 91.5075 74.9468 91.4966 74.937C91.4857 74.9272 91.473 74.9202 91.4594 74.9166C91.4458 74.9129 91.4317 74.9127 91.418 74.9159C91.0276 74.9207 90.642 74.8215 90.293 74.6267C89.944 74.4319 89.6418 74.147 89.4115 73.7958C89.3981 73.7734 89.3775 73.7575 89.3539 73.7516C89.3303 73.7457 89.3056 73.7501 89.2848 73.764C89.2744 73.7709 89.2654 73.7802 89.2583 73.7911C89.2512 73.8021 89.2462 73.8145 89.2435 73.8277C89.2408 73.8409 89.2406 73.8546 89.2427 73.8679C89.2449 73.8812 89.2495 73.8938 89.2562 73.9051C89.4556 74.2162 89.7086 74.4799 90.0005 74.6808C90.2924 74.8817 90.6173 75.0159 90.9562 75.0753V75.0753Z" fill="#263238"/>
<path d="M89.4083 69.9843C89.2838 70.3522 89.3924 70.7621 89.6897 70.8977C89.9869 71.0333 90.2782 70.8253 90.4027 70.4573C90.5271 70.0894 90.4185 69.6795 90.1175 69.5491C89.8165 69.4187 89.5327 69.6163 89.4083 69.9843Z" fill="#263238"/>
<path d="M95.0062 69.259C94.7897 69.5117 94.7564 69.9375 94.9649 70.2308C95.1735 70.5242 95.4769 70.5126 95.6934 70.2599C95.9099 70.0072 95.9471 69.589 95.7347 69.2881C95.5222 68.9872 95.2342 69.029 95.0062 69.259Z" fill="#263238"/>
<path d="M88.3078 68.6307C88.3431 68.6512 88.3854 68.6573 88.4292 68.648C88.473 68.6387 88.5163 68.6145 88.5534 68.5786C88.7886 68.3494 89.0561 68.1789 89.3335 68.0815C89.6109 67.984 89.8899 67.9625 90.147 68.0187C90.1735 68.0278 90.2024 68.0302 90.2322 68.0256C90.262 68.0211 90.292 68.0096 90.3205 67.992C90.349 67.9744 90.3754 67.951 90.3981 67.9232C90.4208 67.8953 90.4394 67.8635 90.4528 67.8297C90.4793 67.7619 90.4839 67.6904 90.4656 67.6302C90.4473 67.5699 90.4076 67.5257 90.3548 67.5069C90.0319 67.4265 89.679 67.4457 89.3268 67.5629C88.9745 67.68 88.6336 67.8916 88.3335 68.1792C88.3076 68.2024 88.285 68.2305 88.267 68.262C88.249 68.2934 88.236 68.3274 88.2288 68.362C88.2217 68.3966 88.2204 68.431 88.2252 68.4631C88.23 68.4952 88.2408 68.5243 88.2568 68.5487C88.2674 68.5815 88.2848 68.6095 88.3078 68.6307Z" fill="#263238"/>
<path d="M96.0676 68.5347C96.1134 68.5364 96.1584 68.5199 96.1949 68.488C96.2373 68.4504 96.2652 68.3952 96.2726 68.3342C96.2801 68.2733 96.2665 68.2114 96.2348 68.1617C96.0439 67.8653 95.7962 67.6232 95.5109 67.4542C95.2256 67.2852 94.9103 67.1937 94.5893 67.187C94.563 67.1882 94.5371 67.1955 94.5132 67.2083C94.4893 67.2211 94.4679 67.2392 94.4501 67.2615C94.4323 67.2839 94.4186 67.3101 94.4097 67.3386C94.4007 67.367 94.3968 67.3973 94.3981 67.4275C94.3984 67.4581 94.4042 67.4882 94.4151 67.5161C94.4259 67.544 94.4417 67.569 94.4613 67.5896C94.4809 67.6102 94.5041 67.6259 94.5292 67.6358C94.5544 67.6457 94.581 67.6496 94.6075 67.6472C94.8641 67.6559 95.1156 67.7321 95.3425 67.87C95.5695 68.0078 95.7658 68.2037 95.9166 68.4424C95.9339 68.47 95.9566 68.4927 95.9827 68.5087C96.0089 68.5247 96.038 68.5336 96.0676 68.5347V68.5347Z" fill="#263238"/>
<ellipse cx="84.3523" cy="69.98" rx="1.50003" ry="1.91225" transform="rotate(-31.1194 84.3523 69.98)" fill="#FFBE9D"/>
<path d="M93.3635 81.0771H86.264V83.8253H93.3635V81.0771Z" fill="#407BFF"/>
<path d="M69.3165 103.424C72.5362 93.205 74.2539 89.7555 77.2568 85.1992L83.7446 88.8245C83.7446 88.8245 79.2021 99.836 75.6106 104.501C72.0346 106.863 70.4314 107.189 69.3165 103.424Z" fill="#407BFF"/>
<path d="M106.619 105.186C105.663 94.5585 104.721 90.8332 102.755 85.752L95.5968 87.8539C95.5968 87.8539 97.6806 99.5401 100.201 104.856C103.205 107.931 104.71 108.598 106.619 105.186Z" fill="#407BFF"/>
<path d="M95.6536 106.727L100.463 85.4287C101.637 86.0054 102.267 86.7764 103.326 89.093C103.351 99.0467 101.006 102.232 95.6536 106.727Z" fill="black" fill-opacity="0.1"/>
<path d="M77.4278 85.2924C78.8808 81.8938 99.5121 82.0637 102.418 84.3578C105.324 86.6518 101.489 98.8529 97.7686 107.808C90.6572 109.121 86.6701 109.11 79.5588 107.808C79.898 98.6739 75.9749 88.6909 77.4278 85.2924Z" fill="#407BFF"/>
<path d="M69.3106 103.537L88.3552 97.2825L87.3434 96.9084C74.2818 96.1286 71.3147 98.8908 70.7727 98.9553C70.7727 98.9553 69.0213 104.19 69.3106 103.537Z" fill="black" fill-opacity="0.1"/>
<path d="M93.1589 96.1153C90.5519 96.9091 89.4233 97.7936 86.8164 98.5873L88.2053 100.648L93.6724 99.5315L99.7923 99.3903C99.7923 99.3903 96.5032 96.098 93.1589 96.1153Z" fill="#FFBE9D"/>
<path d="M89.0444 97.1084C78.247 97.8998 72.8342 98.5798 70.3861 102.448C69.227 104.296 69.5625 105.373 72.7429 107.399C78.7747 107.642 83.1415 104.886 90.6157 100.895L89.0444 97.1084Z" fill="#407BFF"/>
<path d="M90.3377 98.1039L102.452 98.1039L97.5023 104.098L86.1324 103.752L90.3377 98.1039Z" fill="#263238"/>
<path d="M91.0145 104.467C93.7345 104.634 95.1009 104.199 97.8209 104.366L98.4554 102.635L91.7267 101.087L85.943 99.081C85.943 99.081 87.8747 103.315 91.0145 104.467Z" fill="#FFBE9D"/>
<path d="M98.5039 101.233C102.354 101.663 106.367 101.339 107.076 103.893C107.785 106.447 105.669 108.266 103.409 108.438C99.8966 108.759 99.2882 108.199 96.7553 104.303L98.5039 101.233Z" fill="#407BFF"/>
<ellipse cx="96.1881" cy="99.3546" rx="0.389899" ry="0.292424" transform="rotate(-18.2772 96.1881 99.3546)" fill="#C4C4C4"/>
<path d="M99.3464 181.615H94.8851C94.8037 181.615 94.7244 181.644 94.6601 181.699C94.5957 181.753 94.5498 181.829 94.5297 181.915L93.612 185.859C93.589 185.953 93.5864 186.051 93.6043 186.146C93.6222 186.241 93.6601 186.33 93.7151 186.407C93.7701 186.483 93.8407 186.545 93.9213 186.586C94.0019 186.628 94.0903 186.649 94.1796 186.648C95.771 186.613 98.1157 186.515 100.142 186.515C102.503 186.515 102.763 186.654 105.537 186.654C107.213 186.654 107.728 184.811 107.033 184.644C103.85 183.89 103.033 183.809 100.323 181.961C100.034 181.747 99.6954 181.628 99.3464 181.615Z" fill="#263238"/>
<path d="M71.6675 179.731L67.6095 177.8C67.5355 177.764 67.4512 177.756 67.3701 177.775C67.289 177.795 67.2157 177.841 67.1618 177.907L64.6877 180.955C64.6279 181.027 64.5847 181.112 64.5614 181.203C64.5382 181.294 64.5356 181.388 64.5539 181.478C64.5721 181.569 64.6107 181.653 64.6666 181.725C64.7226 181.796 64.7943 181.853 64.8761 181.89C66.338 182.549 68.5114 183.478 70.3546 184.355C72.5018 185.377 72.6808 185.61 75.2043 186.811C76.7291 187.536 77.9629 186.149 77.4002 185.703C74.8187 183.666 74.1091 183.242 72.4117 180.455C72.2379 180.144 71.9797 179.892 71.6675 179.731Z" fill="#263238"/>
<path d="M101.502 182.699C101.939 182.699 102.349 182.644 102.497 182.455C102.532 182.406 102.551 182.348 102.551 182.288C102.551 182.229 102.532 182.171 102.497 182.122C102.472 182.076 102.436 182.037 102.393 182.006C102.35 181.974 102.301 181.952 102.249 181.941C101.694 181.793 100.503 182.438 100.45 182.467C100.436 182.475 100.424 182.486 100.416 182.501C100.408 182.515 100.405 182.531 100.407 182.547C100.41 182.562 100.417 182.576 100.428 182.587C100.439 182.599 100.453 182.607 100.468 182.61C100.81 182.667 101.156 182.697 101.502 182.699ZM102.052 182.071C102.104 182.065 102.157 182.065 102.209 182.071C102.241 182.078 102.27 182.091 102.296 182.11C102.322 182.129 102.343 182.153 102.358 182.181C102.414 182.273 102.393 182.324 102.358 182.349C102.192 182.56 101.345 182.564 100.721 182.48C101.135 182.267 101.586 182.133 102.052 182.084V182.071Z" fill="#264A99"/>
<path d="M100.481 182.496H100.513C100.947 182.336 101.823 181.682 101.768 181.342C101.768 181.263 101.694 181.161 101.464 181.142C101.297 181.129 101.131 181.173 101.002 181.263C100.541 181.58 100.411 182.391 100.407 182.438C100.405 182.45 100.407 182.463 100.412 182.475C100.418 182.486 100.427 182.497 100.439 182.504C100.453 182.504 100.468 182.502 100.481 182.496ZM101.404 181.275H101.454C101.607 181.275 101.611 181.342 101.616 181.357C101.648 181.561 101.053 182.074 100.605 182.297C100.658 181.951 100.834 181.628 101.108 181.369C101.191 181.309 101.295 181.276 101.404 181.275V181.275Z" fill="#264A99"/>
<path d="M73.4876 182.053C73.8837 182.236 74.279 182.358 74.4933 182.249C74.5453 182.219 74.5865 182.174 74.6115 182.12C74.6364 182.066 74.6438 182.006 74.6329 181.947C74.6285 181.895 74.6129 181.844 74.5871 181.798C74.5613 181.751 74.5258 181.71 74.4831 181.678C74.0419 181.312 72.69 181.396 72.6301 181.401C72.6135 181.402 72.5977 181.407 72.5846 181.417C72.5715 181.426 72.5619 181.44 72.5569 181.455C72.5532 181.47 72.5539 181.486 72.559 181.5C72.5642 181.515 72.5735 181.528 72.5859 181.538C72.8721 181.733 73.1737 181.905 73.4876 182.053ZM74.2501 181.714C74.3002 181.73 74.3481 181.752 74.3927 181.78C74.4184 181.799 74.4397 181.824 74.455 181.852C74.4703 181.88 74.4793 181.91 74.4814 181.942C74.494 182.05 74.453 182.086 74.4107 182.095C74.1718 182.216 73.4015 181.864 72.8704 181.526C73.335 181.507 73.8015 181.574 74.2448 181.726L74.2501 181.714Z" fill="#264A99"/>
<path d="M72.646 181.44L72.6754 181.453C73.1364 181.49 74.2066 181.264 74.2994 180.932C74.3322 180.861 74.308 180.737 74.1068 180.623C73.9609 180.541 73.792 180.511 73.637 180.539C73.0851 180.633 72.6276 181.315 72.6037 181.355C72.5965 181.366 72.5928 181.378 72.593 181.391C72.5933 181.404 72.5974 181.417 72.6051 181.429C72.618 181.435 72.6321 181.439 72.646 181.44ZM73.9964 180.718L74.0425 180.74C74.1807 180.804 74.157 180.866 74.1546 180.882C74.0984 181.08 73.3429 181.296 72.8429 181.311C73.036 181.019 73.331 180.799 73.689 180.68C73.7888 180.66 73.8977 180.674 73.9964 180.718V180.718Z" fill="#264A99"/>
</svg>
