<svg width="250" height="250" viewBox="0 0 250 250" fill="none" xmlns="http://www.w3.org/2000/svg">
<circle cx="81.6994" cy="88.3172" r="12.7953" transform="rotate(31.1888 81.6994 88.3172)" fill="#3362CC"/>
<path fill-rule="evenodd" clip-rule="evenodd" d="M75.514 98.5376C81.159 101.955 88.5053 100.149 91.9224 94.504C91.9515 94.4559 91.9802 94.4077 92.0086 94.3595C92.0387 94.3113 92.0686 94.2628 92.0981 94.214C93.6668 91.6226 94.0508 88.6454 93.4052 85.9133C92.7584 82.7675 90.8528 79.8899 87.8888 78.0956C82.2438 74.6784 74.8975 76.4843 71.4804 82.1292C68.0632 87.7742 69.8691 95.1205 75.514 98.5376ZM93.4052 85.9133C92.7442 83.1159 91.0038 80.5755 88.3505 78.9693C83.106 75.7945 76.2807 77.4723 73.1058 82.7169C69.931 87.9615 71.6089 94.7868 76.8534 97.9616C82.0492 101.107 88.7964 99.4894 92.0086 94.3595C93.5609 91.7133 93.9797 88.7075 93.4052 85.9133Z" fill="#294EA3"/>
<path d="M84.2753 78.4845L82.3647 78.2234L82.0748 80.3845C79.2572 80.3101 77.9742 81.5588 77.6434 84.025L77.6264 84.1521C77.2648 86.8471 77.9352 87.8448 80.5263 89.0274L82.0409 89.7263C83.8255 90.5398 84.1242 91.0207 83.9775 92.114L83.9093 92.6224C83.7183 94.0462 82.8008 94.6975 80.3553 94.3634C79.2599 94.2137 78.2869 93.9254 77.0761 93.4751L76.7762 95.3241C77.8189 95.6737 78.8615 96.0233 79.9535 96.1984L79.6738 98.2832L81.5844 98.5443L81.8811 96.3324C84.658 96.3235 85.7984 94.9777 86.1019 92.715L86.119 92.5878C86.4532 90.0962 85.7422 89.0152 82.954 87.754L81.414 87.0516C79.7754 86.3099 79.6041 85.8463 79.7678 84.626L79.836 84.1175C80.027 82.6937 80.8936 82.0354 83.1353 82.3417C84.3071 82.5019 85.506 82.8469 86.4247 83.1537L86.7246 81.3047C85.8246 81.0523 84.9025 80.7709 83.9922 80.5947L84.2753 78.4845Z" fill="#FAFAFA"/>
<path d="M121.5 213.683C178.109 213.683 224 211.003 224 207.698C224 204.393 178.109 201.714 121.5 201.714C64.8908 201.714 19 204.393 19 207.698C19 211.003 64.8908 213.683 121.5 213.683Z" fill="#F5F5F5"/>
<path d="M189.803 111.295H53.2048C48.8108 111.295 45.2487 114.751 45.2487 119.013V196.582C45.2487 200.844 48.8108 204.3 53.2048 204.3H189.803C194.197 204.3 197.759 200.844 197.759 196.582V119.013C197.759 114.751 194.197 111.295 189.803 111.295Z" fill="#3362CC"/>
<path opacity="0.2" d="M189.803 111.295H53.2048C48.8108 111.295 45.2487 114.751 45.2487 119.013V196.582C45.2487 200.844 48.8108 204.3 53.2048 204.3H189.803C194.197 204.3 197.759 200.844 197.759 196.582V119.013C197.759 114.751 194.197 111.295 189.803 111.295Z" fill="black"/>
<path opacity="0.2" d="M182.719 198.559C188.196 198.559 192.636 194.252 192.636 188.939C192.636 183.626 188.196 179.318 182.719 179.318C177.242 179.318 172.802 183.626 172.802 188.939C172.802 194.252 177.242 198.559 182.719 198.559Z" fill="black"/>
<path d="M169.941 198.559C175.523 198.559 180.049 194.252 180.049 188.939C180.049 183.626 175.523 179.318 169.941 179.318C164.359 179.318 159.833 183.626 159.833 188.939C159.833 194.252 164.359 198.559 169.941 198.559Z" fill="#3362CC"/>
<path d="M79.9031 137.137H60.1148C58.5223 137.137 57.2313 138.567 57.2313 140.331V154.663C57.2313 156.428 58.5223 157.858 60.1148 157.858H79.9031C81.4956 157.858 82.7866 156.428 82.7866 154.663V140.331C82.7866 138.567 81.4956 137.137 79.9031 137.137Z" fill="#3362CC"/>
<path d="M187.57 117.525H158.035C155.658 117.525 153.731 118.087 153.731 118.78V124.411C153.731 125.104 155.658 125.666 158.035 125.666H187.57C189.947 125.666 191.874 125.104 191.874 124.411V118.78C191.874 118.087 189.947 117.525 187.57 117.525Z" fill="#3362CC"/>
<path d="M116.239 117.525H63.0657C61.3181 117.525 59.9014 119.596 59.9014 122.151C59.9014 124.705 61.3181 126.776 63.0657 126.776H116.239C117.986 126.776 119.403 124.705 119.403 122.151C119.403 119.596 117.986 117.525 116.239 117.525Z" fill="#264A99"/>
<path d="M133.431 184.869H61.5113C59.1475 184.869 57.2313 186.112 57.2313 187.644C57.2313 189.177 59.1475 190.419 61.5113 190.419H133.431C135.795 190.419 137.711 189.177 137.711 187.644C137.711 186.112 135.795 184.869 133.431 184.869Z" fill="#3362CC"/>
<path opacity="0.3" d="M79.2936 162.983H60.9547C58.9897 162.983 57.3969 164.416 57.3969 166.183V169.173C57.3969 170.94 58.9897 172.372 60.9547 172.372H79.2936C81.2585 172.372 82.8514 170.94 82.8514 169.173V166.183C82.8514 164.416 81.2585 162.983 79.2936 162.983Z" fill="white"/>
<path opacity="0.3" d="M111.763 162.983H93.4245C91.4596 162.983 89.8667 164.416 89.8667 166.183V169.173C89.8667 170.94 91.4596 172.372 93.4245 172.372H111.763C113.728 172.372 115.321 170.94 115.321 169.173V166.183C115.321 164.416 113.728 162.983 111.763 162.983Z" fill="white"/>
<path opacity="0.3" d="M146.079 163.038H126.293C124.173 163.038 122.455 164.449 122.455 166.19V169.136C122.455 170.877 124.173 172.289 126.293 172.289H146.079C148.199 172.289 149.917 170.877 149.917 169.136V166.19C149.917 164.449 148.199 163.038 146.079 163.038Z" fill="white"/>
<path opacity="0.3" d="M181.497 163.038H161.437C159.287 163.038 157.545 164.449 157.545 166.19V169.136C157.545 170.877 159.287 172.289 161.437 172.289H181.497C183.646 172.289 185.389 170.877 185.389 169.136V166.19C185.389 164.449 183.646 163.038 181.497 163.038Z" fill="white"/>
<path d="M117.685 110.852C133.194 98.4186 133.143 90.61 135.612 72.9004L140.952 79.3846C139.949 94.9646 136.775 102.175 123.788 110.852L115.778 114.285C111.855 114.937 109.723 115.142 106.433 114.285L108.15 110.852C109.559 109.647 110.475 109.102 112.536 108.563C114.57 108.703 115.694 109.324 117.685 110.852Z" fill="#E4897B"/>
<path d="M172.002 199.927L168.59 202.774L162.085 196.468L165.503 193.62L172.002 199.927Z" fill="#E4897B"/>
<path d="M160.178 205.825H156.126L155.601 196.671H159.653L160.178 205.825Z" fill="#E4897B"/>
<path d="M162.085 196.468L165.482 199.723L168.95 196.869L165.553 193.62L162.085 196.468Z" fill="#CE6F64"/>
<path d="M159.889 196.671H155.601L155.891 201.248H160.178L159.889 196.671Z" fill="#CE6F64"/>
<path d="M141.013 110.104C141.013 110.104 136.558 137.402 135.041 152.257C133.82 164.179 162.939 199.723 162.939 199.723L168.569 195.032C168.569 195.032 147.304 163.164 148.941 149.894C150.527 137.043 155.9 110.089 155.9 110.089L141.013 110.104Z" fill="#407BFF"/>
<path opacity="0.7" d="M141.013 110.104C141.013 110.104 136.558 137.402 135.041 152.257C133.82 164.179 162.939 199.723 162.939 199.723L168.569 195.032C168.569 195.032 147.304 163.164 148.941 149.894C150.527 137.043 155.9 110.089 155.9 110.089L141.013 110.104Z" fill="black"/>
<path opacity="0.2" d="M148.866 149.834C149.696 143.206 151.552 132.822 153.148 124.318C152.312 122.893 149.968 120.006 149.968 120.006C147.868 126.33 143.302 150.173 149.817 182.372C156.606 191.907 163.104 199.723 163.104 199.723L163.992 187.428C157.72 177.145 147.711 159.02 148.866 149.834Z" fill="black"/>
<path d="M149.231 110.089C149.231 110.089 148.837 138.716 149.512 149.444C150.248 161.188 153.96 200.104 153.96 200.104H161.597C161.597 200.104 161.367 162.138 161.817 150.516C162.317 137.882 163.61 110.089 163.61 110.089H149.231Z" fill="#407BFF"/>
<path opacity="0.7" d="M149.231 110.089C149.231 110.089 148.837 138.716 149.512 149.444C150.248 161.188 153.96 200.104 153.96 200.104H161.597C161.597 200.104 161.367 162.138 161.817 150.516C162.317 137.882 163.61 110.089 163.61 110.089H149.231Z" fill="black"/>
<path d="M155.891 205.063H160.76C160.842 205.06 160.921 205.087 160.981 205.137C161.041 205.188 161.077 205.259 161.082 205.334L161.322 208.912C161.322 209.005 161.303 209.098 161.266 209.185C161.228 209.271 161.172 209.35 161.101 209.417C161.031 209.483 160.947 209.536 160.854 209.572C160.762 209.609 160.662 209.628 160.562 209.629C158.866 209.602 158.054 209.509 155.914 209.509C154.599 209.509 148.999 209.64 147.181 209.64C145.363 209.64 145.427 207.967 146.181 207.815C149.636 207.137 153.921 206.187 155.148 205.307C155.36 205.152 155.621 205.066 155.891 205.063V205.063Z" fill="#263238"/>
<path d="M167.635 201.565L171.702 199.035C171.768 198.986 171.851 198.96 171.935 198.96C172.02 198.96 172.102 198.986 172.169 199.035L175.279 201.933C175.339 201.997 175.384 202.072 175.41 202.154C175.436 202.235 175.442 202.321 175.427 202.405C175.413 202.489 175.379 202.568 175.328 202.639C175.277 202.709 175.209 202.768 175.131 202.812C172.533 204.658 170.659 206.052 169.179 207.588C167.47 209.382 166.547 209.64 162.56 209.64C160.715 209.64 159.672 208.204 160.424 207.983C167.065 206.042 165.288 205.195 166.906 202.349C167.075 202.036 167.325 201.766 167.635 201.565Z" fill="#263238"/>
<path d="M156.295 57.834L151.823 61.4672C151.984 62.1534 152.084 62.8521 152.121 63.5553C153.765 63.3256 156.076 61.5577 156.31 59.8733C156.435 59.1987 156.43 58.5069 156.295 57.834V57.834Z" fill="#CE6F64"/>
<path d="M150.081 42.7262C147.425 43.6102 145.302 50.4969 148.399 52.3196C151.496 54.1423 155.125 41.0474 150.081 42.7262Z" fill="#263238"/>
<path d="M160.571 51.1002C158.965 55.7446 158.282 59.8781 155.041 61.7823C153.996 62.4096 152.786 62.7581 151.544 62.7901C150.301 62.8221 149.073 62.5363 147.992 61.9638C146.911 61.3913 146.018 60.5537 145.411 59.5418C144.803 58.5298 144.503 57.3819 144.543 56.2223C144.607 51.7571 147.223 43.5564 152.731 42.6939C153.918 42.48 155.145 42.561 156.288 42.9288C157.431 43.2965 158.451 43.9382 159.245 44.7894C160.039 45.6407 160.579 46.6718 160.812 47.7793C161.044 48.8869 160.961 50.0321 160.571 51.1002Z" fill="#E4897B"/>
<path d="M164.663 43.5821C163.124 47.3402 166.706 44.2016 165.78 48.6618C165.264 53.279 160.051 59.7385 157.99 57.8918C155.988 57.2586 156.008 52.3235 158.562 48.8338C160.033 46.8309 156.853 44.5595 149.709 44.8004C143.809 46.8654 139.213 42.3714 147.742 38C147.742 38 144.241 40.0649 146.318 40.7532C145.266 40.2647 164.559 34.7767 164.663 43.5821Z" fill="#263238"/>
<path d="M163.268 45.092C163.187 45.092 164.98 44.6921 165.935 41.8145C165.935 41.8603 165.622 46.1014 163.268 45.092Z" fill="#263238"/>
<path d="M149.954 38.7627C145.585 40.0315 147.394 41.4588 149.202 41.8141L153.348 40.2916C147.048 41.0718 149.954 38.7627 149.954 38.7627Z" fill="#263238"/>
<path d="M161.738 57.2222C160.837 58.0879 159.635 58.5799 158.38 58.5972C156.721 58.5972 156.365 57.0429 157.258 55.741C158.051 54.572 159.864 53.1639 161.328 53.7949C162.792 54.4259 162.839 56.1528 161.738 57.2222Z" fill="#E4897B"/>
<path d="M153.177 51.8448C152.99 52.4673 152.456 52.9181 151.933 52.8108C151.411 52.7034 151.224 52.1346 151.411 51.5121C151.598 50.8896 152.132 50.4389 152.655 50.5569C153.177 50.675 153.364 51.2223 153.177 51.8448Z" fill="#263238"/>
<path d="M147.613 50.013C147.661 50.5487 147.305 51.14 146.755 51.3298C146.205 51.5197 145.817 51.2194 145.769 50.6837C145.722 50.148 146.066 49.563 146.628 49.3668C147.19 49.1707 147.53 49.4962 147.613 50.013Z" fill="#263238"/>
<path d="M149.915 52.1123C149.156 53.2388 148.259 54.2564 147.245 55.1389C147.468 55.3971 147.743 55.6013 148.049 55.7371C148.356 55.8729 148.688 55.9371 149.021 55.9251L149.915 52.1123Z" fill="#C96557"/>
<path d="M151.905 57.6365C151.699 57.724 151.477 57.7734 151.243 57.7835C151.217 57.7833 151.188 57.7682 151.163 57.7415C151.137 57.7147 151.117 57.6783 151.105 57.6395C151.096 57.6008 151.097 57.5636 151.108 57.5355C151.119 57.5075 151.139 57.4907 151.165 57.4887C151.589 57.4662 151.968 57.2999 152.273 57.0023C152.579 56.7048 152.803 56.2836 152.929 55.7704C152.935 55.7368 152.951 55.7125 152.974 55.7026C152.997 55.6927 153.026 55.698 153.054 55.7173C153.082 55.7378 153.106 55.7706 153.122 55.8087C153.139 55.8468 153.145 55.8873 153.141 55.9216C152.957 56.7721 152.518 57.3811 151.905 57.6365V57.6365Z" fill="#263238"/>
<path d="M154.64 50.2059C154.595 50.2068 154.55 50.1921 154.513 50.1638C154.475 50.1355 154.445 50.0948 154.428 50.0472C154.319 49.7439 154.148 49.475 153.929 49.2631C153.709 49.0513 153.449 48.9028 153.168 48.8301C153.138 48.8255 153.108 48.8139 153.082 48.7961C153.055 48.7784 153.032 48.7547 153.013 48.7265C152.995 48.6984 152.981 48.6663 152.974 48.6322C152.966 48.598 152.965 48.5625 152.969 48.5277C152.979 48.4581 153.012 48.3956 153.062 48.3533C153.111 48.311 153.173 48.2922 153.235 48.3009C153.592 48.3839 153.926 48.565 154.208 48.8285C154.49 49.0919 154.711 49.4298 154.852 49.8128C154.865 49.8444 154.873 49.8788 154.874 49.9137C154.875 49.9486 154.869 49.9834 154.858 50.016C154.847 50.0485 154.83 50.0781 154.809 50.103C154.787 50.1278 154.761 50.1474 154.733 50.1605C154.705 50.1832 154.674 50.1987 154.64 50.2059Z" fill="#263238"/>
<path d="M147.103 48.2981C147.048 48.2977 146.995 48.2756 146.953 48.2356C146.903 48.1884 146.872 48.1211 146.866 48.048C146.859 47.975 146.878 47.902 146.918 47.8446C147.16 47.5017 147.467 47.2268 147.816 47.0411C148.166 46.8553 148.548 46.7636 148.933 46.7731C148.964 46.7761 148.995 46.7861 149.023 46.8027C149.051 46.8193 149.076 46.842 149.097 46.8696C149.117 46.8972 149.133 46.9292 149.142 46.9636C149.152 46.9981 149.155 47.0343 149.152 47.0703C149.151 47.1067 149.142 47.1423 149.128 47.1749C149.114 47.2075 149.094 47.2365 149.07 47.2599C149.045 47.2834 149.017 47.3009 148.986 47.3113C148.956 47.3218 148.924 47.3249 148.892 47.3206C148.584 47.3169 148.279 47.3939 148.001 47.5458C147.723 47.6976 147.479 47.9202 147.288 48.1965C147.266 48.2284 147.238 48.2542 147.206 48.2718C147.174 48.2895 147.139 48.2984 147.103 48.2981V48.2981Z" fill="#263238"/>
<path d="M154.32 205.821C154.016 205.842 153.712 205.785 153.468 205.664C153.399 205.613 153.351 205.552 153.328 205.485C153.304 205.419 153.307 205.349 153.334 205.284C153.348 205.24 153.378 205.198 153.421 205.164C153.465 205.129 153.521 205.102 153.584 205.086C154.137 204.94 155.408 205.522 155.554 205.587C155.572 205.594 155.586 205.605 155.594 205.619C155.601 205.632 155.602 205.646 155.597 205.66C155.593 205.673 155.584 205.686 155.57 205.696C155.556 205.706 155.538 205.713 155.518 205.716C155.125 205.779 154.723 205.814 154.32 205.821V205.821ZM153.791 205.203C153.748 205.198 153.705 205.198 153.663 205.203C153.632 205.21 153.605 205.223 153.584 205.241C153.564 205.258 153.551 205.278 153.547 205.3C153.525 205.342 153.52 205.388 153.533 205.432C153.546 205.476 153.576 205.517 153.62 205.551C153.827 205.688 154.417 205.704 155.226 205.599C154.796 205.401 154.306 205.267 153.791 205.207V205.203Z" fill="white"/>
<path d="M155.487 205.825H155.435C155.006 205.574 154.368 204.682 154.467 204.225C154.484 204.141 154.529 204.066 154.595 204.011C154.662 203.956 154.745 203.924 154.832 203.922C154.908 203.912 154.986 203.92 155.059 203.943C155.132 203.967 155.199 204.007 155.255 204.059C155.69 204.476 155.591 205.694 155.591 205.745C155.589 205.762 155.583 205.778 155.572 205.792C155.562 205.806 155.549 205.818 155.533 205.825H155.487ZM154.907 204.111H154.861C154.716 204.111 154.681 204.196 154.669 204.254C154.606 204.556 155.029 205.225 155.4 205.534C155.453 205.07 155.356 204.602 155.122 204.196C155.092 204.169 155.058 204.147 155.02 204.132C154.982 204.117 154.942 204.11 154.901 204.111H154.907Z" fill="white"/>
<path d="M164.675 203.537C164.559 203.539 164.444 203.525 164.337 203.495C164.255 203.472 164.181 203.437 164.124 203.391C164.066 203.346 164.025 203.291 164.005 203.233C163.989 203.197 163.987 203.16 163.999 203.123C164.012 203.087 164.037 203.054 164.074 203.026C164.494 202.684 166.69 202.785 166.94 202.798C166.964 202.799 166.986 202.804 167.004 202.814C167.022 202.824 167.035 202.838 167.041 202.853C167.045 202.868 167.043 202.884 167.034 202.898C167.025 202.913 167.01 202.925 166.99 202.933C166.292 203.244 165.502 203.45 164.675 203.537V203.537ZM166.002 202.921C165.232 202.921 164.425 202.971 164.243 203.119C164.233 203.13 164.227 203.144 164.227 203.157C164.227 203.17 164.233 203.184 164.243 203.195C164.254 203.232 164.277 203.266 164.312 203.294C164.347 203.323 164.392 203.346 164.443 203.36C164.794 203.457 165.582 203.296 166.577 202.937L166.002 202.921Z" fill="white"/>
<path d="M166.924 202.774C166.29 202.774 164.863 202.412 164.755 202.035C164.755 201.941 164.755 201.809 165.059 201.701C166.15 201.319 166.994 202.6 167.032 202.642C167.039 202.656 167.043 202.67 167.043 202.685C167.043 202.699 167.039 202.714 167.032 202.727C167.021 202.741 167.006 202.753 166.987 202.762C166.968 202.77 166.946 202.774 166.924 202.774V202.774ZM165.459 201.8C165.351 201.799 165.245 201.816 165.148 201.851C165.015 201.898 164.952 201.95 164.964 201.997C165.028 202.219 166.055 202.529 166.727 202.595C166.524 202.341 166.036 201.8 165.459 201.8V201.8Z" fill="white"/>
<path d="M168.951 194.674L162.606 200.105L160.56 198.109L167.822 192.095L168.951 194.674Z" fill="#407BFF"/>
<path opacity="0.6" d="M168.951 194.674L162.606 200.105L160.56 198.109L167.822 192.095L168.951 194.674Z" fill="white"/>
<path d="M162.064 200.105H153.77L153.312 197.435L162.466 197.854L162.064 200.105Z" fill="#407BFF"/>
<path opacity="0.6" d="M162.064 200.105H153.77L153.312 197.435L162.466 197.854L162.064 200.105Z" fill="white"/>
<path d="M146.305 73.2389C147.852 77.7498 138.762 91.0178 138.762 91.0178L130.082 86.2011C131.561 82.0612 133.309 78.0218 135.315 74.1084C138.354 68.3746 144.609 68.2863 146.305 73.2389Z" fill="#407BFF"/>
<path opacity="0.7" d="M146.305 73.2389C147.852 77.7498 138.762 91.0178 138.762 91.0178L130.082 86.2011C131.561 82.0612 133.309 78.0218 135.315 74.1084C138.354 68.3746 144.609 68.2863 146.305 73.2389Z" fill="#407BFF"/>
<path opacity="0.31" d="M146.439 73.8301C144.513 72.9004 142.297 73.6808 139.961 77.3993C137.624 81.1178 135.637 87.3267 135.422 89.0977L138.863 91.018C138.863 91.018 147.153 78.7768 146.439 73.8301Z" fill="#3362CC"/>
<path d="M140.477 69.7046C140.477 69.7046 133.945 85.0144 138.652 113.521H165.857C166.194 109.357 164.272 89.0555 168.986 69.4448C165.991 68.8638 162.961 68.48 159.915 68.296C156.065 68.0771 152.205 68.0771 148.354 68.296C145.696 68.565 143.063 69.0359 140.477 69.7046V69.7046Z" fill="#407BFF"/>
<path opacity="0.7" d="M140.477 69.7046C140.477 69.7046 133.945 85.0144 138.652 113.521H165.857C166.194 109.357 164.272 89.0555 168.986 69.4448C165.991 68.8638 162.961 68.48 159.915 68.296C156.065 68.0771 152.205 68.0771 148.354 68.296C145.696 68.565 143.063 69.0359 140.477 69.7046Z" fill="#407BFF"/>
<path opacity="0.31" d="M162.685 74.1755C162.094 77.4066 162.88 85.1285 165.8 94.0689C166.029 86.4091 166.967 78.7833 168.605 71.2798V71.2387C166.73 71.0608 163.255 71.1429 162.685 74.1755Z" fill="#3362CC"/>
<path d="M151.667 71.5654L149.534 73.6632L150.579 75.6887L152.279 75.7611L153.729 73.8276L151.667 71.5654Z" fill="#3362CC"/>
<path d="M170.168 73.0908C170.704 73.9144 171.151 74.6427 171.605 75.4322C172.059 76.2218 172.493 76.9841 172.919 77.7737C173.758 79.346 174.549 80.9523 175.272 82.5927C176.787 85.9508 177.924 89.4636 178.663 93.0678L178.732 93.4149L178.766 93.5851L178.814 93.871C178.873 94.2517 178.902 94.6362 178.903 95.0213C178.897 95.6661 178.828 96.3088 178.697 96.9407C178.464 97.9828 178.128 98.9997 177.693 99.9764C176.921 101.688 176 103.33 174.941 104.884C172.94 107.839 170.665 110.603 168.145 113.14L165.153 110.765C166.818 107.892 168.475 104.911 169.865 101.991C170.548 100.595 171.132 99.1527 171.612 97.6758C171.808 97.0598 171.942 96.4259 172.011 95.7836C172.035 95.5733 172.035 95.3609 172.011 95.1506C172.011 95.0893 172.011 95.0349 171.97 95.0281C171.928 95.0213 171.97 95.0281 171.97 94.994L171.928 94.8579L171.846 94.5788C171.411 93.0775 170.895 91.6006 170.298 90.1546C169.693 88.6776 169.019 87.2074 168.31 85.7441C167.602 84.2807 166.838 82.8377 166.054 81.3947C165.669 80.6732 165.263 79.9585 164.857 79.2507L163.647 77.2087L170.168 73.0908Z" fill="#E4897B"/>
<path d="M168.96 69.3708C173.684 70.0597 178.522 86.812 178.522 86.812L168.4 92.5431C168.4 92.5431 164.29 84.5802 162.326 78.67C160.268 72.4775 163.905 68.6131 168.96 69.3708Z" fill="#407BFF"/>
<path opacity="0.7" d="M168.96 69.3708C173.684 70.0597 178.522 86.812 178.522 86.812L168.4 92.5431C168.4 92.5431 164.29 84.5802 162.326 78.67C160.268 72.4775 163.905 68.6131 168.96 69.3708Z" fill="#407BFF"/>
<path d="M150.858 75.3789C150.858 75.3789 147.029 91.5426 146.881 94.9029C146.672 99.525 148.57 107.418 148.57 107.418C148.57 107.418 151.262 100.855 151.814 94.7589C152.366 88.6624 151.955 78.8009 152.205 75.3789H150.858Z" fill="#3362CC"/>
<path d="M151.823 71.557C152.577 72.8262 153.014 74.2714 153.094 75.761C153.094 75.761 161.354 72.7335 160.964 68.2956C160.964 68.2956 159.792 67.5731 159.051 66.9883C159.051 66.9883 158.773 69.7818 151.823 71.557Z" fill="#3362CC"/>
<path d="M159.148 55.5449C158.294 59.2413 157.33 66.0201 159.832 68.5025C159.832 68.5025 158.752 71.5646 151.862 71.5646C144.288 71.5646 148.314 68.5025 148.314 68.5025C152.484 67.5205 152.484 64.4584 151.862 61.5873L159.148 55.5449Z" fill="#E4897B"/>
<path d="M151.822 71.48C151.04 72.6705 150.476 73.991 150.158 75.3794C150.158 75.3794 146.303 72.7752 147.463 68.4327C148.169 68.1483 148.897 67.9203 149.639 67.751C149.639 67.751 149.134 70.5597 151.822 71.48Z" fill="#3362CC"/>
<path d="M166.666 109.808L161.74 108.944L164.283 114.666C164.283 114.666 168.8 114.666 168.599 112.31L166.666 109.808Z" fill="#E4897B"/>
<path d="M158.307 111.873C157.888 114.738 158.385 115.778 160.584 116.573C161.815 115.197 162.643 114.782 164.409 114.768L161.922 108.944L158.307 111.873Z" fill="#E4897B"/>
<circle cx="43.3523" cy="106.104" r="20.7752" fill="#3362CC"/>
<path fill-rule="evenodd" clip-rule="evenodd" d="M43.3514 125.504C54.0653 125.504 62.7507 116.818 62.7507 106.104C62.7507 106.01 62.75 105.915 62.7486 105.821C62.7499 105.732 62.7506 105.643 62.7506 105.554C62.7506 100.641 60.7847 96.1869 57.5965 92.9358C54.0527 89.1041 48.9822 86.7051 43.3514 86.7051C32.6374 86.7051 23.952 95.3905 23.952 106.104C23.952 116.818 32.6374 125.504 43.3514 125.504ZM57.5965 92.9358C54.3255 89.6001 49.768 87.5307 44.7271 87.5307C34.773 87.5307 26.7036 95.6001 26.7036 105.554C26.7036 115.508 34.773 123.578 44.7271 123.578C54.5923 123.578 62.6062 115.652 62.7486 105.821C62.6773 100.849 60.736 96.3303 57.5965 92.9358Z" fill="#294EA3"/>
<path d="M38.6603 90.2822L35.787 91.526L37.2014 94.7715C33.2252 97.0374 32.4931 99.8505 34.1072 103.554L34.1904 103.745C35.9543 107.792 37.7243 108.614 42.3177 108.078L45.0091 107.776C48.1719 107.405 48.9911 107.822 49.7067 109.464L50.0395 110.227C50.9713 112.365 50.2446 114.042 46.5668 115.634C44.9194 116.347 43.3255 116.765 41.2652 117.157L42.4033 119.978C44.1455 119.586 45.8877 119.195 47.5517 118.52L48.9162 121.651L51.7895 120.408L50.3418 117.086C54.1914 114.738 54.6437 111.91 53.1627 108.512L53.0795 108.321C51.4488 104.579 49.5522 103.676 44.619 104.268L41.8893 104.588C38.9897 104.935 38.362 104.435 37.5633 102.603L37.2305 101.839C36.2986 99.7008 36.9487 98.0578 40.3201 96.5984C42.0823 95.8355 44.0377 95.3067 45.5717 94.9604L44.4336 92.14C42.9712 92.5461 41.4539 92.9306 40.0414 93.4513L38.6603 90.2822Z" fill="#FAFAFA"/>
</svg>
