<svg width="377" height="225" viewBox="0 0 377 225" fill="none" xmlns="http://www.w3.org/2000/svg">
<path d="M349.538 73.5082L354.826 82.0943L336.347 96.6054L331.073 88.0173L349.538 73.5082Z" fill="#FF8B7B"/>
<path d="M320.949 12.953L327.919 20.2214L316.533 42.061L309.55 34.7957L320.949 12.953Z" fill="#FF8B7B"/>
<path d="M328.364 21.7227L316.6 18.1771C316.408 18.1203 316.241 17.9995 316.126 17.8347C316.011 17.6699 315.956 17.4709 315.97 17.2707L316.654 8.1194C316.673 7.89717 316.741 7.68199 316.854 7.48988C316.968 7.29778 317.123 7.13369 317.308 7.00983C317.494 6.88597 317.705 6.80554 317.925 6.77452C318.146 6.7435 318.371 6.76268 318.584 6.83064C322.351 8.04031 325.051 9.09469 329.808 10.5335C332.768 11.4152 338.879 12.9405 342.935 14.1495C346.991 15.3585 346.306 19.5357 344.528 19.4001C336.604 18.7919 333.134 20.1901 330.108 21.6053C329.562 21.8593 328.94 21.9012 328.364 21.7227Z" fill="#263238"/>
<path d="M353.882 83.3102L345.214 76.5494C345.056 76.4269 344.945 76.2535 344.9 76.0586C344.854 75.8636 344.878 75.659 344.966 75.4793L348.907 67.1978C349.001 66.9949 349.139 66.8161 349.313 66.6749C349.486 66.5336 349.689 66.4338 349.907 66.3829C350.124 66.332 350.351 66.3314 350.568 66.3811C350.786 66.4309 350.99 66.5297 351.164 66.67C354.259 69.1754 358.624 72.8889 362.553 75.9675C367.17 79.5606 368.776 80.7568 374.166 84.973C377.43 87.5197 375.75 91.4866 374.161 90.7474C366.855 87.2494 364.233 85.0893 356.279 84.2071C355.412 84.1392 354.581 83.8283 353.882 83.3102Z" fill="#263238"/>
<path d="M40.4291 198.796C88.3143 186.181 73.3971 184.799 76.6632 149.869L92.71 153.974C86.7902 189.312 95.7888 197.027 42.3583 204.534L40.4291 198.796Z" fill="#FF8B7B"/>
<path d="M31.1076 198.946L37.7434 197.783L44.0682 199.174C44.0682 199.174 44.5285 200.044 43.7257 202.725C42.9229 205.406 36.9605 208.211 36.9605 208.211C33.2643 208.995 31.561 208.391 29.0433 205.84C29.0298 202.902 29.3282 201.347 31.1076 198.946Z" fill="#FF8B7B"/>
<path d="M101.369 136.113C101.135 138.079 100.762 140.11 100.326 142.127C99.001 147.899 97.2597 153.6 95.1114 159.198C88.3996 155.88 83.253 155.08 72.1794 155.093C72.1794 155.093 71.451 140.019 76.1208 128.393C80.7906 116.766 94.8934 115.964 100.279 125.159C101.774 127.655 101.914 131.742 101.369 136.113Z" fill="#3867D6"/>
<path opacity="0.2" d="M101.135 135.56C100.935 137.591 100.614 139.689 100.24 141.773L93.4533 140.437C94.0144 136.977 97.7953 132.568 101.135 135.56Z" fill="black"/>
<path opacity="0.2" d="M336.361 96.6033L345.875 89.1156L340.587 80.5294L331.073 88.0172L336.361 96.6033Z" fill="black"/>
<path opacity="0.2" d="M309.549 34.7829L316.532 42.0482L322.713 30.2141L314.559 25.1678L309.549 34.7829Z" fill="black"/>
<path d="M332.069 21.0105C332.736 21.16 333.333 21.5294 333.764 22.0592C333.892 22.2569 333.97 22.4829 333.99 22.7175C334.011 22.9521 333.973 23.1881 333.882 23.405C333.841 23.538 333.765 23.6574 333.661 23.7502C333.558 23.843 333.431 23.9056 333.294 23.9312C332.057 24.16 329.516 21.3086 329.234 20.9918C329.199 20.9595 329.174 20.9176 329.163 20.8714C329.152 20.8252 329.155 20.7766 329.171 20.732C329.191 20.6918 329.222 20.658 329.26 20.6343C329.298 20.6106 329.342 20.598 329.386 20.5978C330.293 20.6328 331.193 20.7712 332.069 21.0105ZM332.887 23.4383C332.991 23.4718 333.101 23.4827 333.21 23.4704C333.275 23.4547 333.366 23.4328 333.43 23.239C333.498 23.093 333.529 22.9322 333.519 22.7714C333.509 22.6105 333.459 22.4546 333.373 22.3182C332.98 21.712 331.762 21.3318 329.991 21.1119C330.796 22.0684 331.779 22.8586 332.887 23.4383Z" fill="#264A99"/>
<path d="M329.481 20.6017C329.481 20.6017 329.546 20.5861 329.591 20.6578C330.426 21.5012 331.708 24.2021 331.183 25.2214C331.094 25.3763 330.956 25.4969 330.79 25.5641C330.625 25.6313 330.441 25.6413 330.27 25.5924C330.09 25.5603 329.92 25.4918 329.768 25.3913C329.616 25.2907 329.486 25.1602 329.387 25.0078C328.549 23.7528 329.164 20.9391 329.181 20.7838C329.191 20.7425 329.211 20.7045 329.239 20.6734C329.268 20.6424 329.304 20.6195 329.345 20.607C329.366 20.5962 329.389 20.5901 329.412 20.5892C329.436 20.5883 329.459 20.5925 329.481 20.6017ZM330.248 25.1029L330.352 25.0779C330.653 25.1292 330.716 24.9904 330.755 24.981C331.077 24.3812 330.33 22.4174 329.555 21.3671C329.299 22.4873 329.38 23.6583 329.788 24.7327C329.898 24.9019 330.059 25.0316 330.248 25.1029Z" fill="#264A99"/>
<path d="M358.274 84.5047C359.002 84.9765 359.547 85.6838 359.817 86.5086C359.858 86.721 359.848 86.9405 359.786 87.148C359.724 87.3555 359.613 87.5448 359.462 87.6998C359.375 87.7978 359.265 87.8728 359.143 87.9179C359.02 87.9631 358.888 87.9769 358.758 87.9582C357.372 87.7417 355.445 83.6209 355.215 83.1023C355.197 83.0579 355.192 83.0088 355.201 82.9615C355.211 82.9142 355.234 82.8709 355.269 82.8371C355.303 82.7999 355.349 82.7754 355.4 82.7675C355.45 82.7597 355.501 82.769 355.546 82.7939C356.505 83.2806 357.418 83.8532 358.274 84.5047ZM358.429 87.32C358.548 87.4189 358.689 87.4895 358.84 87.5264C358.886 87.5441 358.935 87.5495 358.984 87.5419C359.033 87.5343 359.078 87.514 359.117 87.4831C359.219 87.3826 359.296 87.2589 359.341 87.1226C359.385 86.9862 359.396 86.8411 359.373 86.6994C359.245 85.881 357.965 84.7827 355.986 83.7122C356.593 85.0429 357.419 86.2624 358.429 87.32Z" fill="#264A99"/>
<path d="M355.569 82.8705L355.581 82.9497C356.199 84.1378 356.752 87.3372 355.901 88.1191C355.712 88.2972 355.357 88.4473 354.789 88.1031C354.589 87.9729 354.416 87.8045 354.281 87.6075C354.146 87.4105 354.051 87.1888 354.002 86.955C353.643 85.3479 355.095 83.0391 355.159 82.9343C355.191 82.9105 355.228 82.8948 355.267 82.8887C355.306 82.8826 355.346 82.8862 355.384 82.8993C355.409 82.8787 355.44 82.8652 355.472 82.8602C355.505 82.8551 355.538 82.8587 355.569 82.8705ZM354.955 87.6041L355.077 87.6932C355.437 87.921 355.568 87.8059 355.603 87.7733C356.111 87.302 355.877 84.9318 355.368 83.5779C354.755 84.5537 354.461 85.6958 354.526 86.8462C354.57 87.1432 354.723 87.4131 354.955 87.6041Z" fill="#264A99"/>
<path d="M151.171 116.496L149.905 78.9948C171.916 72.1007 181.022 70.1482 195.465 67.7299C265.894 82.3048 291.754 65.3538 307.865 26.056L322.157 37.0424C302.119 85.508 276.692 101.663 194.835 101.663C281.543 119.268 318.115 101.663 335.281 81.5764L339.421 94.7863C306.92 135.688 232.185 148.133 151.171 116.496Z" fill="#263238"/>
<path d="M339.269 98.0556C339.296 98.1165 343.912 94.9853 343.912 94.9853L336.72 78.8751L332.083 80.5163L339.269 98.0556Z" fill="#455A64"/>
<path d="M323.436 40.6844L324.423 34.5306L307.913 23.105L304.494 27.6942L323.436 40.6844Z" fill="#455A64"/>
<path d="M95.5379 140.019C103.879 136.854 135.996 136.434 140.475 127.76C144.337 127.374 148.438 126.949 152.79 126.464C158.387 127.76 160.626 129.344 166.224 130.837C164.963 111.507 164.446 97.2713 156.895 75.2324C124.043 75.8737 94.9234 79.5124 56.9812 91.4829C56.9812 91.4829 60.3212 104.589 64.2223 112.485C67.5479 119.373 71.2681 126.064 75.3645 132.525C75.8187 133.193 76.2863 133.861 76.7005 134.488C78.7908 137.359 81.7715 139.457 85.1785 140.458C88.5855 141.458 92.2276 141.304 95.5379 140.019Z" fill="#3867D6"/>
<path d="M42.7762 127.007C49.9237 124.695 62.4286 119.392 64.2188 112.484C64.2188 112.484 71.7404 110.614 78.3936 122.585C85.7148 135.757 75.3609 132.511 75.3609 132.511C69.6429 126.285 64.4192 129.438 60.104 133.473L42.7762 127.007Z" fill="#FF8B7B"/>
<path opacity="0.2" d="M74.9389 94.8147C74.9389 94.8147 85.503 90.1742 91.417 82.442C87.4282 83.344 83.3342 84.3226 79.1351 85.3776L74.9389 94.8147Z" fill="black"/>
<path opacity="0.2" d="M191.915 106.601C197.294 112.649 218.622 112.323 229.935 107.368C213.574 105.518 201.192 102.863 194.877 101.76C191.918 103.312 190.463 104.972 191.915 106.601Z" fill="black"/>
<path d="M148.019 74.1805L134.595 75.4116L139.432 128.149L152.856 126.918L148.019 74.1805Z" fill="#263238"/>
<path d="M146.587 104.161L141.324 104.655C140.988 104.687 140.65 104.651 140.328 104.551C140.007 104.451 139.708 104.288 139.45 104.072C139.192 103.856 138.979 103.591 138.823 103.292C138.668 102.993 138.573 102.666 138.545 102.331C138.513 101.996 138.548 101.659 138.648 101.339C138.747 101.018 138.909 100.72 139.123 100.462C139.338 100.203 139.602 99.9902 139.899 99.8341C140.196 99.678 140.522 99.5821 140.856 99.5519L146.12 99.071C146.794 99.0115 147.465 99.221 147.985 99.654C148.506 100.087 148.834 100.708 148.899 101.382C148.93 101.717 148.895 102.054 148.796 102.375C148.696 102.695 148.535 102.993 148.32 103.251C148.105 103.51 147.842 103.723 147.544 103.879C147.247 104.035 146.922 104.131 146.587 104.161Z" fill="white"/>
<path d="M148.43 124.682L143.166 125.163C142.832 125.194 142.495 125.159 142.174 125.06C141.853 124.961 141.555 124.799 141.297 124.584C141.039 124.37 140.826 124.106 140.67 123.809C140.514 123.512 140.418 123.186 140.387 122.852C140.328 122.177 140.538 121.507 140.97 120.986C141.403 120.466 142.025 120.137 142.699 120.073L147.962 119.592C148.297 119.561 148.634 119.596 148.955 119.695C149.276 119.795 149.573 119.956 149.832 120.171C150.09 120.386 150.303 120.649 150.459 120.947C150.615 121.244 150.711 121.569 150.741 121.903C150.773 122.238 150.738 122.575 150.638 122.896C150.539 123.216 150.377 123.514 150.163 123.773C149.948 124.031 149.684 124.244 149.387 124.4C149.09 124.556 148.765 124.652 148.43 124.682Z" fill="white"/>
<path opacity="0.2" d="M51.3342 128.892L61.5947 132.713C62.5882 131.76 63.6608 130.893 64.8011 130.121C62.8773 127.596 57.7738 125.499 54.7277 126.808C53.4808 127.294 52.3314 128 51.3342 128.892Z" fill="black"/>
<path d="M41.1738 117.887C51.3284 122.185 57.4916 124.168 61.0135 131.41C65.389 145.906 55.845 155.822 45.9723 152.626C34.8258 152.884 19.5789 146.482 20.3363 132.928C20.1812 130.317 20.6807 127.709 21.7873 125.351C22.8938 122.993 24.5708 120.965 26.6588 119.458C28.7468 117.95 31.1764 117.015 33.7169 116.74C36.2574 116.465 38.8244 116.86 41.1738 117.887Z" fill="#FF8B7B"/>
<path d="M49.1491 133.694C48.0106 133.184 47.3004 133.513 46.9175 135.426L48.2685 137.398C49.7069 136.303 50.2877 134.204 49.1491 133.694Z" fill="#FF5652"/>
<path d="M44.5695 127.263C35.6084 118.148 29.6375 125.024 31.1302 127.263C32.6229 129.502 20.0915 114.264 20.6473 105.438C29.0282 106.799 42.6381 99.213 48.0206 106.274C56.7086 117.762 53.5501 125.722 44.5695 127.263Z" fill="#263238"/>
<path d="M23.8004 124.506C26.5647 128.548 28.9553 134.166 25.3698 143.9C21.7844 153.634 21.9302 146.64 19.803 155.836C17.6782 149.855 17.1497 138.267 17.7155 130.041C18.439 119.331 19.0897 117.589 23.8004 124.506Z" fill="#263238"/>
<path d="M50.5099 118.25C52.3048 120.469 53.1501 123.291 52.8625 126.104C52.4517 129.824 48.7325 130.264 45.9115 128.03C43.4104 126.027 40.5529 121.666 42.3791 118.504C42.7929 117.822 43.3731 117.254 44.0672 116.851C44.7613 116.449 45.5474 116.225 46.3545 116.2C47.1616 116.174 47.9642 116.349 48.6897 116.706C49.4152 117.064 50.0408 117.595 50.5099 118.25Z" fill="#FF8B7B"/>
<path d="M50.106 121.729C50.1889 122.084 50.1858 122.462 50.0969 122.814C50.0081 123.166 49.8376 123.478 49.607 123.709C49.3764 123.94 49.096 124.08 48.8016 124.112C48.5071 124.144 48.2117 124.066 47.9528 123.887C47.6939 123.709 47.4832 123.439 47.3474 123.111C47.2116 122.782 47.1568 122.411 47.1899 122.044C47.223 121.677 47.3426 121.33 47.5334 121.048C47.7243 120.766 47.9779 120.561 48.262 120.459C48.6412 120.324 49.0481 120.381 49.3936 120.619C49.7391 120.857 49.9952 121.256 50.106 121.729Z" fill="#263238"/>
<path d="M60.1782 141.284C60.1151 141.271 60.0585 141.228 60.0207 141.165C59.9829 141.102 59.967 141.023 59.9762 140.945C60.5045 136.696 59.6332 132.364 57.5535 128.9C55.4739 125.436 52.3558 123.123 48.8837 122.469C48.8514 122.464 48.8203 122.451 48.7921 122.431C48.7639 122.412 48.7392 122.385 48.7194 122.354C48.6996 122.322 48.6851 122.286 48.6768 122.248C48.6685 122.21 48.6665 122.17 48.671 122.13C48.6814 122.053 48.7163 121.984 48.768 121.938C48.8197 121.891 48.8841 121.872 48.9475 121.883C52.5479 122.56 55.7817 124.957 57.9391 128.548C60.0965 132.139 61.0013 136.63 60.4547 141.036C60.4419 141.112 60.4065 141.18 60.3554 141.225C60.3043 141.271 60.2412 141.292 60.1782 141.284Z" fill="#263238"/>
<path d="M59.4577 145.759C59.1367 145.719 58.8452 145.567 58.6444 145.335C58.4435 145.103 58.3488 144.809 58.38 144.515L58.8984 140.782C58.9394 140.488 59.1052 140.221 59.3603 140.037C59.6154 139.853 59.9394 139.768 60.2626 139.799C60.5861 139.837 60.8809 139.988 61.0846 140.22C61.2883 140.452 61.3849 140.748 61.3539 141.044L60.8355 144.777C60.7849 145.069 60.6146 145.333 60.3589 145.516C60.1032 145.698 59.7811 145.785 59.4577 145.759Z" fill="#263238"/>
<path d="M34.7008 144.973C35.7005 145.442 36.2971 146.466 36.0457 147.2C35.7942 147.934 34.785 148.294 33.7853 147.825C32.7856 147.355 32.2065 146.332 32.4579 145.598C32.7094 144.864 33.7186 144.504 34.7008 144.973Z" fill="#263238"/>
<path d="M39.0951 133.331C40.0948 133.801 40.6914 134.824 40.44 135.558C40.1885 136.292 39.1792 136.652 38.1796 136.183C37.1799 135.714 36.6008 134.691 36.8522 133.957C37.1037 133.223 38.1129 132.863 39.0951 133.331Z" fill="#263238"/>
<path d="M36.7284 141.286C38.4017 143.021 39.8735 145.03 41.1027 147.257C41.5575 146.855 41.9358 146.337 42.2115 145.738C42.4872 145.139 42.6537 144.473 42.6993 143.787L36.7284 141.286Z" fill="#FF5652"/>
<path d="M49.392 138.877C49.4503 139.375 49.4153 139.876 49.2875 140.369C49.2834 140.395 49.2708 140.42 49.2507 140.443C49.2306 140.466 49.2033 140.485 49.1705 140.501C49.1378 140.517 49.1003 140.528 49.0605 140.534C49.0207 140.54 48.9793 140.541 48.9391 140.536C48.8589 140.528 48.7868 140.5 48.7381 140.458C48.6893 140.417 48.6677 140.365 48.6778 140.313C48.9224 139.484 48.854 138.629 48.4784 137.82C48.1027 137.01 47.4305 136.27 46.5176 135.66C46.4636 135.62 46.4339 135.568 46.4339 135.515C46.4339 135.462 46.4636 135.411 46.5176 135.371C46.576 135.335 46.6541 135.314 46.7353 135.314C46.8166 135.314 46.8946 135.335 46.9531 135.371C48.3999 136.314 49.2659 137.559 49.392 138.877Z" fill="#263238"/>
<path d="M38.0983 130.483C38.1346 130.57 38.1399 130.668 38.1135 130.764C38.0871 130.861 38.0302 130.952 37.9501 131.026C37.42 131.485 37.0026 132.039 36.733 132.641C36.4635 133.243 36.3497 133.876 36.4011 134.487C36.424 134.552 36.4303 134.623 36.4198 134.695C36.4092 134.767 36.382 134.838 36.34 134.903C36.2979 134.968 36.242 135.026 36.176 135.073C36.1101 135.121 36.0355 135.156 35.9575 135.176C35.8794 135.197 35.7997 135.202 35.7236 135.192C35.6475 135.182 35.5769 135.157 35.5165 135.119C35.456 135.08 35.4072 135.029 35.3733 134.969C35.3394 134.909 35.3212 134.841 35.3199 134.77C35.2422 133.999 35.3746 133.197 35.7062 132.432C36.0378 131.666 36.5586 130.961 37.2246 130.374C37.3341 130.275 37.4767 130.215 37.6215 130.205C37.7663 130.196 37.9018 130.238 37.9986 130.324C38.0455 130.368 38.0796 130.422 38.0983 130.483Z" fill="#263238"/>
<path d="M31.3924 149.849C31.3229 149.956 31.2075 150.03 31.0703 150.054C30.997 150.073 30.9187 150.077 30.84 150.067C30.7613 150.056 30.6838 150.032 30.612 149.995C30.5402 149.957 30.4755 149.908 30.4218 149.85C30.3682 149.791 30.3265 149.725 30.2993 149.654C29.9327 148.804 29.7853 147.908 29.8697 147.043C29.9541 146.178 30.2677 145.369 30.7841 144.686C30.829 144.63 30.8869 144.585 30.954 144.554C31.0212 144.522 31.0963 144.503 31.175 144.5C31.2536 144.496 31.334 144.508 31.4115 144.533C31.4889 144.559 31.5618 144.598 31.6258 144.648C31.7549 144.748 31.842 144.886 31.8683 145.033C31.8946 145.18 31.858 145.323 31.7664 145.433C31.3659 145.979 31.1257 146.622 31.0661 147.308C31.0065 147.994 31.1291 148.702 31.4238 149.374C31.4567 149.454 31.471 149.539 31.4656 149.621C31.4602 149.703 31.4352 149.78 31.3924 149.849Z" fill="#263238"/>
<path d="M29.4774 133.938C30.8875 136.675 32.7149 137.291 34.8951 136.099C30.2289 129.773 32.4425 115.492 24.3792 110.701C16.316 105.91 8.37196 117.226 5.73119 121.547C4.90876 122.762 4.48761 124.283 4.55244 125.805C1.11273 130.259 10.8506 138.012 6.92119 144.006C2.62392 150.585 6.60603 154.517 14.878 158.247C14.5882 150.657 29.3631 141.727 29.4774 133.938Z" fill="#263238"/>
<path d="M136.18 47.1001C88.0322 24.1305 98.496 32.9564 81.5654 86.0426L67.9652 72.0783C88.128 23.2126 84.773 11.1079 136.979 39.4506L136.18 47.1001Z" fill="#FF8B7B"/>
<path d="M137.08 54.7948L134.873 46.8706L135.247 38.6605C135.247 38.6605 136.035 37.8609 138.818 38.1517C141.602 38.4424 145.328 45.0996 145.328 45.0996C146.693 49.4776 146.364 51.7491 144.237 55.5424C141.329 56.3316 139.741 56.3704 137.08 54.7948Z" fill="#FF8B7B"/>
<path d="M57.3308 93.1774C53.6638 85.1144 67.3265 63.6636 67.3265 63.6636L88.2247 71.4061C88.2247 71.4061 86.9621 84.0265 79.6685 93.1654C72.0121 102.848 61.4947 102.328 57.3308 93.1774Z" fill="#3867D6"/>
</svg>
