<svg width="600" height="600" viewBox="0 0 600 600" fill="none" xmlns="http://www.w3.org/2000/svg">
<g clip-path="url(#clip0)">
<path opacity="0.2" d="M57.5537 374.943C25.994 300.055 145.271 219.987 166.529 202.209C187.787 184.431 258.239 151.694 279.486 92.3702C300.734 33.0462 521.08 58.1019 565.89 120.491C610.7 182.88 515.328 177.207 479.463 226.27C443.598 275.333 551.697 324.997 471.777 406.473C391.857 487.949 89.1133 449.831 57.5537 374.943Z" fill="#79A3FF"/>
<path d="M387.809 343.625H311.306L370.642 345.864L387.809 343.625Z" fill="#E0E0E0"/>
<path d="M287.055 523C430.116 523 546.09 516.229 546.09 507.876C546.09 499.524 430.116 492.753 287.055 492.753C143.993 492.753 28.0194 499.524 28.0194 507.876C28.0194 516.229 143.993 523 287.055 523Z" fill="#F5F5F5"/>
<path d="M215.389 319.288L223.471 325.514L228.455 325.447L223.618 313.517L215.389 319.288Z" fill="#FF8B7B"/>
<path d="M330.712 10H328.473V193.605H330.712V10Z" fill="#263238"/>
<path d="M415.797 362.806C415.797 360.044 418.036 357.806 420.797 357.806H421.246C424.008 357.806 426.246 360.044 426.246 362.806V505.81C426.246 508.572 424.008 510.81 421.246 510.81H420.797C418.036 510.81 415.797 508.572 415.797 505.81V362.806Z" fill="#263238"/>
<path d="M125.458 362.806C125.458 360.044 127.697 357.806 130.458 357.806H130.908C133.669 357.806 135.908 360.044 135.908 362.806V505.81C135.908 508.572 133.669 510.81 130.908 510.81H130.458C127.697 510.81 125.458 508.572 125.458 505.81V362.806Z" fill="#263238"/>
<path d="M154.57 362.806C154.57 360.044 156.809 357.806 159.57 357.806H160.019C162.781 357.806 165.019 360.044 165.019 362.806V496.107C165.019 498.869 162.781 501.107 160.019 501.107H159.57C156.809 501.107 154.57 498.869 154.57 496.107V362.806Z" fill="#263238"/>
<path d="M383.704 362.806C383.704 360.044 385.943 357.806 388.704 357.806H389.9C392.661 357.806 394.9 360.044 394.9 362.806V496.107C394.9 498.869 392.661 501.107 389.9 501.107H388.704C385.943 501.107 383.704 498.869 383.704 496.107V362.806Z" fill="#263238"/>
<path d="M121.361 354.82H429.236L434.46 358.552H115.016L121.361 354.82Z" fill="#3867D6"/>
<path d="M181.44 353.65C181.047 345.241 201.025 343.167 201.269 350.82C201.513 358.474 195.224 357.378 183.324 357.188C183.324 357.188 181.552 356.052 181.44 353.65Z" fill="#455A64"/>
<path d="M262.913 305.69H189.594L199.093 354.247H272.426L262.913 305.69Z" fill="#263238"/>
<path d="M261.502 305.56H188.156L197.657 354.041V356.909H271.002V354.041L261.502 305.56Z" fill="#C4C4C4"/>
<path d="M271.064 357.105H295.914V354.233H271.064V357.105Z" fill="#263238"/>
<path d="M115.016 358.552H434.46V376.464H115.016V358.552Z" fill="#3362CC"/>
<path d="M370.881 344.086L388.044 343.748L388.293 356.433L371.015 356.686L370.881 344.086Z" fill="#C4C4C4"/>
<path d="M311.402 343.625L371.109 344.063L371.016 356.751L311.308 356.312L311.402 343.625Z" fill="white"/>
<path fill-rule="evenodd" clip-rule="evenodd" d="M312.085 346.153C312.086 346.015 312.199 345.904 312.337 345.905L369.305 346.321C369.443 346.322 369.554 346.434 369.553 346.572C369.552 346.71 369.44 346.822 369.302 346.821L312.333 346.405C312.195 346.404 312.084 346.291 312.085 346.153Z" fill="#E0E0E0"/>
<path fill-rule="evenodd" clip-rule="evenodd" d="M373.247 346.701C373.244 346.563 373.353 346.449 373.492 346.446L389.41 346.101C389.548 346.098 389.662 346.208 389.665 346.346C389.668 346.484 389.558 346.598 389.42 346.601L373.502 346.946C373.364 346.949 373.25 346.839 373.247 346.701Z" fill="#E0E0E0"/>
<path fill-rule="evenodd" clip-rule="evenodd" d="M371.012 348.208C371.009 348.07 371.119 347.956 371.257 347.953L387.175 347.608C387.313 347.605 387.427 347.715 387.43 347.853C387.433 347.991 387.324 348.105 387.186 348.108L371.268 348.452C371.13 348.455 371.015 348.346 371.012 348.208Z" fill="#E0E0E0"/>
<path fill-rule="evenodd" clip-rule="evenodd" d="M372.505 350.447C372.502 350.309 372.612 350.195 372.75 350.192L388.668 349.847C388.806 349.844 388.92 349.954 388.923 350.092C388.926 350.23 388.817 350.344 388.679 350.347L372.761 350.692C372.623 350.695 372.508 350.585 372.505 350.447Z" fill="#E0E0E0"/>
<path fill-rule="evenodd" clip-rule="evenodd" d="M370.261 354.925C370.258 354.787 370.367 354.673 370.505 354.67L386.423 354.326C386.561 354.323 386.676 354.432 386.679 354.57C386.682 354.708 386.572 354.822 386.434 354.825L370.516 355.17C370.378 355.173 370.264 355.063 370.261 354.925Z" fill="#E0E0E0"/>
<path fill-rule="evenodd" clip-rule="evenodd" d="M307.59 348.359C307.591 348.221 307.704 348.11 307.842 348.111L364.811 348.527C364.949 348.528 365.06 348.64 365.059 348.778C365.058 348.916 364.945 349.028 364.807 349.027L307.839 348.611C307.7 348.61 307.589 348.497 307.59 348.359Z" fill="#E0E0E0"/>
<path fill-rule="evenodd" clip-rule="evenodd" d="M312.801 350.637C312.802 350.499 312.915 350.388 313.053 350.389L370.022 350.804C370.16 350.805 370.271 350.918 370.27 351.056C370.269 351.194 370.156 351.305 370.018 351.304L313.05 350.889C312.912 350.888 312.8 350.775 312.801 350.637Z" fill="#E0E0E0"/>
<path fill-rule="evenodd" clip-rule="evenodd" d="M315.773 352.151C315.774 352.013 315.886 351.902 316.024 351.903L372.993 352.319C373.131 352.32 373.242 352.432 373.241 352.57C373.24 352.708 373.127 352.82 372.989 352.819L316.021 352.403C315.883 352.402 315.772 352.289 315.773 352.151Z" fill="#E0E0E0"/>
<path fill-rule="evenodd" clip-rule="evenodd" d="M311.278 354.357C311.279 354.219 311.392 354.108 311.53 354.109L368.499 354.525C368.637 354.526 368.748 354.638 368.747 354.776C368.746 354.915 368.633 355.026 368.495 355.025L311.526 354.609C311.388 354.608 311.277 354.495 311.278 354.357Z" fill="#E0E0E0"/>
<path d="M148.597 326.458H169.122L166.51 357.059H150.837L148.597 326.458Z" fill="#C4C4C4"/>
<path d="M171.734 327.951H146.358L147.969 322.727H170.123L171.734 327.951Z" fill="white"/>
<path d="M149.349 337.28H168.229L167.483 345.863H149.999L149.349 337.28Z" fill="#37474F"/>
</g>
<defs>
<clipPath id="clip0">
<rect width="600" height="600" fill="white"/>
</clipPath>
</defs>
</svg>
