<svg width="600" height="600" viewBox="0 0 600 600" fill="none" xmlns="http://www.w3.org/2000/svg">
<g clip-path="url(#clip0)">
<path opacity="0.2" d="M57.5537 374.943C25.994 300.055 145.271 219.987 166.529 202.209C187.787 184.431 258.239 151.694 279.486 92.3702C300.734 33.0462 521.08 58.1019 565.89 120.491C610.7 182.88 515.328 177.207 479.463 226.27C443.598 275.333 551.697 324.997 471.777 406.473C391.857 487.949 89.1133 449.831 57.5537 374.943Z" fill="#79A3FF"/>
<path d="M387.809 343.625H311.306L370.642 345.864L387.809 343.625Z" fill="#E0E0E0"/>
<path d="M287.055 523C430.116 523 546.09 516.229 546.09 507.876C546.09 499.524 430.116 492.753 287.055 492.753C143.993 492.753 28.0194 499.524 28.0194 507.876C28.0194 516.229 143.993 523 287.055 523Z" fill="#F5F5F5"/>
<path d="M537.538 191.508L542.826 200.094L524.347 214.605L519.073 206.017L537.538 191.508Z" fill="#FF8B7B"/>
<path d="M508.949 130.953L515.919 138.221L504.533 160.061L497.55 152.796L508.949 130.953Z" fill="#FF8B7B"/>
<path d="M516.364 139.723L504.6 136.177C504.408 136.12 504.241 136 504.126 135.835C504.011 135.67 503.956 135.471 503.97 135.271L504.654 126.119C504.673 125.897 504.741 125.682 504.854 125.49C504.968 125.298 505.123 125.134 505.308 125.01C505.494 124.886 505.705 124.806 505.925 124.775C506.146 124.743 506.371 124.763 506.584 124.831C510.351 126.04 513.051 127.095 517.808 128.533C520.768 129.415 526.879 130.941 530.935 132.149C534.991 133.358 534.306 137.536 532.528 137.4C524.604 136.792 521.134 138.19 518.108 139.605C517.562 139.859 516.94 139.901 516.364 139.723Z" fill="#263238"/>
<path d="M541.882 201.31L533.214 194.549C533.056 194.427 532.945 194.254 532.9 194.059C532.854 193.864 532.878 193.659 532.966 193.479L536.907 185.198C537.001 184.995 537.139 184.816 537.313 184.675C537.486 184.534 537.689 184.434 537.907 184.383C538.124 184.332 538.351 184.331 538.568 184.381C538.786 184.431 538.99 184.53 539.164 184.67C542.259 187.175 546.624 190.889 550.553 193.967C555.17 197.561 556.776 198.757 562.166 202.973C565.43 205.52 563.75 209.487 562.161 208.747C554.855 205.249 552.233 203.089 544.279 202.207C543.412 202.139 542.581 201.828 541.882 201.31Z" fill="#263238"/>
<path d="M228.429 316.796C276.314 304.181 261.397 302.799 264.663 267.869L280.71 271.974C274.79 307.312 283.789 315.027 230.358 322.534L228.429 316.796Z" fill="#FF8B7B"/>
<path d="M219.108 316.946L225.743 315.783L232.068 317.174C232.068 317.174 232.528 318.044 231.726 320.725C230.923 323.406 224.961 326.211 224.961 326.211C221.264 326.995 219.561 326.391 217.043 323.84C217.03 320.902 217.328 319.347 219.108 316.946Z" fill="#FF8B7B"/>
<path d="M289.369 254.113C289.135 256.079 288.762 258.11 288.326 260.127C287.001 265.899 285.26 271.6 283.111 277.198C276.4 273.88 271.253 273.08 260.179 273.093C260.179 273.093 259.451 258.019 264.121 246.393C268.791 234.766 282.893 233.964 288.279 243.159C289.774 245.655 289.914 249.742 289.369 254.113Z" fill="#3867D6"/>
<path opacity="0.2" d="M289.135 253.56C288.935 255.591 288.614 257.689 288.24 259.773L281.453 258.437C282.014 254.977 285.795 250.568 289.135 253.56Z" fill="black"/>
<path d="M215.389 319.288L223.471 325.514L228.455 325.447L223.618 313.517L215.389 319.288Z" fill="#FF8B7B"/>
<path opacity="0.2" d="M524.361 214.603L533.875 207.116L528.587 198.529L519.073 206.017L524.361 214.603Z" fill="black"/>
<path opacity="0.2" d="M497.549 152.783L504.532 160.048L510.713 148.214L502.559 143.168L497.549 152.783Z" fill="black"/>
<path d="M330.712 10H328.473V193.605H330.712V10Z" fill="#263238"/>
<path d="M520.069 139.01C520.736 139.16 521.333 139.529 521.764 140.059C521.892 140.257 521.97 140.483 521.99 140.717C522.011 140.952 521.973 141.188 521.882 141.405C521.841 141.538 521.765 141.657 521.661 141.75C521.558 141.843 521.431 141.906 521.294 141.931C520.057 142.16 517.516 139.309 517.234 138.992C517.199 138.96 517.174 138.918 517.163 138.871C517.152 138.825 517.155 138.777 517.171 138.732C517.191 138.692 517.222 138.658 517.26 138.634C517.298 138.611 517.342 138.598 517.386 138.598C518.293 138.633 519.193 138.771 520.069 139.01ZM520.887 141.438C520.991 141.472 521.101 141.483 521.21 141.47C521.275 141.455 521.366 141.433 521.43 141.239C521.498 141.093 521.529 140.932 521.519 140.771C521.509 140.61 521.459 140.455 521.373 140.318C520.98 139.712 519.762 139.332 517.991 139.112C518.796 140.068 519.779 140.859 520.887 141.438Z" fill="#264A99"/>
<path d="M517.481 138.602C517.481 138.602 517.546 138.586 517.591 138.658C518.426 139.501 519.708 142.202 519.183 143.221C519.094 143.376 518.956 143.497 518.79 143.564C518.625 143.631 518.441 143.641 518.27 143.592C518.09 143.56 517.92 143.492 517.768 143.391C517.616 143.291 517.486 143.16 517.387 143.008C516.549 141.753 517.164 138.939 517.181 138.784C517.191 138.743 517.211 138.704 517.239 138.673C517.268 138.642 517.304 138.619 517.345 138.607C517.366 138.596 517.389 138.59 517.412 138.589C517.436 138.588 517.459 138.593 517.481 138.602ZM518.248 143.103L518.352 143.078C518.653 143.129 518.716 142.99 518.755 142.981C519.077 142.381 518.33 140.417 517.555 139.367C517.299 140.487 517.38 141.658 517.788 142.733C517.898 142.902 518.059 143.032 518.248 143.103Z" fill="#264A99"/>
<path d="M546.274 202.505C547.002 202.977 547.547 203.684 547.817 204.509C547.858 204.721 547.848 204.94 547.786 205.148C547.724 205.355 547.613 205.545 547.462 205.7C547.375 205.798 547.265 205.873 547.143 205.918C547.02 205.963 546.888 205.977 546.758 205.958C545.372 205.742 543.445 201.621 543.215 201.102C543.197 201.058 543.192 201.009 543.201 200.962C543.211 200.914 543.234 200.871 543.269 200.837C543.303 200.8 543.349 200.775 543.4 200.768C543.45 200.76 543.501 200.769 543.546 200.794C544.505 201.281 545.418 201.853 546.274 202.505ZM546.429 205.32C546.548 205.419 546.689 205.489 546.84 205.526C546.886 205.544 546.935 205.549 546.984 205.542C547.033 205.534 547.078 205.514 547.117 205.483C547.219 205.383 547.296 205.259 547.341 205.123C547.385 204.986 547.396 204.841 547.373 204.699C547.245 203.881 545.965 202.783 543.986 201.712C544.593 203.043 545.419 204.262 546.429 205.32Z" fill="#264A99"/>
<path d="M543.569 200.871L543.581 200.95C544.199 202.138 544.752 205.337 543.901 206.119C543.712 206.297 543.357 206.447 542.789 206.103C542.589 205.973 542.416 205.805 542.281 205.608C542.146 205.41 542.051 205.189 542.002 204.955C541.643 203.348 543.095 201.039 543.159 200.934C543.191 200.91 543.228 200.895 543.267 200.889C543.306 200.883 543.346 200.886 543.384 200.899C543.409 200.879 543.44 200.865 543.472 200.86C543.505 200.855 543.538 200.859 543.569 200.871ZM542.955 205.604L543.077 205.693C543.437 205.921 543.568 205.806 543.603 205.773C544.111 205.302 543.877 202.932 543.368 201.578C542.755 202.554 542.461 203.696 542.526 204.846C542.57 205.143 542.723 205.413 542.955 205.604Z" fill="#264A99"/>
<path d="M339.171 234.496L337.905 196.995C359.916 190.101 369.022 188.148 383.465 185.73C453.894 200.305 479.754 183.354 495.865 144.056L510.157 155.042C490.119 203.508 464.692 219.663 382.835 219.663C469.543 237.268 506.115 219.663 523.281 199.576L527.421 212.786C494.92 253.688 420.185 266.133 339.171 234.496Z" fill="#263238"/>
<path d="M527.269 216.056C527.296 216.116 531.912 212.985 531.912 212.985L524.72 196.875L520.083 198.516L527.269 216.056Z" fill="#455A64"/>
<path d="M511.436 158.684L512.423 152.531L495.913 141.105L492.494 145.694L511.436 158.684Z" fill="#455A64"/>
<path d="M283.538 258.019C291.879 254.854 323.996 254.434 328.475 245.76C332.337 245.374 336.438 244.949 340.79 244.464C346.387 245.76 348.626 247.344 354.224 248.837C352.963 229.507 352.446 215.271 344.895 193.232C312.043 193.874 282.923 197.512 244.981 209.483C244.981 209.483 248.321 222.589 252.222 230.485C255.548 237.373 259.268 244.064 263.364 250.525C263.819 251.193 264.286 251.861 264.7 252.488C266.791 255.359 269.771 257.457 273.178 258.458C276.585 259.458 280.228 259.304 283.538 258.019Z" fill="#3867D6"/>
<path d="M230.776 245.007C237.924 242.695 250.429 237.392 252.219 230.484C252.219 230.484 259.74 228.614 266.394 240.585C273.715 253.757 263.361 250.511 263.361 250.511C257.643 244.285 252.419 247.438 248.104 251.473L230.776 245.007Z" fill="#FF8B7B"/>
<path opacity="0.2" d="M262.939 212.815C262.939 212.815 273.503 208.174 279.417 200.442C275.428 201.344 271.334 202.323 267.135 203.378L262.939 212.815Z" fill="black"/>
<path opacity="0.2" d="M379.915 224.601C385.294 230.649 406.622 230.323 417.935 225.368C401.574 223.518 389.192 220.863 382.877 219.76C379.918 221.312 378.463 222.972 379.915 224.601Z" fill="black"/>
<path d="M336.019 192.181L322.595 193.412L327.432 246.149L340.856 244.918L336.019 192.181Z" fill="#263238"/>
<path d="M334.587 222.161L329.324 222.655C328.988 222.687 328.65 222.651 328.328 222.551C328.007 222.451 327.708 222.288 327.45 222.072C327.192 221.856 326.979 221.591 326.823 221.292C326.668 220.993 326.573 220.666 326.545 220.331C326.513 219.996 326.548 219.659 326.648 219.339C326.747 219.018 326.909 218.72 327.123 218.462C327.338 218.203 327.602 217.99 327.899 217.834C328.196 217.678 328.522 217.582 328.856 217.552L334.12 217.071C334.794 217.011 335.465 217.221 335.985 217.654C336.506 218.087 336.834 218.708 336.899 219.382C336.93 219.717 336.895 220.054 336.796 220.375C336.696 220.695 336.535 220.993 336.32 221.251C336.105 221.51 335.842 221.723 335.544 221.879C335.247 222.035 334.922 222.131 334.587 222.161Z" fill="white"/>
<path d="M336.43 242.682L331.166 243.163C330.832 243.194 330.495 243.159 330.174 243.06C329.853 242.961 329.555 242.799 329.297 242.584C329.039 242.37 328.826 242.106 328.67 241.809C328.514 241.512 328.418 241.186 328.387 240.852C328.328 240.177 328.538 239.507 328.97 238.986C329.403 238.466 330.025 238.137 330.699 238.073L335.962 237.592C336.297 237.561 336.634 237.596 336.955 237.695C337.276 237.795 337.573 237.956 337.832 238.171C338.09 238.386 338.303 238.649 338.459 238.947C338.615 239.244 338.711 239.569 338.741 239.903C338.773 240.238 338.738 240.575 338.638 240.896C338.539 241.216 338.377 241.514 338.163 241.773C337.948 242.031 337.684 242.244 337.387 242.4C337.09 242.556 336.765 242.652 336.43 242.682Z" fill="white"/>
<path opacity="0.2" d="M239.334 246.892L249.595 250.713C250.588 249.76 251.661 248.893 252.801 248.121C250.877 245.596 245.774 243.499 242.728 244.808C241.481 245.294 240.331 246 239.334 246.892Z" fill="black"/>
<path d="M229.174 235.887C239.328 240.185 245.492 242.168 249.013 249.41C253.389 263.906 243.845 273.822 233.972 270.626C222.826 270.884 207.579 264.482 208.336 250.928C208.181 248.317 208.681 245.709 209.787 243.351C210.894 240.993 212.571 238.965 214.659 237.458C216.747 235.95 219.176 235.015 221.717 234.74C224.257 234.465 226.824 234.86 229.174 235.887Z" fill="#FF8B7B"/>
<path d="M237.149 251.694C236.011 251.184 235.3 251.513 234.918 253.426L236.269 255.398C237.707 254.303 238.288 252.204 237.149 251.694Z" fill="#FF5652"/>
<path d="M232.57 245.263C223.608 236.148 217.637 243.024 219.13 245.263C220.623 247.502 208.092 232.264 208.647 223.438C217.028 224.799 230.638 217.213 236.021 224.274C244.709 235.762 241.55 243.722 232.57 245.263Z" fill="#263238"/>
<path d="M211.8 242.506C214.565 246.548 216.955 252.166 213.37 261.9C209.784 271.634 209.93 264.64 207.803 273.836C205.678 267.855 205.15 256.267 205.715 248.041C206.439 237.331 207.09 235.589 211.8 242.506Z" fill="#263238"/>
<path d="M238.51 236.25C240.305 238.469 241.15 241.291 240.863 244.104C240.452 247.824 236.732 248.264 233.912 246.03C231.41 244.027 228.553 239.666 230.379 236.504C230.793 235.822 231.373 235.254 232.067 234.851C232.761 234.449 233.547 234.225 234.354 234.2C235.162 234.174 235.964 234.349 236.69 234.706C237.415 235.064 238.041 235.595 238.51 236.25Z" fill="#FF8B7B"/>
<path d="M238.106 239.729C238.189 240.084 238.186 240.462 238.097 240.814C238.008 241.166 237.838 241.478 237.607 241.709C237.376 241.94 237.096 242.08 236.802 242.112C236.507 242.144 236.212 242.066 235.953 241.887C235.694 241.709 235.483 241.439 235.347 241.111C235.212 240.782 235.157 240.411 235.19 240.044C235.223 239.677 235.343 239.33 235.533 239.048C235.724 238.766 235.978 238.561 236.262 238.459C236.641 238.324 237.048 238.381 237.394 238.619C237.739 238.857 237.995 239.256 238.106 239.729Z" fill="#263238"/>
<path d="M248.178 259.284C248.115 259.271 248.059 259.228 248.021 259.165C247.983 259.102 247.967 259.023 247.976 258.945C248.504 254.696 247.633 250.364 245.554 246.9C243.474 243.436 240.356 241.123 236.884 240.469C236.851 240.464 236.82 240.451 236.792 240.431C236.764 240.412 236.739 240.385 236.719 240.354C236.7 240.322 236.685 240.286 236.677 240.248C236.668 240.21 236.666 240.17 236.671 240.13C236.681 240.053 236.716 239.984 236.768 239.938C236.82 239.891 236.884 239.872 236.947 239.883C240.548 240.56 243.782 242.957 245.939 246.548C248.097 250.139 249.001 254.63 248.455 259.036C248.442 259.112 248.407 259.18 248.355 259.225C248.304 259.271 248.241 259.292 248.178 259.284Z" fill="#263238"/>
<path d="M247.458 263.759C247.137 263.719 246.845 263.567 246.644 263.335C246.443 263.103 246.349 262.809 246.38 262.515L246.898 258.782C246.939 258.488 247.105 258.221 247.36 258.037C247.615 257.853 247.939 257.768 248.263 257.799C248.586 257.837 248.881 257.988 249.085 258.22C249.288 258.452 249.385 258.748 249.354 259.044L248.836 262.777C248.785 263.069 248.615 263.333 248.359 263.516C248.103 263.698 247.781 263.785 247.458 263.759Z" fill="#263238"/>
<path d="M222.701 262.973C223.701 263.442 224.297 264.466 224.046 265.2C223.794 265.934 222.785 266.294 221.785 265.825C220.786 265.355 220.206 264.332 220.458 263.598C220.709 262.864 221.719 262.504 222.701 262.973Z" fill="#263238"/>
<path d="M227.095 251.331C228.095 251.801 228.691 252.824 228.44 253.558C228.188 254.292 227.179 254.652 226.18 254.183C225.18 253.714 224.601 252.691 224.852 251.957C225.104 251.223 226.113 250.863 227.095 251.331Z" fill="#263238"/>
<path d="M224.728 259.286C226.402 261.021 227.874 263.03 229.103 265.257C229.557 264.855 229.936 264.337 230.212 263.738C230.487 263.139 230.654 262.473 230.699 261.787L224.728 259.286Z" fill="#FF5652"/>
<path d="M237.392 256.877C237.45 257.375 237.415 257.876 237.288 258.369C237.283 258.395 237.271 258.42 237.251 258.443C237.231 258.466 237.203 258.485 237.171 258.501C237.138 258.517 237.1 258.528 237.06 258.534C237.021 258.54 236.979 258.541 236.939 258.536C236.859 258.528 236.787 258.5 236.738 258.458C236.689 258.417 236.668 258.365 236.678 258.313C236.922 257.484 236.854 256.629 236.478 255.82C236.103 255.01 235.43 254.27 234.518 253.66C234.464 253.62 234.434 253.568 234.434 253.515C234.434 253.462 234.464 253.411 234.518 253.371C234.576 253.335 234.654 253.314 234.735 253.314C234.817 253.314 234.895 253.335 234.953 253.371C236.4 254.314 237.266 255.559 237.392 256.877Z" fill="#263238"/>
<path d="M226.098 248.483C226.135 248.57 226.14 248.668 226.114 248.764C226.087 248.861 226.03 248.952 225.95 249.026C225.42 249.485 225.003 250.039 224.733 250.641C224.463 251.243 224.35 251.876 224.401 252.487C224.424 252.552 224.43 252.623 224.42 252.695C224.409 252.767 224.382 252.838 224.34 252.903C224.298 252.968 224.242 253.026 224.176 253.073C224.11 253.121 224.036 253.156 223.957 253.176C223.879 253.197 223.8 253.202 223.724 253.192C223.648 253.182 223.577 253.157 223.516 253.119C223.456 253.08 223.407 253.029 223.373 252.969C223.339 252.909 223.321 252.841 223.32 252.77C223.242 251.999 223.375 251.197 223.706 250.432C224.038 249.666 224.559 248.961 225.225 248.374C225.334 248.275 225.477 248.215 225.621 248.205C225.766 248.196 225.902 248.238 225.999 248.324C226.046 248.368 226.08 248.422 226.098 248.483Z" fill="#263238"/>
<path d="M219.392 267.849C219.323 267.956 219.208 268.03 219.07 268.054C218.997 268.073 218.919 268.077 218.84 268.067C218.761 268.056 218.684 268.032 218.612 267.995C218.54 267.957 218.476 267.908 218.422 267.85C218.368 267.791 218.326 267.725 218.299 267.654C217.933 266.804 217.785 265.908 217.87 265.043C217.954 264.178 218.268 263.369 218.784 262.686C218.829 262.63 218.887 262.585 218.954 262.554C219.021 262.522 219.096 262.503 219.175 262.5C219.254 262.496 219.334 262.508 219.411 262.533C219.489 262.559 219.562 262.598 219.626 262.648C219.755 262.748 219.842 262.886 219.868 263.033C219.895 263.18 219.858 263.323 219.766 263.433C219.366 263.979 219.126 264.622 219.066 265.308C219.006 265.994 219.129 266.702 219.424 267.374C219.457 267.454 219.471 267.539 219.466 267.621C219.46 267.703 219.435 267.78 219.392 267.849Z" fill="#263238"/>
<path d="M217.477 251.938C218.887 254.675 220.715 255.291 222.895 254.099C218.229 247.773 220.442 233.492 212.379 228.701C204.316 223.91 196.372 235.226 193.731 239.547C192.909 240.762 192.488 242.283 192.552 243.805C189.113 248.259 198.851 256.012 194.921 262.006C190.624 268.585 194.606 272.517 202.878 276.247C202.588 268.657 217.363 259.727 217.477 251.938Z" fill="#263238"/>
<path d="M324.18 165.1C276.032 142.13 286.496 150.956 269.565 204.043L255.965 190.078C276.128 141.213 272.773 129.108 324.979 157.451L324.18 165.1Z" fill="#FF8B7B"/>
<path d="M325.08 172.795L322.873 164.871L323.247 156.661C323.247 156.661 324.035 155.861 326.818 156.152C329.602 156.442 333.328 163.1 333.328 163.1C334.693 167.478 334.364 169.749 332.237 173.542C329.329 174.332 327.741 174.37 325.08 172.795Z" fill="#FF8B7B"/>
<path d="M245.331 211.177C241.664 203.114 255.327 181.664 255.327 181.664L276.225 189.406C276.225 189.406 274.962 202.026 267.668 211.165C260.012 220.848 249.495 220.328 245.331 211.177Z" fill="#3867D6"/>
<path d="M415.797 362.806C415.797 360.044 418.036 357.806 420.797 357.806H421.246C424.008 357.806 426.246 360.044 426.246 362.806V505.81C426.246 508.572 424.008 510.81 421.246 510.81H420.797C418.036 510.81 415.797 508.572 415.797 505.81V362.806Z" fill="#263238"/>
<path d="M125.458 362.806C125.458 360.044 127.697 357.806 130.458 357.806H130.908C133.669 357.806 135.908 360.044 135.908 362.806V505.81C135.908 508.572 133.669 510.81 130.908 510.81H130.458C127.697 510.81 125.458 508.572 125.458 505.81V362.806Z" fill="#263238"/>
<path d="M154.57 362.806C154.57 360.044 156.809 357.806 159.57 357.806H160.019C162.781 357.806 165.019 360.044 165.019 362.806V496.107C165.019 498.869 162.781 501.107 160.019 501.107H159.57C156.809 501.107 154.57 498.869 154.57 496.107V362.806Z" fill="#263238"/>
<path d="M383.704 362.806C383.704 360.044 385.943 357.806 388.704 357.806H389.9C392.661 357.806 394.9 360.044 394.9 362.806V496.107C394.9 498.869 392.661 501.107 389.9 501.107H388.704C385.943 501.107 383.704 498.869 383.704 496.107V362.806Z" fill="#263238"/>
<path d="M121.361 354.82H429.236L434.46 358.552H115.016L121.361 354.82Z" fill="#3867D6"/>
<path d="M181.44 353.65C181.047 345.241 201.025 343.167 201.269 350.82C201.513 358.474 195.224 357.378 183.324 357.188C183.324 357.188 181.552 356.052 181.44 353.65Z" fill="#455A64"/>
<path d="M262.913 305.69H189.594L199.093 354.247H272.426L262.913 305.69Z" fill="#263238"/>
<path d="M261.502 305.56H188.156L197.657 354.041V356.909H271.002V354.041L261.502 305.56Z" fill="#C4C4C4"/>
<path d="M271.064 357.105H295.914V354.233H271.064V357.105Z" fill="#263238"/>
<path d="M115.016 358.552H434.46V376.464H115.016V358.552Z" fill="#3362CC"/>
<path d="M370.881 344.086L388.044 343.748L388.293 356.433L371.015 356.686L370.881 344.086Z" fill="#C4C4C4"/>
<path d="M311.402 343.625L371.109 344.063L371.016 356.751L311.308 356.312L311.402 343.625Z" fill="white"/>
<path fill-rule="evenodd" clip-rule="evenodd" d="M312.085 346.153C312.086 346.015 312.199 345.904 312.337 345.905L369.305 346.321C369.443 346.322 369.554 346.434 369.553 346.572C369.552 346.71 369.44 346.822 369.302 346.821L312.333 346.405C312.195 346.404 312.084 346.291 312.085 346.153Z" fill="#E0E0E0"/>
<path fill-rule="evenodd" clip-rule="evenodd" d="M373.247 346.701C373.244 346.563 373.353 346.449 373.492 346.446L389.41 346.101C389.548 346.098 389.662 346.208 389.665 346.346C389.668 346.484 389.558 346.598 389.42 346.601L373.502 346.946C373.364 346.949 373.25 346.839 373.247 346.701Z" fill="#E0E0E0"/>
<path fill-rule="evenodd" clip-rule="evenodd" d="M371.012 348.208C371.009 348.07 371.119 347.956 371.257 347.953L387.175 347.608C387.313 347.605 387.427 347.715 387.43 347.853C387.433 347.991 387.324 348.105 387.186 348.108L371.268 348.452C371.13 348.455 371.015 348.346 371.012 348.208Z" fill="#E0E0E0"/>
<path fill-rule="evenodd" clip-rule="evenodd" d="M372.505 350.447C372.502 350.309 372.612 350.195 372.75 350.192L388.668 349.847C388.806 349.844 388.92 349.954 388.923 350.092C388.926 350.23 388.817 350.344 388.679 350.347L372.761 350.692C372.623 350.695 372.508 350.585 372.505 350.447Z" fill="#E0E0E0"/>
<path fill-rule="evenodd" clip-rule="evenodd" d="M370.261 354.925C370.258 354.787 370.367 354.673 370.505 354.67L386.423 354.326C386.561 354.323 386.676 354.432 386.679 354.57C386.682 354.708 386.572 354.822 386.434 354.825L370.516 355.17C370.378 355.173 370.264 355.063 370.261 354.925Z" fill="#E0E0E0"/>
<path fill-rule="evenodd" clip-rule="evenodd" d="M307.59 348.359C307.591 348.221 307.704 348.11 307.842 348.111L364.811 348.527C364.949 348.528 365.06 348.64 365.059 348.778C365.058 348.916 364.945 349.028 364.807 349.027L307.839 348.611C307.7 348.61 307.589 348.497 307.59 348.359Z" fill="#E0E0E0"/>
<path fill-rule="evenodd" clip-rule="evenodd" d="M312.801 350.637C312.802 350.499 312.915 350.388 313.053 350.389L370.022 350.804C370.16 350.805 370.271 350.918 370.27 351.056C370.269 351.194 370.156 351.305 370.018 351.304L313.05 350.889C312.912 350.888 312.8 350.775 312.801 350.637Z" fill="#E0E0E0"/>
<path fill-rule="evenodd" clip-rule="evenodd" d="M315.773 352.151C315.774 352.013 315.886 351.902 316.024 351.903L372.993 352.319C373.131 352.32 373.242 352.432 373.241 352.57C373.24 352.708 373.127 352.82 372.989 352.819L316.021 352.403C315.883 352.402 315.772 352.289 315.773 352.151Z" fill="#E0E0E0"/>
<path fill-rule="evenodd" clip-rule="evenodd" d="M311.278 354.357C311.279 354.219 311.392 354.108 311.53 354.109L368.499 354.525C368.637 354.526 368.748 354.638 368.747 354.776C368.746 354.915 368.633 355.026 368.495 355.025L311.526 354.609C311.388 354.608 311.277 354.495 311.278 354.357Z" fill="#E0E0E0"/>
<path d="M148.597 326.458H169.122L166.51 357.059H150.837L148.597 326.458Z" fill="#C4C4C4"/>
<path d="M171.734 327.951H146.358L147.969 322.727H170.123L171.734 327.951Z" fill="white"/>
<path d="M149.349 337.28H168.229L167.483 345.863H149.999L149.349 337.28Z" fill="#37474F"/>
</g>
<defs>
<clipPath id="clip0">
<rect width="600" height="600" fill="white"/>
</clipPath>
</defs>
</svg>
