<svg width="400" height="400" viewBox="0 0 400 400" fill="none" xmlns="http://www.w3.org/2000/svg">
<g clip-path="url(#clip0)">
<path d="M353.205 152.384L350.547 153.921L284.156 115.595L286.814 114.058L353.205 152.384Z" fill="#455A64"/>
<path d="M286.814 114.058L350.547 150.857V103.099L286.814 66.3096V114.058Z" fill="#407BFF"/>
<path opacity="0.85" d="M286.814 114.058L350.547 150.857V103.099L286.814 66.3096V114.058Z" fill="white"/>
<path d="M317.353 82.4084V133.23L314.695 131.694V80.8718L317.353 82.4084Z" fill="#37474F"/>
<path d="M318.675 81.6401L317.35 82.4084V133.23L318.675 132.462V81.6401Z" fill="#263238"/>
<path d="M317.353 82.4084L314.695 80.8718L316.028 80.1035L318.678 81.6401L317.353 82.4084Z" fill="#FAFAFA"/>
<path d="M281.507 117.123L353.196 158.487V101.572L281.498 60.1724L281.507 117.123ZM284.156 64.7733L350.547 103.099V153.921L284.156 115.595V64.7733Z" fill="#37474F"/>
<path d="M284.156 115.595L286.814 114.058V66.3095L284.156 64.7729V115.595Z" fill="#263238"/>
<path d="M281.506 60.1723L284.156 58.6445L355.854 100.035L353.204 101.571L281.506 60.1723Z" fill="#455A64"/>
<path d="M355.854 100.035L353.205 101.571V158.522L355.854 156.985V100.035Z" fill="#263238"/>
<path d="M317.353 83.9362L314.703 82.4084V83.945L317.353 85.4728V83.9362Z" fill="#263238"/>
<path d="M317.35 85.4726L318.675 84.7043L317.35 83.936V85.4726Z" fill="black"/>
<path d="M388 227.623L150.765 364.586L12 284.485L249.224 147.51L388 227.623Z" fill="#407BFF"/>
<path d="M150.765 364.586V374.932L12 294.819V284.485L150.765 364.586Z" fill="#407BFF"/>
<path opacity="0.15" d="M150.765 364.586V374.932L12 294.819V284.485L150.765 364.586Z" fill="black"/>
<path d="M388 227.623V237.957L150.764 374.932V364.586L388 227.623Z" fill="#407BFF"/>
<path opacity="0.1" d="M388 227.623V237.957L150.764 374.932V364.586L388 227.623Z" fill="black"/>
<path opacity="0.1" d="M247.352 277.043L209.382 256.01C206.837 254.601 206.904 250.92 209.498 249.603L261.37 223.273C262.433 222.733 263.694 222.75 264.742 223.319L301.607 243.331C304.14 244.707 304.134 248.345 301.597 249.712L250.83 277.063C249.743 277.649 248.432 277.642 247.352 277.043Z" fill="black"/>
<path d="M257.556 192.755L260.171 192.832L262.334 163.874L259.719 163.797L257.556 192.755Z" fill="#455A64"/>
<path d="M279.832 204.975L282.437 205.052L284.6 176.094L281.995 176.017L279.832 204.975Z" fill="#455A64"/>
<path d="M278.956 207.465H283.311L289.589 252.267C289.591 252.369 289.561 252.468 289.504 252.552C289.448 252.637 289.367 252.701 289.272 252.739C289.036 252.862 288.774 252.926 288.508 252.926C288.242 252.926 287.979 252.862 287.743 252.739C287.669 252.703 287.603 252.652 287.55 252.589C287.497 252.526 287.458 252.453 287.436 252.373L278.956 207.465Z" fill="#455A64"/>
<path d="M253.064 192.515H257.352L263.621 237.318C263.618 237.418 263.587 237.516 263.531 237.599C263.475 237.683 263.396 237.748 263.304 237.789C263.064 237.907 262.801 237.969 262.534 237.969C262.268 237.969 262.004 237.907 261.765 237.789C261.69 237.752 261.624 237.699 261.571 237.634C261.518 237.57 261.479 237.495 261.458 237.414L253.064 192.515Z" fill="#455A64"/>
<path d="M219.732 251.469L227.183 207.465H231.5L221.886 251.566C221.864 251.646 221.826 251.722 221.773 251.786C221.72 251.851 221.653 251.904 221.578 251.941C221.339 252.059 221.076 252.121 220.809 252.121C220.542 252.121 220.279 252.059 220.04 251.941C219.949 251.899 219.872 251.832 219.816 251.749C219.76 251.666 219.728 251.569 219.723 251.469H219.732Z" fill="#455A64"/>
<path d="M247.74 267.66L254.008 222.848H258.325L249.941 267.746C249.918 267.826 249.878 267.901 249.825 267.965C249.773 268.029 249.707 268.083 249.634 268.121C249.395 268.24 249.131 268.302 248.865 268.302C248.598 268.302 248.335 268.24 248.095 268.121C248.003 268.081 247.924 268.015 247.868 267.932C247.812 267.849 247.781 267.751 247.778 267.65L247.74 267.66Z" fill="#455A64"/>
<path d="M227.183 207.465H231.5L229.74 215.522C228.779 214.714 227.817 213.878 226.856 213.022C226.651 212.821 226.476 212.591 226.337 212.339L227.183 207.465Z" fill="#37474F"/>
<path d="M283.311 207.465L284.061 212.82C283.909 213.367 283.621 213.866 283.225 214.272C282.427 215.012 281.581 215.753 280.696 216.483L279.004 207.465H283.311Z" fill="#37474F"/>
<path d="M253.181 229.03L254.046 222.848H258.363L256.949 230.376C255.671 229.943 254.411 229.491 253.181 229.03Z" fill="#37474F"/>
<path d="M256.95 193.717C257.144 193.686 257.34 193.667 257.536 193.659L262.44 228.684L260.074 229.924L253.421 194.467C254.585 194.149 255.758 193.899 256.95 193.717Z" fill="#37474F"/>
<path d="M256.997 226.982C245.828 223.422 235.555 217.5 226.876 209.619C226.294 209.014 225.952 208.218 225.915 207.379V205.052C225.936 204.646 226.041 204.248 226.223 203.884C226.405 203.521 226.66 203.198 226.972 202.937C235.888 196.512 246.138 192.181 256.959 190.265C257.822 190.135 258.702 190.184 259.545 190.41C269.845 193.544 277.751 198.069 283.264 203.985C283.805 204.64 284.119 205.453 284.158 206.302V208.629C284.117 209.464 283.776 210.256 283.196 210.859C276.014 217.183 268.038 222.541 259.468 226.8C258.69 227.142 257.818 227.206 256.997 226.982Z" fill="#407BFF"/>
<path opacity="0.4" d="M225.906 205.052V207.379C225.943 208.218 226.285 209.014 226.867 209.619C235.544 217.503 245.818 223.425 256.989 226.982C257.432 227.108 257.896 227.144 258.354 227.088V190.208C257.882 190.172 257.408 190.191 256.941 190.265C246.118 192.177 235.868 196.509 226.954 202.937C226.644 203.199 226.39 203.522 226.21 203.886C226.03 204.249 225.926 204.647 225.906 205.052Z" fill="black"/>
<path opacity="0.5" d="M258.363 190.208V227.088C258.74 227.06 259.109 226.962 259.45 226.8C268.015 222.539 275.991 217.184 283.178 210.869C283.756 210.261 284.098 209.466 284.139 208.629V206.302C284.106 205.452 283.791 204.637 283.245 203.985C277.733 198.069 269.827 193.541 259.527 190.4C259.147 190.296 258.757 190.232 258.363 190.208Z" fill="black"/>
<path d="M283.176 205.869C276.994 211.551 268.168 217.406 259.448 221.781C258.677 222.126 257.811 222.194 256.996 221.973C245.826 218.442 235.551 212.538 226.875 204.667C226.748 204.561 226.648 204.427 226.582 204.276C226.516 204.125 226.486 203.96 226.494 203.795C226.502 203.63 226.549 203.469 226.63 203.325C226.711 203.182 226.824 203.058 226.961 202.966C235.879 196.546 246.128 192.218 256.948 190.304C257.811 190.174 258.691 190.223 259.534 190.448C269.834 193.582 277.74 198.101 283.253 204.004C283.481 204.266 283.601 204.605 283.586 204.952C283.572 205.299 283.425 205.627 283.176 205.869Z" fill="#407BFF"/>
<path opacity="0.3" d="M283.176 205.869C276.994 211.551 268.168 217.406 259.448 221.781C258.677 222.126 257.811 222.194 256.996 221.973C245.826 218.442 235.551 212.538 226.875 204.667C226.748 204.561 226.648 204.427 226.582 204.276C226.516 204.125 226.486 203.96 226.494 203.795C226.502 203.63 226.549 203.469 226.63 203.325C226.711 203.182 226.824 203.058 226.961 202.966C235.879 196.546 246.128 192.218 256.948 190.304C257.811 190.174 258.691 190.223 259.534 190.448C269.834 193.582 277.74 198.101 283.253 204.004C283.481 204.266 283.601 204.605 283.586 204.952C283.572 205.299 283.425 205.627 283.176 205.869Z" fill="black"/>
<path d="M289.704 171.306C285.837 166.183 280.981 161.888 275.424 158.676C269.867 155.464 263.722 153.4 257.352 152.606C256.527 152.53 255.696 152.69 254.958 153.068C254.639 153.281 254.375 153.566 254.186 153.9C253.998 154.234 253.89 154.608 253.872 154.991V164.797C253.883 165.16 254.021 165.508 254.262 165.78C254.502 166.052 254.83 166.232 255.189 166.287C261.568 167.073 267.723 169.133 273.289 172.346C278.855 175.558 283.718 179.857 287.589 184.987C287.8 185.269 288.103 185.468 288.446 185.549C288.789 185.63 289.149 185.588 289.464 185.429C289.781 185.215 290.044 184.929 290.233 184.596C290.421 184.262 290.53 183.889 290.55 183.507V173.7C290.501 172.838 290.208 172.008 289.704 171.306Z" fill="#407BFF"/>
<path opacity="0.5" d="M280.917 177.901L290.291 172.489C290.423 172.876 290.497 173.281 290.512 173.69V183.497C290.492 183.879 290.383 184.252 290.195 184.586C290.006 184.919 289.743 185.205 289.426 185.42C289.111 185.578 288.751 185.62 288.408 185.539C288.065 185.458 287.762 185.26 287.551 184.977C285.559 182.422 283.339 180.053 280.917 177.901Z" fill="black"/>
<path opacity="0.3" d="M280.916 177.901C273.692 171.527 264.711 167.486 255.149 166.306C254.791 166.251 254.463 166.071 254.222 165.799C253.982 165.527 253.844 165.179 253.832 164.816V155.01C253.85 154.627 253.958 154.253 254.147 153.919C254.335 153.585 254.6 153.3 254.919 153.087C255.657 152.709 256.487 152.549 257.313 152.625C263.689 153.414 269.841 155.476 275.406 158.688C280.97 161.9 285.832 166.198 289.703 171.325C289.959 171.686 290.157 172.085 290.289 172.508L280.916 177.901Z" fill="black"/>
<path d="M287.55 185.006C283.679 179.876 278.816 175.577 273.25 172.365C267.684 169.152 261.528 167.092 255.15 166.307C254.791 166.251 254.463 166.071 254.223 165.799C253.982 165.527 253.844 165.179 253.833 164.816V155.01C253.828 154.843 253.86 154.676 253.927 154.523C253.993 154.369 254.093 154.233 254.219 154.122C254.345 154.012 254.494 153.931 254.655 153.885C254.816 153.839 254.985 153.829 255.15 153.856C261.529 154.643 267.685 156.705 273.251 159.919C278.817 163.133 283.68 167.434 287.55 172.566C288.033 173.27 288.309 174.096 288.348 174.95V184.747C288.348 185.468 287.992 185.593 287.55 185.006Z" fill="#407BFF"/>
<path opacity="0.4" d="M287.55 185.006C283.679 179.876 278.816 175.577 273.25 172.365C267.684 169.152 261.528 167.092 255.15 166.307C254.791 166.251 254.463 166.071 254.223 165.799C253.982 165.527 253.844 165.179 253.833 164.816V155.01C253.828 154.843 253.86 154.676 253.927 154.523C253.993 154.369 254.093 154.233 254.219 154.122C254.345 154.012 254.494 153.931 254.655 153.885C254.816 153.839 254.985 153.829 255.15 153.856C261.529 154.643 267.685 156.705 273.251 159.919C278.817 163.133 283.68 167.434 287.55 172.566C288.033 173.27 288.309 174.096 288.348 174.95V184.747C288.348 185.468 287.992 185.593 287.55 185.006Z" fill="black"/>
<path opacity="0.1" d="M220.086 232.022C220.086 241.438 207.419 249.07 191.794 249.07C176.169 249.07 163.502 241.438 163.502 232.022C163.502 222.607 176.169 214.975 191.794 214.975C207.419 214.975 220.086 222.607 220.086 232.022Z" fill="black"/>
<path d="M203.99 217.466C198.086 214.051 188.516 214.051 182.603 217.466C179.651 219.169 178.183 221.399 178.183 223.638C178.183 223.865 178.183 225.26 178.183 225.56C178.232 227.758 179.7 229.947 182.603 231.626C188.516 235.033 198.086 235.033 203.99 231.626C206.91 229.939 208.386 227.733 208.419 225.519V223.597C208.402 221.375 206.926 219.161 203.99 217.466Z" fill="#37474F"/>
<path d="M182.603 229.81C176.699 226.404 176.699 220.889 182.603 217.466C188.507 214.043 198.086 214.052 203.99 217.466C209.894 220.88 209.894 226.387 203.99 229.81C198.086 233.232 188.515 233.216 182.603 229.81Z" fill="#455A64"/>
<path d="M195.152 222.178V185.17H191.421V222.178C191.41 222.359 191.456 222.539 191.552 222.693C191.648 222.847 191.789 222.967 191.957 223.038C192.369 223.25 192.827 223.36 193.291 223.36C193.755 223.36 194.212 223.25 194.625 223.038C194.79 222.965 194.929 222.844 195.023 222.69C195.117 222.537 195.162 222.358 195.152 222.178Z" fill="#37474F"/>
<path d="M224.299 150.977C207.153 141.075 179.359 141.075 162.214 150.977C153.641 155.925 149.359 162.413 149.367 168.901V170.158C149.367 176.647 153.641 183.135 162.214 188.082C179.359 197.985 207.153 197.985 224.299 188.082C232.871 183.135 237.153 176.647 237.153 170.158V168.901C237.153 162.413 232.871 155.925 224.299 150.977Z" fill="#455A64"/>
<path d="M224.349 147.676C207.204 137.782 179.41 137.782 162.265 147.676C153.692 152.632 149.41 159.112 149.41 165.6C149.41 166.938 149.41 166.411 149.41 167.766C149.41 174.254 153.692 180.742 162.265 185.689C179.41 195.584 207.204 195.584 224.349 185.689C232.922 180.734 237.204 173.345 237.204 166.865C237.204 165.527 237.204 166.938 237.204 165.6C237.196 159.12 232.914 152.64 224.349 147.676Z" fill="#407BFF"/>
<path opacity="0.4" d="M224.349 147.676C207.204 137.782 179.41 137.782 162.265 147.676C153.692 152.632 149.41 159.112 149.41 165.6C149.41 166.938 149.41 166.411 149.41 167.766C149.41 174.254 153.692 180.742 162.265 185.689C179.41 195.584 207.204 195.584 224.349 185.689C232.922 180.734 237.204 173.345 237.204 166.865C237.204 165.527 237.204 166.938 237.204 165.6C237.196 159.12 232.914 152.64 224.349 147.676Z" fill="white"/>
<path opacity="0.1" d="M224.349 147.676C207.204 137.782 179.41 137.782 162.265 147.676C153.692 152.632 149.41 159.112 149.41 165.6C149.41 166.938 149.41 166.411 149.41 167.766C149.41 174.254 153.692 180.742 162.265 185.689C179.41 195.584 207.204 195.584 224.349 185.689C232.922 180.734 237.204 173.345 237.204 166.865C237.204 165.527 237.204 166.938 237.204 165.6C237.196 159.12 232.914 152.64 224.349 147.676Z" fill="black"/>
<path d="M162.255 183.532C145.109 173.638 145.109 157.579 162.255 147.685C179.4 137.79 207.194 137.79 224.339 147.685C241.484 157.579 241.484 173.638 224.339 183.532C207.194 193.427 179.4 193.435 162.255 183.532Z" fill="#407BFF"/>
<path opacity="0.85" d="M162.215 183.532C145.07 173.637 145.07 157.579 162.215 147.684C179.36 137.79 207.154 137.79 224.299 147.684C241.445 157.579 241.445 173.637 224.299 183.532C207.154 193.426 179.36 193.434 162.215 183.532Z" fill="white"/>
<path d="M238.108 251.733L233.377 254.201L237.079 261.297L241.81 258.829L238.108 251.733Z" fill="#FFA8A7"/>
<path d="M235.583 259.758C238.226 260.447 239.349 259.304 240.807 254.954C240.891 254.863 241.001 254.807 241.12 254.795C241.239 254.784 241.359 254.817 241.461 254.889L244.491 259.312C244.588 259.411 244.665 259.531 244.716 259.664C244.767 259.797 244.792 259.939 244.788 260.082C244.783 260.224 244.751 260.363 244.692 260.488C244.634 260.613 244.55 260.722 244.448 260.806C241.155 264.26 240.664 266.863 238.877 269.643C236.819 272.887 235.574 273.446 229.987 273.997C227.401 274.252 227.816 271.234 228.828 270.76C231.776 266.724 232.976 266.168 234.709 261.173C234.886 260.624 235.187 260.138 235.583 259.758Z" fill="#263238"/>
<path d="M221.8 210.9C220.389 208.561 221.166 207.16 224.923 204.527C224.986 204.42 225.008 204.299 224.986 204.182C224.963 204.064 224.898 203.958 224.799 203.881L219.698 202.232C219.576 202.167 219.439 202.127 219.297 202.116C219.155 202.105 219.011 202.122 218.876 202.166C218.74 202.21 218.617 202.281 218.513 202.373C218.41 202.464 218.33 202.575 218.278 202.697C215.901 206.835 213.544 208.046 211.386 210.548C208.86 213.442 208.067 213.213 209.125 218.726C209.615 221.278 214.228 220.843 214.396 219.737C217.428 215.764 216.394 215.219 220.692 212.14C221.167 211.814 221.548 211.388 221.8 210.9Z" fill="#263238"/>
<path d="M232.338 254.994C215.981 217.725 218.568 199.826 245.177 191.131L261.619 201.736C233.024 208.84 229.603 218.499 240.509 253.327C237.917 255.697 236.082 255.929 232.338 254.994Z" fill="#263238"/>
<path d="M216.475 207.747C273.732 262.982 287.257 221.776 275.352 202.569L256.38 200.593C266.152 218.602 266.333 237.101 222.988 202.569C219.726 202.229 212.841 206.594 216.475 207.747Z" fill="#263238"/>
<path d="M264.878 212.808C276.358 210.547 276.621 203.634 275.856 194.299L245.675 186.128C245.128 189.238 245.675 190.631 242.173 193.132L264.878 212.808Z" fill="#263238"/>
<path opacity="0.1" d="M203.69 204.997L223.849 193.354C224.026 193.254 224.227 193.202 224.43 193.202C224.634 193.202 224.834 193.254 225.011 193.354L259.988 213.559C260.028 213.58 260.062 213.612 260.086 213.651C260.11 213.69 260.123 213.735 260.123 213.78C260.123 213.826 260.11 213.871 260.086 213.91C260.062 213.949 260.028 213.981 259.988 214.002L239.635 225.756L203.69 204.997Z" fill="black"/>
<path d="M205.194 202.543V202.995C205.191 203.322 205.275 203.643 205.437 203.927C205.6 204.211 205.834 204.446 206.117 204.61L238.695 223.422C238.975 223.584 239.293 223.67 239.617 223.671C239.941 223.667 240.258 223.581 240.54 223.422L258.383 213.199C258.666 213.036 258.901 212.8 259.063 212.517C259.225 212.233 259.309 211.911 259.306 211.585V210.957C259.307 210.999 259.296 211.04 259.275 211.076C259.254 211.112 259.223 211.141 259.186 211.16L239.682 222.425L205.194 202.543Z" fill="#37474F"/>
<path d="M239.634 222.435V223.671C239.311 223.667 238.993 223.582 238.712 223.422L206.134 204.61C205.851 204.446 205.617 204.211 205.455 203.927C205.292 203.643 205.209 203.322 205.211 202.995V202.543L239.634 222.435Z" fill="#263238"/>
<path d="M205.194 202.543L224.514 191.388C224.683 191.293 224.873 191.243 225.067 191.243C225.261 191.243 225.452 191.293 225.621 191.388L259.14 210.763C259.178 210.784 259.211 210.814 259.233 210.852C259.256 210.889 259.268 210.932 259.268 210.976C259.268 211.019 259.256 211.062 259.233 211.099C259.211 211.137 259.178 211.167 259.14 211.188L239.635 222.453L205.194 202.543Z" fill="#455A64"/>
<path d="M239.818 220.792L250.235 214.786L219.761 197.192L209.289 203.17L239.818 220.792Z" fill="#37474F"/>
<path d="M209.289 203.17L209.686 203.401L219.761 197.644L249.838 215.008L250.235 214.786L219.761 197.192L209.289 203.17Z" fill="#263238"/>
<path d="M244.938 204.075L244.744 204.185L239.633 207.128L230.554 201.888L230.361 201.777L235.666 198.723L244.938 204.075Z" fill="#263238"/>
<path d="M244.746 204.185L239.635 207.128L230.556 201.888L235.667 198.936L244.746 204.185Z" fill="#37474F"/>
<path d="M239.108 222.702C238.801 222.821 238.471 222.871 238.142 222.847C237.813 222.823 237.494 222.726 237.207 222.564L204.768 203.825C204.486 203.665 204.243 203.443 204.058 203.177C203.873 202.91 203.75 202.605 203.698 202.285L200.146 181.074C200.137 180.951 200.137 180.828 200.146 180.705C200.145 180.414 200.202 180.125 200.313 179.856C200.423 179.587 200.586 179.342 200.792 179.136L234.476 198.603C234.684 198.724 234.863 198.89 235 199.087C235.137 199.285 235.229 199.51 235.27 199.747L239.108 222.702Z" fill="#37474F"/>
<path d="M239.634 222.435L239.413 222.564C239.317 222.621 239.214 222.667 239.108 222.702L235.316 199.784C235.276 199.547 235.184 199.322 235.047 199.124C234.91 198.926 234.731 198.761 234.523 198.64L200.811 179.173C200.947 179.042 201.099 178.927 201.263 178.832L235.049 198.336C235.255 198.457 235.433 198.623 235.568 198.82C235.704 199.018 235.794 199.243 235.833 199.48L239.634 222.435Z" fill="#455A64"/>
<path d="M234.957 199.074L235.483 198.77C235.642 198.977 235.746 199.222 235.787 199.48L239.635 222.435L239.413 222.564C239.315 222.617 239.213 222.663 239.109 222.702L235.317 199.784C235.255 199.522 235.131 199.279 234.957 199.074Z" fill="#263238"/>
<path d="M220.84 203.152C220.33 201.383 219.161 199.877 217.574 198.945C216.005 198.022 214.926 198.456 215.166 199.867C215.669 201.639 216.84 203.147 218.432 204.075C220 204.988 221.079 204.573 220.84 203.152Z" fill="#407BFF"/>
<path d="M258.232 211.289C290.743 212.937 291.587 204.324 288.272 177.024L277.396 179.61C279.978 199.327 287.497 205.25 256.737 206.131C250.729 203.651 246.292 203.548 242.284 208.589C244.33 212.487 247.076 207.73 250.011 209.897C252.947 212.064 254.71 212.585 258.232 211.289Z" fill="#FFA8A7"/>
<path d="M233.509 197.383C239.494 191.943 242.2 179.559 242.758 168.003L251.463 172.175C248.435 193.65 246.048 199.505 236.411 203.187C235.504 197.383 235.867 199.197 233.509 197.383Z" fill="#FFA8A7"/>
<path d="M254.289 152.273C246.414 148.148 244.766 161.117 240.349 166.651C244.896 173.441 250.003 173.24 255.703 172.013C255.703 172.013 262.164 156.398 254.289 152.273Z" fill="#9FBDFF"/>
<path d="M245.476 171.449C247.108 162.562 247.652 160.93 247.652 160.93L248.015 172.718L245.476 171.449Z" fill="black" fill-opacity="0.1"/>
<path d="M284.632 160.581C270.717 151.832 251.874 147.217 249.346 153.16C246.817 159.102 247.641 180.278 245.114 189.948C247.09 199.446 266.497 204.088 276.939 199.791C276.157 187.183 280.246 177.703 284.632 160.581Z" fill="#9FBDFF"/>
<path d="M275.55 187.023C275.002 181.461 275.076 178.656 276.207 172.812L279.568 188.466L275.55 187.023Z" fill="black" fill-opacity="0.1"/>
<path d="M281.824 160.518C272.819 162.948 276.439 187.637 276.439 187.637C284.126 190.989 287.52 190.399 291.661 184.097C291.661 184.097 290.829 158.088 281.824 160.518Z" fill="#9FBDFF"/>
<path opacity="0.1" d="M253.245 198.809C252.535 199.606 252.653 201.4 252.801 202.198L250.582 202.796C251.47 199.606 254.133 197.812 253.245 198.809Z" fill="black"/>
<path d="M272.136 154.88C270.27 152.063 271.711 143.002 272.665 138.823C270.174 140.108 264.711 143.252 262.785 145.551C260.859 147.849 261.738 153.936 262.418 156.692C263.468 160.949 269.917 159.892 272.136 154.88Z" fill="#FFA8A7"/>
<path d="M271.262 150.243C271.138 148.962 271.212 146.73 271.586 145.465C270.843 147.835 261.894 147.381 261.878 147.859C261.862 148.337 261.381 149.918 261.768 151.207C262.202 152.655 271.393 151.601 271.262 150.243Z" fill="black" fill-opacity="0.1"/>
<path d="M255.585 135.64C253.391 143.345 256.318 149.608 263.952 149.601C270.022 150.233 275.543 144.98 276.284 137.869C277.025 130.757 273.986 124.54 267.917 123.908C261.847 123.275 256.326 128.528 255.585 135.64Z" fill="#FFA8A7"/>
<path d="M253.583 123.175C254.058 122.516 254.712 121.961 255.495 121.55C256.278 121.14 257.17 120.886 258.102 120.809C259.034 120.731 259.981 120.831 260.87 121.101C261.76 121.372 262.569 121.806 263.235 122.369C263.73 121.677 264.427 121.1 265.264 120.689C266.101 120.279 267.053 120.048 268.037 120.016C269.02 119.984 270.005 120.153 270.905 120.507C271.805 120.86 272.593 121.389 273.198 122.046C275.872 122.244 275.535 124.16 275.947 125.582C277.022 126.428 279.338 126.098 279.613 127.627C279.888 129.156 280.649 128.677 280.876 129.324C281.103 129.97 281.112 130.651 280.902 131.291C280.691 131.931 280.269 132.505 279.683 132.951C279.096 133.396 278.368 133.696 277.577 133.817C277.828 134.309 277.956 134.836 277.954 135.365C277.952 135.894 277.82 136.414 277.566 136.893C277.313 137.373 276.942 137.802 276.477 138.154C276.012 138.506 275.462 138.775 274.862 138.943L274.298 138.701C273.293 137.606 272.694 136.297 272.58 134.941C272.465 133.586 272.839 132.244 273.655 131.086C273.585 131.084 273.515 131.079 273.446 131.071C272.413 131.456 271.232 131.507 270.133 131.213C269.033 130.92 268.093 130.303 267.493 129.481C266.653 129.886 265.684 130.081 264.7 130.041C263.715 130.002 262.757 129.731 261.938 129.26C261.711 129.093 261.445 128.967 261.158 128.889C260.79 128.867 260.425 128.929 260.103 129.07C259.213 129.39 258.219 129.479 257.25 129.324C256.805 129.245 256.387 129.075 256.035 128.83C255.684 128.585 255.41 128.273 255.239 127.922L255.167 127.916C254.62 127.77 254.127 127.504 253.742 127.146C253.357 126.789 253.095 126.354 252.985 125.888C252.764 124.944 252.978 123.976 253.583 123.175Z" fill="#263238"/>
<path d="M260.117 138.924C261.286 138.327 261.902 137.891 262.484 136.867L261.667 140.372C260.566 140.188 259.201 139.393 260.117 138.924Z" fill="#E4897B"/>
<path d="M264.692 143.639C264.501 143.649 264.308 143.651 264.116 143.643C264.098 143.644 264.081 143.643 264.064 143.64C264.047 143.636 264.032 143.631 264.018 143.623C264.005 143.615 263.995 143.606 263.988 143.595C263.981 143.585 263.977 143.574 263.978 143.562C263.978 143.551 263.983 143.54 263.991 143.531C263.999 143.521 264.01 143.512 264.024 143.506C264.038 143.5 264.054 143.496 264.071 143.494C264.088 143.492 264.106 143.493 264.123 143.496C264.609 143.524 265.093 143.477 265.534 143.359C265.976 143.241 266.363 143.055 266.662 142.817C266.68 142.802 266.706 142.792 266.735 142.789C266.765 142.786 266.796 142.791 266.821 142.802C266.834 142.808 266.845 142.815 266.853 142.824C266.862 142.832 266.867 142.841 266.87 142.851C266.873 142.86 266.873 142.87 266.87 142.88C266.867 142.889 266.86 142.898 266.852 142.906C266.592 143.116 266.267 143.29 265.897 143.416C265.526 143.542 265.116 143.618 264.692 143.639Z" fill="#263238"/>
<path d="M268.402 135.718C268.594 136.355 268.385 137.051 267.868 137.267C267.351 137.482 266.864 137.109 266.671 136.472C266.479 135.835 266.688 135.138 267.211 134.932C267.734 134.725 268.209 135.08 268.402 135.718Z" fill="#263238"/>
<path d="M258.951 133.421C259.308 133.866 259.341 134.597 258.967 135.088C258.593 135.579 258.074 135.542 257.717 135.097C257.361 134.652 257.321 133.933 257.702 133.43C258.082 132.926 258.574 133.014 258.951 133.421Z" fill="#263238"/>
<path d="M270.6 133.95C270.538 133.983 270.465 133.991 270.391 133.973C270.316 133.955 270.243 133.911 270.182 133.847C269.792 133.441 269.343 133.134 268.873 132.951C268.404 132.769 267.927 132.716 267.483 132.798C267.437 132.812 267.388 132.815 267.337 132.805C267.286 132.796 267.235 132.774 267.187 132.743C267.14 132.711 267.096 132.669 267.058 132.62C267.021 132.571 266.991 132.516 266.97 132.457C266.928 132.339 266.925 132.216 266.959 132.114C266.994 132.012 267.065 131.939 267.156 131.909C267.714 131.79 268.317 131.843 268.914 132.063C269.511 132.284 270.083 132.666 270.581 133.175C270.624 133.216 270.661 133.266 270.69 133.321C270.719 133.376 270.74 133.435 270.75 133.494C270.76 133.554 270.761 133.613 270.751 133.668C270.741 133.722 270.72 133.772 270.692 133.813C270.672 133.868 270.64 133.915 270.6 133.95Z" fill="#263238"/>
<path d="M257.176 132.12C257.097 132.121 257.021 132.09 256.96 132.033C256.89 131.966 256.845 131.87 256.836 131.766C256.826 131.661 256.853 131.555 256.91 131.472C257.254 130.975 257.692 130.574 258.19 130.301C258.689 130.027 259.234 129.889 259.784 129.895C259.829 129.899 259.873 129.913 259.913 129.936C259.954 129.959 259.989 129.991 260.019 130.031C260.048 130.07 260.07 130.116 260.084 130.165C260.097 130.214 260.102 130.266 260.098 130.318C260.096 130.37 260.084 130.422 260.064 130.469C260.044 130.516 260.016 130.558 259.981 130.592C259.946 130.626 259.906 130.652 259.862 130.667C259.818 130.683 259.772 130.688 259.727 130.682C259.287 130.683 258.852 130.799 258.455 131.023C258.059 131.246 257.711 131.57 257.44 131.971C257.408 132.017 257.368 132.055 257.322 132.081C257.277 132.107 257.226 132.12 257.176 132.12Z" fill="#263238"/>
<path d="M274.464 137.186C273.478 138.704 273.644 140.562 274.835 141.336C276.026 142.109 277.791 141.506 278.777 139.987C279.94 138.462 279.807 136.603 278.406 135.838C277.215 135.064 275.451 135.668 274.464 137.186Z" fill="#FFA8A7"/>
<path d="M220.871 172.509C219.181 172.54 217.516 172.146 216.079 171.374C215.55 171.197 215.095 170.886 214.774 170.48C214.454 170.075 214.282 169.595 214.282 169.103C214.282 168.611 214.454 168.131 214.774 167.726C215.095 167.32 215.55 167.009 216.079 166.832C217.531 166.089 219.185 165.697 220.871 165.697C222.557 165.697 224.211 166.089 225.663 166.832C226.192 167.009 226.647 167.32 226.967 167.726C227.288 168.131 227.46 168.611 227.46 169.103C227.46 169.595 227.288 170.075 226.967 170.48C226.647 170.886 226.192 171.197 225.663 171.374C224.227 172.148 222.561 172.542 220.871 172.509Z" fill="#407BFF"/>
<path opacity="0.05" d="M220.871 172.509C219.181 172.54 217.516 172.146 216.079 171.374C215.55 171.197 215.095 170.886 214.774 170.48C214.454 170.075 214.282 169.595 214.282 169.103C214.282 168.611 214.454 168.131 214.774 167.726C215.095 167.32 215.55 167.009 216.079 166.832C217.531 166.089 219.185 165.697 220.871 165.697C222.557 165.697 224.211 166.089 225.663 166.832C226.192 167.009 226.647 167.32 226.967 167.726C227.288 168.131 227.46 168.611 227.46 169.103C227.46 169.595 227.288 170.075 226.967 170.48C226.647 170.886 226.192 171.197 225.663 171.374C224.227 172.148 222.561 172.542 220.871 172.509Z" fill="black"/>
<path d="M226.317 168.681C226.762 168.706 227.207 168.651 227.625 168.519C228.365 168.176 228.919 167.593 229.167 166.897C229.55 166.086 230.166 164.407 229.727 163.523C229.176 162.404 227.616 162.363 226.579 162.331H226.215L226.159 163.402C226.28 163.402 226.476 163.402 226.616 163.402C227.196 163.402 228.485 163.596 228.625 163.88C229.111 164.578 227.868 167.246 227.336 167.538C226.673 167.657 225.99 167.657 225.327 167.538L224.926 168.43C225.372 168.574 225.842 168.659 226.317 168.681Z" fill="#407BFF"/>
<path opacity="0.5" d="M226.317 168.681C226.762 168.706 227.207 168.651 227.625 168.519C228.365 168.176 228.919 167.593 229.167 166.897C229.55 166.086 230.166 164.407 229.727 163.523C229.176 162.404 227.616 162.363 226.579 162.331H226.215L226.159 163.402C226.28 163.402 226.476 163.402 226.616 163.402C227.196 163.402 228.485 163.596 228.625 163.88C229.111 164.578 227.868 167.246 227.336 167.538C226.673 167.657 225.99 167.657 225.327 167.538L224.926 168.43C225.372 168.574 225.842 168.659 226.317 168.681Z" fill="black"/>
<path d="M215.426 161.05C215.547 160.595 216.061 160.141 216.986 159.784C219.476 158.96 222.223 158.937 224.73 159.719C225.665 160.06 226.188 160.53 226.319 160.952C226.72 163.945 226.15 167.44 224.936 169.371V169.411C224.692 169.754 224.347 170.034 223.936 170.222C223.032 170.635 222.028 170.855 221.006 170.865C219.985 170.875 218.975 170.674 218.06 170.279C217.642 170.094 217.29 169.814 217.042 169.468V169.428C215.79 167.513 215.174 164.034 215.454 161.033L215.426 161.05Z" fill="#407BFF"/>
<path opacity="0.4" d="M215.426 161.05C215.547 160.595 216.061 160.141 216.986 159.784C219.476 158.96 222.223 158.937 224.73 159.719C225.665 160.06 226.188 160.53 226.319 160.952C226.72 163.945 226.15 167.44 224.936 169.371V169.411C224.692 169.754 224.347 170.034 223.936 170.222C223.032 170.635 222.028 170.855 221.006 170.865C219.985 170.875 218.975 170.674 218.06 170.279C217.642 170.094 217.29 169.814 217.042 169.468V169.428C215.79 167.513 215.174 164.034 215.454 161.033L215.426 161.05Z" fill="black"/>
<path d="M216.986 159.752C214.856 160.563 214.875 161.885 216.986 162.672C219.494 163.454 222.241 163.431 224.731 162.607C226.861 161.796 226.842 160.474 224.731 159.687C222.223 158.905 219.476 158.928 216.986 159.752Z" fill="#407BFF"/>
<path opacity="0.4" d="M217.744 160.239C216.025 160.782 216.034 161.634 217.744 162.144C219.789 162.653 221.961 162.633 223.994 162.088C225.713 161.544 225.703 160.693 223.994 160.182C221.949 159.672 219.776 159.691 217.744 160.239Z" fill="black"/>
<path d="M217.751 161.406C217.445 161.499 217.155 161.63 216.892 161.796C217.16 161.952 217.453 162.075 217.761 162.161C219.806 162.669 221.978 162.65 224.011 162.104C224.318 162.016 224.608 161.887 224.87 161.723C224.606 161.558 224.312 161.432 224.001 161.35C221.956 160.841 219.784 160.861 217.751 161.406Z" fill="#263238"/>
<path opacity="0.1" d="M183.494 159.888C178.601 162.367 178.601 166.387 183.494 168.867C188.388 171.346 196.299 171.339 201.184 168.867C206.07 166.395 206.078 162.367 201.184 159.888C196.291 157.409 188.347 157.409 183.494 159.888Z" fill="black"/>
<path d="M200.141 165.663C204.301 161.922 206.751 146.702 202.687 143.739H182.022C177.967 146.702 180.4 161.915 184.561 165.663L184.674 165.763L184.82 165.884C184.942 165.984 185.064 166.084 185.201 166.184L185.299 166.248L185.615 166.463C185.793 166.57 185.972 166.677 186.15 166.762C188.073 167.622 190.199 168.069 192.355 168.069C194.511 168.069 196.637 167.622 198.559 166.762C198.745 166.67 198.924 166.568 199.094 166.456L199.394 166.263L199.516 166.177C199.641 166.087 199.76 165.992 199.873 165.892L200.043 165.749L200.141 165.663Z" fill="#407BFF"/>
<path opacity="0.5" d="M200.141 165.663C204.301 161.922 206.751 146.702 202.687 143.739H182.022C177.967 146.702 180.4 161.915 184.561 165.663L184.674 165.763L184.82 165.884C184.942 165.984 185.064 166.084 185.201 166.184L185.299 166.248L185.615 166.463C185.793 166.57 185.972 166.677 186.15 166.762C188.073 167.622 190.199 168.069 192.355 168.069C194.511 168.069 196.637 167.622 198.559 166.762C198.745 166.67 198.924 166.568 199.094 166.456L199.394 166.263L199.516 166.177C199.641 166.087 199.76 165.992 199.873 165.892L200.043 165.749L200.141 165.663Z" fill="white"/>
<path d="M183.814 142.539C179.102 144.938 179.102 148.822 183.814 151.221C188.526 153.619 196.174 153.612 200.895 151.221C205.615 148.829 205.607 144.938 200.895 142.539C196.183 140.141 188.526 140.141 183.814 142.539Z" fill="#407BFF"/>
<path opacity="0.7" d="M183.814 142.539C179.102 144.938 179.102 148.822 183.814 151.221C188.526 153.619 196.174 153.612 200.895 151.221C205.615 148.829 205.607 144.938 200.895 142.539C196.183 140.141 188.526 140.141 183.814 142.539Z" fill="white"/>
<path d="M192.356 151.385C197.251 151.385 201.22 149.368 201.22 146.88C201.22 144.392 197.251 142.375 192.356 142.375C187.46 142.375 183.491 144.392 183.491 146.88C183.491 149.368 187.46 151.385 192.356 151.385Z" fill="#407BFF"/>
<path d="M198.624 146.716C196.681 145.85 194.533 145.399 192.355 145.399C190.177 145.399 188.029 145.85 186.086 146.716C185.247 147.115 184.533 147.692 184.01 148.393C184.534 149.093 185.247 149.667 186.086 150.064C188.028 150.934 190.176 151.387 192.355 151.387C194.534 151.387 196.682 150.934 198.624 150.064C199.461 149.665 200.174 149.091 200.701 148.393C200.175 147.693 199.462 147.117 198.624 146.716Z" fill="#455A64"/>
<path d="M192.622 148.015C190.208 148.33 187.742 148.084 185.469 147.301C181.527 145.995 180.911 143.667 180.911 143.667C180.911 143.667 184.269 141.39 186.872 141.583C184.362 140.907 181.741 140.61 179.119 140.704C179.119 140.704 176.88 139.626 177.926 136.214C177.926 136.214 180.359 135.079 185.412 136.314C183.463 134.881 181.17 133.858 178.705 133.323C178.348 133.28 179.605 128.818 180.376 126.855C181.146 124.891 181.941 125.32 183.75 125.741C185.558 126.162 191.049 128.596 191.552 129.853C192.054 131.109 190.862 133.958 190.862 133.958C191.944 133.374 192.816 132.533 193.376 131.531C194.65 131.802 195.799 132.41 196.669 133.273C198.08 134.7 197.48 135.414 196.75 136.528C196.022 137.668 195.112 138.712 194.05 139.626C194.05 139.626 195.866 139.305 198.105 135.907C198.762 137.516 199.161 139.198 199.289 140.904C199.265 142.946 196.41 146.858 192.622 148.015Z" fill="#407BFF"/>
<path opacity="0.2" d="M192.622 148.015C190.208 148.33 187.742 148.084 185.469 147.301C181.527 145.995 180.911 143.667 180.911 143.667C180.911 143.667 184.269 141.39 186.872 141.583C184.362 140.907 181.741 140.61 179.119 140.704C179.119 140.704 176.88 139.626 177.926 136.214C177.926 136.214 180.359 135.079 185.412 136.314C183.463 134.881 181.17 133.858 178.705 133.323C178.348 133.28 179.605 128.818 180.376 126.855C181.146 124.891 181.941 125.32 183.75 125.741C185.558 126.162 191.049 128.596 191.552 129.853C192.054 131.109 190.862 133.958 190.862 133.958C191.944 133.374 192.816 132.533 193.376 131.531C194.65 131.802 195.799 132.41 196.669 133.273C198.08 134.7 197.48 135.414 196.75 136.528C196.022 137.668 195.112 138.712 194.05 139.626C194.05 139.626 195.866 139.305 198.105 135.907C198.762 137.516 199.161 139.198 199.289 140.904C199.265 142.946 196.41 146.858 192.622 148.015Z" fill="black"/>
<path d="M192.508 148.194C192.469 148.175 192.436 148.148 192.415 148.113C192.393 148.079 192.383 148.04 192.387 148.001C192.922 141.19 186.069 129.539 182.606 126.919C182.567 126.882 182.546 126.834 182.544 126.784C182.543 126.733 182.563 126.685 182.6 126.646C182.636 126.608 182.688 126.583 182.744 126.575C182.8 126.567 182.858 126.578 182.906 126.605C186.426 129.268 193.393 141.112 192.857 148.022C192.855 148.049 192.847 148.076 192.833 148.1C192.82 148.125 192.8 148.147 192.777 148.165C192.754 148.183 192.727 148.196 192.697 148.205C192.668 148.213 192.637 148.217 192.606 148.215C192.572 148.212 192.54 148.205 192.508 148.194Z" fill="white"/>
<path d="M191.917 149.464C192.675 150.091 193.585 150.557 194.579 150.826C195.573 151.096 196.623 151.163 197.65 151.021C198.677 150.879 199.654 150.532 200.506 150.008C201.358 149.483 202.062 148.794 202.566 147.994C202.745 147.756 202.828 147.471 202.801 147.187C202.703 146.913 202.507 146.675 202.242 146.509C200.975 145.578 199.454 144.956 197.83 144.703C198.77 144.728 199.71 144.69 200.644 144.588C201.916 144.57 203.187 144.678 204.431 144.91C204.431 144.91 206.516 144.238 206.118 141.169C206.118 141.169 204.156 139.912 199.63 140.405C201.524 139.387 203.657 138.764 205.867 138.584C206.175 138.584 205.753 134.593 205.372 132.809C204.991 131.024 204.245 131.309 202.623 131.459C201.001 131.609 195.891 133.094 195.283 134.122C194.675 135.15 195.283 137.742 195.283 137.742C194.434 137.114 193.804 136.287 193.466 135.357C192.327 135.452 191.247 135.848 190.368 136.493C188.941 137.556 189.354 138.234 189.817 139.291C190.276 140.359 190.907 141.364 191.69 142.275C191.47 142.1 191.231 141.945 190.976 141.811C190.579 141.54 190.165 141.326 189.776 141.026C189.049 140.448 188.46 139.749 188.04 138.97C187.164 140.184 186.548 141.529 186.224 142.939C185.903 144.362 186.174 145.839 186.986 147.101C187.479 147.823 188.185 148.414 189.029 148.81C189.873 149.206 190.824 149.393 191.779 149.35C191.821 149.392 191.867 149.43 191.917 149.464Z" fill="#407BFF"/>
<path d="M191.764 149.85C191.8 149.836 191.83 149.814 191.853 149.787C191.876 149.759 191.89 149.727 191.894 149.693C192.437 143.753 200.077 134.472 203.451 132.609C203.496 132.582 203.528 132.542 203.54 132.495C203.553 132.449 203.544 132.4 203.516 132.359C203.485 132.32 203.439 132.293 203.386 132.283C203.334 132.272 203.279 132.279 203.232 132.302C199.801 134.201 192.04 143.632 191.488 149.664C191.486 149.688 191.489 149.711 191.497 149.734C191.506 149.756 191.519 149.777 191.536 149.795C191.553 149.813 191.575 149.827 191.598 149.838C191.622 149.849 191.648 149.855 191.675 149.857C191.705 149.862 191.736 149.859 191.764 149.85Z" fill="white"/>
<path d="M114.311 227.166L114.458 227.013L114.592 226.851L114.311 227.166ZM114.311 227.166L114.592 226.851L114.821 226.508L114.311 227.166ZM114.592 226.851L114.714 226.681L114.821 226.508L114.592 226.851ZM113.988 227.435L114.154 227.308L114.311 227.166L113.988 227.435ZM114.821 226.508L114.911 226.332L114.983 226.155L114.821 226.508ZM114.821 226.508L114.983 226.155L115.069 225.811L114.821 226.508ZM114.983 226.155L115.037 225.981L115.069 225.811L114.983 226.155ZM35.5805 273.403L114.311 227.166L114.821 226.508L35.5805 273.403ZM35.5805 273.403L113.988 227.435L114.311 227.166L35.5805 273.403ZM35.5805 273.403L113.815 227.547L113.988 227.435L35.5805 273.403Z" fill="#80909E"/>
<path d="M32.6135 271.837L30.8657 270.273L30.9448 270.362L32.6135 271.837ZM32.5538 271.727L30.8059 270.164L30.8657 270.273L32.5538 271.727ZM32.515 271.598L30.7671 270.034L30.8059 270.164L32.515 271.598ZM32.6926 271.926L32.6135 271.837L30.9448 270.362L32.6926 271.926ZM32.4987 271.449L30.7507 269.885L30.7671 270.034L32.4987 271.449ZM32.6135 271.837L32.5538 271.727L30.8657 270.273L32.6135 271.837ZM32.5538 271.727L32.515 271.598L30.8059 270.164L32.5538 271.727ZM32.515 271.598L32.4987 271.449L30.7671 270.034L32.515 271.598Z" fill="#73818E"/>
<path d="M35.2341 273.564L35.4041 273.495L35.5807 273.402L35.2341 273.564ZM34.9204 273.63L35.2341 273.564L35.5807 273.402L34.9204 273.63Z" fill="#80909E"/>
<path d="M34.3629 273.402L32.6139 271.837L32.693 271.925L34.3629 273.402Z" fill="#73818E"/>
<path d="M34.9202 273.63L35.0722 273.608L35.2339 273.564L34.9202 273.63Z" fill="#80909E"/>
<path d="M34.3033 273.292L32.5543 271.727L32.6141 271.837L34.3033 273.292Z" fill="#73818E"/>
<path d="M34.4415 273.49L34.9193 273.63L35.5796 273.402L34.4415 273.49Z" fill="#80909E"/>
<path d="M34.2652 273.163L32.5161 271.598L32.5549 271.727L34.2652 273.163Z" fill="#73818E"/>
<path d="M34.6514 273.604L34.7789 273.628L34.9194 273.63L34.6514 273.604Z" fill="#80909E"/>
<path d="M34.442 273.49L34.3629 273.402L32.693 271.925L34.442 273.49ZM34.2483 273.013L32.4991 271.448L32.5154 271.598L34.2483 273.013Z" fill="#73818E"/>
<path d="M34.4417 273.49L34.6514 273.604L34.9195 273.63L34.4417 273.49Z" fill="#80909E"/>
<path d="M34.3629 273.402L34.3032 273.292L32.6139 271.837L34.3629 273.402Z" fill="#73818E"/>
<path d="M34.4417 273.49L34.5384 273.558L34.6514 273.604L34.4417 273.49Z" fill="#80909E"/>
<path d="M34.3039 273.292L34.2652 273.163L32.5549 271.727L34.3039 273.292ZM34.2652 273.163L34.249 273.014L32.5161 271.598L34.2652 273.163Z" fill="#73818E"/>
<path d="M34.3039 273.292L34.3636 273.402L34.4426 273.49L34.3039 273.292ZM34.2489 273.014L34.3039 273.292L34.4426 273.49L34.2489 273.014ZM34.2489 273.014L34.2652 273.163L34.3039 273.292L34.2489 273.014ZM114.821 226.508L115.069 225.811L113.515 82.7129L114.821 226.508ZM115.069 225.811L115.079 225.648L113.566 83.011L115.069 225.811ZM35.5808 273.402L114.821 226.508L113.515 82.7129L35.5808 273.402Z" fill="#80909E"/>
<path d="M32.4987 271.449L28.4718 128.859L30.7507 269.885L32.4987 271.449Z" fill="#73818E"/>
<path d="M30.7677 129.159L34.4423 273.491L35.5805 273.403L30.7677 129.159Z" fill="#80909E"/>
<path d="M34.2482 273.014L30.273 130.423L32.4991 271.449L34.2482 273.014Z" fill="#73818E"/>
<path d="M30.767 129.159L34.2479 273.014L34.4416 273.49L30.767 129.159ZM115.068 225.811L113.565 83.0111L113.514 82.713L115.068 225.811ZM35.5797 273.402L113.514 82.713L30.767 129.159L35.5797 273.402Z" fill="#80909E"/>
<path d="M28.4725 128.859L26.6729 127.295L30.7514 269.885L28.4725 128.859ZM111.568 80.9629L109.758 79.4303L109.662 79.354L111.568 80.9629ZM30.2732 130.423L28.4725 128.859L32.4993 271.449L30.2732 130.423ZM111.472 80.8866L109.662 79.354L109.55 79.2998L111.472 80.8866ZM111.36 80.8325L109.55 79.2998L109.422 79.2683L111.36 80.8325ZM111.232 80.801L109.422 79.2683L109.281 79.26L111.232 80.801ZM111.472 80.8866L111.568 80.9629L109.662 79.354L111.472 80.8866ZM111.092 80.7927L109.281 79.26L109.129 79.2755L111.092 80.7927ZM111.36 80.8325L111.472 80.8866L109.55 79.2998L111.36 80.8325ZM110.939 80.8083L109.129 79.2755L108.966 79.3153L110.939 80.8083ZM111.232 80.801L111.36 80.8325L109.422 79.2683L111.232 80.801ZM110.776 80.8482L108.966 79.3153L108.794 79.3801L110.776 80.8482ZM110.604 80.913L108.794 79.3801L108.616 79.4704L110.604 80.913ZM111.092 80.7927L111.232 80.801L109.281 79.26L111.092 80.7927Z" fill="#73818E"/>
<path d="M30.2813 130.25L30.2737 130.423L34.249 273.014L30.2813 130.25Z" fill="#80909E"/>
<path d="M110.939 80.8082L111.091 80.7927L109.129 79.2754L110.939 80.8082Z" fill="#73818E"/>
<path d="M30.3646 129.887L30.2801 130.25L34.2478 273.013L30.3646 129.887Z" fill="#80909E"/>
<path d="M110.777 80.8483L110.94 80.8084L108.967 79.3154L110.777 80.8483Z" fill="#73818E"/>
<path d="M30.7673 129.159L30.365 129.888L34.2482 273.014L30.7673 129.159Z" fill="#80909E"/>
<path d="M110.603 80.913L110.775 80.8482L108.793 79.3801L110.603 80.913ZM113.378 82.4965L111.567 80.9629L111.471 80.8866L113.378 82.4965ZM110.425 81.0034L110.603 80.913L108.614 79.4704L110.425 81.0034ZM113.282 82.4202L111.471 80.8866L111.358 80.8325L113.282 82.4202ZM113.17 82.3661L111.358 80.8325L111.231 80.801L113.17 82.3661Z" fill="#73818E"/>
<path d="M113.566 83.011L113.552 82.852L113.515 82.7129L113.566 83.011Z" fill="#80909E"/>
<path d="M113.044 82.3347L111.233 80.801L111.092 80.7927L113.044 82.3347ZM113.284 82.4203L113.38 82.4965L111.473 80.8866L113.284 82.4203ZM112.904 82.3265L111.092 80.7927L110.939 80.8083L112.904 82.3265ZM113.172 82.3661L113.284 82.4203L111.36 80.8325L113.172 82.3661Z" fill="#73818E"/>
<path d="M113.515 82.7128L113.457 82.5941L113.379 82.4963L113.515 82.7128Z" fill="#80909E"/>
<path d="M112.75 82.342L110.938 80.8082L110.775 80.8481L112.75 82.342ZM113.043 82.3346L113.171 82.3661L111.232 80.8009L113.043 82.3346ZM112.587 82.382L110.775 80.8481L110.604 80.913L112.587 82.382Z" fill="#73818E"/>
<path d="M113.516 82.713L113.38 82.4965L113.172 82.3662L113.516 82.713Z" fill="#80909E"/>
<path d="M112.417 82.4468L110.606 80.9129L110.427 81.0032L112.417 82.4468ZM112.904 82.3264L113.045 82.3346L111.093 80.7926L112.904 82.3264Z" fill="#73818E"/>
<path d="M113.38 82.4965L113.285 82.4203L113.172 82.3662L113.38 82.4965Z" fill="#80909E"/>
<path d="M112.751 82.3422L112.903 82.3266L110.939 80.8083L112.751 82.3422Z" fill="#73818E"/>
<path d="M113.516 82.7128L113.172 82.366L112.589 82.3819L113.516 82.7128Z" fill="#80909E"/>
<path d="M112.586 82.382L112.749 82.3421L110.775 80.8481L112.586 82.382Z" fill="#73818E"/>
<path d="M113.171 82.3661L113.044 82.3346L112.903 82.3264L113.171 82.3661Z" fill="#80909E"/>
<path d="M112.415 82.447L112.587 82.3821L110.604 80.9131L112.415 82.447ZM112.237 82.5374L112.415 82.447L110.425 81.0034L112.237 82.5374Z" fill="#73818E"/>
<path d="M113.172 82.3662L112.904 82.3265L112.588 82.3821L113.172 82.3662ZM112.904 82.3265L112.751 82.3421L112.588 82.3821L112.904 82.3265ZM112.588 82.3821L112.417 82.447L112.238 82.5374L112.588 82.3821Z" fill="#80909E"/>
<path d="M110.426 81.0034L108.615 79.4704L27.9777 125.312L110.426 81.0034ZM112.237 82.5374L110.426 81.0034L29.7778 126.874L112.237 82.5374Z" fill="#73818E"/>
<path d="M113.515 82.7131L112.588 82.3822L30.7679 129.159L113.515 82.7131ZM112.588 82.3822L112.238 82.5375L31.3983 128.553L112.588 82.3822Z" fill="#80909E"/>
<path d="M29.7775 126.874L110.425 81.0034L27.9773 125.312L29.7775 126.874ZM31.5788 128.438L112.237 82.5374L29.7775 126.874L31.5788 128.438Z" fill="#73818E"/>
<path d="M112.588 82.3822L31.3983 128.553L30.7679 129.159L112.588 82.3822ZM112.238 82.5375L31.5799 128.438L31.3983 128.553L112.238 82.5375Z" fill="#80909E"/>
<path d="M28.4794 128.686L26.6798 127.122L26.6723 127.295L28.4794 128.686ZM28.5105 128.507L26.7109 126.943L26.6798 127.122L28.5105 128.507ZM28.5637 128.323L26.764 126.76L26.7109 126.943L28.5637 128.323ZM28.6374 128.138L26.8376 126.575L26.764 126.76L28.6374 128.138ZM29.7775 126.874L27.9774 125.311L27.7959 125.426L29.7775 126.874ZM28.73 127.953L26.9302 126.39L26.8376 126.575L28.73 127.953ZM29.596 126.989L27.7959 125.426L27.6224 125.558L29.596 126.989ZM28.4718 128.859L28.4794 128.686L26.6723 127.295L28.4718 128.859ZM28.84 127.771L27.0401 126.208L26.9302 126.39L28.84 127.771ZM29.4225 127.121L27.6224 125.558L27.4586 125.704L29.4225 127.121ZM28.9658 127.595L27.1658 126.032L27.0401 126.208L28.9658 127.595ZM29.2586 127.267L27.4586 125.704L27.3058 125.863L29.2586 127.267ZM29.1058 127.426L27.3058 125.863L27.1658 126.032L29.1058 127.426ZM28.4794 128.686L28.5105 128.507L26.6798 127.122L28.4794 128.686ZM28.5105 128.507L28.5637 128.323L26.7109 126.943L28.5105 128.507ZM28.5637 128.323L28.6374 128.138L26.764 126.76L28.5637 128.323ZM29.596 126.989L29.7775 126.874L27.7959 125.426L29.596 126.989ZM28.6374 128.138L28.73 127.953L26.8376 126.575L28.6374 128.138ZM29.4225 127.121L29.596 126.989L27.6224 125.558L29.4225 127.121ZM28.73 127.953L28.84 127.771L26.9302 126.39L28.73 127.953ZM29.2586 127.267L29.4225 127.121L27.4586 125.704L29.2586 127.267ZM28.84 127.771L28.9658 127.595L27.0401 126.208L28.84 127.771ZM29.1058 127.426L29.2586 127.267L27.3058 125.863L29.1058 127.426ZM28.9658 127.595L29.1058 127.426L27.1658 126.032L28.9658 127.595ZM30.2801 130.25L28.4794 128.686L28.4718 128.859L30.2801 130.25ZM30.3114 130.071L28.5105 128.507L28.4794 128.686L30.3114 130.071ZM30.3646 129.887L28.5637 128.323L28.5105 128.507L30.3646 129.887ZM30.4383 129.702L28.6374 128.138L28.5637 128.323L30.4383 129.702ZM31.5789 128.438L29.7775 126.874L29.596 126.989L31.5789 128.438ZM30.531 129.517L28.73 127.953L28.6374 128.138L30.531 129.517ZM31.3973 128.553L29.596 126.989L29.4225 127.121L31.3973 128.553ZM30.2725 130.423L30.2801 130.25L28.4718 128.859L30.2725 130.423ZM30.6411 129.335L28.84 127.771L28.73 127.953L30.6411 129.335ZM31.2238 128.685L29.4225 127.121L29.2586 127.267L31.2238 128.685ZM30.7669 129.159L28.9658 127.595L28.84 127.771L30.7669 129.159ZM31.0598 128.831L29.2586 127.267L29.1058 127.426L31.0598 128.831ZM30.907 128.99L29.1058 127.426L28.9658 127.595L30.907 128.99ZM30.2801 130.25L30.3114 130.071L28.4794 128.686L30.2801 130.25ZM30.3114 130.071L30.3646 129.887L28.5105 128.507L30.3114 130.071ZM30.3646 129.887L30.4383 129.702L28.5637 128.323L30.3646 129.887ZM31.3973 128.553L31.5789 128.438L29.596 126.989L31.3973 128.553ZM30.4383 129.702L30.531 129.517L28.6374 128.138L30.4383 129.702ZM31.2238 128.685L31.3973 128.553L29.4225 127.121L31.2238 128.685ZM30.531 129.517L30.6411 129.335L28.73 127.953L30.531 129.517ZM31.0598 128.831L31.2238 128.685L29.2586 127.267L31.0598 128.831ZM30.6411 129.335L30.7669 129.159L28.84 127.771L30.6411 129.335ZM30.907 128.99L31.0598 128.831L29.1058 127.426L30.907 128.99ZM30.7669 129.159L30.907 128.99L28.9658 127.595L30.7669 129.159Z" fill="#73818E"/>
<path d="M30.3657 129.888L30.3125 130.071L30.2812 130.25L30.3657 129.888ZM30.5321 129.517L30.4394 129.702L30.3657 129.888L30.5321 129.517ZM30.768 129.159L30.5321 129.517L30.3657 129.888L30.768 129.159ZM31.3984 128.553L31.2249 128.685L31.0609 128.831L31.3984 128.553ZM31.3984 128.553L31.0609 128.831L30.768 129.159L31.3984 128.553ZM30.768 129.159L30.6422 129.336L30.5321 129.517L30.768 129.159ZM31.0609 128.831L30.9081 128.99L30.768 129.159L31.0609 128.831Z" fill="#80909E"/>
<path d="M108.916 162.495C108.916 165.205 107.014 168.5 104.667 169.855C102.32 171.21 100.418 170.111 100.418 167.402C100.418 164.692 102.32 161.397 104.667 160.042C107.014 158.687 108.916 159.785 108.916 162.495Z" fill="#263238"/>
<path d="M223.853 130.506L224.31 130.241C224.696 129.988 225.017 129.648 225.247 129.247C225.477 128.847 225.61 128.398 225.634 127.937V77.2258C225.61 76.7656 225.477 76.3177 225.247 75.9184C225.017 75.5192 224.696 75.1799 224.31 74.9282L140.116 26.3159C139.705 26.1082 139.252 26 138.791 26C138.331 26 137.878 26.1082 137.467 26.3159L137.01 26.5808C136.624 26.8339 136.303 27.1744 136.073 27.5747C135.843 27.975 135.71 28.4239 135.686 28.8849V79.5961C135.71 80.0572 135.843 80.5061 136.073 80.9064C136.303 81.3067 136.624 81.6472 137.01 81.9003L221.198 130.506C221.609 130.715 222.064 130.824 222.526 130.824C222.987 130.824 223.442 130.715 223.853 130.506Z" fill="#407BFF"/>
<path opacity="0.6" d="M223.853 130.506L224.31 130.241C224.696 129.988 225.017 129.648 225.247 129.247C225.477 128.847 225.61 128.398 225.634 127.937V77.2258C225.61 76.7656 225.477 76.3177 225.247 75.9184C225.017 75.5192 224.696 75.1799 224.31 74.9282L140.116 26.3159C139.705 26.1082 139.252 26 138.791 26C138.331 26 137.878 26.1082 137.467 26.3159L137.01 26.5808C136.624 26.8339 136.303 27.1744 136.073 27.5747C135.843 27.975 135.71 28.4239 135.686 28.8849V79.5961C135.71 80.0572 135.843 80.5061 136.073 80.9064C136.303 81.3067 136.624 81.6472 137.01 81.9003L221.198 130.506C221.609 130.715 222.064 130.824 222.526 130.824C222.987 130.824 223.442 130.715 223.853 130.506Z" fill="white"/>
<path opacity="0.4" d="M135.686 28.6723C135.779 28.0102 136.348 27.7321 137.01 28.1161L221.205 76.7284C221.597 76.9715 221.921 77.3112 222.145 77.715L225.257 75.9207C225.036 75.513 224.712 75.1705 224.317 74.9275L140.116 26.3218C139.706 26.111 139.252 26.001 138.791 26.001C138.331 26.001 137.877 26.111 137.467 26.3218L137.01 26.58C136.653 26.8144 136.351 27.1223 136.122 27.4831C135.894 27.8439 135.745 28.2494 135.686 28.6723Z" fill="white"/>
<path opacity="0.1" d="M221.423 130.612C221.813 130.767 222.231 130.838 222.649 130.82C223.068 130.802 223.479 130.695 223.853 130.506L224.317 130.241C224.702 129.987 225.023 129.647 225.253 129.246C225.482 128.846 225.615 128.398 225.641 127.937V77.2258C225.627 76.758 225.493 76.3017 225.25 75.9016L222.138 77.6959C222.379 78.0969 222.513 78.5527 222.529 79.0202V129.738C222.529 130.499 222.045 130.85 221.423 130.612Z" fill="black"/>
<path d="M222.528 123.289C222.528 123.289 227.527 128.122 237.532 126.984C231.01 124.057 224.031 117.86 222.528 104.67V123.289Z" fill="#407BFF"/>
<path opacity="0.6" d="M222.528 123.289C222.528 123.289 227.527 128.122 237.532 126.984C231.01 124.057 224.031 117.86 222.528 104.67V123.289Z" fill="white"/>
<path d="M146.287 47.4174C146.252 47.4273 146.215 47.4273 146.181 47.4174L141.182 44.5305C141.15 44.5124 141.124 44.4864 141.105 44.455C141.087 44.4237 141.077 44.3882 141.076 44.3518V38.5517C141.077 38.5153 141.087 38.4797 141.105 38.4484C141.124 38.4171 141.15 38.3911 141.182 38.3729C141.214 38.3566 141.249 38.3481 141.284 38.3481C141.32 38.3481 141.355 38.3566 141.387 38.3729L146.386 41.2597C146.418 41.2779 146.444 41.3039 146.462 41.3352C146.481 41.3665 146.491 41.4021 146.492 41.4385V47.2121C146.492 47.2488 146.483 47.2849 146.464 47.3164C146.445 47.348 146.418 47.3738 146.386 47.3909C146.356 47.4089 146.322 47.4181 146.287 47.4174ZM141.486 44.2061L146.081 46.8546V41.5577L141.486 38.9092V44.2061Z" fill="#FAFAFA"/>
<path d="M146.287 58.9713C146.252 58.9781 146.216 58.9781 146.181 58.9713L141.182 56.0845C141.15 56.0663 141.124 56.0403 141.105 56.009C141.087 55.9777 141.077 55.9421 141.076 55.9057V50.099C141.078 50.0637 141.09 50.0296 141.109 49.9998C141.128 49.97 141.154 49.9454 141.185 49.9283C141.216 49.9112 141.25 49.9021 141.286 49.9019C141.321 49.9016 141.356 49.9102 141.387 49.9269L146.386 52.8137C146.418 52.8308 146.445 52.8565 146.464 52.8881C146.483 52.9196 146.492 52.9558 146.492 52.9924V58.7661C146.491 58.8025 146.481 58.838 146.462 58.8693C146.444 58.9006 146.418 58.9266 146.386 58.9448C146.355 58.9598 146.321 58.9687 146.287 58.9713ZM141.486 55.7601L146.081 58.4085V53.1116L141.486 50.4632V55.7601Z" fill="#FAFAFA"/>
<path d="M146.287 70.5188C146.252 70.5287 146.215 70.5287 146.181 70.5188L141.182 67.632C141.15 67.6138 141.124 67.5878 141.105 67.5565C141.087 67.5252 141.077 67.4896 141.076 67.4532V61.6796C141.077 61.6432 141.087 61.6076 141.105 61.5763C141.124 61.545 141.15 61.519 141.182 61.5008C141.214 61.4846 141.249 61.4761 141.284 61.4761C141.32 61.4761 141.355 61.4846 141.387 61.5008L146.386 64.3876C146.418 64.4058 146.444 64.4318 146.462 64.4631C146.481 64.4945 146.491 64.53 146.492 64.5664V70.34C146.492 70.3767 146.483 70.4128 146.464 70.4444C146.445 70.4759 146.418 70.5017 146.386 70.5188C146.353 70.5278 146.319 70.5278 146.287 70.5188ZM141.486 67.3076L146.081 69.956V64.6591L141.486 62.0107V67.3076Z" fill="#FAFAFA"/>
<path d="M149.451 43.266L163.124 51.1584C163.313 51.2795 163.472 51.4431 163.587 51.6362C163.702 51.8293 163.77 52.0466 163.786 52.2708C163.786 52.668 163.488 52.8203 163.124 52.6018L149.451 44.7094C149.262 44.5902 149.103 44.4279 148.988 44.2358C148.873 44.0437 148.805 43.8271 148.789 43.6037C148.783 43.2064 149.081 43.0409 149.451 43.266Z" fill="#FAFAFA"/>
<path d="M149.451 46.1726L156.735 50.4035C156.923 50.5235 157.082 50.686 157.197 50.878C157.312 51.0699 157.38 51.2861 157.397 51.5092C157.397 51.9065 157.099 52.0588 156.735 51.8469L149.451 47.616C149.262 47.4968 149.103 47.3345 148.988 47.1424C148.873 46.9502 148.805 46.7337 148.789 46.5103C148.783 46.1064 149.081 45.9607 149.451 46.1726Z" fill="#FAFAFA"/>
<path d="M149.451 54.8398L163.124 62.7321C163.313 62.8522 163.471 63.0146 163.586 63.2066C163.701 63.3986 163.77 63.6147 163.786 63.8379C163.786 64.2352 163.488 64.3874 163.124 64.1756L149.451 56.2832C149.262 56.1639 149.103 56.0017 148.988 55.8095C148.873 55.6174 148.805 55.4008 148.789 55.1774C148.783 54.7802 149.081 54.6279 149.451 54.8398Z" fill="#FAFAFA"/>
<path d="M149.451 57.7402L156.735 61.9711C156.924 62.0921 157.082 62.2557 157.197 62.4488C157.312 62.642 157.381 62.8592 157.397 63.0834C157.397 63.4807 157.099 63.633 156.735 63.4211L149.451 59.1836C149.262 59.0643 149.103 58.902 148.988 58.7099C148.873 58.5178 148.805 58.3012 148.789 58.0778C148.783 57.6806 149.081 57.5283 149.451 57.7402Z" fill="#FAFAFA"/>
<path d="M149.451 66.4072L163.124 74.3062C163.314 74.4254 163.472 74.5877 163.587 74.7798C163.702 74.9719 163.771 75.1885 163.786 75.4119C163.786 75.8091 163.488 75.9614 163.124 75.7496L149.451 67.8506C149.261 67.7317 149.102 67.5695 148.987 67.3773C148.872 67.1851 148.804 66.9684 148.789 66.7448C148.783 66.3476 149.081 66.2151 149.451 66.4072Z" fill="#FAFAFA"/>
<path d="M149.451 69.3134L156.735 73.5443C156.923 73.6643 157.082 73.8268 157.197 74.0187C157.312 74.2107 157.38 74.4269 157.397 74.65C157.397 75.0473 157.099 75.1996 156.735 74.9877L149.451 70.7568C149.262 70.6376 149.103 70.4753 148.988 70.2832C148.873 70.091 148.805 69.8745 148.789 69.6511C148.783 69.2538 149.081 69.1015 149.451 69.3134Z" fill="#FAFAFA"/>
<path d="M144.374 44.7358H144.294C144.194 44.719 144.098 44.6792 144.016 44.6194C143.933 44.5597 143.865 44.4817 143.818 44.3915L142.593 41.7827C142.535 41.6371 142.535 41.4748 142.592 41.329C142.65 41.1833 142.761 41.065 142.903 40.9983C143.045 40.9316 143.207 40.9215 143.356 40.97C143.505 41.0186 143.63 41.1222 143.705 41.2597L144.526 43.0077L147.334 39.7302C147.442 39.6149 147.591 39.5459 147.749 39.5375C147.907 39.5291 148.063 39.582 148.183 39.6851C148.303 39.7882 148.379 39.9337 148.394 40.0913C148.41 40.2489 148.365 40.4065 148.267 40.5314L144.824 44.5438C144.704 44.6629 144.543 44.7316 144.374 44.7358Z" fill="#455A64"/>
<path d="M144.374 56.283H144.294C144.194 56.2663 144.098 56.2264 144.016 56.1667C143.933 56.107 143.865 56.029 143.818 55.9388L142.593 53.33C142.535 53.1843 142.535 53.0221 142.592 52.8763C142.65 52.7305 142.761 52.6122 142.903 52.5455C143.045 52.4788 143.207 52.4687 143.356 52.5173C143.505 52.5659 143.63 52.6695 143.705 52.8069L144.526 54.5549L147.353 51.2444C147.462 51.1291 147.611 51.06 147.769 51.0516C147.927 51.0432 148.082 51.0961 148.203 51.1993C148.323 51.3024 148.399 51.4479 148.414 51.6055C148.43 51.7631 148.384 51.9207 148.287 52.0455L144.844 56.0579C144.785 56.1253 144.713 56.18 144.632 56.2187C144.551 56.2574 144.463 56.2793 144.374 56.283Z" fill="#455A64"/>
<path d="M146.227 82.1056C146.193 82.1155 146.156 82.1155 146.121 82.1056L141.122 79.2188C141.091 79.2006 141.064 79.1746 141.046 79.1433C141.027 79.1119 141.017 79.0764 141.016 79.04V73.2664C141.017 73.23 141.027 73.1944 141.046 73.1631C141.064 73.1318 141.091 73.1058 141.122 73.0876C141.153 73.0682 141.189 73.0579 141.225 73.0579C141.261 73.0579 141.297 73.0682 141.328 73.0876L146.326 75.9744C146.358 75.9926 146.384 76.0186 146.403 76.0499C146.421 76.0812 146.432 76.1168 146.432 76.1532V81.9268C146.432 81.9632 146.421 81.9988 146.403 82.0301C146.384 82.0614 146.358 82.0874 146.326 82.1056C146.294 82.1153 146.26 82.1153 146.227 82.1056ZM141.427 78.8943L146.022 81.5428V76.2459L141.427 73.5974V78.8943Z" fill="#FAFAFA"/>
<path d="M149.392 77.9872L163.064 85.8796C163.254 85.9988 163.413 86.1611 163.528 86.3532C163.643 86.5454 163.711 86.7619 163.727 86.9853C163.727 87.3892 163.429 87.5415 163.064 87.323L149.392 79.4571C149.203 79.3367 149.045 79.1741 148.931 78.9822C148.816 78.7903 148.747 78.5744 148.73 78.3514C148.73 77.9276 149.028 77.7753 149.392 77.9872Z" fill="#FAFAFA"/>
<path d="M149.392 80.894L156.675 85.1249C156.864 85.245 157.022 85.4074 157.137 85.5994C157.252 85.7914 157.321 86.0075 157.337 86.2307C157.337 86.6279 157.039 86.7802 156.675 86.5683L149.392 82.3375C149.203 82.217 149.045 82.0545 148.931 81.8626C148.816 81.6707 148.747 81.4547 148.73 81.2317C148.73 80.8278 149.028 80.6822 149.392 80.894Z" fill="#FAFAFA"/>
<path d="M144.321 67.8836H144.235C144.134 67.8701 144.038 67.8315 143.956 67.7713C143.874 67.7112 143.808 67.6314 143.765 67.5393L142.54 64.9372C142.5 64.8635 142.475 64.7823 142.467 64.6986C142.459 64.6149 142.469 64.5305 142.495 64.4506C142.521 64.3707 142.563 64.2969 142.618 64.2339C142.674 64.1709 142.742 64.1199 142.818 64.0842C142.894 64.0484 142.977 64.0286 143.061 64.0259C143.145 64.0233 143.228 64.0379 143.307 64.0688C143.385 64.0997 143.456 64.1463 143.515 64.2057C143.575 64.2651 143.621 64.336 143.652 64.4142L144.473 66.1555L147.294 62.8449C147.403 62.7297 147.551 62.6606 147.71 62.6522C147.868 62.6438 148.023 62.6967 148.143 62.7998C148.263 62.903 148.339 63.0485 148.355 63.2061C148.371 63.3637 148.325 63.5213 148.228 63.6461L144.785 67.6585C144.729 67.7276 144.658 67.7836 144.578 67.8225C144.498 67.8614 144.41 67.8822 144.321 67.8836Z" fill="#455A64"/>
<path d="M144.321 79.4572H144.235C144.134 79.4424 144.038 79.4026 143.956 79.3413C143.873 79.28 143.808 79.1992 143.765 79.1063L142.54 76.5041C142.5 76.4304 142.475 76.3492 142.467 76.2655C142.459 76.1818 142.469 76.0974 142.495 76.0175C142.521 75.9376 142.563 75.8638 142.618 75.8008C142.674 75.7378 142.742 75.6868 142.818 75.6511C142.894 75.6153 142.977 75.5955 143.061 75.5928C143.145 75.5902 143.228 75.6048 143.307 75.6357C143.385 75.6666 143.456 75.7132 143.515 75.7726C143.575 75.832 143.621 75.9029 143.652 75.9811L144.473 77.7224L147.294 74.4118C147.403 74.2965 147.551 74.2275 147.71 74.2191C147.868 74.2107 148.023 74.2636 148.143 74.3667C148.263 74.4699 148.339 74.6154 148.355 74.773C148.371 74.9306 148.325 75.0882 148.228 75.213L144.785 79.1857C144.733 79.2634 144.665 79.3282 144.584 79.3753C144.504 79.4223 144.414 79.4504 144.321 79.4572Z" fill="#455A64"/>
<path d="M207.299 104.869L207.961 105.472C208.048 105.56 208.106 105.674 208.127 105.796C208.147 105.956 208.176 106.116 208.213 106.273C208.223 106.325 208.215 106.38 208.19 106.427C208.164 106.474 208.123 106.511 208.074 106.531L207.683 106.697C207.66 106.706 207.638 106.72 207.621 106.738C207.603 106.756 207.589 106.777 207.579 106.801C207.57 106.824 207.566 106.85 207.566 106.875C207.567 106.9 207.573 106.925 207.584 106.948L208.041 107.948C208.066 107.999 208.106 108.042 208.156 108.072C208.205 108.101 208.262 108.116 208.319 108.113H208.802C208.862 108.112 208.921 108.125 208.975 108.15C209.029 108.175 209.076 108.213 209.114 108.259C209.221 108.419 209.338 108.571 209.464 108.716C209.543 108.811 209.585 108.931 209.584 109.054L209.537 109.755C209.538 109.815 209.551 109.873 209.576 109.927C209.601 109.981 209.638 110.028 209.683 110.067L210.438 110.643C210.454 110.659 210.473 110.67 210.495 110.676C210.517 110.682 210.54 110.681 210.561 110.675C210.583 110.669 210.603 110.658 210.618 110.641C210.634 110.625 210.645 110.605 210.65 110.583L210.822 110.027C210.83 110.004 210.843 109.983 210.859 109.965C210.876 109.947 210.896 109.932 210.918 109.922C210.94 109.912 210.965 109.907 210.989 109.907C211.013 109.907 211.038 109.912 211.06 109.921C211.16 109.965 211.264 109.998 211.371 110.02C211.489 110.053 211.591 110.128 211.656 110.232L212.133 111.113C212.162 111.16 212.204 111.198 212.255 111.221C212.306 111.243 212.363 111.249 212.418 111.239L212.921 111.133C212.945 111.129 212.968 111.119 212.988 111.105C213.009 111.09 213.025 111.072 213.038 111.05C213.05 111.029 213.057 111.005 213.058 110.98C213.06 110.955 213.056 110.931 213.047 110.908L212.709 110.007C212.693 109.953 212.691 109.895 212.705 109.84C212.719 109.786 212.748 109.736 212.788 109.696C212.834 109.648 212.876 109.597 212.914 109.544C212.943 109.5 212.987 109.47 213.038 109.458C213.088 109.447 213.142 109.456 213.186 109.484L213.848 109.914C213.865 109.93 213.886 109.94 213.908 109.943C213.931 109.947 213.954 109.944 213.975 109.935C213.995 109.926 214.013 109.911 214.026 109.892C214.039 109.873 214.046 109.851 214.046 109.828L214.172 109.12C214.179 109.061 214.172 109.001 214.153 108.945C214.133 108.889 214.101 108.838 214.06 108.795L213.397 108.193C213.31 108.108 213.251 107.996 213.232 107.875C213.213 107.715 213.184 107.555 213.146 107.398C213.137 107.345 213.145 107.29 213.17 107.242C213.195 107.194 213.236 107.156 213.285 107.134L213.676 106.968C213.699 106.959 213.721 106.944 213.739 106.927C213.757 106.909 213.771 106.888 213.781 106.864C213.791 106.841 213.796 106.816 213.796 106.79C213.796 106.765 213.791 106.74 213.781 106.716L213.325 105.723C213.298 105.671 213.257 105.627 213.207 105.597C213.156 105.567 213.099 105.551 213.04 105.551H212.557C212.497 105.55 212.438 105.536 212.384 105.51C212.33 105.484 212.283 105.446 212.245 105.399C212.14 105.24 212.022 105.09 211.894 104.949C211.819 104.85 211.779 104.728 211.782 104.604L211.822 103.909C211.824 103.849 211.812 103.789 211.788 103.734C211.764 103.679 211.728 103.631 211.683 103.591L210.921 103.015C210.905 102.999 210.885 102.988 210.862 102.983C210.84 102.977 210.817 102.978 210.795 102.985C210.774 102.992 210.754 103.004 210.739 103.021C210.724 103.038 210.714 103.059 210.709 103.081L210.537 103.631C210.531 103.655 210.519 103.678 210.503 103.697C210.487 103.716 210.467 103.732 210.444 103.742C210.421 103.752 210.396 103.757 210.371 103.756C210.346 103.755 210.321 103.749 210.299 103.737C210.197 103.698 210.093 103.665 209.988 103.638C209.869 103.606 209.767 103.53 209.703 103.426L209.226 102.545C209.198 102.497 209.155 102.459 209.104 102.436C209.053 102.413 208.996 102.407 208.941 102.419L208.438 102.525C208.414 102.529 208.391 102.539 208.37 102.553C208.35 102.567 208.333 102.586 208.321 102.608C208.309 102.629 208.302 102.653 208.301 102.678C208.299 102.703 208.303 102.727 208.312 102.75L208.657 103.651C208.67 103.705 208.67 103.762 208.656 103.816C208.642 103.871 208.615 103.921 208.577 103.962C208.53 104.01 208.485 104.061 208.445 104.114C208.416 104.158 208.372 104.188 208.321 104.199C208.271 104.211 208.217 104.201 208.173 104.174L207.511 103.75C207.495 103.735 207.474 103.725 207.452 103.721C207.43 103.717 207.408 103.72 207.387 103.728C207.367 103.736 207.349 103.75 207.335 103.768C207.322 103.786 207.314 103.807 207.313 103.83L207.187 104.545C207.179 104.604 207.185 104.664 207.205 104.72C207.224 104.776 207.257 104.827 207.299 104.869ZM209.2 105.69C209.352 104.849 210.133 104.677 210.954 105.306C211.358 105.615 211.68 106.018 211.892 106.479C212.104 106.941 212.201 107.447 212.173 107.955C212.02 108.789 211.239 108.961 210.418 108.332C210.015 108.025 209.693 107.623 209.48 107.163C209.268 106.702 209.172 106.196 209.2 105.69Z" fill="#455A64"/>
<path d="M209.212 115.099L210.02 115.82C210.129 115.924 210.199 116.062 210.219 116.211C210.244 116.405 210.28 116.597 210.325 116.787C210.339 116.851 210.33 116.918 210.3 116.976C210.269 117.034 210.22 117.08 210.159 117.105L209.682 117.304C209.626 117.328 209.582 117.374 209.56 117.431C209.537 117.488 209.539 117.552 209.563 117.608L210.113 118.82C210.145 118.881 210.194 118.931 210.254 118.966C210.313 119.001 210.381 119.019 210.45 119.018H211.04C211.112 119.02 211.184 119.037 211.249 119.069C211.314 119.101 211.372 119.147 211.417 119.204C211.549 119.392 211.69 119.573 211.841 119.747C211.932 119.864 211.981 120.009 211.98 120.157L211.927 121.005C211.927 121.076 211.943 121.147 211.973 121.212C212.002 121.277 212.045 121.335 212.099 121.382L213.019 122.084C213.039 122.104 213.064 122.118 213.091 122.125C213.118 122.132 213.146 122.131 213.173 122.123C213.199 122.114 213.223 122.099 213.242 122.078C213.26 122.057 213.273 122.032 213.278 122.005L213.483 121.342C213.492 121.314 213.506 121.288 213.526 121.266C213.545 121.244 213.569 121.226 213.596 121.213C213.623 121.201 213.652 121.194 213.681 121.193C213.711 121.193 213.74 121.199 213.768 121.21C213.89 121.26 214.016 121.3 214.145 121.329C214.29 121.369 214.415 121.461 214.496 121.587L215.065 122.653C215.102 122.711 215.155 122.756 215.218 122.783C215.28 122.81 215.349 122.818 215.416 122.806L216.025 122.673C216.055 122.669 216.083 122.657 216.108 122.64C216.132 122.623 216.152 122.6 216.167 122.574C216.182 122.548 216.19 122.519 216.192 122.489C216.194 122.459 216.189 122.43 216.178 122.402L215.76 121.316C215.742 121.25 215.741 121.18 215.759 121.114C215.776 121.047 215.811 120.987 215.86 120.939C215.916 120.88 215.969 120.818 216.019 120.753C216.053 120.701 216.106 120.664 216.166 120.651C216.227 120.637 216.29 120.648 216.343 120.68L217.151 121.197C217.171 121.216 217.197 121.229 217.224 121.234C217.251 121.239 217.279 121.236 217.305 121.225C217.331 121.215 217.353 121.197 217.369 121.175C217.385 121.152 217.395 121.125 217.396 121.097L217.548 120.237C217.556 120.165 217.547 120.093 217.523 120.025C217.499 119.958 217.46 119.897 217.409 119.846L216.601 119.124C216.496 119.018 216.426 118.882 216.403 118.734C216.377 118.54 216.342 118.348 216.297 118.158C216.283 118.093 216.293 118.025 216.323 117.966C216.353 117.907 216.402 117.86 216.462 117.833L216.939 117.641C216.996 117.615 217.04 117.568 217.062 117.51C217.084 117.452 217.083 117.387 217.058 117.33L216.509 116.125C216.477 116.064 216.428 116.013 216.368 115.977C216.309 115.942 216.24 115.925 216.171 115.926H215.582C215.509 115.925 215.438 115.908 215.372 115.876C215.307 115.844 215.25 115.798 215.204 115.741C215.073 115.551 214.931 115.367 214.781 115.191C214.689 115.074 214.64 114.929 214.642 114.781L214.694 113.933C214.695 113.862 214.679 113.791 214.65 113.726C214.62 113.661 214.577 113.603 214.522 113.556L213.602 112.861C213.582 112.841 213.558 112.827 213.531 112.82C213.504 112.813 213.475 112.814 213.449 112.822C213.422 112.83 213.398 112.846 213.38 112.866C213.361 112.887 213.349 112.913 213.344 112.94L213.139 113.602C213.13 113.631 213.115 113.657 213.096 113.679C213.076 113.701 213.052 113.719 213.026 113.732C212.999 113.744 212.97 113.751 212.94 113.751C212.91 113.752 212.881 113.746 212.854 113.735C212.73 113.686 212.604 113.644 212.476 113.609C212.332 113.572 212.207 113.482 212.125 113.357L211.556 112.291C211.52 112.233 211.467 112.188 211.404 112.161C211.342 112.134 211.272 112.126 211.205 112.139L210.596 112.271C210.566 112.276 210.538 112.288 210.514 112.305C210.489 112.322 210.469 112.344 210.454 112.37C210.44 112.397 210.431 112.426 210.429 112.455C210.427 112.485 210.432 112.515 210.444 112.543L210.861 113.629C210.879 113.695 210.879 113.765 210.862 113.831C210.844 113.897 210.81 113.958 210.762 114.006C210.705 114.065 210.652 114.127 210.603 114.192C210.569 114.244 210.516 114.28 210.455 114.294C210.395 114.308 210.331 114.297 210.278 114.264L209.47 113.741C209.449 113.725 209.423 113.714 209.396 113.711C209.369 113.707 209.342 113.711 209.317 113.722C209.292 113.733 209.27 113.75 209.254 113.772C209.238 113.794 209.228 113.82 209.225 113.847L209.073 114.708C209.066 114.779 209.075 114.851 209.099 114.919C209.123 114.986 209.162 115.048 209.212 115.099ZM211.516 116.085C211.695 115.072 212.642 114.86 213.635 115.622C214.124 115.996 214.514 116.484 214.77 117.044C215.027 117.604 215.142 118.218 215.105 118.833C214.926 119.846 213.979 120.051 212.986 119.297C212.497 118.922 212.107 118.434 211.851 117.874C211.595 117.314 211.48 116.7 211.516 116.085Z" fill="#455A64"/>
<path d="M195.739 105.981L196.864 106.988C197.007 107.137 197.102 107.327 197.136 107.531C197.169 107.8 197.217 108.068 197.281 108.332C197.299 108.42 197.286 108.512 197.245 108.592C197.204 108.673 197.138 108.737 197.056 108.775L196.394 109.047C196.354 109.063 196.318 109.086 196.288 109.117C196.258 109.147 196.234 109.183 196.218 109.222C196.202 109.262 196.194 109.304 196.195 109.347C196.195 109.389 196.205 109.432 196.222 109.471L196.99 111.146C197.034 111.232 197.101 111.304 197.185 111.353C197.268 111.402 197.363 111.427 197.46 111.424L198.274 111.384C198.374 111.385 198.473 111.409 198.562 111.454C198.652 111.499 198.73 111.563 198.791 111.642C198.976 111.907 199.175 112.159 199.38 112.404C199.511 112.565 199.581 112.766 199.579 112.973L199.506 114.145C199.504 114.245 199.524 114.343 199.565 114.434C199.607 114.524 199.668 114.605 199.744 114.668L201.016 115.641C201.043 115.669 201.077 115.688 201.115 115.697C201.152 115.706 201.191 115.705 201.228 115.693C201.265 115.681 201.298 115.66 201.324 115.631C201.349 115.602 201.366 115.567 201.373 115.529L201.658 114.609C201.67 114.568 201.691 114.531 201.718 114.5C201.746 114.469 201.78 114.444 201.819 114.427C201.857 114.41 201.899 114.401 201.941 114.402C201.983 114.402 202.024 114.412 202.062 114.43C202.232 114.496 202.407 114.551 202.585 114.595C202.782 114.65 202.951 114.775 203.061 114.946L203.863 116.423C203.91 116.504 203.981 116.568 204.067 116.607C204.152 116.646 204.247 116.658 204.339 116.641L205.187 116.456C205.227 116.449 205.265 116.433 205.298 116.409C205.332 116.386 205.359 116.355 205.38 116.32C205.4 116.285 205.412 116.245 205.415 116.205C205.419 116.164 205.413 116.123 205.399 116.085L204.823 114.575C204.798 114.484 204.797 114.388 204.82 114.297C204.844 114.205 204.89 114.121 204.955 114.052C205.035 113.973 205.108 113.886 205.174 113.794C205.197 113.758 205.226 113.727 205.261 113.702C205.297 113.677 205.336 113.66 205.378 113.651C205.42 113.641 205.463 113.641 205.505 113.648C205.548 113.656 205.588 113.672 205.624 113.695L206.749 114.41C206.778 114.434 206.813 114.451 206.85 114.456C206.888 114.462 206.926 114.458 206.961 114.444C206.996 114.429 207.026 114.405 207.048 114.375C207.071 114.345 207.084 114.309 207.087 114.271L207.299 113.079C207.31 112.98 207.298 112.88 207.265 112.786C207.232 112.692 207.178 112.606 207.107 112.536L205.981 111.53C205.836 111.382 205.741 111.192 205.71 110.987C205.677 110.719 205.628 110.454 205.564 110.192C205.545 110.103 205.557 110.01 205.6 109.929C205.642 109.847 205.712 109.784 205.796 109.749L206.458 109.471C206.498 109.455 206.535 109.432 206.566 109.402C206.597 109.372 206.621 109.336 206.637 109.296C206.653 109.257 206.661 109.214 206.66 109.171C206.659 109.128 206.649 109.086 206.63 109.047L205.862 107.378C205.817 107.292 205.75 107.22 205.667 107.17C205.584 107.12 205.489 107.094 205.392 107.094L204.578 107.133C204.478 107.133 204.38 107.11 204.291 107.066C204.201 107.023 204.123 106.96 204.061 106.882C203.876 106.617 203.677 106.359 203.472 106.12C203.342 105.959 203.272 105.758 203.273 105.551L203.346 104.372C203.348 104.273 203.328 104.174 203.287 104.084C203.245 103.993 203.184 103.913 203.108 103.849L201.837 102.876C201.809 102.849 201.775 102.83 201.737 102.821C201.7 102.811 201.661 102.813 201.624 102.824C201.587 102.836 201.554 102.857 201.529 102.886C201.503 102.915 201.486 102.951 201.479 102.989L201.194 103.915C201.182 103.956 201.162 103.993 201.134 104.024C201.106 104.055 201.072 104.081 201.033 104.098C200.995 104.114 200.954 104.123 200.912 104.122C200.87 104.122 200.828 104.112 200.79 104.094C200.63 104.038 200.466 103.992 200.3 103.955C200.101 103.904 199.928 103.778 199.817 103.604L198.976 102.095C198.929 102.014 198.858 101.949 198.772 101.91C198.687 101.871 198.592 101.859 198.5 101.876L197.652 102.062C197.612 102.07 197.574 102.086 197.54 102.11C197.507 102.134 197.479 102.166 197.459 102.201C197.439 102.237 197.427 102.277 197.424 102.318C197.42 102.359 197.426 102.4 197.44 102.439L198.016 103.949C198.042 104.04 198.044 104.136 198.021 104.228C197.997 104.32 197.95 104.404 197.884 104.472C197.804 104.552 197.731 104.638 197.665 104.73C197.618 104.802 197.544 104.852 197.46 104.871C197.376 104.889 197.288 104.874 197.215 104.829L196.089 104.107C196.06 104.083 196.025 104.067 195.987 104.061C195.949 104.055 195.911 104.06 195.875 104.076C195.84 104.091 195.81 104.115 195.788 104.147C195.766 104.178 195.754 104.215 195.752 104.253L195.54 105.445C195.531 105.544 195.544 105.643 195.578 105.736C195.613 105.828 195.667 105.912 195.739 105.981ZM198.93 107.352C199.182 105.948 200.499 105.663 201.876 106.69C203.254 107.716 204.167 109.735 203.916 111.139C203.664 112.543 202.346 112.834 200.969 111.801C199.592 110.768 198.685 108.762 198.93 107.352Z" fill="#455A64"/>
<path d="M211.506 80.5825C214.366 84.0255 216.319 88.8391 216.319 93.07C216.374 94.6862 215.992 96.2872 215.214 97.7047L207.526 87.9585L211.506 80.5825Z" fill="#407BFF"/>
<path opacity="0.3" d="M211.506 80.5825C214.366 84.0255 216.319 88.8391 216.319 93.07C216.374 94.6862 215.992 96.2872 215.214 97.7047L207.526 87.9585L211.506 80.5825Z" fill="black"/>
<path d="M203.559 75.9743C204.964 75.9585 206.344 76.3494 207.532 77.0999C209.053 78.015 210.398 79.1944 211.505 80.5826L207.532 87.9851L203.559 75.9743Z" fill="#407BFF"/>
<path opacity="0.15" d="M203.559 75.9743C204.964 75.9585 206.344 76.3494 207.532 77.0999C209.053 78.015 210.398 79.1944 211.505 80.5826L207.532 87.9851L203.559 75.9743Z" fill="black"/>
<path d="M199.547 78.7949C199.882 77.9958 200.437 77.308 201.147 76.8112C201.857 76.3144 202.694 76.0288 203.559 75.9875L207.532 87.9983L199.547 78.7949Z" fill="#407BFF"/>
<path opacity="0.2" d="M199.547 78.7949C199.882 77.9958 200.437 77.308 201.147 76.8112C201.857 76.3144 202.694 76.0288 203.559 75.9875L207.532 87.9983L199.547 78.7949Z" fill="black"/>
<path d="M199.546 78.7949L207.525 87.9983L215.212 97.7446C213.702 100.194 210.829 100.79 207.525 98.8768C202.671 96.0761 198.725 88.9451 198.725 82.9133C198.689 81.4965 198.97 80.0896 199.546 78.7949Z" fill="#407BFF"/>
<path d="M216.524 93.0702C216.524 88.9055 214.664 84.0654 211.664 80.4503C210.541 79.0453 209.175 77.8524 207.632 76.9279C206.41 76.1573 204.991 75.755 203.547 75.7692C202.644 75.8138 201.773 76.1122 201.033 76.6299C200.293 77.1476 199.714 77.8636 199.362 78.6957C198.771 80.0168 198.484 81.4534 198.521 82.9001C198.521 88.9651 202.494 96.2086 207.427 99.0424C208.579 99.7563 209.899 100.156 211.254 100.201C212.091 100.211 212.915 99.9973 213.641 99.5817C214.368 99.1661 214.97 98.5639 215.385 97.8374C216.188 96.3801 216.581 94.7329 216.524 93.0702ZM215.2 97.3673L210.181 91.0044L207.784 87.9653L211.002 82.0063L211.552 80.9734C214.385 84.4892 216.133 89.1107 216.133 93.0967C216.167 94.5758 215.842 96.041 215.187 97.3673H215.2ZM207.44 77.2788C208.9 78.1515 210.197 79.2717 211.274 80.5894L207.586 87.4687L203.864 76.2128V76.1797C205.126 76.2367 206.352 76.6151 207.427 77.2788H207.44ZM203.427 76.1863L205.07 81.1588L207.056 87.1178L199.832 78.7884C200.145 78.0758 200.641 77.4591 201.271 77.0018C201.9 76.5445 202.64 76.2631 203.414 76.1863H203.427ZM207.645 98.6981C202.845 95.9239 198.945 88.8459 198.945 82.9067C198.914 81.6281 199.139 80.3561 199.607 79.1658L207.38 88.1242L214.968 97.7513C213.445 100.069 210.651 100.439 207.632 98.6915L207.645 98.6981Z" fill="#FAFAFA"/>
<path d="M214.26 76.61L201.634 69.3268C201.422 69.2076 201.25 69.3268 201.25 69.5519V70.0485C201.257 70.1814 201.295 70.3107 201.362 70.4258C201.429 70.5409 201.522 70.6385 201.634 70.7106L214.26 77.9939C214.472 78.113 214.644 77.9939 214.644 77.7687V77.2722C214.637 77.1393 214.599 77.01 214.532 76.8949C214.465 76.7798 214.372 76.6822 214.26 76.61Z" fill="#455A64"/>
<path d="M174.48 66.5657L187.988 74.3654C188.272 74.5309 188.511 74.3654 188.511 73.9681V63.1757L181.631 66.91C181.393 67.0093 181.069 66.8239 180.837 66.4531L173.984 54.7734V65.5526C173.981 65.7487 174.025 65.9426 174.111 66.1186C174.197 66.2947 174.324 66.4478 174.48 66.5657Z" fill="#455A64"/>
<path d="M188.536 62.5204L173.97 54.1182L180.869 64.5928C181.094 64.9371 181.392 65.1092 181.617 65.0298L188.536 62.5204Z" fill="#455A64"/>
<path d="M172.176 79.0532C172.186 79.8851 172.393 80.7028 172.778 81.4402C173.163 82.1775 173.717 82.8138 174.394 83.2973L185.908 89.9184C187.133 90.6269 188.126 89.8721 188.126 88.2366C188.116 87.4047 187.91 86.587 187.524 85.8496C187.139 85.1122 186.585 84.476 185.908 83.9925V81.6155C185.908 79.0465 184.339 76.0538 182.406 74.9348C180.843 74.0343 179.545 74.7759 179.254 76.5835C178.911 75.6377 178.276 74.8258 177.44 74.2661C175.837 73.3391 174.533 74.3257 174.533 76.4709V77.4707L174.407 77.3979C173.156 76.6629 172.176 77.4177 172.176 79.0532ZM177.731 80.5164L180.148 78.7684L182.571 83.3105L181.426 82.6484V85.7868L178.876 84.3169V81.1785L177.731 80.5164Z" fill="#455A64"/>
<path d="M186.675 95.1426C186.54 94.8957 186.341 94.6898 186.099 94.5467L172.982 86.9721C172.605 86.7536 172.32 86.8662 172.201 87.2105C172.18 87.286 172.169 87.3639 172.168 87.4422V94.0633C172.13 94.3347 172.183 94.6109 172.316 94.8499C172.45 95.0889 172.658 95.2777 172.909 95.3876L174.949 96.5727L176.174 100.089C176.181 100.113 176.195 100.136 176.213 100.154C176.231 100.173 176.253 100.187 176.278 100.195C176.302 100.203 176.328 100.206 176.354 100.202C176.379 100.199 176.404 100.189 176.425 100.175L177.584 98.1883L186.046 103.081C186.099 103.116 186.157 103.143 186.218 103.161C186.582 103.267 186.88 103.055 186.88 102.611V95.9901C186.885 95.6947 186.814 95.403 186.675 95.1426ZM184.225 99.2808L174.863 93.8515C174.728 93.7781 174.613 93.6738 174.526 93.5472C174.44 93.4206 174.385 93.2752 174.366 93.1231C174.366 92.8782 174.585 92.8119 174.863 92.9642L184.225 98.4002C184.357 98.4741 184.47 98.5778 184.555 98.7031C184.64 98.8284 184.695 98.9718 184.715 99.1219C184.715 99.3669 184.496 99.4397 184.225 99.2808ZM184.225 97.0627L174.863 91.6268C174.729 91.5526 174.614 91.4481 174.528 91.3216C174.442 91.1951 174.386 91.0502 174.366 90.8984C174.366 90.6535 174.585 90.5806 174.863 90.7395L184.225 96.1689C184.358 96.2449 184.472 96.3509 184.557 96.4784C184.642 96.606 184.696 96.7517 184.715 96.9038C184.715 97.1422 184.496 97.2216 184.225 97.0627Z" fill="#455A64"/>
</g>
<defs>
<clipPath id="clip0">
<rect width="400" height="400" fill="white"/>
</clipPath>
</defs>
</svg>
