<svg width="169" height="186" viewBox="0 0 169 186" fill="none" xmlns="http://www.w3.org/2000/svg">
<path d="M124.301 1.73492C122.288 0.567679 119.814 0.715639 117.333 2.14592C111.58 5.43392 106.962 14.9856 106.962 23.4111V43.2788C106.962 43.5186 107.057 43.7486 107.227 43.9182C107.396 44.0878 107.626 44.183 107.866 44.183C108.106 44.183 108.336 44.0878 108.505 43.9182C108.675 43.7486 108.77 43.5186 108.77 43.2788V23.4111C108.77 15.561 113.018 6.72446 118.237 3.68306C120.159 2.57336 121.943 2.4254 123.405 3.27206C125.558 4.51328 126.791 7.67799 126.791 11.9359V31.7133C126.791 31.9531 126.886 32.1831 127.056 32.3526C127.225 32.5222 127.455 32.6175 127.695 32.6175C127.935 32.6175 128.165 32.5222 128.334 32.3526C128.504 32.1831 128.599 31.9531 128.599 31.7133V11.9606C128.607 7.03682 127.038 3.30494 124.301 1.73492Z" fill="#37474F"/>
<path d="M168.675 115.631L163.12 20.1394L147.195 10.9741L141.977 100.211L168.675 115.631Z" fill="#407BFF"/>
<path opacity="0.2" d="M168.675 115.631L163.12 20.1394L147.195 10.9741L141.977 100.211L168.675 115.631Z" fill="black"/>
<path d="M91.2593 43.2788L86.033 132.515L141.978 100.211L147.196 10.9741L91.2593 43.2788Z" fill="#407BFF"/>
<path opacity="0.3" d="M91.2593 43.2788L86.033 132.515L141.978 100.211L147.196 10.9741L91.2593 43.2788Z" fill="black"/>
<path d="M91.2593 43.2786L107.177 52.4439L112.74 147.936L86.033 132.515L91.2593 43.2786Z" fill="#407BFF"/>
<path opacity="0.15" d="M91.2593 43.2786L107.177 52.4439L112.74 147.936L86.033 132.515L91.2593 43.2786Z" fill="black"/>
<path opacity="0.15" d="M112.74 147.936L101.26 131.816L99.8302 75.5339L98.3921 130.838L86.033 132.515L112.74 147.936Z" fill="black"/>
<path d="M163.113 20.1392L107.176 52.4684L112.739 147.96L168.676 115.631L163.113 20.1392ZM123.833 54.6632C122.732 55.2879 121.836 54.7618 121.836 53.4877C121.875 52.7948 122.076 52.1205 122.422 51.5194C122.769 50.9183 123.252 50.4072 123.833 50.0271C124.934 49.3942 125.83 49.912 125.83 51.2026C125.797 51.8991 125.599 52.5779 125.252 53.1825C124.904 53.7872 124.418 54.3004 123.833 54.6796V54.6632ZM143.662 43.1552C142.552 43.7799 141.665 43.262 141.665 41.9879C141.702 41.2934 141.902 40.6173 142.249 40.0146C142.596 39.4119 143.08 38.8995 143.662 38.5191C144.763 37.8862 145.659 38.4122 145.659 39.6946C145.621 40.3855 145.42 41.0576 145.073 41.6561C144.726 42.2547 144.243 42.7627 143.662 43.1387V43.1552Z" fill="#407BFF"/>
<path d="M140.269 10.8096C138.248 9.65062 135.774 9.79858 133.293 11.2289C127.582 14.5169 122.93 24.0685 122.93 32.494V52.3618C122.93 52.6016 123.026 52.8316 123.195 53.0011C123.365 53.1707 123.595 53.266 123.834 53.266C124.074 53.266 124.304 53.1707 124.474 53.0011C124.643 52.8316 124.738 52.6016 124.738 52.3618V32.494C124.738 24.6439 128.978 15.8074 134.197 12.766C136.128 11.6563 137.911 11.5083 139.365 12.355C141.518 13.5962 142.759 16.7527 142.759 21.0189V40.7962C142.759 41.036 142.854 41.266 143.024 41.4356C143.194 41.6052 143.423 41.7004 143.663 41.7004C143.903 41.7004 144.133 41.6052 144.302 41.4356C144.472 41.266 144.567 41.036 144.567 40.7962V21.0435C144.567 16.1198 142.998 12.3879 140.269 10.8096Z" fill="#455A64"/>
<path d="M44.2857 17.5256C41.9766 16.1858 39.1333 16.3584 36.2983 17.9942C29.7243 21.7754 24.4158 32.708 24.4158 42.3665V65.1277C24.4158 65.4024 24.5249 65.6658 24.719 65.8601C24.9132 66.0543 25.1766 66.1634 25.4512 66.1634C25.7258 66.1634 25.9891 66.0543 26.1833 65.8601C26.3775 65.6658 26.4866 65.4024 26.4866 65.1277V42.3665C26.4866 33.3245 31.3513 23.2386 37.3255 19.7861C39.536 18.512 41.5821 18.3476 43.2503 19.3176C45.7155 20.7397 47.1372 24.3565 47.1372 29.2474V51.9017C47.1372 52.1764 47.2463 52.4399 47.4404 52.6341C47.6346 52.8283 47.898 52.9374 48.1726 52.9374C48.4472 52.9374 48.7105 52.8283 48.9047 52.6341C49.0989 52.4399 49.208 52.1764 49.208 51.9017V29.2474C49.208 23.6002 47.4083 19.3258 44.2857 17.5256Z" fill="#37474F"/>
<path d="M95.1196 148.026L88.7511 38.6097L70.5082 28.1128L64.5259 130.353L95.1196 148.026Z" fill="#407BFF"/>
<path opacity="0.6" d="M95.1196 148.026L88.7511 38.6097L70.5082 28.1128L64.5259 130.353L95.1196 148.026Z" fill="white"/>
<path opacity="0.05" d="M95.1196 148.026L88.7511 38.6097L70.5082 28.1128L64.5259 130.353L95.1196 148.026Z" fill="black"/>
<path d="M6.41203 65.1275L0.429688 167.376L64.5262 130.353L70.5085 28.1128L6.41203 65.1275Z" fill="#407BFF"/>
<path opacity="0.3" d="M6.41203 65.1275L0.429688 167.376L64.5262 130.353L70.5085 28.1128L6.41203 65.1275Z" fill="white"/>
<path opacity="0.05" d="M6.41203 65.1275L0.429688 167.376L64.5262 130.353L70.5085 28.1128L6.41203 65.1275Z" fill="black"/>
<path d="M6.41203 65.1274L24.6549 75.6244L31.0234 185.041L0.429688 167.376L6.41203 65.1274Z" fill="#407BFF"/>
<path opacity="0.55" d="M6.41203 65.1274L24.6549 75.6244L31.0234 185.041L0.429688 167.376L6.41203 65.1274Z" fill="white"/>
<path opacity="0.05" d="M31.0234 185.041L17.8754 166.579L16.2319 102.085L14.5884 165.461L0.429688 167.376L31.0234 185.041Z" fill="black"/>
<path d="M88.7507 38.6099L24.6542 75.5999L31.0227 185.016L95.1193 148.026L88.7507 38.6099ZM43.7681 78.1892C42.5026 78.9043 41.4836 78.3043 41.4836 76.8493C41.525 76.0544 41.7535 75.2804 42.1505 74.5905C42.5475 73.9006 43.1017 73.3142 43.7681 72.8791C45.0336 72.1475 46.0608 72.7476 46.0608 74.2189C46.0218 75.0154 45.7934 75.7911 45.3947 76.4815C44.9959 77.172 44.4383 77.7574 43.7681 78.1892V78.1892ZM66.4895 64.9714C65.224 65.6866 64.1968 65.0865 64.1968 63.6234C64.241 62.8292 64.4717 62.0567 64.87 61.3683C65.2683 60.68 65.8231 60.0952 66.4895 59.6613C67.7468 58.9297 68.774 59.5298 68.774 61.0012C68.7289 61.7991 68.4954 62.5749 68.0926 63.265C67.6898 63.9552 67.1291 64.54 66.4566 64.9714H66.4895Z" fill="#407BFF"/>
<path opacity="0.7" d="M88.7507 38.6099L24.6542 75.5999L31.0227 185.016L95.1193 148.026L88.7507 38.6099ZM43.7681 78.1892C42.5026 78.9043 41.4836 78.3043 41.4836 76.8493C41.525 76.0544 41.7535 75.2804 42.1505 74.5905C42.5475 73.9006 43.1017 73.3142 43.7681 72.8791C45.0336 72.1475 46.0608 72.7476 46.0608 74.2189C46.0218 75.0154 45.7934 75.7911 45.3947 76.4815C44.9959 77.172 44.4383 77.7574 43.7681 78.1892V78.1892ZM66.4895 64.9714C65.224 65.6866 64.1968 65.0865 64.1968 63.6234C64.241 62.8292 64.4717 62.0567 64.87 61.3683C65.2683 60.68 65.8231 60.0952 66.4895 59.6613C67.7468 58.9297 68.774 59.5298 68.774 61.0012C68.7289 61.7991 68.4954 62.5749 68.0926 63.265C67.6898 63.9552 67.1291 64.54 66.4566 64.9714H66.4895Z" fill="white"/>
<path d="M62.5708 27.9239C60.2535 26.5922 57.4185 26.7648 54.5752 28.4006C48.0012 32.1818 42.7009 43.1144 42.7009 52.7729V75.5341C42.7009 75.8088 42.81 76.0723 43.0042 76.2665C43.1984 76.4607 43.4617 76.5699 43.7363 76.5699C44.0109 76.5699 44.2743 76.4607 44.4685 76.2665C44.6627 76.0723 44.7717 75.8088 44.7717 75.5341V52.7729C44.7717 43.7309 49.6365 33.645 55.6106 30.1926C57.8211 28.9185 59.8673 28.7541 61.5354 29.7158C64.0007 31.1461 65.4223 34.7629 65.4223 39.6538V62.3328C65.4095 62.476 65.4267 62.6203 65.4727 62.7565C65.5187 62.8928 65.5926 63.0179 65.6896 63.124C65.7866 63.2301 65.9046 63.3148 66.0362 63.3728C66.1677 63.4308 66.3099 63.4607 66.4536 63.4607C66.5974 63.4607 66.7395 63.4308 66.8711 63.3728C67.0026 63.3148 67.1206 63.2301 67.2177 63.124C67.3147 63.0179 67.3885 62.8928 67.4345 62.7565C67.4806 62.6203 67.4977 62.476 67.4849 62.3328V39.6538C67.4849 34.0067 65.6935 29.7323 62.5708 27.9239Z" fill="#455A64"/>
</svg>
