<svg width="187" height="234" viewBox="0 0 187 234" fill="none" xmlns="http://www.w3.org/2000/svg">
<path d="M74.6458 185.584C73.698 186.2 72.9092 187.032 72.3434 188.01C71.7777 188.989 71.4511 190.088 71.3903 191.217C71.3903 193.292 72.8505 194.137 74.6458 193.1C75.5946 192.483 76.3842 191.65 76.9499 190.67C77.5157 189.689 77.8417 188.589 77.9014 187.459C77.9014 185.384 76.4411 184.546 74.6458 185.584Z" fill="#407BFF"/>
<path d="M182.397 0.83098C182.117 0.690616 181.804 0.629083 181.492 0.652981C181.18 0.676879 180.881 0.785307 180.625 0.966629L2.94272 103.612C2.24161 104.076 1.65957 104.698 1.2437 105.429C0.827825 106.159 0.589812 106.978 0.54893 107.817V229.637C0.524036 230.048 0.605704 230.459 0.786028 230.829C0.966352 231.2 1.23923 231.517 1.57826 231.752C1.96924 231.967 4.05982 233.18 4.6822 233.515C4.90241 233.627 5.14844 233.679 5.39516 233.665C5.64189 233.651 5.88047 233.572 6.08656 233.435L183.729 130.79C184.431 130.326 185.013 129.703 185.428 128.973C185.844 128.242 186.082 127.424 186.123 126.585V4.13441C186.159 3.82498 186.108 3.51173 185.975 3.22984C185.843 2.94794 185.634 2.70856 185.373 2.53855C184.974 2.27523 182.844 1.0943 182.397 0.83098Z" fill="#407BFF"/>
<path d="M6.04698 105.336L183.738 2.7301C185.078 1.93217 186.132 2.58647 186.132 4.13445V126.585C186.091 127.424 185.853 128.242 185.437 128.973C185.021 129.704 184.439 130.326 183.738 130.79L6.04698 233.435C4.70646 234.233 3.6532 232.948 3.6532 231.4V109.541C3.69533 108.701 3.93387 107.884 4.34963 107.153C4.76539 106.423 5.34677 105.8 6.04698 105.336V105.336Z" fill="#FAFAFA"/>
<path d="M184.823 3.19295C185.294 3.19295 185.365 3.78342 185.365 4.1345V126.585C185.322 127.288 185.116 127.971 184.763 128.581C184.41 129.19 183.919 129.709 183.331 130.096L5.66398 232.741C5.54473 232.818 5.407 232.862 5.26501 232.869C4.81817 232.869 4.46708 232.183 4.46708 231.401V109.541C4.50559 108.838 4.70559 108.153 5.05155 107.54C5.39751 106.927 5.88012 106.402 6.4619 106.006L184.137 3.41637C184.342 3.28372 184.579 3.20674 184.823 3.19295V3.19295ZM184.823 2.39502C184.438 2.41139 184.065 2.52683 183.738 2.73015L6.04698 105.336C5.34677 105.801 4.76539 106.423 4.34963 107.153C3.93387 107.884 3.69533 108.702 3.6532 109.541V231.401C3.6532 232.629 4.33942 233.667 5.24906 233.667C5.5308 233.661 5.8061 233.582 6.04698 233.435L183.73 130.79C184.431 130.326 185.013 129.704 185.429 128.973C185.845 128.243 186.083 127.424 186.124 126.585V4.1345C186.124 3.03336 185.581 2.39502 184.783 2.39502H184.823Z" fill="#E0E0E0"/>
<path d="M1.53069 231.751C1.79401 231.887 3.6851 232.964 4.51495 233.443C4.21697 233.196 3.98095 232.882 3.82577 232.528C3.6706 232.173 3.60056 231.787 3.62127 231.4V117.496L0.50934 115.677V229.637C0.483575 230.047 0.564017 230.458 0.742914 230.828C0.921811 231.198 1.19313 231.516 1.53069 231.751V231.751Z" fill="#F0F0F0"/>
<path d="M186.163 4.11034C186.163 2.57832 185.07 1.95593 183.77 2.72992L6.04698 105.336C5.34677 105.8 4.76539 106.423 4.34963 107.153C3.93387 107.884 3.69533 108.701 3.6532 109.541V117.52L186.163 12.0896V4.11034Z" fill="#407BFF"/>
<path opacity="0.4" d="M183.738 2.73035L6.04702 105.328C5.33387 105.778 4.74638 106.401 4.33945 107.139L1.25146 105.344C1.6577 104.631 2.24019 104.035 2.94307 103.612L180.626 0.966932C180.88 0.784343 181.18 0.674498 181.492 0.649193C181.804 0.623888 182.117 0.68408 182.397 0.823305C182.828 1.0946 184.847 2.23564 185.366 2.51491C185.097 2.41542 184.809 2.38304 184.525 2.42059C184.241 2.45814 183.971 2.56448 183.738 2.73035V2.73035Z" fill="white"/>
<path opacity="0.15" d="M0.510132 115.685V107.777C0.542912 106.916 0.798591 106.077 1.25221 105.344L4.34817 107.131C3.90104 107.852 3.65068 108.677 3.62206 109.525V117.504L0.510132 115.685Z" fill="black"/>
<path d="M148.693 95.9679L42.2729 157.408C41.7554 157.744 41.3245 158.197 41.0153 158.731C40.7061 159.265 40.5273 159.864 40.4935 160.48V190.993C40.5273 191.609 40.7061 192.209 41.0153 192.742C41.3245 193.276 41.7554 193.729 42.2729 194.065L45.3769 195.853C45.9285 196.132 46.538 196.277 47.1562 196.277C47.7744 196.277 48.384 196.132 48.9356 195.853L155.339 134.412C155.857 134.075 156.288 133.62 156.597 133.085C156.906 132.55 157.085 131.949 157.119 131.332V100.811C157.085 100.195 156.906 99.596 156.597 99.0622C156.288 98.5284 155.857 98.0751 155.339 97.7393L152.227 95.9519C151.678 95.6774 151.072 95.5358 150.458 95.5386C149.844 95.5414 149.239 95.6884 148.693 95.9679Z" fill="#407BFF"/>
<path opacity="0.5" d="M157.119 100.54C156.991 99.6227 156.249 99.2875 155.355 99.8062L48.9357 161.247C48.4109 161.573 47.9794 162.029 47.683 162.571L41.0203 158.725C41.3189 158.192 41.7469 157.742 42.265 157.417L148.693 95.9761C149.243 95.6965 149.851 95.5508 150.468 95.5508C151.085 95.5508 151.693 95.6965 152.244 95.9761L155.355 97.7635C155.83 98.0744 156.233 98.4829 156.537 98.9617C156.841 99.4405 157.039 99.9787 157.119 100.54Z" fill="white"/>
<path d="M48.6324 196.004C48.1113 196.21 47.5528 196.303 46.9933 196.278C46.4338 196.254 45.8857 196.111 45.3848 195.861L42.2729 194.073C41.7563 193.737 41.3261 193.283 41.017 192.749C40.7079 192.216 40.5286 191.617 40.4935 191.001V160.489C40.5175 159.866 40.6987 159.259 41.0202 158.725L47.6829 162.571C47.3591 163.098 47.1776 163.7 47.1562 164.319V194.839C47.1562 195.853 47.7946 196.323 48.6324 196.004Z" fill="#263238"/>
<path d="M48.935 161.247L155.355 99.8061C156.336 99.2395 157.134 99.6944 157.134 100.827V131.348C157.1 131.965 156.922 132.566 156.612 133.101C156.303 133.636 155.872 134.091 155.355 134.428L48.951 195.869C47.9696 196.435 47.1716 195.972 47.1716 194.839V164.327C47.2037 163.711 47.3799 163.111 47.6862 162.576C47.9926 162.041 48.4203 161.586 48.935 161.247V161.247Z" fill="#407BFF"/>
<path d="M120.479 112.262L42.2816 157.416C41.7635 157.741 41.3355 158.191 41.0369 158.725L47.6996 162.571C47.9959 162.029 48.4275 161.573 48.9523 161.247L127.149 116.1L120.479 112.262Z" fill="#455A64"/>
<path d="M127.133 116.1L48.9359 161.246C48.4182 161.584 47.9873 162.039 47.6782 162.574C47.369 163.109 47.1903 163.709 47.1565 164.326V194.831C47.1565 195.964 47.9544 196.427 48.9359 195.861L127.133 150.714V116.1Z" fill="#37474F"/>
<path d="M66.9684 157.528L107.32 134.237C108.987 133.271 110.344 133.957 110.344 135.769C110.269 136.786 109.956 137.771 109.429 138.645C108.902 139.518 108.177 140.255 107.312 140.796L66.9684 164.095C65.3007 165.061 63.9363 164.375 63.9363 162.563C64.0115 161.545 64.3252 160.559 64.8519 159.684C65.3786 158.81 66.1036 158.071 66.9684 157.528V157.528Z" fill="#407BFF"/>
<path d="M75.235 165.244C75.2424 165.236 75.2517 165.229 75.262 165.224C75.2723 165.22 75.2835 165.217 75.2948 165.217C75.3061 165.217 75.3173 165.22 75.3276 165.224C75.3379 165.229 75.3472 165.236 75.3546 165.244C75.3904 165.299 75.4072 165.363 75.4025 165.428V169.968C75.4031 170.407 75.3657 170.844 75.2908 171.277C75.2249 171.672 75.1124 172.057 74.9557 172.426C74.8127 172.763 74.6248 173.08 74.3971 173.367C74.1727 173.634 73.9024 173.858 73.5992 174.03C73.3617 174.184 73.0847 174.267 72.8012 174.269C72.693 174.26 72.5875 174.23 72.4915 174.179C72.3955 174.128 72.3108 174.058 72.2427 173.974C72.0676 173.739 71.9525 173.465 71.9076 173.176C71.8312 172.79 71.7964 172.396 71.8038 172.003V167.455C71.8036 167.375 71.8199 167.296 71.8517 167.223C71.8713 167.157 71.9137 167.101 71.9714 167.064L72.4741 166.768C72.4903 166.753 72.5117 166.745 72.5339 166.745C72.5561 166.745 72.5775 166.753 72.5938 166.768C72.6307 166.822 72.6476 166.887 72.6417 166.952V171.436C72.6356 171.683 72.6597 171.929 72.7135 172.17C72.7355 172.324 72.8021 172.469 72.905 172.585C72.9409 172.628 72.9863 172.662 73.0375 172.684C73.0888 172.706 73.1445 172.716 73.2002 172.713C73.3367 172.704 73.4686 172.66 73.5832 172.585C73.7252 172.5 73.8542 172.396 73.9662 172.274C74.0908 172.131 74.193 171.969 74.2694 171.795C74.3595 171.591 74.4264 171.376 74.4689 171.157C74.5155 170.894 74.5369 170.626 74.5328 170.359V165.867C74.5353 165.787 74.5543 165.708 74.5886 165.635C74.6082 165.57 74.6506 165.513 74.7083 165.476L75.235 165.244Z" fill="#FAFAFA"/>
<path d="M78.363 169.537C78.3672 169.478 78.3533 169.42 78.3232 169.369C78.3042 169.349 78.2805 169.333 78.2542 169.323C78.2278 169.313 78.1994 169.31 78.1715 169.314C78.0736 169.3 77.9743 169.3 77.8763 169.314L77.4135 169.401C77.2642 169.439 77.108 169.439 76.9587 169.401C76.8416 169.364 76.7404 169.288 76.6714 169.186C76.5934 169.056 76.5419 168.913 76.5198 168.763C76.442 168.336 76.442 167.898 76.5198 167.47C76.5797 167.225 76.6653 166.987 76.7752 166.76C76.8845 166.534 77.0182 166.319 77.1741 166.122C77.3251 165.934 77.509 165.774 77.7167 165.651C77.8845 165.549 78.0722 165.484 78.2673 165.46C78.4088 165.445 78.5513 165.476 78.6742 165.547C78.7913 165.619 78.8833 165.725 78.9376 165.851C79.0019 165.999 79.0371 166.159 79.0413 166.321C79.0496 166.402 79.0328 166.482 78.9934 166.553C78.9739 166.619 78.9314 166.675 78.8737 166.712L78.395 166.992C78.3731 167.004 78.3484 167.011 78.3232 167.011C78.2979 167.011 78.2732 167.004 78.2513 166.992L78.1476 166.912C78.1064 166.879 78.0564 166.86 78.004 166.856C77.9014 166.867 77.803 166.903 77.7167 166.96C77.5915 167.035 77.4807 167.133 77.3896 167.247C77.293 167.373 77.2424 167.527 77.246 167.686C77.2347 167.746 77.2347 167.809 77.246 167.869C77.2612 167.892 77.2813 167.911 77.3048 167.925C77.3282 167.938 77.3545 167.947 77.3816 167.949C77.4688 167.964 77.5578 167.964 77.6449 167.949L78.0918 167.869C78.4668 167.798 78.7221 167.869 78.8897 168.077C79.0658 168.372 79.1465 168.715 79.1211 169.058C79.119 169.295 79.0868 169.531 79.0253 169.76C78.9622 170.009 78.8712 170.25 78.754 170.479C78.6368 170.715 78.4893 170.935 78.3152 171.133C78.1499 171.327 77.9529 171.491 77.7327 171.62C77.5573 171.732 77.3575 171.8 77.1502 171.819C77.0002 171.824 76.8523 171.783 76.7273 171.699C76.6041 171.615 76.5095 171.496 76.456 171.356C76.3915 171.205 76.3589 171.042 76.3603 170.878C76.3528 170.795 76.3694 170.712 76.4081 170.638C76.4277 170.572 76.4701 170.516 76.5278 170.479L77.0066 170.199C77.0704 170.199 77.1183 170.159 77.1502 170.199L77.2539 170.311C77.2751 170.335 77.3009 170.354 77.3297 170.368C77.3584 170.382 77.3897 170.389 77.4215 170.391C77.5338 170.391 77.6432 170.355 77.7327 170.287C77.8767 170.205 78.0062 170.1 78.1157 169.976C78.17 169.91 78.2156 169.838 78.2513 169.76C78.3077 169.697 78.3462 169.62 78.363 169.537V169.537Z" fill="#FAFAFA"/>
<path d="M79.9916 167.375C79.9901 166.96 80.0248 166.547 80.0953 166.138C80.1619 165.754 80.2662 165.377 80.4065 165.013C80.5238 164.687 80.6849 164.378 80.8853 164.095C81.0525 163.852 81.2703 163.648 81.5236 163.497C81.7086 163.373 81.9342 163.324 82.154 163.361C82.3489 163.406 82.5198 163.523 82.6327 163.688C82.7829 163.905 82.8886 164.149 82.9439 164.407C83.0204 164.742 83.0579 165.084 83.0556 165.428V165.923C83.0582 166.006 83.0389 166.088 82.9998 166.162C82.9802 166.228 82.9378 166.284 82.8801 166.322L80.8055 167.526C80.8005 167.667 80.8194 167.807 80.8613 167.941C80.8922 168.032 80.9474 168.112 81.0209 168.173C81.0864 168.225 81.1689 168.25 81.2523 168.245C81.3487 168.233 81.4414 168.201 81.5236 168.149C81.6443 168.083 81.7524 167.997 81.8428 167.894C81.9244 167.802 81.9941 167.7 82.0502 167.59C82.0843 167.527 82.1216 167.466 82.1619 167.407C82.1962 167.366 82.2366 167.331 82.2816 167.303L82.7763 167.016C82.7933 167.002 82.8144 166.995 82.8362 166.995C82.8579 166.995 82.879 167.002 82.896 167.016C82.917 167.041 82.9321 167.071 82.9404 167.102C82.9487 167.134 82.9499 167.167 82.9439 167.199C82.9352 167.355 82.9029 167.508 82.8482 167.654C82.7793 167.875 82.6884 168.089 82.5769 168.292C82.452 168.526 82.3022 168.745 82.13 168.947C81.9583 169.152 81.7533 169.328 81.5236 169.465C81.335 169.589 81.1092 169.643 80.8853 169.617C80.689 169.57 80.518 169.45 80.4065 169.282C80.2494 169.04 80.1435 168.768 80.0953 168.484C80.0228 168.119 79.988 167.747 79.9916 167.375V167.375ZM81.5236 164.83C81.4009 164.896 81.2946 164.988 81.2124 165.101C81.1239 165.213 81.0514 165.336 80.997 165.468C80.9411 165.6 80.8957 165.736 80.8613 165.875C80.8333 166.001 80.8146 166.129 80.8055 166.258L82.2098 165.46C82.2017 165.35 82.1857 165.24 82.1619 165.133C82.1497 165.036 82.111 164.945 82.0502 164.869C82.0264 164.835 81.9956 164.806 81.9599 164.784C81.9242 164.762 81.8843 164.748 81.8428 164.742C81.7293 164.732 81.6162 164.763 81.5236 164.83V164.83Z" fill="#FAFAFA"/>
<path d="M85.5604 162.603C85.3186 162.741 85.1282 162.954 85.0178 163.209C84.8936 163.546 84.8367 163.904 84.8503 164.263V167.143C84.8514 167.226 84.8351 167.307 84.8024 167.383C84.7828 167.448 84.7404 167.505 84.6827 167.542L84.2119 167.813C84.2044 167.822 84.1952 167.829 84.1849 167.833C84.1746 167.838 84.1634 167.841 84.1521 167.841C84.1407 167.841 84.1296 167.838 84.1192 167.833C84.1089 167.829 84.0997 167.822 84.0922 167.813C84.0565 167.759 84.0397 167.695 84.0443 167.63V162.467C84.0448 162.385 84.061 162.304 84.0922 162.228C84.1145 162.164 84.1564 162.108 84.2119 162.068L84.6827 161.797C84.6989 161.782 84.7203 161.774 84.7425 161.774C84.7648 161.774 84.7861 161.782 84.8024 161.797C84.8394 161.848 84.8564 161.91 84.8503 161.973V162.228C84.9454 162.014 85.0631 161.811 85.2014 161.622C85.3276 161.447 85.4911 161.302 85.6801 161.199L85.9674 161.031C85.9823 161.016 86.0024 161.008 86.0232 161.008C86.0441 161.008 86.0642 161.016 86.0791 161.031C86.1176 161.084 86.1373 161.149 86.135 161.215V161.941C86.1336 162.024 86.1145 162.105 86.0791 162.18C86.0589 162.243 86.02 162.299 85.9674 162.34L85.5604 162.603Z" fill="#FAFAFA"/>
<path d="M91.513 162.22C91.5204 162.212 91.5297 162.205 91.54 162.2C91.5503 162.195 91.5615 162.193 91.5728 162.193C91.5841 162.193 91.5953 162.195 91.6056 162.2C91.616 162.205 91.6252 162.212 91.6327 162.22C91.6684 162.274 91.6852 162.339 91.6805 162.404V163.201C91.6801 163.284 91.6639 163.365 91.6327 163.441C91.6052 163.5 91.5642 163.552 91.513 163.592L88.7841 165.188C88.7678 165.203 88.7464 165.212 88.7242 165.212C88.702 165.212 88.6806 165.203 88.6644 165.188C88.6287 165.137 88.6118 165.075 88.6165 165.013V157.831C88.6169 157.749 88.6332 157.668 88.6644 157.592C88.6867 157.53 88.7287 157.477 88.7841 157.44L89.2868 157.145C89.303 157.13 89.3244 157.122 89.3466 157.122C89.3688 157.122 89.3902 157.13 89.4064 157.145C89.4421 157.196 89.459 157.258 89.4543 157.321V163.393L91.513 162.22Z" fill="#FAFAFA"/>
<path d="M93.9624 156.316C94.1421 156.191 94.3589 156.132 94.5768 156.148C94.7636 156.163 94.9378 156.248 95.0635 156.387C95.2122 156.558 95.3213 156.76 95.3827 156.978C95.4679 157.26 95.5162 157.553 95.5263 157.848C95.5263 157.911 95.5263 157.999 95.5263 158.103V158.717C95.5263 158.813 95.5263 158.901 95.5263 158.973C95.5105 159.32 95.4624 159.664 95.3827 160.002C95.3089 160.331 95.202 160.652 95.0635 160.96C94.937 161.246 94.7734 161.514 94.5768 161.758C94.4085 161.978 94.2 162.165 93.9624 162.308C93.7777 162.428 93.5599 162.487 93.34 162.476C93.1558 162.46 92.9845 162.374 92.8612 162.236C92.7082 162.072 92.5985 161.871 92.5421 161.654C92.4568 161.371 92.4085 161.079 92.3984 160.784C92.3984 160.72 92.3984 160.64 92.3984 160.537V159.922C92.3984 159.819 92.3984 159.731 92.3984 159.667C92.4077 159.317 92.4532 158.97 92.5341 158.63C92.6118 158.298 92.7213 157.975 92.8612 157.664C92.988 157.38 93.1488 157.112 93.34 156.866C93.5092 156.643 93.7207 156.456 93.9624 156.316V156.316ZM94.7124 158.374C94.7121 158.198 94.6824 158.022 94.6247 157.856C94.595 157.754 94.5335 157.664 94.4491 157.6C94.3811 157.555 94.299 157.535 94.2177 157.544C94.1265 157.562 94.0397 157.597 93.9624 157.648C93.8686 157.7 93.7826 157.764 93.707 157.84C93.6155 157.935 93.5377 158.042 93.4756 158.159C93.3955 158.304 93.3364 158.46 93.3001 158.622C93.2477 158.825 93.2157 159.034 93.2044 159.244C93.2044 159.308 93.2044 159.38 93.2044 159.467V160.034C93.2044 160.122 93.2044 160.194 93.2044 160.241C93.2118 160.418 93.244 160.593 93.3001 160.76C93.3292 160.862 93.3909 160.952 93.4756 161.015C93.5088 161.039 93.5465 161.055 93.5863 161.064C93.6262 161.072 93.6672 161.072 93.707 161.063C93.7975 161.048 93.8842 161.016 93.9624 160.968C94.0549 160.914 94.1406 160.85 94.2177 160.776C94.3067 160.679 94.3844 160.572 94.4491 160.457C94.5259 160.31 94.5848 160.155 94.6247 159.994C94.6768 159.791 94.7062 159.582 94.7124 159.372C94.7172 159.297 94.7172 159.223 94.7124 159.148V158.59C94.7171 158.518 94.7171 158.446 94.7124 158.374Z" fill="#FAFAFA"/>
<path d="M97.9681 160.984C98.0701 160.921 98.1617 160.843 98.2394 160.752C98.3354 160.64 98.4184 160.516 98.4867 160.385C98.566 160.225 98.6275 160.056 98.6702 159.882C98.7193 159.687 98.7434 159.486 98.7421 159.284V158.877C98.7421 158.957 98.6623 159.053 98.6064 159.164C98.5517 159.281 98.4877 159.393 98.4149 159.499C98.3316 159.612 98.2409 159.718 98.1436 159.819C98.0435 159.924 97.9278 160.012 97.8005 160.082C97.7185 160.138 97.6261 160.177 97.5287 160.196C97.4313 160.215 97.3311 160.214 97.234 160.194C97.0566 160.138 96.9042 160.022 96.8031 159.866C96.673 159.66 96.5786 159.434 96.5238 159.196C96.4558 158.895 96.4184 158.587 96.4121 158.279C96.4121 158.175 96.4121 158.047 96.4121 157.896C96.4121 157.744 96.4121 157.616 96.4121 157.505C96.4221 157.154 96.4594 156.804 96.5238 156.459C96.5894 156.12 96.6828 155.786 96.8031 155.462C96.9159 155.18 97.0605 154.913 97.234 154.664C97.3811 154.444 97.5745 154.259 97.8005 154.121C97.9066 154.058 98.0226 154.012 98.1436 153.986C98.2333 153.969 98.3252 153.969 98.4149 153.986C98.4857 154.006 98.5511 154.041 98.6064 154.089C98.6574 154.128 98.703 154.174 98.7421 154.225V153.97C98.7425 153.888 98.7587 153.806 98.7899 153.73C98.8122 153.668 98.8543 153.615 98.9096 153.579L99.3804 153.299C99.3966 153.284 99.418 153.276 99.4402 153.276C99.4624 153.276 99.4838 153.284 99.5001 153.299C99.5386 153.353 99.5583 153.417 99.5559 153.483V158.67C99.5774 159.446 99.4333 160.219 99.133 160.936C98.8975 161.499 98.4897 161.974 97.9681 162.292C97.7901 162.403 97.5869 162.466 97.3776 162.476C97.2121 162.486 97.0475 162.444 96.9068 162.356C96.772 162.255 96.6626 162.124 96.5877 161.973C96.5098 161.791 96.4666 161.596 96.46 161.398C96.4525 161.316 96.4692 161.233 96.5079 161.159C96.5274 161.093 96.5699 161.037 96.6276 161L97.0505 160.76C97.0602 160.75 97.0719 160.741 97.0849 160.736C97.098 160.73 97.112 160.727 97.1263 160.727C97.1405 160.727 97.1545 160.73 97.1676 160.736C97.1806 160.741 97.1924 160.75 97.2021 160.76C97.2414 160.801 97.2762 160.847 97.3058 160.896C97.3544 160.981 97.4346 161.044 97.5292 161.071C97.625 161.143 97.7686 161.063 97.9681 160.984ZM97.218 157.114C97.218 157.326 97.218 157.534 97.218 157.736C97.1952 158.055 97.2857 158.371 97.4734 158.63C97.5443 158.691 97.635 158.725 97.7287 158.725C97.8224 158.725 97.913 158.691 97.984 158.63C98.2156 158.479 98.3964 158.262 98.5027 158.007C98.648 157.674 98.7292 157.317 98.7421 156.954C98.7421 156.834 98.7421 156.691 98.7421 156.523C98.7421 156.356 98.7421 156.212 98.7421 156.108C98.7583 155.822 98.6736 155.54 98.5027 155.31C98.432 155.245 98.3394 155.209 98.2433 155.209C98.1473 155.209 98.0547 155.245 97.984 155.31C97.757 155.46 97.5793 155.674 97.4734 155.925C97.3095 156.3 97.2226 156.704 97.218 157.114V157.114Z" fill="#FAFAFA"/>
<path d="M101.415 150.028C101.431 150.015 101.451 150.008 101.471 150.008C101.491 150.008 101.511 150.015 101.527 150.028C101.569 150.079 101.589 150.145 101.583 150.211V151.081C101.583 151.164 101.564 151.246 101.527 151.321C101.504 151.38 101.466 151.433 101.415 151.472L100.88 151.783C100.873 151.792 100.864 151.799 100.853 151.803C100.843 151.808 100.832 151.81 100.821 151.81C100.809 151.81 100.798 151.808 100.788 151.803C100.777 151.799 100.768 151.792 100.761 151.783C100.74 151.759 100.724 151.732 100.715 151.701C100.705 151.671 100.702 151.639 100.705 151.608V150.738C100.704 150.655 100.724 150.573 100.761 150.499C100.783 150.436 100.825 150.383 100.88 150.347L101.415 150.028ZM101.551 157.52C101.551 157.6 101.535 157.679 101.503 157.752C101.477 157.814 101.436 157.869 101.383 157.911L100.904 158.183C100.898 158.191 100.889 158.198 100.879 158.202C100.87 158.207 100.859 158.209 100.849 158.209C100.838 158.209 100.827 158.207 100.818 158.202C100.808 158.198 100.799 158.191 100.793 158.183C100.751 158.131 100.731 158.065 100.737 157.999V152.837C100.736 152.754 100.755 152.671 100.793 152.597C100.815 152.535 100.854 152.48 100.904 152.438L101.383 152.166C101.399 152.151 101.421 152.143 101.443 152.143C101.465 152.143 101.487 152.151 101.503 152.166C101.539 152.218 101.555 152.28 101.551 152.342V157.52Z" fill="#FAFAFA"/>
<path d="M105.749 155.087C105.749 155.169 105.733 155.25 105.701 155.326C105.679 155.388 105.637 155.442 105.582 155.478L105.103 155.757C105.088 155.772 105.068 155.78 105.047 155.78C105.026 155.78 105.006 155.772 104.991 155.757C104.949 155.705 104.929 155.64 104.935 155.574V152.765C104.96 152.433 104.899 152.101 104.76 151.799C104.648 151.6 104.473 151.568 104.225 151.712C103.978 151.877 103.796 152.122 103.707 152.406C103.573 152.782 103.508 153.179 103.515 153.579V156.395C103.515 156.478 103.498 156.559 103.467 156.635C103.448 156.701 103.405 156.757 103.347 156.794L102.877 157.066C102.869 157.074 102.86 157.081 102.85 157.086C102.839 157.09 102.828 157.093 102.817 157.093C102.806 157.093 102.794 157.09 102.784 157.086C102.774 157.081 102.764 157.074 102.757 157.066C102.72 157.015 102.703 156.953 102.709 156.89V151.727C102.708 151.645 102.724 151.564 102.757 151.488C102.777 151.422 102.819 151.366 102.877 151.329L103.347 151.057C103.355 151.049 103.364 151.042 103.374 151.037C103.385 151.033 103.396 151.03 103.407 151.03C103.419 151.03 103.43 151.033 103.44 151.037C103.45 151.042 103.46 151.049 103.467 151.057C103.503 151.111 103.52 151.176 103.515 151.241V151.488C103.62 151.245 103.748 151.012 103.898 150.794C104.029 150.592 104.207 150.425 104.417 150.307C104.598 150.174 104.824 150.117 105.047 150.148C105.135 150.17 105.218 150.21 105.289 150.267C105.361 150.323 105.42 150.394 105.462 150.475C105.578 150.691 105.654 150.926 105.685 151.169C105.728 151.486 105.749 151.806 105.749 152.126V155.087Z" fill="#FAFAFA"/>
<path d="M145.995 131.859L138.247 136.327L139.452 125.46C138.518 124.965 137.928 123.76 137.928 122.029C137.928 118.941 139.811 115.358 142.125 114.049C144.439 112.741 146.314 114.129 146.314 117.241C146.266 119.072 145.744 120.859 144.798 122.427L145.995 131.859Z" fill="#455A64"/>
<path d="M146.004 131.859L139.182 127.925L138.248 136.335L146.004 131.859Z" fill="#37474F"/>
<path d="M142.109 114.025C140.422 115.165 139.164 116.836 138.534 118.773L144.782 122.379C145.728 120.811 146.25 119.024 146.298 117.193C146.314 114.105 144.439 112.693 142.109 114.025Z" fill="#37474F"/>
<path d="M104.448 77.8391C101.79 76.3071 98.128 76.5226 94.0745 78.8605C85.9835 83.5363 79.4246 94.8909 79.4246 104.235C79.4246 108.926 81.0843 112.214 83.7493 113.73L88.9119 116.73C91.5611 118.262 95.2235 118.039 99.285 115.701C107.376 111.033 113.935 99.6705 113.935 90.3267C113.935 85.6588 112.291 82.3474 109.642 80.8553" fill="#407BFF"/>
<path d="M99.2767 81.8687C91.1857 86.5446 84.6267 97.9071 84.6267 107.243C84.6267 116.579 91.1857 120.377 99.2767 115.701C107.368 111.025 113.935 99.6705 113.927 90.3268C113.919 80.983 107.36 77.2008 99.2767 81.8687Z" fill="#407BFF"/>
<path d="M107.359 102.599V103.668C105.421 107.128 102.641 110.043 99.2762 112.142C96.1244 113.953 93.2758 114.153 91.1852 112.996V110.794C91.2922 108.502 91.9464 106.27 93.0931 104.283C94.2398 102.297 95.8455 100.614 97.7761 99.3752L99.9065 98.1464C101.79 97.0612 103.625 96.9176 105.061 97.7554C106.497 98.5932 107.359 100.357 107.359 102.599Z" fill="#407BFF"/>
<path opacity="0.4" d="M104.448 77.8391L109.634 80.8553C106.985 79.3153 103.323 79.5307 99.2613 81.8687C93.9631 84.9327 89.3191 90.8613 86.7498 97.2128L81.5553 94.2046C84.1326 87.8212 88.7367 81.9245 94.0668 78.8605C98.1363 76.5305 101.799 76.3071 104.448 77.8391Z" fill="white"/>
<path opacity="0.2" d="M88.7288 116.611L83.7576 113.73C81.0926 112.214 79.4329 108.943 79.4329 104.235L84.6274 107.251C84.6593 111.799 86.1913 115.039 88.7288 116.611Z" fill="black"/>
<path opacity="0.1" d="M81.571 94.2046L86.7655 97.2128C85.4345 100.393 84.7197 103.796 84.659 107.243V107.243L79.4645 104.227C79.5285 100.783 80.2432 97.3826 81.571 94.2046Z" fill="black"/>
<path d="M97.4251 97.6436C96.93 97.649 96.4425 97.5223 96.0127 97.2766C95.4947 96.9312 95.0796 96.4524 94.8113 95.8905C94.5431 95.3287 94.4316 94.7048 94.4887 94.0849C94.5564 92.6311 94.9713 91.2147 95.6988 89.9541C96.4262 88.6936 97.445 87.6257 98.6698 86.8397V86.8397C99.1618 86.4469 99.7609 86.2117 100.389 86.1649C101.017 86.1181 101.644 86.2619 102.189 86.5774C102.734 86.8929 103.171 87.3655 103.442 87.9333C103.714 88.5012 103.809 89.1378 103.713 89.7601C103.644 91.2136 103.228 92.6295 102.501 93.8898C101.774 95.1501 100.756 96.2183 99.5316 97.0053C98.8982 97.4006 98.1713 97.6209 97.4251 97.6436V97.6436Z" fill="white"/>
<path d="M105.061 97.7476C103.625 96.9097 101.79 97.0534 99.9065 98.1386L97.7761 99.3674C95.8445 100.607 94.238 102.291 93.0913 104.279C91.9446 106.267 91.2909 108.501 91.1852 110.794V113.004C93.2758 114.161 96.1244 113.961 99.2762 112.15C102.641 110.051 105.421 107.136 107.359 103.676V102.607C107.359 100.357 106.529 98.5934 105.061 97.7476Z" fill="white"/>
</svg>
