<svg width="400" height="400" viewBox="0 0 400 400" fill="none" xmlns="http://www.w3.org/2000/svg">
<g clip-path="url(#clip0)">
<path d="M353.205 152.384L350.547 153.921L284.156 115.595L286.814 114.058L353.205 152.384Z" fill="#455A64"/>
<path d="M286.814 114.058L350.547 150.857V103.099L286.814 66.3096V114.058Z" fill="#407BFF"/>
<path opacity="0.85" d="M286.814 114.058L350.547 150.857V103.099L286.814 66.3096V114.058Z" fill="white"/>
<path d="M317.353 82.4084V133.23L314.695 131.694V80.8718L317.353 82.4084Z" fill="#37474F"/>
<path d="M318.675 81.6401L317.35 82.4084V133.23L318.675 132.462V81.6401Z" fill="#263238"/>
<path d="M317.353 82.4084L314.695 80.8718L316.028 80.1035L318.678 81.6401L317.353 82.4084Z" fill="#FAFAFA"/>
<path d="M281.507 117.123L353.196 158.487V101.572L281.498 60.1724L281.507 117.123ZM284.156 64.7733L350.547 103.099V153.921L284.156 115.595V64.7733Z" fill="#37474F"/>
<path d="M284.156 115.595L286.814 114.058V66.3095L284.156 64.7729V115.595Z" fill="#263238"/>
<path d="M281.506 60.1723L284.156 58.6445L355.854 100.035L353.204 101.571L281.506 60.1723Z" fill="#455A64"/>
<path d="M355.854 100.035L353.205 101.571V158.522L355.854 156.985V100.035Z" fill="#263238"/>
<path d="M317.353 83.9362L314.703 82.4084V83.945L317.353 85.4728V83.9362Z" fill="#263238"/>
<path d="M317.35 85.4726L318.675 84.7043L317.35 83.936V85.4726Z" fill="black"/>
<path d="M388 227.623L150.765 364.587L12 284.485L249.224 147.51L388 227.623Z" fill="#407BFF"/>
<path d="M150.765 364.587V374.933L12 294.819V284.485L150.765 364.587Z" fill="#407BFF"/>
<path opacity="0.15" d="M150.765 364.587V374.933L12 294.819V284.485L150.765 364.587Z" fill="black"/>
<path d="M388 227.623V237.957L150.764 374.933V364.587L388 227.623Z" fill="#407BFF"/>
<path opacity="0.1" d="M388 227.623V237.957L150.764 374.933V364.587L388 227.623Z" fill="black"/>
<path opacity="0.1" d="M247.352 277.043L209.382 256.01C206.837 254.601 206.904 250.92 209.498 249.603L261.37 223.273C262.433 222.733 263.694 222.75 264.742 223.319L301.607 243.331C304.14 244.707 304.134 248.345 301.597 249.712L250.83 277.063C249.743 277.649 248.432 277.642 247.352 277.043Z" fill="black"/>
<path d="M257.556 192.755L260.171 192.832L262.334 163.874L259.719 163.797L257.556 192.755Z" fill="#455A64"/>
<path d="M279.832 204.975L282.437 205.052L284.6 176.094L281.995 176.017L279.832 204.975Z" fill="#455A64"/>
<path d="M278.956 207.465H283.311L289.589 252.268C289.591 252.369 289.561 252.468 289.504 252.553C289.448 252.637 289.367 252.702 289.272 252.739C289.036 252.862 288.774 252.926 288.508 252.926C288.242 252.926 287.979 252.862 287.743 252.739C287.669 252.703 287.603 252.652 287.55 252.589C287.497 252.526 287.458 252.453 287.436 252.373L278.956 207.465Z" fill="#455A64"/>
<path d="M253.064 192.515H257.352L263.621 237.318C263.618 237.418 263.587 237.516 263.531 237.599C263.475 237.683 263.396 237.748 263.304 237.789C263.064 237.907 262.801 237.969 262.534 237.969C262.268 237.969 262.004 237.907 261.765 237.789C261.69 237.752 261.624 237.699 261.571 237.634C261.518 237.57 261.479 237.495 261.458 237.414L253.064 192.515Z" fill="#455A64"/>
<path d="M219.732 251.47L227.183 207.465H231.5L221.886 251.566C221.864 251.647 221.826 251.722 221.773 251.787C221.72 251.851 221.653 251.904 221.578 251.941C221.339 252.059 221.076 252.121 220.809 252.121C220.542 252.121 220.279 252.059 220.04 251.941C219.949 251.899 219.872 251.833 219.816 251.75C219.76 251.667 219.728 251.57 219.723 251.47H219.732Z" fill="#455A64"/>
<path d="M247.74 267.66L254.008 222.848H258.325L249.941 267.746C249.918 267.826 249.878 267.901 249.825 267.965C249.773 268.029 249.707 268.083 249.634 268.121C249.395 268.24 249.131 268.302 248.865 268.302C248.598 268.302 248.335 268.24 248.095 268.121C248.003 268.081 247.924 268.015 247.868 267.932C247.812 267.849 247.781 267.751 247.778 267.65L247.74 267.66Z" fill="#455A64"/>
<path d="M227.183 207.465H231.5L229.74 215.522C228.779 214.714 227.817 213.878 226.856 213.022C226.651 212.821 226.476 212.591 226.337 212.34L227.183 207.465Z" fill="#37474F"/>
<path d="M283.311 207.465L284.061 212.82C283.909 213.367 283.621 213.866 283.225 214.272C282.427 215.013 281.581 215.753 280.696 216.483L279.004 207.465H283.311Z" fill="#37474F"/>
<path d="M253.181 229.03L254.046 222.848H258.363L256.949 230.376C255.671 229.943 254.411 229.491 253.181 229.03Z" fill="#37474F"/>
<path d="M256.95 193.717C257.144 193.686 257.34 193.667 257.536 193.659L262.44 228.684L260.074 229.924L253.421 194.467C254.585 194.15 255.758 193.9 256.95 193.717Z" fill="#37474F"/>
<path d="M256.997 226.982C245.828 223.422 235.555 217.5 226.876 209.619C226.294 209.014 225.952 208.218 225.915 207.379V205.052C225.936 204.646 226.041 204.248 226.223 203.884C226.405 203.521 226.66 203.198 226.972 202.937C235.888 196.512 246.138 192.181 256.959 190.265C257.822 190.135 258.702 190.184 259.545 190.41C269.845 193.544 277.751 198.069 283.264 203.985C283.805 204.64 284.119 205.453 284.158 206.302V208.629C284.117 209.464 283.776 210.256 283.196 210.859C276.014 217.183 268.038 222.541 259.468 226.8C258.69 227.142 257.818 227.206 256.997 226.982Z" fill="#407BFF"/>
<path opacity="0.4" d="M225.906 205.052V207.379C225.943 208.218 226.285 209.014 226.867 209.619C235.544 217.503 245.818 223.425 256.989 226.982C257.432 227.108 257.896 227.144 258.354 227.088V190.208C257.882 190.172 257.408 190.191 256.941 190.265C246.118 192.177 235.868 196.509 226.954 202.937C226.644 203.199 226.39 203.522 226.21 203.886C226.03 204.249 225.926 204.647 225.906 205.052Z" fill="black"/>
<path opacity="0.5" d="M258.363 190.208V227.088C258.74 227.06 259.109 226.962 259.45 226.8C268.015 222.539 275.991 217.184 283.178 210.869C283.756 210.261 284.098 209.466 284.139 208.629V206.302C284.106 205.452 283.791 204.637 283.245 203.985C277.733 198.069 269.827 193.541 259.527 190.4C259.147 190.296 258.757 190.232 258.363 190.208Z" fill="black"/>
<path d="M283.176 205.869C276.994 211.551 268.168 217.406 259.448 221.781C258.677 222.126 257.811 222.194 256.996 221.973C245.826 218.442 235.551 212.538 226.875 204.667C226.748 204.561 226.648 204.427 226.582 204.276C226.516 204.125 226.486 203.96 226.494 203.795C226.502 203.63 226.549 203.469 226.63 203.325C226.711 203.182 226.824 203.058 226.961 202.966C235.879 196.546 246.128 192.218 256.948 190.304C257.811 190.174 258.691 190.223 259.534 190.448C269.834 193.582 277.74 198.101 283.253 204.004C283.481 204.266 283.601 204.605 283.586 204.952C283.572 205.299 283.425 205.627 283.176 205.869Z" fill="#407BFF"/>
<path opacity="0.3" d="M283.176 205.869C276.994 211.551 268.168 217.406 259.448 221.781C258.677 222.126 257.811 222.194 256.996 221.973C245.826 218.442 235.551 212.538 226.875 204.667C226.748 204.561 226.648 204.427 226.582 204.276C226.516 204.125 226.486 203.96 226.494 203.795C226.502 203.63 226.549 203.469 226.63 203.325C226.711 203.182 226.824 203.058 226.961 202.966C235.879 196.546 246.128 192.218 256.948 190.304C257.811 190.174 258.691 190.223 259.534 190.448C269.834 193.582 277.74 198.101 283.253 204.004C283.481 204.266 283.601 204.605 283.586 204.952C283.572 205.299 283.425 205.627 283.176 205.869Z" fill="black"/>
<path d="M289.704 171.306C285.837 166.183 280.981 161.888 275.424 158.676C269.867 155.464 263.722 153.4 257.352 152.606C256.527 152.53 255.696 152.69 254.958 153.068C254.639 153.281 254.375 153.566 254.186 153.9C253.998 154.234 253.89 154.608 253.872 154.991V164.797C253.883 165.16 254.021 165.508 254.262 165.78C254.502 166.052 254.83 166.232 255.189 166.287C261.568 167.073 267.723 169.133 273.289 172.346C278.855 175.558 283.718 179.857 287.589 184.987C287.8 185.269 288.103 185.468 288.446 185.549C288.789 185.63 289.149 185.588 289.464 185.429C289.781 185.215 290.044 184.929 290.233 184.596C290.421 184.262 290.53 183.889 290.55 183.507V173.7C290.501 172.838 290.208 172.008 289.704 171.306Z" fill="#407BFF"/>
<path opacity="0.5" d="M280.917 177.902L290.291 172.489C290.423 172.876 290.497 173.281 290.512 173.691V183.497C290.492 183.88 290.383 184.252 290.195 184.586C290.006 184.92 289.743 185.205 289.426 185.42C289.111 185.578 288.751 185.62 288.408 185.54C288.065 185.459 287.762 185.26 287.551 184.978C285.559 182.422 283.339 180.054 280.917 177.902Z" fill="black"/>
<path opacity="0.3" d="M280.916 177.901C273.692 171.528 264.711 167.486 255.149 166.307C254.791 166.251 254.463 166.071 254.222 165.799C253.982 165.527 253.844 165.18 253.832 164.817V155.01C253.85 154.627 253.958 154.253 254.147 153.919C254.335 153.585 254.6 153.3 254.919 153.087C255.657 152.71 256.487 152.55 257.313 152.626C263.689 153.414 269.841 155.476 275.406 158.688C280.97 161.901 285.832 166.198 289.703 171.325C289.959 171.687 290.157 172.086 290.289 172.508L280.916 177.901Z" fill="black"/>
<path d="M287.55 185.006C283.679 179.876 278.816 175.577 273.25 172.365C267.684 169.152 261.528 167.092 255.15 166.307C254.791 166.251 254.463 166.071 254.223 165.799C253.982 165.527 253.844 165.179 253.833 164.816V155.01C253.828 154.843 253.86 154.676 253.927 154.523C253.993 154.369 254.093 154.233 254.219 154.122C254.345 154.012 254.494 153.931 254.655 153.885C254.816 153.839 254.985 153.829 255.15 153.856C261.529 154.643 267.685 156.705 273.251 159.919C278.817 163.133 283.68 167.434 287.55 172.566C288.033 173.27 288.309 174.096 288.348 174.95V184.747C288.348 185.468 287.992 185.593 287.55 185.006Z" fill="#407BFF"/>
<path opacity="0.4" d="M287.55 185.006C283.679 179.876 278.816 175.577 273.25 172.365C267.684 169.152 261.528 167.092 255.15 166.307C254.791 166.251 254.463 166.071 254.223 165.799C253.982 165.527 253.844 165.179 253.833 164.816V155.01C253.828 154.843 253.86 154.676 253.927 154.523C253.993 154.369 254.093 154.233 254.219 154.122C254.345 154.012 254.494 153.931 254.655 153.885C254.816 153.839 254.985 153.829 255.15 153.856C261.529 154.643 267.685 156.705 273.251 159.919C278.817 163.133 283.68 167.434 287.55 172.566C288.033 173.27 288.309 174.096 288.348 174.95V184.747C288.348 185.468 287.992 185.593 287.55 185.006Z" fill="black"/>
<path opacity="0.1" d="M220.086 232.023C220.086 241.438 207.419 249.07 191.794 249.07C176.169 249.07 163.502 241.438 163.502 232.023C163.502 222.608 176.169 214.975 191.794 214.975C207.419 214.975 220.086 222.608 220.086 232.023Z" fill="black"/>
<path d="M203.99 217.466C198.086 214.051 188.516 214.051 182.603 217.466C179.651 219.169 178.183 221.399 178.183 223.638C178.183 223.865 178.183 225.26 178.183 225.56C178.232 227.758 179.7 229.948 182.603 231.627C188.516 235.033 198.086 235.033 203.99 231.627C206.91 229.94 208.386 227.734 208.419 225.519V223.597C208.402 221.375 206.926 219.161 203.99 217.466Z" fill="#37474F"/>
<path d="M182.603 229.81C176.699 226.404 176.699 220.889 182.603 217.466C188.507 214.043 198.086 214.052 203.99 217.466C209.894 220.88 209.894 226.387 203.99 229.81C198.086 233.232 188.515 233.216 182.603 229.81Z" fill="#455A64"/>
<path d="M195.152 222.178V185.171H191.421V222.178C191.41 222.359 191.456 222.539 191.552 222.693C191.648 222.847 191.789 222.968 191.957 223.038C192.369 223.25 192.827 223.36 193.291 223.36C193.755 223.36 194.212 223.25 194.625 223.038C194.79 222.965 194.929 222.844 195.023 222.69C195.117 222.537 195.162 222.358 195.152 222.178Z" fill="#37474F"/>
<path d="M224.299 150.977C207.153 141.075 179.359 141.075 162.214 150.977C153.641 155.925 149.359 162.413 149.367 168.901V170.158C149.367 176.647 153.641 183.135 162.214 188.082C179.359 197.985 207.153 197.985 224.299 188.082C232.871 183.135 237.153 176.647 237.153 170.158V168.901C237.153 162.413 232.871 155.925 224.299 150.977Z" fill="#455A64"/>
<path d="M224.349 147.677C207.204 137.782 179.41 137.782 162.265 147.677C153.692 152.632 149.41 159.112 149.41 165.6C149.41 166.939 149.41 166.411 149.41 167.766C149.41 174.254 153.692 180.742 162.265 185.69C179.41 195.584 207.204 195.584 224.349 185.69C232.922 180.734 237.204 173.346 237.204 166.866C237.204 165.527 237.204 166.939 237.204 165.6C237.196 159.12 232.914 152.64 224.349 147.677Z" fill="#407BFF"/>
<path opacity="0.4" d="M224.349 147.677C207.204 137.782 179.41 137.782 162.265 147.677C153.692 152.632 149.41 159.112 149.41 165.6C149.41 166.939 149.41 166.411 149.41 167.766C149.41 174.254 153.692 180.742 162.265 185.69C179.41 195.584 207.204 195.584 224.349 185.69C232.922 180.734 237.204 173.346 237.204 166.866C237.204 165.527 237.204 166.939 237.204 165.6C237.196 159.12 232.914 152.64 224.349 147.677Z" fill="white"/>
<path opacity="0.1" d="M224.349 147.677C207.204 137.782 179.41 137.782 162.265 147.677C153.692 152.632 149.41 159.112 149.41 165.6C149.41 166.939 149.41 166.411 149.41 167.766C149.41 174.254 153.692 180.742 162.265 185.69C179.41 195.584 207.204 195.584 224.349 185.69C232.922 180.734 237.204 173.346 237.204 166.866C237.204 165.527 237.204 166.939 237.204 165.6C237.196 159.12 232.914 152.64 224.349 147.677Z" fill="black"/>
<path d="M162.255 183.532C145.109 173.638 145.109 157.579 162.255 147.685C179.4 137.79 207.194 137.79 224.339 147.685C241.484 157.579 241.484 173.638 224.339 183.532C207.194 193.427 179.4 193.435 162.255 183.532Z" fill="#407BFF"/>
<path opacity="0.85" d="M162.215 183.532C145.07 173.637 145.07 157.579 162.215 147.684C179.36 137.79 207.154 137.79 224.299 147.684C241.445 157.579 241.445 173.637 224.299 183.532C207.154 193.426 179.36 193.434 162.215 183.532Z" fill="white"/>
<path d="M238.108 251.733L233.377 254.201L237.079 261.297L241.81 258.829L238.108 251.733Z" fill="#FFA8A7"/>
<path d="M235.583 259.758C238.226 260.447 239.349 259.304 240.807 254.954C240.891 254.863 241.001 254.807 241.12 254.795C241.239 254.784 241.359 254.817 241.461 254.889L244.491 259.312C244.588 259.411 244.665 259.531 244.716 259.664C244.767 259.797 244.792 259.939 244.788 260.082C244.783 260.224 244.751 260.363 244.692 260.488C244.634 260.613 244.55 260.722 244.448 260.806C241.155 264.26 240.664 266.863 238.877 269.643C236.819 272.887 235.574 273.446 229.987 273.997C227.401 274.252 227.816 271.234 228.828 270.76C231.776 266.724 232.976 266.168 234.709 261.173C234.886 260.624 235.187 260.138 235.583 259.758Z" fill="#263238"/>
<path d="M221.8 210.9C220.389 208.561 221.166 207.16 224.923 204.527C224.986 204.421 225.008 204.299 224.986 204.182C224.963 204.065 224.898 203.959 224.799 203.881L219.698 202.232C219.576 202.167 219.439 202.128 219.297 202.116C219.155 202.105 219.011 202.122 218.876 202.166C218.74 202.211 218.617 202.281 218.513 202.373C218.41 202.465 218.33 202.575 218.278 202.697C215.901 206.835 213.544 208.046 211.386 210.548C208.86 213.442 208.067 213.213 209.125 218.726C209.615 221.278 214.228 220.843 214.396 219.738C217.428 215.764 216.394 215.219 220.692 212.14C221.167 211.814 221.548 211.388 221.8 210.9Z" fill="#263238"/>
<path d="M232.338 254.995C215.981 217.725 218.568 199.826 245.177 191.131L261.619 201.736C233.024 208.84 229.603 218.499 240.509 253.327C237.917 255.697 236.082 255.929 232.338 254.995Z" fill="#263238"/>
<path d="M216.475 207.747C273.732 262.982 287.257 221.776 275.352 202.57L256.38 200.593C266.152 218.602 266.333 237.101 222.988 202.57C219.726 202.23 212.841 206.594 216.475 207.747Z" fill="#263238"/>
<path d="M264.878 212.808C276.358 210.547 276.621 203.634 275.856 194.299L245.675 186.128C245.128 189.238 245.675 190.631 242.173 193.132L264.878 212.808Z" fill="#263238"/>
<path opacity="0.1" d="M203.69 204.997L223.849 193.354C224.026 193.255 224.227 193.202 224.43 193.202C224.634 193.202 224.834 193.255 225.011 193.354L259.988 213.559C260.028 213.58 260.062 213.612 260.086 213.651C260.11 213.69 260.123 213.735 260.123 213.781C260.123 213.826 260.11 213.871 260.086 213.91C260.062 213.949 260.028 213.981 259.988 214.002L239.635 225.756L203.69 204.997Z" fill="black"/>
<path d="M205.194 202.543V202.995C205.191 203.322 205.275 203.644 205.437 203.927C205.6 204.211 205.834 204.447 206.117 204.61L238.695 223.422C238.975 223.585 239.293 223.671 239.617 223.671C239.941 223.667 240.258 223.581 240.54 223.422L258.383 213.199C258.666 213.036 258.901 212.801 259.063 212.517C259.225 212.233 259.309 211.912 259.306 211.585V210.957C259.307 210.999 259.296 211.04 259.275 211.076C259.254 211.112 259.223 211.141 259.186 211.16L239.682 222.426L205.194 202.543Z" fill="#37474F"/>
<path d="M239.634 222.435V223.671C239.311 223.668 238.993 223.582 238.712 223.422L206.134 204.61C205.851 204.447 205.617 204.211 205.455 203.927C205.292 203.644 205.209 203.322 205.211 202.995V202.543L239.634 222.435Z" fill="#263238"/>
<path d="M205.194 202.543L224.514 191.389C224.683 191.293 224.873 191.243 225.067 191.243C225.261 191.243 225.452 191.293 225.621 191.389L259.14 210.764C259.178 210.784 259.211 210.814 259.233 210.852C259.256 210.889 259.268 210.932 259.268 210.976C259.268 211.019 259.256 211.062 259.233 211.1C259.211 211.137 259.178 211.168 259.14 211.188L239.635 222.453L205.194 202.543Z" fill="#455A64"/>
<path d="M239.818 220.792L250.235 214.786L219.761 197.192L209.289 203.17L239.818 220.792Z" fill="#37474F"/>
<path d="M209.289 203.17L209.686 203.401L219.761 197.644L249.838 215.008L250.235 214.786L219.761 197.192L209.289 203.17Z" fill="#263238"/>
<path d="M244.938 204.075L244.744 204.185L239.633 207.128L230.554 201.888L230.361 201.777L235.666 198.723L244.938 204.075Z" fill="#263238"/>
<path d="M244.746 204.185L239.635 207.128L230.556 201.888L235.667 198.936L244.746 204.185Z" fill="#37474F"/>
<path d="M239.108 222.702C238.801 222.822 238.471 222.871 238.142 222.847C237.813 222.823 237.494 222.726 237.207 222.564L204.768 203.826C204.486 203.665 204.243 203.444 204.058 203.177C203.873 202.91 203.75 202.605 203.698 202.285L200.146 181.074C200.137 180.951 200.137 180.828 200.146 180.705C200.145 180.414 200.202 180.126 200.313 179.856C200.423 179.587 200.586 179.343 200.792 179.136L234.476 198.604C234.684 198.725 234.863 198.89 235 199.087C235.137 199.285 235.229 199.511 235.27 199.748L239.108 222.702Z" fill="#37474F"/>
<path d="M239.634 222.435L239.413 222.564C239.317 222.621 239.214 222.667 239.108 222.702L235.316 199.785C235.276 199.547 235.184 199.322 235.047 199.124C234.91 198.927 234.731 198.761 234.523 198.641L200.811 179.173C200.947 179.042 201.099 178.928 201.263 178.832L235.049 198.336C235.255 198.458 235.433 198.623 235.568 198.821C235.704 199.018 235.794 199.244 235.833 199.48L239.634 222.435Z" fill="#455A64"/>
<path d="M234.957 199.074L235.483 198.77C235.642 198.978 235.746 199.222 235.787 199.48L239.635 222.435L239.413 222.564C239.315 222.617 239.213 222.664 239.109 222.702L235.317 199.785C235.255 199.523 235.131 199.279 234.957 199.074Z" fill="#263238"/>
<path d="M220.84 203.152C220.33 201.383 219.161 199.877 217.574 198.945C216.005 198.022 214.926 198.456 215.166 199.867C215.669 201.639 216.84 203.147 218.432 204.075C220 204.988 221.079 204.573 220.84 203.152Z" fill="#407BFF"/>
<path d="M258.232 211.289C290.743 212.937 291.587 204.324 288.272 177.025L277.396 179.61C279.978 199.327 287.497 205.25 256.737 206.131C250.729 203.651 246.292 203.549 242.284 208.589C244.33 212.487 247.076 207.73 250.011 209.897C252.947 212.065 254.71 212.586 258.232 211.289Z" fill="#FFA8A7"/>
<path d="M233.509 197.383C239.494 191.943 242.2 179.559 242.758 168.003L251.463 172.175C248.435 193.65 246.048 199.505 236.411 203.187C235.504 197.383 235.867 199.197 233.509 197.383Z" fill="#FFA8A7"/>
<path d="M254.289 152.273C246.414 148.148 244.766 161.117 240.349 166.651C244.896 173.441 250.003 173.24 255.703 172.013C255.703 172.013 262.164 156.398 254.289 152.273Z" fill="#9FBDFF"/>
<path d="M245.476 171.449C247.108 162.563 247.652 160.93 247.652 160.93L248.015 172.719L245.476 171.449Z" fill="black" fill-opacity="0.1"/>
<path d="M284.632 160.581C270.717 151.832 251.874 147.217 249.346 153.16C246.817 159.102 247.641 180.278 245.114 189.948C247.09 199.446 266.497 204.088 276.939 199.791C276.157 187.183 280.246 177.703 284.632 160.581Z" fill="#9FBDFF"/>
<path d="M275.55 187.023C275.002 181.461 275.076 178.656 276.207 172.812L279.568 188.466L275.55 187.023Z" fill="black" fill-opacity="0.1"/>
<path d="M281.824 160.518C272.819 162.948 276.439 187.637 276.439 187.637C284.126 190.989 287.52 190.399 291.661 184.097C291.661 184.097 290.829 158.088 281.824 160.518Z" fill="#9FBDFF"/>
<path opacity="0.1" d="M253.245 198.809C252.535 199.606 252.653 201.4 252.801 202.198L250.582 202.796C251.47 199.606 254.133 197.812 253.245 198.809Z" fill="black"/>
<path d="M272.136 154.88C270.27 152.063 271.711 143.002 272.665 138.824C270.174 140.109 264.711 143.253 262.785 145.551C260.859 147.85 261.738 153.936 262.418 156.693C263.468 160.95 269.917 159.892 272.136 154.88Z" fill="#FFA8A7"/>
<path d="M271.262 150.243C271.138 148.962 271.212 146.73 271.586 145.465C270.843 147.835 261.894 147.381 261.878 147.859C261.862 148.337 261.381 149.918 261.768 151.207C262.202 152.655 271.393 151.601 271.262 150.243Z" fill="black" fill-opacity="0.1"/>
<path d="M255.585 135.64C253.391 143.345 256.318 149.608 263.952 149.601C270.022 150.233 275.543 144.98 276.284 137.869C277.025 130.757 273.986 124.54 267.917 123.908C261.847 123.275 256.326 128.528 255.585 135.64Z" fill="#FFA8A7"/>
<path d="M253.583 123.175C254.058 122.517 254.712 121.961 255.495 121.551C256.278 121.14 257.17 120.887 258.102 120.809C259.034 120.731 259.981 120.831 260.87 121.102C261.76 121.372 262.569 121.806 263.235 122.37C263.73 121.677 264.427 121.1 265.264 120.69C266.101 120.279 267.053 120.048 268.037 120.016C269.02 119.984 270.005 120.153 270.905 120.507C271.805 120.861 272.593 121.389 273.198 122.046C275.872 122.244 275.535 124.16 275.947 125.582C277.022 126.428 279.338 126.098 279.613 127.627C279.888 129.156 280.649 128.677 280.876 129.324C281.103 129.97 281.112 130.651 280.902 131.291C280.691 131.931 280.269 132.505 279.683 132.951C279.096 133.397 278.368 133.696 277.577 133.817C277.828 134.309 277.956 134.836 277.954 135.365C277.952 135.894 277.82 136.414 277.566 136.893C277.313 137.373 276.942 137.802 276.477 138.154C276.012 138.507 275.462 138.775 274.862 138.943L274.298 138.702C273.293 137.606 272.694 136.297 272.58 134.942C272.465 133.586 272.839 132.244 273.655 131.086C273.585 131.085 273.515 131.079 273.446 131.071C272.413 131.456 271.232 131.507 270.133 131.213C269.033 130.92 268.093 130.303 267.493 129.481C266.653 129.886 265.684 130.081 264.7 130.042C263.715 130.003 262.757 129.731 261.938 129.26C261.711 129.093 261.445 128.967 261.158 128.889C260.79 128.867 260.425 128.93 260.103 129.07C259.213 129.391 258.219 129.479 257.25 129.324C256.805 129.245 256.387 129.075 256.035 128.83C255.684 128.585 255.41 128.273 255.239 127.922L255.167 127.916C254.62 127.77 254.127 127.504 253.742 127.147C253.357 126.789 253.095 126.354 252.985 125.889C252.764 124.944 252.978 123.976 253.583 123.175Z" fill="#263238"/>
<path d="M260.117 138.924C261.286 138.327 261.902 137.891 262.484 136.867L261.667 140.372C260.566 140.188 259.201 139.393 260.117 138.924Z" fill="#E4897B"/>
<path d="M264.692 143.639C264.501 143.65 264.308 143.651 264.116 143.643C264.098 143.645 264.081 143.644 264.064 143.64C264.047 143.637 264.032 143.631 264.018 143.623C264.005 143.615 263.995 143.606 263.988 143.596C263.981 143.585 263.977 143.574 263.978 143.563C263.978 143.551 263.983 143.541 263.991 143.531C263.999 143.521 264.01 143.513 264.024 143.506C264.038 143.5 264.054 143.496 264.071 143.494C264.088 143.492 264.106 143.493 264.123 143.496C264.609 143.524 265.093 143.477 265.534 143.359C265.976 143.241 266.363 143.055 266.662 142.818C266.68 142.802 266.706 142.792 266.735 142.789C266.765 142.787 266.796 142.791 266.821 142.803C266.834 142.808 266.845 142.816 266.853 142.824C266.862 142.832 266.867 142.841 266.87 142.851C266.873 142.861 266.873 142.87 266.87 142.88C266.867 142.889 266.86 142.898 266.852 142.906C266.592 143.117 266.267 143.29 265.897 143.416C265.526 143.542 265.116 143.618 264.692 143.639Z" fill="#263238"/>
<path d="M268.402 135.718C268.594 136.355 268.385 137.051 267.868 137.267C267.351 137.482 266.864 137.109 266.671 136.472C266.479 135.835 266.688 135.138 267.211 134.932C267.734 134.725 268.209 135.08 268.402 135.718Z" fill="#263238"/>
<path d="M258.951 133.421C259.308 133.866 259.341 134.597 258.967 135.088C258.593 135.579 258.074 135.542 257.717 135.097C257.361 134.652 257.321 133.933 257.702 133.43C258.082 132.926 258.574 133.014 258.951 133.421Z" fill="#263238"/>
<path d="M270.6 133.95C270.538 133.983 270.465 133.991 270.391 133.973C270.316 133.955 270.243 133.911 270.182 133.847C269.792 133.441 269.343 133.134 268.873 132.951C268.404 132.769 267.927 132.716 267.483 132.798C267.437 132.812 267.388 132.815 267.337 132.805C267.286 132.796 267.235 132.774 267.187 132.743C267.14 132.711 267.096 132.669 267.058 132.62C267.021 132.571 266.991 132.516 266.97 132.457C266.928 132.339 266.925 132.216 266.959 132.114C266.994 132.012 267.065 131.939 267.156 131.909C267.714 131.79 268.317 131.843 268.914 132.063C269.511 132.284 270.083 132.666 270.581 133.175C270.624 133.216 270.661 133.266 270.69 133.321C270.719 133.376 270.74 133.435 270.75 133.494C270.76 133.554 270.761 133.613 270.751 133.668C270.741 133.722 270.72 133.772 270.692 133.813C270.672 133.868 270.64 133.915 270.6 133.95Z" fill="#263238"/>
<path d="M257.176 132.121C257.097 132.121 257.021 132.09 256.96 132.034C256.89 131.967 256.845 131.871 256.836 131.766C256.826 131.661 256.853 131.556 256.91 131.472C257.254 130.975 257.692 130.575 258.19 130.301C258.689 130.028 259.234 129.889 259.784 129.895C259.829 129.899 259.873 129.913 259.913 129.936C259.954 129.959 259.989 129.992 260.019 130.031C260.048 130.07 260.07 130.116 260.084 130.165C260.097 130.214 260.102 130.266 260.098 130.318C260.096 130.37 260.084 130.422 260.064 130.469C260.044 130.516 260.016 130.558 259.981 130.592C259.946 130.626 259.906 130.652 259.862 130.668C259.818 130.683 259.772 130.688 259.727 130.683C259.287 130.683 258.852 130.799 258.455 131.023C258.059 131.246 257.711 131.571 257.44 131.971C257.408 132.018 257.368 132.055 257.322 132.081C257.277 132.107 257.226 132.121 257.176 132.121Z" fill="#263238"/>
<path d="M274.464 137.186C273.478 138.704 273.644 140.562 274.835 141.336C276.026 142.109 277.791 141.506 278.777 139.988C279.94 138.463 279.807 136.604 278.406 135.838C277.215 135.064 275.451 135.668 274.464 137.186Z" fill="#FFA8A7"/>
<path d="M220.871 172.509C219.181 172.54 217.516 172.146 216.079 171.374C215.55 171.197 215.095 170.886 214.774 170.48C214.454 170.075 214.282 169.595 214.282 169.103C214.282 168.611 214.454 168.131 214.774 167.726C215.095 167.32 215.55 167.009 216.079 166.832C217.531 166.089 219.185 165.697 220.871 165.697C222.557 165.697 224.211 166.089 225.663 166.832C226.192 167.009 226.647 167.32 226.967 167.726C227.288 168.131 227.46 168.611 227.46 169.103C227.46 169.595 227.288 170.075 226.967 170.48C226.647 170.886 226.192 171.197 225.663 171.374C224.227 172.148 222.561 172.542 220.871 172.509Z" fill="#407BFF"/>
<path opacity="0.05" d="M220.871 172.509C219.181 172.54 217.516 172.146 216.079 171.374C215.55 171.197 215.095 170.886 214.774 170.48C214.454 170.075 214.282 169.595 214.282 169.103C214.282 168.611 214.454 168.131 214.774 167.726C215.095 167.32 215.55 167.009 216.079 166.832C217.531 166.089 219.185 165.697 220.871 165.697C222.557 165.697 224.211 166.089 225.663 166.832C226.192 167.009 226.647 167.32 226.967 167.726C227.288 168.131 227.46 168.611 227.46 169.103C227.46 169.595 227.288 170.075 226.967 170.48C226.647 170.886 226.192 171.197 225.663 171.374C224.227 172.148 222.561 172.542 220.871 172.509Z" fill="black"/>
<path d="M226.317 168.681C226.762 168.706 227.207 168.651 227.625 168.519C228.365 168.176 228.919 167.593 229.167 166.897C229.55 166.086 230.166 164.407 229.727 163.523C229.176 162.404 227.616 162.363 226.579 162.331H226.215L226.159 163.402C226.28 163.402 226.476 163.402 226.616 163.402C227.196 163.402 228.485 163.596 228.625 163.88C229.111 164.578 227.868 167.246 227.336 167.538C226.673 167.657 225.99 167.657 225.327 167.538L224.926 168.43C225.372 168.574 225.842 168.659 226.317 168.681Z" fill="#407BFF"/>
<path opacity="0.5" d="M226.317 168.681C226.762 168.706 227.207 168.651 227.625 168.519C228.365 168.176 228.919 167.593 229.167 166.897C229.55 166.086 230.166 164.407 229.727 163.523C229.176 162.404 227.616 162.363 226.579 162.331H226.215L226.159 163.402C226.28 163.402 226.476 163.402 226.616 163.402C227.196 163.402 228.485 163.596 228.625 163.88C229.111 164.578 227.868 167.246 227.336 167.538C226.673 167.657 225.99 167.657 225.327 167.538L224.926 168.43C225.372 168.574 225.842 168.659 226.317 168.681Z" fill="black"/>
<path d="M215.426 161.05C215.547 160.595 216.061 160.141 216.986 159.784C219.476 158.96 222.223 158.937 224.73 159.719C225.665 160.06 226.188 160.53 226.319 160.952C226.72 163.945 226.15 167.44 224.936 169.371V169.411C224.692 169.754 224.347 170.034 223.936 170.222C223.032 170.635 222.028 170.855 221.006 170.865C219.985 170.875 218.975 170.674 218.06 170.279C217.642 170.094 217.29 169.814 217.042 169.468V169.428C215.79 167.513 215.174 164.034 215.454 161.033L215.426 161.05Z" fill="#407BFF"/>
<path opacity="0.4" d="M215.426 161.05C215.547 160.595 216.061 160.141 216.986 159.784C219.476 158.96 222.223 158.937 224.73 159.719C225.665 160.06 226.188 160.53 226.319 160.952C226.72 163.945 226.15 167.44 224.936 169.371V169.411C224.692 169.754 224.347 170.034 223.936 170.222C223.032 170.635 222.028 170.855 221.006 170.865C219.985 170.875 218.975 170.674 218.06 170.279C217.642 170.094 217.29 169.814 217.042 169.468V169.428C215.79 167.513 215.174 164.034 215.454 161.033L215.426 161.05Z" fill="black"/>
<path d="M216.986 159.752C214.856 160.563 214.875 161.885 216.986 162.672C219.494 163.454 222.241 163.431 224.731 162.607C226.861 161.796 226.842 160.474 224.731 159.687C222.223 158.905 219.476 158.928 216.986 159.752Z" fill="#407BFF"/>
<path opacity="0.4" d="M217.744 160.239C216.025 160.782 216.034 161.634 217.744 162.144C219.789 162.653 221.961 162.633 223.994 162.088C225.713 161.544 225.703 160.693 223.994 160.182C221.949 159.672 219.776 159.691 217.744 160.239Z" fill="black"/>
<path d="M217.751 161.406C217.445 161.499 217.155 161.63 216.892 161.796C217.16 161.952 217.453 162.075 217.761 162.161C219.806 162.669 221.978 162.65 224.011 162.104C224.318 162.016 224.608 161.887 224.87 161.723C224.606 161.558 224.312 161.432 224.001 161.35C221.956 160.841 219.784 160.861 217.751 161.406Z" fill="#263238"/>
<path opacity="0.1" d="M183.494 159.888C178.601 162.367 178.601 166.387 183.494 168.867C188.388 171.346 196.299 171.339 201.184 168.867C206.07 166.395 206.078 162.367 201.184 159.888C196.291 157.409 188.347 157.409 183.494 159.888Z" fill="black"/>
<path d="M200.141 165.663C204.301 161.922 206.751 146.702 202.687 143.739H182.022C177.967 146.702 180.4 161.915 184.561 165.663L184.674 165.763L184.82 165.884C184.942 165.984 185.064 166.084 185.201 166.184L185.299 166.248L185.615 166.463C185.793 166.57 185.972 166.677 186.15 166.762C188.073 167.622 190.199 168.069 192.355 168.069C194.511 168.069 196.637 167.622 198.559 166.762C198.745 166.67 198.924 166.568 199.094 166.456L199.394 166.263L199.516 166.177C199.641 166.087 199.76 165.992 199.873 165.892L200.043 165.749L200.141 165.663Z" fill="#407BFF"/>
<path opacity="0.5" d="M200.141 165.663C204.301 161.922 206.751 146.702 202.687 143.739H182.022C177.967 146.702 180.4 161.915 184.561 165.663L184.674 165.763L184.82 165.884C184.942 165.984 185.064 166.084 185.201 166.184L185.299 166.248L185.615 166.463C185.793 166.57 185.972 166.677 186.15 166.762C188.073 167.622 190.199 168.069 192.355 168.069C194.511 168.069 196.637 167.622 198.559 166.762C198.745 166.67 198.924 166.568 199.094 166.456L199.394 166.263L199.516 166.177C199.641 166.087 199.76 165.992 199.873 165.892L200.043 165.749L200.141 165.663Z" fill="white"/>
<path d="M183.814 142.54C179.102 144.938 179.102 148.822 183.814 151.221C188.526 153.62 196.174 153.612 200.895 151.221C205.615 148.829 205.607 144.938 200.895 142.54C196.183 140.141 188.526 140.141 183.814 142.54Z" fill="#407BFF"/>
<path opacity="0.7" d="M183.814 142.54C179.102 144.938 179.102 148.822 183.814 151.221C188.526 153.62 196.174 153.612 200.895 151.221C205.615 148.829 205.607 144.938 200.895 142.54C196.183 140.141 188.526 140.141 183.814 142.54Z" fill="white"/>
<path d="M192.356 151.385C197.251 151.385 201.22 149.368 201.22 146.88C201.22 144.392 197.251 142.375 192.356 142.375C187.46 142.375 183.491 144.392 183.491 146.88C183.491 149.368 187.46 151.385 192.356 151.385Z" fill="#407BFF"/>
<path d="M198.624 146.716C196.681 145.85 194.533 145.399 192.355 145.399C190.177 145.399 188.029 145.85 186.086 146.716C185.247 147.115 184.533 147.692 184.01 148.394C184.534 149.093 185.247 149.667 186.086 150.064C188.028 150.934 190.176 151.387 192.355 151.387C194.534 151.387 196.682 150.934 198.624 150.064C199.461 149.665 200.174 149.092 200.701 148.394C200.175 147.693 199.462 147.117 198.624 146.716Z" fill="#455A64"/>
<path d="M192.622 148.015C190.208 148.33 187.742 148.084 185.469 147.301C181.527 145.995 180.911 143.667 180.911 143.667C180.911 143.667 184.269 141.39 186.872 141.583C184.362 140.907 181.741 140.61 179.119 140.705C179.119 140.705 176.88 139.627 177.926 136.214C177.926 136.214 180.359 135.079 185.412 136.314C183.463 134.882 181.17 133.859 178.705 133.323C178.348 133.28 179.605 128.818 180.376 126.855C181.146 124.892 181.941 125.32 183.75 125.741C185.558 126.162 191.049 128.597 191.552 129.853C192.054 131.11 190.862 133.958 190.862 133.958C191.944 133.374 192.816 132.533 193.376 131.531C194.65 131.803 195.799 132.41 196.669 133.273C198.08 134.701 197.48 135.415 196.75 136.528C196.022 137.669 195.112 138.712 194.05 139.627C194.05 139.627 195.866 139.305 198.105 135.907C198.762 137.516 199.161 139.198 199.289 140.905C199.265 142.946 196.41 146.859 192.622 148.015Z" fill="#407BFF"/>
<path opacity="0.2" d="M192.622 148.015C190.208 148.33 187.742 148.084 185.469 147.301C181.527 145.995 180.911 143.667 180.911 143.667C180.911 143.667 184.269 141.39 186.872 141.583C184.362 140.907 181.741 140.61 179.119 140.705C179.119 140.705 176.88 139.627 177.926 136.214C177.926 136.214 180.359 135.079 185.412 136.314C183.463 134.882 181.17 133.859 178.705 133.323C178.348 133.28 179.605 128.818 180.376 126.855C181.146 124.892 181.941 125.32 183.75 125.741C185.558 126.162 191.049 128.597 191.552 129.853C192.054 131.11 190.862 133.958 190.862 133.958C191.944 133.374 192.816 132.533 193.376 131.531C194.65 131.803 195.799 132.41 196.669 133.273C198.08 134.701 197.48 135.415 196.75 136.528C196.022 137.669 195.112 138.712 194.05 139.627C194.05 139.627 195.866 139.305 198.105 135.907C198.762 137.516 199.161 139.198 199.289 140.905C199.265 142.946 196.41 146.859 192.622 148.015Z" fill="black"/>
<path d="M192.508 148.194C192.469 148.176 192.436 148.148 192.415 148.114C192.393 148.079 192.383 148.04 192.387 148.001C192.922 141.19 186.069 129.539 182.606 126.919C182.567 126.882 182.546 126.834 182.544 126.784C182.543 126.734 182.563 126.685 182.6 126.647C182.636 126.608 182.688 126.583 182.744 126.575C182.8 126.568 182.858 126.578 182.906 126.605C186.426 129.268 193.393 141.112 192.857 148.022C192.855 148.05 192.847 148.076 192.833 148.101C192.82 148.125 192.8 148.147 192.777 148.165C192.754 148.183 192.727 148.196 192.697 148.205C192.668 148.214 192.637 148.217 192.606 148.215C192.572 148.212 192.54 148.205 192.508 148.194Z" fill="white"/>
<path d="M191.917 149.464C192.675 150.091 193.585 150.557 194.579 150.826C195.573 151.096 196.623 151.163 197.65 151.021C198.677 150.879 199.654 150.532 200.506 150.008C201.358 149.483 202.062 148.794 202.566 147.994C202.745 147.756 202.828 147.471 202.801 147.187C202.703 146.913 202.507 146.675 202.242 146.509C200.975 145.578 199.454 144.956 197.83 144.703C198.77 144.728 199.71 144.69 200.644 144.588C201.916 144.57 203.187 144.678 204.431 144.91C204.431 144.91 206.516 144.238 206.118 141.169C206.118 141.169 204.156 139.912 199.63 140.405C201.524 139.387 203.657 138.764 205.867 138.584C206.175 138.584 205.753 134.593 205.372 132.809C204.991 131.024 204.245 131.309 202.623 131.459C201.001 131.609 195.891 133.094 195.283 134.122C194.675 135.15 195.283 137.742 195.283 137.742C194.434 137.114 193.804 136.287 193.466 135.357C192.327 135.452 191.247 135.848 190.368 136.493C188.941 137.556 189.354 138.234 189.817 139.291C190.276 140.359 190.907 141.364 191.69 142.275C191.47 142.1 191.231 141.945 190.976 141.811C190.579 141.54 190.165 141.326 189.776 141.026C189.049 140.448 188.46 139.749 188.04 138.97C187.164 140.184 186.548 141.529 186.224 142.939C185.903 144.362 186.174 145.839 186.986 147.101C187.479 147.823 188.185 148.414 189.029 148.81C189.873 149.206 190.824 149.393 191.779 149.35C191.821 149.392 191.867 149.43 191.917 149.464Z" fill="#407BFF"/>
<path d="M191.764 149.85C191.8 149.836 191.83 149.814 191.853 149.787C191.876 149.759 191.89 149.727 191.894 149.693C192.437 143.753 200.077 134.472 203.451 132.609C203.496 132.583 203.528 132.542 203.54 132.495C203.553 132.449 203.544 132.4 203.516 132.359C203.485 132.321 203.439 132.293 203.386 132.283C203.334 132.272 203.279 132.279 203.232 132.302C199.801 134.201 192.04 143.632 191.488 149.664C191.486 149.688 191.489 149.711 191.497 149.734C191.506 149.756 191.519 149.777 191.536 149.795C191.553 149.813 191.575 149.828 191.598 149.838C191.622 149.849 191.648 149.855 191.675 149.857C191.705 149.862 191.736 149.859 191.764 149.85Z" fill="white"/>
<path d="M114.311 227.166L114.458 227.013L114.592 226.851L114.311 227.166ZM114.311 227.166L114.592 226.851L114.821 226.508L114.311 227.166ZM114.592 226.851L114.714 226.681L114.821 226.508L114.592 226.851ZM113.988 227.435L114.154 227.308L114.311 227.166L113.988 227.435ZM114.821 226.508L114.911 226.332L114.983 226.155L114.821 226.508ZM114.821 226.508L114.983 226.155L115.069 225.811L114.821 226.508ZM114.983 226.155L115.037 225.981L115.069 225.811L114.983 226.155ZM35.5805 273.403L114.311 227.166L114.821 226.508L35.5805 273.403ZM35.5805 273.403L113.988 227.435L114.311 227.166L35.5805 273.403ZM35.5805 273.403L113.815 227.547L113.988 227.435L35.5805 273.403Z" fill="#80909E"/>
<path d="M32.6135 271.837L30.8657 270.273L30.9448 270.362L32.6135 271.837ZM32.5538 271.727L30.8059 270.164L30.8657 270.273L32.5538 271.727ZM32.515 271.598L30.7671 270.034L30.8059 270.164L32.515 271.598ZM32.6926 271.926L32.6135 271.837L30.9448 270.362L32.6926 271.926ZM32.4987 271.449L30.7507 269.885L30.7671 270.034L32.4987 271.449ZM32.6135 271.837L32.5538 271.727L30.8657 270.273L32.6135 271.837ZM32.5538 271.727L32.515 271.598L30.8059 270.164L32.5538 271.727ZM32.515 271.598L32.4987 271.449L30.7671 270.034L32.515 271.598Z" fill="#73818E"/>
<path d="M35.2341 273.564L35.4041 273.495L35.5807 273.403L35.2341 273.564ZM34.9204 273.63L35.2341 273.564L35.5807 273.403L34.9204 273.63Z" fill="#80909E"/>
<path d="M34.3629 273.402L32.6139 271.837L32.693 271.926L34.3629 273.402Z" fill="#73818E"/>
<path d="M34.9202 273.63L35.0722 273.609L35.2339 273.564L34.9202 273.63Z" fill="#80909E"/>
<path d="M34.3033 273.292L32.5543 271.728L32.6141 271.837L34.3033 273.292Z" fill="#73818E"/>
<path d="M34.4415 273.49L34.9193 273.63L35.5796 273.402L34.4415 273.49Z" fill="#80909E"/>
<path d="M34.2652 273.163L32.5161 271.598L32.5549 271.727L34.2652 273.163Z" fill="#73818E"/>
<path d="M34.6514 273.604L34.7789 273.628L34.9194 273.63L34.6514 273.604Z" fill="#80909E"/>
<path d="M34.442 273.491L34.3629 273.402L32.693 271.926L34.442 273.491ZM34.2483 273.014L32.4991 271.449L32.5154 271.598L34.2483 273.014Z" fill="#73818E"/>
<path d="M34.4417 273.49L34.6514 273.604L34.9195 273.63L34.4417 273.49Z" fill="#80909E"/>
<path d="M34.3629 273.402L34.3032 273.292L32.6139 271.837L34.3629 273.402Z" fill="#73818E"/>
<path d="M34.4417 273.49L34.5384 273.558L34.6514 273.604L34.4417 273.49Z" fill="#80909E"/>
<path d="M34.3039 273.292L34.2652 273.163L32.5549 271.727L34.3039 273.292ZM34.2652 273.163L34.249 273.014L32.5161 271.598L34.2652 273.163Z" fill="#73818E"/>
<path d="M34.3039 273.292L34.3636 273.402L34.4426 273.49L34.3039 273.292ZM34.2489 273.014L34.3039 273.292L34.4426 273.49L34.2489 273.014ZM34.2489 273.014L34.2652 273.163L34.3039 273.292L34.2489 273.014ZM114.821 226.508L115.069 225.811L113.515 82.7129L114.821 226.508ZM115.069 225.811L115.079 225.648L113.566 83.011L115.069 225.811ZM35.5808 273.402L114.821 226.508L113.515 82.7129L35.5808 273.402Z" fill="#80909E"/>
<path d="M32.4987 271.449L28.4718 128.859L30.7507 269.885L32.4987 271.449Z" fill="#73818E"/>
<path d="M30.7677 129.159L34.4423 273.491L35.5805 273.403L30.7677 129.159Z" fill="#80909E"/>
<path d="M34.2482 273.014L30.273 130.423L32.4991 271.449L34.2482 273.014Z" fill="#73818E"/>
<path d="M30.767 129.159L34.2479 273.014L34.4416 273.49L30.767 129.159ZM115.068 225.811L113.565 83.0111L113.514 82.713L115.068 225.811ZM35.5797 273.402L113.514 82.713L30.767 129.159L35.5797 273.402Z" fill="#80909E"/>
<path d="M28.4725 128.859L26.6729 127.296L30.7514 269.885L28.4725 128.859ZM111.568 80.9631L109.758 79.4305L109.662 79.3542L111.568 80.9631ZM30.2732 130.423L28.4725 128.859L32.4993 271.449L30.2732 130.423ZM111.472 80.8869L109.662 79.3542L109.55 79.3001L111.472 80.8869ZM111.36 80.8327L109.55 79.3001L109.422 79.2685L111.36 80.8327ZM111.232 80.8012L109.422 79.2685L109.281 79.2602L111.232 80.8012ZM111.472 80.8869L111.568 80.9631L109.662 79.3542L111.472 80.8869ZM111.092 80.793L109.281 79.2602L109.129 79.2757L111.092 80.793ZM111.36 80.8327L111.472 80.8869L109.55 79.3001L111.36 80.8327ZM110.939 80.8085L109.129 79.2757L108.966 79.3156L110.939 80.8085ZM111.232 80.8012L111.36 80.8327L109.422 79.2685L111.232 80.8012ZM110.776 80.8484L108.966 79.3156L108.794 79.3803L110.776 80.8484ZM110.604 80.9133L108.794 79.3803L108.616 79.4706L110.604 80.9133ZM111.092 80.793L111.232 80.8012L109.281 79.2602L111.092 80.793Z" fill="#73818E"/>
<path d="M30.2813 130.251L30.2737 130.423L34.249 273.014L30.2813 130.251Z" fill="#80909E"/>
<path d="M110.939 80.8084L111.091 80.7929L109.129 79.2756L110.939 80.8084Z" fill="#73818E"/>
<path d="M30.3646 129.888L30.2801 130.25L34.2478 273.014L30.3646 129.888Z" fill="#80909E"/>
<path d="M110.777 80.8483L110.94 80.8084L108.967 79.3154L110.777 80.8483Z" fill="#73818E"/>
<path d="M30.7673 129.159L30.365 129.888L34.2482 273.014L30.7673 129.159Z" fill="#80909E"/>
<path d="M110.603 80.9133L110.775 80.8484L108.793 79.3803L110.603 80.9133ZM113.378 82.4967L111.567 80.9631L111.471 80.8869L113.378 82.4967ZM110.425 81.0036L110.603 80.9133L108.614 79.4706L110.425 81.0036ZM113.282 82.4205L111.471 80.8869L111.358 80.8327L113.282 82.4205ZM113.17 82.3664L111.358 80.8327L111.231 80.8012L113.17 82.3664Z" fill="#73818E"/>
<path d="M113.566 83.011L113.552 82.852L113.515 82.7129L113.566 83.011Z" fill="#80909E"/>
<path d="M113.044 82.3347L111.233 80.801L111.092 80.7927L113.044 82.3347ZM113.284 82.4203L113.38 82.4965L111.473 80.8866L113.284 82.4203ZM112.904 82.3265L111.092 80.7927L110.939 80.8083L112.904 82.3265ZM113.172 82.3661L113.284 82.4203L111.36 80.8325L113.172 82.3661Z" fill="#73818E"/>
<path d="M113.515 82.7131L113.457 82.5943L113.379 82.4966L113.515 82.7131Z" fill="#80909E"/>
<path d="M112.75 82.3423L110.938 80.8085L110.775 80.8484L112.75 82.3423ZM113.043 82.3349L113.171 82.3663L111.232 80.8012L113.043 82.3349ZM112.587 82.3822L110.775 80.8484L110.604 80.9132L112.587 82.3822Z" fill="#73818E"/>
<path d="M113.516 82.713L113.38 82.4965L113.172 82.3662L113.516 82.713Z" fill="#80909E"/>
<path d="M112.417 82.4471L110.606 80.9131L110.427 81.0035L112.417 82.4471ZM112.904 82.3266L113.045 82.3348L111.093 80.7928L112.904 82.3266Z" fill="#73818E"/>
<path d="M113.38 82.4965L113.285 82.4203L113.172 82.3662L113.38 82.4965Z" fill="#80909E"/>
<path d="M112.751 82.3422L112.903 82.3266L110.939 80.8083L112.751 82.3422Z" fill="#73818E"/>
<path d="M113.516 82.7131L113.172 82.3663L112.589 82.3822L113.516 82.7131Z" fill="#80909E"/>
<path d="M112.586 82.3823L112.749 82.3423L110.775 80.8484L112.586 82.3823Z" fill="#73818E"/>
<path d="M113.171 82.3663L113.044 82.3349L112.903 82.3267L113.171 82.3663Z" fill="#80909E"/>
<path d="M112.415 82.447L112.587 82.3821L110.604 80.9131L112.415 82.447ZM112.237 82.5374L112.415 82.447L110.425 81.0034L112.237 82.5374Z" fill="#73818E"/>
<path d="M113.172 82.3662L112.904 82.3265L112.588 82.3821L113.172 82.3662ZM112.904 82.3265L112.751 82.3421L112.588 82.3821L112.904 82.3265ZM112.588 82.3821L112.417 82.447L112.238 82.5374L112.588 82.3821Z" fill="#80909E"/>
<path d="M110.426 81.0036L108.615 79.4706L27.9777 125.312L110.426 81.0036ZM112.237 82.5376L110.426 81.0036L29.7778 126.875L112.237 82.5376Z" fill="#73818E"/>
<path d="M113.515 82.7131L112.588 82.3822L30.7679 129.159L113.515 82.7131ZM112.588 82.3822L112.238 82.5375L31.3983 128.553L112.588 82.3822Z" fill="#80909E"/>
<path d="M29.7775 126.874L110.425 81.0034L27.9773 125.312L29.7775 126.874ZM31.5788 128.438L112.237 82.5374L29.7775 126.874L31.5788 128.438Z" fill="#73818E"/>
<path d="M112.588 82.3822L31.3983 128.553L30.7679 129.159L112.588 82.3822ZM112.238 82.5375L31.5799 128.438L31.3983 128.553L112.238 82.5375Z" fill="#80909E"/>
<path d="M28.4794 128.686L26.6798 127.123L26.6723 127.295L28.4794 128.686ZM28.5105 128.507L26.7109 126.943L26.6798 127.123L28.5105 128.507ZM28.5637 128.323L26.764 126.76L26.7109 126.943L28.5637 128.323ZM28.6374 128.138L26.8376 126.575L26.764 126.76L28.6374 128.138ZM29.7775 126.875L27.9774 125.312L27.7959 125.426L29.7775 126.875ZM28.73 127.953L26.9302 126.39L26.8376 126.575L28.73 127.953ZM29.596 126.989L27.7959 125.426L27.6224 125.558L29.596 126.989ZM28.4718 128.859L28.4794 128.686L26.6723 127.295L28.4718 128.859ZM28.84 127.771L27.0401 126.208L26.9302 126.39L28.84 127.771ZM29.4225 127.121L27.6224 125.558L27.4586 125.704L29.4225 127.121ZM28.9658 127.595L27.1658 126.032L27.0401 126.208L28.9658 127.595ZM29.2586 127.267L27.4586 125.704L27.3058 125.863L29.2586 127.267ZM29.1058 127.426L27.3058 125.863L27.1658 126.032L29.1058 127.426ZM28.4794 128.686L28.5105 128.507L26.6798 127.123L28.4794 128.686ZM28.5105 128.507L28.5637 128.323L26.7109 126.943L28.5105 128.507ZM28.5637 128.323L28.6374 128.138L26.764 126.76L28.5637 128.323ZM29.596 126.989L29.7775 126.875L27.7959 125.426L29.596 126.989ZM28.6374 128.138L28.73 127.953L26.8376 126.575L28.6374 128.138ZM29.4225 127.121L29.596 126.989L27.6224 125.558L29.4225 127.121ZM28.73 127.953L28.84 127.771L26.9302 126.39L28.73 127.953ZM29.2586 127.267L29.4225 127.121L27.4586 125.704L29.2586 127.267ZM28.84 127.771L28.9658 127.595L27.0401 126.208L28.84 127.771ZM29.1058 127.426L29.2586 127.267L27.3058 125.863L29.1058 127.426ZM28.9658 127.595L29.1058 127.426L27.1658 126.032L28.9658 127.595ZM30.2801 130.25L28.4794 128.686L28.4718 128.859L30.2801 130.25ZM30.3114 130.071L28.5105 128.507L28.4794 128.686L30.3114 130.071ZM30.3646 129.888L28.5637 128.323L28.5105 128.507L30.3646 129.888ZM30.4383 129.702L28.6374 128.138L28.5637 128.323L30.4383 129.702ZM31.5789 128.438L29.7775 126.875L29.596 126.989L31.5789 128.438ZM30.531 129.518L28.73 127.953L28.6374 128.138L30.531 129.518ZM31.3973 128.553L29.596 126.989L29.4225 127.121L31.3973 128.553ZM30.2725 130.423L30.2801 130.25L28.4718 128.859L30.2725 130.423ZM30.6411 129.336L28.84 127.771L28.73 127.953L30.6411 129.336ZM31.2238 128.685L29.4225 127.121L29.2586 127.267L31.2238 128.685ZM30.7669 129.159L28.9658 127.595L28.84 127.771L30.7669 129.159ZM31.0598 128.831L29.2586 127.267L29.1058 127.426L31.0598 128.831ZM30.907 128.99L29.1058 127.426L28.9658 127.595L30.907 128.99ZM30.2801 130.25L30.3114 130.071L28.4794 128.686L30.2801 130.25ZM30.3114 130.071L30.3646 129.888L28.5105 128.507L30.3114 130.071ZM30.3646 129.888L30.4383 129.702L28.5637 128.323L30.3646 129.888ZM31.3973 128.553L31.5789 128.438L29.596 126.989L31.3973 128.553ZM30.4383 129.702L30.531 129.518L28.6374 128.138L30.4383 129.702ZM31.2238 128.685L31.3973 128.553L29.4225 127.121L31.2238 128.685ZM30.531 129.518L30.6411 129.336L28.73 127.953L30.531 129.518ZM31.0598 128.831L31.2238 128.685L29.2586 127.267L31.0598 128.831ZM30.6411 129.336L30.7669 129.159L28.84 127.771L30.6411 129.336ZM30.907 128.99L31.0598 128.831L29.1058 127.426L30.907 128.99ZM30.7669 129.159L30.907 128.99L28.9658 127.595L30.7669 129.159Z" fill="#73818E"/>
<path d="M30.3657 129.888L30.3125 130.071L30.2812 130.25L30.3657 129.888ZM30.5321 129.517L30.4394 129.702L30.3657 129.888L30.5321 129.517ZM30.768 129.159L30.5321 129.517L30.3657 129.888L30.768 129.159ZM31.3984 128.553L31.2249 128.685L31.0609 128.831L31.3984 128.553ZM31.3984 128.553L31.0609 128.831L30.768 129.159L31.3984 128.553ZM30.768 129.159L30.6422 129.336L30.5321 129.517L30.768 129.159ZM31.0609 128.831L30.9081 128.99L30.768 129.159L31.0609 128.831Z" fill="#80909E"/>
<path d="M108.916 162.495C108.916 165.205 107.014 168.5 104.667 169.855C102.32 171.21 100.418 170.111 100.418 167.402C100.418 164.692 102.32 161.397 104.667 160.042C107.014 158.687 108.916 159.785 108.916 162.495Z" fill="#263238"/>
</g>
<defs>
<clipPath id="clip0">
<rect width="400" height="400" fill="white"/>
</clipPath>
</defs>
</svg>
