<svg width="400" height="400" viewBox="0 0 400 400" fill="none" xmlns="http://www.w3.org/2000/svg">
<g clip-path="url(#clip0)">
<path d="M200 383.796C303.829 383.796 388 335.2 388 275.254C388 215.308 303.829 166.712 200 166.712C96.1705 166.712 12 215.308 12 275.254C12 335.2 96.1705 383.796 200 383.796Z" fill="#F0F0F0"/>
<path d="M308.233 334.45C295.905 327.333 295.905 315.795 308.233 308.677C320.561 301.559 340.549 301.559 352.877 308.677C365.205 315.795 365.205 327.333 352.877 334.45C340.549 341.568 320.561 341.568 308.233 334.45Z" fill="#E0E0E0"/>
<path d="M57.2273 310.747L24.7995 292.027C22.9723 290.974 22.9723 289.258 24.7995 288.205L213.422 179.304C214.447 178.784 215.58 178.514 216.729 178.514C217.879 178.514 219.012 178.784 220.037 179.304L252.473 198.023C254.3 199.077 254.3 200.792 252.473 201.845L63.8502 310.747C62.8236 311.266 61.6893 311.537 60.5387 311.537C59.3882 311.537 58.2539 311.266 57.2273 310.747Z" fill="#E0E0E0"/>
<path d="M173.788 277.377L201.668 261.259C204.54 259.599 205.976 257.429 205.976 255.25C205.976 253.072 205.976 251.373 205.976 251.373L177.059 235.063C176.252 234.541 175.579 233.834 175.096 233.002C174.614 232.17 174.335 231.236 174.283 230.275V195.893L125.609 224.028V258.394C125.665 259.354 125.946 260.287 126.428 261.118C126.91 261.95 127.581 262.657 128.386 263.182L152.994 277.353C158.723 280.696 168.043 280.696 173.788 277.377Z" fill="#407BFF"/>
<path opacity="0.6" d="M173.788 277.377L201.668 261.259C204.54 259.599 205.976 257.429 205.976 255.25C205.976 253.072 205.976 251.373 205.976 251.373L177.059 235.063C176.252 234.541 175.579 233.834 175.096 233.002C174.614 232.17 174.335 231.236 174.283 230.275V195.893L125.609 224.028V258.394C125.665 259.354 125.946 260.287 126.428 261.118C126.91 261.95 127.581 262.657 128.386 263.182L152.994 277.353C158.723 280.696 168.043 280.696 173.788 277.377Z" fill="black"/>
<path opacity="0.3" d="M137.282 264.482V268.344L128.361 263.198C127.556 262.673 126.886 261.966 126.405 261.135C125.924 260.303 125.646 259.37 125.593 258.41V224.027L134.864 218.673C135.056 221.027 135.263 223.461 135.463 225.855L128.944 229.605V256.455C128.996 257.416 129.274 258.351 129.757 259.183C130.239 260.015 130.912 260.721 131.721 261.243L137.282 264.482Z" fill="black"/>
<path d="M128.945 256.463C128.999 257.423 129.279 258.357 129.762 259.189C130.244 260.02 130.915 260.727 131.721 261.251L152.962 273.491C158.707 276.803 168.027 276.811 173.78 273.491L201.708 257.373C207.461 254.054 207.461 248.676 201.708 245.356L180.451 233.116C179.647 232.59 178.977 231.883 178.496 231.052C178.016 230.22 177.737 229.288 177.682 228.328V201.47L129.008 229.605L128.945 256.463Z" fill="#407BFF"/>
<path opacity="0.3" d="M128.945 256.463C128.999 257.423 129.279 258.357 129.762 259.189C130.244 260.02 130.915 260.727 131.721 261.251L152.962 273.491C158.707 276.803 168.027 276.811 173.78 273.491L201.708 257.373C207.461 254.054 207.461 248.676 201.708 245.356L180.451 233.116C179.647 232.59 178.977 231.883 178.496 231.052C178.016 230.22 177.737 229.288 177.682 228.328V201.47L129.008 229.605L128.945 256.463Z" fill="black"/>
<path opacity="0.5" d="M186.076 236.396L180.419 233.132C179.615 232.606 178.945 231.899 178.464 231.068C177.983 230.236 177.705 229.303 177.65 228.344V201.47L128.976 229.605V256.463C129.031 257.423 129.311 258.357 129.793 259.189C130.276 260.02 130.947 260.727 131.753 261.251L137.339 264.443L186.076 236.396Z" fill="black"/>
<path d="M205.984 251.38V255.258C205.984 257.437 204.54 259.599 201.676 261.267L173.748 277.377C170.692 279.008 167.278 279.855 163.814 279.842V275.98C167.278 275.993 170.692 275.146 173.748 273.515L201.676 257.389C204.54 255.737 205.984 253.559 205.984 251.38Z" fill="#407BFF"/>
<path opacity="0.5" d="M205.984 251.38V255.258C205.984 257.437 204.54 259.599 201.676 261.267L173.748 277.377C170.692 279.008 167.278 279.855 163.814 279.842V275.98C167.278 275.993 170.692 275.146 173.748 273.515L201.676 257.389C204.54 255.737 205.984 253.559 205.984 251.38Z" fill="black"/>
<path d="M50.7473 289.841C51.7995 290.349 52.9564 290.603 54.1248 290.582C55.2931 290.561 56.4403 290.266 57.4738 289.721L245.785 181.003C246.795 180.345 247.635 179.457 248.238 178.414C248.841 177.37 249.19 176.198 249.256 174.995V22.6542C249.22 21.4832 248.908 20.3372 248.345 19.3097C247.782 18.2822 246.984 17.4022 246.016 16.7416C244.965 16.2328 243.809 15.9792 242.642 16.0013C241.474 16.0235 240.329 16.3209 239.298 16.8692L50.9866 125.619C49.9804 126.282 49.1451 127.173 48.5488 128.22C47.9526 129.267 47.6122 130.44 47.5555 131.643V283.96C47.5911 285.121 47.8984 286.258 48.4527 287.28C49.0069 288.301 49.7928 289.178 50.7473 289.841Z" fill="#407BFF"/>
<path d="M57.4983 289.713L245.81 180.995C246.821 180.338 247.662 179.451 248.265 178.407C248.868 177.363 249.216 176.191 249.281 174.987V22.6543C249.281 20.444 247.725 19.5424 245.81 20.6515L57.4983 129.369C56.4882 130.027 55.6474 130.914 55.0443 131.958C54.4412 133.002 54.0928 134.174 54.0273 135.378V287.71C54.0273 289.921 55.5833 290.822 57.4983 289.713Z" fill="#407BFF"/>
<path opacity="0.5" d="M57.4983 289.713L245.81 180.995C246.821 180.338 247.662 179.451 248.265 178.407C248.868 177.363 249.216 176.191 249.281 174.987V22.6543C249.281 20.444 247.725 19.5424 245.81 20.6515L57.4983 129.369C56.4882 130.027 55.6474 130.914 55.0443 131.958C54.4412 133.002 54.0928 134.174 54.0273 135.378V287.71C54.0273 289.921 55.5833 290.822 57.4983 289.713Z" fill="black"/>
<path d="M56.9871 293.671C55.9996 294.102 54.9304 294.313 53.8532 294.291C52.7759 294.269 51.7163 294.014 50.7473 293.543C49.7907 292.879 49.0035 291.999 48.4491 290.975C47.8947 289.951 47.5887 288.81 47.5555 287.646V273.778L54.0587 277.545V291.413C54.0188 293.431 55.3034 294.349 56.9871 293.671Z" fill="#407BFF"/>
<path opacity="0.5" d="M56.9871 293.671C55.9996 294.102 54.9304 294.313 53.8532 294.291C52.7759 294.269 51.7163 294.014 50.7473 293.543C49.7907 292.879 49.0035 291.999 48.4491 290.975C47.8947 289.951 47.5887 288.81 47.5555 287.646V273.778L54.0587 277.545V291.413C54.0188 293.431 55.3034 294.349 56.9871 293.671Z" fill="black"/>
<path d="M54.0192 277.544V291.412C54.0192 293.623 55.615 294.516 57.4902 293.415L245.801 184.697C246.807 184.042 247.645 183.16 248.248 182.122C248.85 181.084 249.201 179.919 249.272 178.721V164.789L54.0192 277.544Z" fill="#407BFF"/>
<path opacity="0.3" d="M54.0273 277.512V291.412C54.0273 293.623 55.6232 294.516 57.4983 293.415L245.81 184.697C246.814 184.041 247.65 183.159 248.251 182.121C248.853 181.083 249.202 179.918 249.273 178.721V164.789L54.0273 277.512Z" fill="black"/>
<path d="M60.5294 260.11V137.54C60.5666 136.818 60.7739 136.115 61.1344 135.488C61.4949 134.861 61.9985 134.329 62.604 133.934L240.654 31.1044C241.803 30.4422 242.736 30.9768 242.736 32.3013V154.935C242.698 155.658 242.489 156.361 242.127 156.988C241.765 157.614 241.26 158.147 240.654 158.542L62.612 261.347C61.463 262.009 60.5294 261.466 60.5294 260.11Z" fill="#407BFF"/>
<path d="M60.5294 260.11V137.54C60.5666 136.818 60.7739 136.115 61.1344 135.488C61.4949 134.861 61.9985 134.329 62.604 133.934L240.654 31.1044C241.803 30.4422 242.736 30.9768 242.736 32.3013V154.935C242.698 155.658 242.489 156.361 242.127 156.988C241.765 157.614 241.26 158.147 240.654 158.542L62.612 261.347C61.463 262.009 60.5294 261.466 60.5294 260.11Z" fill="#263238"/>
<path opacity="0.7" d="M55.0481 131.947C54.4297 132.986 54.0762 134.162 54.0188 135.37V277.545L47.5555 273.779V131.643C47.5974 130.431 47.949 129.25 48.5769 128.212L55.0481 131.947Z" fill="black"/>
<path opacity="0.3" d="M249.24 22.0796C248.993 20.2923 247.549 19.6858 245.801 20.6513L57.4902 129.369C56.4692 130.008 55.6264 130.894 55.0405 131.946L48.5294 128.188C49.1192 127.136 49.9644 126.25 50.987 125.611L239.298 16.9011C240.33 16.3526 241.478 16.0553 242.646 16.0331C243.815 16.0109 244.972 16.2645 246.025 16.7734C246.909 17.3761 247.654 18.1618 248.209 19.0772C248.764 19.9926 249.116 21.0165 249.24 22.0796Z" fill="black"/>
<path d="M349.341 306.508H343.355V319.537H349.341V306.508Z" fill="#FFA8A7"/>
<path d="M329.27 305.894L323.239 306.156L322.932 292.333L329.27 292.071V305.894Z" fill="#FFA8A7"/>
<path d="M343.339 315.755V314.665C342.783 314.978 341.503 321.457 339.204 324.221C337.383 326.421 334.902 328.954 334.266 331.406C333.63 333.858 337.725 335.362 339.435 334.968C341.407 334.504 344.842 332.657 345.701 330.932C346.56 329.206 346.965 326.704 347.665 325.453C348.365 324.201 349.979 322.809 350.353 321.356C350.47 319.996 350.358 318.621 350.027 317.319C349.757 315.967 349.47 314.484 349.12 314.615V315.443C348.305 316.291 347.28 316.749 346.226 316.734C345.383 316.825 343.331 316.603 343.339 315.755Z" fill="#263238"/>
<path d="M323.169 303.86C322.869 303.86 322.625 304.425 321.971 305.358C320.999 306.646 319.862 307.719 318.607 308.532C316.464 309.941 312.304 312.104 310.405 313.225C309.224 313.919 309.279 315.784 310.5 316.846C311.721 317.908 314.66 318.671 318.189 317.64C320.112 317.074 322.617 314.743 324.209 314.872C325.8 315.001 328.755 314.961 329.928 313.88C331.102 312.798 330.63 310.556 330.299 308.622C329.936 306.499 329.511 303.195 328.951 303.344V304.088C328.266 305.457 324.713 306.012 323.2 305.01L323.169 303.86Z" fill="#263238"/>
<path d="M350.223 208.44L321.759 206.855C316.395 242.238 316.1 262.942 320.344 300.058C324.141 302.256 326.27 301.779 330.067 300.058L330.062 299.949C328.744 272.626 327.818 253.413 333.32 220.236C331.849 254.848 334.218 276.144 339.966 311.127C343.767 314.136 346.126 314.573 351.103 311.127C346.541 277.294 344.588 246.998 348.638 227.455C350.973 216.186 349.601 215.685 350.223 208.44Z" fill="#263238"/>
<path opacity="0.4" d="M322.649 219.735C322.649 227.61 320.192 233.18 316.394 235.382C315.596 235.813 312.819 237.441 311.678 238.095C315.316 235.797 317.654 230.307 317.654 222.623C317.646 220.591 317.491 218.561 317.192 216.551C315.516 205.109 309.364 193.778 302.031 189.549C298.632 187.586 295.488 187.442 292.934 188.791L297.642 186.078C300.251 184.554 303.507 184.626 307.026 186.661C314.359 190.898 320.511 202.22 322.187 213.67C322.49 215.678 322.645 217.705 322.649 219.735Z" fill="white"/>
<path d="M318.349 173.319C314.998 178.984 314.355 184.394 309.551 188.192C303.674 192.838 295.105 191.344 291.156 191.855C290.462 191.943 289.759 191.779 289.177 191.392C287.621 190.371 286.416 190.203 284.78 189.637C283.496 189.198 282.953 188.583 282.714 188.839C282.466 189.129 282.342 189.504 282.367 189.884C282.393 190.264 282.566 190.619 282.849 190.873C283.463 191.457 284.143 191.965 284.876 192.39C283.124 192.824 281.296 192.857 279.53 192.485C276.107 191.584 274.495 193.227 276.809 196.946C277.607 198.27 280.894 200.401 287.501 199.826C289.858 199.699 292.205 199.433 294.531 199.028C300.866 197.672 307.912 196.363 312.245 195.039C313.857 194.405 314.202 194.585 315.361 193.298C322.647 184.991 326.161 177.891 329.353 172.513L329.081 163.736C323.911 163.56 321.15 168.579 318.349 173.319Z" fill="#FFA8A7"/>
<path d="M327.733 161.654C326.219 161.646 324.732 162.053 323.432 162.829C322.133 163.606 321.07 164.723 320.359 166.059C317.458 171.034 315.301 177.358 315.301 177.358C315.301 177.358 318.153 184.573 323.764 184.739L328.286 174.881C328.286 174.881 331.34 166.045 327.733 161.654Z" fill="#9FBDFF"/>
<path d="M254.467 195.701L259.47 192.812L261.449 190.411L256.454 193.299L254.467 195.701Z" fill="#407BFF"/>
<path opacity="0.4" d="M254.467 195.701L259.47 192.812L261.449 190.411L256.454 193.299L254.467 195.701Z" fill="black"/>
<path d="M268.071 203.553L273.074 200.664L277.247 196.97L272.252 199.85L268.071 203.553Z" fill="#407BFF"/>
<path opacity="0.4" d="M268.071 203.553L273.074 200.664L277.247 196.97L272.252 199.85L268.071 203.553Z" fill="black"/>
<path d="M310.568 213.519C311.751 215.104 312.467 216.989 312.635 218.961C311.457 217.372 310.742 215.489 310.568 213.519ZM322.194 213.67C320.511 202.22 314.359 190.897 307.034 186.66C303.515 184.626 300.259 184.554 297.65 186.078L292.942 188.791L292.679 188.951C292.469 189.066 292.267 189.194 292.072 189.334C291.686 189.6 291.323 189.899 290.987 190.227L290.828 190.379C290.684 190.522 290.532 190.69 290.397 190.85C290.261 191.009 290.054 191.257 289.894 191.472C289.555 191.918 289.249 192.387 288.977 192.876C288.833 193.124 288.697 193.387 288.57 193.674L247.452 169.944L242.457 172.824V176.016L242.88 176.255L243.279 176.487V177.125L242.481 177.596V179.447L248.522 192.214L254.49 195.669L256.477 193.275L261.743 196.427L264.767 201.606L268.103 203.529L272.276 199.826L277.399 202.787L279.122 209.896L287.732 214.875C288.157 216.685 288.69 218.467 289.328 220.213C289.383 220.389 289.455 220.572 289.527 220.772C292.384 228.272 296.924 234.696 302.047 237.656C302.661 238.02 303.304 238.333 303.97 238.59C304.322 238.73 304.681 238.85 305.047 238.949C305.366 239.034 305.685 239.106 306.004 239.164C307.012 239.348 308.045 239.348 309.052 239.164L309.467 239.06C309.666 239.021 309.861 238.964 310.05 238.893L310.497 238.717C310.655 238.66 310.807 238.588 310.951 238.502C311.099 238.438 311.243 238.366 311.382 238.286L311.59 238.159C311.627 238.146 311.663 238.128 311.694 238.103C312.835 237.449 315.643 235.821 316.409 235.39C320.207 233.188 322.665 227.618 322.665 219.743C322.659 217.71 322.501 215.68 322.194 213.67Z" fill="#407BFF"/>
<path d="M309.108 223.182C307.129 222.04 305.533 218.657 305.533 215.625C305.533 212.593 307.129 211.053 309.108 212.186C311.087 213.319 312.675 216.71 312.675 219.75C312.675 222.791 311.079 224.323 309.108 223.182ZM317.191 216.551C315.515 205.108 309.363 193.778 302.03 189.549C298.631 187.586 295.487 187.442 292.934 188.791L292.671 188.95C292.461 189.066 292.259 189.194 292.064 189.333C291.678 189.6 291.315 189.899 290.979 190.227L290.82 190.379C290.676 190.522 290.524 190.69 290.389 190.849C290.253 191.009 290.046 191.256 289.886 191.472C289.547 191.918 289.241 192.387 288.968 192.876C288.825 193.124 288.689 193.387 288.561 193.674C287.817 195.216 287.281 196.85 286.966 198.533L242.449 172.824V176.016L242.872 176.255L243.271 176.487V177.125L242.473 177.596V179.447L248.513 192.214L254.482 195.669L256.469 193.275L261.735 196.427L264.759 201.606L268.095 203.529L272.268 199.826L277.39 202.786L279.114 209.896L287.732 214.875C288.157 216.685 288.69 218.467 289.327 220.213C289.383 220.389 289.455 220.572 289.527 220.772C292.383 228.272 296.924 234.696 302.046 237.656C302.66 238.02 303.304 238.332 303.969 238.59C304.321 238.729 304.681 238.849 305.047 238.949C305.366 239.034 305.685 239.106 306.004 239.164C307.012 239.348 308.044 239.348 309.052 239.164L309.467 239.06C309.665 239.02 309.86 238.964 310.05 238.893L310.496 238.717C310.655 238.66 310.807 238.588 310.951 238.502C311.099 238.438 311.243 238.366 311.382 238.286L311.59 238.159C311.627 238.146 311.662 238.127 311.693 238.103C315.332 235.805 317.67 230.315 317.67 222.631C317.656 220.595 317.496 218.563 317.191 216.551Z" fill="#407BFF"/>
<path opacity="0.4" d="M312.676 219.742C312.676 222.783 311.08 224.323 309.109 223.182C307.138 222.04 305.534 218.665 305.534 215.625C305.534 212.585 307.13 211.045 309.109 212.186C309.679 212.533 310.175 212.988 310.569 213.527C310.741 215.497 311.456 217.381 312.636 218.968C312.665 219.225 312.678 219.484 312.676 219.742Z" fill="black"/>
<path d="M317.654 222.607C317.654 230.291 315.316 235.781 311.677 238.079C312.818 237.425 315.627 235.797 316.393 235.366C320.191 233.164 322.649 227.594 322.649 219.719C322.649 219.431 322.649 219.136 322.649 218.841L317.654 221.729C317.646 222.041 317.654 222.328 317.654 222.607Z" fill="#407BFF"/>
<path opacity="0.4" d="M322.715 219.734C322.715 227.61 320.258 233.179 316.46 235.382C315.662 235.812 312.885 237.44 311.744 238.095C315.382 235.796 317.72 230.307 317.72 222.623C317.712 220.59 317.557 218.561 317.258 216.55C315.582 205.108 309.43 193.778 302.097 189.549C298.698 187.586 295.554 187.442 293 188.791L297.708 186.078C300.318 184.554 303.573 184.625 307.092 186.66C314.425 190.897 320.577 202.22 322.253 213.67C322.557 215.677 322.711 217.704 322.715 219.734Z" fill="white"/>
<path opacity="0.9" d="M317.634 222.525C317.634 230.209 315.297 235.699 311.658 237.997C312.799 237.343 315.608 235.715 316.374 235.284C320.172 233.082 322.629 227.512 322.629 219.637C322.629 219.349 322.629 219.054 322.629 218.759L317.634 221.647C317.626 221.958 317.634 222.246 317.634 222.525Z" fill="#264A99"/>
<path opacity="0.15" d="M287.157 201.797V203.417L242.457 177.612L243.279 177.133V176.463L287.157 201.797Z" fill="black"/>
<path opacity="0.15" d="M287.157 202.468V203.417L242.457 177.612L243.279 177.133V177.125L287.157 202.468Z" fill="black"/>
<path opacity="0.1" d="M319.804 187.84C319.664 187.699 319.804 182.91 321.389 176.572L320.509 186.96C320.509 186.96 319.945 187.981 319.804 187.84Z" fill="black"/>
<path d="M347.581 164.599C347.581 164.599 351.566 165.507 351.222 174.157L350.225 187.921L351.222 211.609C346.962 216.444 322.756 219.708 320.582 208.204C320.582 208.204 320.143 188.452 320.582 179.036C320.893 172.35 321.815 162.34 328.39 161.606L338.264 163.895L347.581 164.599Z" fill="#9FBDFF"/>
<path opacity="0.15" d="M306.596 235.374C304.902 235.33 303.25 234.837 301.808 233.946C294.523 229.741 288.595 217.229 288.595 206.058C288.595 199.539 290.566 194.672 294.005 192.685C296.398 191.296 299.231 191.472 302.207 193.188C309.485 197.393 315.413 209.944 315.413 221.115C315.413 227.626 313.442 232.501 310.003 234.48C308.966 235.073 307.791 235.381 306.596 235.374ZM297.46 192.565C296.396 192.559 295.35 192.834 294.428 193.363C291.292 195.174 289.417 199.922 289.417 206.05C289.417 216.966 295.162 229.19 302.231 233.243C304.936 234.839 307.498 234.983 309.628 233.754C312.764 231.943 314.639 227.203 314.639 221.075C314.639 210.151 308.894 197.935 301.832 193.874C300.513 193.071 299.004 192.63 297.46 192.597V192.565Z" fill="black"/>
<path opacity="0.4" d="M288.53 193.658C287.786 195.2 287.249 196.834 286.934 198.518L242.417 172.808L247.413 169.928L288.53 193.658Z" fill="white"/>
<path opacity="0.1" d="M333.444 218.64C330.492 217.47 327.839 215.655 325.678 213.329C325.678 213.329 327.086 216.461 331.5 219.569L329.974 245.061L333.444 218.64Z" fill="black"/>
<path d="M316.444 204.42C339.13 204.42 340.363 201.749 345.116 182.03C345.116 182.03 356.913 161.078 351.983 183.966C347.053 206.855 345.476 210.296 315.908 208.134C315.908 208.134 307.147 209.475 305.678 205.622C304.667 203.075 306.734 197.699 308.319 198.58C311.312 204.42 314.305 198.58 316.444 204.42Z" fill="#FFA8A7"/>
<path opacity="0.1" d="M341.753 187.226L344.106 179.925L343.161 188.508L341.753 187.226Z" fill="black"/>
<path d="M346.7 164.599C348.754 164.588 350.676 165.008 352.104 166.481C353.531 167.953 354.817 170.123 354.546 176.57C354.282 181.114 354.628 185.135 353.743 189.601C353.743 189.601 348.416 192.777 342.704 188.403L344.237 174.658C344.237 174.658 343.636 165.715 346.7 164.599Z" fill="#9FBDFF"/>
<path d="M341.378 164.226C339.85 161.323 342.124 152.711 343.452 148.768C340.92 149.767 335.337 152.272 333.253 154.305C331.169 156.337 331.426 162.302 331.814 165.031C332.415 169.245 338.746 168.851 341.378 164.226Z" fill="#FFA8A7"/>
<path d="M340.985 159.662C340.99 158.413 341.278 156.264 341.762 155.079C340.815 157.295 332.214 155.985 332.153 156.446C332.091 156.906 331.472 158.387 331.72 159.669C331.998 161.11 340.98 160.986 340.985 159.662Z" fill="black" fill-opacity="0.1"/>
<path d="M327.262 144.03C324.392 151.26 326.61 157.594 333.985 158.33C339.786 159.531 345.631 154.995 347.038 148.198C348.446 141.401 346.116 135.1 340.315 133.898C334.513 132.697 328.669 137.233 327.262 144.03Z" fill="#FFA8A7"/>
<path d="M326.542 131.796C327.065 131.205 327.751 130.732 328.548 130.412C329.344 130.092 330.23 129.934 331.138 129.949C332.045 129.965 332.95 130.154 333.784 130.502C334.617 130.85 335.356 131.347 335.944 131.957C336.49 131.336 337.219 130.846 338.068 130.531C338.916 130.217 339.858 130.086 340.811 130.151C341.765 130.216 342.7 130.474 343.534 130.904C344.369 131.333 345.078 131.921 345.6 132.614C348.163 133.066 347.651 134.883 347.91 136.297C348.866 137.219 351.136 137.125 351.253 138.629C351.369 140.133 352.15 139.744 352.307 140.391C352.464 141.037 352.406 141.696 352.141 142.293C351.875 142.891 351.412 143.405 350.802 143.778C350.192 144.151 349.459 144.37 348.684 144.41C348.878 144.91 348.95 145.431 348.897 145.942C348.844 146.452 348.666 146.942 348.374 147.38C348.082 147.819 347.682 148.197 347.199 148.492C346.715 148.787 346.158 148.993 345.562 149.097L345.041 148.809C344.176 147.653 343.726 146.33 343.747 145.01C343.768 143.689 344.26 142.429 345.161 141.391C345.093 141.382 345.027 141.37 344.961 141.355C343.925 141.627 342.78 141.561 341.746 141.17C340.713 140.78 339.864 140.092 339.365 139.24C338.514 139.55 337.559 139.643 336.612 139.51C335.665 139.376 334.766 139.021 334.021 138.486C333.818 138.303 333.574 138.155 333.304 138.052C332.95 137.994 332.591 138.019 332.267 138.124C331.376 138.347 330.407 138.335 329.487 138.092C329.064 137.972 328.677 137.767 328.361 137.496C328.046 137.226 327.812 136.897 327.681 136.541L327.611 136.529C327.097 136.335 326.646 136.03 326.31 135.647C325.973 135.264 325.762 134.818 325.701 134.358C325.58 133.425 325.88 132.51 326.542 131.796Z" fill="#263238"/>
<path d="M331.322 147.644C332.509 147.18 333.146 146.819 333.808 145.887L332.678 149.193C331.633 148.908 330.391 148.007 331.322 147.644Z" fill="#E4897B"/>
<path d="M335.912 152.67C335.707 152.676 335.502 152.666 335.299 152.639C335.28 152.641 335.262 152.638 335.245 152.63C335.228 152.623 335.213 152.611 335.2 152.595C335.188 152.58 335.179 152.561 335.174 152.541C335.169 152.521 335.168 152.5 335.172 152.479C335.175 152.457 335.182 152.437 335.193 152.419C335.204 152.402 335.218 152.387 335.234 152.376C335.25 152.364 335.268 152.358 335.287 152.355C335.305 152.353 335.324 152.356 335.341 152.363C335.85 152.447 336.375 152.389 336.871 152.195C337.367 152.001 337.82 151.676 338.193 151.248C338.215 151.22 338.246 151.203 338.278 151.199C338.31 151.196 338.341 151.207 338.365 151.23C338.378 151.241 338.387 151.256 338.395 151.272C338.402 151.288 338.406 151.306 338.406 151.324C338.407 151.342 338.405 151.361 338.399 151.379C338.394 151.396 338.385 151.412 338.374 151.426C338.049 151.807 337.665 152.113 337.242 152.326C336.819 152.54 336.367 152.656 335.912 152.67Z" fill="#263238"/>
<path d="M339.634 145.352C339.758 145.987 339.488 146.639 338.967 146.797C338.447 146.955 338.013 146.547 337.889 145.913C337.765 145.278 338.035 144.626 338.56 144.478C339.085 144.329 339.51 144.718 339.634 145.352Z" fill="#263238"/>
<path d="M330.731 142.215C331.032 142.679 330.993 143.389 330.584 143.827C330.175 144.264 329.677 144.178 329.376 143.714C329.075 143.249 329.106 142.551 329.523 142.101C329.94 141.652 330.406 141.785 330.731 142.215Z" fill="#263238"/>
<path d="M341.929 143.86C341.867 143.886 341.795 143.887 341.725 143.861C341.655 143.836 341.589 143.787 341.536 143.719C341.199 143.29 340.795 142.949 340.359 142.727C339.923 142.505 339.468 142.408 339.031 142.443C338.986 142.453 338.937 142.45 338.889 142.436C338.841 142.422 338.794 142.396 338.751 142.361C338.708 142.326 338.67 142.281 338.638 142.23C338.607 142.179 338.583 142.123 338.569 142.064C338.54 141.946 338.548 141.827 338.592 141.732C338.635 141.637 338.71 141.573 338.802 141.553C339.352 141.492 339.93 141.602 340.485 141.873C341.04 142.144 341.556 142.569 341.987 143.11C342.024 143.153 342.055 143.205 342.078 143.261C342.101 143.316 342.115 143.376 342.119 143.434C342.123 143.493 342.118 143.55 342.103 143.602C342.088 143.654 342.063 143.699 342.032 143.736C342.007 143.788 341.972 143.83 341.929 143.86Z" fill="#263238"/>
<path d="M329.14 140.786C329.064 140.778 328.994 140.741 328.941 140.681C328.879 140.609 328.845 140.512 328.846 140.41C328.848 140.307 328.884 140.208 328.947 140.134C329.327 139.687 329.789 139.342 330.297 139.127C330.805 138.911 331.346 138.83 331.877 138.89C331.92 138.898 331.961 138.915 331.997 138.942C332.034 138.968 332.065 139.003 332.09 139.044C332.114 139.084 332.131 139.131 332.139 139.18C332.148 139.229 332.148 139.279 332.139 139.329C332.131 139.379 332.115 139.428 332.091 139.471C332.067 139.515 332.036 139.553 331.999 139.582C331.962 139.612 331.92 139.633 331.876 139.643C331.833 139.654 331.788 139.655 331.745 139.645C331.32 139.602 330.888 139.672 330.483 139.85C330.078 140.027 329.711 140.306 329.41 140.667C329.375 140.709 329.333 140.741 329.286 140.762C329.239 140.782 329.189 140.79 329.14 140.786Z" fill="#263238"/>
<path d="M345.348 147.361C344.247 148.732 344.227 150.542 345.302 151.406C346.377 152.269 348.14 151.857 349.241 150.487C350.513 149.127 350.565 147.318 349.286 146.443C348.211 145.58 346.448 145.991 345.348 147.361Z" fill="#FFA8A7"/>
</g>
<defs>
<clipPath id="clip0">
<rect width="400" height="400" fill="white"/>
</clipPath>
</defs>
</svg>
