<svg width="103" height="105" viewBox="0 0 103 105" fill="none" xmlns="http://www.w3.org/2000/svg">
<path d="M88.8531 104.506L89.3099 104.241C89.6961 103.988 90.0172 103.648 90.2473 103.247C90.4773 102.847 90.6099 102.398 90.6342 101.937V51.2258C90.6099 50.7656 90.4773 50.3177 90.2472 49.9184C90.0171 49.5192 89.696 49.1799 89.3099 48.9282L5.11569 0.31594C4.70517 0.10823 4.25155 0 3.79147 0C3.33139 0 2.87776 0.10823 2.46724 0.31594L2.01038 0.580783C1.62422 0.833878 1.3031 1.17437 1.07303 1.57468C0.842969 1.97499 0.710437 2.42386 0.686157 2.88493V53.5961C0.710437 54.0572 0.842969 54.5061 1.07303 54.9064C1.3031 55.3067 1.62422 55.6472 2.01038 55.9003L86.198 104.506C86.6094 104.715 87.0642 104.824 87.5255 104.824C87.9869 104.824 88.4417 104.715 88.8531 104.506Z" fill="#407BFF"/>
<path opacity="0.6" d="M88.8531 104.506L89.3099 104.241C89.6961 103.988 90.0172 103.648 90.2473 103.247C90.4773 102.847 90.6099 102.398 90.6342 101.937V51.2258C90.6099 50.7656 90.4773 50.3177 90.2472 49.9184C90.0171 49.5192 89.696 49.1799 89.3099 48.9282L5.11569 0.31594C4.70517 0.10823 4.25155 0 3.79147 0C3.33139 0 2.87776 0.10823 2.46724 0.31594L2.01038 0.580783C1.62422 0.833878 1.3031 1.17437 1.07303 1.57468C0.842969 1.97499 0.710437 2.42386 0.686157 2.88493V53.5961C0.710437 54.0572 0.842969 54.5061 1.07303 54.9064C1.3031 55.3067 1.62422 55.6472 2.01038 55.9003L86.198 104.506C86.6094 104.715 87.0642 104.824 87.5255 104.824C87.9869 104.824 88.4417 104.715 88.8531 104.506Z" fill="white"/>
<path opacity="0.4" d="M0.686157 2.67229C0.778853 2.01018 1.34827 1.73209 2.01038 2.11611L86.2046 50.7284C86.5972 50.9715 86.9209 51.3112 87.1448 51.715L90.2568 49.9207C90.0357 49.513 89.7115 49.1705 89.3166 48.9275L5.11569 0.321788C4.70612 0.110963 4.25212 0.000976562 3.79147 0.000976562C3.33082 0.000976562 2.87682 0.110963 2.46724 0.321788L2.01038 0.580012C1.65344 0.814397 1.35065 1.1223 1.12229 1.48312C0.893916 1.84395 0.745225 2.24937 0.686157 2.67229Z" fill="white"/>
<path opacity="0.1" d="M86.4231 104.612C86.8125 104.767 87.2305 104.838 87.6495 104.82C88.0684 104.802 88.4786 104.695 88.8531 104.506L89.3165 104.241C89.702 103.987 90.0225 103.647 90.2525 103.246C90.4825 102.846 90.6154 102.398 90.6408 101.937V51.2258C90.6274 50.758 90.4928 50.3017 90.2501 49.9016L87.1382 51.6959C87.379 52.0969 87.5134 52.5527 87.5288 53.0202V103.738C87.5288 104.499 87.0455 104.85 86.4231 104.612Z" fill="black"/>
<path d="M87.5282 97.289C87.5282 97.289 92.5271 102.122 102.532 100.984C96.0099 98.0571 89.0312 91.8597 87.5282 78.6704V97.289Z" fill="#407BFF"/>
<path opacity="0.6" d="M87.5282 97.289C87.5282 97.289 92.5271 102.122 102.532 100.984C96.0099 98.0571 89.0312 91.8597 87.5282 78.6704V97.289Z" fill="white"/>
<path d="M11.2867 21.4174C11.252 21.4273 11.2153 21.4273 11.1807 21.4174L6.18175 18.5305C6.15022 18.5124 6.1239 18.4864 6.10535 18.455C6.08679 18.4237 6.07662 18.3882 6.07581 18.3518V12.5517C6.07662 12.5153 6.08679 12.4797 6.10535 12.4484C6.1239 12.4171 6.15022 12.3911 6.18175 12.3729C6.21351 12.3566 6.24869 12.3481 6.28437 12.3481C6.32006 12.3481 6.35524 12.3566 6.387 12.3729L11.386 15.2597C11.4175 15.2779 11.4438 15.3039 11.4624 15.3352C11.4809 15.3665 11.4911 15.4021 11.4919 15.4385V21.2121C11.4925 21.2488 11.4829 21.2849 11.4642 21.3164C11.4455 21.348 11.4184 21.3738 11.386 21.3909C11.356 21.4089 11.3216 21.4181 11.2867 21.4174ZM6.48631 18.2061L11.0814 20.8546V15.5577L6.48631 12.9092V18.2061Z" fill="#FAFAFA"/>
<path d="M11.2867 32.9713C11.2517 32.9781 11.2157 32.9781 11.1807 32.9713L6.18175 30.0845C6.15022 30.0663 6.1239 30.0403 6.10535 30.009C6.08679 29.9777 6.07662 29.9421 6.07581 29.9057V24.099C6.07826 24.0637 6.08951 24.0296 6.10851 23.9998C6.12751 23.97 6.15367 23.9454 6.18461 23.9283C6.21554 23.9112 6.25027 23.9021 6.28562 23.9019C6.32097 23.9016 6.35582 23.9102 6.387 23.9269L11.386 26.8137C11.4184 26.8308 11.4455 26.8565 11.4642 26.8881C11.4829 26.9196 11.4925 26.9558 11.4919 26.9924V32.7661C11.4911 32.8025 11.4809 32.838 11.4624 32.8693C11.4438 32.9006 11.4175 32.9266 11.386 32.9448C11.3548 32.9598 11.3211 32.9687 11.2867 32.9713ZM6.48631 29.7601L11.0814 32.4085V27.1116L6.48631 24.4632V29.7601Z" fill="#FAFAFA"/>
<path d="M11.2867 44.5188C11.252 44.5287 11.2153 44.5287 11.1807 44.5188L6.18175 41.632C6.15022 41.6138 6.1239 41.5878 6.10535 41.5565C6.08679 41.5252 6.07662 41.4896 6.07581 41.4532V35.6796C6.07662 35.6432 6.08679 35.6076 6.10535 35.5763C6.1239 35.545 6.15022 35.519 6.18175 35.5008C6.21351 35.4846 6.24869 35.4761 6.28437 35.4761C6.32006 35.4761 6.35524 35.4846 6.387 35.5008L11.386 38.3876C11.4175 38.4058 11.4438 38.4318 11.4624 38.4631C11.4809 38.4945 11.4911 38.53 11.4919 38.5664V44.34C11.4925 44.3767 11.4829 44.4128 11.4642 44.4444C11.4455 44.4759 11.4184 44.5017 11.386 44.5188C11.3535 44.5278 11.3191 44.5278 11.2867 44.5188ZM6.48631 41.3076L11.0814 43.956V38.6591L6.48631 36.0107V41.3076Z" fill="#FAFAFA"/>
<path d="M14.4514 17.266L28.1241 25.1584C28.3134 25.2795 28.4719 25.4431 28.5868 25.6362C28.7018 25.8293 28.77 26.0466 28.7862 26.2708C28.7862 26.668 28.4882 26.8203 28.1241 26.6018L14.4514 18.7094C14.2618 18.5902 14.1031 18.4279 13.9881 18.2358C13.873 18.0437 13.8049 17.8271 13.7893 17.6037C13.7827 17.2064 14.0806 17.0409 14.4514 17.266Z" fill="#FAFAFA"/>
<path d="M14.4514 20.1726L21.7346 24.4035C21.9235 24.5235 22.0817 24.686 22.1966 24.878C22.3116 25.0699 22.3801 25.2861 22.3968 25.5092C22.3968 25.9065 22.0988 26.0588 21.7346 25.8469L14.4514 21.616C14.2618 21.4968 14.1031 21.3345 13.988 21.1424C13.873 20.9502 13.8049 20.7337 13.7893 20.5103C13.7827 20.1064 14.0806 19.9607 14.4514 20.1726Z" fill="#FAFAFA"/>
<path d="M14.4514 28.8398L28.1241 36.7321C28.3129 36.8522 28.4711 37.0146 28.5861 37.2066C28.701 37.3986 28.7695 37.6147 28.7862 37.8379C28.7862 38.2352 28.4882 38.3874 28.1241 38.1756L14.4514 30.2832C14.2618 30.1639 14.1031 30.0017 13.9881 29.8095C13.873 29.6174 13.8049 29.4008 13.7893 29.1774C13.7827 28.7802 14.0806 28.6279 14.4514 28.8398Z" fill="#FAFAFA"/>
<path d="M14.4514 31.7402L21.7346 35.9711C21.924 36.0921 22.0824 36.2557 22.1974 36.4488C22.3123 36.642 22.3806 36.8592 22.3968 37.0834C22.3968 37.4807 22.0988 37.633 21.7346 37.4211L14.4514 33.1836C14.2618 33.0643 14.1031 32.902 13.988 32.7099C13.873 32.5178 13.8049 32.3012 13.7893 32.0778C13.7827 31.6806 14.0806 31.5283 14.4514 31.7402Z" fill="#FAFAFA"/>
<path d="M14.4514 40.4072L28.1241 48.3062C28.3136 48.4254 28.4724 48.5877 28.5874 48.7798C28.7025 48.9719 28.7706 49.1885 28.7862 49.4119C28.7862 49.8091 28.4882 49.9614 28.1241 49.7496L14.4514 41.8506C14.2615 41.7317 14.1024 41.5695 13.9874 41.3773C13.8723 41.1851 13.8044 40.9684 13.7893 40.7448C13.7827 40.3476 14.0806 40.2151 14.4514 40.4072Z" fill="#FAFAFA"/>
<path d="M14.4514 43.3134L21.7346 47.5443C21.9235 47.6643 22.0817 47.8268 22.1966 48.0187C22.3116 48.2107 22.3801 48.4269 22.3968 48.65C22.3968 49.0473 22.0988 49.1996 21.7346 48.9877L14.4514 44.7568C14.2618 44.6376 14.1031 44.4753 13.988 44.2832C13.873 44.091 13.8049 43.8745 13.7893 43.6511C13.7827 43.2538 14.0806 43.1015 14.4514 43.3134Z" fill="#FAFAFA"/>
<path d="M9.37387 18.7358H9.29442C9.19381 18.719 9.09843 18.6792 9.01574 18.6194C8.93304 18.5597 8.86527 18.4817 8.8177 18.3915L7.59278 15.7827C7.53493 15.6371 7.53483 15.4748 7.59248 15.329C7.65013 15.1833 7.7612 15.065 7.90306 14.9983C8.04491 14.9316 8.20685 14.9215 8.35588 14.97C8.50492 15.0186 8.62983 15.1222 8.70514 15.2597L9.52615 17.0077L12.3335 13.7302C12.4421 13.6149 12.591 13.5459 12.7491 13.5375C12.9073 13.5291 13.0626 13.582 13.1828 13.6851C13.303 13.7882 13.3788 13.9337 13.3945 14.0913C13.4102 14.2489 13.3646 14.4065 13.2671 14.5314L9.82411 18.5438C9.70407 18.6629 9.54297 18.7316 9.37387 18.7358Z" fill="#455A64"/>
<path d="M9.37387 30.283H9.29442C9.19381 30.2663 9.09843 30.2264 9.01574 30.1667C8.93304 30.107 8.86527 30.029 8.8177 29.9388L7.59278 27.33C7.53493 27.1843 7.53483 27.0221 7.59248 26.8763C7.65013 26.7305 7.7612 26.6122 7.90306 26.5455C8.04491 26.4788 8.20685 26.4687 8.35589 26.5173C8.50492 26.5659 8.62983 26.6695 8.70514 26.8069L9.52615 28.5549L12.3534 25.2444C12.462 25.1291 12.6108 25.06 12.769 25.0516C12.9271 25.0432 13.0824 25.0961 13.2026 25.1993C13.3228 25.3024 13.3987 25.4479 13.4144 25.6055C13.4301 25.7631 13.3844 25.9207 13.287 26.0455L9.84398 30.0579C9.78492 30.1253 9.71281 30.18 9.632 30.2187C9.5512 30.2574 9.46338 30.2793 9.37387 30.283Z" fill="#455A64"/>
<path d="M11.2272 56.1056C11.1926 56.1155 11.1558 56.1155 11.1212 56.1056L6.12229 53.2188C6.09076 53.2006 6.06445 53.1746 6.0459 53.1433C6.02734 53.1119 6.01717 53.0764 6.01636 53.04V47.2664C6.01717 47.23 6.02734 47.1944 6.0459 47.1631C6.06445 47.1318 6.09076 47.1058 6.12229 47.0876C6.153 47.0682 6.18858 47.0579 6.22491 47.0579C6.26125 47.0579 6.29683 47.0682 6.32754 47.0876L11.3265 49.9744C11.358 49.9926 11.3843 50.0186 11.4029 50.0499C11.4214 50.0812 11.4316 50.1168 11.4324 50.1532V55.9268C11.4316 55.9632 11.4214 55.9988 11.4029 56.0301C11.3843 56.0614 11.358 56.0874 11.3265 56.1056C11.2941 56.1153 11.2596 56.1153 11.2272 56.1056ZM6.42686 52.8943L11.0219 55.5428V50.2459L6.42686 47.5974V52.8943Z" fill="#FAFAFA"/>
<path d="M14.3918 51.9872L28.0645 59.8796C28.254 59.9988 28.4128 60.1611 28.5278 60.3532C28.6429 60.5454 28.711 60.7619 28.7266 60.9853C28.7266 61.3892 28.4286 61.5415 28.0645 61.323L14.3918 53.4571C14.2034 53.3367 14.0454 53.1741 13.9305 52.9822C13.8156 52.7903 13.7469 52.5744 13.7297 52.3514C13.7297 51.9276 14.0277 51.7753 14.3918 51.9872Z" fill="#FAFAFA"/>
<path d="M14.3918 54.894L21.6751 59.1249C21.8639 59.245 22.0221 59.4074 22.1371 59.5994C22.252 59.7914 22.3206 60.0075 22.3372 60.2307C22.3372 60.6279 22.0393 60.7802 21.6751 60.5683L14.3918 56.3375C14.2034 56.217 14.0454 56.0545 13.9305 55.8626C13.8156 55.6707 13.7469 55.4547 13.7297 55.2317C13.7297 54.8278 14.0277 54.6822 14.3918 54.894Z" fill="#FAFAFA"/>
<path d="M9.32114 41.8836H9.23508C9.13419 41.8701 9.0383 41.8315 8.95618 41.7713C8.87406 41.7112 8.80833 41.6314 8.76497 41.5393L7.54006 38.9372C7.49968 38.8635 7.47483 38.7823 7.46702 38.6986C7.45921 38.6149 7.46861 38.5305 7.49466 38.4506C7.52071 38.3707 7.56284 38.2969 7.61846 38.2339C7.67409 38.1709 7.74202 38.1199 7.81809 38.0842C7.89415 38.0484 7.97673 38.0286 8.06074 38.0259C8.14476 38.0233 8.22843 38.0379 8.30659 38.0688C8.38475 38.0997 8.45576 38.1463 8.51524 38.2057C8.57471 38.2651 8.6214 38.336 8.65242 38.4142L9.47343 40.1555L12.294 36.8449C12.4026 36.7297 12.5515 36.6606 12.7096 36.6522C12.8678 36.6438 13.0231 36.6967 13.1433 36.7998C13.2635 36.903 13.3393 37.0485 13.355 37.2061C13.3707 37.3637 13.3251 37.5213 13.2276 37.6461L9.78462 41.6585C9.72851 41.7276 9.65794 41.7836 9.57786 41.8225C9.49779 41.8614 9.41016 41.8822 9.32114 41.8836Z" fill="#455A64"/>
<path d="M9.32114 53.4572H9.23508C9.13371 53.4424 9.03763 53.4026 8.95555 53.3413C8.87346 53.28 8.80796 53.1992 8.76497 53.1063L7.54006 50.5041C7.49968 50.4304 7.47483 50.3492 7.46702 50.2655C7.45921 50.1818 7.46861 50.0974 7.49466 50.0175C7.52071 49.9376 7.56284 49.8638 7.61846 49.8008C7.67409 49.7378 7.74202 49.6868 7.81809 49.6511C7.89415 49.6153 7.97673 49.5955 8.06074 49.5928C8.14476 49.5902 8.22843 49.6048 8.30659 49.6357C8.38475 49.6666 8.45576 49.7132 8.51524 49.7726C8.57471 49.832 8.6214 49.9029 8.65242 49.9811L9.47343 51.7224L12.294 48.4118C12.4026 48.2965 12.5515 48.2275 12.7096 48.2191C12.8678 48.2107 13.0231 48.2636 13.1433 48.3667C13.2635 48.4699 13.3393 48.6154 13.355 48.773C13.3707 48.9306 13.3251 49.0882 13.2276 49.213L9.78462 53.1857C9.73325 53.2634 9.66477 53.3282 9.58442 53.3753C9.50407 53.4223 9.41401 53.4504 9.32114 53.4572Z" fill="#455A64"/>
<path d="M72.2994 78.8691L72.9615 79.4716C73.0485 79.5603 73.1062 79.6735 73.127 79.796C73.1472 79.9564 73.176 80.1155 73.2131 80.2728C73.2233 80.3252 73.215 80.3796 73.1896 80.4267C73.1643 80.4737 73.1234 80.5106 73.074 80.531L72.6834 80.6965C72.6598 80.7059 72.6384 80.7199 72.6205 80.7379C72.6026 80.7558 72.5885 80.7772 72.5792 80.8008C72.5699 80.8244 72.5656 80.8496 72.5664 80.875C72.5672 80.9003 72.5732 80.9252 72.5841 80.9481L73.0409 81.9479C73.0664 81.9994 73.1062 82.0424 73.1556 82.0717C73.2049 82.1011 73.2617 82.1156 73.319 82.1134H73.8024C73.8619 82.1124 73.9209 82.125 73.9749 82.1502C74.0288 82.1755 74.0762 82.2127 74.1136 82.2591C74.221 82.4185 74.3382 82.5711 74.4645 82.716C74.5427 82.811 74.5849 82.9306 74.5837 83.0536L74.5373 83.7555C74.5377 83.8148 74.5509 83.8733 74.576 83.9271C74.6012 83.9808 74.6377 84.0284 74.683 84.0667L75.4378 84.6427C75.4536 84.6587 75.4734 84.6701 75.4951 84.6759C75.5168 84.6816 75.5397 84.6814 75.5613 84.6753C75.5829 84.6693 75.6025 84.6575 75.6181 84.6413C75.6336 84.6251 75.6445 84.605 75.6497 84.5831L75.8218 84.027C75.8299 84.0039 75.8426 83.9827 75.8591 83.9647C75.8757 83.9467 75.8957 83.9323 75.9181 83.9224C75.9404 83.9124 75.9645 83.9072 75.989 83.9069C76.0134 83.9067 76.0377 83.9115 76.0602 83.921C76.1601 83.9651 76.2644 83.9984 76.3714 84.0203C76.4894 84.0529 76.591 84.1285 76.6561 84.2322L77.1328 85.1128C77.1616 85.1605 77.2044 85.1981 77.2553 85.2206C77.3063 85.2431 77.3629 85.2494 77.4175 85.2386L77.9207 85.1327C77.9451 85.1285 77.9683 85.119 77.9885 85.1047C78.0087 85.0904 78.0255 85.0718 78.0375 85.0502C78.0496 85.0286 78.0567 85.0046 78.0582 84.9799C78.0598 84.9552 78.0558 84.9305 78.0465 84.9076L77.7089 84.0071C77.6926 83.9529 77.6913 83.8953 77.7053 83.8404C77.7193 83.7856 77.748 83.7356 77.7883 83.6959C77.8338 83.6482 77.8758 83.5973 77.9141 83.5436C77.9426 83.5001 77.9869 83.4696 78.0377 83.4584C78.0884 83.4473 78.1415 83.4565 78.1856 83.484L78.8477 83.9144C78.8647 83.9296 78.8856 83.9396 78.9081 83.9432C78.9306 83.9469 78.9537 83.944 78.9746 83.9349C78.9955 83.9259 79.0133 83.911 79.0261 83.8921C79.0388 83.8732 79.0458 83.8511 79.0463 83.8283L79.1721 83.1199C79.1788 83.0608 79.1722 83.001 79.1527 82.9448C79.1332 82.8887 79.1014 82.8376 79.0596 82.7954L78.3975 82.1929C78.3095 82.1075 78.2515 81.9961 78.2319 81.8751C78.213 81.7146 78.1842 81.5554 78.1459 81.3984C78.1365 81.3451 78.1451 81.2902 78.1703 81.2423C78.1954 81.1943 78.2357 81.1561 78.2849 81.1335L78.6756 80.968C78.6991 80.9585 78.7206 80.9445 78.7387 80.9267C78.7568 80.9089 78.7712 80.8877 78.781 80.8643C78.7909 80.8409 78.796 80.8158 78.7961 80.7904C78.7961 80.765 78.7912 80.7398 78.7815 80.7164L78.3246 79.7232C78.2977 79.671 78.2569 79.6273 78.2066 79.5969C78.1563 79.5665 78.0986 79.5507 78.0399 79.5511H77.5566C77.4967 79.5504 77.4376 79.5363 77.3838 79.51C77.33 79.4836 77.2827 79.4457 77.2454 79.3988C77.1396 79.2403 77.0223 79.0898 76.8945 78.9485C76.8191 78.8498 76.7794 78.7284 76.7819 78.6042L76.8216 77.909C76.8235 77.849 76.812 77.7894 76.788 77.7344C76.7639 77.6795 76.7279 77.6305 76.6826 77.5912L75.9212 77.0152C75.9049 76.9992 75.8846 76.9879 75.8625 76.9825C75.8403 76.9772 75.8171 76.9779 75.7954 76.9847C75.7736 76.9915 75.7541 77.0041 75.7389 77.0211C75.7238 77.0382 75.7135 77.059 75.7093 77.0814L75.5371 77.6309C75.531 77.6553 75.5194 77.678 75.5033 77.6972C75.4871 77.7165 75.4667 77.7318 75.4438 77.742C75.4208 77.7522 75.3958 77.7571 75.3707 77.7562C75.3456 77.7553 75.321 77.7487 75.2988 77.7369C75.197 77.6978 75.0931 77.6646 74.9876 77.6376C74.8692 77.6056 74.7675 77.5298 74.7029 77.4257L74.2261 76.5451C74.198 76.4967 74.1554 76.4585 74.1042 76.4359C74.0531 76.4133 73.9961 76.4075 73.9414 76.4193L73.4382 76.5252C73.4138 76.5293 73.3907 76.5389 73.3705 76.5532C73.3503 76.5674 73.3335 76.5861 73.3214 76.6077C73.3094 76.6292 73.3023 76.6533 73.3007 76.678C73.2992 76.7027 73.3032 76.7274 73.3124 76.7503L73.6567 77.6508C73.6703 77.7052 73.6702 77.7621 73.6563 77.8164C73.6425 77.8708 73.6153 77.9208 73.5773 77.962C73.5297 78.0096 73.4854 78.0605 73.4448 78.1143C73.4164 78.1577 73.372 78.1883 73.3213 78.1995C73.2705 78.2106 73.2174 78.2014 73.1734 78.1739L72.5113 77.7501C72.4947 77.7352 72.4743 77.7252 72.4524 77.7213C72.4305 77.7174 72.4079 77.7197 72.3872 77.728C72.3665 77.7363 72.3486 77.7502 72.3354 77.7681C72.3222 77.7861 72.3143 77.8074 72.3126 77.8296L72.1868 78.5447C72.1791 78.6038 72.1853 78.6638 72.2048 78.7202C72.2244 78.7765 72.2567 78.8275 72.2994 78.8691ZM74.1997 79.6901C74.3519 78.8492 75.1332 78.6771 75.9543 79.3061C76.3577 79.6149 76.6796 80.0176 76.8919 80.4792C77.1042 80.9408 77.2006 81.4472 77.1725 81.9545C77.0203 82.7888 76.239 82.9609 75.4179 82.3319C75.0146 82.0245 74.6927 81.623 74.4803 81.1625C74.2679 80.702 74.1716 80.1965 74.1997 79.6901Z" fill="#455A64"/>
<path d="M74.2122 89.0987L75.0199 89.8204C75.1286 89.9243 75.1986 90.0621 75.2186 90.2111C75.2443 90.4047 75.2796 90.597 75.3245 90.7871C75.3388 90.8511 75.3301 90.9181 75.2998 90.9762C75.2695 91.0344 75.2196 91.08 75.159 91.1049L74.6823 91.3036C74.6262 91.3282 74.5821 91.3741 74.5598 91.4312C74.5375 91.4883 74.5386 91.5519 74.5631 91.6081L75.1127 92.8198C75.1454 92.8806 75.1942 92.9313 75.2537 92.9664C75.3132 93.0014 75.3812 93.0194 75.4503 93.0184H76.0396C76.1123 93.0198 76.1837 93.0372 76.2489 93.0692C76.3141 93.1012 76.3715 93.1472 76.417 93.2038C76.5488 93.392 76.6902 93.5733 76.8408 93.7468C76.9319 93.8641 76.9808 94.0087 76.9798 94.1573L76.9268 95.0048C76.9275 95.0762 76.9431 95.1468 76.9728 95.2118C77.0024 95.2768 77.0455 95.3349 77.099 95.3822L78.0193 96.084C78.0389 96.1039 78.0635 96.1179 78.0905 96.1248C78.1176 96.1316 78.1459 96.1308 78.1726 96.1226C78.1992 96.1145 78.2231 96.0991 78.2416 96.0783C78.2601 96.0575 78.2725 96.032 78.2776 96.0046L78.4828 95.3425C78.4916 95.3142 78.5062 95.2881 78.5256 95.2658C78.5451 95.2436 78.569 95.2256 78.5958 95.2131C78.6226 95.2007 78.6518 95.1939 78.6813 95.1934C78.7109 95.1929 78.7403 95.1985 78.7675 95.21C78.8899 95.2598 79.0161 95.2997 79.1449 95.3292C79.29 95.3685 79.4152 95.4606 79.4959 95.5874L80.0653 96.6534C80.1021 96.7107 80.1552 96.7557 80.2176 96.7828C80.2801 96.8099 80.3492 96.8179 80.4162 96.8057L81.0253 96.6733C81.0549 96.6686 81.083 96.6572 81.1075 96.6401C81.1321 96.6229 81.1524 96.6005 81.1671 96.5744C81.1817 96.5483 81.1903 96.5192 81.1921 96.4893C81.1939 96.4594 81.189 96.4295 81.1776 96.4018L80.7605 95.316C80.7418 95.2499 80.7412 95.1801 80.7586 95.1137C80.7761 95.0473 80.811 94.9869 80.8598 94.9386C80.916 94.8796 80.9691 94.8177 81.0187 94.7532C81.0526 94.7012 81.1055 94.6644 81.1661 94.6508C81.2267 94.6372 81.2902 94.6478 81.3432 94.6803L82.1509 95.1968C82.1712 95.2158 82.1965 95.2286 82.2239 95.2336C82.2512 95.2387 82.2794 95.2358 82.3052 95.2254C82.3309 95.2149 82.3531 95.1974 82.3692 95.1747C82.3853 95.152 82.3946 95.1252 82.3959 95.0975L82.5482 94.2367C82.5559 94.1653 82.5475 94.0931 82.5234 94.0255C82.4993 93.9578 82.4602 93.8965 82.4092 93.8461L81.6014 93.1244C81.4959 93.0182 81.4264 92.8815 81.4027 92.7337C81.3771 92.5401 81.3417 92.3478 81.2968 92.1577C81.2834 92.0928 81.2925 92.0254 81.3226 91.9664C81.3527 91.9074 81.402 91.8605 81.4623 91.8333L81.9391 91.6412C81.9956 91.6152 82.0398 91.5681 82.0621 91.5099C82.0843 91.4518 82.083 91.3872 82.0582 91.33L81.5087 90.125C81.4766 90.0637 81.4279 90.0125 81.3682 89.9774C81.3085 89.9423 81.2402 89.9246 81.171 89.9264H80.5817C80.5091 89.9249 80.4376 89.9076 80.3724 89.8756C80.3072 89.8435 80.2498 89.7976 80.2043 89.741C80.0726 89.5506 79.9311 89.3672 79.7806 89.1914C79.6895 89.074 79.6405 88.9295 79.6415 88.7809L79.6945 87.9334C79.6947 87.8618 79.6794 87.791 79.6497 87.7259C79.62 87.6607 79.5765 87.6028 79.5223 87.556L78.602 86.8608C78.5824 86.8409 78.5578 86.8268 78.5308 86.82C78.5038 86.8132 78.4754 86.8139 78.4488 86.8221C78.4221 86.8303 78.3983 86.8457 78.3798 86.8665C78.3613 86.8873 78.3488 86.9128 78.3438 86.9402L78.1385 87.6023C78.1298 87.6306 78.1152 87.6567 78.0957 87.679C78.0762 87.7012 78.0523 87.7192 78.0255 87.7317C77.9987 87.7441 77.9696 87.7508 77.94 87.7514C77.9104 87.7519 77.8811 87.7463 77.8538 87.7348C77.7304 87.6859 77.6044 87.6439 77.4764 87.609C77.3321 87.5719 77.2069 87.4821 77.1255 87.3574L76.5561 86.2913C76.5198 86.2335 76.4669 86.1879 76.4043 86.1607C76.3416 86.1335 76.2722 86.126 76.2051 86.1391L75.596 86.2715C75.5664 86.2762 75.5384 86.2876 75.5138 86.3047C75.4893 86.3219 75.4689 86.3443 75.4543 86.3704C75.4396 86.3965 75.4311 86.4256 75.4292 86.4555C75.4274 86.4854 75.4324 86.5153 75.4437 86.543L75.8608 87.6288C75.8788 87.6949 75.8791 87.7646 75.8617 87.8308C75.8442 87.8971 75.8097 87.9575 75.7615 88.0062C75.7053 88.0652 75.6523 88.1271 75.6026 88.1916C75.5687 88.2436 75.5158 88.2803 75.4552 88.2939C75.3946 88.3075 75.3311 88.297 75.2782 88.2645L74.4704 87.7414C74.4489 87.7247 74.4232 87.714 74.3961 87.7106C74.3691 87.7072 74.3416 87.7111 74.3166 87.7219C74.2915 87.7327 74.2699 87.7501 74.2538 87.7721C74.2378 87.7942 74.228 87.8202 74.2254 87.8473L74.0731 88.7081C74.0663 88.7794 74.0753 88.8513 74.0993 88.9188C74.1233 88.9863 74.1618 89.0477 74.2122 89.0987ZM76.5163 90.0853C76.6951 89.0722 77.6419 88.8604 78.6351 89.6218C79.1243 89.9958 79.5141 90.4842 79.7704 91.0441C80.0267 91.6041 80.1416 92.2183 80.105 92.833C79.9262 93.8461 78.9794 94.0513 77.9862 93.2965C77.497 92.9225 77.1072 92.4341 76.8509 91.8742C76.5946 91.3143 76.4797 90.7 76.5163 90.0853Z" fill="#455A64"/>
<path d="M60.7385 79.9813L61.8641 80.9877C62.0069 81.1374 62.1015 81.3265 62.1356 81.5306C62.1687 81.8002 62.2173 82.0677 62.2813 82.3318C62.2986 82.4202 62.2859 82.5119 62.2451 82.5923C62.2043 82.6727 62.1378 82.7372 62.0561 82.7754L61.394 83.0468C61.3544 83.0627 61.3184 83.0865 61.2882 83.1166C61.2579 83.1467 61.234 83.1826 61.218 83.2222C61.2019 83.2617 61.194 83.3041 61.1946 83.3468C61.1953 83.3895 61.2046 83.4316 61.2219 83.4706L61.9899 85.1457C62.0338 85.2319 62.1014 85.3038 62.1846 85.353C62.2678 85.4023 62.3634 85.4268 62.46 85.4238L63.2744 85.3841C63.3744 85.3853 63.4728 85.4092 63.5623 85.454C63.6517 85.4987 63.7299 85.5631 63.7909 85.6423C63.9763 85.9072 64.1749 86.1588 64.3801 86.4037C64.5108 86.5645 64.5811 86.766 64.5788 86.9732L64.5059 88.1451C64.5038 88.2446 64.5241 88.3433 64.5654 88.4339C64.6067 88.5244 64.6678 88.6045 64.7443 88.6682L66.0156 89.6415C66.043 89.6686 66.0773 89.6878 66.1147 89.6969C66.1522 89.7059 66.1915 89.7046 66.2283 89.693C66.2651 89.6815 66.298 89.6601 66.3235 89.6311C66.3491 89.6022 66.3662 89.5669 66.3731 89.5289L66.6578 88.6086C66.6699 88.5684 66.6906 88.5314 66.7184 88.5C66.7462 88.4686 66.7804 88.4435 66.8187 88.4265C66.8571 88.4096 66.8987 88.4011 66.9406 88.4016C66.9825 88.4022 67.0238 88.4118 67.0617 88.4298C67.2324 88.496 67.4071 88.5513 67.5848 88.5953C67.7815 88.6496 67.9513 88.7745 68.0615 88.9463L68.8626 90.4228C68.9101 90.5037 68.9812 90.5681 69.0665 90.6072C69.1518 90.6463 69.2471 90.6582 69.3394 90.6413L70.1869 90.4559C70.227 90.4487 70.265 90.4329 70.2983 90.4094C70.3316 90.3859 70.3594 90.3554 70.3796 90.3201C70.3998 90.2847 70.412 90.2453 70.4153 90.2047C70.4186 90.1641 70.413 90.1233 70.3988 90.0851L69.8227 88.5755C69.7979 88.4843 69.7971 88.3882 69.8203 88.2966C69.8435 88.2049 69.8899 88.1209 69.9551 88.0524C70.035 87.9725 70.108 87.8861 70.1736 87.7942C70.1965 87.7579 70.2264 87.7266 70.2615 87.7019C70.2965 87.6773 70.3362 87.6599 70.378 87.6506C70.4199 87.6414 70.4632 87.6406 70.5054 87.6481C70.5476 87.6557 70.5878 87.6716 70.6239 87.6949L71.7494 88.4099C71.7782 88.4344 71.8131 88.4505 71.8504 88.4565C71.8877 88.4624 71.9258 88.4579 71.9607 88.4435C71.9956 88.4292 72.0259 88.4054 72.0482 88.375C72.0705 88.3445 72.084 88.3085 72.0871 88.2709L72.299 87.0791C72.31 86.98 72.2984 86.8797 72.2651 86.7857C72.2319 86.6917 72.1778 86.6064 72.107 86.5362L70.9814 85.5298C70.8361 85.3818 70.7411 85.1918 70.7099 84.9868C70.6769 84.7194 70.6282 84.4541 70.5643 84.1923C70.5449 84.1029 70.5574 84.0096 70.5998 83.9285C70.6421 83.8474 70.7116 83.7838 70.796 83.7487L71.4581 83.4706C71.4983 83.4555 71.535 83.4322 71.5658 83.4022C71.5966 83.3722 71.6208 83.3362 71.637 83.2964C71.6532 83.2566 71.6609 83.2139 71.6598 83.1709C71.6586 83.128 71.6486 83.0857 71.6303 83.0468L70.8622 81.3783C70.8174 81.2924 70.7499 81.2204 70.667 81.1702C70.5841 81.12 70.489 81.0935 70.3921 81.0936L69.5777 81.1333C69.4783 81.1329 69.3802 81.11 69.2908 81.0665C69.2014 81.0229 69.1229 80.9598 69.0613 80.8817C68.8759 80.6169 68.6773 80.3587 68.472 80.1203C68.3423 79.959 68.2722 79.7579 68.2734 79.5509L68.3462 78.3723C68.3483 78.2728 68.328 78.1741 68.2867 78.0836C68.2455 77.993 68.1843 77.9129 68.1078 77.8493L66.8366 76.8759C66.8092 76.8488 66.7749 76.8297 66.7374 76.8206C66.6999 76.8115 66.6607 76.8128 66.6239 76.8244C66.5871 76.836 66.5541 76.8574 66.5286 76.8863C66.5031 76.9152 66.486 76.9506 66.479 76.9885L66.1943 77.9155C66.1822 77.9556 66.1615 77.9926 66.1338 78.0241C66.106 78.0555 66.0717 78.0805 66.0334 78.0975C65.9951 78.1145 65.9535 78.123 65.9116 78.1224C65.8696 78.1218 65.8283 78.1122 65.7904 78.0942C65.63 78.0382 65.4664 77.9918 65.3005 77.9552C65.1007 77.9037 64.928 77.7782 64.8171 77.6043L63.9763 76.0947C63.9289 76.0137 63.8577 75.9493 63.7724 75.9102C63.6871 75.8711 63.5918 75.8592 63.4995 75.8762L62.652 76.0616C62.6117 76.0696 62.5736 76.0862 62.5403 76.1103C62.507 76.1345 62.4793 76.1656 62.4592 76.2014C62.439 76.2373 62.4269 76.2771 62.4236 76.3181C62.4203 76.3591 62.426 76.4003 62.4402 76.439L63.0162 77.9486C63.0423 78.0397 63.0438 78.1361 63.0206 78.228C62.9973 78.3199 62.9501 78.4039 62.8838 78.4716C62.8039 78.5515 62.7309 78.6379 62.6653 78.7299C62.6179 78.8017 62.5444 78.8522 62.4603 78.8708C62.3763 78.8893 62.2883 78.8744 62.215 78.8292L61.0895 78.1075C61.0603 78.0828 61.0248 78.0667 60.987 78.061C60.9492 78.0554 60.9105 78.0604 60.8754 78.0756C60.8403 78.0907 60.8102 78.1154 60.7883 78.1467C60.7665 78.1781 60.7538 78.215 60.7518 78.2531L60.5399 79.4449C60.5308 79.5435 60.544 79.6428 60.5783 79.7357C60.6127 79.8285 60.6674 79.9124 60.7385 79.9813ZM63.9299 81.3518C64.1815 79.9482 65.4991 79.6634 66.8763 80.6897C68.2535 81.716 69.1672 83.7354 68.9156 85.1391C68.664 86.5428 67.3464 86.8341 65.9692 85.8012C64.592 84.7683 63.6849 82.7621 63.9299 81.3518Z" fill="#455A64"/>
<path d="M76.5058 54.5825C79.3662 58.0255 81.3194 62.8391 81.3194 67.07C81.374 68.6862 80.992 70.2872 80.2136 71.7047L72.5265 61.9585L76.5058 54.5825Z" fill="#407BFF"/>
<path opacity="0.3" d="M76.5058 54.5825C79.3662 58.0255 81.3194 62.8391 81.3194 67.07C81.374 68.6862 80.992 70.2872 80.2136 71.7047L72.5265 61.9585L76.5058 54.5825Z" fill="black"/>
<path d="M68.5593 49.9743C69.9644 49.9585 71.3441 50.3494 72.532 51.0999C74.053 52.015 75.3984 53.1944 76.5047 54.5826L72.532 61.9851L68.5593 49.9743Z" fill="#407BFF"/>
<path opacity="0.15" d="M68.5593 49.9743C69.9644 49.9585 71.3441 50.3494 72.532 51.0999C74.053 52.015 75.3984 53.1944 76.5047 54.5826L72.532 61.9851L68.5593 49.9743Z" fill="black"/>
<path d="M64.5468 52.7949C64.8822 51.9958 65.437 51.308 66.1471 50.8112C66.8572 50.3144 67.6935 50.0288 68.5592 49.9875L72.5318 61.9983L64.5468 52.7949Z" fill="#407BFF"/>
<path opacity="0.2" d="M64.5468 52.7949C64.8822 51.9958 65.437 51.308 66.1471 50.8112C66.8572 50.3144 67.6935 50.0288 68.5592 49.9875L72.5318 61.9983L64.5468 52.7949Z" fill="black"/>
<path d="M64.5462 52.7949L72.5247 61.9983L80.2118 71.7446C78.7022 74.1944 75.8286 74.7903 72.5247 72.8768C67.6714 70.0761 63.7252 62.9451 63.7252 56.9133C63.6894 55.4965 63.9699 54.0896 64.5462 52.7949Z" fill="#407BFF"/>
<path d="M81.5241 67.0702C81.5241 62.9055 79.6635 58.0654 76.6642 54.4503C75.5407 53.0453 74.1751 51.8524 72.6319 50.9279C71.4097 50.1573 69.9914 49.755 68.5467 49.7692C67.6445 49.8138 66.7732 50.1122 66.033 50.6299C65.2928 51.1476 64.7136 51.8636 64.3621 52.6957C63.7715 54.0168 63.4842 55.4534 63.5212 56.9001C63.5212 62.9651 67.4939 70.2086 72.4267 73.0424C73.5792 73.7563 74.8987 74.1558 76.2537 74.2011C77.0905 74.2112 77.9148 73.9973 78.6413 73.5817C79.3677 73.1661 79.9698 72.5639 80.3852 71.8374C81.1879 70.3801 81.5814 68.7329 81.5241 67.0702ZM80.1998 71.3673L75.181 65.0044L72.7842 61.9653L76.0021 56.0063L76.5516 54.9734C79.3854 58.4892 81.1334 63.1107 81.1334 67.0967C81.1672 68.5758 80.8423 70.041 80.1866 71.3673H80.1998ZM72.4399 51.2788C73.9002 52.1515 75.1974 53.2717 76.2735 54.5894L72.5856 61.4687L68.8645 50.2128V50.1797C70.1261 50.2367 71.3522 50.6151 72.4267 51.2788H72.4399ZM68.4275 50.1863L70.0695 55.1588L72.0559 61.1178L64.8322 52.7884C65.1446 52.0758 65.641 51.4591 66.2706 51.0018C66.9001 50.5445 67.64 50.2631 68.4143 50.1863H68.4275ZM72.6451 72.6981C67.8448 69.9239 63.945 62.8459 63.945 56.9067C63.914 55.6281 64.1391 54.3561 64.6071 53.1658L72.3803 62.1242L79.9681 71.7513C78.4452 74.0687 75.6511 74.4395 72.6319 72.6915L72.6451 72.6981Z" fill="#FAFAFA"/>
<path d="M79.2603 50.61L66.6338 43.3268C66.4219 43.2076 66.2498 43.3268 66.2498 43.5519V44.0485C66.2568 44.1814 66.2953 44.3107 66.3621 44.4258C66.4288 44.5409 66.522 44.6385 66.6338 44.7106L79.2603 51.9939C79.4722 52.113 79.6443 51.9939 79.6443 51.7687V51.2722C79.6373 51.1393 79.5988 51.01 79.532 50.8949C79.4653 50.7798 79.3721 50.6822 79.2603 50.61Z" fill="#455A64"/>
<path d="M39.4805 40.5657L52.9876 48.3654C53.2723 48.5309 53.5107 48.3654 53.5107 47.9681V37.1757L46.6313 40.91C46.393 41.0093 46.0685 40.8239 45.8368 40.4531L38.9839 28.7734V39.5526C38.981 39.7487 39.0245 39.9426 39.1108 40.1186C39.1971 40.2947 39.3238 40.4478 39.4805 40.5657Z" fill="#455A64"/>
<path d="M53.5361 36.5204L38.9696 28.1182L45.8688 38.5928C46.0939 38.9371 46.3919 39.1092 46.617 39.0298L53.5361 36.5204Z" fill="#455A64"/>
<path d="M37.1759 53.0532C37.1863 53.8851 37.3926 54.7028 37.7779 55.4402C38.1633 56.1775 38.7169 56.8138 39.394 57.2973L50.9081 63.9184C52.1331 64.6269 53.1262 63.8721 53.1262 62.2366C53.1158 61.4047 52.9096 60.587 52.5242 59.8496C52.1388 59.1122 51.5852 58.476 50.9081 57.9925V55.6155C50.9081 53.0465 49.3389 50.0538 47.4056 48.9348C45.843 48.0343 44.5452 48.7759 44.2539 50.5835C43.9111 49.6377 43.2756 48.8258 42.4397 48.2661C40.8374 47.3391 39.533 48.3257 39.533 50.4709V51.4707L39.4072 51.3979C38.1558 50.6629 37.1759 51.4177 37.1759 53.0532ZM42.731 54.5164L45.1478 52.7684L47.5711 57.3105L46.4256 56.6484V59.7868L43.8765 58.3169V55.1785L42.731 54.5164Z" fill="#455A64"/>
<path d="M51.6747 69.1426C51.5398 68.8957 51.3408 68.6898 51.0987 68.5467L37.9822 60.9721C37.6048 60.7536 37.3201 60.8662 37.2009 61.2105C37.1802 61.286 37.1691 61.3639 37.1678 61.4422V68.0633C37.1304 68.3347 37.1826 68.6109 37.3164 68.8499C37.4502 69.0889 37.6584 69.2777 37.9094 69.3876L39.9487 70.5727L41.1736 74.0886C41.1814 74.1132 41.1949 74.1356 41.213 74.1541C41.2311 74.1726 41.2533 74.1866 41.2777 74.1949C41.3022 74.2033 41.3283 74.2058 41.3539 74.2023C41.3795 74.1988 41.4039 74.1893 41.4252 74.1746L42.5839 72.1883L51.0457 77.0813C51.099 77.1159 51.1569 77.1427 51.2178 77.1608C51.582 77.2667 51.8799 77.0548 51.8799 76.6112V69.9901C51.8848 69.6947 51.8142 69.403 51.6747 69.1426ZM49.2249 73.2808L39.8626 67.8515C39.728 67.7781 39.6128 67.6738 39.5265 67.5472C39.4401 67.4206 39.3851 67.2752 39.366 67.1231C39.366 66.8782 39.5845 66.8119 39.8626 66.9642L49.2249 72.4002C49.3571 72.4741 49.4702 72.5778 49.5552 72.7031C49.6403 72.8284 49.6949 72.9718 49.7148 73.1219C49.7148 73.3669 49.4963 73.4397 49.2249 73.2808ZM49.2249 71.0627L39.8626 65.6268C39.7287 65.5526 39.614 65.4481 39.5278 65.3216C39.4416 65.1951 39.3862 65.0502 39.366 64.8984C39.366 64.6535 39.5845 64.5806 39.8626 64.7395L49.2249 70.1689C49.358 70.2449 49.4717 70.3509 49.5567 70.4784C49.6418 70.606 49.6959 70.7517 49.7148 70.9038C49.7148 71.1422 49.4963 71.2216 49.2249 71.0627Z" fill="#455A64"/>
</svg>
