<svg width="400" height="400" viewBox="0 0 400 400" fill="none" xmlns="http://www.w3.org/2000/svg">
<g clip-path="url(#clip0)">
<path d="M200 383.796C303.829 383.796 388 335.2 388 275.254C388 215.308 303.829 166.712 200 166.712C96.1705 166.712 12 215.308 12 275.254C12 335.2 96.1705 383.796 200 383.796Z" fill="#F0F0F0"/>
<path d="M308.233 334.45C295.905 327.333 295.905 315.795 308.233 308.677C320.561 301.559 340.549 301.559 352.877 308.677C365.205 315.795 365.205 327.333 352.877 334.45C340.549 341.568 320.561 341.568 308.233 334.45Z" fill="#E0E0E0"/>
<path d="M57.2273 310.747L24.7995 292.027C22.9723 290.974 22.9723 289.258 24.7995 288.205L213.422 179.304C214.447 178.784 215.58 178.514 216.729 178.514C217.879 178.514 219.012 178.784 220.037 179.304L252.473 198.023C254.3 199.077 254.3 200.792 252.473 201.845L63.8502 310.747C62.8236 311.266 61.6893 311.537 60.5387 311.537C59.3882 311.537 58.2539 311.266 57.2273 310.747Z" fill="#E0E0E0"/>
<path d="M173.788 277.377L201.668 261.259C204.54 259.599 205.976 257.429 205.976 255.25C205.976 253.072 205.976 251.373 205.976 251.373L177.059 235.063C176.252 234.541 175.579 233.834 175.096 233.002C174.614 232.17 174.335 231.236 174.283 230.275V195.893L125.609 224.028V258.394C125.665 259.354 125.946 260.287 126.428 261.118C126.91 261.95 127.581 262.657 128.386 263.182L152.994 277.353C158.723 280.696 168.043 280.696 173.788 277.377Z" fill="#407BFF"/>
<path opacity="0.6" d="M173.788 277.377L201.668 261.259C204.54 259.599 205.976 257.429 205.976 255.25C205.976 253.072 205.976 251.373 205.976 251.373L177.059 235.063C176.252 234.541 175.579 233.834 175.096 233.002C174.614 232.17 174.335 231.236 174.283 230.275V195.893L125.609 224.028V258.394C125.665 259.354 125.946 260.287 126.428 261.118C126.91 261.95 127.581 262.657 128.386 263.182L152.994 277.353C158.723 280.696 168.043 280.696 173.788 277.377Z" fill="black"/>
<path opacity="0.3" d="M137.282 264.482V268.344L128.361 263.198C127.556 262.673 126.886 261.966 126.405 261.135C125.924 260.303 125.646 259.37 125.593 258.41V224.027L134.864 218.673C135.056 221.027 135.263 223.461 135.463 225.855L128.944 229.605V256.455C128.996 257.416 129.274 258.351 129.757 259.183C130.239 260.015 130.912 260.721 131.721 261.243L137.282 264.482Z" fill="black"/>
<path d="M128.945 256.463C128.999 257.423 129.279 258.357 129.762 259.189C130.244 260.02 130.915 260.727 131.721 261.251L152.962 273.491C158.707 276.803 168.027 276.811 173.78 273.491L201.708 257.373C207.461 254.054 207.461 248.676 201.708 245.356L180.451 233.116C179.647 232.59 178.977 231.883 178.496 231.052C178.016 230.22 177.737 229.288 177.682 228.328V201.47L129.008 229.605L128.945 256.463Z" fill="#407BFF"/>
<path opacity="0.3" d="M128.945 256.463C128.999 257.423 129.279 258.357 129.762 259.189C130.244 260.02 130.915 260.727 131.721 261.251L152.962 273.491C158.707 276.803 168.027 276.811 173.78 273.491L201.708 257.373C207.461 254.054 207.461 248.676 201.708 245.356L180.451 233.116C179.647 232.59 178.977 231.883 178.496 231.052C178.016 230.22 177.737 229.288 177.682 228.328V201.47L129.008 229.605L128.945 256.463Z" fill="black"/>
<path opacity="0.5" d="M186.076 236.396L180.419 233.132C179.615 232.606 178.945 231.899 178.464 231.068C177.983 230.236 177.705 229.303 177.65 228.344V201.47L128.976 229.605V256.463C129.031 257.423 129.311 258.357 129.793 259.189C130.276 260.02 130.947 260.727 131.753 261.251L137.339 264.443L186.076 236.396Z" fill="black"/>
<path d="M205.984 251.38V255.258C205.984 257.437 204.54 259.599 201.676 261.267L173.748 277.377C170.692 279.008 167.278 279.855 163.814 279.842V275.98C167.278 275.993 170.692 275.146 173.748 273.515L201.676 257.389C204.54 255.737 205.984 253.559 205.984 251.38Z" fill="#407BFF"/>
<path opacity="0.5" d="M205.984 251.38V255.258C205.984 257.437 204.54 259.599 201.676 261.267L173.748 277.377C170.692 279.008 167.278 279.855 163.814 279.842V275.98C167.278 275.993 170.692 275.146 173.748 273.515L201.676 257.389C204.54 255.737 205.984 253.559 205.984 251.38Z" fill="black"/>
<path d="M50.7473 289.841C51.7995 290.349 52.9564 290.603 54.1248 290.582C55.2931 290.561 56.4403 290.266 57.4738 289.721L245.785 181.003C246.795 180.345 247.635 179.457 248.238 178.414C248.841 177.37 249.19 176.198 249.256 174.995V22.6542C249.22 21.4832 248.908 20.3372 248.345 19.3097C247.782 18.2822 246.984 17.4022 246.016 16.7416C244.965 16.2328 243.809 15.9792 242.642 16.0013C241.474 16.0235 240.329 16.3209 239.298 16.8692L50.9866 125.619C49.9804 126.282 49.1451 127.173 48.5488 128.22C47.9526 129.267 47.6122 130.44 47.5555 131.643V283.96C47.5911 285.121 47.8984 286.258 48.4527 287.28C49.0069 288.301 49.7928 289.178 50.7473 289.841Z" fill="#407BFF"/>
<path d="M57.4983 289.713L245.81 180.995C246.821 180.338 247.662 179.451 248.265 178.407C248.868 177.363 249.216 176.191 249.281 174.987V22.6543C249.281 20.444 247.725 19.5424 245.81 20.6515L57.4983 129.369C56.4882 130.027 55.6474 130.914 55.0443 131.958C54.4412 133.002 54.0928 134.174 54.0273 135.378V287.71C54.0273 289.921 55.5833 290.822 57.4983 289.713Z" fill="#407BFF"/>
<path opacity="0.5" d="M57.4983 289.713L245.81 180.995C246.821 180.338 247.662 179.451 248.265 178.407C248.868 177.363 249.216 176.191 249.281 174.987V22.6543C249.281 20.444 247.725 19.5424 245.81 20.6515L57.4983 129.369C56.4882 130.027 55.6474 130.914 55.0443 131.958C54.4412 133.002 54.0928 134.174 54.0273 135.378V287.71C54.0273 289.921 55.5833 290.822 57.4983 289.713Z" fill="black"/>
<path d="M56.9871 293.671C55.9996 294.102 54.9304 294.313 53.8532 294.291C52.7759 294.269 51.7163 294.014 50.7473 293.543C49.7907 292.879 49.0035 291.999 48.4491 290.975C47.8947 289.951 47.5887 288.81 47.5555 287.646V273.778L54.0587 277.545V291.413C54.0188 293.431 55.3034 294.349 56.9871 293.671Z" fill="#407BFF"/>
<path opacity="0.5" d="M56.9871 293.671C55.9996 294.102 54.9304 294.313 53.8532 294.291C52.7759 294.269 51.7163 294.014 50.7473 293.543C49.7907 292.879 49.0035 291.999 48.4491 290.975C47.8947 289.951 47.5887 288.81 47.5555 287.646V273.778L54.0587 277.545V291.413C54.0188 293.431 55.3034 294.349 56.9871 293.671Z" fill="black"/>
<path d="M54.0192 277.544V291.412C54.0192 293.623 55.615 294.516 57.4902 293.415L245.801 184.697C246.807 184.042 247.645 183.16 248.248 182.122C248.85 181.084 249.201 179.919 249.272 178.721V164.789L54.0192 277.544Z" fill="#407BFF"/>
<path opacity="0.3" d="M54.0273 277.512V291.412C54.0273 293.623 55.6232 294.516 57.4983 293.415L245.81 184.697C246.814 184.041 247.65 183.159 248.251 182.121C248.853 181.083 249.202 179.918 249.273 178.721V164.789L54.0273 277.512Z" fill="black"/>
<path d="M60.5294 260.11V137.54C60.5666 136.818 60.7739 136.115 61.1344 135.488C61.4949 134.861 61.9985 134.329 62.604 133.934L240.654 31.1044C241.803 30.4422 242.736 30.9768 242.736 32.3013V154.935C242.698 155.658 242.489 156.361 242.127 156.988C241.765 157.614 241.26 158.147 240.654 158.542L62.612 261.347C61.463 262.009 60.5294 261.466 60.5294 260.11Z" fill="#407BFF"/>
<path d="M60.5294 260.11V137.54C60.5666 136.818 60.7739 136.115 61.1344 135.488C61.4949 134.861 61.9985 134.329 62.604 133.934L240.654 31.1044C241.803 30.4422 242.736 30.9768 242.736 32.3013V154.935C242.698 155.658 242.489 156.361 242.127 156.988C241.765 157.614 241.26 158.147 240.654 158.542L62.612 261.347C61.463 262.009 60.5294 261.466 60.5294 260.11Z" fill="#263238"/>
<path opacity="0.7" d="M55.0481 131.947C54.4297 132.986 54.0762 134.162 54.0188 135.37V277.545L47.5555 273.779V131.643C47.5974 130.431 47.949 129.25 48.5769 128.212L55.0481 131.947Z" fill="black"/>
<path opacity="0.3" d="M249.24 22.0796C248.993 20.2923 247.549 19.6858 245.801 20.6513L57.4902 129.369C56.4692 130.008 55.6264 130.894 55.0405 131.946L48.5294 128.188C49.1192 127.136 49.9644 126.25 50.987 125.611L239.298 16.9011C240.33 16.3526 241.478 16.0553 242.646 16.0331C243.815 16.0109 244.972 16.2645 246.025 16.7734C246.909 17.3761 247.654 18.1618 248.209 19.0772C248.764 19.9926 249.116 21.0165 249.24 22.0796Z" fill="black"/>
<path d="M151.646 225.584C150.698 226.2 149.909 227.032 149.343 228.01C148.778 228.989 148.451 230.088 148.39 231.217C148.39 233.292 149.85 234.137 151.646 233.1C152.595 232.483 153.384 231.65 153.95 230.67C154.516 229.689 154.842 228.589 154.901 227.459C154.901 225.384 153.441 224.546 151.646 225.584Z" fill="#407BFF"/>
<path d="M259.397 40.831C259.117 40.6906 258.804 40.6291 258.492 40.653C258.18 40.6769 257.881 40.7853 257.625 40.9666L79.9427 143.612C79.2416 144.076 78.6596 144.698 78.2437 145.429C77.8278 146.159 77.5898 146.978 77.5489 147.817V269.637C77.524 270.048 77.6057 270.459 77.786 270.829C77.9664 271.2 78.2392 271.517 78.5783 271.752C78.9692 271.967 81.0598 273.18 81.6822 273.515C81.9024 273.627 82.1484 273.679 82.3952 273.665C82.6419 273.651 82.8805 273.572 83.0866 273.435L260.729 170.79C261.431 170.326 262.013 169.703 262.428 168.973C262.844 168.242 263.082 167.424 263.123 166.585V44.1344C263.159 43.825 263.108 43.5117 262.975 43.2298C262.843 42.9479 262.634 42.7086 262.373 42.5385C261.974 42.2752 259.844 41.0943 259.397 40.831Z" fill="#407BFF"/>
<path d="M83.047 145.336L260.738 42.7301C262.078 41.9322 263.132 42.5865 263.132 44.1345V166.585C263.091 167.424 262.853 168.242 262.437 168.973C262.021 169.704 261.439 170.326 260.738 170.79L83.047 273.435C81.7065 274.233 80.6532 272.948 80.6532 271.4V149.541C80.6953 148.701 80.9339 147.884 81.3496 147.153C81.7654 146.423 82.3468 145.8 83.047 145.336V145.336Z" fill="#FAFAFA"/>
<path d="M261.823 43.1929C262.294 43.1929 262.365 43.7834 262.365 44.1345V166.585C262.322 167.288 262.116 167.971 261.763 168.581C261.41 169.19 260.919 169.709 260.331 170.096L82.664 272.741C82.5447 272.818 82.407 272.862 82.265 272.869C81.8182 272.869 81.4671 272.183 81.4671 271.401V149.541C81.5056 148.838 81.7056 148.153 82.0516 147.54C82.3975 146.927 82.8801 146.402 83.4619 146.006L261.137 43.4164C261.342 43.2837 261.579 43.2067 261.823 43.1929V43.1929ZM261.823 42.395C261.438 42.4114 261.065 42.5268 260.738 42.7301L83.047 145.336C82.3468 145.801 81.7654 146.423 81.3496 147.153C80.9339 147.884 80.6953 148.702 80.6532 149.541V271.401C80.6532 272.629 81.3394 273.667 82.2491 273.667C82.5308 273.661 82.8061 273.582 83.047 273.435L260.73 170.79C261.431 170.326 262.013 169.704 262.429 168.973C262.845 168.243 263.083 167.424 263.124 166.585V44.1345C263.124 43.0334 262.581 42.395 261.783 42.395H261.823Z" fill="#E0E0E0"/>
<path d="M78.5307 271.751C78.794 271.887 80.6851 272.964 81.5149 273.443C81.217 273.196 80.981 272.882 80.8258 272.528C80.6706 272.173 80.6006 271.787 80.6213 271.4V157.496L77.5093 155.677V269.637C77.4836 270.047 77.564 270.458 77.7429 270.828C77.9218 271.198 78.1931 271.516 78.5307 271.751V271.751Z" fill="#F0F0F0"/>
<path d="M263.163 44.1103C263.163 42.5783 262.07 41.9559 260.77 42.7299L83.047 145.336C82.3468 145.8 81.7654 146.423 81.3496 147.153C80.9339 147.884 80.6953 148.701 80.6532 149.541V157.52L263.163 52.0896V44.1103Z" fill="#407BFF"/>
<path opacity="0.4" d="M260.738 42.7304L83.047 145.328C82.3339 145.778 81.7464 146.401 81.3394 147.139L78.2515 145.344C78.6577 144.631 79.2402 144.035 79.9431 143.612L257.626 40.9669C257.88 40.7843 258.18 40.6745 258.492 40.6492C258.804 40.6239 259.117 40.6841 259.397 40.8233C259.828 41.0946 261.847 42.2356 262.366 42.5149C262.097 42.4154 261.809 42.383 261.525 42.4206C261.241 42.4581 260.971 42.5645 260.738 42.7304V42.7304Z" fill="white"/>
<path opacity="0.15" d="M77.5101 155.685V147.777C77.5429 146.916 77.7986 146.077 78.2522 145.344L81.3482 147.131C80.901 147.852 80.6507 148.677 80.6221 149.525V157.504L77.5101 155.685Z" fill="black"/>
<path d="M225.693 135.968L119.273 197.408C118.755 197.744 118.325 198.197 118.015 198.731C117.706 199.265 117.527 199.864 117.494 200.48V230.993C117.527 231.609 117.706 232.209 118.015 232.742C118.325 233.276 118.755 233.729 119.273 234.065L122.377 235.853C122.928 236.132 123.538 236.277 124.156 236.277C124.774 236.277 125.384 236.132 125.936 235.853L232.339 174.412C232.857 174.075 233.288 173.62 233.597 173.085C233.906 172.55 234.085 171.949 234.119 171.332V140.811C234.085 140.195 233.906 139.596 233.597 139.062C233.288 138.528 232.857 138.075 232.339 137.739L229.227 135.952C228.678 135.677 228.072 135.536 227.458 135.539C226.844 135.541 226.239 135.688 225.693 135.968Z" fill="#407BFF"/>
<path opacity="0.5" d="M234.119 140.54C233.991 139.623 233.249 139.288 232.355 139.806L125.936 201.247C125.411 201.573 124.979 202.029 124.683 202.571L118.02 198.725C118.319 198.192 118.747 197.742 119.265 197.417L225.693 135.976C226.243 135.697 226.851 135.551 227.468 135.551C228.085 135.551 228.693 135.697 229.244 135.976L232.355 137.763C232.83 138.074 233.233 138.483 233.537 138.962C233.841 139.441 234.039 139.979 234.119 140.54Z" fill="white"/>
<path d="M125.632 236.004C125.111 236.21 124.553 236.303 123.993 236.278C123.434 236.254 122.886 236.111 122.385 235.861L119.273 234.073C118.756 233.737 118.326 233.283 118.017 232.749C117.708 232.216 117.529 231.617 117.494 231.001V200.489C117.518 199.866 117.699 199.259 118.02 198.725L124.683 202.571C124.359 203.098 124.178 203.7 124.156 204.319V234.839C124.156 235.853 124.795 236.323 125.632 236.004Z" fill="#263238"/>
<path d="M125.935 201.247L232.355 139.806C233.336 139.24 234.134 139.694 234.134 140.827V171.348C234.1 171.965 233.922 172.566 233.612 173.101C233.303 173.636 232.872 174.091 232.355 174.428L125.951 235.869C124.97 236.435 124.172 235.972 124.172 234.839V204.327C124.204 203.711 124.38 203.111 124.686 202.576C124.993 202.041 125.42 201.586 125.935 201.247V201.247Z" fill="#407BFF"/>
<path d="M197.479 152.262L119.282 197.416C118.764 197.741 118.335 198.191 118.037 198.725L124.7 202.571C124.996 202.029 125.428 201.573 125.952 201.247L204.149 156.1L197.479 152.262Z" fill="#455A64"/>
<path d="M204.133 156.1L125.936 201.246C125.418 201.584 124.987 202.039 124.678 202.574C124.369 203.109 124.19 203.709 124.156 204.326V234.831C124.156 235.964 124.954 236.427 125.936 235.861L204.133 190.714V156.1Z" fill="#37474F"/>
<path d="M143.968 197.528L184.32 174.237C185.987 173.271 187.344 173.957 187.344 175.769C187.269 176.786 186.956 177.771 186.429 178.645C185.902 179.518 185.177 180.255 184.312 180.796L143.968 204.095C142.301 205.061 140.936 204.375 140.936 202.563C141.012 201.545 141.325 200.559 141.852 199.684C142.379 198.81 143.104 198.071 143.968 197.528V197.528Z" fill="#407BFF"/>
<path d="M152.235 205.244C152.242 205.236 152.252 205.229 152.262 205.224C152.272 205.22 152.283 205.217 152.295 205.217C152.306 205.217 152.317 205.22 152.328 205.224C152.338 205.229 152.347 205.236 152.355 205.244C152.39 205.299 152.407 205.363 152.403 205.428V209.968C152.403 210.407 152.366 210.844 152.291 211.277C152.225 211.672 152.112 212.057 151.956 212.426C151.813 212.763 151.625 213.08 151.397 213.367C151.173 213.634 150.902 213.858 150.599 214.03C150.362 214.184 150.085 214.267 149.801 214.269C149.693 214.26 149.588 214.23 149.492 214.179C149.395 214.128 149.311 214.058 149.243 213.974C149.068 213.739 148.953 213.465 148.908 213.176C148.831 212.79 148.796 212.396 148.804 212.003V207.455C148.804 207.375 148.82 207.296 148.852 207.223C148.871 207.157 148.914 207.101 148.971 207.064L149.474 206.768C149.49 206.753 149.512 206.745 149.534 206.745C149.556 206.745 149.578 206.753 149.594 206.768C149.631 206.822 149.648 206.887 149.642 206.952V211.436C149.636 211.683 149.66 211.929 149.713 212.17C149.735 212.324 149.802 212.469 149.905 212.585C149.941 212.628 149.986 212.662 150.038 212.684C150.089 212.706 150.144 212.716 150.2 212.713C150.337 212.704 150.469 212.66 150.583 212.585C150.725 212.5 150.854 212.396 150.966 212.274C151.091 212.131 151.193 211.969 151.269 211.795C151.359 211.591 151.426 211.376 151.469 211.157C151.515 210.894 151.537 210.626 151.533 210.359V205.867C151.535 205.787 151.554 205.708 151.589 205.635C151.608 205.57 151.651 205.513 151.708 205.476L152.235 205.244Z" fill="#FAFAFA"/>
<path d="M155.363 209.537C155.367 209.478 155.353 209.42 155.323 209.369C155.304 209.349 155.281 209.333 155.254 209.323C155.228 209.313 155.199 209.31 155.172 209.314C155.074 209.3 154.974 209.3 154.876 209.314L154.414 209.401C154.264 209.439 154.108 209.439 153.959 209.401C153.842 209.364 153.74 209.288 153.671 209.186C153.593 209.056 153.542 208.913 153.52 208.763C153.442 208.336 153.442 207.898 153.52 207.47C153.58 207.225 153.665 206.987 153.775 206.76C153.884 206.534 154.018 206.319 154.174 206.122C154.325 205.934 154.509 205.774 154.717 205.651C154.885 205.549 155.072 205.484 155.267 205.46C155.409 205.445 155.551 205.476 155.674 205.547C155.791 205.619 155.883 205.725 155.938 205.851C156.002 205.999 156.037 206.159 156.041 206.321C156.05 206.402 156.033 206.482 155.993 206.553C155.974 206.619 155.931 206.675 155.874 206.712L155.395 206.992C155.373 207.004 155.348 207.011 155.323 207.011C155.298 207.011 155.273 207.004 155.251 206.992L155.148 206.912C155.106 206.879 155.056 206.86 155.004 206.856C154.901 206.867 154.803 206.903 154.717 206.96C154.591 207.035 154.481 207.133 154.39 207.247C154.293 207.373 154.242 207.527 154.246 207.686C154.235 207.746 154.235 207.809 154.246 207.869C154.261 207.892 154.281 207.911 154.305 207.925C154.328 207.938 154.354 207.947 154.382 207.949C154.469 207.964 154.558 207.964 154.645 207.949L155.092 207.869C155.467 207.798 155.722 207.869 155.89 208.077C156.066 208.372 156.147 208.715 156.121 209.058C156.119 209.295 156.087 209.531 156.025 209.76C155.962 210.009 155.871 210.25 155.754 210.479C155.637 210.715 155.489 210.935 155.315 211.133C155.15 211.327 154.953 211.491 154.733 211.62C154.557 211.732 154.358 211.8 154.15 211.819C154 211.824 153.852 211.783 153.727 211.699C153.604 211.615 153.509 211.496 153.456 211.356C153.392 211.205 153.359 211.042 153.36 210.878C153.353 210.795 153.369 210.712 153.408 210.638C153.428 210.572 153.47 210.516 153.528 210.479L154.007 210.199C154.07 210.199 154.118 210.159 154.15 210.199L154.254 210.311C154.275 210.335 154.301 210.354 154.33 210.368C154.358 210.382 154.39 210.389 154.421 210.391C154.534 210.391 154.643 210.355 154.733 210.287C154.877 210.205 155.006 210.1 155.116 209.976C155.17 209.91 155.216 209.838 155.251 209.76C155.308 209.697 155.346 209.62 155.363 209.537V209.537Z" fill="#FAFAFA"/>
<path d="M156.992 207.375C156.99 206.96 157.025 206.547 157.095 206.138C157.162 205.754 157.266 205.377 157.407 205.013C157.524 204.687 157.685 204.378 157.885 204.095C158.053 203.852 158.27 203.648 158.524 203.497C158.709 203.373 158.934 203.324 159.154 203.361C159.349 203.406 159.52 203.523 159.633 203.688C159.783 203.905 159.889 204.149 159.944 204.407C160.02 204.742 160.058 205.084 160.056 205.428V205.923C160.058 206.006 160.039 206.088 160 206.162C159.98 206.228 159.938 206.284 159.88 206.322L157.805 207.526C157.801 207.667 157.819 207.807 157.861 207.941C157.892 208.032 157.947 208.112 158.021 208.173C158.086 208.225 158.169 208.25 158.252 208.245C158.349 208.233 158.441 208.201 158.524 208.149C158.644 208.083 158.752 207.997 158.843 207.894C158.924 207.802 158.994 207.7 159.05 207.59C159.084 207.527 159.122 207.466 159.162 207.407C159.196 207.366 159.237 207.331 159.282 207.303L159.776 207.016C159.793 207.002 159.814 206.995 159.836 206.995C159.858 206.995 159.879 207.002 159.896 207.016C159.917 207.041 159.932 207.071 159.94 207.102C159.949 207.134 159.95 207.167 159.944 207.199C159.935 207.355 159.903 207.508 159.848 207.654C159.779 207.875 159.688 208.089 159.577 208.292C159.452 208.526 159.302 208.745 159.13 208.947C158.958 209.152 158.753 209.328 158.524 209.465C158.335 209.589 158.109 209.643 157.885 209.617C157.689 209.57 157.518 209.45 157.407 209.282C157.249 209.04 157.144 208.768 157.095 208.484C157.023 208.119 156.988 207.747 156.992 207.375V207.375ZM158.524 204.83C158.401 204.896 158.295 204.988 158.212 205.101C158.124 205.213 158.051 205.336 157.997 205.468C157.941 205.6 157.896 205.736 157.861 205.875C157.833 206.001 157.815 206.129 157.805 206.258L159.21 205.46C159.202 205.35 159.186 205.24 159.162 205.133C159.15 205.036 159.111 204.945 159.05 204.869C159.026 204.835 158.996 204.806 158.96 204.784C158.924 204.762 158.884 204.748 158.843 204.742C158.729 204.732 158.616 204.763 158.524 204.83V204.83Z" fill="#FAFAFA"/>
<path d="M162.56 202.603C162.319 202.741 162.128 202.954 162.018 203.209C161.894 203.546 161.837 203.904 161.85 204.263V207.143C161.851 207.226 161.835 207.307 161.802 207.383C161.783 207.448 161.74 207.505 161.683 207.542L161.212 207.813C161.204 207.822 161.195 207.829 161.185 207.833C161.175 207.838 161.163 207.841 161.152 207.841C161.141 207.841 161.13 207.838 161.119 207.833C161.109 207.829 161.1 207.822 161.092 207.813C161.057 207.759 161.04 207.695 161.044 207.63V202.467C161.045 202.385 161.061 202.304 161.092 202.228C161.115 202.164 161.156 202.108 161.212 202.068L161.683 201.797C161.699 201.782 161.72 201.774 161.743 201.774C161.765 201.774 161.786 201.782 161.802 201.797C161.839 201.848 161.856 201.91 161.85 201.973V202.228C161.945 202.014 162.063 201.811 162.201 201.622C162.328 201.447 162.491 201.302 162.68 201.199L162.967 201.031C162.982 201.016 163.002 201.008 163.023 201.008C163.044 201.008 163.064 201.016 163.079 201.031C163.118 201.084 163.137 201.149 163.135 201.215V201.941C163.134 202.024 163.115 202.105 163.079 202.18C163.059 202.243 163.02 202.299 162.967 202.34L162.56 202.603Z" fill="#FAFAFA"/>
<path d="M168.513 202.22C168.52 202.212 168.53 202.205 168.54 202.2C168.55 202.195 168.561 202.193 168.573 202.193C168.584 202.193 168.595 202.195 168.606 202.2C168.616 202.205 168.625 202.212 168.633 202.22C168.668 202.274 168.685 202.339 168.681 202.404V203.201C168.68 203.284 168.664 203.365 168.633 203.441C168.605 203.5 168.564 203.552 168.513 203.592L165.784 205.188C165.768 205.203 165.746 205.212 165.724 205.212C165.702 205.212 165.681 205.203 165.664 205.188C165.629 205.137 165.612 205.075 165.617 205.013V197.831C165.617 197.749 165.633 197.668 165.664 197.592C165.687 197.53 165.729 197.477 165.784 197.44L166.287 197.145C166.303 197.13 166.324 197.122 166.347 197.122C166.369 197.122 166.39 197.13 166.406 197.145C166.442 197.196 166.459 197.258 166.454 197.321V203.393L168.513 202.22Z" fill="#FAFAFA"/>
<path d="M170.962 196.316C171.142 196.191 171.359 196.132 171.577 196.148C171.764 196.163 171.938 196.248 172.064 196.387C172.212 196.558 172.321 196.76 172.383 196.978C172.468 197.26 172.516 197.553 172.526 197.848C172.526 197.911 172.526 197.999 172.526 198.103V198.717C172.526 198.813 172.526 198.901 172.526 198.973C172.511 199.32 172.462 199.664 172.383 200.002C172.309 200.331 172.202 200.652 172.064 200.96C171.937 201.246 171.773 201.514 171.577 201.758C171.408 201.978 171.2 202.165 170.962 202.308C170.778 202.428 170.56 202.487 170.34 202.476C170.156 202.46 169.985 202.374 169.861 202.236C169.708 202.072 169.599 201.871 169.542 201.654C169.457 201.371 169.409 201.079 169.398 200.784C169.398 200.72 169.398 200.64 169.398 200.537V199.922C169.398 199.819 169.398 199.731 169.398 199.667C169.408 199.317 169.453 198.97 169.534 198.63C169.612 198.298 169.721 197.975 169.861 197.664C169.988 197.38 170.149 197.112 170.34 196.866C170.509 196.643 170.721 196.456 170.962 196.316V196.316ZM171.712 198.374C171.712 198.198 171.682 198.022 171.625 197.856C171.595 197.754 171.533 197.664 171.449 197.6C171.381 197.555 171.299 197.535 171.218 197.544C171.127 197.562 171.04 197.597 170.962 197.648C170.869 197.7 170.783 197.764 170.707 197.84C170.616 197.935 170.538 198.042 170.476 198.159C170.395 198.304 170.336 198.46 170.3 198.622C170.248 198.825 170.216 199.034 170.204 199.244C170.204 199.308 170.204 199.38 170.204 199.467V200.034C170.204 200.122 170.204 200.194 170.204 200.241C170.212 200.418 170.244 200.593 170.3 200.76C170.329 200.862 170.391 200.952 170.476 201.015C170.509 201.039 170.547 201.055 170.586 201.064C170.626 201.072 170.667 201.072 170.707 201.063C170.797 201.048 170.884 201.016 170.962 200.968C171.055 200.914 171.141 200.85 171.218 200.776C171.307 200.679 171.384 200.572 171.449 200.457C171.526 200.31 171.585 200.155 171.625 199.994C171.677 199.791 171.706 199.582 171.712 199.372C171.717 199.297 171.717 199.223 171.712 199.148V198.59C171.717 198.518 171.717 198.446 171.712 198.374Z" fill="#FAFAFA"/>
<path d="M174.968 200.984C175.07 200.921 175.162 200.843 175.239 200.752C175.335 200.64 175.418 200.516 175.487 200.385C175.566 200.225 175.628 200.056 175.67 199.882C175.719 199.687 175.743 199.486 175.742 199.284V198.877C175.742 198.957 175.662 199.053 175.606 199.164C175.552 199.281 175.488 199.393 175.415 199.499C175.332 199.612 175.241 199.718 175.144 199.819C175.044 199.924 174.928 200.012 174.801 200.082C174.719 200.138 174.626 200.177 174.529 200.196C174.431 200.215 174.331 200.214 174.234 200.194C174.057 200.138 173.904 200.022 173.803 199.866C173.673 199.66 173.579 199.434 173.524 199.196C173.456 198.895 173.418 198.587 173.412 198.279C173.412 198.175 173.412 198.047 173.412 197.896C173.412 197.744 173.412 197.616 173.412 197.505C173.422 197.154 173.459 196.804 173.524 196.459C173.589 196.12 173.683 195.786 173.803 195.462C173.916 195.18 174.06 194.913 174.234 194.664C174.381 194.444 174.574 194.259 174.801 194.121C174.907 194.058 175.023 194.012 175.144 193.986C175.233 193.969 175.325 193.969 175.415 193.986C175.486 194.006 175.551 194.041 175.606 194.089C175.657 194.128 175.703 194.174 175.742 194.225V193.97C175.742 193.888 175.759 193.806 175.79 193.73C175.812 193.668 175.854 193.615 175.91 193.579L176.38 193.299C176.397 193.284 176.418 193.276 176.44 193.276C176.462 193.276 176.484 193.284 176.5 193.299C176.539 193.353 176.558 193.417 176.556 193.483V198.67C176.577 199.446 176.433 200.219 176.133 200.936C175.897 201.499 175.49 201.974 174.968 202.292C174.79 202.403 174.587 202.466 174.378 202.476C174.212 202.486 174.048 202.444 173.907 202.356C173.772 202.255 173.663 202.124 173.588 201.973C173.51 201.791 173.467 201.596 173.46 201.398C173.453 201.316 173.469 201.233 173.508 201.159C173.527 201.093 173.57 201.037 173.628 201L174.05 200.76C174.06 200.75 174.072 200.741 174.085 200.736C174.098 200.73 174.112 200.727 174.126 200.727C174.14 200.727 174.155 200.73 174.168 200.736C174.181 200.741 174.192 200.75 174.202 200.76C174.241 200.801 174.276 200.847 174.306 200.896C174.354 200.981 174.435 201.044 174.529 201.071C174.625 201.143 174.769 201.063 174.968 200.984ZM174.218 197.114C174.218 197.326 174.218 197.534 174.218 197.736C174.195 198.055 174.286 198.371 174.473 198.63C174.544 198.691 174.635 198.725 174.729 198.725C174.822 198.725 174.913 198.691 174.984 198.63C175.216 198.479 175.396 198.262 175.503 198.007C175.648 197.674 175.729 197.317 175.742 196.954C175.742 196.834 175.742 196.691 175.742 196.523C175.742 196.356 175.742 196.212 175.742 196.108C175.758 195.822 175.674 195.54 175.503 195.31C175.432 195.245 175.339 195.209 175.243 195.209C175.147 195.209 175.055 195.245 174.984 195.31C174.757 195.46 174.579 195.674 174.473 195.925C174.309 196.3 174.223 196.704 174.218 197.114V197.114Z" fill="#FAFAFA"/>
<path d="M178.415 190.028C178.431 190.015 178.451 190.008 178.471 190.008C178.491 190.008 178.511 190.015 178.527 190.028C178.569 190.079 178.589 190.145 178.583 190.211V191.081C178.583 191.164 178.564 191.246 178.527 191.321C178.504 191.38 178.466 191.433 178.415 191.472L177.88 191.783C177.873 191.792 177.864 191.799 177.853 191.803C177.843 191.808 177.832 191.81 177.821 191.81C177.809 191.81 177.798 191.808 177.788 191.803C177.777 191.799 177.768 191.792 177.761 191.783C177.74 191.759 177.724 191.732 177.715 191.701C177.705 191.671 177.702 191.639 177.705 191.608V190.738C177.704 190.655 177.724 190.573 177.761 190.499C177.783 190.436 177.825 190.383 177.88 190.347L178.415 190.028ZM178.551 197.52C178.551 197.6 178.535 197.679 178.503 197.752C178.477 197.814 178.436 197.869 178.383 197.911L177.904 198.183C177.898 198.191 177.889 198.198 177.879 198.202C177.87 198.207 177.859 198.209 177.849 198.209C177.838 198.209 177.827 198.207 177.818 198.202C177.808 198.198 177.799 198.191 177.793 198.183C177.751 198.131 177.731 198.065 177.737 197.999V192.837C177.736 192.754 177.755 192.671 177.793 192.597C177.815 192.535 177.854 192.48 177.904 192.438L178.383 192.166C178.399 192.151 178.421 192.143 178.443 192.143C178.465 192.143 178.487 192.151 178.503 192.166C178.539 192.218 178.555 192.28 178.551 192.342V197.52Z" fill="#FAFAFA"/>
<path d="M182.749 195.087C182.749 195.169 182.733 195.25 182.701 195.326C182.679 195.388 182.637 195.442 182.582 195.478L182.103 195.757C182.088 195.772 182.068 195.78 182.047 195.78C182.026 195.78 182.006 195.772 181.991 195.757C181.949 195.705 181.929 195.64 181.935 195.574V192.765C181.96 192.433 181.899 192.101 181.76 191.799C181.648 191.6 181.473 191.568 181.225 191.712C180.978 191.877 180.796 192.122 180.707 192.406C180.573 192.782 180.508 193.179 180.515 193.579V196.395C180.515 196.478 180.498 196.559 180.467 196.635C180.448 196.701 180.405 196.757 180.347 196.794L179.877 197.066C179.869 197.074 179.86 197.081 179.85 197.086C179.839 197.09 179.828 197.093 179.817 197.093C179.806 197.093 179.794 197.09 179.784 197.086C179.774 197.081 179.764 197.074 179.757 197.066C179.72 197.015 179.703 196.953 179.709 196.89V191.727C179.708 191.645 179.724 191.564 179.757 191.488C179.777 191.422 179.819 191.366 179.877 191.329L180.347 191.057C180.355 191.049 180.364 191.042 180.374 191.037C180.385 191.033 180.396 191.03 180.407 191.03C180.419 191.03 180.43 191.033 180.44 191.037C180.45 191.042 180.46 191.049 180.467 191.057C180.503 191.111 180.52 191.176 180.515 191.241V191.488C180.62 191.245 180.748 191.012 180.898 190.794C181.029 190.592 181.207 190.425 181.417 190.307C181.598 190.174 181.824 190.117 182.047 190.148C182.135 190.17 182.218 190.21 182.289 190.267C182.361 190.323 182.42 190.394 182.462 190.475C182.578 190.691 182.654 190.926 182.685 191.169C182.728 191.486 182.749 191.806 182.749 192.126V195.087Z" fill="#FAFAFA"/>
<path d="M222.995 171.859L215.247 176.327L216.452 165.46C215.518 164.965 214.928 163.76 214.928 162.029C214.928 158.941 216.811 155.358 219.125 154.049C221.439 152.741 223.314 154.129 223.314 157.241C223.266 159.072 222.744 160.859 221.798 162.427L222.995 171.859Z" fill="#455A64"/>
<path d="M223.004 171.859L216.182 167.925L215.248 176.335L223.004 171.859Z" fill="#37474F"/>
<path d="M219.109 154.025C217.422 155.165 216.164 156.836 215.534 158.773L221.782 162.379C222.728 160.811 223.25 159.024 223.298 157.193C223.314 154.105 221.439 152.693 219.109 154.025Z" fill="#37474F"/>
<path d="M181.448 117.839C178.79 116.307 175.128 116.523 171.075 118.86C162.984 123.536 156.425 134.891 156.425 144.235C156.425 148.926 158.084 152.214 160.749 153.73L165.912 156.73C168.561 158.262 172.224 158.039 176.285 155.701C184.376 151.033 190.935 139.67 190.935 130.327C190.935 125.659 189.291 122.347 186.642 120.855" fill="#407BFF"/>
<path d="M176.277 121.869C168.186 126.545 161.627 137.907 161.627 147.243C161.627 156.579 168.186 160.377 176.277 155.701C184.368 151.025 190.935 139.671 190.927 130.327C190.919 120.983 184.36 117.201 176.277 121.869Z" fill="#407BFF"/>
<path d="M184.359 142.599V143.668C182.421 147.128 179.641 150.043 176.276 152.142C173.124 153.953 170.276 154.153 168.185 152.996V150.794C168.292 148.502 168.946 146.27 170.093 144.283C171.24 142.297 172.846 140.614 174.776 139.375L176.907 138.146C178.79 137.061 180.625 136.918 182.061 137.755C183.497 138.593 184.359 140.357 184.359 142.599Z" fill="#407BFF"/>
<path opacity="0.4" d="M181.448 117.839L186.634 120.855C183.985 119.315 180.323 119.531 176.261 121.869C170.963 124.933 166.319 130.861 163.75 137.213L158.555 134.205C161.133 127.821 165.737 121.925 171.067 118.86C175.136 116.531 178.799 116.307 181.448 117.839Z" fill="white"/>
<path opacity="0.2" d="M165.729 156.611L160.758 153.73C158.093 152.214 156.433 148.943 156.433 144.235L161.627 147.251C161.659 151.799 163.191 155.039 165.729 156.611Z" fill="black"/>
<path opacity="0.1" d="M158.571 134.205L163.766 137.213C162.435 140.393 161.72 143.796 161.659 147.243V147.243L156.464 144.227C156.528 140.783 157.243 137.383 158.571 134.205Z" fill="black"/>
<path d="M174.425 137.644C173.93 137.649 173.442 137.522 173.013 137.277C172.495 136.931 172.08 136.452 171.811 135.891C171.543 135.329 171.432 134.705 171.489 134.085C171.556 132.631 171.971 131.215 172.699 129.954C173.426 128.694 174.445 127.626 175.67 126.84V126.84C176.162 126.447 176.761 126.212 177.389 126.165C178.017 126.118 178.644 126.262 179.189 126.577C179.734 126.893 180.171 127.365 180.442 127.933C180.714 128.501 180.809 129.138 180.713 129.76C180.644 131.214 180.228 132.629 179.501 133.89C178.774 135.15 177.756 136.218 176.532 137.005C175.898 137.401 175.171 137.621 174.425 137.644V137.644Z" fill="white"/>
<path d="M182.061 137.748C180.625 136.91 178.79 137.053 176.907 138.139L174.776 139.367C172.844 140.607 171.238 142.291 170.091 144.279C168.945 146.267 168.291 148.501 168.185 150.794V153.004C170.276 154.161 173.124 153.961 176.276 152.15C179.641 150.051 182.421 147.136 184.359 143.676V142.607C184.359 140.357 183.529 138.593 182.061 137.748Z" fill="white"/>
<path d="M349.341 306.508H343.355V319.537H349.341V306.508Z" fill="#FFA8A7"/>
<path d="M329.27 305.894L323.239 306.156L322.932 292.333L329.27 292.071V305.894Z" fill="#FFA8A7"/>
<path d="M343.339 315.755V314.665C342.783 314.978 341.503 321.457 339.204 324.221C337.383 326.421 334.902 328.954 334.266 331.406C333.63 333.858 337.725 335.362 339.435 334.968C341.407 334.504 344.842 332.657 345.701 330.932C346.56 329.206 346.965 326.704 347.665 325.453C348.365 324.201 349.979 322.809 350.353 321.356C350.47 319.996 350.358 318.621 350.027 317.319C349.757 315.967 349.47 314.484 349.12 314.615V315.443C348.305 316.291 347.28 316.749 346.226 316.734C345.383 316.825 343.331 316.603 343.339 315.755Z" fill="#263238"/>
<path d="M323.169 303.86C322.869 303.86 322.625 304.425 321.971 305.358C320.999 306.646 319.862 307.719 318.607 308.532C316.464 309.941 312.304 312.104 310.405 313.225C309.224 313.919 309.279 315.784 310.5 316.846C311.721 317.908 314.66 318.671 318.189 317.64C320.112 317.074 322.617 314.743 324.209 314.872C325.8 315.001 328.755 314.961 329.928 313.88C331.102 312.798 330.63 310.556 330.299 308.622C329.936 306.499 329.511 303.195 328.951 303.344V304.088C328.266 305.457 324.713 306.012 323.2 305.01L323.169 303.86Z" fill="#263238"/>
<path d="M350.223 208.44L321.759 206.855C316.395 242.238 316.1 262.942 320.344 300.058C324.141 302.256 326.27 301.779 330.067 300.058L330.062 299.949C328.744 272.626 327.818 253.413 333.32 220.236C331.849 254.848 334.218 276.144 339.966 311.127C343.767 314.136 346.126 314.573 351.103 311.127C346.541 277.294 344.588 246.998 348.638 227.455C350.973 216.186 349.601 215.685 350.223 208.44Z" fill="#263238"/>
<path opacity="0.4" d="M322.649 219.735C322.649 227.61 320.192 233.18 316.394 235.382C315.596 235.813 312.819 237.441 311.678 238.095C315.316 235.797 317.654 230.307 317.654 222.623C317.646 220.591 317.491 218.561 317.192 216.551C315.516 205.109 309.364 193.778 302.031 189.549C298.632 187.586 295.488 187.442 292.934 188.791L297.642 186.078C300.251 184.554 303.507 184.626 307.026 186.661C314.359 190.898 320.511 202.22 322.187 213.67C322.49 215.678 322.645 217.705 322.649 219.735Z" fill="white"/>
<path d="M318.349 173.319C314.998 178.984 314.355 184.394 309.551 188.192C303.674 192.838 295.105 191.344 291.156 191.855C290.462 191.943 289.759 191.779 289.177 191.392C287.621 190.371 286.416 190.203 284.78 189.637C283.496 189.198 282.953 188.583 282.714 188.839C282.466 189.129 282.342 189.504 282.367 189.884C282.393 190.264 282.566 190.619 282.849 190.873C283.463 191.457 284.143 191.965 284.876 192.39C283.124 192.824 281.296 192.857 279.53 192.485C276.107 191.584 274.495 193.227 276.809 196.946C277.607 198.27 280.894 200.401 287.501 199.826C289.858 199.699 292.205 199.433 294.531 199.028C300.866 197.672 307.912 196.363 312.245 195.039C313.857 194.405 314.202 194.585 315.361 193.298C322.647 184.991 326.161 177.891 329.353 172.513L329.081 163.736C323.911 163.56 321.15 168.579 318.349 173.319Z" fill="#FFA8A7"/>
<path d="M327.733 161.654C326.219 161.646 324.732 162.053 323.432 162.829C322.133 163.606 321.07 164.723 320.359 166.059C317.458 171.034 315.301 177.358 315.301 177.358C315.301 177.358 318.153 184.573 323.764 184.739L328.286 174.881C328.286 174.881 331.34 166.045 327.733 161.654Z" fill="#9FBDFF"/>
<path d="M254.467 195.701L259.47 192.812L261.449 190.411L256.454 193.299L254.467 195.701Z" fill="#407BFF"/>
<path opacity="0.4" d="M254.467 195.701L259.47 192.812L261.449 190.411L256.454 193.299L254.467 195.701Z" fill="black"/>
<path d="M268.071 203.553L273.074 200.664L277.247 196.97L272.252 199.85L268.071 203.553Z" fill="#407BFF"/>
<path opacity="0.4" d="M268.071 203.553L273.074 200.664L277.247 196.97L272.252 199.85L268.071 203.553Z" fill="black"/>
<path d="M310.568 213.519C311.751 215.104 312.467 216.989 312.635 218.961C311.457 217.372 310.742 215.489 310.568 213.519ZM322.194 213.67C320.511 202.22 314.359 190.897 307.034 186.66C303.515 184.626 300.259 184.554 297.65 186.078L292.942 188.791L292.679 188.951C292.469 189.066 292.267 189.194 292.072 189.334C291.686 189.6 291.323 189.899 290.987 190.227L290.828 190.379C290.684 190.522 290.532 190.69 290.397 190.85C290.261 191.009 290.054 191.257 289.894 191.472C289.555 191.918 289.249 192.387 288.977 192.876C288.833 193.124 288.697 193.387 288.57 193.674L247.452 169.944L242.457 172.824V176.016L242.88 176.255L243.279 176.487V177.125L242.481 177.596V179.447L248.522 192.214L254.49 195.669L256.477 193.275L261.743 196.427L264.767 201.606L268.103 203.529L272.276 199.826L277.399 202.787L279.122 209.896L287.732 214.875C288.157 216.685 288.69 218.467 289.328 220.213C289.383 220.389 289.455 220.572 289.527 220.772C292.384 228.272 296.924 234.696 302.047 237.656C302.661 238.02 303.304 238.333 303.97 238.59C304.322 238.73 304.681 238.85 305.047 238.949C305.366 239.034 305.685 239.106 306.004 239.164C307.012 239.348 308.045 239.348 309.052 239.164L309.467 239.06C309.666 239.021 309.861 238.964 310.05 238.893L310.497 238.717C310.655 238.66 310.807 238.588 310.951 238.502C311.099 238.438 311.243 238.366 311.382 238.286L311.59 238.159C311.627 238.146 311.663 238.128 311.694 238.103C312.835 237.449 315.643 235.821 316.409 235.39C320.207 233.188 322.665 227.618 322.665 219.743C322.659 217.71 322.501 215.68 322.194 213.67Z" fill="#407BFF"/>
<path d="M309.108 223.182C307.129 222.04 305.533 218.657 305.533 215.625C305.533 212.593 307.129 211.053 309.108 212.186C311.087 213.319 312.675 216.71 312.675 219.75C312.675 222.791 311.079 224.323 309.108 223.182ZM317.191 216.551C315.515 205.108 309.363 193.778 302.03 189.549C298.631 187.586 295.487 187.442 292.934 188.791L292.671 188.95C292.461 189.066 292.259 189.194 292.064 189.333C291.678 189.6 291.315 189.899 290.979 190.227L290.82 190.379C290.676 190.522 290.524 190.69 290.389 190.849C290.253 191.009 290.046 191.256 289.886 191.472C289.547 191.918 289.241 192.387 288.968 192.876C288.825 193.124 288.689 193.387 288.561 193.674C287.817 195.216 287.281 196.85 286.966 198.533L242.449 172.824V176.016L242.872 176.255L243.271 176.487V177.125L242.473 177.596V179.447L248.513 192.214L254.482 195.669L256.469 193.275L261.735 196.427L264.759 201.606L268.095 203.529L272.268 199.826L277.39 202.786L279.114 209.896L287.732 214.875C288.157 216.685 288.69 218.467 289.327 220.213C289.383 220.389 289.455 220.572 289.527 220.772C292.383 228.272 296.924 234.696 302.046 237.656C302.66 238.02 303.304 238.332 303.969 238.59C304.321 238.729 304.681 238.849 305.047 238.949C305.366 239.034 305.685 239.106 306.004 239.164C307.012 239.348 308.044 239.348 309.052 239.164L309.467 239.06C309.665 239.02 309.86 238.964 310.05 238.893L310.496 238.717C310.655 238.66 310.807 238.588 310.951 238.502C311.099 238.438 311.243 238.366 311.382 238.286L311.59 238.159C311.627 238.146 311.662 238.127 311.693 238.103C315.332 235.805 317.67 230.315 317.67 222.631C317.656 220.595 317.496 218.563 317.191 216.551Z" fill="#407BFF"/>
<path opacity="0.4" d="M312.676 219.742C312.676 222.783 311.08 224.323 309.109 223.182C307.138 222.04 305.534 218.665 305.534 215.625C305.534 212.585 307.13 211.045 309.109 212.186C309.679 212.533 310.175 212.988 310.569 213.527C310.741 215.497 311.456 217.381 312.636 218.968C312.665 219.225 312.678 219.484 312.676 219.742Z" fill="black"/>
<path d="M317.654 222.607C317.654 230.291 315.316 235.781 311.677 238.079C312.818 237.425 315.627 235.797 316.393 235.366C320.191 233.164 322.649 227.594 322.649 219.719C322.649 219.431 322.649 219.136 322.649 218.841L317.654 221.729C317.646 222.041 317.654 222.328 317.654 222.607Z" fill="#407BFF"/>
<path opacity="0.4" d="M322.715 219.734C322.715 227.61 320.258 233.179 316.46 235.382C315.662 235.812 312.885 237.44 311.744 238.095C315.382 235.796 317.72 230.307 317.72 222.623C317.712 220.59 317.557 218.561 317.258 216.55C315.582 205.108 309.43 193.778 302.097 189.549C298.698 187.586 295.554 187.442 293 188.791L297.708 186.078C300.318 184.554 303.573 184.625 307.092 186.66C314.425 190.897 320.577 202.22 322.253 213.67C322.557 215.677 322.711 217.704 322.715 219.734Z" fill="white"/>
<path opacity="0.9" d="M317.634 222.525C317.634 230.209 315.297 235.699 311.658 237.997C312.799 237.343 315.608 235.715 316.374 235.284C320.172 233.082 322.629 227.512 322.629 219.637C322.629 219.349 322.629 219.054 322.629 218.759L317.634 221.647C317.626 221.958 317.634 222.246 317.634 222.525Z" fill="#264A99"/>
<path opacity="0.15" d="M287.157 201.797V203.417L242.457 177.612L243.279 177.133V176.463L287.157 201.797Z" fill="black"/>
<path opacity="0.15" d="M287.157 202.468V203.417L242.457 177.612L243.279 177.133V177.125L287.157 202.468Z" fill="black"/>
<path opacity="0.1" d="M319.804 187.84C319.664 187.699 319.804 182.91 321.389 176.572L320.509 186.96C320.509 186.96 319.945 187.981 319.804 187.84Z" fill="black"/>
<path d="M347.581 164.599C347.581 164.599 351.566 165.507 351.222 174.157L350.225 187.921L351.222 211.609C346.962 216.444 322.756 219.708 320.582 208.204C320.582 208.204 320.143 188.452 320.582 179.036C320.893 172.35 321.815 162.34 328.39 161.606L338.264 163.895L347.581 164.599Z" fill="#9FBDFF"/>
<path opacity="0.15" d="M306.596 235.374C304.902 235.33 303.25 234.837 301.808 233.946C294.523 229.741 288.595 217.229 288.595 206.058C288.595 199.539 290.566 194.672 294.005 192.685C296.398 191.296 299.231 191.472 302.207 193.188C309.485 197.393 315.413 209.944 315.413 221.115C315.413 227.626 313.442 232.501 310.003 234.48C308.966 235.073 307.791 235.381 306.596 235.374ZM297.46 192.565C296.396 192.559 295.35 192.834 294.428 193.363C291.292 195.174 289.417 199.922 289.417 206.05C289.417 216.966 295.162 229.19 302.231 233.243C304.936 234.839 307.498 234.983 309.628 233.754C312.764 231.943 314.639 227.203 314.639 221.075C314.639 210.151 308.894 197.935 301.832 193.874C300.513 193.071 299.004 192.63 297.46 192.597V192.565Z" fill="black"/>
<path opacity="0.4" d="M288.53 193.658C287.786 195.2 287.249 196.834 286.934 198.518L242.417 172.808L247.413 169.928L288.53 193.658Z" fill="white"/>
<path opacity="0.1" d="M333.444 218.64C330.492 217.47 327.839 215.655 325.678 213.329C325.678 213.329 327.086 216.461 331.5 219.569L329.974 245.061L333.444 218.64Z" fill="black"/>
<path d="M316.444 204.42C339.13 204.42 340.363 201.749 345.116 182.03C345.116 182.03 356.913 161.078 351.983 183.966C347.053 206.855 345.476 210.296 315.908 208.134C315.908 208.134 307.147 209.475 305.678 205.622C304.667 203.075 306.734 197.699 308.319 198.58C311.312 204.42 314.305 198.58 316.444 204.42Z" fill="#FFA8A7"/>
<path opacity="0.1" d="M341.753 187.226L344.106 179.925L343.161 188.508L341.753 187.226Z" fill="black"/>
<path d="M346.7 164.599C348.754 164.588 350.676 165.008 352.104 166.481C353.531 167.953 354.817 170.123 354.546 176.57C354.282 181.114 354.628 185.135 353.743 189.601C353.743 189.601 348.416 192.777 342.704 188.403L344.237 174.658C344.237 174.658 343.636 165.715 346.7 164.599Z" fill="#9FBDFF"/>
<path d="M341.378 164.226C339.85 161.323 342.124 152.711 343.452 148.768C340.92 149.767 335.337 152.272 333.253 154.305C331.169 156.337 331.426 162.302 331.814 165.031C332.415 169.245 338.746 168.851 341.378 164.226Z" fill="#FFA8A7"/>
<path d="M340.985 159.662C340.99 158.413 341.278 156.264 341.762 155.079C340.815 157.295 332.214 155.985 332.153 156.446C332.091 156.906 331.472 158.387 331.72 159.669C331.998 161.11 340.98 160.986 340.985 159.662Z" fill="black" fill-opacity="0.1"/>
<path d="M327.262 144.03C324.392 151.26 326.61 157.594 333.985 158.33C339.786 159.531 345.631 154.995 347.038 148.198C348.446 141.401 346.116 135.1 340.315 133.898C334.513 132.697 328.669 137.233 327.262 144.03Z" fill="#FFA8A7"/>
<path d="M326.542 131.796C327.065 131.205 327.751 130.732 328.548 130.412C329.344 130.092 330.23 129.934 331.138 129.949C332.045 129.965 332.95 130.154 333.784 130.502C334.617 130.85 335.356 131.347 335.944 131.957C336.49 131.336 337.219 130.846 338.068 130.531C338.916 130.217 339.858 130.086 340.811 130.151C341.765 130.216 342.7 130.474 343.534 130.904C344.369 131.333 345.078 131.921 345.6 132.614C348.163 133.066 347.651 134.883 347.91 136.297C348.866 137.219 351.136 137.125 351.253 138.629C351.369 140.133 352.15 139.744 352.307 140.391C352.464 141.037 352.406 141.696 352.141 142.293C351.875 142.891 351.412 143.405 350.802 143.778C350.192 144.151 349.459 144.37 348.684 144.41C348.878 144.91 348.95 145.431 348.897 145.942C348.844 146.452 348.666 146.942 348.374 147.38C348.082 147.819 347.682 148.197 347.199 148.492C346.715 148.787 346.158 148.993 345.562 149.097L345.041 148.809C344.176 147.653 343.726 146.33 343.747 145.01C343.768 143.689 344.26 142.429 345.161 141.391C345.093 141.382 345.027 141.37 344.961 141.355C343.925 141.627 342.78 141.561 341.746 141.17C340.713 140.78 339.864 140.092 339.365 139.24C338.514 139.55 337.559 139.643 336.612 139.51C335.665 139.376 334.766 139.021 334.021 138.486C333.818 138.303 333.574 138.155 333.304 138.052C332.95 137.994 332.591 138.019 332.267 138.124C331.376 138.347 330.407 138.335 329.487 138.092C329.064 137.972 328.677 137.767 328.361 137.496C328.046 137.226 327.812 136.897 327.681 136.541L327.611 136.529C327.097 136.335 326.646 136.03 326.31 135.647C325.973 135.264 325.762 134.818 325.701 134.358C325.58 133.425 325.88 132.51 326.542 131.796Z" fill="#263238"/>
<path d="M331.322 147.644C332.509 147.18 333.146 146.819 333.808 145.887L332.678 149.193C331.633 148.908 330.391 148.007 331.322 147.644Z" fill="#E4897B"/>
<path d="M335.912 152.67C335.707 152.676 335.502 152.666 335.299 152.639C335.28 152.641 335.262 152.638 335.245 152.63C335.228 152.623 335.213 152.611 335.2 152.595C335.188 152.58 335.179 152.561 335.174 152.541C335.169 152.521 335.168 152.5 335.172 152.479C335.175 152.457 335.182 152.437 335.193 152.419C335.204 152.402 335.218 152.387 335.234 152.376C335.25 152.364 335.268 152.358 335.287 152.355C335.305 152.353 335.324 152.356 335.341 152.363C335.85 152.447 336.375 152.389 336.871 152.195C337.367 152.001 337.82 151.676 338.193 151.248C338.215 151.22 338.246 151.203 338.278 151.199C338.31 151.196 338.341 151.207 338.365 151.23C338.378 151.241 338.387 151.256 338.395 151.272C338.402 151.288 338.406 151.306 338.406 151.324C338.407 151.342 338.405 151.361 338.399 151.379C338.394 151.396 338.385 151.412 338.374 151.426C338.049 151.807 337.665 152.113 337.242 152.326C336.819 152.54 336.367 152.656 335.912 152.67Z" fill="#263238"/>
<path d="M339.634 145.352C339.758 145.987 339.488 146.639 338.967 146.797C338.447 146.955 338.013 146.547 337.889 145.913C337.765 145.278 338.035 144.626 338.56 144.478C339.085 144.329 339.51 144.718 339.634 145.352Z" fill="#263238"/>
<path d="M330.731 142.215C331.032 142.679 330.993 143.389 330.584 143.827C330.175 144.264 329.677 144.178 329.376 143.714C329.075 143.249 329.106 142.551 329.523 142.101C329.94 141.652 330.406 141.785 330.731 142.215Z" fill="#263238"/>
<path d="M341.929 143.86C341.867 143.886 341.795 143.887 341.725 143.861C341.655 143.836 341.589 143.787 341.536 143.719C341.199 143.29 340.795 142.949 340.359 142.727C339.923 142.505 339.468 142.408 339.031 142.443C338.986 142.453 338.937 142.45 338.889 142.436C338.841 142.422 338.794 142.396 338.751 142.361C338.708 142.326 338.67 142.281 338.638 142.23C338.607 142.179 338.583 142.123 338.569 142.064C338.54 141.946 338.548 141.827 338.592 141.732C338.635 141.637 338.71 141.573 338.802 141.553C339.352 141.492 339.93 141.602 340.485 141.873C341.04 142.144 341.556 142.569 341.987 143.11C342.024 143.153 342.055 143.205 342.078 143.261C342.101 143.316 342.115 143.376 342.119 143.434C342.123 143.493 342.118 143.55 342.103 143.602C342.088 143.654 342.063 143.699 342.032 143.736C342.007 143.788 341.972 143.83 341.929 143.86Z" fill="#263238"/>
<path d="M329.14 140.786C329.064 140.778 328.994 140.741 328.941 140.681C328.879 140.609 328.845 140.512 328.846 140.41C328.848 140.307 328.884 140.208 328.947 140.134C329.327 139.687 329.789 139.342 330.297 139.127C330.805 138.911 331.346 138.83 331.877 138.89C331.92 138.898 331.961 138.915 331.997 138.942C332.034 138.968 332.065 139.003 332.09 139.044C332.114 139.084 332.131 139.131 332.139 139.18C332.148 139.229 332.148 139.279 332.139 139.329C332.131 139.379 332.115 139.428 332.091 139.471C332.067 139.515 332.036 139.553 331.999 139.582C331.962 139.612 331.92 139.633 331.876 139.643C331.833 139.654 331.788 139.655 331.745 139.645C331.32 139.602 330.888 139.672 330.483 139.85C330.078 140.027 329.711 140.306 329.41 140.667C329.375 140.709 329.333 140.741 329.286 140.762C329.239 140.782 329.189 140.79 329.14 140.786Z" fill="#263238"/>
<path d="M345.348 147.361C344.247 148.732 344.227 150.542 345.302 151.406C346.377 152.269 348.14 151.857 349.241 150.487C350.513 149.127 350.565 147.318 349.286 146.443C348.211 145.58 346.448 145.991 345.348 147.361Z" fill="#FFA8A7"/>
</g>
<defs>
<clipPath id="clip0">
<rect width="400" height="400" fill="white"/>
</clipPath>
</defs>
</svg>
