<svg width="400" height="400" viewBox="0 0 400 400" fill="none" xmlns="http://www.w3.org/2000/svg">
<g clip-path="url(#clip0)">
<path fill-rule="evenodd" clip-rule="evenodd" d="M337.261 61.0732C351.734 92.7246 299.119 127.026 292.151 163.957C285.016 201.769 331.649 247.112 297.677 270.866C262.807 295.248 237.037 228.692 196.994 230.494C147.837 232.706 99.9384 300.276 57.9431 281.653C15.7481 262.941 -3.52925 197.244 24.2963 153.911C52.8597 109.429 122.186 133.914 169.276 108.272C198.275 92.4812 203.969 47.8761 235.075 39.1359C272.611 28.5895 322.95 29.7765 337.261 61.0732Z" fill="#E2EBFF"/>
<path d="M178.971 341.661C256.605 341.661 319.54 337.987 319.54 333.454C319.54 328.921 256.605 325.247 178.971 325.247C101.337 325.247 38.4023 328.921 38.4023 333.454C38.4023 337.987 101.337 341.661 178.971 341.661Z" fill="#F5F5F5"/>
<path d="M278.89 223.241H77.8644C77.2247 223.239 76.6118 222.984 76.1594 222.531C75.7071 222.079 75.4521 221.466 75.4502 220.826C75.4521 220.187 75.7071 219.574 76.1594 219.121C76.6118 218.669 77.2247 218.414 77.8644 218.412H278.89C279.53 218.414 280.143 218.669 280.595 219.121C281.048 219.574 281.303 220.187 281.305 220.826C281.303 221.466 281.048 222.079 280.595 222.531C280.143 222.984 279.53 223.239 278.89 223.241Z" fill="#407BFF"/>
<path opacity="0.3" d="M278.888 223.241H231.828C231.189 223.239 230.576 222.984 230.123 222.531C229.671 222.079 229.416 221.466 229.414 220.826C229.416 220.187 229.671 219.574 230.123 219.121C230.576 218.669 231.189 218.414 231.828 218.412H278.888C279.527 218.414 280.14 218.669 280.593 219.121C281.045 219.574 281.3 220.187 281.302 220.826C281.3 221.466 281.045 222.079 280.593 222.531C280.14 222.984 279.527 223.239 278.888 223.241Z" fill="#263238"/>
<path d="M273.787 229.295H119.183V246.122H273.787V229.295Z" fill="#263238"/>
<path opacity="0.1" d="M273.787 229.295H119.183V246.122H273.787V229.295Z" fill="white"/>
<path d="M271.543 330.105H276.169L275.98 223.241H269.571L271.543 330.105Z" fill="#263238"/>
<path opacity="0.1" d="M271.543 330.105H276.169L275.98 223.241H269.571L271.543 330.105Z" fill="white"/>
<path d="M228.911 330.105H224.278L234.747 223.241H241.156L228.911 330.105Z" fill="#263238"/>
<path opacity="0.2" d="M228.911 330.105H224.278L234.747 223.241H241.156L228.911 330.105Z" fill="white"/>
<path d="M117.575 330.105H122.201L122.012 223.241H115.604L117.575 330.105Z" fill="#263238"/>
<path opacity="0.1" d="M117.575 330.105H122.201L122.012 223.241H115.604L117.575 330.105Z" fill="white"/>
<path d="M74.9393 330.105H70.3066L80.7755 223.241H87.1845L74.9393 330.105Z" fill="#263238"/>
<path opacity="0.2" d="M74.9393 330.105H70.3066L80.7755 223.241H87.1845L74.9393 330.105Z" fill="white"/>
<path d="M205.152 218.411H194.48L190.21 197.546H200.882L205.152 218.411Z" fill="#263238"/>
<path d="M219.318 214.114H173.02C172.66 214.118 172.303 214.047 171.972 213.906C171.64 213.765 171.342 213.556 171.095 213.294C170.849 213.032 170.659 212.721 170.539 212.382C170.418 212.042 170.369 211.682 170.396 211.322L172.165 182.011C172.219 181.26 172.553 180.557 173.1 180.04C173.648 179.523 174.37 179.231 175.122 179.22H221.428C221.788 179.217 222.144 179.288 222.475 179.43C222.806 179.571 223.104 179.78 223.35 180.042C223.596 180.304 223.786 180.614 223.907 180.953C224.028 181.292 224.077 181.652 224.052 182.011L222.283 211.322C222.227 212.074 221.892 212.777 221.343 213.294C220.794 213.811 220.072 214.103 219.318 214.114Z" fill="#263238"/>
<path d="M218.582 214.114H172.284C171.924 214.118 171.567 214.047 171.235 213.906C170.904 213.765 170.606 213.556 170.359 213.294C170.112 213.032 169.923 212.721 169.802 212.382C169.682 212.042 169.633 211.682 169.659 211.322L171.428 182.011C171.483 181.26 171.816 180.557 172.364 180.04C172.912 179.523 173.633 179.231 174.386 179.22H220.691C221.051 179.217 221.408 179.288 221.738 179.43C222.069 179.571 222.367 179.78 222.614 180.042C222.86 180.304 223.05 180.614 223.171 180.953C223.291 181.292 223.341 181.652 223.316 182.011L221.547 211.322C221.491 212.074 221.155 212.777 220.607 213.294C220.058 213.811 219.335 214.103 218.582 214.114Z" fill="#407BFF"/>
<path d="M172.282 212.663C172.121 212.664 171.961 212.633 171.813 212.57C171.665 212.508 171.531 212.416 171.419 212.301C171.31 212.181 171.226 212.04 171.172 211.887C171.119 211.733 171.097 211.571 171.107 211.409L172.876 182.098C172.903 181.711 173.073 181.348 173.353 181.08C173.633 180.812 174.004 180.657 174.391 180.648H220.696C220.858 180.645 221.019 180.676 221.168 180.74C221.317 180.803 221.451 180.896 221.562 181.015C221.672 181.133 221.757 181.273 221.81 181.425C221.863 181.578 221.884 181.741 221.871 181.902L220.102 211.213C220.077 211.601 219.907 211.965 219.626 212.233C219.346 212.502 218.975 212.655 218.587 212.663H172.282Z" fill="white"/>
<path d="M121.506 152.41C121.605 152.959 121.996 153.361 122.395 153.317C122.793 153.273 123.026 152.791 122.927 152.242C122.828 151.693 122.437 151.291 122.046 151.335C121.656 151.378 121.416 151.875 121.506 152.41Z" fill="#263238"/>
<path d="M122.065 154.602C122.832 156.127 124.538 157.446 124.153 158.947C123.91 159.893 122.521 159.419 122.521 159.419L122.065 154.602Z" fill="#A02724"/>
<path d="M119.427 150.152C119.371 150.165 119.313 150.167 119.256 150.158C119.172 150.124 119.104 150.058 119.067 149.973C119.029 149.889 119.024 149.792 119.053 149.705C119.227 149.186 119.521 148.719 119.909 148.344C120.298 147.969 120.769 147.698 121.282 147.553C121.325 147.543 121.369 147.543 121.413 147.551C121.456 147.56 121.497 147.577 121.534 147.602C121.571 147.627 121.603 147.66 121.628 147.697C121.653 147.735 121.67 147.778 121.679 147.822C121.698 147.913 121.681 148.008 121.632 148.086C121.583 148.164 121.507 148.219 121.419 148.24C121.017 148.356 120.65 148.573 120.349 148.871C120.048 149.17 119.824 149.54 119.695 149.95C119.67 150.003 119.632 150.05 119.586 150.085C119.539 150.12 119.485 150.143 119.427 150.152Z" fill="#263238"/>
<path d="M104.215 162.958L108.565 166.293L114.62 168.55C114.295 169.233 113.98 172.259 113.923 173.014C113.712 174.681 113.502 175.914 117.207 176.936C117.6 177.03 117.958 177.235 118.239 177.527C118.519 177.818 118.709 178.185 118.787 178.582C118.932 179.568 118.33 180.757 114.909 181.344C111.594 181.839 108.208 181.262 105.244 179.698C103.794 178.973 103.794 178.103 104.403 176.631C106.23 172.448 105.346 167.112 104.215 162.958Z" fill="#B55B52"/>
<path d="M97.7469 233.534C161.072 233.688 165.273 248.147 157.739 310.953H146.757C149.48 251.686 144.306 250.131 97.7469 254.5C90.5769 251.505 87.0372 237.528 97.7469 233.534Z" fill="#263238"/>
<path d="M101.098 229.541C167.481 232.718 171.891 250.325 185.596 304.418L175.793 307.413C161.363 257.495 145.623 245.957 99.0634 250.325C89.3897 254.409 85.85 231.084 101.098 229.541Z" fill="#263238"/>
<path d="M99.2227 177.95C100.058 176.342 100.747 174.663 101.282 172.933C101.282 172.933 112.302 172.331 115.941 173.418C119.58 174.506 121.842 179.218 121.842 179.218L99.2227 177.95Z" fill="#407BFF"/>
<path d="M103.836 186.15C103.567 186.962 103.27 187.956 102.987 188.869L102.168 191.697C101.661 193.582 101.168 195.474 100.783 197.359C100.374 199.202 100.062 201.065 99.8482 202.941C99.6247 204.664 99.5712 206.406 99.6887 208.139C99.7314 208.873 99.8431 209.601 100.022 210.314C100.066 210.459 100.102 210.619 100.153 210.757L100.298 211.148C100.263 211.078 100.225 211.01 100.182 210.945C100.108 210.839 100.028 210.738 99.9424 210.641C99.849 210.528 99.7419 210.429 99.6234 210.343C99.4784 210.242 99.4567 210.256 99.4857 210.293C99.698 210.445 99.9266 210.574 100.167 210.677C100.493 210.822 100.892 210.967 101.291 211.105C102.11 211.38 103.016 211.634 103.952 211.88C107.693 212.823 111.774 213.555 115.755 214.403L115.624 219.427C113.498 219.711 111.359 219.888 109.215 219.957C107.04 220.036 104.862 219.999 102.69 219.848C101.54 219.771 100.395 219.631 99.2609 219.427C98.6665 219.319 98.0502 219.195 97.3977 219.014C96.6473 218.821 95.9185 218.551 95.2227 218.209C94.7077 217.961 94.2214 217.658 93.7727 217.303C93.4551 217.05 93.1614 216.769 92.8955 216.462C92.7293 216.266 92.5744 216.06 92.4315 215.846C92.359 215.723 92.2793 215.6 92.214 215.476L92.1198 215.302L91.6195 214.28C91.4673 213.939 91.344 213.606 91.2135 213.265C90.7561 211.996 90.4258 210.684 90.2275 209.35C89.5025 204.311 90.0753 199.816 90.8293 195.445C91.2353 193.27 91.7138 191.095 92.2793 189.029C92.5693 187.977 92.8738 186.926 93.2 185.889C93.5263 184.853 93.8742 183.852 94.2947 182.714L103.836 186.15Z" fill="#B55B52"/>
<path d="M97.1274 177.052C103.979 175.24 108.046 180.851 105.726 190.102C103.406 199.353 102.63 199.701 102.63 199.701L88.5 197.345C90.24 188.282 90.1022 178.901 97.1274 177.052Z" fill="#407BFF"/>
<path d="M119.261 212.395L118.195 212.301C115.165 212.301 114.643 213.127 112.78 214.86L112.055 218.673C116.948 221.175 119.573 218.427 119.58 218.427H124.111L122.516 214.802C122.238 214.147 121.789 213.578 121.217 213.155C120.644 212.731 119.969 212.469 119.261 212.395Z" fill="#B55B52"/>
<path opacity="0.1" d="M114.083 171.545L110.271 169.548H114.356L114.083 171.545Z" fill="black"/>
<path d="M101.962 154.749C103.547 161.771 104.116 165.963 108.289 168.97C120.246 172.362 123.914 167.843 123.324 161.273C122.152 148.22 121.132 144.254 113.746 142.673C112.099 142.331 110.393 142.409 108.784 142.901C107.175 143.392 105.717 144.28 104.542 145.484C103.368 146.687 102.516 148.167 102.065 149.787C101.614 151.406 101.579 153.113 101.962 154.749Z" fill="#B55B52"/>
<path d="M115.666 156.663C121.073 156.055 120.376 150.992 117.571 149.732C120.081 148.734 123.046 146.891 120.827 143.461C122.131 139.913 118.518 134.863 113.429 138.584C107.963 132.232 103.293 138.963 103.293 138.963C103.293 138.963 96.9719 138.584 94.5339 143.531C92.4538 147.771 95.2478 149.888 95.2478 149.888C95.2478 149.888 90.5908 151.341 92.1063 157.021C93.7221 163.15 98.757 161.527 98.757 161.527C98.757 161.527 97.826 167.237 104.711 167.057C110.661 166.905 110.581 162.746 110.581 162.746C110.581 162.746 119.611 164.096 115.666 156.663Z" fill="#263238"/>
<path d="M111.748 156.493C112.426 158.097 113.79 159.119 115.385 159.868C117.44 160.808 118.903 158.644 118.466 156.493C118.072 154.565 116.259 152.141 114.127 152.103C111.961 152.174 110.868 154.658 111.748 156.493Z" fill="#B55B52"/>
<path d="M182.212 321.804L188.657 319.187L184.104 303.708L177.659 306.318L182.212 321.804Z" fill="#B55B52"/>
<path opacity="0.2" d="M179.87 313.829L186.381 311.436L184.104 303.708L177.659 306.318L179.87 313.829Z" fill="black"/>
<path d="M188.096 316.605L180.723 319.165C180.661 319.184 180.604 319.215 180.554 319.256C180.504 319.297 180.463 319.348 180.432 319.405C180.402 319.462 180.383 319.525 180.377 319.589C180.371 319.654 180.378 319.719 180.397 319.781L182.064 325.74C182.172 326.047 182.395 326.3 182.686 326.443C182.978 326.587 183.314 326.611 183.623 326.509C186.168 325.566 187.197 325.059 190.344 323.696C193.441 322.4 196.47 320.948 199.421 319.346C201.878 317.896 200.399 315.424 199.203 315.83C196.368 316.787 191.721 317.41 189.365 316.598C188.953 316.459 188.507 316.462 188.096 316.605Z" fill="#263238"/>
<path d="M175.545 311.392L187.885 307.223L187.348 301.604L173.436 306.085L175.545 311.392Z" fill="#407BFF"/>
<path d="M190.815 316.903C190.221 317.093 189.609 317.217 188.988 317.273C188.956 317.277 188.924 317.271 188.896 317.257C188.867 317.243 188.844 317.22 188.828 317.193C188.812 317.167 188.804 317.136 188.804 317.106C188.804 317.075 188.812 317.045 188.828 317.019C188.988 316.801 190.409 314.887 191.315 314.916C191.419 314.922 191.519 314.954 191.608 315.009C191.696 315.063 191.77 315.138 191.822 315.228C191.917 315.356 191.975 315.507 191.992 315.665C192.008 315.823 191.982 315.982 191.917 316.127C191.657 316.513 191.265 316.789 190.815 316.903ZM189.365 316.903C190.619 316.729 191.474 316.395 191.67 315.982C191.711 315.887 191.725 315.783 191.711 315.681C191.697 315.579 191.655 315.482 191.59 315.402C191.568 315.355 191.533 315.316 191.49 315.288C191.446 315.26 191.396 315.244 191.344 315.243C190.822 315.221 189.923 316.156 189.328 316.903H189.365Z" fill="#407BFF"/>
<path d="M189.021 317.266C188.995 317.274 188.968 317.274 188.942 317.266C188.915 317.262 188.89 317.251 188.868 317.234C188.847 317.218 188.83 317.196 188.818 317.172C188.818 317.092 187.985 315.258 188.42 314.388C188.476 314.277 188.556 314.18 188.656 314.104C188.755 314.029 188.87 313.977 188.992 313.953C189.126 313.908 189.27 313.91 189.402 313.959C189.534 314.008 189.645 314.1 189.717 314.221C190.116 314.888 189.616 316.592 189.101 317.208C189.081 317.235 189.053 317.255 189.021 317.266ZM189.021 314.294C188.96 314.315 188.903 314.348 188.854 314.392C188.806 314.435 188.766 314.488 188.739 314.547C188.478 315.062 188.797 316.164 189.036 316.78C189.435 316.099 189.725 314.83 189.464 314.395C189.413 314.315 189.326 314.221 189.094 314.272L189.021 314.294Z" fill="#407BFF"/>
<path d="M147.726 326.407L154.613 326.081L155.737 309.819L148.849 310.146L147.726 326.407Z" fill="#B55B52"/>
<path d="M154.771 324.906L146.97 324.66C146.905 324.655 146.84 324.663 146.778 324.683C146.717 324.703 146.66 324.736 146.61 324.778C146.561 324.82 146.521 324.872 146.492 324.93C146.463 324.988 146.445 325.052 146.441 325.116L145.868 331.272C145.862 331.435 145.889 331.598 145.946 331.751C146.004 331.904 146.091 332.044 146.203 332.164C146.315 332.283 146.449 332.379 146.598 332.446C146.747 332.513 146.908 332.55 147.071 332.555C149.79 332.591 151.088 332.475 154.517 332.555C156.627 332.62 160.781 332.932 163.674 332.555C166.567 332.178 166.124 329.343 164.863 329.234C161.883 328.995 157.888 326.936 155.982 325.334C155.639 325.057 155.212 324.906 154.771 324.906Z" fill="#263238"/>
<path d="M157.221 326.189C156.598 326.153 155.981 326.051 155.379 325.884C155.349 325.878 155.321 325.862 155.299 325.839C155.277 325.816 155.263 325.787 155.257 325.756C155.252 325.725 155.256 325.693 155.268 325.665C155.281 325.636 155.302 325.611 155.329 325.594C155.553 325.442 157.561 324.145 158.402 324.522C158.498 324.563 158.581 324.628 158.644 324.711C158.708 324.793 158.749 324.89 158.765 324.993C158.807 325.145 158.808 325.306 158.767 325.459C158.726 325.612 158.645 325.751 158.533 325.863C158.153 326.135 157.684 326.252 157.221 326.189ZM155.829 325.66C157.061 325.95 158.004 325.942 158.315 325.66C158.387 325.583 158.437 325.489 158.46 325.387C158.482 325.286 158.478 325.179 158.446 325.08C158.439 325.029 158.42 324.982 158.389 324.941C158.359 324.9 158.318 324.868 158.272 324.848C157.793 324.63 156.619 325.174 155.771 325.66H155.829Z" fill="#407BFF"/>
<path d="M155.389 325.893C155.363 325.9 155.336 325.9 155.309 325.893C155.286 325.878 155.267 325.858 155.253 325.834C155.239 325.81 155.231 325.783 155.23 325.755C155.23 325.676 155.135 323.675 155.853 323.022C155.947 322.93 156.063 322.863 156.19 322.828C156.316 322.792 156.45 322.789 156.578 322.819C156.717 322.827 156.849 322.881 156.953 322.973C157.057 323.065 157.127 323.19 157.151 323.327C157.281 324.088 156.201 325.502 155.498 325.893C155.463 325.907 155.424 325.907 155.389 325.893ZM156.426 323.131C156.361 323.127 156.296 323.136 156.234 323.158C156.173 323.181 156.117 323.216 156.071 323.261C155.643 323.646 155.549 324.791 155.549 325.436C156.165 324.943 156.89 323.863 156.803 323.363C156.803 323.269 156.73 323.16 156.498 323.124L156.426 323.131Z" fill="#407BFF"/>
<path opacity="0.2" d="M148.847 310.146L155.742 309.819L155.089 319.121L148.224 319.114L148.847 310.146Z" fill="black"/>
<path d="M125.423 175.663C121.191 174.811 100.158 175.663 100.158 175.663C98.25 175.609 96.3921 176.294 94.9512 177.581C93.5103 178.869 92.5913 180.666 92.3757 182.617C91.7079 188.675 95.4464 202.21 95.5771 209.113C95.7368 217.591 94.9512 222.099 92.8405 234.17C103.603 237.319 111.487 236.753 127.299 233.535C127.299 210.58 129.449 192.201 128.571 183.088C128.259 179.883 129.656 176.507 125.423 175.663Z" fill="#5186FC"/>
<path fill-rule="evenodd" clip-rule="evenodd" d="M130.881 199.149C132.188 212.171 132.595 216.228 149.841 214.928V215.3L149.924 214.86C150.119 214.679 150.299 214.508 150.469 214.346C151.923 212.964 152.619 212.301 155.333 212.301L156.398 212.395C157.107 212.468 157.783 212.73 158.356 213.153C158.928 213.577 159.377 214.146 159.654 214.802L161.256 218.427H156.717C156.717 218.427 154.093 221.175 149.199 218.674L149.206 218.636C126.055 224.719 125.14 219.323 121.54 198.088C121.058 195.246 120.528 192.119 119.89 188.699L129.238 186.339C130.097 191.333 130.523 195.578 130.881 199.149Z" fill="#B55B52"/>
<path d="M120.954 177.518C126.588 173.187 132.497 176.817 133.924 186.273C135.351 195.729 134.769 196.321 134.769 196.321L120.815 199.588C118.911 190.504 115.193 181.926 120.954 177.518Z" fill="#407BFF"/>
<path d="M95.6693 259.403H142.127C143.148 259.403 143.976 258.576 143.976 257.555V254.568C143.976 253.547 143.148 252.719 142.127 252.719H95.6693C94.6483 252.719 93.8206 253.547 93.8206 254.568V257.555C93.8206 258.576 94.6483 259.403 95.6693 259.403Z" fill="#407BFF"/>
<path d="M95.8783 333.824H93.8193L96.1901 259.396H99.0393L95.8783 333.824Z" fill="#407BFF"/>
<path opacity="0.4" d="M95.8783 333.824H93.8193L96.1901 259.396H99.0393L95.8783 333.824Z" fill="white"/>
<path d="M114.815 333.824H116.874L114.51 259.396H111.661L114.815 333.824Z" fill="#407BFF"/>
<path opacity="0.4" d="M114.815 333.824H116.874L114.51 259.396H111.661L114.815 333.824Z" fill="white"/>
<path d="M122.982 333.824H120.923L123.294 259.396H126.143L122.982 333.824Z" fill="#407BFF"/>
<path opacity="0.4" d="M122.982 333.824H120.923L123.294 259.396H126.143L122.982 333.824Z" fill="white"/>
<path d="M141.918 333.824H143.977L141.614 259.396H138.765L141.918 333.824Z" fill="#407BFF"/>
<path opacity="0.4" d="M141.918 333.824H143.977L141.614 259.396H138.765L141.918 333.824Z" fill="white"/>
<path opacity="0.3" d="M96.1933 259.397H99.0425L98.9048 262.558H96.0918L96.1933 259.397Z" fill="#407BFF"/>
<path opacity="0.3" d="M114.605 262.557H111.792L111.661 259.396H114.503L114.605 262.557Z" fill="#407BFF"/>
<path opacity="0.3" d="M126.135 259.396L126.004 262.557H123.191L123.293 259.396H126.135Z" fill="#407BFF"/>
<path opacity="0.3" d="M141.715 262.557H138.895L138.765 259.396H141.614L141.715 262.557Z" fill="#407BFF"/>
<path d="M145.538 314.787L158.046 315.209L158.988 308.636L145.247 308.494L145.538 314.787Z" fill="#407BFF"/>
<path opacity="0.2" d="M192.612 179.22L195.621 189.522L204.553 179.22H192.612Z" fill="black"/>
<path d="M179.153 152.887L189.861 189.521L221.631 152.887H179.153Z" fill="#407BFF"/>
<path d="M279.749 168.425H163.627C162.725 168.434 161.83 168.256 161 167.902C160.17 167.548 159.423 167.026 158.805 166.369C158.187 165.711 157.712 164.933 157.41 164.082C157.108 163.232 156.986 162.328 157.051 161.429L161.481 87.936C161.62 86.053 162.46 84.2905 163.834 82.9956C165.208 81.7007 167.017 80.9673 168.905 80.9398H284.998C285.9 80.9304 286.795 81.1083 287.625 81.4621C288.455 81.816 289.202 82.3382 289.82 82.9957C290.438 83.6531 290.913 84.4316 291.215 85.282C291.517 86.1323 291.639 87.036 291.574 87.936L287.137 161.457C286.993 163.33 286.156 165.081 284.79 166.369C283.424 167.658 281.626 168.391 279.749 168.425V168.425Z" fill="#407BFF"/>
<path opacity="0.1" d="M274.082 138.852H209.006C208.5 138.857 207.999 138.757 207.533 138.559C207.067 138.361 206.648 138.068 206.301 137.7C205.955 137.331 205.688 136.895 205.518 136.418C205.349 135.941 205.28 135.434 205.316 134.93L207.803 93.7355C207.881 92.6799 208.351 91.6917 209.121 90.9657C209.891 90.2397 210.906 89.8286 211.964 89.8133H277.039C277.547 89.8025 278.051 89.8984 278.519 90.0948C278.988 90.2912 279.409 90.5837 279.757 90.9535C280.105 91.3233 280.371 91.762 280.539 92.2412C280.706 92.7205 280.771 93.2296 280.73 93.7355L278.243 134.93C278.165 135.985 277.695 136.973 276.924 137.699C276.154 138.425 275.14 138.837 274.082 138.852V138.852Z" fill="white"/>
<path opacity="0.1" d="M239.268 156.621H174.185C173.68 156.626 173.179 156.525 172.715 156.326C172.25 156.128 171.831 155.835 171.485 155.466C171.139 155.098 170.873 154.662 170.704 154.186C170.535 153.709 170.466 153.203 170.502 152.699L172.989 111.505C173.067 110.451 173.536 109.463 174.305 108.738C175.074 108.012 176.086 107.6 177.143 107.583H242.226C242.733 107.573 243.236 107.67 243.704 107.866C244.171 108.063 244.592 108.356 244.939 108.726C245.286 109.095 245.552 109.534 245.719 110.012C245.886 110.491 245.951 111 245.909 111.505L243.422 152.699C243.345 153.753 242.875 154.741 242.106 155.466C241.338 156.192 240.325 156.604 239.268 156.621V156.621Z" fill="white"/>
<path opacity="0.5" d="M173.32 87.3342C173.307 87.8909 173.086 88.4225 172.701 88.8249C172.316 89.2273 171.795 89.4713 171.239 89.5091C170.975 89.4961 170.717 89.4276 170.481 89.3081C170.245 89.1887 170.037 89.021 169.87 88.8159C169.703 88.6107 169.581 88.3728 169.512 88.1175C169.443 87.8623 169.429 87.5954 169.47 87.3342C169.486 86.7785 169.708 86.2486 170.093 85.8469C170.477 85.4452 170.996 85.2002 171.551 85.1592C171.815 85.1723 172.073 85.2407 172.309 85.3602C172.545 85.4796 172.753 85.6473 172.92 85.8525C173.087 86.0576 173.209 86.2955 173.277 86.5508C173.346 86.806 173.361 87.073 173.32 87.3342V87.3342Z" fill="white"/>
<path opacity="0.5" d="M180.426 87.3342C180.411 87.8903 180.19 88.4211 179.805 88.8232C179.42 89.2252 178.9 89.4697 178.345 89.5091C178.08 89.497 177.821 89.4293 177.584 89.3103C177.348 89.1913 177.139 89.0237 176.971 88.8184C176.803 88.6132 176.681 88.3749 176.612 88.1192C176.542 87.8634 176.528 87.5959 176.569 87.3342C176.585 86.7785 176.807 86.2486 177.191 85.8469C177.575 85.4452 178.095 85.2002 178.649 85.1592C178.914 85.1724 179.172 85.2409 179.408 85.3602C179.645 85.4796 179.853 85.6472 180.021 85.8522C180.188 86.0571 180.311 86.2949 180.38 86.5502C180.45 86.8055 180.465 87.0725 180.426 87.3342V87.3342Z" fill="white"/>
<path opacity="0.5" d="M187.571 87.3342C187.558 87.8909 187.337 88.4225 186.952 88.8249C186.567 89.2273 186.046 89.4713 185.49 89.5091C185.226 89.4961 184.968 89.4276 184.732 89.3081C184.496 89.1887 184.288 89.021 184.121 88.8159C183.954 88.6107 183.832 88.3728 183.763 88.1175C183.694 87.8623 183.68 87.5954 183.721 87.3342C183.737 86.7785 183.959 86.2486 184.344 85.8469C184.728 85.4452 185.247 85.2002 185.802 85.1592C186.066 85.1723 186.324 85.2407 186.56 85.3602C186.796 85.4796 187.004 85.6473 187.171 85.8525C187.338 86.0576 187.46 86.2955 187.528 86.5508C187.597 86.806 187.612 87.073 187.571 87.3342Z" fill="white"/>
<path opacity="0.3" d="M278.85 167.743H162.757C161.83 167.75 160.912 167.565 160.06 167.201C159.208 166.836 158.441 166.299 157.806 165.624C157.171 164.948 156.683 164.149 156.373 163.276C156.062 162.403 155.935 161.475 156 160.551L160.437 87.0581C160.576 85.129 161.434 83.3223 162.841 81.9948C164.248 80.6673 166.101 79.9155 168.035 79.8879H284.099C285.026 79.8806 285.944 80.0651 286.796 80.4297C287.648 80.7943 288.415 81.3312 289.05 82.0066C289.684 82.682 290.172 83.4813 290.483 84.3544C290.794 85.2275 290.921 86.1554 290.856 87.0798L286.426 160.572C286.285 162.497 285.43 164.3 284.028 165.627C282.627 166.953 280.78 167.708 278.85 167.743V167.743ZM168.035 80.2577C166.19 80.2801 164.422 80.9946 163.079 82.2594C161.736 83.5242 160.917 85.2472 160.785 87.0871L156.348 160.58C156.284 161.455 156.402 162.334 156.695 163.162C156.988 163.99 157.45 164.747 158.051 165.387C158.652 166.027 159.379 166.535 160.187 166.879C160.994 167.224 161.865 167.397 162.742 167.387H278.85C280.694 167.363 282.462 166.648 283.804 165.384C285.147 164.119 285.966 162.397 286.1 160.558L290.53 87.0653C290.592 86.1872 290.471 85.3057 290.175 84.4766C289.879 83.6476 289.414 82.8891 288.809 82.2491C288.205 81.6091 287.474 81.1017 286.663 80.7589C285.852 80.4161 284.979 80.2454 284.099 80.2577H168.035Z" fill="#263238"/>
<path fill-rule="evenodd" clip-rule="evenodd" d="M189.404 130.61C188.949 130.272 188.545 129.973 188.284 129.711C187.542 130.351 188.53 131.727 189.388 132.923C189.517 133.103 189.643 133.278 189.76 133.446C187.623 132.722 185.754 131.732 184.315 130.97C181.652 129.561 180.462 128.931 181.783 132.204C182.353 132.665 182.519 133.526 182.708 134.503C182.897 135.481 183.109 136.574 183.768 137.499C184.643 138.725 186.338 138.569 188.133 138.403C189.045 138.319 189.983 138.232 190.853 138.323C198.992 158.943 210.01 156.311 216.963 134.747L210.103 132.204C205.225 147.749 200.807 149.496 192.474 134.413C192.372 132.808 190.683 131.557 189.404 130.61Z" fill="#FFC3BD"/>
<path opacity="0.7" d="M215.881 117.143C215.881 117.143 209.146 132.927 213.999 162.317H242.048C242.394 158.024 240.414 137.094 245.274 116.875C242.186 116.276 239.062 115.88 235.922 115.691C231.952 115.465 227.972 115.465 224.002 115.691C221.262 115.968 218.547 116.454 215.881 117.143Z" fill="#ECF2FF"/>
<path d="M225.786 89.3285C223.049 90.2398 220.86 97.3399 224.053 99.2192C227.246 101.098 230.987 87.5976 225.786 89.3285Z" fill="#263238"/>
<path d="M215.873 117.143C215.873 117.143 208.057 137.798 212.91 167.188H242.588C242.935 162.894 240.406 137.094 245.266 116.875C242.178 116.276 239.054 115.88 235.914 115.691C231.944 115.465 227.964 115.465 223.994 115.691C221.254 115.968 218.539 116.454 215.873 117.143Z" fill="#ECF2FF"/>
<path opacity="0.7" d="M221.887 120.786C223.482 125.437 214.11 139.116 214.11 139.116L205.16 134.15C206.685 129.882 208.487 125.718 210.555 121.683C213.689 115.771 220.138 115.68 221.887 120.786Z" fill="#ECF2FF"/>
<path d="M235.128 102.546C234.247 106.357 233.253 113.346 235.832 115.905C235.832 115.905 234.719 119.062 227.615 119.062C219.807 119.062 223.958 115.905 223.958 115.905C228.257 114.893 228.257 111.736 227.615 108.775L235.128 102.546Z" fill="#FFC3BD"/>
<path opacity="0.1" d="M232.747 106.083L227.816 109.397C227.917 110.116 227.955 110.843 227.927 111.568C229.637 111.486 232.174 109.886 232.571 108.178C232.762 107.497 232.822 106.786 232.747 106.083V106.083Z" fill="black"/>
<path d="M236.596 97.962C234.94 102.75 234.237 107.012 230.895 108.975C229.817 109.622 228.57 109.981 227.29 110.014C226.009 110.047 224.742 109.753 223.628 109.162C222.513 108.572 221.593 107.708 220.966 106.665C220.34 105.622 220.03 104.438 220.072 103.243C220.138 98.6392 222.835 90.1844 228.514 89.2952C229.738 89.0746 231.002 89.1582 232.181 89.5373C233.359 89.9165 234.411 90.578 235.229 91.4557C236.048 92.3333 236.605 93.3963 236.845 94.5382C237.085 95.6801 236.999 96.8607 236.596 97.962Z" fill="#FFC3BD"/>
<path d="M240.815 90.2113C239.228 94.0859 242.921 90.85 241.966 95.4483C241.434 100.209 236.06 106.868 233.935 104.964C231.871 104.312 231.892 99.2236 234.524 95.6258C236.041 93.5607 229.952 90.6697 225.398 91.4673C220.463 92.3316 216.144 88.9821 221.901 85.9137C221.901 85.9137 221.207 87.2947 221.901 87.2947C224.352 85.0699 240.707 81.133 240.815 90.2113Z" fill="#263238"/>
<path d="M239.373 91.7678C239.29 91.7678 241.139 91.3555 242.123 88.3887C242.123 88.436 241.8 92.8085 239.373 91.7678Z" fill="#263238"/>
<path d="M237.797 104.274C236.868 105.166 235.629 105.673 234.334 105.691C232.624 105.691 232.257 104.089 233.178 102.747C233.995 101.541 235.865 100.09 237.374 100.74C238.884 101.391 238.932 103.171 237.797 104.274Z" fill="#FFC3BD"/>
<path d="M228.972 98.7301C228.779 99.3718 228.228 99.8366 227.689 99.7259C227.151 99.6153 226.959 99.0288 227.151 98.387C227.343 97.7453 227.895 97.2805 228.433 97.4022C228.972 97.524 229.164 98.0883 228.972 98.7301Z" fill="#263238"/>
<path d="M223.238 96.8427C223.287 97.395 222.92 98.0047 222.353 98.2004C221.786 98.3961 221.386 98.0865 221.337 97.5342C221.288 96.9819 221.643 96.3788 222.222 96.1765C222.802 95.9743 223.152 96.3099 223.238 96.8427Z" fill="#263238"/>
<path d="M224.813 98.8779C224.028 99.6935 223.1 100.43 222.052 101.069C222.282 101.256 222.566 101.404 222.884 101.502C223.201 101.601 223.544 101.647 223.888 101.638L224.813 98.8779Z" fill="#E4897B"/>
<path d="M227.664 104.701C227.451 104.792 227.222 104.843 226.981 104.853C226.954 104.853 226.925 104.837 226.898 104.81C226.872 104.782 226.851 104.744 226.839 104.705C226.829 104.665 226.83 104.626 226.841 104.597C226.853 104.568 226.874 104.551 226.9 104.549C227.338 104.526 227.728 104.354 228.043 104.048C228.358 103.741 228.589 103.307 228.719 102.778C228.725 102.743 228.741 102.718 228.765 102.708C228.789 102.697 228.819 102.703 228.848 102.723C228.876 102.744 228.902 102.778 228.919 102.817C228.935 102.856 228.942 102.898 228.938 102.933C228.748 103.81 228.295 104.438 227.664 104.701V104.701Z" fill="#263238"/>
<path d="M230.482 97.0404C230.436 97.0413 230.39 97.0262 230.351 96.997C230.312 96.9678 230.281 96.9259 230.263 96.8767C230.151 96.5641 229.975 96.2868 229.749 96.0684C229.522 95.85 229.254 95.6969 228.965 95.6219C228.933 95.6172 228.903 95.6053 228.875 95.5869C228.848 95.5686 228.824 95.5442 228.805 95.5152C228.786 95.4862 228.772 95.4531 228.764 95.4179C228.756 95.3827 228.755 95.3461 228.76 95.3102C228.77 95.2384 228.804 95.1739 228.855 95.1303C228.906 95.0867 228.97 95.0674 229.033 95.0764C229.401 95.1619 229.746 95.3486 230.036 95.6203C230.327 95.8919 230.555 96.2402 230.701 96.6351C230.714 96.6677 230.722 96.7031 230.723 96.7391C230.724 96.7751 230.719 96.811 230.707 96.8446C230.696 96.8781 230.678 96.9087 230.656 96.9343C230.634 96.9599 230.607 96.9801 230.578 96.9936C230.549 97.017 230.517 97.033 230.482 97.0404Z" fill="#263238"/>
<path d="M222.717 95.073C222.66 95.0725 222.605 95.0497 222.561 95.0085C222.511 94.9598 222.479 94.8904 222.472 94.8151C222.465 94.7398 222.485 94.6645 222.526 94.6053C222.775 94.2519 223.092 93.9684 223.452 93.7769C223.812 93.5854 224.206 93.4909 224.603 93.5007C224.636 93.5037 224.667 93.5141 224.696 93.5312C224.725 93.5482 224.751 93.5717 224.772 93.6002C224.793 93.6287 224.809 93.6616 224.819 93.6971C224.829 93.7326 224.832 93.77 224.829 93.8071C224.827 93.8446 224.819 93.8813 224.804 93.9149C224.79 93.9486 224.769 93.9784 224.744 94.0026C224.719 94.0268 224.69 94.0448 224.658 94.0556C224.627 94.0663 224.593 94.0696 224.561 94.0651C224.243 94.0613 223.929 94.1407 223.642 94.2973C223.356 94.4538 223.104 94.6833 222.908 94.9681C222.885 95.0011 222.856 95.0277 222.823 95.0458C222.79 95.064 222.754 95.0733 222.717 95.073V95.073Z" fill="#263238"/>
<path d="M221.887 120.786C223.482 125.437 214.11 139.116 214.11 139.116L205.16 134.15C206.685 129.882 208.487 125.718 210.555 121.683C213.689 115.771 220.138 115.68 221.887 120.786Z" fill="#ECF2FF"/>
<path opacity="0.31" d="M239.154 122.443C238.544 125.774 239.355 133.735 242.365 142.953C242.601 135.056 243.568 127.194 245.257 119.458V119.415C243.324 119.232 239.741 119.316 239.154 122.443Z" fill="#3362CC"/>
<path d="M227.576 119.053C228.354 120.362 228.804 121.852 228.886 123.387C228.886 123.387 237.403 120.266 237 115.691C237 115.691 235.792 114.946 235.028 114.343C235.028 114.343 234.741 117.223 227.576 119.053Z" fill="#B3C5EF"/>
<path d="M227.574 118.973C226.767 120.201 226.186 121.562 225.858 122.994C225.858 122.994 221.884 120.309 223.08 115.832C223.808 115.539 224.558 115.303 225.324 115.129C225.324 115.129 224.803 118.025 227.574 118.973Z" fill="#B3C5EF"/>
<path fill-rule="evenodd" clip-rule="evenodd" d="M248.52 122.657L241.462 127.26C242.962 130.475 244.325 133.256 245.515 135.685C252.283 149.496 253.486 151.952 242.783 158.471L238.008 157.634L237.993 157.598L237.96 157.626L237.805 157.598L237.854 157.711L234.265 160.618C233.834 163.572 234.346 164.644 236.613 165.463C237.883 164.044 238.736 163.617 240.557 163.602L240.512 163.496C241.115 163.482 244.734 163.318 244.878 161.347L244.914 161.396C262.279 154.722 259.134 147.41 251.419 129.475C250.508 127.356 249.532 125.089 248.52 122.657Z" fill="#FFC3BD"/>
<path d="M245.244 116.799C250.115 117.509 255.103 134.78 255.103 134.78L244.667 140.689C244.667 140.689 240.43 132.479 238.405 126.386C236.283 120.001 240.033 116.017 245.244 116.799Z" fill="#ECF2FF"/>
</g>
<defs>
<clipPath id="clip0">
<rect width="400" height="400" fill="white"/>
</clipPath>
</defs>
</svg>
