<svg width="137" height="111" viewBox="0 0 137 111" fill="none" xmlns="http://www.w3.org/2000/svg">
<path opacity="0.2" d="M37.6123 100.22L40.621 110.522L49.5529 100.22H37.6123Z" fill="black"/>
<path d="M24.1533 73.8867L34.8615 110.521L66.6306 73.8867H24.1533Z" fill="#407BFF"/>
<path d="M124.749 89.4247H8.62694C7.72467 89.4341 6.83027 89.2562 6.00024 88.9023C5.17021 88.5485 4.42259 88.0263 3.80462 87.3688C3.18665 86.7114 2.71178 85.9328 2.40998 85.0825C2.10818 84.2321 1.98603 83.3285 2.05124 82.4285L6.48095 8.93598C6.62027 7.05304 7.45966 5.29052 8.83374 3.99561C10.2078 2.7007 12.017 1.96727 13.9049 1.93981H129.998C130.9 1.93043 131.795 2.10828 132.625 2.46214C133.455 2.816 134.202 3.33817 134.82 3.99566C135.438 4.65314 135.913 5.43165 136.215 6.28199C136.517 7.13234 136.639 8.03603 136.574 8.93598L132.137 82.4575C131.993 84.3297 131.156 86.0811 129.79 87.3694C128.424 88.6577 126.626 89.3905 124.749 89.4247V89.4247Z" fill="#407BFF"/>
<path opacity="0.1" d="M119.082 59.8518H54.0062C53.5002 59.8571 52.9986 59.7575 52.533 59.5592C52.0675 59.3608 51.6481 59.0682 51.3013 58.6996C50.9546 58.3311 50.688 57.8946 50.5184 57.4179C50.3488 56.9411 50.2799 56.4344 50.316 55.9296L52.8027 14.7355C52.8805 13.6799 53.3509 12.6917 54.1212 11.9657C54.8915 11.2397 55.9058 10.8286 56.9642 10.8133H122.039C122.547 10.8025 123.051 10.8984 123.519 11.0948C123.988 11.2912 124.409 11.5837 124.757 11.9535C125.105 12.3233 125.371 12.762 125.539 13.2412C125.706 13.7205 125.771 14.2296 125.73 14.7355L123.243 55.9296C123.165 56.9852 122.695 57.9734 121.924 58.6994C121.154 59.4254 120.14 59.8366 119.082 59.8518V59.8518Z" fill="white"/>
<path opacity="0.1" d="M84.2681 77.6212H19.1854C18.68 77.6255 18.1792 77.5251 17.7145 77.3263C17.2499 77.1276 16.8314 76.8348 16.4854 76.4663C16.1394 76.0979 15.8735 75.6618 15.7043 75.1855C15.5352 74.7093 15.4664 74.2031 15.5025 73.699L17.9892 32.5049C18.0669 31.4505 18.5363 30.4633 19.3051 29.7375C20.0738 29.0117 21.0863 28.5998 22.1434 28.5827H87.226C87.733 28.5729 88.2364 28.6695 88.7037 28.8664C89.171 29.0633 89.5918 29.356 89.9389 29.7256C90.286 30.0953 90.5516 30.5336 90.7187 31.0124C90.8859 31.4911 90.9507 31.9996 90.909 32.5049L88.4223 73.699C88.3445 74.7534 87.8752 75.7406 87.1064 76.4664C86.3377 77.1922 85.3252 77.6042 84.2681 77.6212V77.6212Z" fill="white"/>
<path opacity="0.5" d="M18.3198 8.33416C18.3066 8.89086 18.0859 9.42255 17.701 9.82492C17.316 10.2273 16.7946 10.4713 16.2391 10.5091C15.975 10.4961 15.7166 10.4276 15.4807 10.3081C15.2448 10.1887 15.0367 10.021 14.8699 9.81585C14.7031 9.61073 14.5812 9.37281 14.5124 9.11754C14.4435 8.86227 14.4291 8.59536 14.4701 8.33416C14.4865 7.77848 14.7083 7.24861 15.0926 6.8469C15.4769 6.4452 15.9964 6.20018 16.5508 6.15918C16.8149 6.17225 17.0733 6.24073 17.3091 6.36017C17.545 6.47962 17.7531 6.64735 17.92 6.85247C18.0868 7.05759 18.2086 7.29551 18.2775 7.55078C18.3464 7.80605 18.3608 8.07296 18.3198 8.33416V8.33416Z" fill="white"/>
<path opacity="0.5" d="M25.4256 8.33416C25.4108 8.89035 25.1896 9.42112 24.8049 9.82316C24.4203 10.2252 23.8999 10.4697 23.3449 10.5091C23.0802 10.497 22.821 10.4293 22.5842 10.3103C22.3475 10.1913 22.1385 10.0237 21.9709 9.81843C21.8033 9.6132 21.6808 9.37494 21.6115 9.11918C21.5422 8.86343 21.5276 8.59594 21.5686 8.33416C21.5851 7.77848 21.8068 7.24861 22.1911 6.8469C22.5754 6.4452 23.095 6.20018 23.6494 6.15918C23.9137 6.17238 24.1723 6.24088 24.4085 6.36024C24.6447 6.47961 24.8532 6.64718 25.0206 6.85215C25.188 7.05712 25.3105 7.29492 25.3803 7.5502C25.45 7.80547 25.4655 8.07254 25.4256 8.33416V8.33416Z" fill="white"/>
<path opacity="0.5" d="M32.5708 8.33416C32.5576 8.89086 32.3369 9.42255 31.952 9.82492C31.567 10.2273 31.0456 10.4713 30.49 10.5091C30.226 10.4961 29.9676 10.4276 29.7317 10.3081C29.4958 10.1887 29.2877 10.021 29.1209 9.81585C28.954 9.61073 28.8322 9.37281 28.7633 9.11754C28.6945 8.86227 28.68 8.59536 28.721 8.33416C28.7375 7.77848 28.9593 7.24861 29.3436 6.8469C29.7278 6.4452 30.2474 6.20018 30.8018 6.15918C31.0659 6.17225 31.3242 6.24073 31.5601 6.36017C31.796 6.47962 32.0041 6.64735 32.171 6.85247C32.3378 7.05759 32.4596 7.29551 32.5285 7.55078C32.5974 7.80605 32.6118 8.07296 32.5708 8.33416Z" fill="white"/>
<path opacity="0.3" d="M123.85 88.7425H7.75689C6.83018 88.7498 5.91198 88.5654 5.05997 88.2008C4.20797 87.8361 3.44058 87.2993 2.80602 86.6239C2.17146 85.9484 1.68345 85.1491 1.37264 84.276C1.06183 83.403 0.934945 82.4751 0.999955 81.5506L5.43691 8.05808C5.57642 6.12896 6.43421 4.32228 7.84089 2.99479C9.24757 1.66731 11.1009 0.915524 13.0348 0.887903H129.099C130.026 0.880621 130.944 1.06508 131.796 1.42968C132.648 1.79429 133.415 2.33116 134.05 3.00657C134.684 3.68198 135.172 4.48134 135.483 5.3544C135.794 6.22747 135.921 7.15538 135.856 8.07983L131.426 81.5724C131.285 83.4972 130.43 85.2999 129.028 86.6265C127.627 87.9532 125.78 88.7079 123.85 88.7425V88.7425ZM13.0348 1.25765C11.1903 1.28014 9.42157 1.99456 8.07886 3.2594C6.73615 4.52423 5.91744 6.24722 5.78491 8.08708L1.34795 81.5796C1.28369 82.4551 1.40185 83.3345 1.69497 84.162C1.98808 84.9895 2.44977 85.7472 3.05081 86.3871C3.65185 87.027 4.37917 87.5351 5.18674 87.8794C5.99431 88.2237 6.86454 88.3967 7.74239 88.3873H123.85C125.694 88.3631 127.462 87.6481 128.804 86.3836C130.147 85.1191 130.966 83.3971 131.1 81.5578L135.53 8.06533C135.592 7.1872 135.471 6.30569 135.175 5.47664C134.879 4.64759 134.414 3.88907 133.809 3.24911C133.205 2.60914 132.474 2.10169 131.663 1.75889C130.852 1.41608 129.979 1.2454 129.099 1.25765H13.0348Z" fill="#263238"/>
<path fill-rule="evenodd" clip-rule="evenodd" d="M34.4042 51.6098C33.9486 51.2723 33.5451 50.9734 33.2842 50.7109C32.5425 51.3506 33.5296 52.7265 34.3884 53.9234C34.5171 54.1028 34.6428 54.2781 34.7595 54.4464C32.6234 53.7219 30.7538 52.7322 29.3146 51.9703C26.6519 50.5607 25.4623 49.931 26.7829 53.2036C27.3527 53.6651 27.5193 54.5263 27.7084 55.5034C27.8974 56.4806 28.1089 57.5736 28.7684 58.4988C29.6428 59.7254 31.3379 59.5688 33.1326 59.4029C34.0451 59.3186 34.9834 59.2319 35.8526 59.3235C43.9917 79.9427 55.0098 77.3111 61.963 55.7467L55.103 53.2036C50.2251 68.7488 45.8067 70.496 37.4738 55.4129C37.372 53.8084 35.6828 52.557 34.4042 51.6098Z" fill="#FFC3BD"/>
<path opacity="0.7" d="M60.8807 38.143C60.8807 38.143 54.1462 53.9272 58.999 83.3172H87.0477C87.3944 79.024 85.4136 58.0936 90.2735 37.8751C87.1857 37.2761 84.0616 36.8805 80.9216 36.6908C76.9515 36.4651 72.9718 36.4651 69.0018 36.6908C66.2616 36.9681 63.5467 37.4536 60.8807 38.143Z" fill="#ECF2FF"/>
<path d="M70.7864 10.3285C68.0486 11.2398 65.8599 18.3399 69.0527 20.2192C72.2455 22.0984 75.9874 8.59761 70.7864 10.3285Z" fill="#263238"/>
<path d="M60.8729 38.143C60.8729 38.143 53.0567 58.7976 57.9095 88.1876H87.5881C87.9348 83.8944 85.4058 58.0935 90.2657 37.8751C87.1778 37.2761 84.0538 36.8805 80.9137 36.6908C76.9437 36.4651 72.9639 36.4651 68.9939 36.6908C66.2537 36.9681 63.5388 37.4536 60.8729 38.143Z" fill="#ECF2FF"/>
<path opacity="0.7" d="M66.8869 41.7864C68.4816 46.4371 59.1101 60.1163 59.1101 60.1163L50.1602 55.1503C51.6852 50.8821 53.4875 46.7175 55.5554 42.6829C58.6886 36.7714 65.1376 36.6803 66.8869 41.7864Z" fill="#ECF2FF"/>
<path d="M80.1277 23.5459C79.2468 27.3568 78.2531 34.3457 80.8324 36.9051C80.8324 36.9051 79.719 40.062 72.6153 40.062C64.8068 40.062 68.9577 36.9051 68.9577 36.9051C73.2566 35.8926 73.2566 32.7356 72.6153 29.7755L80.1277 23.5459Z" fill="#FFC3BD"/>
<path opacity="0.1" d="M77.7465 27.0826L72.8159 30.3965C72.9173 31.1161 72.9545 31.8428 72.9271 32.5682C74.6369 32.4856 77.1741 30.8855 77.5711 29.1779C77.7625 28.4968 77.822 27.7861 77.7465 27.0826V27.0826Z" fill="black"/>
<path d="M81.5964 18.962C79.9403 23.7503 79.2369 28.0119 75.8954 29.9751C74.8174 30.6218 73.5705 30.9811 72.2896 31.0141C71.0086 31.0471 69.7424 30.7525 68.6279 30.1623C67.5134 29.572 66.593 28.7085 65.9662 27.6651C65.3395 26.6218 65.0303 25.4383 65.0721 24.2428C65.138 19.6392 67.8347 11.1844 73.5138 10.2952C74.7378 10.0746 76.0023 10.1582 77.1809 10.5373C78.3594 10.9165 79.4105 11.578 80.229 12.4557C81.0475 13.3333 81.6047 14.3963 81.8447 15.5382C82.0846 16.6801 81.999 17.8607 81.5964 18.962Z" fill="#FFC3BD"/>
<path d="M85.8146 11.2113C84.228 15.0859 87.9208 11.85 86.966 16.4483C86.4338 21.2087 81.0598 27.8683 78.9345 25.9645C76.8705 25.3116 76.8916 20.2236 79.5243 16.6258C81.0407 14.5607 74.9517 11.6697 70.3976 12.4673C65.4628 13.3316 61.1438 9.9821 66.9013 6.91369C66.9013 6.91369 66.2067 8.29471 66.9014 8.29471C69.3518 6.06987 85.7072 2.13301 85.8146 11.2113Z" fill="#263238"/>
<path d="M84.3728 12.7678C84.2901 12.7678 86.1385 12.3555 87.1228 9.38867C87.1228 9.43598 86.7997 13.8085 84.3728 12.7678Z" fill="#263238"/>
<path d="M82.7965 25.2737C81.8679 26.1662 80.6291 26.6735 79.3343 26.6912C77.624 26.6912 77.257 25.0888 78.1779 23.7466C78.995 22.5414 80.8646 21.0896 82.3741 21.7402C83.8837 22.3907 83.9321 24.1712 82.7965 25.2737Z" fill="#FFC3BD"/>
<path d="M73.9716 19.7301C73.7793 20.3718 73.2279 20.8366 72.6894 20.7259C72.1509 20.6153 71.9585 20.0288 72.1509 19.387C72.3432 18.7453 72.8945 18.2805 73.4331 18.4022C73.9716 18.524 74.1639 19.0883 73.9716 19.7301Z" fill="#263238"/>
<path d="M68.2383 17.8427C68.2871 18.395 67.9198 19.0047 67.3529 19.2004C66.7859 19.3961 66.3858 19.0865 66.337 18.5342C66.2882 17.9819 66.6429 17.3788 67.2224 17.1765C67.8019 16.9743 68.1519 17.3099 68.2383 17.8427Z" fill="#263238"/>
<path d="M69.8133 19.8779C69.0284 20.6935 68.0999 21.4303 67.0518 22.0692C67.2824 22.2562 67.5663 22.404 67.8835 22.5024C68.2008 22.6007 68.5437 22.6472 68.8882 22.6385L69.8133 19.8779Z" fill="#E4897B"/>
<path d="M72.6636 25.7014C72.4507 25.7917 72.2219 25.8425 71.9813 25.853C71.9543 25.8527 71.9245 25.8372 71.8981 25.8097C71.8716 25.7821 71.8505 25.7445 71.8391 25.7046C71.8292 25.6646 71.8301 25.6262 71.8414 25.5973C71.8528 25.5684 71.8739 25.5511 71.9003 25.549C72.3375 25.5258 72.7283 25.3544 73.0433 25.0476C73.3583 24.7408 73.5894 24.3066 73.7193 23.7775C73.7249 23.7429 73.7414 23.7178 73.7654 23.7076C73.7893 23.6974 73.8189 23.7028 73.8477 23.7227C73.8764 23.7439 73.9018 23.7777 73.9186 23.817C73.9353 23.8563 73.9421 23.898 73.9376 23.9333C73.7477 24.8102 73.2953 25.4381 72.6636 25.7014V25.7014Z" fill="#263238"/>
<path d="M75.4822 18.0404C75.4355 18.0413 75.3897 18.0262 75.3507 17.997C75.3117 17.9678 75.2813 17.9259 75.2634 17.8767C75.1512 17.5641 74.9746 17.2868 74.7485 17.0684C74.5224 16.85 74.2536 16.6969 73.9647 16.6219C73.9331 16.6172 73.9027 16.6053 73.8752 16.5869C73.8478 16.5686 73.8238 16.5442 73.8047 16.5152C73.7856 16.4862 73.7718 16.4531 73.764 16.4179C73.7563 16.3827 73.7548 16.3461 73.7596 16.3102C73.7697 16.2384 73.8039 16.1739 73.8549 16.1303C73.9059 16.0867 73.9698 16.0674 74.033 16.0764C74.4013 16.1619 74.7456 16.3486 75.0363 16.6203C75.3269 16.8919 75.555 17.2402 75.7009 17.6351C75.7144 17.6677 75.7219 17.7031 75.7229 17.7391C75.724 17.7751 75.7186 17.811 75.7071 17.8446C75.6955 17.8781 75.6781 17.9087 75.6559 17.9343C75.6337 17.9599 75.6071 17.9801 75.5779 17.9936C75.5493 18.017 75.5167 18.033 75.4822 18.0404Z" fill="#263238"/>
<path d="M67.7169 16.073C67.6601 16.0725 67.6052 16.0497 67.5614 16.0085C67.5107 15.9598 67.4786 15.8904 67.472 15.8151C67.4654 15.7398 67.4848 15.6645 67.5261 15.6053C67.775 15.2519 68.0918 14.9684 68.4519 14.7769C68.812 14.5854 69.2059 14.4909 69.6031 14.5007C69.6356 14.5037 69.6673 14.5141 69.6963 14.5312C69.7252 14.5482 69.751 14.5717 69.772 14.6002C69.793 14.6287 69.8089 14.6616 69.8187 14.6971C69.8285 14.7326 69.8321 14.77 69.8292 14.8071C69.8275 14.8446 69.819 14.8813 69.8044 14.9149C69.7897 14.9486 69.7692 14.9784 69.744 15.0026C69.7188 15.0268 69.6896 15.0448 69.658 15.0556C69.6265 15.0663 69.5934 15.0696 69.5607 15.0651C69.243 15.0613 68.9288 15.1407 68.6422 15.2973C68.3556 15.4538 68.1043 15.6833 67.9076 15.9681C67.8849 16.0011 67.856 16.0277 67.8229 16.0458C67.7898 16.064 67.7536 16.0733 67.7169 16.073V16.073Z" fill="#263238"/>
<path d="M66.8869 41.7864C68.4816 46.4371 59.1101 60.1163 59.1101 60.1163L50.1602 55.1503C51.6852 50.8821 53.4875 46.7175 55.5554 42.6829C58.6886 36.7714 65.1376 36.6803 66.8869 41.7864Z" fill="#ECF2FF"/>
<path opacity="0.31" d="M84.154 43.443C83.5445 46.7743 84.3547 54.7355 87.3652 63.9529C87.6008 56.0557 88.5684 48.1936 90.2567 40.4576V40.4153C88.3241 40.2318 84.7412 40.3164 84.154 43.443Z" fill="#3362CC"/>
<path d="M72.5762 40.053C73.3538 41.3616 73.8042 42.8516 73.8864 44.3873C73.8864 44.3873 82.4028 41.2661 82.0001 36.6906C82.0001 36.6906 80.7923 35.9457 80.028 35.3428C80.028 35.3428 79.7414 38.2228 72.5762 40.053Z" fill="#B3C5EF"/>
<path d="M72.5744 39.9735C71.7675 41.2009 71.1863 42.5623 70.8581 43.9937C70.8581 43.9937 66.8841 41.3089 68.0798 36.8318C68.8079 36.5385 69.5582 36.3035 70.3236 36.1289C70.3236 36.1289 69.8031 39.0246 72.5744 39.9735Z" fill="#B3C5EF"/>
<path fill-rule="evenodd" clip-rule="evenodd" d="M93.5198 43.6572L86.4624 48.2598C87.9624 51.4754 89.3248 54.2557 90.515 56.6848C97.2826 70.4964 98.4857 72.9518 87.7831 79.4709L83.0085 78.6342L82.9932 78.5985L82.9596 78.6257L82.8045 78.5985L82.8545 78.7108L79.2654 81.618C78.8339 84.572 79.3463 85.6443 81.6131 86.4633C82.8827 85.0444 83.736 84.6171 85.5573 84.6024L85.5118 84.4959C86.1148 84.4821 89.7338 84.3177 89.8784 82.3471L89.9144 82.3959C107.279 75.7222 104.134 68.4096 96.4191 50.475C95.5077 48.3561 94.5325 46.089 93.5198 43.6572Z" fill="#FFC3BD"/>
<path d="M90.2444 37.7986C95.1148 38.5087 100.103 55.7802 100.103 55.7802L89.6669 61.6889C89.6669 61.6889 85.4297 53.4793 83.405 47.386C81.2829 41.0015 85.0331 37.0174 90.2444 37.7986Z" fill="#ECF2FF"/>
</svg>
